# Exported by s4extract — object_Food_Pinchos_lod00_g02
o object_Food_Pinchos_lod00_g02
v -0.083682 0.009461 0.012940
v 0.042909 0.008179 0.040132
v 0.017304 0.007538 0.053377
v -0.082644 0.007752 -0.003540
v -0.041322 0.016388 0.002747
v -0.064638 0.011383 0.022584
v -0.043397 0.032838 0.005707
v -0.041322 0.016388 0.002747
v -0.064638 0.011383 0.022584
v -0.058687 0.016266 -0.021241
v -0.060762 0.032716 -0.018281
v -0.068422 0.028871 0.023530
v -0.082644 0.007752 -0.003540
v -0.043397 0.032838 0.005707
v -0.068422 0.028871 0.023530
v 0.068606 0.008698 0.065432
v 0.064699 0.006897 -0.061434
v 0.074038 0.012055 0.017548
v -0.082644 0.007752 -0.003540
v -0.058687 0.016266 -0.021241
v 0.064425 0.021851 -0.061586
v -0.060762 0.032716 -0.018281
v -0.064638 0.011383 0.022584
v -0.058687 0.016266 -0.021241
v -0.041322 0.016388 0.002747
v -0.086428 0.025208 -0.002594
v -0.012909 0.033235 0.002594
v -0.060762 0.032716 -0.018281
v -0.068422 0.028871 0.023530
v -0.086428 0.025208 -0.002594
v -0.043397 0.032838 0.005707
v -0.086428 0.025208 -0.002594
v 0.017457 0.027863 -0.000305
v 0.017304 0.007752 0.024323
v 0.013581 0.010987 -0.001862
v 0.021180 0.024628 0.025880
v -0.016694 0.014985 0.003327
v -0.008118 0.033387 0.030763
v -0.011902 0.015168 0.031495
v 0.017304 0.007752 0.024323
v -0.011902 0.015168 0.031495
v -0.008118 0.033387 0.030763
v 0.021180 0.024628 0.025880
v 0.013581 0.010987 -0.001862
v -0.016694 0.014985 0.003327
v -0.011902 0.015168 0.031495
v 0.017304 0.007752 0.024323
v 0.017457 0.027863 -0.000305
v -0.012909 0.033235 0.002594
v -0.016694 0.014985 0.003327
v 0.013581 0.010987 -0.001862
v 0.021180 0.024628 0.025880
v 0.057894 0.021851 -0.034394
v 0.025513 0.024445 0.038514
v -0.006226 0.021882 -0.077181
v 0.031587 0.021851 -0.081088
v -0.005921 0.006958 -0.077029
v 0.032044 0.006928 -0.080905
v -0.002838 0.024934 0.025575
v -0.073153 0.008576 0.049318
v 0.021882 0.006561 0.041108
v -0.006928 0.011139 0.029817
v 0.047792 0.006806 0.037446
v 0.017579 0.009400 0.023041
v 0.007050 0.010285 -0.013306
v 0.056337 0.008667 0.066195
v -0.002838 0.024934 0.025575
v -0.006928 0.011139 0.029817
v 0.030732 0.008026 0.079440
v -0.015809 0.034486 0.049959
v 0.008637 0.032777 0.069399
v 0.005005 0.014893 0.072024
v -0.019868 0.020692 0.054201
v 0.025513 0.024445 0.038514
v -0.015809 0.034486 0.049959
v -0.019868 0.020692 0.054201
v 0.021882 0.006561 0.041108
v 0.005005 0.014893 0.072024
v 0.021882 0.006561 0.041108
v -0.006928 0.011139 0.029817
v 0.008637 0.032777 0.069399
v -0.002838 0.024934 0.025575
v -0.015809 0.034486 0.049959
v 0.005005 0.014893 0.072024
v 0.025513 0.024445 0.038514
v -0.019868 0.020692 0.054201
v -0.005921 0.006958 -0.077029
v 0.008637 0.032777 0.069399
v 0.094882 0.013947 0.045534
v 0.019959 0.006989 -0.026093
v 0.057894 0.021851 -0.034394
v 0.019959 0.006989 -0.026093
v 0.058168 0.006928 -0.034242
v 0.064699 0.006897 -0.061434
v 0.032044 0.006928 -0.080905
v 0.019501 0.021943 -0.026246
v 0.019959 0.006989 -0.026093
v -0.006226 0.021882 -0.077181
v 0.032044 0.006928 -0.080905
v 0.031587 0.021851 -0.081088
v 0.064425 0.021851 -0.061586
v 0.019501 0.021943 -0.026246
v -0.008118 0.033387 0.030763
v -0.012909 0.033235 0.002594
v -0.006226 0.021882 -0.077181
v -0.005921 0.006958 -0.077029
v 0.031587 0.021851 -0.081088
v 0.019501 0.021943 -0.026246
v 0.058168 0.006928 -0.034242
v 0.017457 0.027863 -0.000305
v -0.007965 0.029542 0.069155
v -0.026124 0.011444 0.047426
v -0.051820 0.029878 0.072817
v -0.083193 0.008576 0.013306
v -0.025544 0.036378 0.046113
v -0.015931 0.019044 0.015931
v -0.026887 0.026582 0.091220
v -0.027375 0.018067 0.045015
v -0.025544 0.036378 0.046113
v -0.040529 0.025636 0.001587
v -0.027375 0.018067 0.045015
v 0.009186 0.009400 0.032991
v -0.075320 0.009461 -0.023743
v -0.012299 0.033418 0.018067
v -0.058382 0.022645 0.026948
v 0.017090 0.010285 -0.004059
v -0.012299 0.033418 0.018067
v -0.036897 0.040040 0.003723
v -0.036897 0.040040 0.003723
v -0.015931 0.019044 0.015931
v -0.026002 0.029908 0.047304
v -0.012299 0.033418 0.018067
v -0.040529 0.025636 0.001587
v -0.056551 0.040956 0.028016
v -0.040529 0.025636 0.001587
v -0.056551 0.040956 0.028016
v -0.058382 0.022645 0.026948
v -0.026002 0.029908 0.047304
v -0.026002 0.029908 0.047304
v -0.006439 0.014740 0.067354
v -0.007965 0.029542 0.069155
v -0.044588 0.010010 0.056215
v -0.067934 0.009400 0.054781
v -0.044588 0.010010 0.056215
v -0.067934 0.009400 0.054781
v -0.026124 0.011444 0.047426
v -0.025361 0.011780 0.089419
v -0.006439 0.014740 0.067354
v -0.051943 0.011444 0.072939
v -0.051820 0.029878 0.072817
v -0.035127 0.013215 0.041597
v -0.039186 0.030610 0.028474
v -0.041047 0.013947 0.025697
v -0.058382 0.022645 0.026948
v -0.027375 0.018067 0.045015
v -0.015931 0.019044 0.015931
v -0.045320 0.027924 0.059053
v -0.068667 0.027314 0.057619
v -0.068667 0.027314 0.057619
v -0.039216 0.034211 0.044710
v -0.070559 0.016511 0.024415
v -0.035127 0.013215 0.041597
v -0.070559 0.016511 0.024415
v -0.076357 0.029023 0.041780
v -0.068697 0.033143 0.027223
v -0.045320 0.027924 0.059053
v -0.076357 0.029023 0.041780
v -0.039216 0.034211 0.044710
v -0.068697 0.033143 0.027223
v -0.039186 0.030610 0.028474
v -0.072268 0.007996 0.038636
v -0.072268 0.007996 0.038636
v -0.041047 0.013947 0.025697
v -0.068667 0.027314 0.057619
v -0.006439 0.014740 0.067354
v -0.025361 0.011780 0.089419
v -0.004364 0.013092 -0.007630
v 0.078524 0.008606 -0.015564
v 0.035676 0.008728 0.026734
v -0.064028 0.009095 0.041017
v -0.046297 0.018738 -0.017365
v -0.037782 0.032807 -0.078310
v 0.001251 0.025636 -0.064760
v -0.067934 0.009400 0.054781
v -0.045320 0.027924 0.059053
v -0.044588 0.010010 0.056215
v -0.039186 0.030610 0.028474
v -0.041047 0.013947 0.025697
v -0.068697 0.033143 0.027223
v -0.070559 0.016511 0.024415
v -0.025361 0.011780 0.089419
v -0.026887 0.026582 0.091220
v -0.056551 0.040956 0.028016
v -0.051943 0.011444 0.072939
v -0.036897 0.040040 0.003723
v -0.033540 0.018708 -0.080691
v -0.051820 0.029878 0.072817
v -0.041932 0.004639 -0.019684
v -0.026124 0.011444 0.047426
v 0.001251 0.025636 -0.064760
v -0.041932 0.004639 -0.019684
v -0.041932 0.004639 -0.019684
v -0.054598 0.008271 -0.057863
v -0.054598 0.008271 -0.057863
v -0.033540 0.018708 -0.080691
v -0.046297 0.018738 -0.017365
v -0.037782 0.032807 -0.078310
v -0.025544 0.036378 0.046113
v -0.051943 0.011444 0.072939
v -0.003113 0.039735 -0.062441
v 0.001251 0.025636 -0.064760
v -0.041932 0.004639 -0.019684
v -0.046297 0.018738 -0.017365
v -0.058840 0.022401 -0.055483
v -0.003113 0.039735 -0.062441
v 0.019959 0.006989 -0.026093
v 0.105960 0.013703 0.016297
v 0.063143 0.007996 0.037873
v -0.003113 0.039735 -0.062441
v 0.017487 0.023591 -0.029664
v 0.001251 0.025636 -0.064760
v -0.058840 0.022401 -0.055483
v -0.004364 0.013092 -0.007630
v -0.026887 0.026582 0.091220
v -0.046297 0.018738 -0.017365
v 0.013245 0.037721 -0.027253
v -0.003113 0.039735 -0.062441
v 0.013245 0.037721 -0.027253
v -0.008576 0.027192 -0.005219
v -0.008576 0.027192 -0.005219
v 0.017487 0.023591 -0.029664
v -0.007965 0.029542 0.069155
v -0.005921 0.006958 -0.077029
v -0.011383 0.006958 -0.049623
v -0.006226 0.021882 -0.077181
v 0.019501 0.021943 -0.026246
v 0.019959 0.006989 -0.026093
v 0.019501 0.021943 -0.026246
v 0.019959 0.006989 -0.026093
v -0.005921 0.006958 -0.077029
v -0.011383 0.006958 -0.049623
v 0.055788 0.012360 0.047121
v -0.011658 0.021912 -0.049776
v 0.028077 0.008271 0.020112
v 0.098636 0.012238 0.004791
v 0.074862 0.009491 0.005005
v 0.031587 0.021851 -0.081088
v 0.019501 0.021943 -0.026246
v -0.055635 0.009980 0.077944
v 0.094241 0.012207 0.049165
v 0.036470 0.009156 0.057039
v 0.032044 0.006928 -0.080905
v -0.006226 0.021882 -0.077181
v -0.011658 0.021912 -0.049776
vt 0.667137 0.062343
vt 0.249215 0.474460
vt 0.244565 0.299158
vt 0.760623 0.641373
vt 0.995828 0.851413
vt 0.760623 0.508590
vt 0.995828 0.633046
vt 0.995828 0.508590
vt 0.760623 0.870530
vt 0.995828 0.638273
vt 0.995828 0.508590
vt 0.760623 0.508590
vt 0.995828 0.633046
vt 0.760623 0.633046
vt 0.760623 0.633046
vt 0.226573 0.300769
vt 0.886203 0.455769
vt 0.004042 0.495309
vt 0.760623 0.633046
vt 0.995828 0.633046
vt 0.886203 0.455769
vt 0.995828 0.633046
vt 0.760623 0.633046
vt 0.995828 0.508590
vt 0.760623 0.508590
vt 0.995828 0.508590
vt 0.499525 0.508590
vt 0.995828 0.851383
vt 0.760623 0.641373
vt 0.760623 0.508590
vt 0.995828 0.638273
vt 0.760623 0.870530
vt 0.499525 0.631496
vt 0.245416 0.508590
vt 0.499525 0.508590
vt 0.245416 0.631496
vt 0.499525 0.631496
vt 0.245416 0.508590
vt 0.245416 0.631496
vt 0.499525 0.508590
vt 0.245416 0.508590
vt 0.245416 0.631496
vt 0.499525 0.631496
vt 0.254899 0.631678
vt 0.258181 0.897032
vt 0.478524 0.897032
vt 0.458830 0.631678
vt 0.499525 0.508590
vt 0.245416 0.508590
vt 0.245416 0.631496
vt 0.499525 0.631496
vt 0.254929 0.631678
vt 0.885565 0.339823
vt 0.499221 0.634292
vt 0.915836 0.425103
vt 0.915836 0.491449
vt 0.985494 0.425103
vt 0.985494 0.490659
vt 0.757797 0.634292
vt 0.667137 0.218862
vt 0.499221 0.508590
vt 0.757797 0.508590
vt 0.004042 0.300769
vt 0.275717 0.218862
vt 0.275717 0.062343
vt 0.412725 0.464886
vt 0.757797 0.508590
vt 0.757797 0.634292
vt 0.412725 0.308367
vt 0.499221 0.508590
vt 0.499221 0.634292
vt 0.499221 0.508590
vt 0.499221 0.634292
vt 0.757797 0.634292
vt 0.757797 0.508590
vt 0.757797 0.634292
vt 0.757797 0.508590
vt 0.499221 0.639003
vt 0.499221 0.905815
vt 0.757797 0.871928
vt 0.499221 0.508590
vt 0.757797 0.651828
vt 0.757797 0.871988
vt 0.499221 0.634292
vt 0.499221 0.638942
vt 0.757797 0.651737
vt 0.635134 0.456012
vt 0.499221 0.905754
vt 0.226573 0.495309
vt 0.868819 0.470661
vt 0.915836 0.376931
vt 0.985494 0.318396
vt 0.885565 0.339823
vt 0.985494 0.425103
vt 0.985494 0.490659
vt 0.760836 0.304416
vt 0.760836 0.304416
vt 0.635134 0.456012
vt 0.760593 0.491115
vt 0.760593 0.491115
vt 0.915836 0.425103
vt 0.915836 0.318396
vt 0.258151 0.897032
vt 0.478493 0.897032
vt 0.659174 0.328213
vt 0.642398 0.339914
vt 0.915836 0.491449
vt 0.881553 0.455556
vt 0.985494 0.376931
vt 0.458860 0.631678
vt 0.757797 0.871928
vt 0.499221 0.634292
vt 0.499221 0.639003
vt 0.667137 0.218862
vt 0.499221 0.634292
vt 0.757797 0.508590
vt 0.757797 0.651737
vt 0.757797 0.508590
vt 0.757797 0.634292
vt 0.757797 0.651737
vt 0.499221 0.508590
vt 0.275717 0.218862
vt 0.667137 0.062343
vt 0.757797 0.651828
vt 0.499221 0.634292
vt 0.275717 0.062343
vt 0.757797 0.634292
vt 0.757797 0.508590
vt 0.499221 0.508590
vt 0.757797 0.634292
vt 0.499221 0.905815
vt 0.757797 0.508590
vt 0.499221 0.634292
vt 0.499221 0.508590
vt 0.757797 0.634292
vt 0.499221 0.634292
vt 0.499221 0.508590
vt 0.757797 0.508590
vt 0.499221 0.508590
vt 0.757797 0.634292
vt 0.757797 0.508590
vt 0.009209 0.876760
vt 0.009209 0.659153
vt 0.005562 0.508590
vt 0.005562 0.631678
vt 0.499221 0.638942
vt 0.757797 0.871988
vt 0.757797 0.651828
vt 0.499221 0.905754
vt 0.499221 0.634292
vt 0.128072 0.508590
vt 0.249367 0.631678
vt 0.249367 0.508590
vt 0.499221 0.639003
vt 0.499221 0.905815
vt 0.757797 0.871928
vt 0.009209 0.659153
vt 0.005562 0.508590
vt 0.009209 0.876760
vt 0.128072 0.631678
vt 0.245720 0.648819
vt 0.128072 0.902715
vt 0.249367 0.631678
vt 0.128072 0.508590
vt 0.249367 0.508590
vt 0.005562 0.631678
vt 0.128072 0.902715
vt 0.128072 0.634109
vt 0.245720 0.870165
vt 0.245720 0.648819
vt 0.128072 0.631678
vt 0.128072 0.634109
vt 0.245720 0.870165
vt 0.250978 0.508590
vt 0.757797 0.508590
vt 0.499221 0.508590
vt 0.985494 0.376931
vt 0.584896 0.474460
vt 0.249215 0.474460
vt 0.275717 0.218862
vt 0.760836 0.304416
vt 0.635134 0.456012
vt 0.985494 0.490659
vt 0.250978 0.632438
vt 0.005562 0.508590
vt 0.005562 0.632438
vt 0.005562 0.632438
vt 0.005562 0.508590
vt 0.250978 0.632438
vt 0.250978 0.508590
vt 0.757797 0.508590
vt 0.757797 0.634292
vt 0.499221 0.905754
vt 0.499221 0.508590
vt 0.757797 0.871988
vt 0.635134 0.456012
vt 0.499221 0.508590
vt 0.760836 0.304416
vt 0.757797 0.634292
vt 0.760593 0.491115
vt 0.985494 0.309066
vt 0.760836 0.304416
vt 0.634952 0.339823
vt 0.985494 0.376931
vt 0.985494 0.425103
vt 0.915836 0.309066
vt 0.915836 0.425103
vt 0.499221 0.638942
vt 0.499221 0.634292
vt 0.915836 0.491449
vt 0.985494 0.490659
vt 0.985494 0.309066
vt 0.915836 0.309066
vt 0.915836 0.376931
vt 0.915836 0.491449
vt 0.760836 0.304416
vt 0.004042 0.495309
vt 0.226573 0.300769
vt 0.760593 0.491115
vt 0.886203 0.455769
vt 0.760593 0.491115
vt 0.634952 0.339823
vt 0.885565 0.339823
vt 0.499221 0.634292
vt 0.760836 0.304416
vt 0.886203 0.455769
vt 0.760593 0.491115
vt 0.915836 0.425103
vt 0.915836 0.376931
vt 0.885565 0.339823
vt 0.985494 0.425103
vt 0.757797 0.634292
vt 0.635134 0.456012
vt 0.634952 0.339823
vt 0.915836 0.425103
vt 0.915836 0.309066
vt 0.985494 0.309066
vt 0.915836 0.309066
vt 0.985494 0.309066
vt 0.985494 0.425103
vt 0.985494 0.376931
vt 0.244565 0.299158
vt 0.915836 0.376931
vt 0.667137 0.218862
vt 0.589546 0.299158
vt 0.004042 0.300769
vt 0.760593 0.491115
vt 0.760836 0.304416
vt 0.275717 0.062343
vt 0.226573 0.495309
vt 0.667137 0.062343
vt 0.760593 0.491115
vt 0.635134 0.456012
vt 0.634952 0.339823
vn -0.001879 0.999689 0.024876
vn -0.027404 0.999614 -0.004609
vn -0.027404 0.999614 -0.004609
vn 0.215476 -0.973293 -0.079185
vn 0.215476 -0.973293 -0.079185
vn 0.612776 0.014854 0.790117
vn 0.612776 0.014854 0.790117
vn 0.653694 -0.053380 0.754874
vn 0.205390 -0.978665 -0.005513
vn 0.224993 -0.961467 -0.157983
vn -0.537297 0.083253 -0.839274
vn -0.792777 -0.202660 0.574834
vn -0.792808 -0.203012 0.574667
vn 0.792595 0.203438 -0.574810
vn 0.569943 0.079091 0.817869
vn -0.158327 0.986060 0.051169
vn -0.001403 -0.999999 0.000785
vn -0.158327 0.986060 0.051169
vn -0.573737 -0.080201 -0.815103
vn -0.558042 -0.000835 -0.829812
vn 0.000000 1.000000 0.000000
vn 0.792595 0.203438 -0.574810
vn -0.792792 -0.202836 0.574750
vn 0.792595 0.203438 -0.574810
vn 0.792595 0.203438 -0.574810
vn -0.792792 -0.202836 0.574750
vn -0.964757 0.206591 0.162984
vn -0.184838 0.981151 0.056373
vn -0.184838 0.981151 0.056373
vn -0.558042 -0.000835 -0.829812
vn -0.106115 0.991760 0.071771
vn -0.256922 0.965531 0.041729
vn 0.964809 -0.206569 -0.162707
vn 0.964809 -0.206569 -0.162707
vn 0.964809 -0.206569 -0.162707
vn 0.964809 -0.206569 -0.162707
vn -0.964741 0.206756 0.162868
vn -0.964741 0.206756 0.162868
vn -0.964725 0.206921 0.162752
vn 0.203512 -0.136155 0.969559
vn 0.184585 -0.063315 0.980775
vn 0.165905 0.005184 0.986128
vn 0.184585 -0.063315 0.980775
vn -0.147186 -0.983976 -0.100635
vn -0.193361 -0.980815 -0.024780
vn -0.235147 -0.970856 0.046309
vn -0.193361 -0.980815 -0.024780
vn -0.075405 0.108731 -0.991207
vn -0.124378 0.050369 -0.990956
vn -0.169473 -0.004411 -0.985525
vn -0.124378 0.050369 -0.990956
vn 0.297125 0.951861 0.075347
vn 0.001412 0.999999 -0.000796
vn 0.402847 -0.210992 -0.890616
vn -0.102764 -0.012272 -0.994630
vn -0.102162 -0.013799 -0.994672
vn -0.102162 -0.013799 -0.994672
vn -0.101562 -0.015320 -0.994711
vn 0.353755 -0.278888 -0.892793
vn -0.001878 0.999689 0.024865
vn 0.353755 -0.278888 -0.892793
vn 0.290616 -0.358920 -0.886972
vn -0.158425 0.986045 0.051157
vn -0.001879 0.999689 0.024876
vn -0.001880 0.999689 0.024886
vn -0.027404 0.999614 -0.004609
vn -0.861115 0.102126 -0.498047
vn -0.861526 0.101472 -0.497470
vn -0.027404 0.999614 -0.004609
vn -0.861526 0.101472 -0.497470
vn 0.861163 -0.101787 0.498034
vn 0.861178 -0.102233 0.497917
vn -0.861936 0.100817 -0.496892
vn 0.861178 -0.102233 0.497917
vn -0.556456 0.389443 0.733956
vn -0.545039 0.301870 0.782181
vn 0.861193 -0.102678 0.497799
vn -0.270748 -0.949099 0.160956
vn -0.210641 -0.966671 0.145525
vn -0.270748 -0.949099 0.160956
vn -0.545039 0.301870 0.782181
vn 0.149059 0.945061 -0.290931
vn 0.173236 0.960614 -0.217280
vn -0.531540 0.227675 0.815861
vn 0.173236 0.960614 -0.217280
vn -0.343247 -0.922022 0.179044
vn -0.000706 -0.999999 0.000958
vn 0.192099 0.968835 -0.156384
vn -0.158228 0.986075 0.051181
vn -0.891290 -0.022663 0.452868
vn 0.618973 0.020275 0.785150
vn 0.208097 0.015091 0.977992
vn -0.001419 -0.999999 0.000794
vn 0.966364 0.015145 -0.256733
vn 0.511370 0.002880 -0.859356
vn 0.001386 0.999998 -0.001364
vn -0.001063 -0.999999 0.000879
vn 0.000649 0.999999 -0.001526
vn -0.001132 -0.999999 0.000860
vn 0.001106 0.999999 -0.001089
vn 0.746722 0.008869 -0.665077
vn 0.207627 0.016336 0.978072
vn 0.232721 0.972364 0.018686
vn 0.170892 0.984689 -0.034402
vn -0.892512 -0.013642 0.450818
vn -0.891909 -0.018161 0.451849
vn 0.510606 0.005113 -0.859800
vn -0.891909 -0.018161 0.451849
vn 0.619760 0.019429 0.784551
vn 0.232721 0.972364 0.018686
vn 0.013962 0.997025 0.075803
vn 0.712193 -0.009350 -0.701921
vn 0.013962 0.997025 0.075803
vn -0.013399 0.999689 0.021033
vn 0.893440 -0.115391 0.434109
vn 0.897083 -0.277728 0.343671
vn 0.020080 0.988506 0.149840
vn -0.503610 -0.001475 0.863930
vn -0.503845 -0.000723 0.863794
vn -0.136723 -0.968006 -0.210406
vn 0.898933 -0.189342 0.395056
vn -0.013395 0.999689 0.021028
vn -0.013395 0.999689 0.021028
vn 0.251017 0.967844 0.016388
vn -0.818624 0.114690 -0.562762
vn -0.013392 0.999689 0.021023
vn 0.898933 -0.189342 0.395056
vn -0.741740 0.277556 -0.610561
vn 0.503947 0.001043 -0.863734
vn 0.503947 0.001043 -0.863734
vn 0.008470 0.999916 0.009767
vn 0.503947 0.001044 -0.863734
vn 0.503946 0.001042 -0.863735
vn -0.787344 0.188949 -0.586845
vn -0.787344 0.188949 -0.586845
vn -0.504079 0.000028 0.863657
vn -0.503845 -0.000723 0.863794
vn -0.702890 -0.000056 -0.711298
vn 0.738398 0.065031 -0.671222
vn 0.738398 0.065031 -0.671222
vn 0.763169 0.154992 -0.627336
vn 0.098842 -0.994228 -0.041720
vn 0.021076 -0.996492 0.080994
vn 0.843451 -0.050253 0.534850
vn -0.923350 -0.167410 0.345540
vn 0.073055 -0.997306 0.006645
vn 0.073055 -0.997306 0.006645
vn 0.160235 -0.987066 0.004980
vn 0.007760 -0.999939 0.007853
vn -0.593019 0.009259 0.805135
vn 0.982537 0.063379 0.174941
vn 0.978464 0.087149 -0.187118
vn 0.935447 -0.046102 -0.350448
vn -0.118611 -0.983651 -0.135505
vn -0.103340 -0.991892 -0.073970
vn -0.118611 -0.983651 -0.135505
vn -0.047693 0.922150 0.383881
vn -0.899044 -0.104139 0.425294
vn -0.110712 0.959257 0.259942
vn 0.965509 0.157288 0.207494
vn -0.051712 -0.854081 -0.517563
vn 0.146877 -0.983045 -0.109775
vn -0.949967 -0.006851 -0.312276
vn -0.994659 -0.096933 0.035459
vn -0.891057 0.170727 -0.420560
vn 0.875526 0.034792 0.481916
vn -0.150324 0.970917 0.186341
vn -0.074444 0.988918 0.128452
vn -0.040228 0.999167 0.006787
vn 0.092574 0.972118 -0.215446
vn -0.979772 -0.196337 0.038707
vn 0.077599 -0.980798 -0.178922
vn 0.057040 -0.952146 -0.300275
vn -0.056419 -0.158482 0.985749
vn 0.759169 -0.000916 0.650893
vn 0.759169 -0.000916 0.650893
vn 0.197918 -0.107484 0.974308
vn -0.087021 0.992040 -0.091014
vn -0.087003 0.992046 -0.090964
vn 0.003333 0.999689 -0.024717
vn -0.271577 0.945397 0.180197
vn -0.271527 0.945354 0.180498
vn 0.864252 0.327471 -0.381879
vn -0.056419 -0.158482 0.985749
vn -0.056419 -0.158482 0.985749
vn -0.056419 -0.158482 0.985749
vn 0.055372 0.158125 -0.985865
vn 0.056037 0.159067 -0.985676
vn 0.056037 0.159067 -0.985676
vn 0.056702 0.160011 -0.985485
vn -0.519074 -0.155749 0.840419
vn -0.562059 -0.065384 0.824509
vn 0.114294 0.991919 0.055085
vn -0.562059 -0.065384 0.824509
vn 0.176065 0.983652 0.037827
vn 0.271425 -0.945141 -0.181758
vn -0.702890 -0.000056 -0.711298
vn 0.270816 -0.945469 -0.180960
vn -0.702890 -0.000056 -0.711298
vn 0.271614 -0.945302 -0.180636
vn -0.906436 -0.324944 0.269786
vn 0.271710 -0.945384 -0.180064
vn 0.271614 -0.945302 -0.180636
vn -0.957428 -0.288440 -0.011557
vn -0.158410 0.117654 -0.980339
vn -0.907811 -0.321577 0.269198
vn -0.158996 0.117659 -0.980243
vn 0.176065 0.983652 0.037827
vn -0.702890 -0.000056 -0.711298
vn 0.358883 0.258985 -0.896733
vn 0.359104 0.258666 -0.896736
vn -0.249628 -0.233558 0.939753
vn -0.250602 -0.232172 0.939838
vn -0.902048 -0.207081 -0.378717
vn 0.863076 0.330037 -0.382330
vn -0.000653 -0.999999 0.000970
vn -0.133329 0.991069 -0.002447
vn -0.133329 0.991069 -0.002447
vn -0.271560 0.945382 0.180298
vn 0.271803 -0.945215 -0.180808
vn 0.271148 -0.945384 -0.180909
vn -0.271560 0.945382 0.180298
vn 0.271148 -0.945384 -0.180909
vn 0.759169 -0.000916 0.650893
vn -0.270327 0.945515 0.181450
vn -0.273081 0.944804 0.181031
vn -0.271255 0.945277 0.181309
vn 0.952103 0.299061 -0.063737
vn 0.196843 -0.106436 0.974641
vn -0.271255 0.945277 0.181309
vn 0.904237 0.207269 0.373357
vn 0.759169 -0.000916 0.650893
vn -0.000821 -1.000000 -0.000164
vn -0.000199 -1.000000 0.000700
vn -0.586369 -0.020271 -0.809790
vn 0.207627 0.016336 0.978072
vn -0.600336 -0.010218 0.799683
vn -0.601480 -0.006578 0.798861
vn 0.208097 0.015091 0.977992
vn -0.585653 -0.020822 -0.810294
vn -0.793811 -0.011447 0.608057
vn -0.086986 0.992052 -0.090914
vn -0.967933 -0.015926 0.250702
vn 0.003333 0.999689 -0.024717
vn -0.087003 0.992046 -0.090964
vn -0.133329 0.991069 -0.002447
vn 0.000907 0.999999 -0.001097
vn 0.001189 0.999998 -0.001407
vn 0.003333 0.999689 -0.024717
vn -0.133329 0.991069 -0.002447
vn 0.003333 0.999689 -0.024717
vn -0.000808 -0.999999 0.000747
vn 0.000707 0.999999 -0.000974
vn 0.000398 0.999999 -0.001399
f 7/7/7 6/6/6 8/8/8
f 15/15/15 6/6/6 7/7/7
f 20/20/20 30/30/30 11/11/11
f 19/19/19 30/30/30 20/20/20
f 9/9/9 4/4/4 5/5/5
f 5/5/5 4/4/4 10/10/10
f 14/14/14 25/25/25 22/22/22
f 22/22/22 25/25/25 24/24/24
f 13/13/13 23/23/23 26/26/26
f 26/26/26 23/23/23 12/12/12
f 21/21/21 100/100/100 53/53/53
f 53/53/53 100/100/100 96/96/96
f 96/96/96 100/100/100 98/98/98
f 27/27/27 37/37/37 38/38/38
f 38/38/38 37/37/37 39/39/39
f 28/28/28 29/29/29 31/31/31
f 32/32/32 29/29/29 28/28/28
f 33/33/33 34/34/34 35/35/35
f 36/36/36 34/34/34 33/33/33
f 43/43/43 41/41/41 40/40/40
f 42/42/42 41/41/41 43/43/43
f 47/47/47 45/45/45 44/44/44
f 46/46/46 45/45/45 47/47/47
f 51/51/51 49/49/49 48/48/48
f 50/50/50 49/49/49 51/51/51
f 110/110/110 103/103/103 52/52/52
f 104/104/104 103/103/103 110/110/110
f 55/55/55 56/56/56 57/57/57
f 57/57/57 56/56/56 58/58/58
f 54/54/54 61/61/61 59/59/59
f 59/59/59 61/61/61 62/62/62
f 64/64/64 1/1/1 60/60/60
f 65/65/65 1/1/1 64/64/64
f 3/3/3 66/66/66 2/2/2
f 69/69/69 66/66/66 3/3/3
f 68/68/68 70/70/70 67/67/67
f 73/73/73 70/70/70 68/68/68
f 72/72/72 74/74/74 71/71/71
f 77/77/77 74/74/74 72/72/72
f 76/76/76 81/81/81 75/75/75
f 84/84/84 81/81/81 76/76/76
f 83/83/83 85/85/85 82/82/82
f 88/88/88 85/85/85 83/83/83
f 80/80/80 78/78/78 86/86/86
f 79/79/79 78/78/78 80/80/80
f 97/97/97 87/87/87 99/99/99
f 97/97/97 99/99/99 93/93/93
f 93/93/93 99/99/99 17/17/17
f 18/18/18 16/16/16 89/89/89
f 63/63/63 16/16/16 18/18/18
f 107/107/107 101/101/101 95/95/95
f 95/95/95 101/101/101 94/94/94
f 91/91/91 94/94/94 101/101/101
f 109/109/109 94/94/94 91/91/91
f 91/91/91 92/92/92 109/109/109
f 102/102/102 92/92/92 91/91/91
f 106/106/106 108/108/108 105/105/105
f 90/90/90 108/108/108 106/106/106
f 122/122/122 123/123/123 114/114/114
f 126/126/126 123/123/123 122/122/122
f 20/20/20 30/30/30 11/11/11
f 19/19/19 30/30/30 20/20/20
f 156/156/156 154/154/154 120/120/120
f 155/155/155 154/154/154 156/156/156
f 115/115/115 121/121/121 127/127/127
f 127/127/127 121/121/121 116/116/116
f 195/195/195 208/208/208 124/124/124
f 193/193/193 208/208/208 195/195/195
f 125/125/125 134/134/134 135/135/135
f 135/135/135 134/134/134 128/128/128
f 118/118/118 119/119/119 137/137/137
f 137/137/137 119/119/119 136/136/136
f 133/133/133 129/129/129 130/130/130
f 130/130/130 129/129/129 132/132/132
f 32/32/32 29/29/29 28/28/28
f 28/28/28 29/29/29 31/31/31
f 9/9/9 4/4/4 5/5/5
f 5/5/5 4/4/4 10/10/10
f 138/138/138 199/199/199 197/197/197
f 197/197/197 199/199/199 209/209/209
f 15/15/15 6/6/6 7/7/7
f 7/7/7 6/6/6 8/8/8
f 13/13/13 23/23/23 26/26/26
f 26/26/26 23/23/23 12/12/12
f 14/14/14 25/25/25 22/22/22
f 22/22/22 25/25/25 24/24/24
f 131/131/131 113/113/113 111/111/111
f 111/111/111 113/113/113 117/117/117
f 112/112/112 139/139/139 140/140/140
f 140/140/140 139/139/139 141/141/141
f 149/149/149 146/146/146 147/147/147
f 147/147/147 146/146/146 148/148/148
f 150/150/150 194/194/194 192/192/192
f 192/192/192 194/194/194 191/191/191
f 33/33/33 34/34/34 35/35/35
f 36/36/36 34/34/34 33/33/33
f 38/38/38 37/37/37 39/39/39
f 27/27/27 37/37/37 38/38/38
f 157/157/157 168/168/168 159/159/159
f 159/159/159 168/168/168 167/167/167
f 167/167/167 168/168/168 169/169/169
f 169/169/169 168/168/168 170/170/170
f 164/164/164 145/145/145 158/158/158
f 171/171/171 145/145/145 164/164/164
f 171/171/171 164/164/164 163/163/163
f 163/163/163 164/164/164 165/165/165
f 172/172/172 142/142/142 143/143/143
f 162/162/162 142/142/142 172/172/172
f 172/172/172 173/173/173 162/162/162
f 161/161/161 173/173/173 172/172/172
f 144/144/144 151/151/151 166/166/166
f 166/166/166 151/151/151 160/160/160
f 160/160/160 151/151/151 152/152/152
f 152/152/152 151/151/151 153/153/153
f 174/174/174 184/184/184 185/185/185
f 185/185/185 184/184/184 186/186/186
f 187/187/187 188/188/188 189/189/189
f 189/189/189 188/188/188 190/190/190
f 104/104/104 103/103/103 110/110/110
f 110/110/110 103/103/103 52/52/52
f 50/50/50 49/49/49 51/51/51
f 51/51/51 49/49/49 48/48/48
f 46/46/46 45/45/45 47/47/47
f 47/47/47 45/45/45 44/44/44
f 42/42/42 41/41/41 43/43/43
f 43/43/43 41/41/41 40/40/40
f 198/198/198 221/221/221 223/223/223
f 223/223/223 221/221/221 220/220/220
f 205/205/205 210/210/210 211/211/211
f 207/207/207 210/210/210 205/205/205
f 205/205/205 214/214/214 207/207/207
f 204/204/204 214/214/214 205/205/205
f 204/204/204 206/206/206 214/214/214
f 201/201/201 206/206/206 204/204/204
f 196/196/196 200/200/200 203/203/203
f 203/203/203 200/200/200 202/202/202
f 213/213/213 212/212/212 229/229/229
f 229/229/229 212/212/212 177/177/177
f 177/177/177 231/231/231 229/229/229
f 229/229/229 231/231/231 228/228/228
f 183/183/183 228/228/228 231/231/231
f 215/215/215 228/228/228 183/183/183
f 181/181/181 219/219/219 222/222/222
f 222/222/222 219/219/219 182/182/182
f 226/226/226 227/227/227 230/230/230
f 230/230/230 227/227/227 225/225/225
f 79/79/79 78/78/78 80/80/80
f 80/80/80 78/78/78 86/86/86
f 54/54/54 61/61/61 59/59/59
f 59/59/59 61/61/61 62/62/62
f 88/88/88 85/85/85 83/83/83
f 83/83/83 85/85/85 82/82/82
f 84/84/84 81/81/81 76/76/76
f 76/76/76 81/81/81 75/75/75
f 77/77/77 74/74/74 72/72/72
f 72/72/72 74/74/74 71/71/71
f 224/224/224 176/176/176 232/232/232
f 232/232/232 176/176/176 175/175/175
f 68/68/68 70/70/70 67/67/67
f 73/73/73 70/70/70 68/68/68
f 69/69/69 66/66/66 3/3/3
f 3/3/3 66/66/66 2/2/2
f 21/21/21 247/247/247 53/53/53
f 53/53/53 247/247/247 248/248/248
f 248/248/248 247/247/247 254/254/254
f 254/254/254 247/247/247 253/253/253
f 240/240/240 56/56/56 58/58/58
f 235/235/235 56/56/56 240/240/240
f 240/240/240 243/243/243 235/235/235
f 241/241/241 243/243/243 240/240/240
f 241/241/241 238/238/238 243/243/243
f 237/237/237 238/238/238 241/241/241
f 233/233/233 252/252/252 234/234/234
f 234/234/234 252/252/252 216/216/216
f 216/216/216 252/252/252 93/93/93
f 93/93/93 252/252/252 17/17/17
f 236/236/236 239/239/239 91/91/91
f 91/91/91 239/239/239 109/109/109
f 109/109/109 94/94/94 91/91/91
f 91/91/91 94/94/94 101/101/101
f 95/95/95 101/101/101 94/94/94
f 107/107/107 101/101/101 95/95/95
f 242/242/242 245/245/245 179/179/179
f 179/179/179 245/245/245 178/178/178
f 180/180/180 251/251/251 244/244/244
f 249/249/249 251/251/251 180/180/180
f 18/18/18 16/16/16 89/89/89
f 63/63/63 16/16/16 18/18/18
f 217/217/217 218/218/218 250/250/250
f 246/246/246 218/218/218 217/217/217
