# Exported by s4extract — object_Food_Choripan_lod00_g02
o object_Food_Choripan_lod00_g02
v 0.026368 0.033631 -0.037416
v -0.001770 0.024445 0.033326
v 0.070193 0.033143 -0.023499
v 0.028138 0.024415 -0.026795
v -0.017670 0.034516 -0.031404
v 0.062166 0.032991 -0.038728
v -0.009796 0.033448 -0.002930
v 0.062166 0.032991 -0.038728
v 0.062014 0.023469 -0.038575
v 0.026368 0.033631 -0.037416
v -0.001190 0.033845 0.029450
v 0.028138 0.024415 -0.026795
v -0.004486 0.011994 0.030335
v 0.026368 0.033631 -0.037416
v -0.016327 0.023713 -0.024659
v -0.004425 0.023835 0.013977
v -0.005524 0.011994 0.001160
v 0.037782 0.033174 0.028504
v 0.053896 0.033723 -0.008942
v -0.009796 0.033448 -0.002930
v 0.065828 0.024445 0.019105
v -0.001770 0.024445 0.033326
v -0.004486 0.011994 0.030335
v -0.003510 0.024445 0.000732
v -0.003510 0.024445 0.000732
v -0.015046 0.024445 -0.029786
v 0.052553 0.024445 -0.044038
v 0.065126 0.011994 0.015687
v 0.065828 0.024445 0.019105
v -0.016327 0.011994 -0.025971
v -0.001770 0.024445 0.033326
v -0.015046 0.024445 -0.029786
v 0.052553 0.024445 -0.044038
v 0.053255 0.011994 -0.040620
v 0.053255 0.011994 -0.040620
v 0.052553 0.024445 -0.044038
v -0.046266 0.011994 -0.010254
v -0.047060 0.017640 -0.011475
v -0.045747 0.017640 -0.017457
v -0.045747 0.017640 -0.017457
v -0.044527 0.011994 -0.018220
v 0.067873 0.028047 -0.026643
v 0.065828 0.024445 0.019105
v 0.065126 0.011994 0.015687
v -0.014801 0.051576 -0.027955
v 0.070193 0.033143 -0.023499
v 0.069246 0.033021 -0.031343
v 0.080874 0.033265 0.009369
v 0.079928 0.033143 0.001556
v 0.072848 0.033113 -0.005860
v -0.053133 0.017640 -0.012787
v -0.046266 0.011994 -0.010254
v -0.054384 0.011994 -0.021455
v -0.017670 0.034516 -0.031404
v 0.058473 0.040742 0.019501
v -0.020936 0.011994 -0.023591
v -0.030915 0.011994 -0.020661
v 0.052553 0.040834 -0.044038
v 0.065828 0.040834 0.019105
v -0.007233 0.063143 -0.004425
v 0.001129 0.063143 0.012940
v 0.000458 0.051576 0.030976
v 0.052400 0.061129 0.002136
v 0.064516 0.051576 0.017487
v 0.052553 0.040834 -0.044038
v -0.015198 0.040834 -0.029756
v 0.052004 0.051576 -0.042024
v -0.014801 0.051576 -0.027955
v 0.000855 0.040834 0.032777
v 0.065828 0.040834 0.019105
v 0.000855 0.040834 0.032777
v 0.000458 0.051576 0.030976
v 0.064516 0.051576 0.017487
v -0.015198 0.040834 -0.029756
v -0.014801 0.051576 -0.027955
v -0.007233 0.063143 -0.004425
v -0.007141 0.040834 -0.004059
v -0.007141 0.040834 -0.004059
v 0.052553 0.040834 -0.044038
v -0.015198 0.040834 -0.029756
v 0.000458 0.051576 0.030976
v 0.001129 0.063143 0.012940
v 0.000855 0.040834 0.032777
v 0.000488 0.040834 0.009980
v 0.065828 0.040834 0.019105
v -0.020936 0.011994 -0.030152
v -0.025788 0.015870 -0.027802
v -0.032533 0.011994 -0.030152
v 0.053896 0.033723 -0.008942
v -0.016327 0.023713 -0.024659
v 0.000488 0.040834 0.009980
v -0.009796 0.033448 -0.002930
v 0.062014 0.023469 -0.038575
v 0.028138 0.024415 -0.026795
v 0.056795 0.024445 -0.020081
v 0.070193 0.033143 -0.023499
v -0.010681 0.040742 -0.028321
v -0.013916 0.033143 -0.027772
v 0.075747 0.033509 0.016449
v 0.067873 0.028047 -0.026643
v 0.080874 0.033265 0.009369
v -0.025788 0.015870 -0.027802
v 0.065065 0.033387 -0.016449
v -0.010681 0.040742 -0.028321
v -0.013916 0.033143 -0.027772
v -0.004212 0.025086 0.003723
v -0.020936 0.011994 -0.023591
v 0.078524 0.028169 0.006256
v -0.020936 0.011994 -0.030152
v -0.032624 0.017640 0.005402
v 0.058138 0.040742 -0.020997
v 0.046785 0.032991 -0.041627
v 0.046663 0.037507 -0.041047
v 0.046785 0.032991 -0.041627
v -0.013916 0.033143 -0.027772
v 0.063875 0.025422 -0.015320
v 0.002503 0.040742 0.028138
v 0.063875 0.025422 -0.015320
v 0.060945 0.034425 0.020844
v -0.025788 0.015870 -0.027802
v -0.025788 0.015870 -0.027802
v -0.047060 0.017640 -0.011475
v 0.001404 0.040742 0.002930
v 0.058473 0.040742 0.019501
v 0.058138 0.040742 -0.020997
v -0.054353 0.011994 -0.012024
v -0.011170 0.011994 0.008118
v -0.012299 0.011994 0.015809
v -0.032533 0.011994 -0.030152
v -0.011170 0.011994 0.008118
v -0.030915 0.011994 -0.020661
v -0.006012 0.011994 0.011902
v -0.012299 0.011994 0.015809
v -0.009064 0.014466 0.011322
v -0.009064 0.014466 0.011322
v -0.015595 0.011994 0.028413
v -0.016907 0.014466 0.025269
v -0.017884 0.011994 0.022401
v -0.032624 0.017640 0.005402
v -0.031220 0.011994 0.005615
v -0.037843 0.011994 0.010407
v -0.017884 0.011994 0.022401
v -0.022309 0.011994 0.027314
v -0.022309 0.011994 0.027314
v -0.037599 0.017640 0.008972
v -0.036195 0.017640 0.000427
v -0.036195 0.017640 0.000427
v -0.040254 0.017640 0.005310
v -0.035371 0.011994 -0.001953
v -0.040254 0.017640 0.005310
v -0.016907 0.014466 0.025269
v -0.041658 0.011994 0.005066
v -0.037599 0.017640 0.008972
v -0.037599 0.017640 0.008972
v -0.037843 0.011994 0.010407
v -0.041658 0.011994 0.005066
v -0.040254 0.017640 0.005310
v 0.065065 0.033387 -0.016449
v 0.062166 0.032991 -0.038728
v 0.062166 0.032991 -0.038728
v 0.069246 0.033021 -0.031343
v 0.053896 0.033723 -0.008942
v -0.016327 0.023713 -0.024659
v -0.009796 0.033448 -0.002930
v -0.017670 0.034516 -0.031404
v 0.079928 0.033143 0.001556
v 0.080874 0.033265 0.009369
v 0.078524 0.028169 0.006256
v -0.035371 0.011994 -0.001953
v -0.036195 0.017640 0.000427
v -0.031220 0.011994 0.005615
v -0.032624 0.017640 0.005402
v -0.054384 0.011994 -0.021455
v -0.053133 0.017640 -0.012787
v -0.054353 0.011994 -0.012024
v -0.053407 0.017640 -0.019135
v 0.060945 0.034425 0.020844
v -0.000366 0.033296 0.030366
v 0.064577 0.033845 0.023927
v 0.064577 0.033845 0.023927
v 0.072848 0.033113 -0.005860
v 0.037782 0.033174 0.028504
v -0.045747 0.017640 -0.017457
v -0.053133 0.017640 -0.012787
v -0.047060 0.017640 -0.011475
v -0.053407 0.017640 -0.019135
v -0.044527 0.011994 -0.018220
v 0.002503 0.040742 0.028138
v -0.053407 0.017640 -0.019135
v -0.000366 0.033296 0.030366
v 0.075747 0.033509 0.016449
v -0.001190 0.033845 0.029450
v 0.067476 0.024567 0.012787
v -0.007416 0.035737 -0.000427
v -0.004425 0.023835 0.013977
v 0.072848 0.033113 -0.005860
v 0.072695 0.023591 -0.005676
v 0.037049 0.033753 -0.004547
v -0.000366 0.033296 0.030366
v -0.004212 0.025086 0.003723
v 0.060945 0.034425 0.020844
v 0.037049 0.033753 -0.004547
v 0.072695 0.023591 -0.005676
v 0.040040 0.024537 0.011841
v 0.037049 0.033753 -0.004547
v -0.007416 0.035737 -0.000427
v -0.004425 0.023835 0.013977
v -0.001190 0.033845 0.029450
v 0.037782 0.033174 0.028504
v -0.007416 0.035737 -0.000427
v 0.037049 0.033753 -0.004547
v 0.058260 0.051576 -0.012268
v 0.052004 0.051576 -0.042024
v 0.047090 0.061129 -0.023072
v 0.064577 0.033845 0.023927
v -0.078921 0.033265 0.003174
v -0.076357 0.024323 -0.007080
v -0.009003 0.034394 -0.033204
v -0.062624 0.024140 0.006195
v -0.054476 0.032685 0.015351
v -0.052278 0.051576 0.042085
v 0.007660 0.051576 0.029450
v -0.052278 0.051576 0.042085
v -0.044496 0.034883 -0.022706
v 0.058473 0.040742 0.019501
v -0.054476 0.032685 0.015351
v -0.041505 0.025147 -0.014405
v -0.065218 0.040834 -0.019227
v -0.076388 0.033815 -0.006653
v -0.001129 0.033326 -0.004761
v -0.001129 0.033326 -0.004761
v -0.064821 0.051576 -0.017426
v -0.064821 0.051576 -0.017426
v -0.055910 0.061129 0.024934
v -0.051912 0.040834 0.043886
v -0.061220 0.061129 -0.000275
v -0.063387 0.040742 -0.017212
v 0.001312 0.031098 0.035340
v 0.065828 0.024445 0.019105
v -0.051912 0.040834 0.043886
v 0.008057 0.040834 0.031281
v -0.078921 0.033265 0.003174
v -0.076388 0.033815 -0.006653
v -0.054476 0.032685 0.015351
v -0.067934 0.032685 0.014191
v -0.075503 0.028016 0.006317
v 0.060945 0.034425 0.020844
v -0.075838 0.032899 0.009613
v -0.052278 0.051576 0.042085
v -0.061220 0.061129 -0.000275
v 0.052004 0.051576 -0.042024
v 0.052553 0.040834 -0.044038
v 0.053255 0.010102 -0.040620
v 0.052553 0.040834 -0.044038
v 0.052004 0.051576 -0.042024
v -0.055910 0.061129 0.024934
v -0.004852 0.052980 -0.030061
v -0.005249 0.040834 -0.031861
v 0.007660 0.051576 0.029450
v -0.004852 0.052980 -0.030061
v 0.064516 0.051576 0.017487
v 0.052400 0.061129 0.002136
v 0.008057 0.040834 0.031281
v -0.075503 0.028016 0.006317
v -0.076357 0.024323 -0.007080
v -0.009003 0.034394 -0.033204
v 0.028138 0.024415 -0.026795
v -0.065218 0.040834 -0.019227
v -0.064180 0.029115 0.016358
v 0.052553 0.040834 -0.044038
v 0.047090 0.061129 -0.023072
v 0.001679 0.063875 0.012818
v -0.051912 0.024445 0.043886
v 0.026368 0.033631 -0.037416
v -0.075838 0.032899 0.009613
v -0.067934 0.032685 0.014191
v 0.028138 0.024415 -0.026795
v -0.063662 0.033143 -0.017304
v -0.065218 0.040834 -0.019227
v -0.050111 0.010102 0.039949
v -0.005249 0.040834 -0.031861
v 0.037049 0.033753 -0.004547
v 0.040040 0.024537 0.011841
v 0.037049 0.033753 -0.004547
v -0.007630 0.025666 -0.026490
v 0.028138 0.024415 -0.026795
v 0.053896 0.033723 -0.008942
v -0.001129 0.033326 -0.004761
v 0.065828 0.040834 0.019105
v 0.064516 0.051576 0.017487
v -0.051912 0.040834 0.043886
v -0.064821 0.051576 -0.017426
v -0.003632 0.063875 -0.012391
v 0.052553 0.024445 -0.044038
v -0.007630 0.025666 -0.026490
v 0.001312 0.031098 0.035340
v -0.050111 0.010102 0.039949
v 0.065828 0.024445 0.019105
v -0.051912 0.024445 0.043886
v -0.065218 0.024445 -0.019227
v -0.051912 0.024445 0.043886
v -0.063662 0.033143 -0.017304
v 0.062563 0.033540 -0.021455
v -0.050111 0.033296 0.040834
v 0.046663 0.037507 -0.041047
v 0.053896 0.033723 -0.008942
v -0.001129 0.033326 -0.004761
v 0.026368 0.033631 -0.037416
v -0.044496 0.034883 -0.022706
v -0.044496 0.034883 -0.022706
v -0.076388 0.033815 -0.006653
v 0.065126 0.010102 0.015687
v 0.000092 0.040742 0.029359
v -0.063662 0.033143 -0.017304
v -0.050203 0.040742 0.039216
v 0.037782 0.033174 0.028504
v -0.005951 0.039888 -0.034486
v 0.046876 0.027253 -0.041231
v 0.060945 0.034425 0.020844
v -0.065218 0.024445 -0.019227
v 0.037782 0.033174 0.028504
v 0.037049 0.033753 -0.004547
v 0.007477 0.033723 0.027619
v -0.065157 0.033021 0.042482
v 0.037049 0.033753 -0.004547
v 0.001251 0.035585 -0.002258
v -0.024506 0.033418 0.038881
v 0.053255 0.010102 -0.040620
v -0.061953 0.010102 -0.016358
v 0.052553 0.024445 -0.044038
v -0.024506 0.033418 0.038881
v -0.050111 0.033296 0.040834
v -0.063387 0.040742 -0.017212
v 0.053896 0.033723 -0.008942
v -0.075838 0.032899 0.009613
v -0.041505 0.025147 -0.014405
v 0.062563 0.033540 -0.021455
v -0.005982 0.033143 -0.034639
v -0.050203 0.040742 0.039216
v -0.005951 0.039888 -0.034486
v 0.026368 0.033631 -0.037416
v 0.000092 0.023103 -0.000855
v -0.050111 0.033296 0.040834
v -0.064821 0.028108 0.039186
v -0.043794 0.032807 0.048219
v -0.051973 0.024262 0.039094
v -0.029633 0.025269 0.024232
v -0.033815 0.035005 0.010163
v -0.065737 0.033937 0.026215
v -0.033815 0.035005 0.010163
v -0.005982 0.033143 -0.034639
v 0.046876 0.027253 -0.041231
v 0.004273 0.025788 0.012146
v -0.024506 0.033418 0.038881
v -0.064180 0.029115 0.016358
v 0.058473 0.040742 0.019501
v 0.062563 0.033540 -0.021455
v 0.058138 0.040742 -0.020997
v -0.060396 0.040742 0.015961
v 0.000122 0.040742 -0.000885
v 0.060945 0.034425 0.020844
v 0.000092 0.040742 0.029359
v 0.001251 0.035585 -0.002258
v 0.007477 0.033723 0.027619
v -0.033815 0.035005 0.010163
v 0.046663 0.037507 -0.041047
v -0.065157 0.033021 0.042482
v 0.037782 0.033174 0.028504
v 0.007477 0.033723 0.027619
v -0.064821 0.028108 0.039186
v 0.065126 0.010102 0.015687
v -0.065676 0.024445 0.025819
v -0.068239 0.033387 0.036073
v -0.065737 0.033937 0.026215
v -0.033815 0.035005 0.010163
v -0.065157 0.033021 0.042482
v -0.068239 0.033387 0.036073
v -0.057283 0.032807 0.047060
v 0.004273 0.025788 0.012146
v -0.043794 0.032807 0.048219
v 0.001251 0.035585 -0.002258
v -0.057283 0.032807 0.047060
vt 0.294016 0.878032
vt 0.776370 0.175826
vt 0.425024 0.987018
vt 0.150178 0.875817
vt 0.230712 0.781573
vt 0.230712 0.946068
vt 0.467854 0.798408
vt 0.230712 0.946068
vt 0.193584 0.946068
vt 0.294016 0.878032
vt 0.021051 0.781573
vt 0.150178 0.875817
vt 0.841494 0.492744
vt 0.230712 0.875817
vt 0.150178 0.781573
vt 0.150178 0.781573
vt 0.841494 0.090954
vt 0.021051 0.875817
vt 0.488056 0.935391
vt 0.467854 0.798408
vt 0.662955 0.175826
vt 0.662955 0.006083
vt 0.841494 0.006083
vt 0.776370 0.090954
vt 0.662955 0.090954
vt 0.776370 0.006083
vt 0.662955 0.006083
vt 0.841494 0.175826
vt 0.662955 0.175826
vt 0.841494 0.175826
vt 0.662955 0.492744
vt 0.662955 0.175826
vt 0.662955 0.492744
vt 0.841494 0.006083
vt 0.841494 0.492744
vt 0.662955 0.006083
vt 0.789837 0.716934
vt 0.794296 0.723122
vt 0.794327 0.733495
vt 0.808189 0.722697
vt 0.813861 0.717267
vt 0.150148 0.972913
vt 0.662955 0.175826
vt 0.841494 0.175826
vt 0.102889 0.088588
vt 0.230499 0.990293
vt 0.230712 0.972913
vt 0.425024 0.987018
vt 0.379555 0.988898
vt 0.329324 0.974217
vt 0.794327 0.733495
vt 0.789837 0.716934
vt 0.789837 0.716934
vt 0.264381 0.781239
vt 0.861575 0.871358
vt 0.679153 0.176736
vt 0.757927 0.176736
vt 0.030272 0.510701
vt 0.641024 0.511702
vt 0.282369 0.080702
vt 0.415014 0.080581
vt 0.569136 0.088012
vt 0.432122 0.434413
vt 0.572563 0.476212
vt 0.030272 0.510701
vt 0.020717 0.093017
vt 0.098612 0.475150
vt 0.102889 0.088588
vt 0.562887 0.008965
vt 0.641024 0.511702
vt 0.651489 0.092865
vt 0.569136 0.088012
vt 0.572563 0.476212
vt 0.107864 0.008965
vt 0.120967 0.047184
vt 0.282369 0.080702
vt 0.270812 0.008965
vt 0.774125 0.122622
vt 0.661742 0.170791
vt 0.774125 0.170791
vt 0.549965 0.046911
vt 0.415014 0.080581
vt 0.774125 0.013272
vt 0.401880 0.008965
vt 0.661742 0.013272
vt 0.683278 0.176736
vt 0.711397 0.125989
vt 0.734298 0.176736
vt 0.021051 0.946068
vt 0.150178 0.781573
vt 0.774125 0.067932
vt 0.021051 0.809783
vt 0.193584 0.946068
vt 0.150178 0.875817
vt 0.106802 0.946068
vt 0.062698 0.990293
vt 0.610024 0.654630
vt 0.588276 0.630879
vt 0.458906 0.969424
vt 0.150148 0.972913
vt 0.062698 0.990293
vt 0.711397 0.125989
vt 0.021051 0.972913
vt 0.610024 0.654630
vt 0.588276 0.630879
vt 0.756411 0.581770
vt 0.679153 0.176736
vt 0.150148 0.972913
vt 0.683278 0.176736
vt 0.625919 0.574976
vt 0.680609 0.894472
vt 0.566345 0.869235
vt 0.584909 0.862653
vt 0.912686 0.903299
vt 0.906680 0.630728
vt 0.753377 0.968363
vt 0.868096 0.672830
vt 0.714855 0.984257
vt 0.884567 0.889406
vt 0.711397 0.125989
vt 0.711397 0.125989
vt 0.794296 0.723122
vt 0.756987 0.676257
vt 0.861575 0.871358
vt 0.680609 0.894472
vt 0.787016 0.725791
vt 0.177690 0.747145
vt 0.151391 0.674892
vt 0.734298 0.176736
vt 0.177690 0.747145
vt 0.757927 0.176736
vt 0.229650 0.715660
vt 0.151391 0.674892
vt 0.199742 0.723941
vt 0.199742 0.723941
vt 0.228406 0.738227
vt 0.199742 0.723941
vt 0.177690 0.747145
vt 0.668415 0.652567
vt 0.631591 0.569516
vt 0.607567 0.569182
vt 0.177690 0.747145
vt 0.230894 0.693062
vt 0.230894 0.693062
vt 0.692257 0.652537
vt 0.668385 0.634034
vt 0.612057 0.575401
vt 0.693227 0.633245
vt 0.607567 0.569182
vt 0.625919 0.574976
vt 0.199742 0.723941
vt 0.631591 0.569516
vt 0.612057 0.575401
vt 0.612057 0.575401
vt 0.607567 0.569182
vt 0.604746 0.578040
vt 0.612057 0.585744
vt 0.458906 0.969424
vt 0.329324 0.974217
vt 0.329324 0.974217
vt 0.379555 0.988898
vt 0.488056 0.935391
vt 0.349920 0.727732
vt 0.438492 0.729158
vt 0.276120 0.670494
vt 0.230712 0.972913
vt 0.230499 0.990293
vt 0.150148 0.972913
vt 0.607567 0.569182
vt 0.612057 0.575401
vt 0.604746 0.578040
vt 0.612057 0.585744
vt 0.789837 0.716934
vt 0.808189 0.722697
vt 0.813861 0.717267
vt 0.794296 0.723122
vt 0.884567 0.889406
vt 0.895851 0.651900
vt 0.021051 0.946068
vt 0.488025 0.935391
vt 0.329324 0.974217
vt 0.482050 0.861439
vt 0.553878 0.811724
vt 0.574656 0.795557
vt 0.573837 0.811694
vt 0.553848 0.796193
vt 0.787016 0.725791
vt 0.868096 0.672830
vt 0.794296 0.723122
vt 0.895851 0.651900
vt 0.021051 0.972913
vt 0.438492 0.729158
vt 0.106802 0.946068
vt 0.276120 0.670494
vt 0.349920 0.727732
vt 0.230712 0.946068
vt 0.193584 0.946068
vt 0.230712 0.875817
vt 0.593189 0.623508
vt 0.736846 0.601244
vt 0.550359 0.922742
vt 0.294016 0.878032
vt 0.193584 0.946068
vt 0.150178 0.875817
vt 0.230712 0.875817
vt 0.230712 0.781573
vt 0.150178 0.781573
vt 0.440797 0.781118
vt 0.482050 0.861439
vt 0.264381 0.781239
vt 0.294016 0.878032
vt 0.334177 0.479124
vt 0.098612 0.475150
vt 0.239994 0.433352
vt 0.488025 0.935391
vt 0.230712 0.585532
vt 0.193584 0.610708
vt 0.264381 0.781239
vt 0.106802 0.610708
vt 0.021051 0.610708
vt 0.569136 0.088012
vt 0.568590 0.283568
vt 0.549965 0.046911
vt 0.292833 0.680777
vt 0.892211 0.928111
vt 0.496397 0.632881
vt 0.150178 0.705984
vt 0.774125 0.170791
vt 0.345734 0.586745
vt 0.467854 0.798408
vt 0.467854 0.798408
vt 0.120967 0.047184
vt 0.102889 0.088588
vt 0.426480 0.080581
vt 0.774125 0.013272
vt 0.244635 0.080702
vt 0.595222 0.582347
vt 0.961825 0.743718
vt 0.662955 0.175826
vt 0.651489 0.092865
vt 0.646606 0.284690
vt 0.398422 0.574521
vt 0.345734 0.586745
vt 0.496397 0.632881
vt 0.473708 0.597635
vt 0.150148 0.585532
vt 0.923332 0.943884
vt 0.230499 0.571306
vt 0.569136 0.088012
vt 0.244635 0.080702
vt 0.098612 0.475150
vt 0.030272 0.510701
vt 0.841494 0.006083
vt 0.030272 0.510701
vt 0.098612 0.475150
vt 0.426480 0.080581
vt 0.109380 0.283143
vt 0.021506 0.284387
vt 0.568590 0.283568
vt 0.109380 0.283143
vt 0.572563 0.476212
vt 0.432122 0.434413
vt 0.716917 0.013272
vt 0.150148 0.585532
vt 0.193584 0.610708
vt 0.230712 0.781573
vt 0.150178 0.875817
vt 0.020717 0.093017
vt 0.757776 0.534178
vt 0.661742 0.170791
vt 0.239994 0.433352
vt 0.421566 0.273892
vt 0.662955 0.006083
vt 0.230712 0.875817
vt 0.062698 0.571306
vt 0.021051 0.585532
vt 0.150178 0.875817
vt 0.906680 0.583014
vt 0.107864 0.009238
vt 0.841494 0.006083
vt 0.716917 0.170791
vt 0.230712 0.875817
vt 0.150178 0.875817
vt 0.230712 0.875817
vt 0.150178 0.781573
vt 0.150178 0.875817
vt 0.021051 0.946068
vt 0.021051 0.809783
vt 0.641024 0.511702
vt 0.572563 0.476212
vt 0.562887 0.008965
vt 0.102889 0.088588
vt 0.251459 0.273771
vt 0.662955 0.006083
vt 0.150178 0.781573
vt 0.565769 0.736498
vt 0.841494 0.492744
vt 0.662955 0.175826
vt 0.662955 0.492744
vt 0.776370 0.006083
vt 0.776370 0.175826
vt 0.567164 0.565360
vt 0.693652 0.986805
vt 0.917175 0.570669
vt 0.582816 0.931448
vt 0.488056 0.935391
vt 0.467854 0.798408
vt 0.294016 0.878032
vt 0.292833 0.680777
vt 0.230712 0.705984
vt 0.230712 0.610708
vt 0.841494 0.175826
vt 0.912868 0.744567
vt 0.567164 0.565360
vt 0.883566 0.584136
vt 0.482050 0.861439
vt 0.554212 0.766225
vt 0.879835 0.937423
vt 0.550359 0.922742
vt 0.662955 0.175826
vt 0.482050 0.861439
vt 0.294016 0.878032
vt 0.440797 0.781118
vt 0.438401 0.579132
vt 0.294016 0.878032
vt 0.264381 0.781239
vt 0.466489 0.689573
vt 0.841494 0.492744
vt 0.841494 0.175826
vt 0.662955 0.492744
vt 0.466489 0.689573
vt 0.917175 0.570669
vt 0.595222 0.582347
vt 0.488056 0.935391
vt 0.438401 0.579132
vt 0.150178 0.705984
vt 0.753377 0.968363
vt 0.914869 0.771867
vt 0.883566 0.584136
vt 0.554212 0.766225
vt 0.294016 0.878032
vt 0.735238 0.762251
vt 0.593189 0.575765
vt 0.150148 0.585532
vt 0.021051 0.610708
vt 0.106802 0.610708
vt 0.150178 0.705984
vt 0.230712 0.705984
vt 0.230712 0.610708
vt 0.230712 0.705984
vt 0.518783 0.767317
vt 0.543140 0.950254
vt 0.150178 0.781573
vt 0.021051 0.705984
vt 0.736846 0.553531
vt 0.892211 0.928111
vt 0.693652 0.986805
vt 0.697231 0.961508
vt 0.756835 0.559415
vt 0.739758 0.763859
vt 0.923332 0.943884
vt 0.912868 0.744567
vt 0.264381 0.781239
vt 0.440797 0.781118
vt 0.292833 0.680777
vt 0.582816 0.931448
vt 0.062698 0.571306
vt 0.021051 0.875817
vt 0.021051 0.781573
vt 0.150148 0.585532
vt 0.841494 0.175826
vt 0.193584 0.610708
vt 0.230712 0.585532
vt 0.345734 0.586745
vt 0.292833 0.680777
vt 0.230499 0.571306
vt 0.398422 0.574521
vt 0.021051 0.585532
vt 0.150178 0.781573
vt 0.496397 0.632881
vt 0.230712 0.781573
vt 0.473708 0.597635
vn 0.003215 0.999975 -0.006324
vn 0.000000 1.000000 0.000000
vn 0.022479 0.999580 -0.018269
vn -0.027462 -0.757236 -0.652564
vn -0.124724 -0.536542 -0.834606
vn -0.037446 -0.757811 -0.651399
vn 0.024282 0.999231 0.030770
vn -0.106994 -0.014217 -0.994158
vn 0.093095 -0.118507 -0.988580
vn 0.024282 0.999231 0.030770
vn -0.001272 -0.839493 0.543370
vn -0.328684 -0.009867 -0.944388
vn 0.198299 -0.269601 0.942334
vn -0.060567 -0.690570 -0.720725
vn -0.070244 -0.659829 -0.748125
vn 0.018838 -0.865033 0.501360
vn -0.965483 0.163148 0.203039
vn 0.039057 -0.868703 0.493791
vn 0.003215 0.999975 -0.006324
vn -0.004230 0.999991 0.000874
vn 0.000000 1.000000 0.000000
vn -0.978230 0.200848 0.052209
vn -0.982298 0.182042 0.044165
vn 0.000000 1.000000 0.000000
vn -0.961826 0.184303 0.202296
vn 0.000000 1.000000 0.000000
vn 0.000000 1.000000 0.000000
vn 0.198270 -0.269719 0.942306
vn 0.198240 -0.269840 0.942278
vn -0.833217 -0.096515 -0.544458
vn 0.198270 -0.269719 0.942306
vn -0.416294 -0.227654 -0.880269
vn -0.198647 -0.269839 -0.942192
vn 0.978487 -0.001473 -0.206304
vn -0.198549 -0.269096 -0.942425
vn 0.978550 -0.000000 -0.206010
vn 0.960940 0.180426 0.209860
vn 0.960942 0.179936 0.210272
vn 0.210722 0.175516 -0.961660
vn 0.960944 0.179283 0.210819
vn 0.960942 0.179936 0.210272
vn 0.879501 -0.431808 -0.200047
vn 0.978604 0.001313 -0.205748
vn 0.978550 -0.000000 -0.206010
vn -0.103335 0.893220 -0.437585
vn 0.928119 -0.356754 -0.106400
vn 0.860550 -0.276722 -0.427643
vn 0.022301 0.999583 -0.018319
vn 0.018031 0.999647 -0.019520
vn 0.016650 0.999662 -0.019942
vn -0.209339 0.176871 0.961714
vn -0.209339 0.176871 0.961714
vn 0.295538 0.318838 -0.900555
vn 0.024282 0.999231 0.030770
vn 0.147240 0.260440 0.954197
vn 0.164095 0.812803 0.558949
vn 0.164095 0.812803 0.558949
vn 0.974786 0.088257 -0.204948
vn 0.974787 0.088239 -0.204949
vn -0.051132 0.966033 -0.253310
vn 0.072173 0.983548 0.165604
vn 0.120469 0.857104 0.500859
vn 0.209048 0.942167 0.261954
vn 0.434326 0.853662 0.287442
vn -0.203261 0.170391 -0.964185
vn -0.203185 0.169777 -0.964309
vn -0.203185 0.169777 -0.964309
vn -0.203108 0.169154 -0.964435
vn -0.999286 -0.034215 0.016053
vn 0.202921 0.169986 0.964328
vn 0.203004 0.169573 0.964383
vn 0.203088 0.169154 0.964439
vn 0.203004 0.169573 0.964383
vn -0.954091 -0.014904 0.299145
vn -0.952829 -0.004372 0.303475
vn -0.919210 -0.008595 0.393673
vn -0.934316 -0.001826 0.356442
vn 0.000000 -1.000000 0.000000
vn 0.000000 -1.000000 0.000000
vn 0.000000 -1.000000 0.000000
vn -0.999957 0.007574 -0.005328
vn -0.977213 -0.000093 0.212261
vn 0.000000 -1.000000 0.000000
vn -0.968864 -0.004875 0.247546
vn 0.000000 -1.000000 0.000000
vn 0.000000 0.518451 -0.855107
vn 0.000000 0.518451 -0.855107
vn 0.000000 0.518451 -0.855107
vn 0.032745 -0.875518 0.482075
vn 0.033684 -0.915813 0.400191
vn 0.000000 -1.000000 0.000000
vn 0.038921 -0.912484 0.407256
vn 0.090445 -0.992846 0.077949
vn 0.008435 -0.924595 0.380859
vn 0.104020 -0.926660 0.361222
vn 0.641622 -0.592455 0.487152
vn -0.217710 0.058390 -0.974265
vn -0.222409 0.024223 -0.974653
vn 0.017232 0.999656 -0.019775
vn 0.486605 -0.804892 0.339652
vn 0.642422 -0.592827 0.485644
vn 0.624096 0.781348 0.000000
vn 0.494698 -0.657278 0.568559
vn -0.066244 0.997475 0.025618
vn -0.869666 0.351017 0.347086
vn -0.916277 0.339424 0.212667
vn 0.624096 0.781348 0.000000
vn 0.487126 -0.804650 0.339480
vn 0.624096 0.781348 0.000000
vn 0.574322 0.173079 0.800124
vn 0.850206 0.119406 -0.512730
vn 0.277403 0.102370 -0.955284
vn 0.016501 0.987771 -0.155039
vn -0.058671 -0.970205 -0.235075
vn -0.055268 -0.971279 -0.231436
vn 0.010673 -0.999732 0.020535
vn -0.124566 0.992196 0.005429
vn 0.940582 0.290947 -0.175085
vn 0.932188 0.361683 -0.014520
vn 0.164095 0.812803 0.558949
vn -0.519296 0.850000 0.088497
vn -0.207805 0.178731 0.961703
vn -0.170000 0.985377 0.011492
vn 0.207951 0.978137 -0.002147
vn 0.136106 0.989565 -0.047289
vn -0.210489 0.175473 0.961719
vn 0.520262 0.475974 -0.709067
vn 0.401970 0.648007 0.646921
vn -0.519296 0.850000 0.088497
vn -0.688804 0.717859 -0.101134
vn -0.519296 0.850000 0.088497
vn 0.616399 0.782216 0.090503
vn -0.688804 0.717859 -0.101134
vn -0.688804 0.717859 -0.101134
vn 0.616399 0.782216 0.090503
vn 0.465221 0.779756 0.418988
vn 0.465221 0.779756 0.418988
vn 0.933672 0.043650 -0.355459
vn 0.000000 1.000000 0.000000
vn 0.575771 0.175673 0.798515
vn 0.576852 0.177614 0.797305
vn -0.507322 0.730659 -0.456905
vn -0.507322 0.730659 -0.456905
vn -0.104965 0.759950 0.641451
vn 0.000000 1.000000 0.000000
vn 0.000000 1.000000 0.000000
vn -0.741297 0.187836 -0.644358
vn 0.000000 1.000000 0.000000
vn -0.734051 0.170065 -0.657455
vn -0.751228 0.213795 -0.624458
vn -0.507322 0.730659 -0.456905
vn -0.741297 0.187836 -0.644358
vn 0.575771 0.175673 0.798515
vn -0.796225 0.181087 0.577263
vn -0.799208 0.177180 0.574346
vn -0.801251 0.174481 0.572322
vn -0.799208 0.177180 0.574346
vn 0.017192 0.999656 -0.019786
vn 0.016583 0.999663 -0.019960
vn 0.017170 0.999656 -0.019814
vn 0.018031 0.999647 -0.019520
vn 0.016625 0.999662 -0.019966
vn -0.962274 0.047632 0.267882
vn -0.962274 0.047632 0.267882
vn -0.962274 0.047632 0.267882
vn 0.860514 -0.279383 -0.425982
vn 0.926092 -0.361960 -0.106488
vn 0.878466 -0.434891 -0.197908
vn 0.832473 0.313974 -0.456518
vn 0.822434 0.259413 -0.506267
vn 0.822434 0.259413 -0.506267
vn 0.799544 0.177090 -0.573906
vn -0.985582 0.169169 0.003190
vn -0.975350 0.216590 0.042203
vn -0.981898 0.188454 0.018992
vn -0.981898 0.188454 0.018992
vn 0.146062 0.244471 0.958593
vn -0.936702 0.348459 0.034144
vn 0.103946 -0.816084 0.568508
vn -0.000724 0.999997 -0.002515
vn 0.017170 0.999656 -0.019814
vn -0.021968 0.999596 0.018024
vn 0.000000 1.000000 0.000000
vn 0.000000 1.000000 0.000000
vn 0.000000 1.000000 0.000000
vn 0.000000 1.000000 0.000000
vn 0.260816 0.259468 -0.929866
vn 0.146062 0.244471 0.958593
vn 0.260816 0.259468 -0.929866
vn 0.145108 0.231868 0.961863
vn 0.494120 -0.658139 0.568066
vn -0.978959 0.000961 0.204052
vn 0.155179 -0.915079 0.372223
vn -0.978959 0.000961 0.204052
vn -0.978959 0.000961 0.204052
vn 0.140599 -0.021289 -0.989838
vn 0.140599 -0.021289 -0.989838
vn -0.036960 -0.018622 -0.999143
vn 0.061985 -0.956306 0.285723
vn 0.004867 -0.999908 0.012660
vn 0.068897 -0.962402 0.262744
vn -0.000724 0.999997 -0.002515
vn -0.017598 -0.980206 -0.197198
vn -0.034035 -0.997781 0.057219
vn -0.112112 -0.842906 -0.526251
vn -0.092365 -0.776929 -0.622776
vn -0.051197 -0.828215 -0.558067
vn 0.033938 0.998794 0.035482
vn 0.017639 0.999697 0.017148
vn 0.049394 0.997379 0.052871
vn 0.033938 0.998794 0.035482
vn 0.908116 0.372632 -0.190975
vn 0.269807 0.856664 -0.439694
vn 0.053666 0.967454 -0.247290
vn 0.016692 0.999662 -0.019947
vn -0.966540 -0.253825 0.037053
vn -0.586355 -0.066111 -0.807352
vn 0.024051 0.999234 0.030867
vn 0.075032 -0.951888 0.297118
vn 0.176303 -0.917899 0.355499
vn 0.202967 0.170204 0.964279
vn 0.203023 0.171813 0.963982
vn -0.978506 -0.000339 0.206220
vn 0.004995 0.998249 0.058947
vn 0.169180 0.443126 0.880351
vn 0.004995 0.998249 0.058947
vn 0.146303 -0.955557 0.255943
vn 0.000000 -1.000000 0.000000
vn -0.005096 0.998400 0.056310
vn 0.024051 0.999234 0.030867
vn 0.010803 0.998112 0.060463
vn -0.978497 0.000545 0.206259
vn -0.133212 0.862582 -0.488065
vn -0.978523 -0.001915 0.206130
vn 0.000000 -1.000000 0.000000
vn -0.073376 0.989510 -0.124446
vn -0.057960 0.998289 -0.007677
vn 0.149317 0.475962 0.866698
vn 0.978550 -0.000000 -0.206010
vn 0.202740 0.168593 0.964610
vn 0.203005 0.170547 0.964211
vn -0.003786 0.998405 0.056323
vn -0.004085 0.998437 0.055745
vn -0.004829 0.998417 0.056046
vn -0.004423 0.998412 0.056154
vn -0.872982 -0.422296 0.244069
vn 0.211770 0.281784 0.935816
vn -0.860202 -0.324612 0.393294
vn 0.090253 0.847760 0.522644
vn -0.978507 -0.001563 0.206206
vn 0.331228 0.842148 -0.425528
vn 0.974786 0.088257 -0.204948
vn 0.978550 -0.000000 -0.206010
vn -0.203126 0.170402 -0.964211
vn -0.201506 0.159720 -0.966377
vn -0.000235 0.975494 0.220028
vn -0.203703 0.150071 -0.967463
vn -0.203456 0.159379 -0.966025
vn 0.125111 0.839559 0.528667
vn -0.091182 0.861177 -0.500059
vn 0.462800 0.844927 0.268168
vn 0.222146 0.940473 0.257220
vn 0.000000 -1.000000 0.000000
vn -0.284936 -0.825149 0.487792
vn -0.056757 -0.997375 0.044957
vn -0.170306 -0.617499 -0.767913
vn -0.328684 -0.009867 -0.944388
vn -0.203190 0.169154 -0.964417
vn -0.926459 0.308865 0.215120
vn 0.000000 -1.000000 0.000000
vn 0.096590 0.967373 -0.234221
vn 0.044917 0.975953 0.213305
vn -0.962982 -0.177609 0.202785
vn -0.055094 -0.721014 -0.690727
vn -0.437545 -0.523548 0.731062
vn -0.179835 -0.696562 0.694594
vn -0.034762 -0.757664 -0.651719
vn -0.103310 -0.975357 -0.194949
vn -0.978488 0.001559 0.206296
vn -0.963229 -0.176514 0.202565
vn 0.000000 -1.000000 0.000000
vn -0.126417 -0.861415 -0.491918
vn -0.054496 -0.990723 0.124488
vn -0.036960 -0.018622 -0.999143
vn 0.046908 -0.946392 0.319597
vn -0.015726 -0.931911 0.362345
vn 0.028351 -0.868997 0.494005
vn 0.069164 -0.938119 0.339336
vn 0.203242 0.170014 0.964255
vn 0.203044 0.170907 0.964139
vn -0.978495 0.001390 0.206268
vn -0.205319 0.159052 -0.965685
vn -0.064088 0.956407 -0.284917
vn 0.978604 -0.001140 -0.205748
vn -0.150658 -0.675496 -0.721809
vn 0.048421 -0.975655 0.213899
vn 0.200166 -0.236124 0.950883
vn 0.200166 -0.236124 0.950883
vn 0.200148 -0.235880 0.950948
vn 0.000000 1.000000 0.000000
vn 0.000000 1.000000 0.000000
vn -0.977121 0.207053 0.048620
vn 0.778087 0.228250 -0.585220
vn -0.426380 0.462768 0.777204
vn 0.045898 0.993547 -0.103721
vn 0.002356 0.999982 -0.005493
vn -0.006944 0.999970 0.003498
vn 0.025191 0.999216 0.030551
vn 0.022966 0.999250 0.031168
vn -0.263915 -0.655060 -0.707987
vn -0.390957 -0.373985 -0.841004
vn 0.978487 0.001278 -0.206304
vn 0.143393 0.463212 0.874570
vn -0.287743 0.021936 -0.957456
vn 0.188019 0.210685 0.959302
vn 0.017621 0.999698 0.017148
vn -0.210972 0.023064 -0.977220
vn 0.020833 -0.996711 -0.078319
vn 0.143033 -0.983362 0.111982
vn -0.616844 -0.287009 -0.732891
vn -0.021968 0.999596 0.018024
vn -0.000724 0.999997 -0.002515
vn 0.036702 0.998724 0.034690
vn -0.008439 0.998096 0.061093
vn 0.036702 0.998724 0.034690
vn 0.054259 0.997232 0.050830
vn -0.004220 0.998391 0.056539
vn -0.200236 -0.236374 -0.950806
vn -0.603445 -0.286045 -0.744333
vn -0.200288 -0.236081 -0.950868
vn 0.008887 0.998592 0.052302
vn 0.188019 0.210685 0.959302
vn -0.287682 0.022418 -0.957464
vn 0.016625 0.999662 -0.019966
vn -0.008162 0.998124 0.060672
vn -0.275496 -0.512798 -0.813105
vn 0.187047 -0.979796 0.070808
vn -0.108463 -0.958063 -0.265238
vn -0.133384 0.989339 0.058465
vn 0.022971 0.999299 -0.029566
vn 0.002356 0.999982 -0.005493
vn 0.013085 -0.999833 0.012760
vn -0.029436 -0.978566 0.203820
vn -0.285108 -0.824756 0.488355
vn 0.230437 -0.839046 0.492849
vn 0.043604 -0.944114 0.326722
vn 0.096132 -0.994211 0.047984
vn -0.119506 -0.831878 -0.541939
vn -0.601982 0.029484 -0.797965
vn -0.449915 0.034410 -0.892408
vn -0.203846 0.020374 -0.978791
vn 0.188717 0.021464 -0.981797
vn 0.069527 -0.893438 0.443774
vn 0.187224 -0.884824 0.426655
vn -0.087030 -0.995942 0.022898
vn 0.126054 0.992023 0.001263
vn 0.890506 0.454883 0.008924
vn 0.091230 0.993305 -0.070865
vn -0.199392 0.978826 0.046278
vn 0.001756 0.999740 -0.022745
vn 0.928864 0.369376 0.027791
vn 0.000000 1.000000 0.000000
vn 0.005145 0.998117 0.061119
vn 0.006927 0.998355 0.056921
vn 0.006927 0.998355 0.056921
vn 0.085896 0.022217 -0.996056
vn -0.439566 -0.520893 0.731746
vn 0.031858 -0.885607 0.463341
vn 0.069045 -0.892418 0.445896
vn -0.873361 -0.421486 0.244111
vn 0.200185 -0.236374 0.950817
vn -0.262411 -0.856415 -0.444628
vn -0.966257 -0.254716 0.038317
vn -0.004786 0.998411 0.056144
vn -0.004761 0.998397 0.056398
vn -0.859757 -0.323713 0.395004
vn -0.003642 0.998406 0.056325
vn -0.180118 -0.695102 0.695982
vn -0.114639 -0.844804 -0.522651
vn -0.004769 0.998400 0.056348
vn -0.126691 -0.832386 -0.539520
vn -0.004362 0.998413 0.056151
f 164/164/164 165/165/165 163/163/163
f 7/7/7 10/10/10 54/54/54
f 107/107/107 109/109/109 102/102/102
f 57/57/57 56/56/56 120/120/120
f 87/87/87 86/86/86 88/88/88
f 129/129/129 131/131/131 121/121/121
f 130/130/130 133/133/133 134/134/134
f 151/151/151 142/142/142 143/143/143
f 192/192/192 194/194/194 195/195/195
f 2/2/2 21/21/21 24/24/24
f 24/24/24 21/21/21 27/27/27
f 24/24/24 27/27/27 26/26/26
f 158/158/158 3/3/3 161/161/161
f 159/159/159 158/158/158 161/161/161
f 162/162/162 158/158/158 159/159/159
f 1/1/1 19/19/19 160/160/160
f 20/20/20 19/19/19 1/1/1
f 12/12/12 8/8/8 9/9/9
f 8/8/8 47/47/47 9/9/9
f 9/9/9 47/47/47 42/42/42
f 47/47/47 46/46/46 42/42/42
f 14/14/14 6/6/6 4/4/4
f 15/15/15 14/14/14 4/4/4
f 5/5/5 14/14/14 15/15/15
f 28/28/28 31/31/31 13/13/13
f 29/29/29 31/31/31 28/28/28
f 16/16/16 18/18/18 11/11/11
f 204/204/204 18/18/18 16/16/16
f 204/204/204 179/179/179 18/18/18
f 193/193/193 179/179/179 204/204/204
f 193/193/193 191/191/191 179/179/179
f 108/108/108 191/191/191 193/193/193
f 191/191/191 108/108/108 101/101/101
f 204/204/204 203/203/203 193/193/193
f 203/203/203 108/108/108 193/193/193
f 205/205/205 203/203/203 204/204/204
f 207/207/207 205/205/205 204/204/204
f 206/206/206 205/205/205 207/207/207
f 25/25/25 23/23/23 22/22/22
f 17/17/17 23/23/23 25/25/25
f 17/17/17 25/25/25 30/30/30
f 30/30/30 25/25/25 32/32/32
f 32/32/32 35/35/35 30/30/30
f 33/33/33 35/35/35 32/32/32
f 36/36/36 44/44/44 34/34/34
f 43/43/43 44/44/44 36/36/36
f 65/65/65 66/66/66 67/67/67
f 67/67/67 66/66/66 68/68/68
f 84/84/84 69/69/69 81/81/81
f 82/82/82 84/84/84 81/81/81
f 82/82/82 76/76/76 84/84/84
f 84/84/84 76/76/76 77/77/77
f 77/77/77 76/76/76 75/75/75
f 77/77/77 75/75/75 74/74/74
f 72/72/72 71/71/71 73/73/73
f 73/73/73 71/71/71 70/70/70
f 79/79/79 78/78/78 80/80/80
f 78/78/78 79/79/79 91/91/91
f 91/91/91 79/79/79 85/85/85
f 91/91/91 85/85/85 83/83/83
f 94/94/94 92/92/92 90/90/90
f 94/94/94 89/89/89 92/92/92
f 95/95/95 89/89/89 94/94/94
f 95/95/95 103/103/103 89/89/89
f 100/100/100 103/103/103 95/95/95
f 103/103/103 100/100/100 96/96/96
f 94/94/94 93/93/93 95/95/95
f 93/93/93 100/100/100 95/95/95
f 110/110/110 153/153/153 140/140/140
f 140/140/140 153/153/153 141/141/141
f 188/188/188 177/177/177 55/55/55
f 190/190/190 177/177/177 188/188/188
f 128/128/128 132/132/132 135/135/135
f 135/135/135 132/132/132 127/127/127
f 137/137/137 136/136/136 138/138/138
f 144/144/144 136/136/136 137/137/137
f 149/149/149 152/152/152 147/147/147
f 147/147/147 152/152/152 150/150/150
f 146/146/146 148/148/148 139/139/139
f 139/139/139 148/148/148 145/145/145
f 156/156/156 155/155/155 157/157/157
f 157/157/157 155/155/155 154/154/154
f 169/169/169 170/170/170 171/171/171
f 171/171/171 170/170/170 172/172/172
f 173/173/173 175/175/175 176/176/176
f 176/176/176 175/175/175 174/174/174
f 186/186/186 184/184/184 183/183/183
f 183/183/183 184/184/184 185/185/185
f 40/40/40 38/38/38 41/41/41
f 41/41/41 38/38/38 37/37/37
f 126/126/126 52/52/52 51/51/51
f 51/51/51 52/52/52 122/122/122
f 53/53/53 189/189/189 187/187/187
f 187/187/187 189/189/189 39/39/39
f 166/166/166 167/167/167 168/168/168
f 203/203/203 166/166/166 168/168/168
f 196/196/196 166/166/166 197/197/197
f 196/196/196 197/197/197 198/198/198
f 209/209/209 211/211/211 208/208/208
f 208/208/208 211/211/211 210/210/210
f 182/182/182 180/180/180 202/202/202
f 202/202/202 180/180/180 181/181/181
f 215/215/215 99/99/99 50/50/50
f 50/50/50 99/99/99 49/49/49
f 99/99/99 48/48/48 49/49/49
f 98/98/98 97/97/97 112/112/112
f 112/112/112 97/97/97 113/113/113
f 111/111/111 112/112/112 113/113/113
f 118/118/118 112/112/112 111/111/111
f 114/114/114 200/200/200 115/115/115
f 116/116/116 200/200/200 114/114/114
f 201/201/201 200/200/200 116/116/116
f 199/199/199 200/200/200 201/201/201
f 119/119/119 118/118/118 124/124/124
f 124/124/124 118/118/118 125/125/125
f 123/123/123 124/124/124 125/125/125
f 117/117/117 124/124/124 123/123/123
f 123/123/123 178/178/178 117/117/117
f 106/106/106 178/178/178 123/123/123
f 106/106/106 123/123/123 105/105/105
f 105/105/105 123/123/123 104/104/104
f 104/104/104 123/123/123 113/113/113
f 113/113/113 123/123/123 125/125/125
f 212/212/212 64/64/64 59/59/59
f 64/64/64 212/212/212 63/63/63
f 63/63/63 62/62/62 64/64/64
f 61/61/61 62/62/62 63/63/63
f 63/63/63 214/214/214 61/61/61
f 61/61/61 214/214/214 60/60/60
f 214/214/214 45/45/45 60/60/60
f 212/212/212 59/59/59 58/58/58
f 213/213/213 212/212/212 58/58/58
f 212/212/212 213/213/213 214/214/214
f 63/63/63 212/212/212 214/214/214
f 213/213/213 45/45/45 214/214/214
f 332/332/332 313/313/313 315/315/315
f 267/267/267 8/8/8 9/9/9
f 8/8/8 47/47/47 9/9/9
f 9/9/9 47/47/47 42/42/42
f 47/47/47 46/46/46 42/42/42
f 274/274/274 6/6/6 277/277/277
f 295/295/295 274/274/274 277/277/277
f 266/266/266 274/274/274 295/295/295
f 266/266/266 295/295/295 310/310/310
f 310/310/310 295/295/295 336/336/336
f 310/310/310 336/336/336 311/311/311
f 311/311/311 336/336/336 217/217/217
f 311/311/311 217/217/217 216/216/216
f 216/216/216 217/217/217 246/246/246
f 248/248/248 216/216/216 246/246/246
f 264/264/264 276/276/276 275/275/275
f 264/264/264 219/219/219 276/276/276
f 276/276/276 219/219/219 220/220/220
f 227/227/227 220/220/220 219/219/219
f 288/288/288 220/220/220 227/227/227
f 285/285/285 288/288/288 227/227/227
f 286/286/286 288/288/288 285/285/285
f 286/286/286 287/287/287 288/288/288
f 264/264/264 265/265/265 219/219/219
f 227/227/227 219/219/219 265/265/265
f 103/103/103 100/100/100 96/96/96
f 100/100/100 103/103/103 95/95/95
f 93/93/93 100/100/100 95/95/95
f 286/286/286 93/93/93 95/95/95
f 95/95/95 287/287/287 286/286/286
f 95/95/95 103/103/103 287/287/287
f 312/312/312 253/253/253 239/239/239
f 239/239/239 253/253/253 294/294/294
f 301/301/301 27/27/27 300/300/300
f 21/21/21 27/27/27 301/301/301
f 245/245/245 242/242/242 335/335/335
f 245/245/245 243/243/243 242/242/242
f 244/244/244 243/243/243 245/245/245
f 158/158/158 3/3/3 161/161/161
f 159/159/159 158/158/158 161/161/161
f 334/334/334 158/158/158 159/159/159
f 341/341/341 306/306/306 160/160/160
f 307/307/307 306/306/306 341/341/341
f 230/230/230 308/308/308 218/218/218
f 230/230/230 218/218/218 309/309/309
f 226/226/226 224/224/224 229/229/229
f 231/231/231 224/224/224 226/226/226
f 247/247/247 225/225/225 238/238/238
f 238/238/238 225/225/225 313/313/313
f 238/238/238 313/313/313 304/304/304
f 281/281/281 235/235/235 228/228/228
f 263/263/263 235/235/235 281/281/281
f 281/281/281 85/85/85 263/263/263
f 270/270/270 85/85/85 281/281/281
f 250/250/250 223/223/223 234/234/234
f 232/232/232 223/223/223 250/250/250
f 223/223/223 232/232/232 291/291/291
f 291/291/291 232/232/232 279/279/279
f 254/254/254 258/258/258 255/255/255
f 255/255/255 258/258/258 257/257/257
f 257/257/257 258/258/258 292/292/292
f 292/292/292 258/258/258 268/268/268
f 290/290/290 241/241/241 289/289/289
f 222/222/222 241/241/241 290/290/290
f 222/222/222 221/221/221 241/241/241
f 241/241/241 221/221/221 240/240/240
f 273/273/273 329/329/329 280/280/280
f 320/320/320 329/329/329 273/273/273
f 320/320/320 330/330/330 329/329/329
f 329/329/329 330/330/330 328/328/328
f 366/366/366 303/303/303 352/352/352
f 352/352/352 351/351/351 366/366/366
f 366/366/366 351/351/351 317/317/317
f 317/317/317 351/351/351 333/333/333
f 333/333/333 351/351/351 314/314/314
f 358/358/358 303/303/303 305/305/305
f 305/305/305 360/360/360 358/358/358
f 360/360/360 356/356/356 358/358/358
f 356/356/356 357/357/357 358/358/358
f 361/361/361 357/357/357 356/356/356
f 340/340/340 360/360/360 305/305/305
f 237/237/237 360/360/360 340/340/340
f 359/359/359 360/360/360 237/237/237
f 359/359/359 362/362/362 360/360/360
f 360/360/360 362/362/362 356/356/356
f 302/302/302 359/359/359 237/237/237
f 269/269/269 359/359/359 302/302/302
f 269/269/269 304/304/304 359/359/359
f 359/359/359 304/304/304 339/339/339
f 339/339/339 362/362/362 359/359/359
f 382/382/382 377/377/377 324/324/324
f 382/382/382 374/374/374 377/377/377
f 380/380/380 374/374/374 382/382/382
f 380/380/380 375/375/375 374/374/374
f 327/327/327 375/375/375 380/380/380
f 99/99/99 48/48/48 49/49/49
f 50/50/50 99/99/99 49/49/49
f 215/215/215 99/99/99 50/50/50
f 322/322/322 180/180/180 181/181/181
f 321/321/321 180/180/180 322/322/322
f 323/323/323 325/325/325 326/326/326
f 316/316/316 325/325/325 323/323/323
f 331/331/331 364/364/364 365/365/365
f 365/365/365 364/364/364 363/363/363
f 344/344/344 378/378/378 367/367/367
f 344/344/344 346/346/346 378/378/378
f 378/378/378 346/346/346 345/345/345
f 347/347/347 345/345/345 346/346/346
f 354/354/354 345/345/345 347/347/347
f 347/347/347 369/369/369 354/354/354
f 344/344/344 372/372/372 346/346/346
f 347/347/347 346/346/346 372/372/372
f 372/372/372 348/348/348 347/347/347
f 348/348/348 379/379/379 347/347/347
f 381/381/381 379/379/379 348/348/348
f 381/381/381 282/282/282 379/379/379
f 379/379/379 282/282/282 283/283/283
f 282/282/282 203/203/203 283/283/283
f 283/283/283 203/203/203 193/193/193
f 193/193/193 179/179/179 283/283/283
f 283/283/283 179/179/179 368/368/368
f 368/368/368 369/369/369 283/283/283
f 283/283/283 369/369/369 353/353/353
f 353/353/353 369/369/369 347/347/347
f 203/203/203 108/108/108 193/193/193
f 108/108/108 191/191/191 193/193/193
f 193/193/193 191/191/191 179/179/179
f 191/191/191 108/108/108 101/101/101
f 297/297/297 298/298/298 299/299/299
f 371/371/371 298/298/298 297/297/297
f 376/376/376 373/373/373 370/370/370
f 373/373/373 372/372/372 370/370/370
f 349/349/349 372/372/372 373/373/373
f 349/349/349 350/350/350 372/372/372
f 203/203/203 166/166/166 168/168/168
f 166/166/166 167/167/167 168/168/168
f 196/196/196 166/166/166 197/197/197
f 196/196/196 197/197/197 284/284/284
f 212/212/212 261/261/261 59/59/59
f 261/261/261 212/212/212 262/262/262
f 262/262/262 259/259/259 261/261/261
f 272/272/272 259/259/259 262/262/262
f 272/272/272 249/249/249 259/259/259
f 256/256/256 249/249/249 272/272/272
f 256/256/256 272/272/272 236/236/236
f 212/212/212 59/59/59 252/252/252
f 251/251/251 212/212/212 252/252/252
f 212/212/212 251/251/251 271/271/271
f 262/262/262 212/212/212 271/271/271
f 262/262/262 271/271/271 272/272/272
f 272/272/272 271/271/271 293/293/293
f 236/236/236 272/272/272 293/293/293
f 293/293/293 233/233/233 236/236/236
f 260/260/260 233/233/233 293/293/293
f 271/271/271 260/260/260 293/293/293
f 251/251/251 260/260/260 271/271/271
f 278/278/278 342/342/342 355/355/355
f 338/338/338 342/342/342 278/278/278
f 318/318/318 342/342/342 338/338/338
f 337/337/337 342/342/342 318/318/318
f 319/319/319 342/342/342 337/337/337
f 296/296/296 342/342/342 319/319/319
f 343/343/343 342/342/342 296/296/296
f 355/355/355 342/342/342 343/343/343
