# Exported by s4extract — object_dresser_NoRoute_lod00_g00
o object_dresser_NoRoute_lod00_g00
v 0.623939 0.257645 -0.339620
v 0.611060 0.257645 -0.415186
v 0.540438 0.257645 -0.339620
v 0.540438 0.257645 -0.415186
v 0.623939 0.257645 -0.401270
v 0.625038 1.513581 -0.350790
v 0.623939 0.257645 -0.339620
v 0.623939 0.257645 -0.339620
v 0.625038 1.513581 -0.350790
v 0.542514 1.513581 -0.350790
v 0.542514 1.513581 -0.429775
v 0.540438 0.257645 -0.339620
v 0.540438 0.257645 -0.415186
v 0.542514 1.513581 -0.350790
v 0.540438 0.257645 -0.415186
v 0.540438 0.257645 -0.339620
v 0.542514 1.513581 -0.429775
v -0.611060 0.257645 0.233169
v -0.623939 0.257645 0.157541
v -0.540438 0.257645 0.233169
v -0.623939 0.257645 0.219252
v -0.542514 1.513581 0.247757
v -0.540438 0.257645 0.233169
v -0.540438 0.257645 0.157541
v -0.542514 1.513581 0.168773
v -0.623939 0.257645 0.157541
v -0.625038 1.513581 0.168773
v -0.540438 0.257645 0.157541
v -0.625038 1.513581 0.168773
v -0.623939 0.257645 0.157541
v -0.540438 0.257645 0.157541
v -0.542514 1.513581 0.168773
v -0.542514 1.513581 0.247757
v -0.596350 0.000000 0.190441
v -0.573827 0.000000 0.208082
v -0.540438 0.257645 0.233169
v -0.590978 0.000000 0.208143
v -0.582433 0.000000 0.179454
v -0.582921 0.026552 0.168895
v -0.568516 0.000000 0.190380
v -0.558750 0.026552 0.187817
v -0.568516 0.000000 0.190380
v -0.567906 0.026552 0.218580
v -0.582433 0.000000 0.179454
v -0.573827 0.000000 0.208082
v -0.568516 0.000000 0.190380
v -0.597815 0.026552 0.218641
v -0.558750 0.026552 0.187817
v -0.590978 0.000000 0.208143
v -0.573827 0.000000 0.208082
v -0.597815 0.026552 0.218641
v -0.567906 0.026552 0.218580
v -0.607093 0.026552 0.187939
v -0.596350 0.000000 0.190441
v -0.607093 0.026552 0.187939
v -0.590978 0.000000 0.208143
v -0.582921 0.026552 0.168895
v -0.582433 0.000000 0.179454
v 0.563023 0.000000 0.190441
v -0.596350 0.000000 0.190441
v 0.585546 0.000000 0.208082
v 0.590856 0.000000 0.190380
v 0.576940 0.000000 0.179454
v 0.568394 0.000000 0.208143
v 0.590856 0.000000 0.190380
v 0.576451 0.026552 0.168895
v 0.600623 0.026552 0.187817
v 0.469206 1.457731 0.201611
v 0.469206 1.284319 0.193921
v -0.473112 1.457731 0.201611
v 0.469206 1.457731 0.201611
v 0.576940 0.000000 0.179454
v 0.585546 0.000000 0.208082
v 0.591467 0.026552 0.218580
v 0.600623 0.026552 0.187817
v 0.591467 0.026552 0.218580
v 0.590856 0.000000 0.190380
v 0.568394 0.000000 0.208143
v 0.561558 0.026552 0.218641
v -0.415370 0.333333 0.188732
v -0.004456 0.238418 0.134835
v -0.549960 0.270891 0.188732
v 0.156809 0.250992 0.134835
v 0.585546 0.000000 0.208082
v 0.552280 0.026552 0.187939
v 0.568394 0.000000 0.208143
v 0.561558 0.026552 0.218641
v -0.555942 0.114814 -0.333394
v -0.583532 0.055118 -0.398584
v -0.563084 0.055118 -0.382592
v -0.539095 0.114814 -0.389977
v -0.603919 0.055118 -0.382531
v -0.558140 0.258683 -0.383019
v -0.627907 0.114814 -0.389794
v -0.583532 0.055118 -0.398584
v -0.614051 0.236648 -0.328511
v -0.553012 0.236648 -0.328633
v -0.614051 0.236648 -0.328511
v -0.534273 0.236648 -0.391503
v -0.561497 0.159067 -0.343710
v -0.549228 0.201672 -0.323445
v -0.617836 0.201672 -0.323323
v -0.603003 0.159067 -0.343649
v 0.596289 0.055118 0.188000
v 0.603430 0.114814 0.237197
v 0.620277 0.114814 0.180614
v 0.588537 0.055118 0.214002
v -0.583593 0.114814 -0.424831
v -0.615882 0.159067 0.184276
v -0.583593 0.114814 -0.424831
v -0.603919 0.055118 -0.382531
v -0.553012 0.236648 -0.328633
v -0.583715 0.236648 -0.430202
v -0.617836 0.201672 -0.323323
v -0.548740 0.159067 -0.386498
v 0.603430 0.114814 0.237197
v 0.596289 0.055118 0.188000
v -0.639199 0.201672 0.176647
v -0.582372 0.159067 0.157786
v -0.596106 0.055118 -0.356528
v -0.627907 0.114814 -0.389794
v -0.534273 0.236648 -0.391503
v -0.583532 0.258683 -0.402918
v -0.528108 0.201672 -0.394189
v -0.561497 0.159067 -0.343710
v 0.575841 0.055118 0.172008
v 0.620277 0.114814 0.180614
v -0.563084 0.055118 -0.382592
v -0.539095 0.114814 -0.389977
v -0.555942 0.114814 -0.333394
v -0.570836 0.055118 -0.356589
v -0.567784 0.258683 -0.350729
v -0.567784 0.258683 -0.350729
v -0.558140 0.258683 -0.383019
v -0.583532 0.258683 -0.402918
v -0.583715 0.236648 -0.430202
v -0.583715 0.201672 -0.437771
v -0.632973 0.236648 -0.391259
v -0.632973 0.236648 -0.391259
v -0.615882 0.159067 -0.386315
v -0.603003 0.159067 -0.343649
v -0.583715 0.201672 -0.437771
v -0.639199 0.201672 -0.393945
v 0.548495 0.114814 0.237319
v 0.563267 0.055118 0.214063
v 0.588537 0.055118 0.214002
v 0.548495 0.114814 0.237319
v 0.469206 0.459928 0.184582
v 0.465727 0.704877 0.218824
v 0.465727 0.704877 0.218824
v 0.469206 0.708722 0.182567
v 0.639443 1.511323 -0.451016
v -0.636086 1.511323 -0.451016
v -0.648721 1.600439 -0.458463
v 0.677410 1.557834 -0.473479
v 0.261124 0.277727 -0.379296
v -0.004456 1.513520 -0.395532
v 0.261124 0.277727 -0.325398
v 0.156809 0.250992 -0.379296
v 0.563023 0.000000 0.190441
v 0.576451 0.026552 0.168895
v 0.563023 0.000000 0.190441
v 0.552280 0.026552 0.187939
v 0.407373 0.333333 0.134835
v 0.407373 0.333333 0.188732
v -0.549960 0.270891 0.161692
v -0.334188 0.315144 0.188732
v -0.165782 0.250992 0.134835
v -0.165782 0.250992 0.188732
v -0.004456 0.238418 0.134835
v 0.326131 0.315144 0.188732
v 0.407373 0.333333 0.188732
v 0.326131 0.315144 0.134835
v -0.545627 0.356528 0.134835
v 0.575841 0.258683 0.167674
v 0.560215 0.258683 0.219923
v 0.550449 0.258683 0.187634
v 0.550449 0.258683 0.187634
v 0.610145 0.201672 0.247146
v 0.597876 0.159067 0.226882
v 0.610633 0.159067 0.184093
v 0.577001 0.159067 0.157786
v -0.583532 0.257706 -0.093817
v 0.543490 0.159067 0.184276
v -0.583532 0.276384 -0.185436
v 0.520234 0.201672 0.176647
v -0.611060 0.257645 -0.415186
v -0.540438 0.257645 -0.415186
v -0.542514 1.513581 -0.429775
v -0.540438 0.257645 -0.339620
v 0.588537 0.055118 -0.356589
v 0.620277 0.114814 -0.389977
v 0.603430 0.114814 -0.333394
v 0.596289 0.055118 -0.382592
v 0.560215 0.258683 0.219923
v 0.591589 0.258683 0.219862
v 0.631264 0.201672 0.176402
v 0.575658 0.201672 0.132821
v 0.577001 0.159067 0.157786
v 0.575658 0.201672 0.132821
v -0.542514 1.513581 -0.350790
v -0.623939 0.257645 -0.339620
v 0.575841 0.055118 -0.398584
v 0.620277 0.114814 -0.389977
v 0.591589 0.258683 0.219862
v 0.605933 0.258500 0.187572
v 0.575658 0.236648 0.140389
v 0.526399 0.236648 0.179332
v 0.543490 0.159067 0.184276
v 0.556369 0.159067 0.226943
v -0.625038 1.513581 -0.350790
v -0.586828 1.513520 0.174754
v 0.575780 0.114814 -0.424831
v 0.611060 0.257645 -0.415186
v 0.606360 0.236648 0.241958
v 0.575658 0.236648 0.140389
v 0.625099 0.236648 0.179088
v 0.625099 0.236648 0.179088
v 0.541537 0.201672 0.247269
v 0.556369 0.159067 0.226943
v 0.610633 0.159067 0.184093
v 0.631264 0.201672 0.176402
v -0.534090 0.276384 -0.002136
v -0.583532 0.276384 -0.002136
v -0.583532 0.307026 0.071599
v -0.583532 0.276384 -0.002136
v -0.623939 0.257645 0.219252
v -0.625038 1.513581 0.233840
v -0.612159 1.513581 0.247757
v -0.612159 1.513581 -0.429775
v 0.588537 0.055118 -0.356589
v 0.548495 0.114814 -0.333272
v 0.603430 0.114814 -0.333394
v 0.596289 0.055118 -0.382592
v -0.473112 1.012208 0.185436
v -0.469633 1.015992 0.221571
v 0.469206 1.012208 0.185436
v 0.465727 1.015992 0.221571
v 0.465727 0.984862 0.222670
v -0.469633 0.984862 0.222670
v -0.473112 0.988647 0.186474
v 0.469206 0.988647 0.186474
v -0.570836 0.055118 0.214002
v -0.610877 0.114814 0.237319
v -0.596106 0.055118 0.214063
v -0.555942 0.114814 0.237197
v -0.608924 0.258683 0.187634
v -0.599158 0.258683 0.219923
v -0.599158 0.258683 0.219923
v -0.567784 0.258683 0.219862
v -0.582372 0.159067 0.157786
v -0.548740 0.159067 0.184093
v -0.528108 0.201672 0.176402
v -0.583715 0.201672 0.132821
v -0.469633 1.257157 0.229384
v 0.465727 1.257157 0.229384
v 0.469206 0.739852 0.183971
v 0.469206 0.988647 0.186474
v -0.563084 0.055118 0.188000
v -0.539095 0.114814 0.180614
v -0.567784 0.258683 0.219862
v -0.558140 0.258683 0.187572
v -0.583715 0.236648 0.140389
v -0.632973 0.236648 0.179332
v -0.473112 1.261002 0.193127
v 0.469206 1.261002 0.193127
v 0.465727 0.743637 0.220106
v 0.465727 0.984862 0.222670
v -0.570836 0.055118 0.214002
v -0.555942 0.114814 0.237197
v -0.583532 0.258683 0.167674
v -0.558140 0.258683 0.187572
v -0.632973 0.236648 0.179332
v -0.614051 0.236648 0.242080
v 0.465727 0.984862 0.222670
v -0.469633 0.743637 0.220106
v 0.465727 0.743637 0.220106
v -0.469633 0.984862 0.222670
v 0.469206 0.739852 0.183971
v -0.473112 0.739852 0.183971
v -0.469633 0.743637 0.220106
v 0.465727 0.743637 0.220106
v -0.596106 0.055118 0.214063
v -0.603919 0.055118 0.188061
v -0.627907 0.114814 0.180797
v -0.610877 0.114814 0.237319
v -0.534273 0.236648 0.179088
v -0.583532 0.258683 0.167674
v -0.583715 0.236648 0.140389
v -0.608924 0.258683 0.187634
v -0.548740 0.159067 0.184093
v -0.528108 0.201672 0.176402
v -0.561497 0.159067 0.226882
v -0.549228 0.201672 0.247146
v 0.560215 0.258683 -0.350668
v 0.560215 0.258683 -0.350668
v 0.550449 0.258683 -0.382958
v 0.591589 0.258683 -0.350729
v 0.577001 0.159067 -0.412806
v 0.610633 0.159067 -0.386498
v 0.631264 0.201672 -0.394189
v 0.575658 0.201672 -0.437771
v 0.520234 0.201672 -0.393945
v 0.577001 0.159067 -0.412806
v 0.543490 0.159067 -0.386315
v 0.575658 0.201672 -0.437771
v 0.585241 0.276384 -0.002136
v 0.588598 1.513520 -0.363914
v 0.585241 0.307026 0.071599
v 0.585241 0.276384 -0.185436
v -0.673991 1.557834 -0.473479
v -0.648721 1.600439 -0.458463
v -0.673991 1.557834 0.283342
v -0.648721 1.600439 -0.458463
v 0.591589 0.258683 -0.350729
v 0.601233 0.258683 -0.383019
v 0.575658 0.236648 -0.430202
v 0.526399 0.236648 -0.391259
v 0.543490 0.159067 -0.386315
v 0.556369 0.159067 -0.343649
v 0.585241 0.257706 -0.093817
v 0.585241 0.307026 -0.259232
v -0.648721 1.600439 0.268388
v -0.574254 0.337423 0.175853
v 0.575841 0.258683 -0.402918
v 0.601233 0.258683 -0.383019
v 0.526399 0.236648 -0.391259
v 0.545321 0.236648 -0.328511
v 0.520234 0.201672 -0.393945
v 0.541537 0.201672 -0.323323
v 0.585241 0.297992 -0.309589
v 0.585241 0.269426 -0.340780
v -0.574254 0.337423 -0.349631
v 0.543124 0.337423 0.175853
v 0.625099 0.236648 -0.391503
v 0.575841 0.258683 -0.402918
v 0.575658 0.236648 -0.430202
v 0.550449 0.258683 -0.382958
v 0.631264 0.201672 -0.394189
v 0.610633 0.159067 -0.386498
v 0.597876 0.159067 -0.343710
v 0.610145 0.201672 -0.323445
v 0.625038 1.513581 0.168773
v 0.542514 1.513581 0.168773
v 0.540438 0.257645 0.157541
v 0.623939 0.257645 0.157541
v 0.535860 0.257706 -0.093817
v 0.585241 0.276384 -0.185436
v 0.585241 0.257706 -0.093817
v 0.535860 0.276384 -0.185436
v 0.652078 1.600439 -0.458463
v 0.677410 1.557834 -0.473479
v -0.673991 1.557834 -0.473479
v 0.652078 1.600439 -0.458463
v 0.576940 0.000000 0.179454
v 0.585546 0.000000 -0.362510
v 0.568394 0.000000 -0.362449
v 0.563023 0.000000 -0.380150
v 0.590856 0.000000 -0.380211
v 0.576451 0.026552 -0.401697
v 0.600623 0.026552 -0.382775
v 0.576940 0.000000 -0.391137
v 0.576940 0.000000 -0.391137
v 0.591467 0.026552 -0.352011
v 0.585546 0.000000 -0.362510
v 0.590856 0.000000 -0.380211
v 0.600623 0.026552 -0.382775
v 0.561558 0.026552 -0.351950
v 0.568394 0.000000 -0.362449
v 0.590856 0.000000 -0.380211
v 0.591467 0.026552 -0.352011
v 0.561558 0.026552 -0.351950
v 0.552280 0.026552 -0.382653
v 0.585546 0.000000 -0.362510
v 0.568394 0.000000 -0.362449
v 0.552280 0.026552 -0.382653
v 0.576451 0.026552 -0.401697
v 0.563023 0.000000 -0.380150
v 0.563023 0.000000 -0.380150
v -0.596350 0.000000 -0.380150
v -0.573827 0.000000 -0.362510
v 0.576940 0.000000 -0.391137
v -0.590978 0.000000 -0.362449
v -0.582433 0.000000 -0.391137
v -0.582921 0.026552 -0.401697
v -0.568516 0.000000 -0.380211
v -0.558750 0.026552 -0.382775
v -0.568516 0.000000 -0.380211
v -0.567906 0.026552 -0.352011
v -0.582433 0.000000 -0.391137
v -0.573827 0.000000 -0.362510
v -0.568516 0.000000 -0.380211
v -0.597815 0.026552 -0.351950
v -0.558750 0.026552 -0.382775
v -0.590978 0.000000 -0.362449
v -0.573827 0.000000 -0.362510
v -0.597815 0.026552 -0.351950
v -0.567906 0.026552 -0.352011
v -0.607093 0.026552 -0.382653
v -0.596350 0.000000 -0.380150
v -0.607093 0.026552 -0.382653
v -0.590978 0.000000 -0.362449
v -0.582921 0.026552 -0.401697
v -0.582433 0.000000 -0.391137
v 0.535860 0.307026 -0.259232
v -0.596350 0.000000 -0.380150
v 0.535860 0.276384 -0.185436
v 0.535860 0.276384 -0.002136
v 0.535860 0.257706 -0.093817
v 0.535860 0.357749 -0.093939
v 0.535860 0.357749 -0.339620
v 0.546542 0.269426 -0.340780
v 0.535860 0.307026 -0.259232
v 0.535860 0.297992 -0.309589
v -0.534090 0.276384 -0.185436
v -0.534090 0.307026 0.071599
v -0.544772 0.269426 0.160044
v -0.534090 0.357749 0.156015
v 0.540438 0.257645 0.157541
v 0.623939 0.257645 0.157541
v 0.625038 1.513581 0.233840
v -0.583532 0.276384 -0.185436
v -0.544772 0.269426 -0.340780
v -0.534090 0.357749 -0.339620
v -0.534090 0.297992 -0.309589
v -0.534090 0.297992 -0.309589
v -0.583532 0.297992 -0.309589
v -0.544772 0.269426 -0.340780
v -0.583532 0.269426 -0.340780
v 0.540438 0.257645 0.233169
v 0.542514 1.513581 0.168773
v 0.542514 1.513581 0.247757
v 0.623939 0.257645 0.219252
v -0.583532 0.307026 -0.259232
v -0.583532 0.269426 -0.340780
v -0.583532 0.269426 0.160044
v 0.623939 0.257645 0.157541
v 0.585241 0.297992 -0.309589
v 0.546542 0.269426 -0.340780
v 0.535860 0.297992 -0.309589
v 0.585241 0.307026 -0.259232
v 0.535860 0.297992 0.122017
v -0.534090 0.276384 -0.002136
v -0.534090 0.307026 -0.259232
v -0.534090 0.276384 -0.185436
v -0.534090 0.307026 -0.259232
v -0.583532 0.307026 -0.259232
v -0.534090 0.257706 -0.093817
v -0.534090 0.357749 -0.093939
v -0.586828 1.513520 -0.363914
v -0.583532 0.297992 -0.309589
v 0.585241 0.297992 0.122017
v 0.546542 0.269426 0.160044
v 0.585241 0.269426 0.160044
v 0.535860 0.276384 -0.002136
v 0.585241 0.307026 0.071599
v 0.585241 0.276384 -0.002136
v 0.535860 0.357749 0.156015
v 0.535860 0.307026 0.071599
v -0.583532 0.307026 0.071599
v -0.544772 0.269426 0.160044
v -0.583532 0.297992 0.122017
v -0.534090 0.297992 0.122017
v -0.534090 0.297992 0.122017
v -0.534090 0.307026 0.071599
v 0.540438 0.257645 0.233169
v 0.625038 1.513581 0.168773
v 0.623939 0.257645 0.219252
v 0.535860 0.307026 0.071599
v 0.535860 0.297992 0.122017
v 0.546542 0.269426 0.160044
v 0.585241 0.269426 -0.340780
v -0.415370 0.333333 -0.325398
v -0.415370 0.333333 -0.379296
v -0.415370 0.333333 -0.379296
v -0.334188 0.315144 -0.379296
v -0.009217 0.356528 -0.325398
v 0.156809 0.250992 -0.325398
v -0.004456 0.238418 -0.325398
v 0.261124 0.277727 -0.325398
v -0.540438 0.257645 -0.415186
v 0.540438 0.257645 0.157541
v 0.611060 0.257645 0.233169
v -0.334188 0.315144 -0.325398
v -0.334188 0.315144 -0.379296
v 0.261124 0.277727 -0.379296
v -0.415370 0.333333 -0.325398
v -0.545627 0.356528 -0.325398
v -0.625038 1.513581 -0.415858
v -0.540438 0.257645 -0.339620
v -0.540438 0.257645 -0.415186
v -0.270097 0.277727 -0.379296
v -0.542514 1.513581 -0.350790
v -0.623939 0.257645 -0.339620
v -0.623939 0.257645 -0.339620
v -0.625038 1.513581 -0.350790
v -0.623939 0.257645 -0.401270
v 0.326131 0.315144 -0.379296
v 0.537569 0.356528 -0.325398
v 0.326131 0.315144 -0.325398
v 0.541964 0.270891 -0.352255
v -0.270097 0.277727 -0.325398
v -0.165782 0.250992 -0.325398
v 0.326131 0.315144 -0.325398
v 0.407373 0.333333 -0.325398
v -0.611060 0.257645 -0.415186
v -0.542514 1.513581 -0.429775
v 0.407373 0.333333 -0.379296
v 0.541964 0.270891 -0.379296
v 0.541964 0.270891 -0.379296
v 0.566929 1.513520 -0.395532
v -0.334188 0.315144 -0.325398
v -0.623939 0.257645 -0.401270
v 0.326131 0.315144 -0.379296
v 0.407373 0.333333 -0.379296
v 0.407373 0.333333 -0.325398
v 0.541964 0.270891 -0.352255
v -0.491180 0.316914 -0.325398
v -0.549960 0.270891 -0.352255
v -0.491180 0.316914 -0.379296
v -0.549960 0.270891 -0.352255
v -0.491180 0.316914 -0.325398
v -0.549960 0.270891 -0.379296
v -0.004456 0.238418 -0.379296
v -0.165782 0.250992 -0.379296
v -0.004456 0.238418 -0.379296
v -0.004456 1.513520 -0.395532
v -0.540438 0.257645 -0.339620
v -0.004456 0.238418 -0.325398
v 0.261124 0.277727 0.134835
v 0.156809 0.250992 -0.379296
v -0.270097 0.277727 -0.379296
v -0.574925 1.513520 -0.395532
v -0.491180 0.316914 -0.379296
v -0.549960 0.270891 -0.379296
v -0.270097 0.277727 -0.325398
v -0.165782 0.250992 -0.325398
v -0.004456 0.238418 -0.379296
v -0.165782 0.250992 -0.379296
v 0.326131 0.315144 0.134835
v 0.156809 0.250992 -0.325398
v -0.415370 0.333333 0.134835
v -0.009156 0.356528 0.134835
v -0.165782 0.250992 0.134835
v -0.549960 0.270891 0.188732
v -0.415370 0.333333 0.134835
v -0.415370 0.333333 0.188732
v -0.491180 0.316914 0.188732
v -0.549960 0.270891 0.161692
v -0.491180 0.316914 0.134835
v -0.334188 0.315144 0.134835
v -0.491180 0.316914 0.188732
v -0.491180 0.316914 0.134835
v -0.270097 0.277727 0.134835
v 0.483184 0.316914 0.188732
v 0.326131 0.315144 0.188732
v 0.483184 0.316914 0.134835
v 0.541964 0.270891 0.161692
v -0.004456 1.513520 0.204908
v 0.261124 0.277727 0.188732
v 0.261124 0.277727 0.134835
v 0.156809 0.250992 0.188732
v 0.156809 0.250992 0.134835
v -0.004456 0.238418 0.188732
v 0.541964 0.270891 0.161692
v 0.483184 0.316914 0.134835
v 0.541964 0.270891 0.188732
v 0.537569 0.356528 0.134835
v -0.270097 0.277727 0.188732
v -0.574925 1.513520 0.204908
v -0.165782 0.250992 0.188732
v -0.004456 0.238418 0.188732
v 0.156809 0.250992 0.188732
v -0.270097 0.277727 0.188732
v -0.469633 1.455106 0.237869
v -0.469633 1.286944 0.230056
v -0.270097 0.277727 0.134835
v -0.334188 0.315144 0.134835
v -0.334188 0.315144 0.188732
v 0.261124 0.277727 0.188732
v 0.483184 0.316914 0.188732
v 0.407373 0.333333 0.134835
v 0.541964 0.270891 0.188732
v 0.566929 1.513520 0.204908
v -0.473112 1.457731 0.201611
v -0.469633 1.455106 0.237869
v 0.465727 1.286944 0.230056
v 0.465727 1.455106 0.237869
v 0.465727 1.286944 0.230056
v 0.465727 1.455106 0.237869
v -0.473112 1.284319 0.193921
v -0.469633 1.286944 0.230056
v 0.465727 1.257157 0.229384
v 0.465727 1.015992 0.221571
v -0.469633 1.015992 0.221571
v -0.469633 1.257157 0.229384
v -0.473112 1.284319 0.193921
v 0.469206 1.284319 0.193921
v -0.469633 1.286944 0.230056
v 0.465727 1.286944 0.230056
v -0.469633 1.455106 0.237869
v 0.465727 1.455106 0.237869
v 0.469206 1.012208 0.185436
v 0.469206 1.261002 0.193127
v 0.465727 1.015992 0.221571
v -0.473112 1.261002 0.193127
v -0.469633 1.257157 0.229384
v -0.473112 1.012208 0.185436
v -0.469633 1.015992 0.221571
v 0.465727 1.257157 0.229384
v -0.473112 0.739852 0.183971
v -0.469633 0.743637 0.220106
v -0.473112 0.988647 0.186474
v -0.469633 0.984862 0.222670
v -0.563084 0.055118 0.188000
v -0.583532 0.055118 0.172008
v -0.539095 0.114814 0.180614
v -0.583593 0.114814 0.145761
v -0.603919 0.055118 0.188061
v -0.627907 0.114814 0.180797
v -0.583532 0.055118 0.172008
v -0.583593 0.114814 0.145761
v -0.614051 0.236648 0.242080
v -0.553012 0.236648 0.241958
v -0.534273 0.236648 0.179088
v -0.553012 0.236648 0.241958
v -0.561497 0.159067 0.226882
v -0.549228 0.201672 0.247146
v -0.603003 0.159067 0.226943
v -0.617836 0.201672 0.247269
v -0.583715 0.201672 0.132821
v -0.639199 0.201672 0.176647
v -0.615882 0.159067 0.184276
v -0.617836 0.201672 0.247269
v -0.603003 0.159067 0.226943
v -0.610877 0.114814 -0.333272
v -0.596106 0.055118 -0.356528
v -0.570836 0.055118 -0.356589
v -0.610877 0.114814 -0.333272
v -0.608924 0.258683 -0.382958
v -0.599158 0.258683 -0.350668
v -0.608924 0.258683 -0.382958
v -0.599158 0.258683 -0.350668
v -0.549228 0.201672 -0.323445
v -0.548740 0.159067 -0.386498
v -0.582372 0.159067 -0.412806
v -0.528108 0.201672 -0.394189
v 0.575780 0.114814 0.145761
v -0.615882 0.159067 -0.386315
v -0.639199 0.201672 -0.393945
v -0.582372 0.159067 -0.412806
v 0.575780 0.114814 0.145761
v 0.555454 0.055118 0.188061
v 0.563267 0.055118 0.214063
v 0.531466 0.114814 0.180797
v 0.575841 0.258683 0.167674
v 0.531466 0.114814 0.180797
v 0.605933 0.258500 0.187572
v 0.575841 0.055118 0.172008
v 0.555454 0.055118 0.188061
v 0.526399 0.236648 0.179332
v 0.545321 0.236648 0.242080
v 0.545321 0.236648 0.242080
v 0.606360 0.236648 0.241958
v 0.520234 0.201672 0.176647
v 0.541537 0.201672 0.247269
v 0.597876 0.159067 0.226882
v 0.610145 0.201672 0.247146
v -0.583532 0.297992 0.122017
v -0.583532 0.269426 0.160044
v -0.583532 0.257706 -0.093817
v -0.534090 0.257706 -0.093817
v 0.612159 1.513581 -0.429775
v 0.623939 0.257645 -0.401270
v 0.625038 1.513581 -0.415858
v -0.611060 0.257645 0.233169
v 0.563267 0.055118 -0.356528
v 0.531466 0.114814 -0.389794
v 0.548495 0.114814 -0.333272
v 0.563267 0.055118 -0.356528
v 0.555454 0.055118 -0.382531
v 0.575780 0.114814 -0.424831
v 0.531466 0.114814 -0.389794
v 0.555454 0.055118 -0.382531
v 0.575841 0.055118 -0.398584
v 0.545321 0.236648 -0.328511
v 0.606360 0.236648 -0.328633
v 0.625099 0.236648 -0.391503
v 0.606360 0.236648 -0.328633
v 0.597876 0.159067 -0.343710
v 0.610145 0.201672 -0.323445
v 0.556369 0.159067 -0.343649
v 0.541537 0.201672 -0.323323
v 0.612159 1.513581 0.247757
v 0.542514 1.513581 0.247757
v 0.611060 0.257645 0.233169
v 0.540438 0.257645 0.233169
v 0.543124 0.337423 -0.349631
v 0.588598 1.513520 0.174754
v 0.585241 0.269426 0.160044
v 0.585241 0.297992 0.122017
v 0.652078 1.600439 0.268388
v 0.677410 1.557834 0.283342
v 0.677410 1.557834 -0.473479
v 0.652078 1.600439 0.268388
v -0.673991 1.557834 0.283342
v 0.677410 1.557834 0.283342
v -0.636086 1.511323 0.260880
v -0.648721 1.600439 0.268388
v -0.673991 1.557834 0.283342
v 0.639443 1.511323 -0.451016
v 0.677410 1.557834 -0.473479
v -0.636086 1.511323 -0.451016
v 0.677410 1.557834 0.283342
v 0.639443 1.511323 0.260880
v -0.673991 1.557834 -0.473479
v 0.652078 1.600439 -0.458463
v -0.673991 1.557834 -0.473479
v 0.652078 1.600439 0.268388
v 0.677410 1.557834 0.283342
v -0.673991 1.557834 0.283342
v -0.648721 1.600439 0.268388
v -0.636086 1.511323 0.260880
v -0.636086 1.511323 0.260880
v 0.639443 1.511323 0.260880
v 0.639443 1.511323 -0.451016
v 0.639443 1.511323 0.260880
v -0.636086 1.511323 -0.451016
v -0.469633 0.463712 0.220656
v 0.465727 0.704877 0.218824
v -0.469633 0.704877 0.218824
v 0.465727 0.463712 0.220656
v -0.473112 0.708722 0.182567
v 0.465727 0.463712 0.220656
v -0.469633 0.704877 0.218824
v -0.473112 0.459928 0.184582
v -0.469633 0.463712 0.220656
v -0.473112 0.708722 0.182567
v 0.469206 0.708722 0.182567
v 0.469206 0.459928 0.184582
v -0.473112 0.459928 0.184582
v 0.465727 0.463712 0.220656
v -0.469633 0.704877 0.218824
v -0.469633 0.463712 0.220656
vt 0.897714 0.947803
vt 0.944625 0.951783
vt 0.897714 0.973689
vt 0.944625 0.973689
vt 0.935996 0.947803
vt 0.670483 0.245965
vt 0.041837 0.245965
vt 0.041837 0.245965
vt 0.670483 0.245965
vt 0.670483 0.225183
vt 0.670483 0.283153
vt 0.041837 0.225183
vt 0.041837 0.283153
vt 0.670483 0.301991
vt 0.041837 0.283153
vt 0.041837 0.301991
vt 0.670483 0.283153
vt 0.944625 0.951783
vt 0.897714 0.947803
vt 0.944625 0.973689
vt 0.935996 0.947803
vt 0.670483 0.367769
vt 0.041837 0.367769
vt 0.897714 0.973689
vt 0.670483 0.386636
vt 0.041837 0.330611
vt 0.670483 0.330611
vt 0.041837 0.386636
vt 0.670483 0.330611
vt 0.041837 0.330611
vt 0.041837 0.309829
vt 0.670483 0.309829
vt 0.670483 0.367769
vt 0.869063 0.751562
vt 0.890483 0.759978
vt 0.041837 0.367769
vt 0.874137 0.759978
vt 0.882280 0.746366
vt 0.842813 0.750650
vt 0.895527 0.751531
vt 0.826345 0.750650
vt 0.821089 0.743632
vt 0.809301 0.750650
vt 0.831602 0.743632
vt 0.808025 0.743632
vt 0.821089 0.743632
vt 0.793502 0.750650
vt 0.826345 0.750650
vt 0.794991 0.743632
vt 0.808025 0.743632
vt 0.793502 0.750650
vt 0.809301 0.750650
vt 0.776396 0.750650
vt 0.781896 0.743632
vt 0.776396 0.750650
vt 0.794991 0.743632
vt 0.760142 0.750650
vt 0.771535 0.743632
vt 0.869063 0.751562
vt 0.781896 0.743632
vt 0.890483 0.759978
vt 0.895527 0.751531
vt 0.882280 0.746366
vt 0.874137 0.759978
vt 0.821089 0.743632
vt 0.842813 0.750650
vt 0.826345 0.750650
vt 0.660851 0.732816
vt 0.574018 0.732876
vt 0.678291 0.976757
vt 0.678534 0.741049
vt 0.831602 0.743632
vt 0.808025 0.743632
vt 0.809301 0.750650
vt 0.826345 0.750650
vt 0.809301 0.750650
vt 0.821089 0.743632
vt 0.794991 0.743632
vt 0.793502 0.750650
vt 0.105640 0.421698
vt 0.979534 0.458886
vt 0.038312 0.406081
vt 0.974491 0.426498
vt 0.808025 0.743632
vt 0.776396 0.750650
vt 0.794991 0.743632
vt 0.793502 0.750650
vt 0.845183 0.775412
vt 0.771262 0.759370
vt 0.755189 0.759370
vt 0.727602 0.775412
vt 0.791314 0.759370
vt 0.727572 0.829463
vt 0.787365 0.775412
vt 0.771262 0.759370
vt 0.817778 0.820105
vt 0.854267 0.820105
vt 0.817778 0.820105
vt 0.890483 0.820105
vt 0.850044 0.791089
vt 0.855573 0.806190
vt 0.817808 0.806190
vt 0.817291 0.791089
vt 0.831419 0.759370
vt 0.814861 0.775412
vt 0.845183 0.775412
vt 0.811276 0.759370
vt 0.757377 0.775412
vt 0.752212 0.791089
vt 0.757377 0.775412
vt 0.791314 0.759370
vt 0.854267 0.820105
vt 0.748080 0.820105
vt 0.817808 0.806190
vt 0.877905 0.791089
vt 0.814861 0.775412
vt 0.831419 0.759370
vt 0.746743 0.806190
vt 0.724047 0.791089
vt 0.811276 0.759370
vt 0.787365 0.775412
vt 0.711833 0.820105
vt 0.751574 0.829463
vt 0.895071 0.806190
vt 0.850044 0.791089
vt 0.847613 0.759370
vt 0.845183 0.775412
vt 0.847613 0.759370
vt 0.875079 0.775412
vt 0.845183 0.775412
vt 0.831419 0.759370
vt 0.850773 0.829463
vt 0.850773 0.829463
vt 0.874654 0.829463
vt 0.751574 0.829463
vt 0.748080 0.820105
vt 0.746743 0.806190
vt 0.784509 0.820105
vt 0.784509 0.820105
vt 0.785420 0.791089
vt 0.817291 0.791089
vt 0.746743 0.806190
vt 0.784266 0.806190
vt 0.787365 0.775412
vt 0.791314 0.759370
vt 0.811276 0.759370
vt 0.787365 0.775412
vt 0.035274 0.732816
vt 0.157686 0.741930
vt 0.157686 0.741930
vt 0.159721 0.732846
vt 0.657084 0.211299
vt 0.061191 0.211177
vt 0.056907 0.192735
vt 0.676681 0.199237
vt 0.919529 0.405534
vt 0.990685 0.324534
vt 0.897896 0.405626
vt 0.909989 0.008647
vt 0.781896 0.743632
vt 0.760142 0.750650
vt 0.781896 0.743632
vt 0.776396 0.750650
vt 0.897896 0.373906
vt 0.517233 0.421698
vt 0.967776 0.569023
vt 0.146262 0.417141
vt 0.897896 0.492094
vt 0.919529 0.492155
vt 0.897896 0.459646
vt 0.476581 0.417141
vt 0.919529 0.373754
vt 0.897896 0.390586
vt 0.931773 0.567504
vt 0.727572 0.829463
vt 0.784326 0.829463
vt 0.751574 0.829463
vt 0.751574 0.829463
vt 0.817808 0.806190
vt 0.817291 0.791089
vt 0.850044 0.791089
vt 0.877905 0.791089
vt 0.746470 0.403073
vt 0.752212 0.791089
vt 0.792317 0.407752
vt 0.746743 0.806190
vt 0.041837 0.265683
vt 0.041837 0.283153
vt 0.670483 0.283153
vt 0.041837 0.225183
vt 0.771262 0.759370
vt 0.787365 0.775412
vt 0.757377 0.775412
vt 0.791314 0.759370
vt 0.784326 0.829463
vt 0.818203 0.829463
vt 0.855573 0.806190
vt 0.895071 0.806190
vt 0.724047 0.791089
vt 0.707489 0.806190
vt 0.670483 0.225183
vt 0.041837 0.245965
vt 0.811276 0.759370
vt 0.787365 0.775412
vt 0.818203 0.829463
vt 0.850773 0.829463
vt 0.711833 0.820105
vt 0.748080 0.820105
vt 0.752212 0.791089
vt 0.785420 0.791089
vt 0.670483 0.245965
vt 0.612179 0.717290
vt 0.814861 0.775412
vt 0.041837 0.265683
vt 0.817778 0.820105
vt 0.890483 0.820105
vt 0.854267 0.820105
vt 0.854267 0.820105
vt 0.784266 0.806190
vt 0.785420 0.791089
vt 0.850044 0.791089
vt 0.855573 0.806190
vt 0.918557 0.615326
vt 0.901998 0.615326
vt 0.663738 0.415409
vt 0.700622 0.407752
vt 0.041837 0.345802
vt 0.670483 0.345802
vt 0.670483 0.350299
vt 0.670483 0.265683
vt 0.771262 0.759370
vt 0.727602 0.775412
vt 0.757377 0.775412
vt 0.791314 0.759370
vt 0.380937 0.976697
vt 0.399318 0.975846
vt 0.381149 0.741019
vt 0.399318 0.741900
vt 0.339738 0.741930
vt 0.339525 0.975876
vt 0.357785 0.976757
vt 0.357968 0.741049
vt 0.811276 0.759370
vt 0.787365 0.775412
vt 0.791314 0.759370
vt 0.814861 0.775412
vt 0.751574 0.829463
vt 0.784326 0.829463
vt 0.784326 0.829463
vt 0.818203 0.829463
vt 0.877905 0.791089
vt 0.850044 0.791089
vt 0.855573 0.806190
vt 0.895071 0.806190
vt 0.519846 0.975876
vt 0.520028 0.741930
vt 0.216992 0.732816
vt 0.341470 0.732816
vt 0.831419 0.759370
vt 0.845183 0.775412
vt 0.818203 0.829463
vt 0.850773 0.829463
vt 0.711833 0.820105
vt 0.748080 0.820105
vt 0.538075 0.976757
vt 0.538227 0.741049
vt 0.219089 0.741900
vt 0.339738 0.741930
vt 0.811276 0.759370
vt 0.814861 0.775412
vt 0.874654 0.829463
vt 0.850773 0.829463
vt 0.748080 0.820105
vt 0.784509 0.820105
vt 0.339738 0.741930
vt 0.218876 0.975846
vt 0.219089 0.741900
vt 0.339525 0.975876
vt 0.200920 0.741019
vt 0.200707 0.976697
vt 0.218876 0.975846
vt 0.219089 0.741900
vt 0.791314 0.759370
vt 0.771262 0.759370
vt 0.757377 0.775412
vt 0.787365 0.775412
vt 0.854267 0.820105
vt 0.727572 0.829463
vt 0.890483 0.820105
vt 0.751574 0.829463
vt 0.850044 0.791089
vt 0.855573 0.806190
vt 0.817291 0.791089
vt 0.817808 0.806190
vt 0.874654 0.829463
vt 0.727572 0.829463
vt 0.850773 0.829463
vt 0.751574 0.829463
vt 0.817291 0.791089
vt 0.785420 0.791089
vt 0.784266 0.806190
vt 0.817808 0.806190
vt 0.855573 0.806190
vt 0.817291 0.791089
vt 0.850044 0.791089
vt 0.817808 0.806190
vt 0.700683 0.407752
vt 0.881642 0.717290
vt 0.663799 0.415409
vt 0.792378 0.407752
vt 0.041594 0.199085
vt 0.056907 0.192735
vt 0.041776 0.019372
vt 0.056907 0.192735
vt 0.751574 0.829463
vt 0.784326 0.829463
vt 0.817778 0.820105
vt 0.854267 0.820105
vt 0.850044 0.791089
vt 0.877905 0.791089
vt 0.746530 0.403073
vt 0.829293 0.415409
vt 0.057058 0.025752
vt 0.710983 0.941301
vt 0.818203 0.829463
vt 0.784326 0.829463
vt 0.854267 0.820105
vt 0.890483 0.820105
vt 0.855573 0.806190
vt 0.895071 0.806190
vt 0.854510 0.413160
vt 0.870096 0.406021
vt 0.710983 0.981254
vt 0.875444 0.941301
vt 0.784509 0.820105
vt 0.818203 0.829463
vt 0.817778 0.820105
vt 0.850773 0.829463
vt 0.784266 0.806190
vt 0.785420 0.791089
vt 0.752212 0.791089
vt 0.746743 0.806190
vt 0.670483 0.330611
vt 0.670483 0.309829
vt 0.041837 0.309829
vt 0.041837 0.330611
vt 0.918557 0.630700
vt 0.901998 0.646104
vt 0.901998 0.630700
vt 0.918557 0.646104
vt 0.661398 0.192856
vt 0.676681 0.199237
vt 0.041594 0.199085
vt 0.661398 0.192856
vt 0.771535 0.743632
vt 0.890483 0.759978
vt 0.874137 0.759978
vt 0.869063 0.751562
vt 0.895527 0.751531
vt 0.809301 0.750650
vt 0.793502 0.750650
vt 0.882280 0.746366
vt 0.808025 0.743632
vt 0.776396 0.750650
vt 0.781896 0.743632
vt 0.794991 0.743632
vt 0.793502 0.750650
vt 0.760142 0.750650
vt 0.771535 0.743632
vt 0.794991 0.743632
vt 0.776396 0.750650
vt 0.842813 0.750650
vt 0.826345 0.750650
vt 0.781896 0.743632
vt 0.831602 0.743632
vt 0.826345 0.750650
vt 0.809301 0.750650
vt 0.821089 0.743632
vt 0.821089 0.743632
vt 0.869063 0.751562
vt 0.890483 0.759978
vt 0.808025 0.743632
vt 0.874137 0.759978
vt 0.882280 0.746366
vt 0.776396 0.750650
vt 0.895527 0.751531
vt 0.760142 0.750650
vt 0.771535 0.743632
vt 0.826345 0.750650
vt 0.781896 0.743632
vt 0.821089 0.743632
vt 0.831602 0.743632
vt 0.809301 0.750650
vt 0.842813 0.750650
vt 0.808025 0.743632
vt 0.821089 0.743632
vt 0.809301 0.750650
vt 0.826345 0.750650
vt 0.793502 0.750650
vt 0.794991 0.743632
vt 0.793502 0.750650
vt 0.808025 0.743632
vt 0.776396 0.750650
vt 0.781896 0.743632
vt 0.959512 0.606211
vt 0.794991 0.743632
vt 0.974855 0.624654
vt 0.974886 0.670501
vt 0.984213 0.647562
vt 0.934143 0.647532
vt 0.934143 0.586098
vt 0.978623 0.585490
vt 0.918557 0.658469
vt 0.964039 0.593603
vt 0.918557 0.646104
vt 0.959543 0.688943
vt 0.978623 0.711335
vt 0.934143 0.710059
vt 0.041837 0.386636
vt 0.041837 0.330611
vt 0.670483 0.345802
vt 0.901998 0.646104
vt 0.978623 0.585490
vt 0.934143 0.586098
vt 0.964039 0.593603
vt 0.918557 0.666946
vt 0.901998 0.666946
vt 0.914971 0.672172
vt 0.901998 0.672172
vt 0.041837 0.367769
vt 0.670483 0.386636
vt 0.670483 0.367769
vt 0.935996 0.947803
vt 0.829232 0.415409
vt 0.870036 0.406021
vt 0.901998 0.588103
vt 0.897714 0.947803
vt 0.901998 0.666946
vt 0.914971 0.672172
vt 0.918557 0.666946
vt 0.901998 0.658469
vt 0.918557 0.594484
vt 0.974886 0.670501
vt 0.959512 0.606211
vt 0.974855 0.624654
vt 0.918557 0.658469
vt 0.901998 0.658469
vt 0.984213 0.647562
vt 0.934143 0.647532
vt 0.881642 0.717290
vt 0.854449 0.413160
vt 0.901998 0.594484
vt 0.914971 0.588103
vt 0.901998 0.588103
vt 0.918557 0.615326
vt 0.901998 0.602960
vt 0.901998 0.615326
vt 0.934143 0.710059
vt 0.918557 0.602960
vt 0.901998 0.602960
vt 0.914971 0.588103
vt 0.901998 0.594484
vt 0.918557 0.594484
vt 0.964070 0.701552
vt 0.918557 0.602960
vt 0.944625 0.973689
vt 0.670483 0.330611
vt 0.041837 0.345802
vt 0.959543 0.688943
vt 0.964070 0.701552
vt 0.978623 0.711335
vt 0.901998 0.672172
vt 0.897896 0.545234
vt 0.785116 0.029246
vt 0.919529 0.545385
vt 0.825768 0.024689
vt 0.931773 0.473440
vt 0.974491 0.426498
vt 0.979534 0.458886
vt 0.963705 0.405565
vt 0.944625 0.973689
vt 0.897714 0.973689
vt 0.944625 0.951783
vt 0.897896 0.528554
vt 0.919529 0.528675
vt 0.857822 0.015331
vt 0.941343 0.541375
vt 0.931773 0.567504
vt 0.670483 0.261187
vt 0.041837 0.301991
vt 0.041837 0.283153
vt 0.857822 0.015331
vt 0.670483 0.301991
vt 0.897714 0.947803
vt 0.041837 0.245965
vt 0.670483 0.245965
vt 0.041837 0.261187
vt 0.919529 0.390465
vt 0.931773 0.350117
vt 0.897896 0.390586
vt 0.967716 0.348567
vt 0.963735 0.512208
vt 0.974491 0.491274
vt 0.948666 0.392531
vt 0.941283 0.376215
vt 0.944625 0.951783
vt 0.670483 0.283153
vt 0.785116 0.029246
vt 0.919529 0.343189
vt 0.717788 0.013630
vt 0.705301 0.324534
vt 0.948696 0.525060
vt 0.935996 0.947803
vt 0.825768 0.024689
vt 0.919529 0.373754
vt 0.897896 0.373906
vt 0.906343 0.343281
vt 0.897896 0.560759
vt 0.906373 0.575859
vt 0.919529 0.560972
vt 0.967776 0.569023
vt 0.947815 0.556597
vt 0.919529 0.575981
vt 0.990685 0.005517
vt 0.909989 0.008647
vt 0.990685 0.005517
vt 0.990685 0.324534
vt 0.897714 0.973689
vt 0.897896 0.459646
vt 0.963705 0.405565
vt 0.919529 0.427167
vt 0.919529 0.513757
vt 0.705301 0.324534
vt 0.747199 0.025114
vt 0.717788 0.013630
vt 0.897896 0.513666
vt 0.897896 0.492094
vt 0.919529 0.459646
vt 0.919529 0.492155
vt 0.948666 0.392531
vt 0.897896 0.427197
vt 0.941343 0.541375
vt 0.931773 0.473440
vt 0.974491 0.491274
vt 0.919529 0.575981
vt 0.897896 0.545234
vt 0.919529 0.545385
vt 0.067723 0.417596
vt 0.906373 0.575859
vt 0.897896 0.560759
vt 0.948696 0.525060
vt 0.919529 0.560972
vt 0.947815 0.556597
vt 0.963735 0.512208
vt 0.919529 0.358168
vt 0.919529 0.390465
vt 0.897896 0.358381
vt 0.906343 0.343281
vt 0.311209 0.716986
vt 0.919529 0.405534
vt 0.897896 0.405626
vt 0.919529 0.427167
vt 0.897896 0.427197
vt 0.919529 0.459646
vt 0.967716 0.348567
vt 0.947754 0.360994
vt 0.919529 0.343189
vt 0.931773 0.350117
vt 0.178315 0.407783
vt 0.025825 0.716986
vt 0.230482 0.401099
vt 0.311209 0.397969
vt 0.391905 0.401099
vt 0.919529 0.513757
vt 0.660092 0.975876
vt 0.576145 0.975846
vt 0.897896 0.513666
vt 0.897896 0.528554
vt 0.919529 0.528675
vt 0.444072 0.407783
vt 0.555151 0.417596
vt 0.941283 0.376215
vt 0.584561 0.406081
vt 0.597048 0.716986
vt 0.660578 0.984991
vt 0.660092 0.975876
vt 0.576145 0.741900
vt 0.660365 0.741930
vt 0.576145 0.741900
vt 0.660365 0.741930
vt 0.573714 0.984869
vt 0.576145 0.975846
vt 0.520028 0.741930
vt 0.399318 0.741900
vt 0.399318 0.975846
vt 0.519846 0.975876
vt 0.557794 0.976727
vt 0.558037 0.741019
vt 0.576145 0.975846
vt 0.576145 0.741900
vt 0.660092 0.975876
vt 0.660365 0.741930
vt 0.396857 0.732846
vt 0.521365 0.732785
vt 0.399318 0.741900
vt 0.521122 0.985021
vt 0.519846 0.975876
vt 0.396614 0.984869
vt 0.399318 0.975846
vt 0.520028 0.741930
vt 0.216749 0.984900
vt 0.218876 0.975846
vt 0.341227 0.984991
vt 0.339525 0.975876
vt 0.831419 0.759370
vt 0.847613 0.759370
vt 0.845183 0.775412
vt 0.875079 0.775412
vt 0.771262 0.759370
vt 0.757377 0.775412
vt 0.755189 0.759370
vt 0.727602 0.775412
vt 0.784509 0.820105
vt 0.817778 0.820105
vt 0.854267 0.820105
vt 0.817778 0.820105
vt 0.817291 0.791089
vt 0.817808 0.806190
vt 0.785420 0.791089
vt 0.784266 0.806190
vt 0.707489 0.806190
vt 0.746743 0.806190
vt 0.752212 0.791089
vt 0.784266 0.806190
vt 0.785420 0.791089
vt 0.814861 0.775412
vt 0.811276 0.759370
vt 0.831419 0.759370
vt 0.814861 0.775412
vt 0.784326 0.829463
vt 0.818203 0.829463
vt 0.784326 0.829463
vt 0.818203 0.829463
vt 0.855573 0.806190
vt 0.724047 0.791089
vt 0.752212 0.791089
vt 0.707489 0.806190
vt 0.875079 0.775412
vt 0.785420 0.791089
vt 0.784266 0.806190
vt 0.752212 0.791089
vt 0.727602 0.775412
vt 0.771262 0.759370
vt 0.791314 0.759370
vt 0.757377 0.775412
vt 0.874654 0.829463
vt 0.757377 0.775412
vt 0.850773 0.829463
vt 0.755189 0.759370
vt 0.771262 0.759370
vt 0.748080 0.820105
vt 0.784509 0.820105
vt 0.784509 0.820105
vt 0.817778 0.820105
vt 0.746743 0.806190
vt 0.784266 0.806190
vt 0.817291 0.791089
vt 0.817808 0.806190
vt 0.638520 0.413160
vt 0.619501 0.406021
vt 0.901998 0.630700
vt 0.918557 0.630700
vt 0.670483 0.265683
vt 0.041837 0.261187
vt 0.670483 0.261187
vt 0.041837 0.350299
vt 0.847613 0.759370
vt 0.845183 0.775412
vt 0.875079 0.775412
vt 0.755189 0.759370
vt 0.831419 0.759370
vt 0.814861 0.775412
vt 0.845183 0.775412
vt 0.831419 0.759370
vt 0.811276 0.759370
vt 0.711833 0.820105
vt 0.748080 0.820105
vt 0.784509 0.820105
vt 0.748080 0.820105
vt 0.752212 0.791089
vt 0.746743 0.806190
vt 0.724047 0.791089
vt 0.707489 0.806190
vt 0.670483 0.350299
vt 0.670483 0.367769
vt 0.041837 0.350299
vt 0.041837 0.367769
vt 0.875444 0.981254
vt 0.612179 0.717290
vt 0.619562 0.406021
vt 0.638581 0.413160
vt 0.661550 0.025904
vt 0.676833 0.019524
vt 0.676681 0.199237
vt 0.661550 0.025904
vt 0.041776 0.019372
vt 0.676833 0.019524
vt 0.013277 0.026086
vt 0.057058 0.025752
vt 0.041776 0.019372
vt 0.705180 0.192522
vt 0.676681 0.199237
vt 0.013125 0.192370
vt 0.676833 0.019524
vt 0.705332 0.026238
vt 0.041594 0.199085
vt 0.661398 0.192856
vt 0.041594 0.199085
vt 0.661550 0.025904
vt 0.676833 0.019524
vt 0.041776 0.019372
vt 0.057058 0.025752
vt 0.707610 0.932642
vt 0.061373 0.007310
vt 0.657236 0.007431
vt 0.962520 0.861486
vt 0.962520 0.932642
vt 0.707610 0.861486
vt 0.036793 0.975846
vt 0.157686 0.741930
vt 0.157473 0.975876
vt 0.037006 0.741900
vt 0.159478 0.984991
vt 0.037006 0.741900
vt 0.157473 0.975876
vt 0.035031 0.984930
vt 0.036793 0.975846
vt 0.175702 0.976757
vt 0.175885 0.741080
vt 0.018837 0.741019
vt 0.018625 0.976727
vt 0.037006 0.741900
vt 0.157473 0.975876
vt 0.036793 0.975846
vn 0.000000 -1.000000 0.000000
vn 0.000000 -1.000000 0.000000
vn 0.000000 -1.000000 0.000000
vn 0.000000 -1.000000 0.000000
vn 0.000000 -1.000000 0.000000
vn 1.000000 -0.000875 0.000000
vn 0.000000 0.008894 0.999960
vn 1.000000 -0.000875 0.000000
vn 0.000000 0.008894 0.999960
vn 0.000000 0.008894 0.999960
vn 0.000000 -0.011615 -0.999933
vn 0.000000 0.008894 0.999960
vn 0.000000 -0.011615 -0.999933
vn -0.999999 0.001652 0.000000
vn -0.999999 0.001652 0.000000
vn -0.999999 0.001652 0.000000
vn -0.999999 0.001652 0.000000
vn 0.000000 -1.000000 0.000000
vn 0.000000 -1.000000 0.000000
vn 0.000000 -1.000000 0.000000
vn 0.000000 -1.000000 0.000000
vn 0.999999 0.001652 0.000000
vn 0.999999 0.001652 0.000000
vn 0.000000 -1.000000 0.000000
vn 0.999999 0.001652 0.000000
vn -1.000000 -0.000875 0.000000
vn -1.000000 -0.000875 0.000000
vn 0.999999 0.001652 0.000000
vn 0.000000 0.008942 -0.999960
vn 0.000000 0.008942 -0.999960
vn 0.000000 0.008942 -0.999960
vn 0.000000 0.008942 -0.999960
vn 0.000000 -0.011615 0.999933
vn 0.000000 -1.000000 0.000000
vn 0.000000 -1.000000 0.000000
vn 0.000000 -0.011615 0.999933
vn 0.000000 -1.000000 0.000000
vn 0.000000 -1.000000 0.000000
vn 0.615920 -0.035383 -0.787014
vn 0.000000 -1.000000 0.000000
vn 0.610726 -0.138339 -0.779664
vn 0.590971 -0.290048 -0.752745
vn 0.955195 -0.082370 0.284284
vn 0.590433 -0.289350 -0.753436
vn 0.911089 -0.309774 0.271950
vn 0.911043 -0.308708 0.273313
vn 0.002154 -0.025687 0.999668
vn 0.956361 -0.063862 0.285122
vn 0.002412 -0.367665 0.929955
vn 0.003308 -0.368338 0.929686
vn -0.950416 -0.119262 0.287203
vn 0.002336 -0.167254 0.985911
vn -0.952433 -0.100813 0.287589
vn -0.900406 -0.338550 0.273227
vn -0.617667 -0.060616 -0.784100
vn -0.900416 -0.339102 0.272509
vn -0.610951 -0.161132 -0.775097
vn -0.589555 -0.307833 -0.746769
vn 0.000000 -1.000000 0.000000
vn -0.588992 -0.308317 -0.747014
vn 0.000000 -1.000000 0.000000
vn 0.000000 -1.000000 0.000000
vn 0.000000 -1.000000 0.000000
vn 0.000000 -1.000000 0.000000
vn 0.590971 -0.290048 -0.752745
vn 0.615920 -0.035383 -0.787014
vn 0.610726 -0.138339 -0.779664
vn 0.995403 -0.004343 0.095680
vn 0.995358 -0.004264 0.096147
vn 0.000000 0.997390 0.072202
vn 0.000000 0.997390 0.072202
vn 0.590433 -0.289350 -0.753436
vn 0.911089 -0.309774 0.271950
vn 0.002336 -0.167254 0.985911
vn 0.956361 -0.063862 0.285122
vn 0.955195 -0.082370 0.284284
vn 0.911043 -0.308708 0.273313
vn 0.002412 -0.367665 0.929955
vn 0.002154 -0.025687 0.999668
vn -0.000155 -0.013725 0.999906
vn 0.000000 0.000000 -1.000000
vn 0.010033 -0.012814 0.999868
vn 0.000000 0.000000 -1.000000
vn 0.003308 -0.368338 0.929686
vn -0.952433 -0.100813 0.287589
vn -0.900416 -0.339102 0.272509
vn -0.950416 -0.119262 0.287203
vn 0.951429 -0.120575 0.283273
vn 0.592449 -0.276029 -0.756843
vn 0.611887 -0.117486 -0.782171
vn 0.613954 -0.089517 -0.784249
vn -0.605512 -0.205014 -0.768977
vn 0.442494 0.696681 -0.564654
vn -0.612904 -0.149610 -0.775864
vn -0.602139 -0.234968 -0.763033
vn 0.001806 0.325399 0.945575
vn 0.001732 0.492737 0.870177
vn -0.872382 0.411997 0.263073
vn 0.893173 0.362294 0.266431
vn 0.001461 -0.113914 0.993490
vn 0.001746 -0.166924 0.985968
vn -0.952920 -0.094849 0.288006
vn 0.001759 -0.136772 0.990601
vn 0.941462 -0.186744 0.280671
vn 0.002038 -0.036868 0.999318
vn 0.953910 -0.096503 0.284153
vn 0.934469 -0.222029 0.278336
vn 0.612620 -0.113845 -0.782136
vn -0.620023 0.022120 -0.784272
vn -0.620070 -0.019896 -0.784295
vn -0.938639 -0.198533 0.282032
vn 0.874377 0.409321 0.260615
vn 0.581457 0.332637 -0.742469
vn 0.001747 -0.191270 0.981536
vn 0.952838 -0.106753 0.284084
vn 0.951429 -0.120575 0.283273
vn 0.611887 -0.117486 -0.782171
vn -0.612168 -0.158238 -0.774733
vn -0.597057 -0.269594 -0.755541
vn -0.931684 -0.230768 0.280554
vn -0.954966 -0.072573 0.287705
vn 0.537789 0.488764 -0.686945
vn -0.443624 0.697921 -0.562231
vn 0.935273 -0.217615 0.279120
vn 0.950669 -0.126032 0.283452
vn 0.592449 -0.276029 -0.756843
vn 0.613954 -0.089517 -0.784249
vn 0.941462 -0.186744 0.280671
vn 0.953910 -0.096503 0.284153
vn 0.002038 -0.036868 0.999318
vn 0.934469 -0.222029 0.278336
vn 0.702270 0.680398 0.209465
vn 0.001373 0.708542 0.705667
vn 0.702481 0.680072 0.209815
vn 0.442453 0.696386 -0.565050
vn -0.584403 0.334142 -0.739475
vn 0.608558 -0.163576 -0.776466
vn -0.540072 0.490676 -0.683782
vn -0.891284 0.364913 0.269167
vn -0.951528 -0.109980 0.287228
vn -0.948861 -0.132640 0.286478
vn -0.609313 -0.183520 -0.771400
vn -0.925989 -0.253303 0.279968
vn -0.952800 -0.098790 0.287075
vn 0.002363 -0.206698 0.978402
vn 0.002196 -0.245268 0.969453
vn 0.002227 -0.176400 0.984316
vn 0.995404 0.000752 0.095761
vn 0.995404 0.000752 0.095761
vn 0.000000 0.994423 0.105469
vn 0.995419 0.000774 0.095602
vn 0.000000 -0.434881 -0.900488
vn 0.000000 -0.434881 -0.900488
vn 0.000000 1.000000 0.000000
vn 0.000000 -0.434881 -0.900488
vn 0.397695 -0.917518 0.000000
vn 0.001116 -0.013114 -0.999913
vn 0.315211 -0.949021 0.000000
vn 0.001868 -0.012621 -0.999919
vn -0.900406 -0.338550 0.273227
vn -0.610951 -0.161132 -0.775097
vn -0.588992 -0.308317 -0.747014
vn -0.617667 -0.060616 -0.784100
vn -0.062785 -0.998027 0.000000
vn 0.000155 -0.013725 0.999906
vn -0.206126 -0.283305 -0.936617
vn -0.005596 -0.014620 0.999877
vn -0.175740 -0.984437 0.000000
vn -0.120628 -0.992698 0.000000
vn -0.025975 -0.999663 0.000000
vn 0.001036 -0.013372 0.999910
vn 0.083468 -0.996510 0.000000
vn 0.308561 -0.951205 0.000000
vn -0.050063 -0.068807 -0.996373
vn -0.443624 0.697921 -0.562231
vn -0.698651 0.683674 0.210896
vn -0.443440 0.696503 -0.564132
vn -0.698955 0.683206 0.211404
vn 0.955741 -0.072281 0.285191
vn 0.950669 -0.126032 0.283452
vn 0.612003 -0.115352 -0.782398
vn 0.610753 -0.136228 -0.780015
vn -1.000000 0.000000 0.000000
vn -0.620019 0.022380 -0.784268
vn -0.999996 -0.002682 -0.000320
vn -0.612404 -0.158267 -0.774540
vn -0.165329 -0.011599 -0.986170
vn 0.000000 -0.011615 -0.999933
vn 0.000000 -0.011615 -0.999933
vn 0.000000 0.008894 0.999960
vn 0.934469 -0.222029 0.278336
vn 0.953910 -0.096503 0.284153
vn 0.951429 -0.120575 0.283273
vn 0.611887 -0.117486 -0.782171
vn 0.001398 0.708569 0.705640
vn 0.001373 0.708542 0.705667
vn 0.610568 -0.139609 -0.779562
vn 0.608558 -0.163576 -0.776466
vn -0.597297 -0.269253 -0.755473
vn -0.609733 -0.183456 -0.771083
vn 0.000000 0.008894 0.999960
vn 0.000000 0.008894 0.999960
vn 0.592449 -0.276029 -0.756843
vn 0.613954 -0.089517 -0.784249
vn 0.726405 0.639671 0.251310
vn 0.768668 0.542809 0.338391
vn -0.584633 0.333831 -0.739433
vn -0.540200 0.490310 -0.683944
vn -0.951597 -0.109319 0.287249
vn -0.948983 -0.132262 0.286247
vn 0.000000 0.008894 0.999960
vn -0.999996 -0.002681 -0.000027
vn 0.612620 -0.113845 -0.782136
vn 0.164388 -0.011600 -0.986328
vn 0.874377 0.409321 0.260615
vn 0.581457 0.332637 -0.742469
vn 0.897783 0.339124 0.281036
vn 0.533174 0.474128 -0.700663
vn 0.001747 -0.191270 0.981536
vn 0.001759 -0.136772 0.990601
vn 0.952838 -0.106753 0.284084
vn 0.935273 -0.217615 0.279120
vn 0.000000 -0.958312 0.285725
vn 0.000000 -0.958312 0.285725
vn -0.999996 -0.002773 0.000483
vn -0.999996 -0.002670 0.000103
vn -0.986401 -0.002772 0.164335
vn -0.986961 -0.002733 0.160934
vn -0.165329 -0.011599 0.986170
vn -0.166280 -0.011598 -0.986010
vn 0.002196 -0.245268 0.969453
vn 0.002227 -0.176400 0.984316
vn 0.002038 -0.036868 0.999318
vn 0.941462 -0.186744 0.280671
vn 0.000000 -0.994561 0.104160
vn 0.000000 -0.994561 0.104160
vn 0.000000 -0.994561 0.104160
vn 0.000000 -0.994561 0.104160
vn 0.000000 0.994579 0.103986
vn 0.000000 0.994579 0.103986
vn 0.000000 0.994579 0.103986
vn 0.000000 0.994579 0.103986
vn 0.002196 -0.245268 0.969453
vn 0.002227 -0.176400 0.984316
vn 0.002363 -0.206698 0.978402
vn 0.002038 -0.036868 0.999318
vn -0.698955 0.683206 0.211404
vn 0.001398 0.708569 0.705640
vn -0.698651 0.683674 0.210896
vn 0.001373 0.708542 0.705667
vn 0.610753 -0.136228 -0.780015
vn 0.612003 -0.115352 -0.782398
vn 0.610568 -0.139609 -0.779562
vn 0.608558 -0.163576 -0.776466
vn 0.000000 0.994423 0.105469
vn 0.000000 0.994423 0.105469
vn 0.995387 -0.000965 0.095941
vn 0.995404 -0.000990 0.095760
vn 0.941462 -0.186744 0.280671
vn 0.953910 -0.096503 0.284153
vn 0.702270 0.680398 0.209465
vn 0.702481 0.680072 0.209815
vn -0.584403 0.334142 -0.739475
vn -0.540072 0.490676 -0.683782
vn 0.000000 0.994423 0.105469
vn 0.000000 0.994423 0.105469
vn 0.995404 -0.000990 0.095760
vn 0.995422 -0.001016 0.095575
vn 0.934469 -0.222029 0.278336
vn 0.951429 -0.120575 0.283273
vn 0.442453 0.696386 -0.565050
vn 0.442494 0.696681 -0.564654
vn -0.891284 0.364913 0.269167
vn -0.872382 0.411997 0.263073
vn 0.000000 -0.010627 0.999944
vn 0.000000 -0.010627 0.999944
vn 0.000000 -0.010627 0.999944
vn 0.000000 -0.010627 0.999944
vn 0.000000 -0.994561 0.104160
vn 0.000000 -0.994561 0.104160
vn 0.000000 -0.994561 0.104160
vn 0.000000 -0.994561 0.104160
vn -0.931684 -0.230768 0.280554
vn -0.938639 -0.198533 0.282032
vn -0.954966 -0.072573 0.287705
vn -0.952800 -0.098790 0.287075
vn 0.537789 0.488764 -0.686945
vn -0.443624 0.697921 -0.562231
vn 0.581457 0.332637 -0.742469
vn -0.443440 0.696503 -0.564132
vn 0.952838 -0.106753 0.284084
vn 0.935273 -0.217615 0.279120
vn 0.950669 -0.126032 0.283452
vn 0.955741 -0.072281 0.285191
vn -0.698651 0.683674 0.210896
vn 0.001398 0.708569 0.705640
vn -0.698955 0.683206 0.211404
vn 0.001373 0.708542 0.705667
vn 0.610753 -0.136228 -0.780015
vn 0.612003 -0.115352 -0.782398
vn 0.610568 -0.139609 -0.779562
vn 0.608558 -0.163576 -0.776466
vn -0.612404 -0.158267 -0.774540
vn -0.597297 -0.269253 -0.755473
vn -0.620019 0.022380 -0.784268
vn -0.609733 -0.183456 -0.771083
vn 0.999996 -0.002719 0.000105
vn 0.999996 -0.002727 0.000022
vn 0.999996 -0.002825 0.000492
vn 0.999996 -0.002731 -0.000326
vn -0.860091 0.510140 0.000000
vn 0.000000 0.332396 -0.943140
vn -0.860091 0.510140 0.000000
vn -0.860091 0.510140 0.000000
vn 0.702270 0.680398 0.209465
vn 0.702481 0.680072 0.209815
vn -0.584633 0.333831 -0.739433
vn -0.540200 0.490310 -0.683944
vn -0.951597 -0.109319 0.287249
vn -0.948983 -0.132262 0.286247
vn 1.000000 0.000000 0.000000
vn 0.999996 -0.002825 -0.000492
vn -0.860091 0.510140 0.000000
vn 0.000000 -1.000000 0.000000
vn 0.442453 0.696386 -0.565050
vn 0.442494 0.696681 -0.564654
vn -0.891530 0.364466 0.268959
vn -0.872382 0.411997 0.263073
vn -0.926136 -0.253381 0.279412
vn -0.953049 -0.095222 0.287456
vn 0.999996 -0.002706 0.001248
vn 0.999994 -0.002653 0.002430
vn 0.000000 -1.000000 0.000000
vn 0.000000 -1.000000 0.000000
vn 0.537789 0.488764 -0.686945
vn -0.443624 0.697921 -0.562231
vn 0.581457 0.332637 -0.742469
vn -0.443440 0.696503 -0.564132
vn 0.935273 -0.217615 0.279120
vn 0.952838 -0.106753 0.284084
vn 0.950669 -0.126032 0.283452
vn 0.955741 -0.072281 0.285191
vn 0.000000 0.008942 -0.999960
vn 0.000000 0.008942 -0.999960
vn 0.000000 0.008942 -0.999960
vn 0.000000 0.008942 -0.999960
vn 0.000000 -0.997700 -0.067783
vn 0.000000 -0.958312 -0.285725
vn 0.000000 -0.997701 0.067768
vn 0.000000 -0.958312 -0.285725
vn 0.859551 0.511051 0.000000
vn 0.000000 0.332396 -0.943140
vn 0.000000 0.332396 -0.943140
vn 0.000000 0.332396 -0.943140
vn -0.589555 -0.307833 -0.746769
vn 0.000000 -1.000000 0.000000
vn 0.000000 -1.000000 0.000000
vn 0.000000 -1.000000 0.000000
vn 0.000000 -1.000000 0.000000
vn 0.615920 -0.035383 -0.787014
vn 0.610726 -0.138339 -0.779664
vn 0.000000 -1.000000 0.000000
vn 0.590433 -0.289350 -0.753436
vn 0.955195 -0.082370 0.284284
vn 0.911089 -0.309774 0.271950
vn 0.590971 -0.290048 -0.752745
vn 0.956361 -0.063862 0.285122
vn 0.002154 -0.025687 0.999668
vn 0.002412 -0.367665 0.929955
vn 0.911043 -0.308708 0.273313
vn 0.002336 -0.167254 0.985911
vn -0.950416 -0.119262 0.287203
vn -0.952433 -0.100813 0.287589
vn 0.003308 -0.368338 0.929686
vn -0.900416 -0.339102 0.272509
vn -0.617667 -0.060616 -0.784100
vn -0.610951 -0.161132 -0.775097
vn -0.900406 -0.338550 0.273227
vn -0.588992 -0.308317 -0.747014
vn 0.000000 -1.000000 0.000000
vn 0.000000 -1.000000 0.000000
vn -0.589555 -0.307833 -0.746769
vn 0.000000 -1.000000 0.000000
vn 0.000000 -1.000000 0.000000
vn 0.615920 -0.035383 -0.787014
vn 0.000000 -1.000000 0.000000
vn 0.610726 -0.138339 -0.779664
vn 0.590971 -0.290048 -0.752745
vn 0.955195 -0.082370 0.284284
vn 0.590433 -0.289350 -0.753436
vn 0.911089 -0.309774 0.271950
vn 0.911043 -0.308708 0.273313
vn 0.002154 -0.025687 0.999668
vn 0.956361 -0.063862 0.285122
vn 0.002412 -0.367665 0.929955
vn 0.003308 -0.368338 0.929686
vn -0.950416 -0.119262 0.287203
vn 0.002336 -0.167254 0.985911
vn -0.952433 -0.100813 0.287589
vn -0.900406 -0.338550 0.273227
vn -0.617667 -0.060616 -0.784100
vn -0.900416 -0.339102 0.272509
vn -0.610951 -0.161132 -0.775097
vn -0.589555 -0.307833 -0.746769
vn -1.000000 0.000000 0.000000
vn -0.588992 -0.308317 -0.747014
vn -1.000000 0.000000 0.000000
vn -1.000000 0.000000 0.000000
vn -1.000000 0.000000 0.000000
vn -1.000000 0.000000 0.000000
vn -0.999252 -0.017361 -0.034545
vn -0.967237 -0.113999 -0.226840
vn 0.000000 -0.966885 -0.255212
vn -0.992991 -0.053070 -0.105601
vn 0.000000 -0.958312 -0.285725
vn 1.000000 0.000000 0.000000
vn 0.975314 -0.109200 0.191933
vn 0.999272 -0.018860 0.033149
vn -0.999999 0.001652 0.000000
vn 1.000000 -0.000875 0.000000
vn 0.963637 -0.003946 0.267185
vn 0.000000 -0.958312 -0.285725
vn 0.967237 -0.113999 -0.226840
vn 0.999252 -0.017361 -0.034545
vn 0.992991 -0.053070 -0.105601
vn 0.000000 -0.908118 0.418713
vn 0.000000 -0.914816 0.403871
vn 0.000000 -0.737454 0.675398
vn 0.000000 -0.737454 0.675398
vn -0.999999 0.001652 0.000000
vn -0.999999 0.001652 0.000000
vn -0.999999 0.001652 0.000000
vn 0.000000 -1.000000 0.000000
vn -0.999996 -0.002774 -0.000483
vn -0.999994 -0.002605 0.002386
vn 0.000000 -0.799538 -0.600616
vn 0.000000 -1.000000 0.000000
vn 0.000000 -0.870287 0.492545
vn 0.000000 -0.737454 0.675398
vn 0.000000 -0.942813 0.333322
vn 0.000000 -0.997414 -0.071867
vn 0.000000 -0.947973 -0.318352
vn 1.000000 0.000000 0.000000
vn 1.000000 0.000000 0.000000
vn 1.000000 0.000000 0.000000
vn 0.000000 -0.997414 -0.071867
vn 0.000000 -0.966885 -0.255212
vn 1.000000 0.000000 0.000000
vn 1.000000 0.000000 0.000000
vn -0.999996 -0.002677 0.000021
vn -0.999996 -0.002657 0.001225
vn 0.000000 -0.891807 -0.452416
vn 0.000000 -0.799538 -0.600616
vn 0.000000 -0.799538 -0.600616
vn 0.000000 -0.966759 0.255691
vn 0.000000 -0.997416 0.071842
vn 0.000000 -0.948392 0.317099
vn -0.999272 -0.018860 0.033149
vn 0.000000 -0.966866 0.255286
vn 0.000000 -0.997416 0.071842
vn 0.000000 -0.799538 -0.600616
vn 0.000000 -0.891800 -0.452431
vn 0.000000 -0.947973 -0.318352
vn 0.993799 -0.054987 0.096648
vn 0.000000 -0.966866 0.255286
vn 0.000000 -1.000000 0.000000
vn 1.000000 -0.000875 0.000000
vn 0.995834 -0.001930 0.091159
vn -1.000000 0.000000 0.000000
vn -0.993799 -0.054987 0.096648
vn -0.975314 -0.109200 0.191933
vn 0.000000 -0.737454 0.675398
vn 0.062802 -0.998026 0.000000
vn -0.000033 -0.013596 -0.999908
vn -0.083510 -0.996507 0.000000
vn -0.004691 -0.012257 -0.999914
vn 0.000000 0.000000 1.000000
vn 0.000000 0.000000 1.000000
vn 0.000000 0.000000 1.000000
vn 0.000000 0.000000 1.000000
vn 0.000000 -1.000000 0.000000
vn 0.000000 -1.000000 0.000000
vn 0.000000 -1.000000 0.000000
vn -0.357480 -0.933921 0.000000
vn -0.357480 -0.933921 0.000000
vn 0.004603 -0.012148 -0.999916
vn 0.000000 0.000000 1.000000
vn -0.050066 -0.068812 0.996373
vn -0.963637 -0.003946 -0.267185
vn 0.999999 0.001652 0.000000
vn 0.999999 0.001652 0.000000
vn -0.004626 -0.012143 -0.999916
vn 0.999999 0.001652 0.000000
vn 0.000000 -1.000000 0.000000
vn -1.000000 -0.000875 0.000000
vn -1.000000 -0.000875 0.000000
vn -0.995831 -0.001930 -0.091198
vn 0.308561 -0.951205 0.000000
vn 0.025745 -0.144513 0.989168
vn 0.402996 -0.915202 0.000000
vn 0.052797 -0.296358 0.953617
vn 0.000000 0.000000 1.000000
vn 0.000000 0.000000 1.000000
vn 0.000000 0.000000 1.000000
vn 0.018549 -0.104116 0.994392
vn 0.000000 -1.000000 0.000000
vn 0.999999 0.001652 0.000000
vn -0.002744 -0.013385 -0.999907
vn -0.420857 -0.907127 0.000000
vn -0.006005 -0.012944 -0.999898
vn -0.000759 -0.013503 -0.999909
vn 0.000000 0.000000 1.000000
vn 0.000000 -1.000000 0.000000
vn 0.001040 -0.013423 -0.999909
vn -0.257722 -0.966219 0.000000
vn -0.087398 -0.996173 0.000000
vn -0.420857 -0.907127 0.000000
vn 0.420857 -0.907127 0.000000
vn 0.616485 -0.787367 0.000000
vn 0.391135 -0.920333 0.000000
vn -0.206126 -0.283305 0.936617
vn -0.119317 -0.163991 0.979219
vn 0.616485 -0.787367 0.000000
vn -0.000992 -0.012732 -0.999918
vn -0.001868 -0.012620 -0.999919
vn 0.000993 -0.012732 -0.999918
vn -0.001276 -0.013196 -0.999912
vn 0.000000 -1.000000 0.000000
vn 0.000000 -1.000000 0.000000
vn 0.000000 0.000000 -1.000000
vn 0.146417 -0.989223 0.000000
vn -0.400327 -0.916373 0.000000
vn 0.001208 -0.013634 -0.999906
vn 0.006097 -0.013141 -0.999895
vn 0.010071 -0.012862 -0.999867
vn -0.316164 -0.948705 0.000000
vn -0.146384 -0.989228 0.000000
vn 0.000000 -1.000000 0.000000
vn -0.146384 -0.989228 0.000000
vn 0.000000 0.000000 -1.000000
vn 0.146417 -0.989223 0.000000
vn 0.000000 0.000000 -1.000000
vn 0.000000 0.000000 -1.000000
vn 0.000000 0.000000 -1.000000
vn 0.616485 -0.787367 0.000000
vn -0.083510 -0.996507 0.000000
vn 0.062802 -0.998026 0.000000
vn 0.006074 -0.013091 0.999896
vn 0.616485 -0.787367 0.000000
vn 0.350975 -0.936385 0.000000
vn 0.000000 0.000000 -1.000000
vn 0.462248 -0.886750 0.000000
vn -0.119317 -0.163991 -0.979219
vn 0.000000 0.000000 -1.000000
vn -0.391135 -0.920333 0.000000
vn 0.402996 -0.915202 0.000000
vn -0.420857 -0.907127 0.000000
vn -0.616485 -0.787367 0.000000
vn 0.000280 -0.012994 0.999916
vn 0.315211 -0.949021 0.000000
vn 0.397695 -0.917518 0.000000
vn 0.146417 -0.989223 0.000000
vn 0.146417 -0.989223 0.000000
vn 0.025978 -0.999663 0.000000
vn 0.206250 -0.283157 -0.936634
vn 0.119370 -0.163881 -0.979231
vn -0.616485 -0.787367 0.000000
vn 0.049519 -0.067984 -0.996457
vn -0.001142 -0.013150 0.999913
vn 0.000107 -0.013327 0.999911
vn -0.001861 -0.012573 0.999919
vn -0.000000 -0.012684 0.999920
vn 0.001861 -0.012573 0.999919
vn -0.355981 -0.934493 0.000000
vn 0.000000 -0.046411 0.998922
vn 0.000000 -0.046411 0.998922
vn -0.355981 -0.934493 0.000000
vn -0.406040 -0.913855 0.000000
vn -0.309839 -0.950789 0.000000
vn 0.004585 -0.012102 0.999916
vn -0.006074 -0.013091 0.999896
vn 0.000000 0.000000 -1.000000
vn -0.010033 -0.012814 0.999868
vn -0.000758 -0.013488 0.999909
vn -0.995403 -0.004343 0.095680
vn -0.995448 -0.004423 0.095203
vn 0.000000 -0.046411 0.998922
vn 0.000000 -0.046411 0.998922
vn 0.995403 -0.004343 0.095680
vn 0.995448 -0.004423 0.095203
vn -0.995358 -0.004264 0.096147
vn -0.995403 -0.004343 0.095680
vn 0.000000 -0.032380 0.999476
vn 0.000000 -0.032380 0.999476
vn 0.000000 -0.032380 0.999476
vn 0.000000 -0.032380 0.999476
vn 0.000000 -0.997372 0.072444
vn 0.000000 -0.997372 0.072444
vn 0.000000 -0.997372 0.072444
vn 0.000000 -0.997372 0.072444
vn 0.000000 0.997390 0.072202
vn 0.000000 0.997390 0.072202
vn 0.995363 -0.002972 0.096149
vn 0.995408 -0.003028 0.095677
vn 0.995408 -0.003028 0.095677
vn -0.995408 -0.003028 0.095677
vn -0.995454 -0.003084 0.095196
vn -0.995363 -0.002972 0.096149
vn -0.995408 -0.003028 0.095677
vn 0.995454 -0.003084 0.095196
vn -0.995387 -0.000965 0.095941
vn -0.995404 -0.000990 0.095760
vn -0.995404 -0.000990 0.095760
vn -0.995422 -0.001016 0.095575
vn 0.611887 -0.117486 -0.782171
vn 0.592449 -0.276029 -0.756843
vn 0.613954 -0.089517 -0.784249
vn 0.612620 -0.113845 -0.782136
vn -0.605512 -0.205014 -0.768977
vn -0.612904 -0.149610 -0.775864
vn -0.602139 -0.234968 -0.763033
vn -0.620070 -0.019896 -0.784295
vn 0.001806 0.325399 0.945575
vn 0.001732 0.492737 0.870177
vn 0.893173 0.362294 0.266431
vn 0.874377 0.409321 0.260615
vn 0.001461 -0.113914 0.993490
vn 0.001746 -0.166924 0.985968
vn 0.001759 -0.136772 0.990601
vn 0.001747 -0.191270 0.981536
vn -0.609313 -0.183520 -0.771400
vn -0.925989 -0.253303 0.279968
vn -0.951528 -0.109980 0.287228
vn -0.952920 -0.094849 0.288006
vn -0.948861 -0.132640 0.286478
vn -0.952800 -0.098790 0.287075
vn 0.002363 -0.206698 0.978402
vn 0.002196 -0.245268 0.969453
vn 0.002227 -0.176400 0.984316
vn -0.443440 0.696503 -0.564132
vn -0.698651 0.683674 0.210896
vn -0.698955 0.683206 0.211404
vn 0.001398 0.708569 0.705640
vn 0.955741 -0.072281 0.285191
vn 0.612003 -0.115352 -0.782398
vn 0.610753 -0.136228 -0.780015
vn 0.610568 -0.139609 -0.779562
vn 0.612620 -0.113845 -0.782136
vn -0.620023 0.022120 -0.784272
vn -0.612168 -0.158238 -0.774733
vn -0.597057 -0.269594 -0.755541
vn -0.620070 -0.019896 -0.784295
vn -0.938639 -0.198533 0.282032
vn -0.931684 -0.230768 0.280554
vn -0.954966 -0.072573 0.287705
vn 0.439162 0.674050 -0.593964
vn -0.612904 -0.149610 -0.775864
vn 0.431317 0.629312 -0.646476
vn -0.602139 -0.234968 -0.763033
vn -0.605512 -0.205014 -0.768977
vn -0.891530 0.364466 0.268959
vn -0.872382 0.411997 0.263073
vn 0.001806 0.325399 0.945575
vn 0.001732 0.492737 0.870177
vn -0.926136 -0.253381 0.279412
vn -0.953049 -0.095222 0.287456
vn 0.001461 -0.113914 0.993490
vn 0.001746 -0.166924 0.985968
vn -0.999996 -0.002663 -0.001132
vn -0.999995 -0.002626 -0.001973
vn 0.000000 -0.997700 -0.067783
vn 0.000000 -0.997701 0.067768
vn 0.165329 -0.011599 -0.986170
vn 0.986390 -0.002772 -0.164398
vn 0.986961 -0.002733 -0.160934
vn -0.164388 -0.011600 0.986328
vn -0.931684 -0.230768 0.280554
vn -0.954966 -0.072573 0.287705
vn -0.952800 -0.098790 0.287075
vn 0.002363 -0.206698 0.978402
vn -0.605512 -0.205014 -0.768977
vn -0.620070 -0.019896 -0.784295
vn -0.612904 -0.149610 -0.775864
vn -0.938639 -0.198533 0.282032
vn -0.602139 -0.234968 -0.763033
vn 0.001806 0.325399 0.945575
vn 0.001732 0.492737 0.870177
vn 0.893173 0.362294 0.266431
vn 0.874377 0.409321 0.260615
vn 0.001461 -0.113914 0.993490
vn 0.001746 -0.166924 0.985968
vn 0.001759 -0.136772 0.990601
vn 0.001747 -0.191270 0.981536
vn 0.166280 -0.011598 0.986010
vn 0.000000 -0.011615 0.999933
vn 0.165329 -0.011599 0.986170
vn 0.000000 -0.011615 0.999933
vn 0.000000 -1.000000 0.000000
vn 0.999996 -0.002730 -0.000027
vn 0.999994 -0.002675 -0.002009
vn 0.999996 -0.002712 -0.001153
vn 0.000000 0.331193 0.943563
vn 0.859551 0.511051 0.000000
vn 0.859551 0.511051 0.000000
vn 0.859551 0.511051 0.000000
vn -0.775180 -0.631741 0.000000
vn 0.000000 0.331193 0.943563
vn -0.775180 -0.631741 0.000000
vn 0.000000 0.331193 0.943563
vn 0.000000 0.331193 0.943563
vn 0.774682 -0.632352 0.000000
vn 0.774682 -0.632352 0.000000
vn -0.775180 -0.631741 0.000000
vn 0.774682 -0.632352 0.000000
vn 0.774682 -0.632352 0.000000
vn -0.775180 -0.631741 0.000000
vn 0.000000 1.000000 0.000000
vn 0.000000 -0.434881 -0.900488
vn 0.000000 1.000000 0.000000
vn 0.000000 -0.434881 0.900488
vn 0.000000 -0.434881 0.900488
vn 0.000000 1.000000 0.000000
vn 0.000000 -1.000000 0.000000
vn 0.000000 -0.434881 0.900488
vn 0.000000 -0.434881 0.900488
vn 0.000000 -1.000000 0.000000
vn 0.000000 -1.000000 0.000000
vn 0.000000 -1.000000 0.000000
vn 0.000000 0.007593 0.999971
vn 0.000000 0.007593 0.999971
vn 0.000000 0.007593 0.999971
vn 0.995388 0.000728 0.095926
vn -0.995419 0.000774 0.095602
vn 0.000000 0.007593 0.999971
vn -0.995404 0.000752 0.095761
vn -0.995404 0.000752 0.095761
vn -0.995388 0.000728 0.095926
vn 0.000000 0.994423 0.105469
vn 0.000000 0.994423 0.105469
vn 0.000000 -0.994542 0.104334
vn 0.000000 -0.994542 0.104334
vn 0.000000 -0.994542 0.104334
vn 0.000000 0.994423 0.105469
vn 0.000000 -0.994542 0.104334
f 3/3/3 5/5/5 1/1/1
f 5/5/5 3/3/3 2/2/2
f 2/2/2 3/3/3 4/4/4
f 674/674/674 6/6/6 8/8/8
f 675/675/675 6/6/6 674/674/674
f 674/674/674 673/673/673 675/675/675
f 214/214/214 673/673/673 674/674/674
f 214/214/214 13/13/13 673/673/673
f 673/673/673 13/13/13 11/11/11
f 9/9/9 12/12/12 7/7/7
f 10/10/10 12/12/12 9/9/9
f 14/14/14 15/15/15 16/16/16
f 17/17/17 15/15/15 14/14/14
f 18/18/18 24/24/24 20/20/20
f 24/24/24 18/18/18 21/21/21
f 24/24/24 21/21/21 19/19/19
f 23/23/23 25/25/25 22/22/22
f 28/28/28 25/25/25 23/23/23
f 227/227/227 27/27/27 26/26/26
f 228/228/228 27/27/27 227/227/227
f 227/227/227 229/229/229 228/228/228
f 676/676/676 229/229/229 227/227/227
f 676/676/676 36/36/36 229/229/229
f 229/229/229 36/36/36 33/33/33
f 32/32/32 30/30/30 29/29/29
f 31/31/31 30/30/30 32/32/32
f 38/38/38 37/37/37 34/34/34
f 38/38/38 40/40/40 37/37/37
f 37/37/37 40/40/40 35/35/35
f 42/42/42 44/44/44 41/41/41
f 41/41/41 44/44/44 39/39/39
f 41/41/41 39/39/39 615/615/615
f 615/615/615 39/39/39 616/616/616
f 615/615/615 616/616/616 617/617/617
f 617/617/617 616/616/616 618/618/618
f 618/618/618 251/251/251 617/617/617
f 617/617/617 251/251/251 252/252/252
f 252/252/252 251/251/251 253/253/253
f 253/253/253 251/251/251 254/254/254
f 254/254/254 289/289/289 253/253/253
f 253/253/253 289/289/289 287/287/287
f 289/289/289 271/271/271 287/287/287
f 287/287/287 271/271/271 272/272/272
f 46/46/46 48/48/48 45/45/45
f 45/45/45 48/48/48 43/43/43
f 43/43/43 48/48/48 269/269/269
f 269/269/269 48/48/48 259/259/259
f 259/259/259 260/260/260 269/269/269
f 269/269/269 260/260/260 270/270/270
f 270/270/270 260/260/260 293/293/293
f 293/293/293 260/260/260 291/291/291
f 291/291/291 292/292/292 293/293/293
f 293/293/293 292/292/292 294/294/294
f 292/292/292 625/625/625 294/294/294
f 294/294/294 625/625/625 626/626/626
f 626/626/626 625/625/625 261/261/261
f 261/261/261 625/625/625 262/262/262
f 50/50/50 52/52/52 49/49/49
f 49/49/49 52/52/52 47/47/47
f 52/52/52 243/243/243 47/47/47
f 47/47/47 243/243/243 245/245/245
f 245/245/245 243/243/243 244/244/244
f 244/244/244 243/243/243 246/246/246
f 244/244/244 246/246/246 629/629/629
f 629/629/629 246/246/246 627/627/627
f 627/627/627 628/628/628 629/629/629
f 629/629/629 628/628/628 630/630/630
f 630/630/630 628/628/628 623/623/623
f 623/623/623 628/628/628 624/624/624
f 623/623/623 624/624/624 248/248/248
f 248/248/248 624/624/624 250/250/250
f 54/54/54 56/56/56 53/53/53
f 53/53/53 56/56/56 51/51/51
f 51/51/51 283/283/283 53/53/53
f 53/53/53 283/283/283 284/284/284
f 284/284/284 283/283/283 285/285/285
f 285/285/285 283/283/283 286/286/286
f 286/286/286 635/635/635 285/285/285
f 285/285/285 635/635/635 633/633/633
f 633/633/633 635/635/635 632/632/632
f 632/632/632 635/635/635 634/634/634
f 632/632/632 634/634/634 273/273/273
f 273/273/273 634/634/634 274/274/274
f 274/274/274 249/249/249 273/273/273
f 273/273/273 249/249/249 247/247/247
f 58/58/58 60/60/60 57/57/57
f 57/57/57 60/60/60 55/55/55
f 57/57/57 55/55/55 621/621/621
f 621/621/621 55/55/55 619/619/619
f 619/619/619 620/620/620 621/621/621
f 621/621/621 620/620/620 622/622/622
f 620/620/620 109/109/109 622/622/622
f 622/622/622 109/109/109 119/119/119
f 109/109/109 118/118/118 119/119/119
f 119/119/119 118/118/118 631/631/631
f 631/631/631 118/118/118 263/263/263
f 263/263/263 118/118/118 264/264/264
f 263/263/263 264/264/264 288/288/288
f 288/288/288 264/264/264 290/290/290
f 63/63/63 64/64/64 59/59/59
f 63/63/63 62/62/62 64/64/64
f 64/64/64 62/62/62 61/61/61
f 65/65/65 72/72/72 67/67/67
f 67/67/67 72/72/72 66/66/66
f 67/67/67 66/66/66 117/117/117
f 117/117/117 66/66/66 126/126/126
f 117/117/117 126/126/126 127/127/127
f 127/127/127 126/126/126 648/648/648
f 648/648/648 182/182/182 127/127/127
f 127/127/127 182/182/182 181/181/181
f 181/181/181 182/182/182 197/197/197
f 197/197/197 182/182/182 198/198/198
f 198/198/198 216/216/216 197/197/197
f 197/197/197 216/216/216 218/218/218
f 216/216/216 656/656/656 218/218/218
f 218/218/218 656/656/656 658/658/658
f 77/77/77 75/75/75 73/73/73
f 73/73/73 75/75/75 76/76/76
f 76/76/76 75/75/75 107/107/107
f 107/107/107 75/75/75 104/104/104
f 104/104/104 106/106/106 107/107/107
f 107/107/107 106/106/106 116/116/116
f 116/116/116 106/106/106 180/180/180
f 180/180/180 106/106/106 221/221/221
f 221/221/221 222/222/222 180/180/180
f 180/180/180 222/222/222 179/179/179
f 222/222/222 217/217/217 179/179/179
f 179/179/179 217/217/217 215/215/215
f 215/215/215 217/217/217 205/205/205
f 205/205/205 217/217/217 206/206/206
f 84/84/84 74/74/74 78/78/78
f 78/78/78 74/74/74 79/79/79
f 74/74/74 146/146/146 79/79/79
f 79/79/79 146/146/146 145/145/145
f 145/145/145 146/146/146 147/147/147
f 147/147/147 146/146/146 105/105/105
f 147/147/147 105/105/105 220/220/220
f 220/220/220 105/105/105 667/667/667
f 667/667/667 668/668/668 220/220/220
f 220/220/220 668/668/668 219/219/219
f 219/219/219 668/668/668 663/663/663
f 663/663/663 668/668/668 664/664/664
f 663/663/663 664/664/664 195/195/195
f 195/195/195 664/664/664 196/196/196
f 160/160/160 86/86/86 85/85/85
f 85/85/85 86/86/86 87/87/87
f 87/87/87 654/654/654 85/85/85
f 85/85/85 654/654/654 653/653/653
f 653/653/653 654/654/654 655/655/655
f 655/655/655 654/654/654 144/144/144
f 144/144/144 210/210/210 655/655/655
f 655/655/655 210/210/210 209/209/209
f 209/209/209 210/210/210 665/665/665
f 665/665/665 210/210/210 666/666/666
f 665/665/665 666/666/666 661/661/661
f 661/661/661 666/666/666 662/662/662
f 662/662/662 176/176/176 661/661/661
f 661/661/661 176/176/176 178/178/178
f 355/355/355 162/162/162 161/161/161
f 161/161/161 162/162/162 163/163/163
f 161/161/161 163/163/163 659/659/659
f 659/659/659 163/163/163 660/660/660
f 660/660/660 657/657/657 659/659/659
f 659/659/659 657/657/657 652/652/652
f 657/657/657 184/184/184 652/652/652
f 652/652/652 184/184/184 199/199/199
f 184/184/184 186/186/186 199/199/199
f 199/199/199 186/186/186 200/200/200
f 200/200/200 186/186/186 207/207/207
f 207/207/207 186/186/186 208/208/208
f 207/207/207 208/208/208 175/175/175
f 175/175/175 208/208/208 177/177/177
f 362/362/362 357/357/357 358/358/358
f 362/362/362 359/359/359 357/357/357
f 357/357/357 359/359/359 356/356/356
f 366/366/366 363/363/363 361/361/361
f 361/361/361 363/363/363 360/360/360
f 361/361/361 360/360/360 194/194/194
f 194/194/194 360/360/360 203/203/203
f 194/194/194 203/203/203 204/204/204
f 204/204/204 203/203/203 213/213/213
f 213/213/213 299/299/299 204/204/204
f 204/204/204 299/299/299 300/300/300
f 300/300/300 299/299/299 301/301/301
f 301/301/301 299/299/299 302/302/302
f 302/302/302 337/337/337 301/301/301
f 301/301/301 337/337/337 335/335/335
f 337/337/337 325/325/325 335/335/335
f 335/335/335 325/325/325 326/326/326
f 370/370/370 367/367/367 365/365/365
f 365/365/365 367/367/367 364/364/364
f 364/364/364 367/367/367 191/191/191
f 191/191/191 367/367/367 234/234/234
f 234/234/234 192/192/192 191/191/191
f 191/191/191 192/192/192 193/193/193
f 193/193/193 192/192/192 341/341/341
f 341/341/341 192/192/192 340/340/340
f 340/340/340 339/339/339 341/341/341
f 341/341/341 339/339/339 342/342/342
f 339/339/339 688/688/688 342/342/342
f 342/342/342 688/688/688 689/689/689
f 689/689/689 688/688/688 315/315/315
f 315/315/315 688/688/688 316/316/316
f 374/374/374 371/371/371 369/369/369
f 369/369/369 371/371/371 368/368/368
f 371/371/371 231/231/231 368/368/368
f 368/368/368 231/231/231 680/680/680
f 680/680/680 231/231/231 232/232/232
f 232/232/232 231/231/231 233/233/233
f 232/232/232 233/233/233 692/692/692
f 692/692/692 233/233/233 690/690/690
f 690/690/690 691/691/691 692/692/692
f 692/692/692 691/691/691 693/693/693
f 693/693/693 691/691/691 686/686/686
f 686/686/686 691/691/691 687/687/687
f 686/686/686 687/687/687 296/296/296
f 296/296/296 687/687/687 298/298/298
f 378/378/378 375/375/375 373/373/373
f 373/373/373 375/375/375 372/372/372
f 372/372/372 677/677/677 373/373/373
f 373/373/373 677/677/677 684/684/684
f 684/684/684 677/677/677 678/678/678
f 678/678/678 677/677/677 679/679/679
f 679/679/679 320/320/320 678/678/678
f 678/678/678 320/320/320 319/319/319
f 319/319/319 320/320/320 329/329/329
f 329/329/329 320/320/320 330/330/330
f 329/329/329 330/330/330 327/327/327
f 327/327/327 330/330/330 328/328/328
f 328/328/328 295/295/295 327/327/327
f 327/327/327 295/295/295 297/297/297
f 382/382/382 379/379/379 377/377/377
f 377/377/377 379/379/379 376/376/376
f 377/377/377 376/376/376 685/685/685
f 685/685/685 376/376/376 681/681/681
f 681/681/681 683/683/683 685/685/685
f 685/685/685 683/683/683 682/682/682
f 683/683/683 305/305/305 682/682/682
f 682/682/682 305/305/305 304/304/304
f 305/305/305 303/303/303 304/304/304
f 304/304/304 303/303/303 306/306/306
f 306/306/306 303/303/303 317/317/317
f 317/317/317 303/303/303 318/318/318
f 317/317/317 318/318/318 336/336/336
f 336/336/336 318/318/318 338/338/338
f 384/384/384 383/383/383 380/380/380
f 384/384/384 386/386/386 383/383/383
f 383/383/383 386/386/386 381/381/381
f 388/388/388 390/390/390 387/387/387
f 387/387/387 390/390/390 385/385/385
f 387/387/387 385/385/385 90/90/90
f 90/90/90 385/385/385 89/89/89
f 90/90/90 89/89/89 91/91/91
f 91/91/91 89/89/89 108/108/108
f 108/108/108 646/646/646 91/91/91
f 91/91/91 646/646/646 645/645/645
f 645/645/645 646/646/646 647/647/647
f 647/647/647 646/646/646 137/137/137
f 137/137/137 113/113/113 647/647/647
f 647/647/647 113/113/113 122/122/122
f 113/113/113 135/135/135 122/122/122
f 122/122/122 135/135/135 93/93/93
f 392/392/392 394/394/394 391/391/391
f 391/391/391 394/394/394 389/389/389
f 389/389/389 394/394/394 131/131/131
f 131/131/131 394/394/394 128/128/128
f 128/128/128 129/129/129 131/131/131
f 131/131/131 129/129/129 88/88/88
f 88/88/88 129/129/129 125/125/125
f 125/125/125 129/129/129 115/115/115
f 115/115/115 124/124/124 125/125/125
f 125/125/125 124/124/124 644/644/644
f 124/124/124 99/99/99 644/644/644
f 644/644/644 99/99/99 112/112/112
f 112/112/112 99/99/99 132/132/132
f 132/132/132 99/99/99 134/134/134
f 396/396/396 398/398/398 395/395/395
f 395/395/395 398/398/398 393/393/393
f 398/398/398 638/638/638 393/393/393
f 393/393/393 638/638/638 637/637/637
f 637/637/637 638/638/638 639/639/639
f 639/639/639 638/638/638 130/130/130
f 639/639/639 130/130/130 103/103/103
f 103/103/103 130/130/130 100/100/100
f 100/100/100 101/101/101 103/103/103
f 103/103/103 101/101/101 114/114/114
f 114/114/114 101/101/101 96/96/96
f 96/96/96 101/101/101 97/97/97
f 96/96/96 97/97/97 643/643/643
f 643/643/643 97/97/97 133/133/133
f 400/400/400 402/402/402 399/399/399
f 399/399/399 402/402/402 397/397/397
f 397/397/397 120/120/120 399/399/399
f 399/399/399 120/120/120 111/111/111
f 111/111/111 120/120/120 121/121/121
f 121/121/121 120/120/120 636/636/636
f 636/636/636 141/141/141 121/121/121
f 121/121/121 141/141/141 140/140/140
f 140/140/140 141/141/141 143/143/143
f 143/143/143 141/141/141 102/102/102
f 143/143/143 102/102/102 139/139/139
f 139/139/139 102/102/102 98/98/98
f 98/98/98 641/641/641 139/139/139
f 139/139/139 641/641/641 642/642/642
f 404/404/404 406/406/406 403/403/403
f 403/403/403 406/406/406 401/401/401
f 403/403/403 401/401/401 95/95/95
f 95/95/95 401/401/401 92/92/92
f 92/92/92 94/94/94 95/95/95
f 95/95/95 94/94/94 110/110/110
f 94/94/94 649/649/649 110/110/110
f 110/110/110 649/649/649 651/651/651
f 649/649/649 650/650/650 651/651/651
f 651/651/651 650/650/650 142/142/142
f 142/142/142 650/650/650 136/136/136
f 136/136/136 650/650/650 138/138/138
f 136/136/136 138/138/138 123/123/123
f 123/123/123 138/138/138 640/640/640
f 412/412/412 414/414/414 411/411/411
f 405/405/405 411/411/411 414/414/414
f 411/411/411 405/405/405 410/410/410
f 405/405/405 407/407/407 410/410/410
f 407/407/407 409/409/409 410/410/410
f 409/409/409 408/408/408 410/410/410
f 408/408/408 469/469/469 410/410/410
f 469/469/469 458/458/458 410/410/410
f 458/458/458 469/469/469 470/470/470
f 470/470/470 471/471/471 458/458/458
f 472/472/472 438/438/438 439/439/439
f 439/439/439 438/438/438 440/440/440
f 441/441/441 440/440/440 438/438/438
f 413/413/413 440/440/440 441/441/441
f 441/441/441 348/348/348 413/413/413
f 413/413/413 348/348/348 350/350/350
f 348/348/348 347/347/347 350/350/350
f 349/349/349 347/347/347 348/348/348
f 347/347/347 349/349/349 455/455/455
f 455/455/455 349/349/349 457/457/457
f 455/455/455 457/457/457 459/459/459
f 459/459/459 457/457/457 456/456/456
f 456/456/456 442/442/442 459/459/459
f 452/452/452 442/442/442 456/456/456
f 442/442/442 452/452/452 453/453/453
f 453/453/453 452/452/452 454/454/454
f 428/428/428 427/427/427 429/429/429
f 426/426/426 427/427/427 428/428/428
f 446/446/446 427/427/427 426/426/426
f 447/447/447 427/427/427 446/446/446
f 446/446/446 415/415/415 447/447/447
f 447/447/447 415/415/415 422/422/422
f 415/415/415 671/671/671 422/422/422
f 672/672/672 671/671/671 415/415/415
f 671/671/671 672/672/672 224/224/224
f 224/224/224 672/672/672 223/223/223
f 465/465/465 224/224/224 223/223/223
f 460/460/460 224/224/224 465/465/465
f 465/465/465 463/463/463 460/460/460
f 460/460/460 463/463/463 462/462/462
f 461/461/461 462/462/462 463/463/463
f 436/436/436 462/462/462 461/461/461
f 423/423/423 424/424/424 425/425/425
f 424/424/424 444/444/444 425/425/425
f 444/444/444 424/424/424 449/449/449
f 444/444/444 449/449/449 445/445/445
f 445/445/445 449/449/449 448/448/448
f 448/448/448 449/449/449 443/443/443
f 443/443/443 449/449/449 416/416/416
f 418/418/418 416/416/416 449/449/449
f 416/416/416 418/418/418 464/464/464
f 464/464/464 418/418/418 417/417/417
f 450/450/450 435/435/435 451/451/451
f 450/450/450 451/451/451 434/434/434
f 450/450/450 434/434/434 185/185/185
f 226/226/226 450/450/450 185/185/185
f 212/212/212 450/450/450 226/226/226
f 212/212/212 226/226/226 225/225/225
f 212/212/212 225/225/225 669/669/669
f 212/212/212 669/669/669 670/670/670
f 185/185/185 183/183/183 226/226/226
f 433/433/433 482/482/482 437/437/437
f 482/482/482 433/433/433 483/483/483
f 482/482/482 483/483/483 466/466/466
f 431/431/431 430/430/430 432/432/432
f 419/419/419 430/430/430 431/431/431
f 420/420/420 467/467/467 468/468/468
f 468/468/468 467/467/467 421/421/421
f 421/421/421 696/696/696 468/468/468
f 694/694/694 696/696/696 421/421/421
f 694/694/694 695/695/695 696/696/696
f 696/696/696 695/695/695 697/697/697
f 528/528/528 506/506/506 481/481/481
f 506/506/506 528/528/528 513/513/513
f 513/513/513 528/528/528 494/494/494
f 493/493/493 491/491/491 507/507/507
f 490/490/490 491/491/491 493/493/493
f 495/495/495 496/496/496 497/497/497
f 497/497/497 496/496/496 489/489/489
f 489/489/489 187/187/187 497/497/497
f 230/230/230 187/187/187 489/489/489
f 230/230/230 189/189/189 187/187/187
f 187/187/187 189/189/189 188/188/188
f 508/508/508 511/511/511 510/510/510
f 514/514/514 511/511/511 508/508/508
f 514/514/514 157/157/157 511/511/511
f 486/486/486 157/157/157 514/514/514
f 157/157/157 486/486/486 159/159/159
f 157/157/157 159/159/159 526/526/526
f 517/517/517 515/515/515 509/509/509
f 516/516/516 515/515/515 517/517/517
f 516/516/516 498/498/498 515/515/515
f 500/500/500 498/498/498 516/516/516
f 500/500/500 156/156/156 498/498/498
f 158/158/158 156/156/156 500/500/500
f 158/158/158 531/531/531 156/156/156
f 541/541/541 531/531/531 158/158/158
f 541/541/541 529/529/529 531/531/531
f 531/531/531 529/529/529 538/538/538
f 529/529/529 539/539/539 538/538/538
f 537/537/537 539/539/539 529/529/529
f 537/537/537 536/536/536 539/539/539
f 539/539/539 536/536/536 532/532/532
f 484/484/484 532/532/532 536/536/536
f 485/485/485 532/532/532 484/484/484
f 485/485/485 484/484/484 475/475/475
f 475/475/475 484/484/484 473/473/473
f 473/473/473 520/520/520 475/475/475
f 518/518/518 520/520/520 473/473/473
f 519/519/519 520/520/520 518/518/518
f 523/523/523 520/520/520 519/519/519
f 499/499/499 505/505/505 501/501/501
f 505/505/505 499/499/499 477/477/477
f 505/505/505 477/477/477 504/504/504
f 504/504/504 477/477/477 480/480/480
f 480/480/480 477/477/477 478/478/478
f 478/478/478 477/477/477 479/479/479
f 503/503/503 479/479/479 477/477/477
f 502/502/502 503/503/503 477/477/477
f 512/512/512 502/502/502 477/477/477
f 487/487/487 512/512/512 477/477/477
f 488/488/488 487/487/487 477/477/477
f 487/487/487 488/488/488 522/522/522
f 521/521/521 522/522/522 488/488/488
f 525/525/525 527/527/527 524/524/524
f 492/492/492 527/527/527 525/525/525
f 476/476/476 527/527/527 492/492/492
f 476/476/476 474/474/474 527/527/527
f 533/533/533 527/527/527 474/474/474
f 534/534/534 533/533/533 474/474/474
f 533/533/533 534/534/534 535/535/535
f 548/548/548 570/570/570 82/82/82
f 80/80/80 570/570/570 548/548/548
f 167/167/167 570/570/570 80/80/80
f 569/569/569 570/570/570 167/167/167
f 570/570/570 569/569/569 559/559/559
f 559/559/559 569/569/569 571/571/571
f 559/559/559 571/571/571 572/572/572
f 573/573/573 559/559/559 572/572/572
f 580/580/580 559/559/559 573/573/573
f 580/580/580 171/171/171 559/559/559
f 559/559/559 171/171/171 584/584/584
f 584/584/584 171/171/171 165/165/165
f 584/584/584 165/165/165 581/581/581
f 584/584/584 581/581/581 583/583/583
f 549/549/549 552/552/552 545/545/545
f 550/550/550 552/552/552 549/549/549
f 552/552/552 550/550/550 547/547/547
f 547/547/547 550/550/550 546/546/546
f 546/546/546 579/579/579 547/547/547
f 578/578/578 579/579/579 546/546/546
f 578/578/578 574/574/574 579/579/579
f 577/577/577 574/574/574 578/578/578
f 577/577/577 168/168/168 574/574/574
f 574/574/574 168/168/168 169/169/169
f 168/168/168 170/170/170 169/169/169
f 169/169/169 170/170/170 564/564/564
f 170/170/170 563/563/563 564/564/564
f 564/564/564 563/563/563 562/562/562
f 562/562/562 563/563/563 560/560/560
f 560/560/560 563/563/563 561/561/561
f 560/560/560 561/561/561 556/556/556
f 556/556/556 561/561/561 173/173/173
f 556/556/556 173/173/173 172/172/172
f 172/172/172 173/173/173 164/164/164
f 164/164/164 555/555/555 172/172/172
f 557/557/557 555/555/555 164/164/164
f 558/558/558 555/555/555 557/557/557
f 567/567/567 555/555/555 558/558/558
f 166/166/166 174/174/174 553/553/553
f 174/174/174 542/542/542 553/553/553
f 542/542/542 174/174/174 543/543/543
f 542/542/542 543/543/543 551/551/551
f 551/551/551 543/543/543 554/554/554
f 554/554/554 543/543/543 544/544/544
f 544/544/544 543/543/543 81/81/81
f 83/83/83 81/81/81 543/543/543
f 530/530/530 83/83/83 543/543/543
f 540/540/540 530/530/530 543/543/543
f 582/582/582 540/540/540 543/543/543
f 568/568/568 582/582/582 543/543/543
f 582/582/582 568/568/568 566/566/566
f 565/565/565 566/566/566 568/568/568
f 576/576/576 588/588/588 575/575/575
f 587/587/587 588/588/588 576/576/576
f 585/585/585 592/592/592 586/586/586
f 591/591/591 592/592/592 585/585/585
f 589/589/589 68/68/68 590/590/590
f 69/69/69 68/68/68 589/589/589
f 70/70/70 602/602/602 71/71/71
f 601/601/601 602/602/602 70/70/70
f 599/599/599 598/598/598 600/600/600
f 597/597/597 598/598/598 599/599/599
f 595/595/595 593/593/593 596/596/596
f 594/594/594 593/593/593 595/595/595
f 606/606/606 609/609/609 607/607/607
f 608/608/608 609/609/609 606/606/606
f 605/605/605 604/604/604 610/610/610
f 603/603/603 604/604/604 605/605/605
f 265/265/265 256/256/256 266/266/266
f 255/255/255 256/256/256 265/265/265
f 236/236/236 237/237/237 238/238/238
f 235/235/235 237/237/237 236/236/236
f 276/276/276 275/275/275 278/278/278
f 277/277/277 275/275/275 276/276/276
f 613/613/613 612/612/612 614/614/614
f 611/611/611 612/612/612 613/613/613
f 267/267/267 258/258/258 268/268/268
f 257/257/257 258/258/258 267/267/267
f 241/241/241 239/239/239 242/242/242
f 240/240/240 239/239/239 241/241/241
f 281/281/281 279/279/279 282/282/282
f 280/280/280 279/279/279 281/281/281
f 202/202/202 201/201/201 211/211/211
f 190/190/190 201/201/201 202/202/202
f 345/345/345 343/343/343 346/346/346
f 344/344/344 343/343/343 345/345/345
f 308/308/308 331/331/331 332/332/332
f 308/308/308 322/322/322 331/331/331
f 308/308/308 310/310/310 322/322/322
f 308/308/308 307/307/307 310/310/310
f 310/310/310 307/307/307 321/321/321
f 699/699/699 307/307/307 308/308/308
f 699/699/699 309/309/309 307/307/307
f 699/699/699 701/701/701 309/309/309
f 699/699/699 700/700/700 701/701/701
f 334/334/334 333/333/333 698/698/698
f 324/324/324 333/333/333 334/334/334
f 314/314/314 313/313/313 323/323/323
f 311/311/311 313/313/313 314/314/314
f 354/354/354 353/353/353 312/312/312
f 352/352/352 353/353/353 354/354/354
f 705/705/705 704/704/704 351/351/351
f 703/703/703 704/704/704 705/705/705
f 709/709/709 707/707/707 702/702/702
f 710/710/710 707/707/707 709/709/709
f 706/706/706 713/713/713 708/708/708
f 716/716/716 713/713/713 706/706/706
f 715/715/715 712/712/712 714/714/714
f 711/711/711 712/712/712 715/715/715
f 153/153/153 155/155/155 152/152/152
f 718/718/718 155/155/155 153/153/153
f 154/154/154 719/719/719 717/717/717
f 722/722/722 719/719/719 154/154/154
f 721/721/721 725/725/725 720/720/720
f 724/724/724 725/725/725 721/721/721
f 723/723/723 726/726/726 727/727/727
f 728/728/728 726/726/726 723/723/723
f 729/729/729 730/730/730 731/731/731
f 734/734/734 730/730/730 729/729/729
f 735/735/735 736/736/736 737/737/737
f 733/733/733 736/736/736 735/735/735
f 148/148/148 149/149/149 732/732/732
f 151/151/151 149/149/149 148/148/148
f 738/738/738 150/150/150 739/739/739
f 743/743/743 150/150/150 738/738/738
f 744/744/744 740/740/740 742/742/742
f 741/741/741 740/740/740 744/744/744
