# Exported by s4extract — object_Food_PlateFork_Multi_lod00_g01
o object_Food_PlateFork_Multi_lod00_g01
v 0.009919 0.051119 -0.020234
v 0.008332 0.029542 -0.042238
v 0.009919 0.051119 -0.020234
v 0.036164 0.031465 0.028474
v 0.044252 0.020295 0.011475
v 0.028901 0.023011 0.019532
v -0.080630 0.033021 0.024781
v -0.092807 0.059175 0.032746
v 0.103519 0.013611 -0.015961
v -0.097049 0.059145 0.031373
v -0.098209 0.056887 0.027436
v 0.058626 0.020295 0.001068
v 0.077883 0.020295 0.002319
v 0.084597 0.020295 0.040101
v 0.090884 0.020295 0.021851
v -0.067476 0.058138 0.018250
v -0.085635 0.050356 0.000366
v -0.085788 0.054323 0.008209
v -0.074557 0.059145 0.019257
v 0.069979 0.011841 0.045839
v 0.044893 0.011994 0.048921
v 0.038301 0.020905 0.040925
v 0.082553 0.011841 0.009339
v -0.140538 0.046266 -0.007294
v -0.119297 0.042543 -0.018830
v -0.119297 0.042543 -0.018830
v -0.138798 0.041627 -0.003418
v -0.143437 0.038881 -0.008271
v -0.143437 0.038881 -0.008271
v -0.140538 0.046266 -0.007294
v -0.079318 0.036470 -0.014863
v -0.106510 0.033662 -0.011048
v -0.088168 0.031526 -0.028291
v -0.132359 0.036500 -0.030671
v -0.128880 0.049959 -0.026368
v 0.089267 0.011841 0.047090
v 0.063265 0.011841 0.008057
v -0.000610 0.020814 0.023316
v -0.082278 0.068300 0.012207
v -0.067476 0.058138 0.018250
v 0.037660 0.029206 0.003479
v 0.065310 0.020295 0.038850
v 0.069979 0.011841 0.045839
v 0.095523 0.011841 0.028840
v 0.065126 0.031159 0.030152
v 0.071749 0.022248 0.038148
v 0.062380 0.024354 0.016785
v 0.071749 0.022248 0.038148
v 0.065126 0.031159 0.030152
v 0.044893 0.011994 0.048921
v 0.038301 0.020905 0.040925
v 0.037660 0.029206 0.003479
v 0.055757 0.033265 0.008759
v 0.056398 0.024964 0.046236
v 0.028901 0.023011 0.019532
v 0.044130 0.023438 0.035798
v 0.031922 0.023682 0.015809
v 0.036164 0.031465 0.028474
v 0.044252 0.020295 0.011475
v 0.063021 0.016053 0.054231
v 0.035524 0.014100 0.027528
v 0.005554 0.026399 0.005890
v 0.023957 0.031709 0.008484
v 0.013550 0.018372 0.013215
v -0.092807 0.059175 0.032746
v 0.035524 0.014100 0.027528
v -0.104709 0.042329 -0.008332
v -0.088168 0.031526 -0.028291
v -0.072939 0.035463 -0.014252
v -0.081820 0.049715 -0.027924
v 0.058626 0.020295 0.001068
v 0.057009 0.011841 0.026337
v 0.063265 0.011841 0.008057
v 0.077883 0.020295 0.002319
v 0.082553 0.011841 0.009339
v -0.000610 0.020814 0.023316
v 0.007385 0.012787 0.030641
v 0.019593 0.012543 0.050661
v 0.011597 0.020569 0.043336
v 0.036164 0.031465 0.028474
v 0.037965 0.017853 0.053224
v 0.031922 0.023682 0.015809
v 0.029969 0.025880 0.045900
v 0.044130 0.023438 0.035798
v 0.044130 0.023438 0.035798
v 0.013550 0.018372 0.013215
v 0.063021 0.016053 0.054231
v 0.037965 0.017853 0.053224
v 0.007385 0.012787 0.030641
v 0.056398 0.024964 0.046236
v 0.019593 0.012543 0.050661
v 0.090884 0.020295 0.021851
v 0.095523 0.011841 0.028840
v -0.077303 0.028809 0.028748
v 0.090884 0.020295 0.021851
v 0.052339 0.020295 0.019318
v 0.084597 0.020295 0.040101
v -0.081606 0.026246 0.022645
v -0.077303 0.028809 0.028748
v -0.065798 0.023499 0.004151
v -0.081606 0.026246 0.022645
v -0.080538 0.028230 0.026948
v -0.077303 0.028809 0.028748
v -0.132084 0.033052 -0.038911
v -0.111759 0.042451 -0.020478
v -0.132084 0.033052 -0.038911
v -0.126652 0.053987 -0.032228
v -0.106265 0.037172 -0.005127
v -0.106510 0.033662 -0.011048
v -0.106510 0.033662 -0.011048
v -0.104709 0.042329 -0.008332
v 0.116855 0.030457 -0.000427
v 0.113346 0.035035 0.004151
v 0.089022 0.025727 -0.026368
v -0.132084 0.033052 -0.038911
v -0.111759 0.042451 -0.020478
v -0.005005 0.030244 -0.028657
v -0.006348 0.008362 -0.050325
v -0.006348 0.008362 -0.050325
v -0.003632 0.051515 -0.051149
v 0.083590 0.033326 0.001007
v -0.064302 0.021088 -0.000885
v -0.086398 0.027985 -0.034730
v -0.140538 0.046266 -0.007294
v -0.133885 0.042177 -0.006653
v -0.128880 0.049959 -0.026368
v -0.098209 0.056887 0.027436
v -0.096530 0.063601 0.029359
v -0.077303 0.028809 0.028748
v -0.080630 0.033021 0.024781
v -0.097049 0.059145 0.031373
v -0.063601 0.038728 0.008942
v 0.103061 0.024262 -0.024293
v 0.077792 0.018983 -0.053835
v 0.076144 0.041841 -0.044954
v 0.095523 0.011841 0.028840
v 0.089267 0.011841 0.047090
v 0.077792 0.018983 -0.053835
v -0.031800 0.021149 0.063417
v -0.072604 0.013611 -0.002899
v -0.008362 0.055696 -0.009033
v -0.014588 0.034272 -0.030061
v -0.019623 0.056185 -0.051546
v 0.062441 0.070406 -0.039827
v 0.061831 0.055574 -0.021332
v 0.091769 0.055635 -0.023164
v -0.063601 0.038728 0.008942
v -0.051210 0.028962 0.017701
v -0.061342 0.041749 0.005615
v -0.051210 0.028962 0.017701
v -0.101138 0.036653 -0.002869
v -0.085177 0.045808 -0.023835
v -0.143437 0.038881 -0.008271
v -0.079318 0.036470 -0.014863
v -0.092807 0.059175 0.032746
v -0.106510 0.033662 -0.011048
v -0.085177 0.045808 -0.023835
v -0.092807 0.059175 0.032746
v 0.057009 0.011841 0.026337
v 0.062441 0.070406 -0.039827
v 0.091769 0.055635 -0.023164
v 0.063326 0.057375 -0.057955
v 0.094211 0.050874 -0.028260
v 0.061831 0.055574 -0.021332
v 0.094211 0.050874 -0.028260
v 0.063326 0.057375 -0.057955
v 0.094211 0.050874 -0.028260
v 0.061159 0.038270 -0.040498
v -0.086398 0.027985 -0.034730
v -0.072939 0.035463 -0.014252
v -0.056124 0.029298 0.017853
v 0.013733 0.059816 -0.085604
v 0.044435 0.046419 -0.070376
v 0.061159 0.038270 -0.040498
v -0.066713 0.013611 0.076662
v 0.055757 0.033265 0.008759
v 0.062380 0.024354 0.016785
v 0.065126 0.031159 0.030152
v -0.101138 0.036653 -0.002869
v -0.106265 0.037172 -0.005127
v -0.101138 0.036653 -0.002869
v -0.081820 0.049715 -0.027924
v 0.062777 0.013611 0.067049
v -0.133885 0.042177 -0.006653
v -0.138798 0.041627 -0.003418
v -0.140538 0.046266 -0.007294
v -0.133885 0.042177 -0.006653
v -0.064302 0.021088 -0.000885
v 0.011597 0.020569 0.043336
v -0.104709 0.042329 -0.008332
v -0.101138 0.036653 -0.002869
v -0.096530 0.063601 0.029359
v -0.098209 0.056887 0.027436
v -0.133885 0.042177 -0.006653
v -0.132359 0.036500 -0.030671
v -0.081606 0.026246 0.022645
v -0.143437 0.038881 -0.008271
v -0.061342 0.041749 0.005615
v -0.065798 0.023499 0.004151
v -0.064302 0.021088 -0.000885
v -0.080538 0.028230 0.026948
v -0.085635 0.050356 0.000366
v -0.074557 0.059145 0.019257
v -0.080630 0.033021 0.024781
v -0.079958 0.072939 0.006836
v -0.085788 0.054323 0.008209
v -0.097049 0.059145 0.031373
v -0.079958 0.072939 0.006836
v -0.096530 0.063601 0.029359
v -0.104709 0.042329 -0.008332
v 0.071749 0.022248 0.038148
v 0.070101 0.027650 -0.026399
v 0.077792 0.018983 -0.053835
v -0.138798 0.041627 -0.003418
v -0.126652 0.053987 -0.032228
v -0.005066 0.029695 -0.073153
v -0.005005 0.030244 -0.028657
v 0.070101 0.027650 -0.026399
v -0.081606 0.026246 0.022645
v -0.080538 0.028230 0.026948
v -0.061647 0.063631 -0.072298
v 0.014313 0.046785 -0.103732
v -0.068087 0.041963 -0.093265
v 0.013733 0.059816 -0.085604
v -0.061647 0.063631 -0.072298
v 0.014679 0.045076 -0.067110
v 0.014313 0.046785 -0.103732
v -0.061068 0.020386 -0.072024
v -0.054781 0.042116 -0.051363
v -0.085635 0.050356 0.000366
v -0.082278 0.068300 0.012207
v -0.106265 0.037172 -0.005127
v -0.086398 0.027985 -0.034730
v 0.052339 0.020295 0.019318
v 0.065310 0.020295 0.038850
v 0.107364 0.013611 0.036073
v -0.005066 0.029695 -0.073153
v -0.050966 0.018677 0.050142
v -0.080630 0.033021 0.024781
v -0.056124 0.029298 0.017853
v -0.096530 0.063601 0.029359
v -0.003632 0.051515 -0.051149
v 0.103061 0.024262 -0.024293
v -0.098209 0.056887 0.027436
v -0.061068 0.020386 -0.072024
v 0.013825 0.027680 -0.086184
v -0.068087 0.041963 -0.093265
v -0.054781 0.042116 -0.051363
v 0.013825 0.027680 -0.086184
v 0.014679 0.045076 -0.067110
v 0.023957 0.031709 0.008484
v 0.005554 0.026399 0.005890
v 0.029969 0.025880 0.045900
v 0.103061 0.024262 -0.024293
v 0.076144 0.041841 -0.044954
v 0.012421 0.029542 0.001587
v -0.023957 0.013977 0.065188
v -0.014527 0.027772 0.057924
v -0.043123 0.011505 0.051912
v -0.035554 0.029481 0.025880
v -0.006653 0.020631 0.059725
v -0.044984 0.015687 0.033174
v -0.027711 0.022309 0.027680
v -0.008545 0.024781 0.040956
v 0.008332 0.029542 -0.042238
v 0.089022 0.025727 -0.026368
v 0.012421 0.029542 0.001587
v 0.010956 0.007874 -0.020081
v 0.010956 0.007874 -0.020081
v 0.113346 0.035035 0.004151
v 0.083590 0.033326 0.001007
v 0.086428 0.048219 -0.017182
v 0.113346 0.035035 0.004151
v 0.089022 0.025727 -0.026368
v 0.046846 0.041749 -0.075594
v -0.016388 0.031953 0.039155
v 0.116855 0.030457 -0.000427
v 0.086428 0.048219 -0.017182
v -0.007233 0.012665 0.054750
v 0.007569 0.032197 0.032136
v 0.015961 0.024628 0.038575
v -0.015625 0.020234 0.048311
v -0.020447 0.012116 0.035401
v -0.028840 0.019684 0.028993
v -0.015473 0.017853 0.017640
v -0.023865 0.025422 0.011231
v -0.005676 0.031678 0.012818
v 0.002716 0.024110 0.019227
v 0.007569 0.032197 0.032136
v 0.015961 0.024628 0.038575
v -0.015625 0.020234 0.048311
v -0.052828 0.022858 0.031373
v 0.010987 0.018921 0.056337
v -0.014588 0.034272 -0.030061
v 0.002594 0.026490 0.049898
v 0.015961 0.024628 0.038575
v -0.015473 0.017853 0.017640
v 0.044435 0.046419 -0.070376
v 0.002716 0.024110 0.019227
v -0.020447 0.012116 0.035401
v 0.010987 0.018921 0.056337
v 0.002594 0.026490 0.049898
v 0.007569 0.032197 0.032136
v -0.007233 0.012665 0.054750
v -0.005676 0.031678 0.012818
v -0.028840 0.019684 0.028993
v -0.023865 0.025422 0.011231
v -0.019623 0.056185 -0.051546
v -0.013245 0.077517 -0.030213
v -0.008362 0.055696 -0.009033
v -0.013245 0.077517 -0.030213
v 0.044435 0.046419 -0.070376
v -0.023957 0.013977 0.065188
v -0.006653 0.020631 0.059725
v -0.016388 0.031953 0.039155
v 0.046846 0.041749 -0.075594
v -0.008545 0.024781 0.040956
v -0.016388 0.031953 0.039155
v -0.035554 0.029481 0.025880
v -0.027711 0.022309 0.027680
v -0.044984 0.015687 0.033174
v -0.052828 0.022858 0.031373
v -0.050966 0.018677 0.050142
v -0.043123 0.011505 0.051912
v -0.031800 0.021149 0.063417
v -0.014527 0.027772 0.057924
v -0.008545 0.024781 0.040956
v 0.091769 0.055635 -0.023164
v 0.046846 0.041749 -0.075594
v 0.104373 0.030702 -0.008606
v 0.108005 0.026307 -0.013306
v 0.104373 0.030702 -0.008606
v 0.104373 0.030702 -0.008606
v -0.000427 0.022401 -0.055055
v -0.075289 0.013550 -0.001862
v -0.070956 0.016236 0.004456
v 0.108005 0.026307 -0.013306
v -0.076083 0.013611 -0.006287
v -0.101505 0.044191 -0.035249
v 0.055788 0.011841 0.019135
v 0.044252 0.013611 0.054659
v 0.002960 0.000397 -0.033357
v 0.079501 0.013611 -0.019105
v -0.071902 0.013611 0.063295
v 0.082949 0.013611 0.027192
v -0.016388 0.031495 -0.041932
v 0.080355 0.021119 -0.039308
v -0.096652 0.036378 -0.028352
v -0.017731 0.009583 -0.063601
v -0.092380 0.052034 -0.041536
v -0.082583 0.036378 -0.026521
v 0.074679 0.027985 -0.011780
v 0.076968 0.043336 -0.029695
v 0.076968 0.043336 -0.029695
v 0.080355 0.021119 -0.039308
v 0.080355 0.021119 -0.039308
v 0.074679 0.027985 -0.011780
v 0.091678 0.025483 -0.037568
v 0.091678 0.025483 -0.037568
v 0.066408 0.020234 -0.067110
v 0.091678 0.025483 -0.037568
v 0.058718 0.028901 -0.039674
v -0.016388 0.031495 -0.041932
v 0.066408 0.020234 -0.067110
v -0.016449 0.030946 -0.086428
v -0.096652 0.036378 -0.028352
v -0.076998 0.015687 -0.003357
v -0.084292 0.013581 0.014252
v -0.088656 0.018983 0.010437
v -0.076266 0.022645 -0.001038
v -0.003204 0.025880 0.045137
v -0.021577 0.020569 0.042573
v 0.004791 0.017853 0.052461
v -0.070956 0.016236 0.004456
v -0.075289 0.013550 -0.001862
v -0.033784 0.020814 0.022553
v -0.027619 0.026399 0.005127
v -0.111850 0.035524 -0.019501
v -0.096652 0.036378 -0.028352
v -0.115360 0.041292 -0.023713
v -0.013581 0.012543 0.049898
v -0.003204 0.025880 0.045137
v 0.002960 0.031465 0.027711
v 0.010956 0.023438 0.035035
v 0.010956 0.023438 0.035035
v -0.001251 0.023682 0.015015
v 0.004791 0.017853 0.052461
v -0.019623 0.018372 0.012452
v -0.059206 0.018433 0.005188
v -0.101566 0.033662 -0.035829
v -0.072451 0.010224 -0.014191
v 0.002960 0.000397 -0.033357
v -0.076998 0.015687 -0.003357
v -0.000427 0.022401 -0.055055
v -0.076998 0.015687 -0.003357
v -0.076266 0.022645 -0.001038
v -0.070956 0.016236 0.004456
v -0.076266 0.022645 -0.001038
v -0.076998 0.015687 -0.003357
v -0.088656 0.018983 0.010437
v -0.103183 0.036287 -0.037721
v 0.003662 0.021668 -0.011261
v -0.076266 0.022645 -0.001038
v -0.088656 0.018983 0.010437
v -0.070956 0.016236 0.004456
v -0.070956 0.016236 0.004456
v -0.084292 0.013581 0.014252
v -0.088656 0.018983 0.010437
v -0.072451 0.010224 -0.014191
v -0.115360 0.041292 -0.023713
v -0.097415 0.028108 -0.049043
v -0.082583 0.036378 -0.026521
v 0.038148 0.020295 -0.007355
v 0.030610 0.022248 0.028138
v 0.015259 0.024964 0.036225
v 0.030610 0.022248 0.028138
v -0.103183 0.036287 -0.037721
v -0.096652 0.036378 -0.028352
v -0.111850 0.035524 -0.019501
v -0.101566 0.033662 -0.035829
v 0.024018 0.031159 0.020142
v 0.003754 0.011994 0.038911
v -0.025788 0.012787 0.029878
v -0.005615 0.014100 0.017548
v 0.014618 0.033265 -0.001221
v -0.003479 0.029206 -0.006531
v -0.070162 0.031495 -0.007050
v 0.000397 0.043580 -0.032655
v -0.070162 0.031495 -0.007050
v 0.003662 0.021668 -0.011261
v 0.000397 0.043580 -0.032655
v -0.012207 0.023011 0.009522
v -0.002838 0.020905 0.030915
v 0.015259 0.024964 0.036225
v -0.005615 0.014100 0.017548
v 0.014618 0.033265 -0.001221
v -0.003479 0.029206 -0.006531
v 0.003143 0.020295 0.001465
v 0.018891 0.020295 -0.008606
v 0.051149 0.020295 0.012146
v 0.044862 0.020295 0.030396
v 0.038148 0.020295 -0.007355
v 0.055788 0.011841 0.019135
v 0.025575 0.020295 0.029145
v 0.044862 0.020295 0.030396
v -0.017731 0.009583 -0.063601
v -0.092380 0.052034 -0.041536
v 0.049501 0.011841 0.037416
v 0.021882 0.016053 0.044221
v -0.027619 0.026399 0.005127
v 0.010956 0.023438 0.035035
v -0.019623 0.018372 0.012452
v 0.003143 0.020295 0.001465
v 0.021241 0.024354 0.006775
v -0.101505 0.044191 -0.035249
v -0.059206 0.018433 0.005188
v -0.115360 0.041292 -0.023713
v -0.115360 0.041292 -0.023713
v -0.103183 0.036287 -0.037721
v 0.002960 0.031465 0.027711
v -0.001251 0.023682 0.015015
v -0.009247 0.031709 0.007691
v 0.030244 0.011841 0.036164
v -0.012207 0.023011 0.009522
v 0.025575 0.020295 0.029145
v 0.012604 0.020295 0.009644
v 0.051149 0.020295 0.012146
v 0.042817 0.011841 -0.000366
v 0.055788 0.011841 0.019135
v -0.097415 0.028108 -0.049043
v -0.103183 0.036287 -0.037721
v -0.021577 0.020569 0.042573
v 0.002960 0.031465 0.027711
v -0.013581 0.012543 0.049898
v -0.009247 0.031709 0.007691
v 0.018891 0.020295 -0.008606
v 0.023530 0.011841 -0.001617
v 0.003754 0.011994 0.038911
v -0.015015 0.052736 -0.064425
v 0.058718 0.028901 -0.039674
v 0.064760 0.043062 -0.058229
v 0.024018 0.031159 0.020142
v -0.096652 0.036378 -0.028352
v -0.101505 0.044191 -0.035249
v 0.023530 0.011841 -0.001617
v 0.017273 0.011841 0.016633
v 0.021241 0.024354 0.006775
v 0.030610 0.022248 0.028138
v -0.101505 0.044191 -0.035249
v -0.016449 0.030946 -0.086428
v 0.030244 0.011841 0.036164
v 0.066408 0.020234 -0.067110
v 0.024018 0.031159 0.020142
v 0.049501 0.011841 0.037416
v 0.021882 0.016053 0.044221
v 0.017273 0.011841 0.016633
v 0.012604 0.020295 0.009644
v 0.051149 0.020295 0.012146
v -0.015015 0.052736 -0.064425
v 0.064760 0.043062 -0.058229
v -0.002838 0.020905 0.030915
v 0.042817 0.011841 -0.000366
v -0.025788 0.012787 0.029878
v -0.033784 0.020814 0.022553
vt 0.379341 0.525065
vt 0.488552 0.524043
vt 0.379341 0.525065
vt 0.799234 0.236269
vt 0.923717 0.403258
vt 0.974971 0.306191
vt 0.295230 0.938255
vt 0.288135 0.914597
vt 0.519095 0.904586
vt 0.296342 0.981963
vt 0.329800 0.931701
vt 0.555949 0.130393
vt 0.637114 0.236269
vt 0.879316 0.127958
vt 0.799234 0.236269
vt 0.279959 0.847260
vt 0.363288 0.881469
vt 0.355172 0.893674
vt 0.281943 0.863583
vt 0.797731 0.024548
vt 0.923717 0.209123
vt 0.974971 0.209123
vt 0.637114 0.236269
vt 0.050623 0.949407
vt 0.046054 0.897852
vt 0.282273 0.866409
vt 0.033969 0.974268
vt 0.069982 0.962965
vt 0.329800 0.931701
vt 0.050623 0.949407
vt 0.281612 0.860937
vt 0.329800 0.931701
vt 0.356494 0.891690
vt 0.096947 0.920819
vt 0.075754 0.908614
vt 0.879316 0.127958
vt 0.555949 0.130393
vt 0.636453 0.024548
vt 0.076836 0.906931
vt 0.029791 0.847260
vt 0.974971 0.403258
vt 0.974971 0.209123
vt 0.923717 0.209123
vt 0.923717 0.014989
vt 0.974971 0.014989
vt 0.923717 0.014989
vt 0.636453 0.024548
vt 0.797731 0.024548
vt 0.799234 0.236269
vt 0.799234 0.236269
vt 0.797731 0.024548
vt 0.555949 0.130393
vt 0.637114 0.236269
vt 0.879316 0.127958
vt 0.636453 0.024548
vt 0.923717 0.597392
vt 0.923717 0.500325
vt 0.974971 0.597392
vt 0.555949 0.130393
vt 0.879316 0.127958
vt 0.637114 0.236269
vt 0.974971 0.403258
vt 0.974971 0.500325
vt 0.923717 0.403258
vt 0.027536 0.943816
vt 0.923717 0.306191
vt 0.298416 0.949407
vt 0.342636 0.918114
vt 0.279929 0.847260
vt 0.340381 0.874736
vt 0.974971 0.403258
vt 0.923717 0.306191
vt 0.923717 0.403258
vt 0.974971 0.500325
vt 0.923717 0.500325
vt 0.974971 0.306191
vt 0.923717 0.306191
vt 0.923717 0.209123
vt 0.974971 0.209123
vt 0.974971 0.014989
vt 0.923717 0.112056
vt 0.636453 0.024548
vt 0.974971 0.112056
vt 0.923717 0.014989
vt 0.797731 0.024548
vt 0.555949 0.130393
vt 0.923717 0.112056
vt 0.879316 0.127958
vt 0.637114 0.236269
vt 0.974971 0.112056
vt 0.799234 0.236269
vt 0.974971 0.014989
vt 0.923717 0.597392
vt 0.273766 0.932814
vt 0.974971 0.597392
vt 0.974971 0.306191
vt 0.974971 0.112056
vt 0.329800 0.931701
vt 0.288135 0.914597
vt 0.357546 0.890067
vt 0.329800 0.931701
vt 0.296342 0.981963
vt 0.288135 0.914597
vt 0.363288 0.881469
vt 0.029791 0.847260
vt 0.363288 0.881469
vt 0.097729 0.874736
vt 0.283566 0.974268
vt 0.315641 0.962965
vt 0.329800 0.931701
vt 0.298416 0.949407
vt 0.292073 0.039008
vt 0.261591 0.064560
vt 0.386435 0.165385
vt 0.147209 0.900197
vt 0.279959 0.847260
vt 0.272954 0.531769
vt 0.382287 0.525817
vt 0.382287 0.525817
vt 0.379010 0.525817
vt 0.270700 0.195596
vt 0.363288 0.881469
vt 0.363288 0.881469
vt 0.050623 0.949407
vt 0.027536 0.943816
vt 0.075754 0.908614
vt 0.069982 0.962965
vt 0.050623 0.949407
vt 0.273766 0.932814
vt 0.295230 0.938255
vt 0.033969 0.974268
vt 0.321293 0.894035
vt 0.273586 0.058487
vt 0.416616 0.141606
vt 0.349430 0.189163
vt 0.799234 0.236269
vt 0.923717 0.112056
vt 0.386435 0.165385
vt 0.797731 0.024548
vt 0.519095 0.292843
vt 0.272954 0.531769
vt 0.382287 0.525817
vt 0.490296 0.524765
vt 0.107919 0.189163
vt 0.019750 0.195596
vt 0.016203 0.049740
vt 0.321293 0.894035
vt 0.275870 0.838602
vt 0.339029 0.865417
vt 0.279959 0.847260
vt 0.277854 0.943816
vt 0.322676 0.905338
vt 0.069982 0.962965
vt 0.294448 0.893704
vt 0.027536 0.943816
vt 0.315641 0.962965
vt 0.322676 0.905338
vt 0.288135 0.914597
vt 0.636453 0.024548
vt 0.107919 0.189163
vt 0.016203 0.049740
vt 0.183373 0.141606
vt 0.292073 0.039008
vt 0.270700 0.195596
vt 0.036675 0.015951
vt 0.421095 0.141606
vt 0.292073 0.039008
vt 0.351745 0.189163
vt 0.384421 0.900197
vt 0.279929 0.847260
vt 0.291111 0.882311
vt 0.107919 0.189163
vt 0.016203 0.049740
vt 0.351745 0.189163
vt 0.887282 0.292843
vt 0.974971 0.500325
vt 0.923717 0.500325
vt 0.974971 0.597392
vt 0.288135 0.914597
vt 0.296342 0.981963
vt 0.277854 0.943816
vt 0.340381 0.874736
vt 0.887282 0.742587
vt 0.027536 0.943816
vt 0.296342 0.981963
vt 0.050623 0.949407
vt 0.288135 0.914597
vt 0.363288 0.881469
vt 0.797731 0.024548
vt 0.298416 0.949407
vt 0.288135 0.914597
vt 0.050623 0.949407
vt 0.329800 0.931701
vt 0.288135 0.914597
vt 0.353759 0.895778
vt 0.313206 0.951481
vt 0.329800 0.931701
vt 0.339029 0.865417
vt 0.342606 0.906690
vt 0.384992 0.890247
vt 0.279748 0.962484
vt 0.363288 0.881469
vt 0.046114 0.895718
vt 0.295230 0.938255
vt 0.097729 0.874736
vt 0.098660 0.919406
vt 0.033969 0.974268
vt 0.097729 0.874736
vt 0.050623 0.949407
vt 0.298416 0.949407
vt 0.923717 0.597392
vt 0.270700 0.195596
vt 0.386435 0.165385
vt 0.033969 0.974268
vt 0.097729 0.874736
vt 0.483653 0.524765
vt 0.269978 0.531769
vt 0.270910 0.195596
vt 0.313206 0.951481
vt 0.279748 0.962484
vt 0.141137 0.525817
vt 0.183373 0.141606
vt 0.258615 0.524765
vt 0.107919 0.189163
vt 0.141137 0.525817
vt 0.019750 0.195596
vt 0.421095 0.141606
vt 0.382287 0.525817
vt 0.018668 0.531769
vt 0.147209 0.900197
vt 0.076836 0.906931
vt 0.283566 0.974268
vt 0.363288 0.881469
vt 0.636453 0.024548
vt 0.797731 0.024548
vt 0.759974 0.904586
vt 0.490296 0.524765
vt 0.636453 0.024548
vt 0.295230 0.938255
vt 0.281342 0.858773
vt 0.050623 0.949407
vt 0.379010 0.525817
vt 0.273586 0.058487
vt 0.069982 0.962965
vt 0.382287 0.525817
vt 0.351745 0.189163
vt 0.490296 0.524765
vt 0.272954 0.531769
vt 0.351745 0.189163
vt 0.270700 0.195596
vt 0.637114 0.236269
vt 0.555949 0.130393
vt 0.879316 0.127958
vt 0.281913 0.047515
vt 0.349430 0.189163
vt 0.265529 0.530867
vt 0.799234 0.236269
vt 0.879316 0.127958
vt 0.637114 0.236269
vt 0.637114 0.236269
vt 0.879316 0.127958
vt 0.555949 0.130393
vt 0.636453 0.024548
vt 0.797731 0.024548
vt 0.490296 0.524765
vt 0.386435 0.165385
vt 0.272954 0.531769
vt 0.382287 0.525817
vt 0.382287 0.525817
vt 0.263245 0.060682
vt 0.266521 0.202931
vt 0.348468 0.196678
vt 0.263245 0.060682
vt 0.418600 0.150294
vt 0.292073 0.039008
vt 0.799234 0.236269
vt 0.282273 0.027705
vt 0.348468 0.196678
vt 0.923717 0.209123
vt 0.974971 0.014989
vt 0.923717 0.014989
vt 0.974971 0.209123
vt 0.923717 0.306191
vt 0.974971 0.306191
vt 0.923717 0.403258
vt 0.974971 0.403258
vt 0.974971 0.500325
vt 0.923717 0.500325
vt 0.974971 0.597392
vt 0.923717 0.597392
vt 0.797731 0.024548
vt 0.555949 0.130393
vt 0.923717 0.112056
vt 0.382287 0.525817
vt 0.974971 0.112056
vt 0.797731 0.024548
vt 0.555949 0.130393
vt 0.016203 0.049740
vt 0.636453 0.024548
vt 0.637114 0.236269
vt 0.879316 0.127958
vt 0.879316 0.127958
vt 0.799234 0.236269
vt 0.799234 0.236269
vt 0.637114 0.236269
vt 0.636453 0.024548
vt 0.555949 0.130393
vt 0.258615 0.524765
vt 0.141137 0.525817
vt 0.018668 0.531769
vt 0.141137 0.525817
vt 0.261591 0.064560
vt 0.923717 0.209123
vt 0.923717 0.112056
vt 0.974971 0.014989
vt 0.292073 0.039008
vt 0.923717 0.597392
vt 0.974971 0.597392
vt 0.974971 0.500325
vt 0.923717 0.500325
vt 0.923717 0.403258
vt 0.974971 0.403258
vt 0.974971 0.306191
vt 0.923717 0.306191
vt 0.974971 0.209123
vt 0.974971 0.112056
vt 0.923717 0.014989
vt 0.261591 0.064560
vt 0.036675 0.015951
vt 0.261591 0.064560
vt 0.292073 0.039008
vt 0.016203 0.049740
vt 0.016203 0.049740
vt 0.490296 0.524765
vt 0.324629 0.926621
vt 0.282965 0.909516
vt 0.036675 0.015951
vt 0.519095 0.292843
vt 0.072928 0.923645
vt 0.923717 0.597392
vt 0.887282 0.746465
vt 0.382287 0.525817
vt 0.519095 0.904586
vt 0.887282 0.292843
vt 0.759974 0.904586
vt 0.018668 0.531769
vt 0.386435 0.165385
vt 0.282965 0.909516
vt 0.382287 0.525817
vt 0.099803 0.880567
vt 0.029791 0.847260
vt 0.270700 0.195596
vt 0.107919 0.189163
vt 0.107919 0.189163
vt 0.386435 0.165385
vt 0.183373 0.141606
vt 0.019750 0.195596
vt 0.022726 0.058487
vt 0.281913 0.047515
vt 0.386435 0.165385
vt 0.022726 0.058487
vt 0.270700 0.195596
vt 0.272954 0.531769
vt 0.386435 0.165385
vt 0.490296 0.524765
vt 0.022786 0.905608
vt 0.335001 0.936812
vt 0.285971 0.971773
vt 0.306743 0.992154
vt 0.072928 0.923645
vt 0.879316 0.127958
vt 0.974971 0.209123
vt 0.923717 0.112056
vt 0.282965 0.909516
vt 0.324629 0.926621
vt 0.636453 0.024548
vt 0.555949 0.130393
vt 0.015752 0.963987
vt 0.022786 0.905608
vt 0.052156 0.984519
vt 0.923717 0.209123
vt 0.974971 0.112056
vt 0.974971 0.014989
vt 0.923717 0.014989
vt 0.797731 0.024548
vt 0.636453 0.024548
vt 0.879316 0.127958
vt 0.555949 0.130393
vt 0.279959 0.847260
vt 0.324629 0.926621
vt 0.363288 0.881469
vt 0.382287 0.525817
vt 0.335001 0.936812
vt 0.258615 0.524765
vt 0.099683 0.942373
vt 0.072928 0.923645
vt 0.022786 0.905608
vt 0.072928 0.923645
vt 0.099683 0.942373
vt 0.052156 0.984519
vt 0.335001 0.936812
vt 0.272954 0.531769
vt 0.072928 0.923645
vt 0.052156 0.984519
vt 0.022786 0.905608
vt 0.022786 0.905608
vt 0.015752 0.963987
vt 0.052156 0.984519
vt 0.147209 0.900197
vt 0.052156 0.984519
vt 0.363288 0.881469
vt 0.279959 0.847260
vt 0.974971 0.500325
vt 0.797731 0.024548
vt 0.974971 0.112056
vt 0.923717 0.014989
vt 0.335001 0.936812
vt 0.282965 0.909516
vt 0.285971 0.971773
vt 0.324629 0.926621
vt 0.799234 0.236269
vt 0.799234 0.236269
vt 0.923717 0.306191
vt 0.637114 0.236269
vt 0.637114 0.236269
vt 0.555949 0.130393
vt 0.099803 0.880567
vt 0.141137 0.525817
vt 0.099803 0.880567
vt 0.018668 0.531769
vt 0.141137 0.525817
vt 0.636453 0.024548
vt 0.797731 0.024548
vt 0.879316 0.127958
vt 0.923717 0.306191
vt 0.974971 0.500325
vt 0.974971 0.403258
vt 0.923717 0.403258
vt 0.555949 0.130393
vt 0.799234 0.236269
vt 0.879316 0.127958
vt 0.637114 0.236269
vt 0.923717 0.014989
vt 0.974971 0.209123
vt 0.974971 0.112056
vt 0.382287 0.525817
vt 0.099803 0.880567
vt 0.923717 0.112056
vt 0.879316 0.127958
vt 0.974971 0.403258
vt 0.923717 0.597392
vt 0.923717 0.403258
vt 0.555949 0.130393
vt 0.636453 0.024548
vt 0.072928 0.923645
vt 0.029791 0.847260
vt 0.052156 0.984519
vt 0.306743 0.992154
vt 0.099683 0.942373
vt 0.974971 0.597392
vt 0.923717 0.500325
vt 0.974971 0.500325
vt 0.797731 0.024548
vt 0.974971 0.306191
vt 0.797731 0.024548
vt 0.636453 0.024548
vt 0.974971 0.014989
vt 0.637114 0.236269
vt 0.799234 0.236269
vt 0.147209 0.900197
vt 0.099683 0.942373
vt 0.797731 0.024548
vt 0.799234 0.236269
vt 0.799234 0.236269
vt 0.637114 0.236269
vt 0.974971 0.403258
vt 0.923717 0.403258
vt 0.923717 0.209123
vt 0.141137 0.525817
vt 0.019750 0.195596
vt 0.107919 0.189163
vt 0.974971 0.014989
vt 0.022786 0.905608
vt 0.072928 0.923645
vt 0.555949 0.130393
vt 0.636453 0.024548
vt 0.923717 0.500325
vt 0.923717 0.597392
vt 0.072928 0.923645
vt 0.258615 0.524765
vt 0.923717 0.209123
vt 0.183373 0.141606
vt 0.974971 0.597392
vt 0.879316 0.127958
vt 0.923717 0.112056
vt 0.923717 0.306191
vt 0.974971 0.306191
vt 0.974971 0.597392
vt 0.141137 0.525817
vt 0.107919 0.189163
vt 0.974971 0.209123
vt 0.923717 0.500325
vt 0.637114 0.236269
vt 0.974971 0.306191
vn 0.076240 0.713362 0.696636
vn -0.135999 0.712257 -0.688618
vn -0.143058 0.579467 -0.802342
vn -0.298216 0.934672 0.193533
vn -0.032896 -0.681296 -0.731269
vn -0.624828 -0.724625 -0.290705
vn 0.279793 0.766875 0.577598
vn -0.164557 -0.833890 0.526829
vn 0.000000 1.000000 0.000000
vn -0.164557 -0.833890 0.526829
vn -0.164557 -0.833890 0.526829
vn 0.000000 1.000000 0.000000
vn 0.000000 1.000000 0.000000
vn 0.000000 1.000000 0.000000
vn 0.000000 1.000000 0.000000
vn 0.112062 -0.834328 0.539758
vn -0.027963 -0.905888 0.422593
vn 0.077101 -0.940237 0.331677
vn 0.138058 -0.951871 0.273646
vn 0.000000 -1.000000 0.000000
vn -0.577143 0.265527 0.772271
vn -0.793073 -0.042552 0.607638
vn 0.000000 -1.000000 0.000000
vn -0.820510 0.378719 -0.428176
vn 0.242107 0.827716 0.506231
vn 0.184899 -0.942857 0.277188
vn -0.764311 0.219881 0.606202
vn -0.764311 0.219881 0.606202
vn 0.275140 -0.925365 0.260764
vn -0.764311 0.219881 0.606202
vn 0.098224 -0.953315 0.285557
vn 0.135396 -0.955577 0.261801
vn 0.024563 -0.943478 0.330523
vn -0.884723 0.333154 -0.325997
vn -0.847187 0.354003 -0.396177
vn 0.000000 -1.000000 0.000000
vn 0.000000 -1.000000 0.000000
vn -0.297823 0.934789 0.193573
vn 0.317883 0.732145 0.602424
vn 0.304857 0.709503 0.635348
vn -0.033394 -0.681037 -0.731487
vn -0.645143 0.243213 0.724319
vn -0.344951 0.477516 0.808076
vn 0.742328 0.619576 0.255098
vn 0.403621 0.758723 0.511302
vn 0.403621 0.758723 0.511302
vn 0.272930 -0.938235 -0.212658
vn 0.273973 -0.937942 -0.212611
vn -0.274269 0.937896 0.212433
vn 0.272161 -0.938700 -0.211589
vn -0.272731 0.938398 0.212198
vn -0.272915 0.938232 0.212694
vn -0.273067 0.938234 0.212487
vn -0.273110 0.938204 0.212568
vn -0.273152 0.938173 0.212648
vn 0.800636 0.352295 -0.484635
vn 0.701810 0.047876 -0.710754
vn 0.800636 0.352295 -0.484635
vn 0.273029 -0.938145 -0.212930
vn 0.273041 -0.938204 -0.212653
vn 0.273152 -0.938173 -0.212648
vn -0.094772 -0.720901 -0.686528
vn 0.484910 -0.275753 -0.829953
vn -0.094815 -0.721060 -0.686354
vn -0.281942 0.422276 0.861505
vn -0.818686 -0.572965 0.038269
vn -0.619963 0.349018 -0.702733
vn -0.720614 0.339799 -0.604361
vn 0.175888 0.736382 0.653304
vn 0.184598 0.719685 0.669310
vn -0.393265 -0.704352 -0.590957
vn -0.916785 -0.245687 0.314870
vn -0.392774 -0.705246 -0.590218
vn 0.345568 -0.478414 -0.807281
vn 0.644825 -0.245285 -0.723903
vn -0.621982 -0.766345 -0.160790
vn -0.774659 -0.605619 0.182012
vn -0.484803 0.274768 0.830343
vn -0.701805 -0.050716 0.710561
vn 0.431528 0.803130 0.410811
vn 0.095393 0.721177 0.686152
vn 0.297933 -0.934720 -0.193738
vn 0.095413 0.720953 0.686384
vn 0.431323 0.803422 0.410454
vn 0.298690 -0.934461 -0.193820
vn 0.297850 -0.934718 -0.193875
vn 0.033358 0.681085 0.731444
vn 0.297878 -0.934755 -0.193655
vn 0.297823 -0.934789 -0.193573
vn 0.033372 0.681268 0.731273
vn 0.297181 -0.935192 -0.192613
vn 0.742591 0.618968 0.255809
vn 0.832651 -0.000927 -0.553798
vn 0.279942 0.766112 0.578537
vn 0.832551 -0.000604 -0.553949
vn -0.878251 -0.478154 0.006693
vn 0.392921 0.704683 0.590792
vn 0.166144 -0.945002 0.281721
vn 0.165909 -0.945511 0.280148
vn 0.102281 -0.939957 0.325605
vn -0.080541 -0.897446 0.433709
vn -0.080541 -0.897446 0.433709
vn -0.080541 -0.897446 0.433709
vn 0.038581 -0.906772 0.419853
vn 0.275931 0.763336 0.584106
vn -0.398810 -0.705946 -0.585312
vn 0.201181 0.814269 0.544512
vn -0.967926 0.231598 -0.097373
vn -0.967926 0.231598 -0.097373
vn -0.300704 -0.814916 0.495469
vn -0.967926 0.231598 -0.097373
vn -0.066308 -0.938423 0.339066
vn -0.032059 -0.718926 0.694347
vn 0.147430 -0.945107 0.291610
vn -0.559824 0.553598 -0.616544
vn 0.175297 -0.833673 0.523699
vn 0.021808 -0.704138 0.709728
vn 0.015293 -0.832846 0.553294
vn -0.118891 -0.722112 -0.681483
vn 0.083257 0.740020 0.667412
vn 0.103135 -0.869706 0.482674
vn -0.289324 -0.701272 -0.651544
vn -0.140755 -0.896598 0.419880
vn 0.444184 0.789117 0.424258
vn 0.373575 0.826512 0.421094
vn 0.335185 0.825225 0.454593
vn -0.765961 0.346925 -0.541246
vn -0.765944 0.346554 -0.541507
vn -0.502787 0.348189 0.791183
vn -0.502787 0.348189 0.791183
vn -0.965834 0.191432 0.174695
vn -0.727665 0.299277 -0.617202
vn 0.696827 0.302841 -0.650169
vn 0.399502 0.356874 -0.844417
vn 0.045724 0.786249 0.616216
vn 0.000000 -1.000000 0.000000
vn 0.392872 0.705066 0.590367
vn 0.063919 -0.730927 -0.679456
vn -0.282207 0.930332 0.234182
vn 0.000000 1.000000 0.000000
vn 0.171817 -0.723025 0.669114
vn 0.127415 -0.789260 0.600694
vn -0.183301 -0.699191 -0.691037
vn 0.121340 0.742210 0.659091
vn 0.088663 0.775612 0.624952
vn 0.036696 0.778998 0.625952
vn 0.219103 0.756282 0.616467
vn 0.149132 0.739045 0.656942
vn 0.154311 0.722117 0.674341
vn 0.066005 -0.821255 0.566730
vn 0.321378 0.753772 0.573187
vn 0.225621 0.744736 0.628063
vn -0.821948 0.362743 -0.439112
vn 0.290161 0.751635 0.592327
vn 0.397456 0.744767 0.536050
vn -0.619966 0.349035 -0.702721
vn -0.655150 0.346602 -0.671301
vn 0.172977 -0.956187 0.236191
vn 0.000000 -1.000000 0.000000
vn 0.246934 0.796930 -0.551295
vn 0.581109 0.714701 -0.389249
vn 0.070533 0.765783 -0.639220
vn 0.037053 -0.737959 0.673828
vn 0.086666 -0.739350 0.667721
vn 0.581082 0.684098 -0.440855
vn 0.117027 -0.677115 -0.726512
vn 0.469306 -0.624069 -0.624732
vn 0.109762 -0.728435 0.676265
vn -0.329046 0.550613 -0.767173
vn -0.028744 -0.821397 0.569632
vn 0.257532 0.763339 0.592445
vn 0.184319 0.805382 -0.563370
vn 0.032942 0.782397 0.621908
vn 0.039003 -0.692592 -0.720274
vn 0.000000 1.000000 0.000000
vn 0.576844 -0.266230 -0.772252
vn 0.792888 0.042143 -0.607909
vn 0.874647 0.335069 -0.350317
vn -0.300704 -0.814916 0.495469
vn -0.300704 -0.814916 0.495469
vn -0.283550 0.566360 0.773845
vn -0.346712 0.346027 -0.871812
vn 0.000000 1.000000 0.000000
vn 0.351979 0.674352 0.649123
vn 0.275140 -0.925365 0.260764
vn 0.351979 0.674352 0.649123
vn 0.275140 -0.925365 0.260764
vn -0.051753 -0.905931 0.420250
vn -0.297181 0.935192 0.192613
vn 0.321414 0.753385 0.573676
vn 0.135275 -0.955894 0.260706
vn 0.397133 0.745760 0.534908
vn 0.173757 -0.955433 0.238654
vn 0.246514 -0.939534 0.237712
vn 0.189012 -0.938108 0.290221
vn -0.701400 0.304128 -0.644627
vn 0.280638 -0.929937 0.237611
vn -0.419675 0.326614 -0.846874
vn -0.769033 0.290021 -0.569627
vn -0.423678 0.535905 -0.730276
vn -0.502787 0.348189 0.791183
vn -0.412435 -0.684353 -0.601298
vn 0.368363 0.741540 0.560738
vn -0.975352 0.075179 0.207452
vn 0.287679 0.725089 0.625689
vn -0.863016 0.326938 -0.385117
vn -0.281942 0.422276 0.861505
vn -0.551174 0.354868 -0.755167
vn -0.281942 0.422276 0.861505
vn -0.283550 0.566360 0.773845
vn 0.874462 0.335410 -0.350452
vn 0.018951 -0.871212 0.490540
vn 0.062260 -0.946555 0.316475
vn 0.351979 0.674352 0.649123
vn -0.599703 0.380330 -0.704064
vn 0.001261 0.627877 -0.778311
vn 0.119987 0.725268 0.677931
vn 0.026720 0.759639 0.649796
vn -0.975352 0.075179 0.207452
vn -0.975352 0.075179 0.207452
vn -0.331412 0.674796 -0.659406
vn 0.005257 0.765971 -0.642853
vn -0.341714 0.703986 -0.622603
vn 0.120559 0.749181 0.651301
vn 0.233131 0.745651 0.624223
vn 0.084618 0.781301 0.618392
vn 0.111057 -0.673824 -0.730499
vn -0.237854 -0.719604 -0.652376
vn 0.204221 0.735155 0.646406
vn -0.512982 0.553391 -0.656207
vn -0.805608 0.340729 -0.484665
vn -0.283550 0.566360 0.773845
vn -0.297644 -0.689124 -0.660694
vn 0.000000 1.000000 0.000000
vn 0.000000 1.000000 0.000000
vn 0.000000 1.000000 0.000000
vn -0.118891 -0.722112 -0.681483
vn -0.282301 0.930135 0.234850
vn -0.701436 0.304327 -0.644494
vn 0.142644 -0.943871 0.297927
vn -0.965834 0.191432 0.174695
vn -0.153714 0.622240 -0.767587
vn 0.041570 0.787056 0.615480
vn -0.965834 0.191432 0.174695
vn 0.188904 -0.785275 0.589626
vn 0.034164 -0.692827 -0.720294
vn -0.181824 -0.708974 -0.681393
vn 0.238158 -0.712380 0.660148
vn 0.174902 -0.720402 0.671141
vn 0.151817 -0.732177 0.663979
vn -0.297460 0.934930 0.193451
vn -0.297613 0.934823 0.193732
vn -0.297642 0.934860 0.193512
vn -0.115484 -0.956012 0.269639
vn 0.286761 0.528217 -0.799222
vn 0.065245 0.733885 0.676133
vn 0.283088 -0.929714 -0.235569
vn -0.282301 0.930135 0.234850
vn 0.283088 -0.929714 -0.235569
vn -0.282301 0.930135 0.234850
vn 0.282648 -0.930024 -0.234876
vn 0.282648 -0.930024 -0.234876
vn 0.282207 -0.930332 -0.234182
vn 0.282207 -0.930332 -0.234182
vn -0.093059 -0.717327 -0.690494
vn 0.104675 -0.704787 -0.701654
vn 0.109457 -0.706548 0.699148
vn -0.093059 -0.717327 -0.690494
vn 0.111620 -0.832273 0.543012
vn -0.110076 0.777375 0.619332
vn -0.058210 0.776847 0.626993
vn -0.029921 0.745423 0.665920
vn 0.596671 0.748028 -0.290580
vn 0.209508 0.549412 -0.808859
vn 0.101538 -0.733162 0.672431
vn -0.282853 0.929879 0.235199
vn 0.619317 0.462309 -0.634600
vn 0.279691 0.434295 -0.856248
vn -0.451771 0.231970 0.861448
vn 0.438353 0.812695 0.383893
vn 0.438353 0.812695 0.383893
vn -0.657983 -0.094821 0.747039
vn -0.743271 -0.627877 0.230906
vn -0.613275 -0.780847 -0.119044
vn -0.114239 -0.712717 -0.692086
vn -0.114239 -0.712717 -0.692086
vn 0.451210 -0.229848 -0.862310
vn 0.657581 0.095593 -0.747295
vn 0.754987 0.389297 -0.527676
vn 0.755365 0.388798 -0.527504
vn -0.333769 0.920729 0.202131
vn -0.282186 0.930150 0.234930
vn 0.113641 0.713895 0.690970
vn -0.243081 -0.707018 -0.664106
vn 0.113641 0.713895 0.690970
vn 0.332404 -0.921065 -0.202847
vn 0.334498 -0.920204 -0.203314
vn 0.529239 0.739063 -0.416765
vn 0.333653 -0.920567 -0.203056
vn 0.334400 -0.920327 -0.202914
vn 0.334027 -0.920447 -0.202985
vn -0.333927 0.920451 0.203131
vn -0.332103 0.921149 0.202959
vn 0.333766 -0.920801 -0.201808
vn -0.333553 0.920571 0.203202
vn -0.334301 0.920331 0.203060
vn -0.334423 0.920207 0.203423
vn -0.282421 0.719227 -0.634784
vn -0.275191 0.677458 -0.682144
vn 0.199725 0.724751 0.659428
vn 0.250875 0.710648 0.657299
vn 0.108031 -0.715560 0.690147
vn -0.086895 0.150314 0.984812
vn 0.464313 0.660661 0.589864
vn 0.658681 0.745644 0.100770
vn 0.465069 -0.605280 -0.646024
vn 0.502228 0.350810 -0.790379
vn 0.502228 0.350810 -0.790379
vn 0.086575 -0.152494 -0.984505
vn 0.328674 0.124393 -0.936216
vn -0.466906 -0.658639 -0.590079
vn -0.466929 -0.658753 -0.589934
vn -0.684475 -0.692367 0.228301
vn -0.623488 -0.543034 0.562473
vn -0.327937 -0.127615 0.936040
vn 0.466106 0.659164 0.590126
vn 0.657308 0.746951 0.100056
vn 0.043859 -0.719494 0.693112
vn 0.528052 0.707909 -0.469069
vn -0.005736 -0.732619 0.680614
vn -0.032962 -0.946439 0.321196
vn 0.571207 0.771549 -0.280061
vn -0.137387 0.760752 0.634335
vn -0.065631 -0.705742 -0.705422
vn 0.052990 -0.960890 0.271815
vn 0.158144 -0.943113 0.292452
vn 0.602326 0.495484 -0.625858
vn 0.000000 1.000000 0.000000
vn -0.034596 0.649257 0.759782
vn 0.832651 -0.000927 -0.553798
vn 0.000000 1.000000 0.000000
vn -0.065631 -0.705742 -0.705422
vn 0.000000 1.000000 0.000000
vn 0.000000 1.000000 0.000000
vn 0.000000 1.000000 0.000000
vn 0.127055 0.726180 0.675663
vn 0.180945 -0.944844 0.273000
vn -0.047994 -0.928287 0.368753
vn -0.109992 -0.722627 -0.682431
vn 0.171515 0.716855 0.675797
vn 0.156606 0.732928 0.662036
vn 0.134200 -0.874803 0.465521
vn -0.055720 0.730671 0.680453
vn 0.263528 0.459914 -0.847958
vn 0.128676 -0.686201 -0.715941
vn 0.189138 0.571772 -0.798313
vn -0.085269 0.761939 0.642011
vn 0.696880 0.303168 -0.649960
vn -0.116349 -0.955978 0.269386
vn 0.062260 -0.946555 0.316475
vn 0.042390 0.787531 0.614815
vn 0.018935 -0.871036 0.490855
vn 0.028843 -0.703735 0.709877
vn 0.064101 -0.730437 -0.679965
vn -0.109992 -0.722627 -0.682431
vn -0.076787 0.654412 0.752229
vn -0.777618 -0.628667 -0.009390
vn -0.186156 -0.977195 -0.102157
vn -0.603348 -0.723063 -0.336380
vn -0.694890 0.292175 -0.657086
vn -0.297823 0.934789 0.193573
vn -0.701805 -0.050716 0.710561
vn 0.095393 0.721177 0.686152
vn 0.316738 -0.931522 0.178730
vn -0.273646 -0.949816 -0.151548
vn -0.297823 0.934789 0.193573
vn -0.297695 0.934787 0.193782
vn 0.339715 0.680644 0.649090
vn 0.338815 0.732121 0.590935
vn 0.339715 0.680644 0.649090
vn -0.484803 0.274768 0.830343
vn 0.095393 0.721177 0.686152
vn 0.431119 0.803714 0.410098
vn 0.431119 0.803714 0.410098
vn 0.298976 -0.934395 -0.193697
vn 0.297823 -0.934789 -0.193573
vn 0.297823 -0.934789 -0.193573
vn 0.297695 -0.934787 -0.193782
vn 0.107532 -0.838025 0.534931
vn -0.147556 -0.927960 0.342225
vn -0.174061 -0.961482 -0.212732
vn 0.142343 -0.839325 0.524664
vn -0.604649 -0.720857 -0.338769
vn -0.162246 0.719974 -0.674770
vn -0.840175 0.251027 -0.480719
vn -0.838703 0.249622 -0.484011
vn -0.156170 0.565024 0.810160
vn -0.138971 0.600797 0.787229
vn -0.694890 0.292175 -0.657086
vn -0.694890 0.292175 -0.657086
vn -0.839165 -0.542720 -0.035454
vn 0.137836 -0.715720 0.684650
vn 0.312278 0.754041 0.577845
vn 0.312278 0.754041 0.577845
vn 0.312278 0.754041 0.577845
vn 0.322618 0.705937 0.630532
vn 0.322618 0.705937 0.630532
vn 0.322618 0.705937 0.630532
vn -0.454872 0.525894 -0.718698
vn 0.338815 0.732121 0.590935
vn -0.252421 -0.954855 -0.156637
vn -0.018562 -0.834078 0.551334
vn 0.344940 -0.477570 -0.808049
vn 0.273973 -0.937942 -0.212611
vn 0.033376 0.681061 0.731466
vn 0.403747 0.758428 0.511640
vn -0.667664 -0.659903 -0.344605
vn 0.185218 -0.956423 0.225720
vn -0.267162 -0.961867 -0.058616
vn -0.359320 -0.925379 -0.120676
vn -0.273117 0.938183 0.212650
vn 0.272235 -0.938606 -0.211914
vn -0.774659 -0.605619 0.182012
vn 0.272741 -0.938337 -0.212455
vn -0.272930 0.938235 0.212658
vn -0.273338 0.938070 0.212863
vn 0.118642 0.710587 0.693534
vn -0.165621 0.587866 -0.791823
vn -0.453302 0.327039 -0.829194
vn 0.041558 0.722722 0.689888
vn 0.052896 0.701632 0.710573
vn -0.273438 0.938093 0.212635
vn -0.272635 0.938520 0.211779
vn -0.273184 0.938164 0.212647
vn -0.819134 -0.572357 0.037772
vn 0.576945 -0.264591 -0.772739
vn -0.032750 -0.680853 -0.731688
vn -0.032841 -0.680944 -0.731599
vn 0.000000 1.000000 0.000000
vn 0.000000 1.000000 0.000000
vn 0.000000 1.000000 0.000000
vn 0.000000 1.000000 0.000000
vn 0.742500 0.619177 0.255564
vn -0.644967 0.244262 0.724122
vn 0.392844 0.705267 0.590146
vn 0.017224 -0.835211 0.549659
vn -0.347379 0.346544 -0.871341
vn 0.393164 0.705424 0.589746
vn 0.272978 -0.938246 -0.212550
vn -0.095393 -0.721177 -0.686152
vn 0.799875 0.355717 -0.483390
vn -0.095393 -0.721177 -0.686152
vn 0.272915 -0.938232 -0.212694
vn 0.273215 -0.938155 -0.212645
vn -0.641582 0.349745 -0.682679
vn 0.079895 0.714259 0.695306
vn -0.641582 0.349745 -0.682679
vn -0.667947 -0.659223 -0.345356
vn -0.641582 0.349745 -0.682679
vn 0.799875 0.355717 -0.483390
vn 0.701805 0.050716 -0.710561
vn 0.484803 -0.274768 -0.830343
vn 0.000000 -1.000000 0.000000
vn -0.624960 -0.724348 -0.291111
vn 0.000000 1.000000 0.000000
vn 0.000000 1.000000 0.000000
vn 0.742591 0.618968 0.255809
vn 0.000000 -1.000000 0.000000
vn 0.000000 -1.000000 0.000000
vn -0.334985 0.537685 -0.773744
vn -0.714245 0.342089 -0.610597
vn -0.297181 0.935192 0.192613
vn -0.298976 0.934395 0.193697
vn 0.297181 -0.935192 -0.192613
vn -0.297823 0.934789 0.193573
vn -0.393265 -0.704352 -0.590957
vn -0.393069 -0.704710 -0.590662
vn -0.576775 0.265923 0.772409
vn 0.086177 0.740345 0.666681
vn 0.026915 0.760178 0.649157
vn 0.046058 0.786817 0.615465
vn 0.403873 0.758133 0.511978
vn 0.339715 0.680644 0.649090
vn -0.714614 0.342503 -0.609933
vn 0.000000 -1.000000 0.000000
vn 0.000000 -1.000000 0.000000
vn 0.792602 0.042133 -0.608281
vn 0.875323 0.332452 -0.351121
vn 0.338815 0.732121 0.590935
vn 0.000998 0.628245 -0.778015
vn -0.345122 0.479415 0.806878
vn 0.399538 0.357280 -0.844228
vn 0.874862 0.333305 -0.351460
vn 0.000000 -1.000000 0.000000
vn 0.033358 0.681085 0.731444
vn -0.916849 -0.245204 0.315060
vn -0.878094 -0.478441 0.006699
vn 0.832351 0.000038 -0.554249
vn -0.155870 0.616164 -0.772041
vn 0.286767 0.528720 -0.798886
vn -0.793083 -0.040922 0.607738
vn 0.644464 -0.244193 -0.724594
vn 0.297823 -0.934789 -0.193573
vn -0.621982 -0.766345 -0.160790
f 181/181/181 210/210/210 232/232/232
f 110/110/110 179/179/179 180/180/180
f 111/111/111 109/109/109 108/108/108
f 184/184/184 186/186/186 214/214/214
f 29/29/29 187/187/187 185/185/185
f 30/30/30 28/28/28 27/27/27
f 241/241/241 244/244/244 131/131/131
f 129/129/129 130/130/130 201/201/201
f 101/101/101 103/103/103 102/102/102
f 204/204/204 219/219/219 220/220/220
f 65/65/65 209/209/209 207/207/207
f 11/11/11 8/8/8 10/10/10
f 90/90/90 46/46/46 45/45/45
f 87/87/87 46/46/46 90/90/90
f 87/87/87 90/90/90 21/21/21
f 21/21/21 90/90/90 22/22/22
f 21/21/21 22/22/22 66/66/66
f 66/66/66 22/22/22 6/6/6
f 66/66/66 6/6/6 5/5/5
f 5/5/5 6/6/6 41/41/41
f 176/176/176 5/5/5 41/41/41
f 177/177/177 5/5/5 176/176/176
f 178/178/178 177/177/177 176/176/176
f 211/211/211 177/177/177 178/178/178
f 47/47/47 48/48/48 60/60/60
f 59/59/59 47/47/47 60/60/60
f 61/61/61 59/59/59 60/60/60
f 50/50/50 61/61/61 60/60/60
f 49/49/49 53/53/53 54/54/54
f 53/53/53 52/52/52 54/54/54
f 52/52/52 55/55/55 54/54/54
f 55/55/55 51/51/51 54/54/54
f 56/56/56 57/57/57 58/58/58
f 58/58/58 57/57/57 63/63/63
f 57/57/57 64/64/64 63/63/63
f 63/63/63 64/64/64 62/62/62
f 64/64/64 76/76/76 62/62/62
f 77/77/77 76/76/76 64/64/64
f 77/77/77 79/79/79 76/76/76
f 78/78/78 79/79/79 77/77/77
f 78/78/78 83/83/83 79/79/79
f 81/81/81 83/83/83 78/78/78
f 81/81/81 84/84/84 83/83/83
f 83/83/83 84/84/84 80/80/80
f 82/82/82 85/85/85 88/88/88
f 86/86/86 82/82/82 88/88/88
f 89/89/89 86/86/86 88/88/88
f 91/91/91 89/89/89 88/88/88
f 97/97/97 44/44/44 92/92/92
f 137/137/137 44/44/44 97/97/97
f 137/137/137 97/97/97 43/43/43
f 43/43/43 97/97/97 42/42/42
f 43/43/43 42/42/42 72/72/72
f 72/72/72 42/42/42 96/96/96
f 72/72/72 96/96/96 73/73/73
f 73/73/73 96/96/96 71/71/71
f 74/74/74 73/73/73 71/71/71
f 75/75/75 73/73/73 74/74/74
f 95/95/95 75/75/75 74/74/74
f 93/93/93 75/75/75 95/95/95
f 94/94/94 171/171/171 7/7/7
f 7/7/7 171/171/171 147/147/147
f 171/171/171 148/148/148 147/147/147
f 147/147/147 148/148/148 149/149/149
f 148/148/148 256/256/256 149/149/149
f 149/149/149 256/256/256 1/1/1
f 256/256/256 272/272/272 1/1/1
f 271/271/271 272/272/272 256/256/256
f 272/272/272 271/271/271 270/270/270
f 23/23/23 136/136/136 36/36/36
f 37/37/37 23/23/23 36/36/36
f 159/159/159 37/37/37 36/36/36
f 20/20/20 159/159/159 36/36/36
f 15/15/15 13/13/13 14/14/14
f 13/13/13 12/12/12 14/14/14
f 12/12/12 234/234/234 14/14/14
f 234/234/234 235/235/235 14/14/14
f 4/4/4 251/251/251 253/253/253
f 251/251/251 252/252/252 253/253/253
f 252/252/252 38/38/38 253/253/253
f 38/38/38 189/189/189 253/253/253
f 233/233/233 237/237/237 119/119/119
f 119/119/119 237/237/237 138/138/138
f 122/122/122 265/265/265 268/268/268
f 268/268/268 265/265/265 266/266/266
f 183/183/183 140/140/140 175/175/175
f 140/140/140 183/183/183 236/236/236
f 140/140/140 236/236/236 9/9/9
f 106/106/106 247/247/247 228/228/228
f 228/228/228 247/247/247 246/246/246
f 246/246/246 247/247/247 227/227/227
f 246/246/246 227/227/227 316/316/316
f 24/24/24 35/35/35 153/153/153
f 153/153/153 35/35/35 34/34/34
f 35/35/35 215/215/215 34/34/34
f 34/34/34 215/215/215 115/115/115
f 215/215/215 221/221/221 115/115/115
f 115/115/115 221/221/221 223/223/223
f 221/221/221 222/222/222 223/223/223
f 172/172/172 222/222/222 221/221/221
f 222/222/222 172/172/172 329/329/329
f 329/329/329 172/172/172 298/298/298
f 151/151/151 154/154/154 190/190/190
f 190/190/190 154/154/154 152/152/152
f 154/154/154 69/69/69 152/152/152
f 152/152/152 69/69/69 70/70/70
f 69/69/69 217/217/217 70/70/70
f 70/70/70 217/217/217 120/120/120
f 217/217/217 218/218/218 120/120/120
f 120/120/120 218/218/218 135/135/135
f 135/135/135 218/218/218 243/243/243
f 191/191/191 32/32/32 31/31/31
f 31/31/31 32/32/32 33/33/33
f 31/31/31 33/33/33 170/170/170
f 170/170/170 33/33/33 123/123/123
f 118/118/118 170/170/170 123/123/123
f 117/117/117 170/170/170 118/118/118
f 117/117/117 118/118/118 212/212/212
f 212/212/212 118/118/118 213/213/213
f 212/212/212 213/213/213 254/254/254
f 67/67/67 157/157/157 156/156/156
f 156/156/156 157/157/157 68/68/68
f 157/157/157 182/182/182 68/68/68
f 68/68/68 182/182/182 169/169/169
f 182/182/182 242/242/242 169/169/169
f 169/169/169 242/242/242 216/216/216
f 242/242/242 255/255/255 216/216/216
f 216/216/216 255/255/255 134/134/134
f 134/134/134 255/255/255 133/133/133
f 155/155/155 203/203/203 192/192/192
f 192/192/192 203/203/203 39/39/39
f 203/203/203 40/40/40 39/39/39
f 39/39/39 40/40/40 205/205/205
f 205/205/205 40/40/40 311/311/311
f 311/311/311 40/40/40 310/310/310
f 310/310/310 144/144/144 311/311/311
f 145/145/145 144/144/144 310/310/310
f 144/144/144 145/145/145 146/146/146
f 158/158/158 193/193/193 19/19/19
f 19/19/19 193/193/193 18/18/18
f 19/19/19 18/18/18 16/16/16
f 16/16/16 18/18/18 17/17/17
f 17/17/17 142/142/142 16/16/16
f 16/16/16 142/142/142 141/141/141
f 142/142/142 168/168/168 141/141/141
f 141/141/141 168/168/168 164/164/164
f 168/168/168 163/163/163 164/164/164
f 164/164/164 163/163/163 328/328/328
f 128/128/128 231/231/231 127/127/127
f 127/127/127 231/231/231 206/206/206
f 231/231/231 208/208/208 206/206/206
f 206/206/206 208/208/208 230/230/230
f 208/208/208 309/309/309 230/230/230
f 230/230/230 309/309/309 308/308/308
f 309/309/309 162/162/162 308/308/308
f 160/160/160 162/162/162 309/309/309
f 162/162/162 160/160/160 165/165/165
f 165/165/165 160/160/160 161/161/161
f 99/99/99 98/98/98 240/240/240
f 240/240/240 98/98/98 100/100/100
f 240/240/240 100/100/100 150/150/150
f 150/150/150 100/100/100 188/188/188
f 188/188/188 269/269/269 150/150/150
f 150/150/150 269/269/269 267/267/267
f 267/267/267 269/269/269 121/121/121
f 121/121/121 269/269/269 114/114/114
f 114/114/114 112/112/112 121/121/121
f 121/121/121 112/112/112 113/113/113
f 239/239/239 132/132/132 196/196/196
f 196/196/196 132/132/132 199/199/199
f 132/132/132 198/198/198 199/199/199
f 199/199/199 198/198/198 200/200/200
f 198/198/198 3/3/3 200/200/200
f 200/200/200 3/3/3 2/2/2
f 3/3/3 274/274/274 2/2/2
f 278/278/278 274/274/274 3/3/3
f 274/274/274 278/278/278 277/277/277
f 277/277/277 278/278/278 273/273/273
f 197/197/197 195/195/195 194/194/194
f 194/194/194 195/195/195 26/26/26
f 26/26/26 195/195/195 116/116/116
f 116/116/116 195/195/195 104/104/104
f 104/104/104 245/245/245 116/116/116
f 116/116/116 245/245/245 248/248/248
f 245/245/245 249/249/249 248/248/248
f 248/248/248 249/249/249 250/250/250
f 249/249/249 275/275/275 250/250/250
f 250/250/250 275/275/275 312/312/312
f 124/124/124 125/125/125 126/126/126
f 126/126/126 125/125/125 25/25/25
f 126/126/126 25/25/25 107/107/107
f 107/107/107 25/25/25 105/105/105
f 107/107/107 105/105/105 225/225/225
f 225/225/225 105/105/105 229/229/229
f 229/229/229 224/224/224 225/225/225
f 226/226/226 224/224/224 229/229/229
f 224/224/224 226/226/226 173/173/173
f 202/202/202 143/143/143 294/294/294
f 294/294/294 143/143/143 174/174/174
f 174/174/174 143/143/143 166/166/166
f 174/174/174 166/166/166 167/167/167
f 238/238/238 139/139/139 258/258/258
f 292/292/292 238/238/238 258/258/258
f 260/260/260 292/292/292 258/258/258
f 276/276/276 260/260/260 258/258/258
f 306/306/306 291/291/291 302/302/302
f 307/307/307 306/306/306 302/302/302
f 305/305/305 307/307/307 302/302/302
f 303/303/303 305/305/305 302/302/302
f 290/290/290 288/288/288 289/289/289
f 289/289/289 288/288/288 287/287/287
f 288/288/288 285/285/285 287/287/287
f 287/287/287 285/285/285 286/286/286
f 285/285/285 284/284/284 286/286/286
f 283/283/283 284/284/284 285/285/285
f 283/283/283 282/282/282 284/284/284
f 279/279/279 282/282/282 283/283/283
f 279/279/279 295/295/295 282/282/282
f 293/293/293 295/295/295 279/279/279
f 293/293/293 281/281/281 295/295/295
f 295/295/295 281/281/281 280/280/280
f 299/299/299 296/296/296 301/301/301
f 297/297/297 299/299/299 301/301/301
f 300/300/300 297/297/297 301/301/301
f 304/304/304 300/300/300 301/301/301
f 317/317/317 320/320/320 318/318/318
f 318/318/318 320/320/320 319/319/319
f 320/320/320 321/321/321 319/319/319
f 319/319/319 321/321/321 322/322/322
f 321/321/321 323/323/323 322/322/322
f 324/324/324 323/323/323 321/321/321
f 324/324/324 325/325/325 323/323/323
f 313/313/313 325/325/325 324/324/324
f 313/313/313 326/326/326 325/325/325
f 314/314/314 326/326/326 313/313/313
f 314/314/314 327/327/327 326/326/326
f 326/326/326 327/327/327 315/315/315
f 263/263/263 264/264/264 261/261/261
f 262/262/262 263/263/263 261/261/261
f 259/259/259 262/262/262 261/261/261
f 257/257/257 259/259/259 261/261/261
f 370/370/370 399/399/399 400/400/400
f 406/406/406 408/408/408 407/407/407
f 403/403/403 404/404/404 405/405/405
f 455/455/455 459/459/459 457/457/457
f 483/483/483 380/380/380 378/378/378
f 489/489/489 410/410/410 379/379/379
f 340/340/340 502/502/502 498/498/498
f 498/498/498 502/502/502 413/413/413
f 502/502/502 477/477/477 413/413/413
f 413/413/413 477/477/477 476/476/476
f 477/477/477 497/497/497 476/476/476
f 496/496/496 497/497/497 477/477/477
f 496/496/496 444/444/444 497/497/497
f 491/491/491 444/444/444 496/496/496
f 491/491/491 445/445/445 444/444/444
f 448/448/448 445/445/445 491/491/491
f 448/448/448 443/443/443 445/445/445
f 445/445/445 443/443/443 467/467/467
f 339/339/339 366/366/366 350/350/350
f 350/350/350 366/366/366 351/351/351
f 351/351/351 346/346/346 350/350/350
f 350/350/350 346/346/346 479/479/479
f 346/346/346 480/480/480 479/479/479
f 479/479/479 480/480/480 481/481/481
f 481/481/481 480/480/480 361/361/361
f 411/411/411 365/365/365 349/349/349
f 349/349/349 365/365/365 364/364/364
f 341/341/341 338/338/338 344/344/344
f 338/338/338 341/341/341 345/345/345
f 338/338/338 345/345/345 343/343/343
f 352/352/352 331/331/331 330/330/330
f 347/347/347 331/331/331 352/352/352
f 352/352/352 392/392/392 347/347/347
f 402/402/402 392/392/392 352/352/352
f 389/389/389 392/392/392 402/402/402
f 391/391/391 392/392/392 389/389/389
f 389/389/389 335/335/335 391/391/391
f 335/335/335 367/367/367 391/391/391
f 336/336/336 335/335/335 389/389/389
f 337/337/337 354/354/354 332/332/332
f 356/356/356 354/354/354 337/337/337
f 354/354/354 356/356/356 428/428/428
f 428/428/428 356/356/356 394/394/394
f 409/409/409 428/428/428 394/394/394
f 429/429/429 428/428/428 409/409/409
f 395/395/395 429/429/429 409/409/409
f 396/396/396 429/429/429 395/395/395
f 353/353/353 357/357/357 333/333/333
f 357/357/357 353/353/353 430/430/430
f 430/430/430 353/353/353 431/431/431
f 427/427/427 430/430/430 431/431/431
f 456/456/456 430/430/430 427/427/427
f 398/398/398 456/456/456 427/427/427
f 397/397/397 456/456/456 398/398/398
f 348/348/348 390/390/390 412/412/412
f 412/412/412 390/390/390 411/411/411
f 446/446/446 412/412/412 411/411/411
f 363/363/363 412/412/412 446/446/446
f 363/363/363 446/446/446 362/362/362
f 362/362/362 446/446/446 360/360/360
f 362/362/362 360/360/360 359/359/359
f 390/390/390 401/401/401 411/411/411
f 342/342/342 334/334/334 355/355/355
f 391/391/391 334/334/334 342/342/342
f 492/492/492 500/500/500 358/358/358
f 490/490/490 500/500/500 492/492/492
f 499/499/499 500/500/500 490/490/490
f 470/470/470 499/499/499 490/490/490
f 447/447/447 499/499/499 470/470/470
f 471/471/471 447/447/447 470/470/470
f 484/484/484 447/447/447 471/471/471
f 393/393/393 375/375/375 369/369/369
f 369/369/369 375/375/375 368/368/368
f 375/375/375 374/374/374 368/368/368
f 417/417/417 420/420/420 458/458/458
f 458/458/458 420/420/420 419/419/419
f 420/420/420 418/418/418 419/419/419
f 463/463/463 486/486/486 494/494/494
f 486/486/486 485/485/485 494/494/494
f 485/485/485 468/468/468 494/494/494
f 468/468/468 469/469/469 494/494/494
f 488/488/488 487/487/487 493/493/493
f 493/493/493 487/487/487 436/436/436
f 487/487/487 438/438/438 436/436/436
f 436/436/436 438/438/438 437/437/437
f 438/438/438 464/464/464 437/437/437
f 435/435/435 464/464/464 438/438/438
f 435/435/435 501/501/501 464/464/464
f 478/478/478 501/501/501 435/435/435
f 478/478/478 415/415/415 501/501/501
f 495/495/495 415/415/415 478/478/478
f 495/495/495 416/416/416 415/415/415
f 415/415/415 416/416/416 482/482/482
f 466/466/466 465/465/465 441/441/441
f 439/439/439 466/466/466 441/441/441
f 442/442/442 439/439/439 441/441/441
f 440/440/440 442/442/442 441/441/441
f 454/454/454 414/414/414 449/449/449
f 453/453/453 454/454/454 449/449/449
f 424/424/424 453/453/453 449/449/449
f 422/422/422 424/424/424 449/449/449
f 376/376/376 472/472/472 371/371/371
f 377/377/377 376/376/376 371/371/371
f 475/475/475 377/377/377 371/371/371
f 473/473/473 475/475/475 371/371/371
f 474/474/474 503/503/503 387/387/387
f 503/503/503 388/388/388 387/387/387
f 388/388/388 386/386/386 387/387/387
f 386/386/386 385/385/385 387/387/387
f 382/382/382 384/384/384 383/383/383
f 373/373/373 384/384/384 382/382/382
f 373/373/373 382/382/382 381/381/381
f 381/381/381 382/382/382 372/372/372
f 381/381/381 372/372/372 423/423/423
f 423/423/423 372/372/372 504/504/504
f 423/423/423 504/504/504 452/452/452
f 452/452/452 504/504/504 450/450/450
f 462/462/462 452/452/452 450/450/450
f 461/461/461 452/452/452 462/462/462
f 460/460/460 461/461/461 462/462/462
f 451/451/451 461/461/461 460/460/460
f 421/421/421 425/425/425 434/434/434
f 425/425/425 426/426/426 434/434/434
f 426/426/426 432/432/432 434/434/434
f 432/432/432 433/433/433 434/434/434
