# Exported by s4extract — object_Food_PlateFork_Multi_lod00_g02
o object_Food_PlateFork_Multi_lod00_g02
v -0.082888 0.000000 0.053163
v -0.058443 0.041963 0.115299
v 0.114841 0.000000 0.000000
v -0.155370 0.039735 -0.072390
v -0.155370 0.039735 0.072024
v -0.114841 0.000000 0.000000
v -0.182653 0.039735 0.038057
v -0.192053 0.039735 0.000000
v -0.182653 0.039735 -0.038057
v -0.112888 0.039735 -0.099612
v -0.111148 0.041963 0.097873
v 0.111148 0.041963 0.098086
v -0.114841 0.000000 0.000000
v 0.112888 0.039735 0.099612
v 0.152989 0.041963 0.071261
v 0.155370 0.039735 0.072390
v -0.082888 0.000000 -0.053163
v 0.000000 0.000000 0.073611
v 0.000000 0.000000 -0.073611
v 0.082888 0.000000 -0.053163
v 0.059359 0.039735 -0.117100
v -0.112888 0.039735 -0.099612
v 0.000000 0.039735 0.123142
v -0.112888 0.039735 0.099551
v -0.082369 0.011841 0.052797
v 0.189093 0.041963 0.000000
v 0.179846 0.041963 0.037477
v 0.155370 0.039735 -0.072390
v -0.082888 0.000000 -0.053163
v -0.059359 0.039735 -0.117100
v 0.058443 0.041963 -0.115299
v 0.000000 0.041963 -0.121250
v -0.111148 0.041963 -0.098086
v -0.179846 0.041963 0.037477
v 0.000000 0.000000 0.073611
v 0.112888 0.039735 -0.099612
v 0.111148 0.041963 -0.098086
v 0.152989 0.041963 -0.071261
v -0.111148 0.041963 0.097873
v -0.189093 0.041963 0.000000
v -0.182653 0.039735 0.038057
v 0.059359 0.039735 0.114902
v -0.114841 0.011841 0.000000
v 0.058443 0.041963 0.112278
v 0.179846 0.041963 0.037477
v -0.082369 0.011841 -0.052797
v -0.152989 0.041963 -0.071261
v 0.082369 0.011841 0.052797
v 0.179846 0.041963 -0.037477
v -0.179846 0.041963 -0.037477
v -0.189093 0.041963 0.000000
v -0.179846 0.041963 0.037477
v -0.152989 0.041963 0.070406
v -0.152989 0.041963 0.070406
v -0.155370 0.039735 0.072024
v -0.179846 0.041963 -0.037477
v -0.155370 0.039735 -0.072390
v -0.182653 0.039735 -0.038057
v -0.152989 0.041963 -0.071261
v -0.058443 0.041963 -0.115299
v -0.192053 0.039735 0.000000
v 0.082888 0.000000 -0.053163
v 0.000000 0.011841 -0.073611
v 0.111148 0.041963 -0.098086
v 0.058443 0.041963 -0.115299
v 0.192053 0.039735 0.000000
v 0.155370 0.039735 -0.072390
v 0.182653 0.039735 -0.038057
v 0.182653 0.039735 0.038057
v 0.059359 0.039735 0.114902
v 0.114841 0.000000 0.000000
v 0.155370 0.039735 0.072390
v 0.112888 0.039735 0.099612
v 0.082888 0.000000 0.053163
v -0.082888 0.000000 0.053163
v -0.112888 0.039735 0.099551
v -0.059359 0.039735 0.117100
v -0.058443 0.041963 -0.115299
v -0.111148 0.041963 -0.098086
v 0.000000 0.041963 -0.121250
v 0.182653 0.039735 0.038057
v 0.192053 0.039735 0.000000
v 0.000000 0.041963 0.121250
v 0.000000 0.011841 0.073611
v 0.058443 0.041963 0.112278
v 0.111148 0.041963 0.098086
v 0.082888 0.000000 0.053163
v 0.179846 0.041963 -0.037477
v 0.182653 0.039735 -0.038057
v 0.189093 0.041963 0.000000
v 0.000000 0.000000 -0.073611
v 0.112888 0.039735 -0.099612
v -0.058443 0.041963 0.115299
v 0.000000 0.041963 0.121250
v 0.082369 0.011841 -0.052797
v 0.114841 0.011841 0.000000
v 0.152989 0.041963 -0.071261
v 0.152989 0.041963 0.071261
v 0.000000 0.039735 0.123142
v -0.059359 0.039735 0.117100
v 0.059359 0.039735 -0.117100
v 0.000000 0.039735 -0.123142
v -0.059359 0.039735 -0.117100
v 0.000000 0.039735 -0.123142
v 0.000000 0.041963 0.109684
v 0.000000 0.000000 0.066591
v 0.000000 0.011841 0.066591
v 0.043062 0.041963 0.101535
v 0.043733 0.039735 -0.105930
v 0.000000 0.000000 -0.066591
v -0.061098 0.000000 -0.048067
v -0.134587 0.039735 0.034425
v -0.141514 0.039735 0.000000
v -0.083193 0.039735 -0.090121
v -0.083193 0.039735 -0.090121
v -0.081912 0.041963 0.088534
v 0.081912 0.041963 0.088717
v -0.114505 0.039735 -0.065462
v 0.083193 0.039735 0.090121
v 0.112735 0.041963 0.064455
v 0.114505 0.039735 0.065462
v -0.084597 0.000000 0.000000
v 0.061098 0.000000 -0.048067
v -0.061098 0.000000 -0.048067
v -0.134587 0.039735 -0.034425
v 0.114505 0.039735 -0.065462
v 0.083193 0.039735 -0.090121
v 0.000000 0.039735 0.111393
v -0.083193 0.039735 0.090060
v 0.043733 0.039735 0.103916
v 0.114505 0.039735 0.065462
v 0.083193 0.039735 0.090121
v 0.084597 0.000000 0.000000
v 0.061098 0.000000 -0.048067
v 0.043062 0.041963 0.101535
v 0.000000 0.041963 0.109684
v 0.043733 0.039735 0.103916
v 0.081912 0.041963 0.088717
v 0.132511 0.041963 -0.033876
v 0.060701 0.011841 0.047761
v 0.134587 0.039735 0.034425
v -0.043062 0.041963 0.104312
v 0.141514 0.039735 0.000000
v 0.134587 0.039735 -0.034425
v -0.043733 0.039735 0.105930
v 0.000000 0.039735 0.111393
v 0.132511 0.041963 -0.033876
v 0.043062 0.041963 -0.104312
v 0.081912 0.041963 -0.088717
v 0.000000 0.011841 -0.066591
v 0.000000 0.041963 -0.109684
v -0.043062 0.041963 -0.104312
v -0.061098 0.000000 0.048067
v -0.083193 0.039735 0.090060
v -0.114505 0.039735 0.065157
v 0.000000 0.000000 0.066591
v -0.043733 0.039735 0.105930
v 0.061098 0.000000 0.048067
v -0.112735 0.041963 0.063692
v -0.114505 0.039735 0.065157
v -0.132511 0.041963 -0.033876
v -0.114505 0.039735 -0.065462
v -0.134587 0.039735 -0.034425
v -0.112735 0.041963 -0.064455
v 0.132511 0.041963 0.033876
v -0.043062 0.041963 0.104312
v -0.043062 0.041963 -0.104312
v -0.139348 0.041963 0.000000
v -0.141514 0.039735 0.000000
v 0.000000 0.000000 -0.066591
v 0.081912 0.041963 -0.088717
v -0.134587 0.039735 0.034425
v 0.114505 0.039735 -0.065462
v 0.112735 0.041963 -0.064455
v 0.083193 0.039735 -0.090121
v 0.139348 0.041963 0.000000
v -0.132511 0.041963 0.033876
v 0.132511 0.041963 0.033876
v -0.060701 0.011841 0.047761
v -0.112735 0.041963 0.063692
v -0.139348 0.041963 0.000000
v -0.084597 0.011841 0.000000
v -0.132511 0.041963 -0.033876
v 0.112735 0.041963 0.064455
v 0.112735 0.041963 -0.064455
v 0.084597 0.011841 0.000000
v 0.060701 0.011841 -0.047761
v -0.060701 0.011841 -0.047761
v -0.112735 0.041963 -0.064455
v 0.084597 0.000000 0.000000
v -0.061098 0.000000 0.048067
v 0.061098 0.000000 0.048067
v -0.043733 0.039735 -0.105930
v 0.000000 0.039735 -0.111393
v -0.043733 0.039735 -0.105930
v -0.081912 0.041963 0.088534
v 0.141514 0.039735 0.000000
v 0.134587 0.039735 -0.034425
v -0.081912 0.041963 -0.088717
v -0.132511 0.041963 0.033876
v -0.084597 0.000000 0.000000
v -0.081912 0.041963 -0.088717
v 0.139348 0.041963 0.000000
v 0.134587 0.039735 0.034425
v 0.043733 0.039735 -0.105930
v 0.043062 0.041963 -0.104312
v 0.000000 0.041963 -0.109684
v 0.000000 0.039735 -0.111393
vt 0.287369 0.288878
vt 0.351773 0.034761
vt 0.803484 0.499979
vt 0.099633 0.792063
vt 0.099633 0.207985
vt 0.204012 0.500040
vt 0.028688 0.346468
vt 0.004259 0.500009
vt 0.028688 0.653551
vt 0.210157 0.901979
vt 0.214660 0.104245
vt 0.792806 0.104245
vt 0.204012 0.500040
vt 0.797338 0.098070
vt 0.901596 0.212458
vt 0.907832 0.207985
vt 0.287339 0.711201
vt 0.503763 0.207529
vt 0.503733 0.792489
vt 0.720127 0.711140
vt 0.658095 0.972559
vt 0.210157 0.901979
vt 0.503733 0.003152
vt 0.210157 0.098070
vt 0.289529 0.286931
vt 0.988025 0.500009
vt 0.971476 0.348841
vt 0.907832 0.792063
vt 0.287339 0.711201
vt 0.349400 0.972559
vt 0.655723 0.965288
vt 0.503733 0.989231
vt 0.214660 0.895773
vt 0.036020 0.348841
vt 0.503763 0.207529
vt 0.797338 0.901979
vt 0.792806 0.895773
vt 0.901596 0.787561
vt 0.214660 0.104245
vt 0.011926 0.500009
vt 0.028688 0.346468
vt 0.658095 0.027490
vt 0.205107 0.500009
vt 0.655723 0.034761
vt 0.971476 0.348841
vt 0.289529 0.713087
vt 0.105870 0.787561
vt 0.717967 0.286931
vt 0.971476 0.651178
vt 0.036020 0.651178
vt 0.011926 0.500009
vt 0.036020 0.348841
vt 0.105870 0.212458
vt 0.105870 0.212458
vt 0.099633 0.207985
vt 0.036020 0.651178
vt 0.099633 0.792063
vt 0.028688 0.653551
vt 0.105870 0.787561
vt 0.351773 0.965288
vt 0.004259 0.500009
vt 0.720127 0.711140
vt 0.503733 0.797053
vt 0.792806 0.895773
vt 0.655723 0.965288
vt 0.995722 0.500009
vt 0.907832 0.792063
vt 0.978777 0.653551
vt 0.978777 0.346468
vt 0.658095 0.027490
vt 0.803484 0.499979
vt 0.907832 0.207985
vt 0.797338 0.098070
vt 0.720157 0.288818
vt 0.287369 0.288878
vt 0.210157 0.098070
vt 0.349400 0.027490
vt 0.351773 0.965288
vt 0.214660 0.895773
vt 0.503733 0.989231
vt 0.978777 0.346468
vt 0.995722 0.500009
vt 0.503733 0.010818
vt 0.503733 0.202966
vt 0.655723 0.034761
vt 0.792806 0.104245
vt 0.720157 0.288818
vt 0.971476 0.651178
vt 0.978777 0.653551
vt 0.988025 0.500009
vt 0.503733 0.792489
vt 0.797338 0.901979
vt 0.351773 0.034761
vt 0.503733 0.010818
vt 0.717967 0.713087
vt 0.802358 0.500009
vt 0.901596 0.787561
vt 0.901596 0.212458
vt 0.503733 0.003152
vt 0.349400 0.027490
vt 0.658095 0.972559
vt 0.503733 0.996867
vt 0.349400 0.972559
vt 0.503733 0.996867
vt 0.503733 0.010818
vt 0.503763 0.202692
vt 0.503733 0.202966
vt 0.655723 0.034761
vt 0.658095 0.972559
vt 0.503733 0.797327
vt 0.290381 0.714700
vt 0.028688 0.346468
vt 0.004259 0.500009
vt 0.210157 0.901979
vt 0.210157 0.901979
vt 0.214660 0.104245
vt 0.792806 0.104245
vt 0.099633 0.792063
vt 0.797338 0.098070
vt 0.901596 0.212458
vt 0.907832 0.207985
vt 0.208241 0.500040
vt 0.717054 0.714669
vt 0.290381 0.714700
vt 0.028688 0.653551
vt 0.907832 0.792063
vt 0.797338 0.901979
vt 0.503733 0.003152
vt 0.210157 0.098070
vt 0.658095 0.027490
vt 0.907832 0.207985
vt 0.797338 0.098070
vt 0.799225 0.499979
vt 0.717054 0.714669
vt 0.655723 0.034761
vt 0.503733 0.010818
vt 0.658095 0.027490
vt 0.792806 0.104245
vt 0.971476 0.651178
vt 0.717967 0.286931
vt 0.978777 0.346468
vt 0.351773 0.034761
vt 0.995722 0.500009
vt 0.978777 0.653551
vt 0.349400 0.027490
vt 0.503733 0.003152
vt 0.971476 0.651178
vt 0.655723 0.965288
vt 0.792806 0.895773
vt 0.503733 0.797053
vt 0.503733 0.989231
vt 0.351773 0.965288
vt 0.290411 0.285380
vt 0.210157 0.098070
vt 0.099633 0.207985
vt 0.503763 0.202692
vt 0.349400 0.027490
vt 0.717084 0.285349
vt 0.105870 0.212458
vt 0.099633 0.207985
vt 0.036020 0.651178
vt 0.099633 0.792063
vt 0.028688 0.653551
vt 0.105870 0.787561
vt 0.971476 0.348841
vt 0.351773 0.034761
vt 0.351773 0.965288
vt 0.011926 0.500009
vt 0.004259 0.500009
vt 0.503733 0.797327
vt 0.792806 0.895773
vt 0.028688 0.346468
vt 0.907832 0.792063
vt 0.901596 0.787561
vt 0.797338 0.901979
vt 0.988025 0.500009
vt 0.036020 0.348841
vt 0.971476 0.348841
vt 0.289529 0.286931
vt 0.105870 0.212458
vt 0.011926 0.500009
vt 0.205107 0.500009
vt 0.036020 0.651178
vt 0.901596 0.212458
vt 0.901596 0.787561
vt 0.802358 0.500009
vt 0.717967 0.713087
vt 0.289529 0.713087
vt 0.105870 0.787561
vt 0.799225 0.499979
vt 0.290411 0.285380
vt 0.717084 0.285349
vt 0.349400 0.972559
vt 0.503733 0.996867
vt 0.349400 0.972559
vt 0.214660 0.104245
vt 0.995722 0.500009
vt 0.978777 0.653551
vt 0.214660 0.895773
vt 0.036020 0.348841
vt 0.208241 0.500040
vt 0.214660 0.895773
vt 0.988025 0.500009
vt 0.978777 0.346468
vt 0.658095 0.972559
vt 0.655723 0.965288
vt 0.503733 0.989231
vt 0.503733 0.996867
vn 0.000000 -1.000000 0.000000
vn 0.111672 0.865090 -0.489028
vn 0.000000 -1.000000 0.000000
vn -0.372206 -0.867495 -0.330024
vn -0.372826 -0.866951 0.330751
vn -0.420312 -0.907380 0.000000
vn -0.405725 -0.890329 0.206645
vn -0.457586 -0.889165 0.000000
vn -0.406175 -0.890313 -0.205827
vn -0.330732 0.696003 -0.637336
vn -0.278135 0.698276 0.659585
vn 0.245285 0.723701 0.645052
vn 0.000000 -1.000000 0.000000
vn 0.323431 0.694205 0.643018
vn 0.425772 0.726811 0.538947
vn 0.470072 0.743023 0.476392
vn 0.000000 -1.000000 0.000000
vn 0.000000 -1.000000 0.000000
vn 0.000000 -1.000000 0.000000
vn 0.000000 -1.000000 0.000000
vn 0.130408 -0.803715 -0.580548
vn -0.247890 -0.809431 -0.532328
vn 0.011581 -0.779972 0.625708
vn -0.317385 0.731784 0.603124
vn 0.090530 0.982963 -0.159961
vn -0.375917 0.926653 0.000000
vn -0.332745 0.927826 -0.168581
vn 0.470072 0.743023 -0.476392
vn -0.262854 -0.843500 -0.468418
vn -0.179157 0.661568 -0.728170
vn 0.127642 0.654533 -0.745180
vn -0.000000 0.647345 -0.762197
vn -0.280560 0.682159 -0.675237
vn -0.530569 0.784010 0.322220
vn 0.004583 -0.804924 0.593360
vn 0.330732 0.696003 -0.637336
vn 0.280560 0.682159 -0.675237
vn 0.425772 0.726811 -0.538947
vn 0.211747 0.869651 -0.445950
vn -0.601930 0.798549 0.000000
vn -0.572098 0.784295 0.239969
vn 0.148086 0.745286 0.650092
vn 0.164010 0.986459 0.000000
vn 0.121785 0.740226 0.661236
vn 0.544679 0.772282 0.326965
vn 0.089831 0.983041 0.159877
vn 0.305602 0.912296 0.272624
vn -0.126555 0.964646 -0.231175
vn -0.332745 0.927826 0.168581
vn 0.332745 0.927826 0.168581
vn 0.375917 0.926653 0.000000
vn 0.331846 0.927859 -0.170166
vn 0.306928 0.911341 -0.274323
vn -0.400129 0.764134 0.505960
vn -0.443025 0.773445 0.453334
vn -0.544679 0.772282 -0.326965
vn -0.470072 0.743023 -0.476392
vn -0.572303 0.784364 -0.239254
vn -0.425772 0.726811 -0.538947
vn -0.127642 0.654533 -0.745180
vn -0.601317 0.799010 0.000000
vn 0.262854 -0.843500 -0.468418
vn -0.000000 0.907242 0.420609
vn -0.208017 0.870220 0.446595
vn -0.111098 0.865250 0.488876
vn 0.457586 -0.889165 0.000000
vn 0.372206 -0.867495 -0.330024
vn 0.406175 -0.890313 -0.205827
vn 0.406175 -0.890313 0.205827
vn 0.132370 -0.797012 0.589279
vn 0.420230 -0.907418 0.000000
vn 0.372206 -0.867495 0.330024
vn 0.238184 -0.808645 0.537924
vn 0.261359 -0.840522 0.474567
vn -0.263693 -0.843213 0.468463
vn -0.249649 -0.809269 0.531751
vn -0.130597 -0.803658 0.580584
vn 0.111098 0.865250 0.488876
vn 0.208017 0.870220 0.446595
vn 0.000000 0.845219 0.534421
vn 0.572303 0.784364 0.239254
vn 0.601317 0.799010 0.000000
vn -0.013813 0.845138 -0.534370
vn -0.004563 0.905013 -0.425360
vn -0.113861 0.857905 -0.501034
vn -0.196646 0.869407 -0.453280
vn 0.000000 -1.000000 0.000000
vn 0.544679 0.772282 -0.326965
vn 0.572303 0.784364 -0.239254
vn 0.601930 0.798549 0.000000
vn 0.000000 -0.808260 -0.588826
vn 0.247890 -0.809431 -0.532328
vn -0.128528 0.654674 0.744904
vn 0.019698 0.647220 0.762049
vn -0.128312 0.965083 0.228366
vn -0.119155 0.992876 0.000000
vn -0.305602 0.912296 0.272624
vn -0.305602 0.912296 -0.272624
vn 0.016083 0.687402 0.726099
vn -0.178340 0.670672 0.719996
vn 0.179157 0.661568 -0.728170
vn -0.000000 0.647510 -0.762057
vn -0.130408 -0.803715 -0.580548
vn 0.000000 -0.780024 -0.625749
vn -0.018471 0.819474 -0.572819
vn 0.000000 -1.000000 0.000000
vn -0.006170 0.887334 -0.461087
vn -0.149700 0.830541 -0.536463
vn 0.169582 -0.770183 -0.614866
vn 0.000000 -1.000000 0.000000
vn -0.339060 -0.801819 -0.492062
vn -0.513861 -0.831009 0.213005
vn -0.572429 -0.819954 0.000000
vn -0.318589 -0.766851 -0.557171
vn -0.411608 0.642818 -0.646037
vn -0.350155 0.647899 0.676475
vn 0.309935 0.679630 0.664863
vn -0.472985 -0.812245 -0.341384
vn 0.402808 0.641834 0.652529
vn 0.523042 0.660310 0.538904
vn 0.572905 0.669655 0.472591
vn -0.532182 -0.846630 -0.000000
vn 0.000000 -1.000000 0.000000
vn 0.000000 -1.000000 0.000000
vn -0.514337 -0.830918 -0.212209
vn 0.472985 -0.812245 -0.341384
vn 0.318589 -0.766851 -0.557171
vn 0.015279 -0.748053 0.663464
vn -0.398162 0.679258 0.616503
vn 0.171951 -0.762718 0.623454
vn 0.472985 -0.812245 0.341384
vn 0.306322 -0.767022 0.563777
vn 0.532099 -0.846682 -0.000000
vn 0.339060 -0.801819 -0.492062
vn 0.165985 0.742917 0.648478
vn 0.059002 0.661988 0.747189
vn 0.180587 0.684897 0.705907
vn -0.256902 0.837245 -0.482723
vn -0.430589 0.884865 0.177781
vn -0.169602 0.952649 -0.252380
vn 0.514337 -0.830918 0.212209
vn -0.163868 0.612024 0.773676
vn 0.572429 -0.819954 0.000000
vn 0.514337 -0.830918 -0.212209
vn -0.226766 0.626438 0.745756
vn -0.020413 0.607955 0.793709
vn 0.653274 0.686436 -0.319434
vn -0.146232 0.839050 0.524034
vn -0.271680 0.837043 0.474920
vn 0.000000 0.889951 0.456056
vn 0.000000 0.819614 0.572917
vn 0.146232 0.839050 0.524034
vn -0.340018 -0.801421 0.492050
vn -0.320628 -0.766461 0.556539
vn -0.473604 -0.811611 0.342032
vn 0.006069 -0.775174 0.631719
vn -0.169850 -0.770102 0.614893
vn 0.337010 -0.798722 0.498465
vn -0.496392 0.701726 0.511053
vn -0.544713 0.705318 0.453668
vn -0.653274 0.686436 -0.319434
vn -0.572905 0.669655 -0.472591
vn -0.683368 0.691953 -0.232828
vn -0.523042 0.660310 -0.538904
vn 0.653274 0.686436 0.319434
vn 0.146939 0.838850 -0.524156
vn -0.162804 0.611924 -0.773979
vn -0.715321 0.698796 -0.000000
vn -0.716859 0.697219 0.000000
vn 0.000000 -0.778872 -0.627183
vn 0.351648 0.633286 -0.689414
vn -0.683173 0.691926 0.233479
vn 0.572905 0.669655 -0.472591
vn 0.523042 0.660310 -0.538904
vn 0.411608 0.642818 -0.646037
vn -0.482031 0.876154 0.000000
vn 0.429515 0.885048 -0.179462
vn -0.430589 0.884865 -0.177781
vn 0.122110 0.976840 -0.175709
vn 0.397982 0.870526 -0.289474
vn 0.482031 0.876154 0.000000
vn 0.220133 0.975470 0.000000
vn 0.430589 0.884865 0.177781
vn -0.396437 0.871773 -0.287836
vn -0.396437 0.871773 0.287836
vn -0.160755 0.986994 0.000000
vn -0.171987 0.953044 0.249253
vn 0.121187 0.976968 0.175631
vn 0.396437 0.871773 0.287836
vn 0.000000 -1.000000 0.000000
vn 0.000000 -1.000000 0.000000
vn 0.000000 -1.000000 0.000000
vn -0.169582 -0.770183 -0.614866
vn 0.000000 -0.748140 -0.663541
vn -0.227299 0.618179 -0.752456
vn 0.276308 0.836084 -0.473938
vn 0.716859 0.697219 0.000000
vn 0.683368 0.691953 -0.232828
vn 0.271680 0.837043 0.474920
vn -0.639359 0.700899 0.316166
vn 0.000000 -1.000000 0.000000
vn -0.351648 0.633286 -0.689414
vn 0.715321 0.698796 0.000000
vn 0.683368 0.691953 0.232828
vn 0.227299 0.618179 -0.752456
vn 0.162804 0.611924 -0.773979
vn 0.000000 0.608660 -0.793431
vn 0.000000 0.607790 -0.794098
f 1/1/1 87/87/87 18/18/18
f 1/1/1 3/3/3 87/87/87
f 13/13/13 3/3/3 1/1/1
f 13/13/13 17/17/17 3/3/3
f 3/3/3 17/17/17 20/20/20
f 20/20/20 17/17/17 19/19/19
f 45/45/45 16/16/16 81/81/81
f 15/15/15 16/16/16 45/45/45
f 15/15/15 14/14/14 16/16/16
f 12/12/12 14/14/14 15/15/15
f 12/12/12 42/42/42 14/14/14
f 44/44/44 42/42/42 12/12/12
f 42/42/42 44/44/44 99/99/99
f 45/45/45 81/81/81 90/90/90
f 90/90/90 81/81/81 82/82/82
f 82/82/82 89/89/89 90/90/90
f 90/90/90 89/89/89 88/88/88
f 28/28/28 88/88/88 89/89/89
f 38/38/38 88/88/88 28/28/28
f 28/28/28 36/36/36 38/38/38
f 38/38/38 36/36/36 37/37/37
f 36/36/36 101/101/101 37/37/37
f 37/37/37 101/101/101 31/31/31
f 101/101/101 102/102/102 31/31/31
f 31/31/31 102/102/102 32/32/32
f 102/102/102 60/60/60 32/32/32
f 30/30/30 60/60/60 102/102/102
f 60/60/60 30/30/30 33/33/33
f 33/33/33 30/30/30 10/10/10
f 33/33/33 10/10/10 59/59/59
f 59/59/59 10/10/10 57/57/57
f 59/59/59 57/57/57 56/56/56
f 56/56/56 57/57/57 58/58/58
f 56/56/56 58/58/58 40/40/40
f 40/40/40 58/58/58 61/61/61
f 41/41/41 40/40/40 61/61/61
f 34/34/34 40/40/40 41/41/41
f 55/55/55 34/34/34 41/41/41
f 54/54/54 34/34/34 55/55/55
f 24/24/24 54/54/54 55/55/55
f 11/11/11 54/54/54 24/24/24
f 24/24/24 100/100/100 11/11/11
f 11/11/11 100/100/100 93/93/93
f 100/100/100 99/99/99 93/93/93
f 93/93/93 99/99/99 94/94/94
f 99/99/99 44/44/44 94/94/94
f 6/6/6 8/8/8 9/9/9
f 6/6/6 7/7/7 8/8/8
f 7/7/7 6/6/6 5/5/5
f 5/5/5 6/6/6 75/75/75
f 75/75/75 76/76/76 5/5/5
f 75/75/75 77/77/77 76/76/76
f 4/4/4 6/6/6 9/9/9
f 29/29/29 6/6/6 4/4/4
f 29/29/29 4/4/4 22/22/22
f 103/103/103 29/29/29 22/22/22
f 91/91/91 29/29/29 103/103/103
f 91/91/91 103/103/103 104/104/104
f 91/91/91 104/104/104 21/21/21
f 91/91/91 21/21/21 62/62/62
f 62/62/62 21/21/21 92/92/92
f 62/62/62 92/92/92 67/67/67
f 67/67/67 71/71/71 62/62/62
f 68/68/68 71/71/71 67/67/67
f 71/71/71 68/68/68 66/66/66
f 71/71/71 66/66/66 69/69/69
f 72/72/72 71/71/71 69/69/69
f 74/74/74 71/71/71 72/72/72
f 74/74/74 72/72/72 73/73/73
f 70/70/70 74/74/74 73/73/73
f 35/35/35 74/74/74 70/70/70
f 35/35/35 70/70/70 23/23/23
f 35/35/35 23/23/23 77/77/77
f 35/35/35 77/77/77 75/75/75
f 53/53/53 39/39/39 25/25/25
f 39/39/39 2/2/2 25/25/25
f 25/25/25 2/2/2 84/84/84
f 48/48/48 25/25/25 84/84/84
f 48/48/48 96/96/96 25/25/25
f 25/25/25 96/96/96 43/43/43
f 43/43/43 53/53/53 25/25/25
f 52/52/52 53/53/53 43/43/43
f 51/51/51 52/52/52 43/43/43
f 50/50/50 51/51/51 43/43/43
f 2/2/2 83/83/83 84/84/84
f 83/83/83 85/85/85 84/84/84
f 85/85/85 48/48/48 84/84/84
f 86/86/86 48/48/48 85/85/85
f 86/86/86 98/98/98 48/48/48
f 48/48/48 98/98/98 96/96/96
f 96/96/96 98/98/98 27/27/27
f 27/27/27 26/26/26 96/96/96
f 26/26/26 49/49/49 96/96/96
f 49/49/49 97/97/97 96/96/96
f 96/96/96 97/97/97 95/95/95
f 95/95/95 46/46/46 96/96/96
f 96/96/96 46/46/46 43/43/43
f 46/46/46 47/47/47 43/43/43
f 43/43/43 47/47/47 50/50/50
f 97/97/97 64/64/64 95/95/95
f 64/64/64 65/65/65 95/95/95
f 95/95/95 65/65/65 63/63/63
f 46/46/46 95/95/95 63/63/63
f 78/78/78 46/46/46 63/63/63
f 79/79/79 46/46/46 78/78/78
f 79/79/79 47/47/47 46/46/46
f 65/65/65 80/80/80 63/63/63
f 80/80/80 78/78/78 63/63/63
f 123/123/123 124/124/124 110/110/110
f 190/190/190 124/124/124 123/123/123
f 201/201/201 124/124/124 190/190/190
f 201/201/201 190/190/190 191/191/191
f 191/191/191 190/190/190 192/192/192
f 191/191/191 192/192/192 106/106/106
f 170/170/170 194/194/194 109/109/109
f 170/170/170 193/193/193 194/194/194
f 170/170/170 111/111/111 193/193/193
f 193/193/193 111/111/111 114/114/114
f 111/111/111 118/118/118 114/114/114
f 111/111/111 122/122/122 118/118/118
f 118/118/118 122/122/122 125/125/125
f 170/170/170 109/109/109 134/134/134
f 134/134/134 109/109/109 127/127/127
f 134/134/134 127/127/127 126/126/126
f 126/126/126 133/133/133 134/134/134
f 144/144/144 133/133/133 126/126/126
f 133/133/133 144/144/144 143/143/143
f 133/133/133 143/143/143 141/141/141
f 131/131/131 133/133/133 141/141/141
f 158/158/158 133/133/133 131/131/131
f 158/158/158 131/131/131 132/132/132
f 130/130/130 158/158/158 132/132/132
f 156/156/156 158/158/158 130/130/130
f 156/156/156 130/130/130 128/128/128
f 156/156/156 128/128/128 157/157/157
f 156/156/156 157/157/157 153/153/153
f 153/153/153 157/157/157 154/154/154
f 153/153/153 154/154/154 155/155/155
f 155/155/155 122/122/122 153/153/153
f 112/112/112 122/122/122 155/155/155
f 122/122/122 112/112/112 113/113/113
f 122/122/122 113/113/113 125/125/125
f 161/161/161 162/162/162 163/163/163
f 164/164/164 162/162/162 161/161/161
f 164/164/164 115/115/115 162/162/162
f 202/202/202 115/115/115 164/164/164
f 202/202/202 195/195/195 115/115/115
f 167/167/167 195/195/195 202/202/202
f 195/195/195 167/167/167 208/208/208
f 161/161/161 163/163/163 168/168/168
f 168/168/168 163/163/163 169/169/169
f 172/172/172 168/168/168 169/169/169
f 200/200/200 168/168/168 172/172/172
f 160/160/160 200/200/200 172/172/172
f 159/159/159 200/200/200 160/160/160
f 129/129/129 159/159/159 160/160/160
f 116/116/116 159/159/159 129/129/129
f 129/129/129 145/145/145 116/116/116
f 116/116/116 145/145/145 142/142/142
f 145/145/145 146/146/146 142/142/142
f 142/142/142 146/146/146 136/136/136
f 146/146/146 137/137/137 136/136/136
f 136/136/136 137/137/137 135/135/135
f 135/135/135 137/137/137 117/117/117
f 117/117/117 137/137/137 119/119/119
f 117/117/117 119/119/119 120/120/120
f 120/120/120 119/119/119 121/121/121
f 120/120/120 121/121/121 165/165/165
f 165/165/165 121/121/121 204/204/204
f 165/165/165 204/204/204 203/203/203
f 203/203/203 204/204/204 197/197/197
f 197/197/197 198/198/198 203/203/203
f 203/203/203 198/198/198 147/147/147
f 173/173/173 147/147/147 198/198/198
f 174/174/174 147/147/147 173/173/173
f 173/173/173 175/175/175 174/174/174
f 174/174/174 175/175/175 171/171/171
f 175/175/175 205/205/205 171/171/171
f 171/171/171 205/205/205 206/206/206
f 205/205/205 208/208/208 206/206/206
f 206/206/206 208/208/208 207/207/207
f 208/208/208 167/167/167 207/207/207
f 180/180/180 196/196/196 179/179/179
f 196/196/196 166/166/166 179/179/179
f 179/179/179 166/166/166 107/107/107
f 140/140/140 179/179/179 107/107/107
f 140/140/140 186/186/186 179/179/179
f 179/179/179 186/186/186 182/182/182
f 182/182/182 180/180/180 179/179/179
f 177/177/177 180/180/180 182/182/182
f 181/181/181 177/177/177 182/182/182
f 183/183/183 181/181/181 182/182/182
f 166/166/166 105/105/105 107/107/107
f 105/105/105 108/108/108 107/107/107
f 108/108/108 140/140/140 107/107/107
f 138/138/138 140/140/140 108/108/108
f 138/138/138 184/184/184 140/140/140
f 140/140/140 184/184/184 186/186/186
f 186/186/186 184/184/184 178/178/178
f 178/178/178 176/176/176 186/186/186
f 176/176/176 139/139/139 186/186/186
f 139/139/139 185/185/185 186/186/186
f 186/186/186 185/185/185 187/187/187
f 187/187/187 188/188/188 186/186/186
f 186/186/186 188/188/188 182/182/182
f 188/188/188 189/189/189 182/182/182
f 182/182/182 189/189/189 183/183/183
f 185/185/185 149/149/149 187/187/187
f 149/149/149 148/148/148 187/187/187
f 187/187/187 148/148/148 150/150/150
f 188/188/188 187/187/187 150/150/150
f 152/152/152 188/188/188 150/150/150
f 199/199/199 188/188/188 152/152/152
f 199/199/199 189/189/189 188/188/188
f 148/148/148 151/151/151 150/150/150
f 151/151/151 152/152/152 150/150/150
