# Exported by s4extract — object_tableDining_1x1_lod01_g01
o object_tableDining_1x1_lod01_g01
v 0.000000 0.800012 0.455733
v 0.446547 0.774133 0.145085
v -0.433424 0.800012 0.140843
v -0.433424 0.800012 0.140843
v 0.000000 0.778497 0.469527
v -0.446547 0.778497 0.145085
v -0.446547 0.778497 0.145085
v -0.385449 0.005982 0.303232
v 0.251930 0.524064 0.353130
v 0.275979 0.774133 0.379833
v 0.446547 0.774133 0.145085
v 0.119846 0.778497 0.450545
v 0.294351 0.286355 -0.351054
v 0.267281 0.524064 -0.338298
v 0.120090 0.283731 -0.401868
v 0.108310 0.524064 -0.397839
v 0.000000 0.778497 -0.469527
v -0.385449 0.005982 -0.303232
v 0.433424 0.800012 -0.140843
v 0.368694 0.800012 -0.267861
v 0.140843 0.011444 -0.406934
v 0.140843 0.011444 -0.406934
v 0.000000 0.286508 0.472304
v 0.000000 0.524064 0.457686
v 0.257210 0.280862 0.359752
v 0.000000 0.800012 0.455733
v 0.116337 0.800012 0.437300
v 0.368694 0.800012 -0.267861
v 0.267861 0.800012 -0.368694
v 0.000000 0.800012 0.000000
v 0.116337 0.800012 -0.437300
v -0.403211 0.286508 0.144932
v -0.404859 0.524064 0.142644
v 0.455733 0.800012 0.000000
v 0.000000 0.800012 -0.455733
v -0.366741 0.286508 0.280251
v 0.000000 0.778497 0.469527
v 0.455733 0.800012 0.000000
v 0.433424 0.800012 -0.140843
v 0.116337 0.800012 -0.437300
v 0.267861 0.800012 -0.368694
v 0.119846 0.774133 -0.450545
v 0.275979 0.774133 -0.379833
v 0.446547 0.774133 -0.145085
v 0.116337 0.800012 -0.437300
v 0.433424 0.800012 0.140843
v 0.368694 0.800012 0.267861
v 0.267861 0.800012 0.368694
v 0.267464 0.005982 0.395306
v 0.000000 0.011444 0.499924
v 0.267861 0.800012 0.368694
v 0.357250 0.524064 0.268807
v 0.379833 0.774133 0.275979
v 0.366741 0.286508 0.280251
v 0.357250 0.524064 0.268807
v 0.366741 0.286508 0.280251
v 0.379833 0.774133 0.275979
v 0.116337 0.800012 0.437300
v -0.237251 0.800012 0.385327
v -0.368694 0.800012 0.267861
v -0.366741 0.286508 0.280251
v -0.244423 0.778497 0.396985
v 0.119846 0.778497 0.450545
v 0.116337 0.800012 0.437300
v 0.368694 0.800012 0.267861
v 0.275979 0.774133 0.379833
v 0.000000 0.524064 0.457686
v -0.119846 0.778497 0.450545
v -0.244423 0.778497 0.396985
v -0.251991 0.011444 0.349162
v -0.379833 0.778497 0.275979
v -0.379833 0.778497 0.275979
v -0.357250 0.524064 0.268807
v -0.385449 0.005982 0.303232
v 0.000000 0.011444 0.499924
v -0.119846 0.778497 0.450545
v -0.368694 0.800012 0.267861
v -0.237251 0.800012 0.385327
v 0.000000 0.800012 0.000000
v 0.433424 0.800012 0.140843
v 0.379833 0.774133 0.275979
v 0.447798 0.286508 0.000000
v 0.357250 0.524064 -0.268807
v 0.379833 0.774133 -0.275979
v 0.119846 0.774133 -0.450545
v 0.321512 0.005982 -0.390820
v 0.469375 0.011444 0.000000
v 0.385449 0.005982 -0.303232
v 0.366741 0.286508 -0.280251
v -0.404859 0.524064 0.142644
v -0.446547 0.778497 0.145085
v 0.275979 0.774133 -0.379833
v 0.469527 0.774133 0.000000
v -0.295969 0.280862 -0.384625
v 0.000000 0.286508 -0.472304
v -0.267861 0.800012 -0.368694
v 0.000000 0.524064 -0.457686
v -0.303751 0.005982 -0.413800
v -0.275979 0.778497 -0.379833
v 0.000000 0.011444 -0.499924
v -0.433424 0.800012 0.140843
v -0.424024 0.011444 0.148991
v -0.446547 0.778497 0.145085
v -0.275979 0.778497 -0.379833
v 0.385449 0.005982 0.303232
v 0.368694 0.800012 0.267861
v 0.000000 0.800012 0.455733
v 0.379833 0.774133 0.275979
v 0.385449 0.005982 0.303232
v -0.403211 0.286508 0.144932
v -0.424024 0.011444 0.148991
v 0.108310 0.524064 -0.397839
v 0.000000 0.286508 -0.472304
v -0.366741 0.286508 -0.280251
v -0.469375 0.011444 0.000000
v 0.119846 0.774133 -0.450545
v 0.469527 0.774133 0.000000
v 0.379833 0.774133 -0.275979
v 0.000000 0.011444 -0.499924
v 0.000000 0.286508 0.472304
v -0.357250 0.524064 -0.268807
v -0.439131 0.524064 0.000000
v -0.119846 0.778497 -0.450545
v 0.446547 0.774133 -0.145085
v 0.119846 0.774133 -0.450545
v 0.120090 0.283731 -0.401868
v 0.439131 0.524064 0.000000
v -0.368694 0.800012 -0.267861
v -0.433424 0.800012 -0.140843
v 0.000000 0.778497 -0.469527
v -0.469527 0.778497 0.000000
v -0.447798 0.286508 0.000000
v -0.283059 0.524064 -0.371502
v -0.119846 0.778497 -0.450545
v 0.000000 0.800012 -0.455733
v -0.455733 0.800012 0.000000
v -0.116337 0.800012 -0.437300
v -0.433424 0.800012 -0.140843
v -0.379833 0.778497 -0.275979
v -0.267861 0.800012 -0.368694
v -0.116337 0.800012 -0.437300
v -0.446547 0.778497 -0.145085
v -0.230659 0.283731 0.350322
v -0.116337 0.800012 0.437300
v -0.116337 0.800012 0.437300
v 0.000000 0.800012 -0.455733
v -0.455733 0.800012 0.000000
v -0.469527 0.778497 0.000000
v -0.446547 0.778497 -0.145085
v -0.379833 0.778497 -0.275979
v -0.368694 0.800012 -0.267861
v -0.218238 0.524064 0.355663
vt 0.900964 0.490501
vt 0.653780 0.593917
vt 0.605123 0.443565
vt 0.671932 0.325802
vt 0.373282 0.941708
vt 0.606935 0.431544
vt 0.071219 0.949591
vt 0.139902 0.615301
vt 0.528829 0.837053
vt 0.523332 0.948805
vt 0.653780 0.593917
vt 0.435411 0.944064
vt 0.876711 0.875351
vt 0.768462 0.884865
vt 0.866985 0.981485
vt 0.763539 0.975415
vt 0.153342 0.427829
vt 0.375578 0.086441
vt 0.643874 0.743242
vt 0.645112 0.817633
vt 0.972274 0.988040
vt 0.025703 0.117067
vt 0.377964 0.723006
vt 0.376212 0.830982
vt 0.545139 0.728412
vt 0.899484 0.490501
vt 0.838624 0.480866
vt 0.706636 0.112024
vt 0.759401 0.059319
vt 0.899424 0.252167
vt 0.838655 0.023467
vt 0.059349 0.738198
vt 0.076656 0.838714
vt 0.661089 0.252137
vt 0.899484 0.013833
vt 0.142892 0.726872
vt 0.373282 0.941708
vt 0.643028 0.668700
vt 0.672778 0.178471
vt 0.640732 0.979492
vt 0.643088 0.892265
vt 0.652814 0.980579
vt 0.655139 0.892053
vt 0.655985 0.743121
vt 0.093177 0.447854
vt 0.672748 0.325802
vt 0.706606 0.392250
vt 0.759341 0.444984
vt 0.551119 0.619167
vt 0.379353 0.614062
vt 0.522003 0.960826
vt 0.607177 0.846175
vt 0.597481 0.956719
vt 0.871063 0.507898
vt 0.763841 0.512549
vt 0.618473 0.739466
vt 0.597481 0.956719
vt 0.434746 0.956175
vt 0.241264 0.955541
vt 0.147996 0.958712
vt 0.142892 0.726872
vt 0.241052 0.943459
vt 0.435411 0.944064
vt 0.435139 0.956115
vt 0.640974 0.519677
vt 0.523332 0.948805
vt 0.376212 0.830982
vt 0.311033 0.941979
vt 0.241052 0.943459
vt 0.213205 0.618382
vt 0.147392 0.946721
vt 0.147392 0.946721
vt 0.147785 0.835211
vt 0.139902 0.615301
vt 0.379353 0.614062
vt 0.311033 0.941979
vt 0.706123 0.392219
vt 0.775560 0.453653
vt 0.900994 0.252167
vt 0.641699 0.594128
vt 0.653116 0.519345
vt 0.873358 0.665227
vt 0.768341 0.821589
vt 0.657254 0.817663
vt 0.652814 0.980579
vt 0.989671 0.879006
vt 0.981697 0.663566
vt 0.987375 0.825093
vt 0.875986 0.822254
vt 0.615029 0.321604
vt 0.606935 0.431544
vt 0.655139 0.892053
vt 0.655109 0.668519
vt 0.304842 0.193029
vt 0.127850 0.210124
vt 0.759401 0.059379
vt 0.140657 0.317617
vt 0.296989 0.084659
vt 0.304963 0.412969
vt 0.115407 0.101905
vt 0.072850 0.961732
vt 0.025371 0.632215
vt 0.071219 0.949591
vt 0.304963 0.412969
vt 0.982181 0.502129
vt 0.596001 0.968740
vt 0.372980 0.953819
vt 0.653116 0.519345
vt 0.629225 0.628711
vt 0.629134 0.219487
vt 0.642122 0.107795
vt 0.072427 0.325259
vt 0.127850 0.210124
vt 0.384458 0.197378
vt 0.566281 0.101573
vt 0.090912 0.435893
vt 0.655109 0.668519
vt 0.657254 0.817663
vt 0.115407 0.101905
vt 0.377964 0.723006
vt 0.385303 0.304871
vt 0.537528 0.314869
vt 0.215833 0.422060
vt 0.655985 0.743121
vt 0.090912 0.435893
vt 0.049352 0.221057
vt 0.766408 0.666918
vt 0.706123 0.112084
vt 0.671932 0.178531
vt 0.153342 0.427829
vt 0.530943 0.426198
vt 0.550123 0.208583
vt 0.309614 0.302697
vt 0.215833 0.422060
vt 0.900934 0.013833
vt 0.660153 0.252167
vt 0.839470 0.023498
vt 0.455345 0.432480
vt 0.381165 0.416050
vt 0.304963 0.425201
vt 0.217313 0.434021
vt 0.456160 0.420339
vt 0.222840 0.724425
vt 0.310882 0.954091
vt 0.839470 0.480866
vt 0.154792 0.439820
vt 0.530309 0.438249
vt 0.530943 0.426198
vt 0.456160 0.420339
vt 0.381165 0.416050
vt 0.380259 0.428161
vt 0.233018 0.830982
vn 0.000000 1.000000 0.000000
vn 0.942976 -0.150325 0.296981
vn -0.834442 0.535010 0.132173
vn 0.000000 1.000000 0.000000
vn 0.000000 0.539731 0.841837
vn -0.834447 0.535003 0.132172
vn -0.752824 0.534820 0.383696
vn -0.965946 0.084453 0.244573
vn 0.458606 -0.035998 0.887910
vn 0.572742 -0.122309 0.810560
vn 0.839295 0.470297 0.272773
vn 0.341287 -0.125518 0.931541
vn 0.445366 0.105209 -0.889146
vn 0.470898 -0.030660 -0.881655
vn 0.300787 0.051489 -0.952301
vn 0.369396 -0.116801 -0.921902
vn -0.000846 -0.046489 -0.998918
vn -0.905718 0.090423 -0.414125
vn 0.823731 0.469669 -0.317615
vn 0.685318 0.469580 -0.556628
vn 0.185190 0.095396 -0.978061
vn 0.550072 0.057425 -0.833141
vn 0.386965 0.081540 0.918482
vn 0.341883 -0.051449 0.938333
vn 0.487824 0.089077 0.868385
vn 0.000000 1.000000 0.000000
vn 0.000000 1.000000 0.000000
vn 0.000000 1.000000 0.000000
vn 0.000000 1.000000 0.000000
vn 0.000000 1.000000 0.000000
vn 0.000000 1.000000 0.000000
vn -0.956359 0.043971 0.288866
vn -0.917419 -0.085699 0.388584
vn 0.000000 1.000000 0.000000
vn 0.000000 1.000000 0.000000
vn -0.964518 0.072339 0.253912
vn 0.000000 -0.046489 0.998919
vn 0.881471 0.469847 -0.047465
vn 0.000000 1.000000 0.000000
vn 0.365618 0.462863 -0.807515
vn 0.447749 0.468476 -0.761611
vn 0.365711 0.462627 -0.807609
vn 0.535537 0.469993 -0.701646
vn 0.852515 0.469833 -0.229077
vn 0.144626 0.498385 -0.854808
vn 0.000000 1.000000 0.000000
vn 0.000000 1.000000 0.000000
vn 0.000000 1.000000 0.000000
vn 0.432242 0.115559 0.894322
vn 0.364339 0.093041 0.926607
vn 0.495432 0.486884 0.719368
vn 0.654236 -0.057778 0.754080
vn 0.625772 0.465639 0.625772
vn 0.959137 0.072316 0.273546
vn 0.948781 -0.046908 0.312434
vn 0.596143 0.069356 0.799877
vn 0.704617 -0.083842 0.704617
vn 0.132197 0.535180 0.834330
vn -0.429599 0.536798 0.726149
vn -0.624686 0.537195 0.566735
vn -0.414092 0.063641 0.908007
vn -0.505103 0.535266 0.677024
vn 0.273749 0.514613 0.812548
vn 0.349282 0.531873 0.771436
vn 0.788568 0.465475 0.401863
vn 0.497486 0.469906 0.729175
vn -0.370022 -0.059833 0.927094
vn -0.349206 -0.146537 0.925517
vn -0.541931 -0.148878 0.827131
vn -0.454631 0.050888 0.889225
vn -0.688433 0.539443 0.484831
vn -0.829522 -0.107918 0.547948
vn -0.739531 -0.043074 0.671742
vn -0.327446 0.098815 0.939689
vn -0.491323 0.061149 0.868828
vn -0.240031 0.536870 0.808799
vn 0.000000 1.000000 0.000000
vn 0.000000 1.000000 0.000000
vn 0.000000 1.000000 0.000000
vn 0.839329 0.470244 0.272758
vn 0.788510 0.465577 0.401859
vn 0.998342 0.057558 -0.000000
vn 0.898608 -0.029013 -0.437793
vn 0.755122 -0.107849 -0.646652
vn 0.403665 -0.206476 -0.891304
vn 0.388043 0.166167 -0.906538
vn 0.996471 0.083938 -0.000000
vn 0.896858 0.107543 -0.429046
vn 0.929840 0.076148 -0.359998
vn -0.966241 -0.045544 0.253582
vn -0.971317 -0.138522 0.193274
vn 0.480233 -0.175403 -0.859424
vn 0.992693 -0.120664 0.000000
vn -0.459726 0.094776 -0.882989
vn -0.286446 0.075041 -0.955153
vn 0.000000 1.000000 0.000000
vn -0.052311 -0.046607 -0.997543
vn -0.453135 0.106765 -0.885025
vn -0.557403 -0.011673 -0.830160
vn -0.278638 0.102560 -0.954904
vn -0.752892 0.534717 0.383707
vn -0.964478 0.080847 0.251488
vn -0.881051 -0.148667 0.449051
vn -0.469484 0.539146 -0.699219
vn 0.959807 0.085896 0.267194
vn 0.625772 0.465639 0.625772
vn -0.000000 0.539823 0.841778
vn 0.887084 -0.093079 0.452126
vn 0.596305 0.114828 0.794503
vn -0.955052 0.039345 0.293816
vn -0.953497 0.075625 0.291762
vn 0.491519 -0.037321 -0.870067
vn 0.499333 0.061308 -0.864239
vn -0.928851 0.075270 -0.362727
vn -0.983385 0.081686 -0.162117
vn 0.154914 0.466659 -0.870765
vn 0.881547 0.469887 0.045628
vn 0.740090 0.469633 -0.481365
vn 0.530017 0.070558 -0.845047
vn -0.454206 0.051295 0.889419
vn -0.927758 -0.040759 -0.370951
vn -0.992348 -0.090368 -0.084138
vn -0.260837 0.536403 -0.802643
vn 0.942976 -0.150325 -0.296981
vn 0.321725 -0.127394 -0.938224
vn 0.523359 0.061687 -0.849876
vn 0.995487 -0.094895 0.000000
vn 0.000000 1.000000 0.000000
vn 0.000000 1.000000 0.000000
vn 0.056278 0.514547 -0.855613
vn -0.841036 0.539224 -0.043532
vn -0.997312 0.054457 -0.049017
vn -0.485847 0.003075 -0.874038
vn -0.299362 -0.070421 -0.951537
vn 0.000000 1.000000 0.000000
vn 0.000000 1.000000 0.000000
vn 0.000000 1.000000 0.000000
vn -0.813836 0.539126 -0.216827
vn -0.654953 0.538945 -0.529693
vn -0.469433 0.539277 -0.699152
vn -0.260778 0.536585 -0.802541
vn -0.786514 0.539041 -0.301383
vn -0.483527 0.040578 0.874388
vn -0.239995 0.537000 0.808723
vn 0.000000 1.000000 0.000000
vn -0.045283 0.539239 -0.840934
vn -0.840971 0.539182 0.045284
vn -0.992939 -0.118624 0.000000
vn -0.943339 -0.147803 -0.297095
vn -0.808006 -0.060380 -0.586073
vn -0.707087 0.538917 -0.457817
vn -0.458054 -0.072117 0.885994
f 55/55/55 2/2/2 108/108/108
f 127/127/127 2/2/2 55/55/55
f 127/127/127 93/93/93 2/2/2
f 127/127/127 124/124/124 93/93/93
f 127/127/127 83/83/83 124/124/124
f 83/83/83 84/84/84 124/124/124
f 83/83/83 14/14/14 84/84/84
f 84/84/84 14/14/14 92/92/92
f 127/127/127 55/55/55 82/82/82
f 127/127/127 82/82/82 83/83/83
f 83/83/83 82/82/82 89/89/89
f 89/89/89 13/13/13 83/83/83
f 83/83/83 13/13/13 14/14/14
f 13/13/13 15/15/15 14/14/14
f 14/14/14 15/15/15 16/16/16
f 14/14/14 16/16/16 92/92/92
f 92/92/92 16/16/16 85/85/85
f 82/82/82 55/55/55 54/54/54
f 82/82/82 54/54/54 87/87/87
f 82/82/82 87/87/87 89/89/89
f 89/89/89 87/87/87 88/88/88
f 88/88/88 13/13/13 89/89/89
f 86/86/86 13/13/13 88/88/88
f 86/86/86 21/21/21 13/13/13
f 13/13/13 21/21/21 15/15/15
f 87/87/87 54/54/54 105/105/105
f 10/10/10 52/52/52 57/57/57
f 9/9/9 52/52/52 10/10/10
f 9/9/9 56/56/56 52/52/52
f 25/25/25 56/56/56 9/9/9
f 25/25/25 109/109/109 56/56/56
f 49/49/49 109/109/109 25/25/25
f 23/23/23 49/49/49 25/25/25
f 50/50/50 49/49/49 23/23/23
f 9/9/9 10/10/10 12/12/12
f 12/12/12 24/24/24 9/9/9
f 23/23/23 9/9/9 24/24/24
f 25/25/25 9/9/9 23/23/23
f 37/37/37 24/24/24 12/12/12
f 106/106/106 51/51/51 53/53/53
f 53/53/53 51/51/51 66/66/66
f 51/51/51 63/63/63 66/66/66
f 64/64/64 63/63/63 51/51/51
f 30/30/30 26/26/26 27/27/27
f 48/48/48 30/30/30 27/27/27
f 47/47/47 30/30/30 48/48/48
f 46/46/46 30/30/30 47/47/47
f 34/34/34 30/30/30 46/46/46
f 34/34/34 39/39/39 30/30/30
f 39/39/39 28/28/28 30/30/30
f 28/28/28 29/29/29 30/30/30
f 29/29/29 31/31/31 30/30/30
f 30/30/30 31/31/31 35/35/35
f 58/58/58 107/107/107 63/63/63
f 63/63/63 107/107/107 5/5/5
f 107/107/107 76/76/76 5/5/5
f 144/144/144 76/76/76 107/107/107
f 144/144/144 59/59/59 76/76/76
f 76/76/76 59/59/59 62/62/62
f 59/59/59 60/60/60 62/62/62
f 62/62/62 60/60/60 71/71/71
f 60/60/60 101/101/101 71/71/71
f 71/71/71 101/101/101 7/7/7
f 81/81/81 80/80/80 65/65/65
f 11/11/11 80/80/80 81/81/81
f 117/117/117 80/80/80 11/11/11
f 38/38/38 80/80/80 117/117/117
f 44/44/44 38/38/38 117/117/117
f 19/19/19 38/38/38 44/44/44
f 118/118/118 19/19/19 44/44/44
f 20/20/20 19/19/19 118/118/118
f 43/43/43 20/20/20 118/118/118
f 41/41/41 20/20/20 43/43/43
f 42/42/42 41/41/41 43/43/43
f 40/40/40 41/41/41 42/42/42
f 79/79/79 145/145/145 1/1/1
f 79/79/79 78/78/78 145/145/145
f 77/77/77 78/78/78 79/79/79
f 4/4/4 77/77/77 79/79/79
f 136/136/136 4/4/4 79/79/79
f 136/136/136 79/79/79 129/129/129
f 129/129/129 79/79/79 128/128/128
f 128/128/128 79/79/79 96/96/96
f 96/96/96 79/79/79 137/137/137
f 79/79/79 135/135/135 137/137/137
f 3/3/3 147/147/147 6/6/6
f 6/6/6 147/147/147 131/131/131
f 147/147/147 138/138/138 131/131/131
f 131/131/131 138/138/138 142/142/142
f 138/138/138 151/151/151 142/142/142
f 142/142/142 151/151/151 139/139/139
f 151/151/151 140/140/140 139/139/139
f 139/139/139 140/140/140 104/104/104
f 140/140/140 123/123/123 104/104/104
f 141/141/141 123/123/123 140/140/140
f 141/141/141 146/146/146 123/123/123
f 123/123/123 146/146/146 130/130/130
f 146/146/146 45/45/45 130/130/130
f 130/130/130 45/45/45 116/116/116
f 36/36/36 102/102/102 8/8/8
f 32/32/32 102/102/102 36/36/36
f 73/73/73 32/32/32 36/36/36
f 33/33/33 32/32/32 73/73/73
f 73/73/73 72/72/72 33/33/33
f 33/33/33 72/72/72 103/103/103
f 72/72/72 73/73/73 69/69/69
f 69/69/69 73/73/73 152/152/152
f 69/69/69 152/152/152 68/68/68
f 68/68/68 152/152/152 67/67/67
f 68/68/68 67/67/67 37/37/37
f 73/73/73 143/143/143 152/152/152
f 143/143/143 120/120/120 152/152/152
f 152/152/152 120/120/120 67/67/67
f 61/61/61 143/143/143 73/73/73
f 143/143/143 61/61/61 70/70/70
f 70/70/70 75/75/75 143/143/143
f 143/143/143 75/75/75 120/120/120
f 70/70/70 61/61/61 74/74/74
f 22/22/22 119/119/119 126/126/126
f 126/126/126 119/119/119 113/113/113
f 113/113/113 112/112/112 126/126/126
f 97/97/97 112/112/112 113/113/113
f 112/112/112 97/97/97 125/125/125
f 125/125/125 97/97/97 17/17/17
f 17/17/17 97/97/97 134/134/134
f 134/134/134 97/97/97 133/133/133
f 134/134/134 133/133/133 99/99/99
f 133/133/133 150/150/150 99/99/99
f 121/121/121 150/150/150 133/133/133
f 121/121/121 149/149/149 150/150/150
f 122/122/122 149/149/149 121/121/121
f 122/122/122 148/148/148 149/149/149
f 95/95/95 133/133/133 97/97/97
f 94/94/94 133/133/133 95/95/95
f 94/94/94 114/114/114 133/133/133
f 133/133/133 114/114/114 121/121/121
f 132/132/132 121/121/121 114/114/114
f 122/122/122 121/121/121 132/132/132
f 132/132/132 90/90/90 122/122/122
f 90/90/90 91/91/91 122/122/122
f 122/122/122 91/91/91 148/148/148
f 100/100/100 94/94/94 95/95/95
f 98/98/98 94/94/94 100/100/100
f 98/98/98 18/18/18 94/94/94
f 94/94/94 18/18/18 114/114/114
f 115/115/115 114/114/114 18/18/18
f 132/132/132 114/114/114 115/115/115
f 115/115/115 111/111/111 132/132/132
f 132/132/132 111/111/111 110/110/110
f 110/110/110 90/90/90 132/132/132
