# Exported by s4extract — Prop_Utensil_Chopsticks_lod00_g00
o Prop_Utensil_Chopsticks_lod00_g00
v -0.003082 0.004242 -0.157445
v -0.000183 0.004242 -0.157445
v -0.004517 0.001740 -0.157445
v -0.003082 -0.000763 -0.157445
v -0.000183 -0.000763 -0.157445
v 0.001251 0.001740 -0.157445
v -0.004944 0.007477 0.078555
v 0.001679 0.007477 0.078555
v 0.005005 0.001740 0.078555
v -0.008271 0.001740 0.078555
v 0.001679 -0.004028 0.078555
v -0.004944 0.007477 0.078555
v -0.003082 0.004242 -0.157445
v -0.004944 -0.004028 0.078555
v -0.004517 0.001740 -0.157445
v -0.008271 0.001740 0.078555
v -0.003082 -0.000763 -0.157445
v -0.004944 -0.004028 0.078555
v 0.001679 -0.004028 0.078555
v -0.000183 -0.000763 -0.157445
v 0.001679 0.007477 0.078555
v 0.005005 0.001740 0.078555
v -0.004944 0.007477 0.078555
v 0.001251 0.001740 -0.157445
v -0.003082 0.004242 -0.157445
v -0.000183 0.004242 -0.157445
v 0.007172 0.004242 -0.157445
v 0.010071 0.004242 -0.157445
v 0.005737 0.001740 -0.157445
v 0.007172 -0.000763 -0.157445
v 0.010071 -0.000763 -0.157445
v 0.011505 0.001740 -0.157445
v 0.005310 0.007477 0.078555
v 0.011933 0.007477 0.078555
v 0.015259 0.001740 0.078555
v 0.001984 0.001740 0.078555
v 0.011933 -0.004028 0.078555
v 0.005310 0.007477 0.078555
v 0.007172 0.004242 -0.157445
v 0.005310 -0.004028 0.078555
v 0.005737 0.001740 -0.157445
v 0.001984 0.001740 0.078555
v 0.007172 -0.000763 -0.157445
v 0.005310 -0.004028 0.078555
v 0.011933 -0.004028 0.078555
v 0.010071 -0.000763 -0.157445
v 0.011933 0.007477 0.078555
v 0.015259 0.001740 0.078555
v 0.005310 0.007477 0.078555
v 0.011505 0.001740 -0.157445
v 0.007172 0.004242 -0.157445
v 0.010071 0.004242 -0.157445
vt 0.984213 0.101905
vt 0.984213 0.101905
vt 0.984243 0.101935
vt 0.984213 0.101965
vt 0.984213 0.101965
vt 0.984213 0.101935
vt 0.009912 0.459533
vt 0.009942 0.459533
vt 0.009942 0.459473
vt 0.009912 0.459473
vt 0.009942 0.459413
vt 0.014538 0.297360
vt 0.983973 0.297901
vt 0.009912 0.459413
vt 0.983973 0.407358
vt 0.014538 0.407358
vt 0.983973 0.516815
vt 0.014538 0.517355
vt 0.014538 0.627173
vt 0.983973 0.626632
vt 0.014538 0.846508
vt 0.014538 0.736840
vt 0.014538 0.956325
vt 0.983973 0.736840
vt 0.983973 0.956866
vt 0.983973 0.847048
vt 0.984213 0.101905
vt 0.984213 0.101905
vt 0.984243 0.101935
vt 0.984213 0.101965
vt 0.984213 0.101965
vt 0.984213 0.101935
vt 0.009912 0.459533
vt 0.009942 0.459533
vt 0.009942 0.459473
vt 0.009912 0.459473
vt 0.009942 0.459413
vt 0.014538 0.297360
vt 0.983973 0.297901
vt 0.009912 0.459413
vt 0.983973 0.407358
vt 0.014538 0.407358
vt 0.983973 0.516815
vt 0.014538 0.517355
vt 0.014538 0.627173
vt 0.983973 0.626632
vt 0.014538 0.846508
vt 0.014538 0.736840
vt 0.014538 0.956325
vt 0.983973 0.736840
vt 0.983973 0.956866
vt 0.983973 0.847048
vn 0.000000 0.000000 -1.000000
vn 0.000000 0.000000 -1.000000
vn 0.000000 0.000000 -1.000000
vn 0.000000 0.000000 -1.000000
vn 0.000000 0.000000 -1.000000
vn 0.000000 0.000000 -1.000000
vn 0.000000 0.000000 1.000000
vn 0.000000 0.000000 1.000000
vn 0.000000 0.000000 1.000000
vn 0.000000 0.000000 1.000000
vn 0.000000 0.000000 1.000000
vn -0.865783 0.500230 -0.013729
vn -0.867510 0.497232 -0.013659
vn 0.000000 0.000000 1.000000
vn -0.955140 0.295768 -0.015157
vn -0.994674 -0.101851 -0.015806
vn -0.733576 -0.679437 -0.015207
vn -0.409502 -0.912171 -0.015852
vn 0.587711 -0.808916 -0.015844
vn 0.222651 -0.974779 -0.015244
vn 0.499507 0.866166 -0.015813
vn 0.994674 0.101851 -0.015793
vn 0.000000 0.999906 -0.013706
vn 0.955376 -0.295003 -0.015177
vn 0.000000 0.999906 -0.013706
vn 0.499660 0.866077 -0.015838
vn 0.000000 0.000000 -1.000000
vn 0.000000 0.000000 -1.000000
vn 0.000000 0.000000 -1.000000
vn 0.000000 0.000000 -1.000000
vn 0.000000 0.000000 -1.000000
vn 0.000000 0.000000 -1.000000
vn 0.000000 0.000000 1.000000
vn 0.000000 0.000000 1.000000
vn 0.000000 0.000000 1.000000
vn 0.000000 0.000000 1.000000
vn 0.000000 0.000000 1.000000
vn -0.865783 0.500230 -0.013729
vn -0.867510 0.497232 -0.013659
vn 0.000000 0.000000 1.000000
vn -0.955140 0.295768 -0.015157
vn -0.994674 -0.101851 -0.015806
vn -0.733576 -0.679437 -0.015207
vn -0.409502 -0.912171 -0.015852
vn 0.587711 -0.808916 -0.015844
vn 0.222651 -0.974779 -0.015244
vn 0.499507 0.866166 -0.015813
vn 0.994674 0.101851 -0.015793
vn 0.000000 0.999906 -0.013706
vn 0.955376 -0.295003 -0.015177
vn 0.000000 0.999906 -0.013706
vn 0.499660 0.866077 -0.015838
f 2/2/2 3/3/3 1/1/1
f 6/6/6 3/3/3 2/2/2
f 6/6/6 5/5/5 3/3/3
f 3/3/3 5/5/5 4/4/4
f 8/8/8 7/7/7 9/9/9
f 9/9/9 7/7/7 10/10/10
f 10/10/10 11/11/11 9/9/9
f 14/14/14 11/11/11 10/10/10
f 15/15/15 12/12/12 13/13/13
f 16/16/16 12/12/12 15/15/15
f 17/17/17 16/16/16 15/15/15
f 18/18/18 16/16/16 17/17/17
f 20/20/20 18/18/18 17/17/17
f 19/19/19 18/18/18 20/20/20
f 24/24/24 19/19/19 20/20/20
f 22/22/22 19/19/19 24/24/24
f 26/26/26 22/22/22 24/24/24
f 21/21/21 22/22/22 26/26/26
f 26/26/26 23/23/23 21/21/21
f 25/25/25 23/23/23 26/26/26
f 28/28/28 29/29/29 27/27/27
f 32/32/32 29/29/29 28/28/28
f 32/32/32 31/31/31 29/29/29
f 29/29/29 31/31/31 30/30/30
f 34/34/34 33/33/33 35/35/35
f 35/35/35 33/33/33 36/36/36
f 36/36/36 37/37/37 35/35/35
f 40/40/40 37/37/37 36/36/36
f 41/41/41 38/38/38 39/39/39
f 42/42/42 38/38/38 41/41/41
f 43/43/43 42/42/42 41/41/41
f 44/44/44 42/42/42 43/43/43
f 46/46/46 44/44/44 43/43/43
f 45/45/45 44/44/44 46/46/46
f 50/50/50 45/45/45 46/46/46
f 48/48/48 45/45/45 50/50/50
f 52/52/52 48/48/48 50/50/50
f 47/47/47 48/48/48 52/52/52
f 52/52/52 49/49/49 47/47/47
f 51/51/51 49/49/49 52/52/52
