# Exported by s4extract — Prop_Utensil_Chopsticks_lod01_g00
o Prop_Utensil_Chopsticks_lod01_g00
v -0.001617 0.004242 -0.157445
v -0.001617 -0.000763 -0.157445
v -0.004517 0.001740 -0.157445
v 0.001251 0.001740 -0.157445
v -0.001617 0.007477 0.078555
v -0.008271 0.001740 0.078555
v 0.005005 0.001740 0.078555
v -0.001617 0.007477 0.078555
v -0.001617 0.004242 -0.157445
v -0.001617 -0.004028 0.078555
v -0.004517 0.001740 -0.157445
v -0.008271 0.001740 0.078555
v -0.001617 -0.000763 -0.157445
v -0.001617 -0.004028 0.078555
v -0.001617 0.007477 0.078555
v 0.001251 0.001740 -0.157445
v 0.005005 0.001740 0.078555
v -0.001617 0.004242 -0.157445
v 0.008637 0.004242 -0.157445
v 0.008637 -0.000763 -0.157445
v 0.005737 0.001740 -0.157445
v 0.011505 0.001740 -0.157445
v 0.008637 0.007477 0.078555
v 0.001984 0.001740 0.078555
v 0.015259 0.001740 0.078555
v 0.008637 0.007477 0.078555
v 0.008637 0.004242 -0.157445
v 0.008637 -0.004028 0.078555
v 0.005737 0.001740 -0.157445
v 0.001984 0.001740 0.078555
v 0.008637 -0.000763 -0.157445
v 0.008637 -0.004028 0.078555
v 0.008637 0.007477 0.078555
v 0.011505 0.001740 -0.157445
v 0.015259 0.001740 0.078555
v 0.008637 0.004242 -0.157445
vt 0.999969 0.087527
vt 0.999969 0.087588
vt 1.000000 0.087558
vt 0.999969 0.087558
vt 0.010071 0.450880
vt 0.010071 0.450819
vt 0.010102 0.450819
vt 0.014771 0.286111
vt 0.999725 0.286660
vt 0.010071 0.450758
vt 0.999725 0.397870
vt 0.014771 0.397870
vt 0.999725 0.564867
vt 0.014771 0.565416
vt 0.014771 0.899838
vt 0.999725 0.732627
vt 0.014771 0.732627
vt 0.999725 0.900388
vt 0.999969 0.087527
vt 0.999969 0.087588
vt 1.000000 0.087558
vt 0.999969 0.087558
vt 0.010071 0.450880
vt 0.010071 0.450819
vt 0.010102 0.450819
vt 0.014771 0.286111
vt 0.999725 0.286660
vt 0.010071 0.450758
vt 0.999725 0.397870
vt 0.014771 0.397870
vt 0.999725 0.564867
vt 0.014771 0.565416
vt 0.014771 0.899838
vt 0.999725 0.732627
vt 0.014771 0.732627
vt 0.999725 0.900388
vn 0.000000 0.000000 -1.000000
vn 0.000000 0.000000 -1.000000
vn 0.000000 0.000000 -1.000000
vn 0.000000 0.000000 -1.000000
vn 0.000000 0.000000 1.000000
vn 0.000000 0.000000 1.000000
vn 0.000000 0.000000 1.000000
vn -0.653144 0.757163 -0.010384
vn -0.653377 0.756961 -0.010376
vn 0.000000 0.000000 1.000000
vn -0.850085 0.526473 -0.013516
vn -0.979127 -0.202652 -0.015596
vn -0.421144 -0.906907 -0.012526
vn 0.153166 -0.988106 -0.013679
vn 0.654763 0.755763 -0.010360
vn 0.851829 -0.523645 -0.013540
vn 0.979549 0.200605 -0.015547
vn 0.655542 0.755087 -0.010389
vn 0.000000 0.000000 -1.000000
vn 0.000000 0.000000 -1.000000
vn 0.000000 0.000000 -1.000000
vn 0.000000 0.000000 -1.000000
vn 0.000000 0.000000 1.000000
vn 0.000000 0.000000 1.000000
vn 0.000000 0.000000 1.000000
vn -0.653144 0.757163 -0.010384
vn -0.653377 0.756961 -0.010376
vn 0.000000 0.000000 1.000000
vn -0.850085 0.526473 -0.013516
vn -0.979127 -0.202652 -0.015596
vn -0.421144 -0.906907 -0.012526
vn 0.153166 -0.988106 -0.013679
vn 0.654763 0.755763 -0.010360
vn 0.851829 -0.523645 -0.013540
vn 0.979549 0.200605 -0.015547
vn 0.655542 0.755087 -0.010389
f 4/4/4 3/3/3 1/1/1
f 4/4/4 2/2/2 3/3/3
f 5/5/5 6/6/6 7/7/7
f 10/10/10 7/7/7 6/6/6
f 11/11/11 8/8/8 9/9/9
f 12/12/12 8/8/8 11/11/11
f 13/13/13 12/12/12 11/11/11
f 14/14/14 12/12/12 13/13/13
f 16/16/16 14/14/14 13/13/13
f 17/17/17 14/14/14 16/16/16
f 18/18/18 17/17/17 16/16/16
f 15/15/15 17/17/17 18/18/18
f 22/22/22 21/21/21 19/19/19
f 22/22/22 20/20/20 21/21/21
f 23/23/23 24/24/24 25/25/25
f 28/28/28 25/25/25 24/24/24
f 29/29/29 26/26/26 27/27/27
f 30/30/30 26/26/26 29/29/29
f 31/31/31 30/30/30 29/29/29
f 32/32/32 30/30/30 31/31/31
f 34/34/34 32/32/32 31/31/31
f 35/35/35 32/32/32 34/34/34
f 36/36/36 35/35/35 34/34/34
f 33/33/33 35/35/35 36/36/36
