# Exported by s4extract — object_Food_PlateFork_Multi_lod00_g01
o object_Food_PlateFork_Multi_lod00_g01
v 0.022584 0.042299 0.040803
v 0.021790 0.058107 0.041108
v 0.033296 0.055422 0.065096
v -0.014863 0.044282 0.033448
v -0.035127 0.042848 0.063234
v -0.058626 0.060091 -0.013642
v -0.070803 0.057039 -0.064791
v -0.046358 0.058107 0.038697
v -0.015656 0.060091 0.033662
v -0.046785 0.045381 -0.074160
v -0.070803 0.057039 -0.064791
v -0.070803 0.057039 -0.064791
v -0.038057 0.061769 -0.049074
v -0.060305 0.040620 -0.040437
v -0.013855 0.059542 0.057924
v -0.045534 0.042299 0.038514
v -0.015656 0.060091 0.033662
v -0.014863 0.044282 0.033448
v -0.059420 0.044282 -0.013428
v -0.028565 0.058107 -0.021210
v -0.063845 0.046968 -0.039674
v 0.065676 0.047914 0.097446
v -0.015076 0.049806 -0.092318
v 0.087985 0.019501 0.074740
v 0.056978 0.047914 0.100803
v -0.010865 0.049806 -0.093966
v -0.012970 0.053377 -0.093142
v -0.010865 0.049806 -0.093966
v -0.015076 0.049806 -0.092318
v -0.015076 0.049806 -0.092318
v -0.012970 0.053377 -0.093142
v 0.061342 0.055300 0.099124
v 0.056978 0.047914 0.100803
v 0.142949 0.030702 0.052767
v 0.078433 0.012787 0.047456
v 0.133396 0.023988 0.025452
v 0.065676 0.047914 0.097446
v -0.061098 0.059542 -0.040376
v -0.029359 0.042299 -0.020997
v -0.037080 0.055422 -0.046419
v -0.058626 0.060091 -0.013642
v -0.059420 0.044282 -0.013428
v -0.063845 0.046968 -0.039674
v -0.028565 0.058107 -0.021210
v -0.037080 0.055422 -0.046419
v -0.039827 0.042848 -0.045717
v -0.062960 0.055727 -0.039399
v -0.061098 0.059542 -0.040376
v -0.047273 0.059847 -0.073977
v -0.039827 0.042848 -0.045717
v -0.050905 0.045900 0.012177
v -0.035127 0.042848 0.063234
v -0.070315 0.042573 -0.065004
v -0.035371 0.046663 -0.050142
v -0.070315 0.042573 -0.065004
v -0.062960 0.055727 -0.039399
v 0.019318 0.061769 -0.047060
v -0.005860 0.072634 -0.074343
v -0.001709 0.040620 -0.035737
v 0.021851 0.046663 -0.048402
v 0.018067 0.039552 -0.086032
v -0.026093 0.045747 -0.054170
v -0.029389 0.064547 -0.061678
v 0.015534 0.058382 -0.093814
v -0.031404 0.045778 -0.074129
v -0.055757 0.034822 -0.063234
v -0.085360 0.039521 -0.075503
v -0.034516 0.039552 -0.087924
v -0.032991 0.064608 -0.082156
v -0.059725 0.072634 -0.079257
v -0.031404 0.045778 -0.074129
v -0.013855 0.059542 0.057924
v -0.034181 0.058351 -0.075014
v -0.034181 0.058351 -0.075014
v -0.005860 0.072634 -0.074343
v -0.046785 0.045381 -0.074160
v -0.038057 0.061769 -0.049074
v -0.060305 0.040620 -0.040437
v -0.046785 0.045381 -0.074160
v -0.047273 0.059847 -0.073977
v -0.060305 0.040620 -0.040437
v -0.035371 0.046663 -0.050142
v -0.038057 0.061769 -0.049074
v -0.030854 0.039521 -0.067507
v -0.010529 0.066439 -0.087710
v -0.004639 0.028626 -0.072298
v -0.062960 0.055727 -0.039399
v -0.047273 0.059847 -0.073977
v -0.035371 0.046663 -0.050142
v -0.070315 0.042573 -0.065004
v -0.013855 0.059542 0.057924
v -0.037873 0.055422 0.063936
v -0.011109 0.046968 0.057253
v -0.011109 0.046968 0.057253
v -0.061098 0.059542 -0.040376
v -0.058626 0.060091 -0.013642
v -0.087741 0.058351 -0.083377
v -0.026490 0.042146 0.006073
v -0.028565 0.058107 -0.021210
v -0.045534 0.042299 0.038514
v -0.046358 0.058107 0.038697
v -0.059420 0.044282 -0.013428
v -0.037080 0.055422 -0.046419
v -0.029359 0.042299 -0.020997
v -0.023957 0.056490 0.005463
v -0.040529 0.059328 0.036927
v -0.026490 0.042146 0.006073
v -0.021485 0.043062 0.032167
v -0.021058 0.058657 0.032075
v -0.023957 0.056490 0.005463
v -0.040956 0.043733 0.037049
v -0.050905 0.045900 0.012177
v -0.048402 0.060244 0.011567
v -0.058046 0.059206 -0.010437
v -0.026490 0.042146 0.006073
v -0.023682 0.057131 0.000824
v -0.033174 0.060091 -0.019807
v -0.058046 0.059206 -0.010437
v -0.047792 0.059206 0.011841
v -0.058046 0.043184 -0.010437
v -0.024506 0.042299 -0.000977
v -0.033967 0.045289 -0.021577
v -0.058046 0.043184 -0.010437
v -0.047792 0.043184 0.011841
v -0.023682 0.057131 0.000824
v -0.047792 0.059206 0.011841
v -0.047792 0.043184 0.011841
v -0.058046 0.059206 -0.010437
v -0.033967 0.045289 -0.021577
v -0.029359 0.042299 -0.020997
v -0.023682 0.057131 0.000824
v -0.024506 0.042299 -0.000977
v -0.033174 0.060091 -0.019807
v -0.033967 0.045289 -0.021577
v -0.047792 0.059206 0.011841
v -0.024506 0.042299 -0.000977
v -0.058046 0.043184 -0.010437
v -0.047792 0.043184 0.011841
v -0.033174 0.060091 -0.019807
v -0.063845 0.046968 -0.039674
v -0.039827 0.042848 -0.045717
v -0.037873 0.055422 0.063936
v 0.085971 0.024049 0.097537
v -0.011109 0.046968 0.057253
v -0.035127 0.042848 0.063234
v 0.031739 0.024049 0.091769
v -0.014863 0.044282 0.033448
v -0.046358 0.058107 0.038697
v 0.050569 0.024049 -0.085482
v -0.035340 0.027528 0.100406
v -0.015656 0.060091 0.033662
v -0.110263 0.027528 -0.083560
v 0.057894 0.027528 0.086337
v 0.040895 0.027528 -0.102847
v -0.093234 0.027528 0.105594
v 0.028932 0.037141 0.088931
v 0.011933 0.037141 -0.100223
v 0.000000 0.027528 0.091525
v -0.017029 0.027528 -0.097629
v -0.009949 0.028748 0.115604
v -0.038759 0.038423 0.111820
v -0.041841 0.031495 -0.080416
v 0.015748 0.031373 -0.072573
v -0.013062 0.041047 -0.076357
v -0.147954 0.024506 0.007324
v -0.120304 0.022492 0.046876
v -0.067568 0.028871 0.107730
v -0.150945 0.034120 0.040773
v -0.120701 0.014252 -0.002899
v -0.105869 0.016297 0.043031
v -0.117283 0.012879 0.013398
v -0.134892 0.022767 0.027894
v -0.110385 0.021729 -0.053743
v -0.140538 0.021638 0.006226
v -0.091708 0.007782 0.012268
v -0.157842 0.027528 -0.017151
v -0.067354 0.037202 0.088351
v -0.036592 0.039583 0.059053
v -0.093051 0.015839 -0.030366
v -0.036958 0.039216 0.088748
v -0.003601 0.035920 0.000671
v 0.002228 0.038270 0.042726
v -0.066988 0.037599 0.058657
v -0.021668 0.037904 0.025117
v 0.116367 0.019593 0.030976
v 0.124027 0.015107 -0.016511
v 0.020295 0.036287 0.018281
v 0.143101 0.024812 0.009064
v -0.052370 0.027528 -0.088778
v -0.064302 0.037141 0.103000
v 0.097293 0.009888 0.005371
v -0.081301 0.037141 -0.086154
v -0.045534 0.042299 0.038514
v -0.037873 0.055422 0.063936
v 0.000031 0.034822 -0.058931
v -0.004639 0.028626 -0.072298
v 0.022858 0.045778 -0.072695
v -0.062716 0.066439 -0.093112
v -0.058748 0.028626 -0.077090
v -0.058748 0.028626 -0.077090
v 0.007599 0.045381 -0.070864
v 0.004181 0.043184 -0.006256
v 0.038636 0.042299 -0.000946
v -0.055757 0.034822 -0.063234
v -0.082247 0.045747 -0.061708
v -0.062716 0.066439 -0.093112
v -0.084628 0.064547 -0.069552
v 0.061342 0.055300 0.099124
v 0.026704 0.045289 -0.020234
v -0.023957 0.056490 0.005463
v 0.065676 0.047914 0.097446
v -0.085360 0.039521 -0.075503
v -0.084628 0.064547 -0.069552
v -0.082247 0.045747 -0.061708
v -0.055757 0.034822 -0.063234
v -0.050905 0.045900 0.012177
v 0.104831 0.024049 -0.079714
v 0.058870 0.035340 0.094638
v -0.034516 0.039552 -0.087924
v -0.062716 0.066439 -0.093112
v -0.036103 0.058382 -0.095981
v -0.059725 0.072634 -0.079257
v -0.036103 0.058382 -0.095981
v -0.087741 0.058351 -0.083377
v -0.032991 0.064608 -0.082156
v -0.059725 0.072634 -0.079257
v -0.058748 0.028626 -0.077090
v -0.048402 0.060244 0.011567
v 0.077700 0.035340 -0.082614
v 0.056978 0.047914 0.100803
v 0.038636 0.042299 -0.000946
v 0.017090 0.043184 0.014618
v 0.004181 0.043184 -0.006256
v 0.004181 0.059206 -0.006256
v 0.017090 0.059206 0.014618
v 0.017090 0.059206 0.014618
v 0.027345 0.059328 0.038636
v 0.027345 0.059328 0.038636
v 0.046083 0.058657 0.031434
v 0.027741 0.060091 -0.018586
v -0.001709 0.040620 -0.035737
v 0.039674 0.057131 0.000732
v 0.017090 0.043184 0.014618
v 0.026704 0.045289 -0.020234
v 0.038636 0.042299 -0.000946
v 0.039674 0.057131 0.000732
v 0.027741 0.060091 -0.018586
v -0.005127 0.046968 -0.034577
v 0.002441 0.044282 -0.009064
v 0.031373 0.042299 -0.020234
v 0.017975 0.042848 -0.043489
v 0.017975 0.042848 -0.043489
v 0.031373 0.042299 -0.020234
v 0.032136 0.058107 -0.020539
v 0.020600 0.055422 -0.044496
v 0.020600 0.055422 -0.044496
v 0.032136 0.058107 -0.020539
v 0.003235 0.060091 -0.009369
v -0.002503 0.059542 -0.035585
v -0.002503 0.059542 -0.035585
v 0.003235 0.060091 -0.009369
v 0.002441 0.044282 -0.009064
v -0.005127 0.046968 -0.034577
v 0.003235 0.060091 -0.009369
v 0.032136 0.058107 -0.020539
v 0.031373 0.042299 -0.020234
v 0.002441 0.044282 -0.009064
v 0.020600 0.055422 -0.044496
v -0.002503 0.059542 -0.035585
v -0.005127 0.046968 -0.034577
v -0.004242 0.055727 -0.034394
v 0.007141 0.059847 -0.070620
v 0.017975 0.042848 -0.043489
v -0.015107 0.057039 -0.058657
v -0.001709 0.040620 -0.035737
v 0.019318 0.061769 -0.047060
v -0.004242 0.055727 -0.034394
v -0.014649 0.042573 -0.058901
v -0.015107 0.057039 -0.058657
v -0.014649 0.042573 -0.058901
v 0.021851 0.046663 -0.048402
v 0.007599 0.045381 -0.070864
v 0.017090 0.043184 0.014618
v 0.026948 0.043733 0.038789
v -0.066652 0.049806 -0.098239
v -0.066652 0.049806 -0.098239
v -0.064486 0.053377 -0.098788
v -0.018708 0.047914 0.102268
v -0.062288 0.049806 -0.099338
v -0.064486 0.053377 -0.098788
v 0.045686 0.043062 0.031587
v 0.045686 0.043062 0.031587
v 0.026948 0.043733 0.038789
v 0.046083 0.058657 0.031434
v 0.039949 0.056490 0.005371
v 0.045717 0.061708 0.017365
v 0.015656 0.059114 0.028901
v 0.016449 0.060244 0.014405
v 0.016449 0.060244 0.014405
v 0.015656 0.059114 0.028901
v 0.017762 0.040681 0.028108
v 0.014039 0.045900 0.015351
v 0.047823 0.043275 0.016541
v 0.037538 0.042146 0.006287
v 0.014039 0.045900 0.015351
v 0.017762 0.040681 0.028108
v 0.037538 0.042146 0.006287
v 0.047823 0.043275 0.016541
v 0.045717 0.061708 0.017365
v 0.039949 0.056490 0.005371
v 0.045686 0.043062 0.031587
v 0.026948 0.043733 0.038789
v 0.027345 0.059328 0.038636
v 0.046083 0.058657 0.031434
v 0.014039 0.045900 0.015351
v 0.037538 0.042146 0.006287
v 0.039949 0.056490 0.005371
v 0.016449 0.060244 0.014405
v 0.039674 0.057131 0.000732
v 0.017090 0.059206 0.014618
v 0.004181 0.059206 -0.006256
v 0.027741 0.060091 -0.018586
v 0.004181 0.059206 -0.006256
v 0.004181 0.043184 -0.006256
v 0.026704 0.045289 -0.020234
v 0.007141 0.059847 -0.070620
v -0.010529 0.066439 -0.087710
v -0.048402 0.060244 0.011567
v -0.009644 0.047914 0.099979
v -0.066652 0.049806 -0.098239
v -0.062288 0.049806 -0.099338
v -0.014191 0.055300 0.101108
v 0.035920 0.042848 0.064089
v 0.033296 0.055422 0.065096
v 0.051637 0.060091 0.032350
v 0.059023 0.046968 0.055208
v 0.035920 0.042848 0.064089
v 0.021790 0.058107 0.041108
v -0.064486 0.053377 -0.098788
v -0.009644 0.047914 0.099979
v -0.018708 0.047914 0.102268
v -0.014191 0.055300 0.101108
v -0.014191 0.055300 0.101108
v -0.009644 0.047914 0.099979
v -0.062288 0.049806 -0.099338
v -0.018708 0.047914 0.102268
v -0.050935 0.059114 0.025849
v -0.019684 0.061708 0.018067
v -0.021058 0.058657 0.032075
v -0.040529 0.059328 0.036927
v -0.040529 0.059328 0.036927
v -0.040956 0.043733 0.037049
v -0.048738 0.040681 0.025330
v -0.050935 0.059114 0.025849
v -0.040956 0.043733 0.037049
v -0.021485 0.043062 0.032167
v -0.017518 0.043275 0.017518
v -0.048738 0.040681 0.025330
v -0.019684 0.061708 0.018067
v -0.017518 0.043275 0.017518
v -0.021485 0.043062 0.032167
v -0.021058 0.058657 0.032075
v -0.030854 0.039521 -0.067507
v 0.000031 0.034822 -0.058931
v -0.026093 0.045747 -0.054170
v -0.004639 0.028626 -0.072298
v 0.021851 0.046663 -0.048402
v -0.004242 0.055727 -0.034394
v 0.019318 0.061769 -0.047060
v 0.007141 0.059847 -0.070620
v 0.007599 0.045381 -0.070864
v -0.015107 0.057039 -0.058657
v -0.014649 0.042573 -0.058901
v 0.051637 0.060091 0.032350
v 0.021790 0.058107 0.041108
v 0.056398 0.059542 0.056215
v 0.033296 0.055422 0.065096
v 0.052431 0.044282 0.032044
v 0.051637 0.060091 0.032350
v 0.059023 0.046968 0.055208
v 0.056398 0.059542 0.056215
v 0.022584 0.042299 0.040803
v 0.052431 0.044282 0.032044
v 0.022584 0.042299 0.040803
v 0.052431 0.044282 0.032044
v 0.022858 0.045778 -0.072695
v -0.029389 0.064547 -0.061678
v -0.005860 0.072634 -0.074343
v 0.035920 0.042848 0.064089
v 0.056398 0.059542 0.056215
v 0.059023 0.046968 0.055208
v 0.018067 0.039552 -0.086032
v -0.012970 0.053377 -0.093142
v 0.061342 0.055300 0.099124
v -0.010865 0.049806 -0.093966
v 0.015534 0.058382 -0.093814
v 0.020295 0.064608 -0.080508
v 0.020295 0.064608 -0.080508
v 0.000031 0.034822 -0.058931
v -0.010529 0.066439 -0.087710
v 0.120334 0.044435 0.024964
v 0.009369 0.053652 -0.002991
v -0.015046 0.041810 -0.006439
v -0.066286 0.056337 -0.023591
v 0.007447 0.038820 -0.003265
v -0.012055 0.038820 -0.010010
v -0.046419 0.043489 0.008881
v -0.013092 0.056612 -0.006165
v -0.021943 0.040803 0.019379
v -0.011780 0.054628 -0.010804
v -0.038484 0.039369 -0.014557
v -0.037599 0.051943 -0.017243
v -0.021668 0.056612 0.018586
v -0.012055 0.038820 -0.010010
v -0.045503 0.056063 0.006226
v -0.021943 0.040803 0.019379
v -0.011780 0.054628 -0.010804
v -0.038484 0.039369 -0.014557
v 0.005615 0.055727 0.023255
v 0.005615 0.039705 0.023255
v 0.030641 0.055849 0.030732
v -0.037599 0.051943 -0.017243
v -0.045503 0.056063 0.006226
v -0.046419 0.043489 0.008881
v -0.012055 0.038820 -0.010010
v -0.021668 0.056612 0.018586
v -0.045686 0.052248 0.008332
v -0.039796 0.043184 -0.020692
v -0.071200 0.039094 0.000641
v 0.009369 0.053652 -0.002991
v -0.021668 0.056612 0.018586
v -0.021943 0.040803 0.019379
v -0.046419 0.043489 0.008881
v -0.011780 0.054628 -0.010804
v -0.037599 0.051943 -0.017243
v -0.038484 0.039369 -0.014557
v -0.045686 0.052248 0.008332
v -0.045503 0.056063 0.006226
v -0.066286 0.056337 -0.023591
v -0.071291 0.053560 0.001160
v -0.045137 0.037141 0.005493
v -0.040376 0.058290 -0.017884
v -0.071291 0.053560 0.001160
v 0.005615 0.055727 0.023255
v -0.013092 0.056612 -0.006165
v 0.009369 0.053652 -0.002991
v -0.071200 0.039094 0.000641
v 0.030488 0.040254 0.031129
v 0.037080 0.055177 0.011719
v 0.036958 0.039583 0.012116
v 0.004212 0.042421 0.026063
v 0.005036 0.056764 0.023621
v 0.005036 0.056764 0.023621
v 0.004212 0.042421 0.026063
v -0.066164 0.041902 -0.024110
v -0.040376 0.058290 -0.017884
v -0.045137 0.037141 0.005493
v -0.066164 0.041902 -0.024110
v -0.066286 0.056337 -0.023591
v -0.045137 0.037141 0.005493
v -0.039796 0.043184 -0.020692
v 0.005615 0.039705 0.023255
v 0.077395 0.039369 0.012543
v 0.090518 0.056063 -0.005005
v 0.053194 0.054628 0.000610
v -0.018677 0.039705 0.019837
v -0.018677 0.055727 0.019837
v 0.005615 0.055727 0.023255
v 0.007447 0.038820 -0.003265
v 0.013123 0.053011 -0.000244
v 0.005036 0.056764 0.023621
v 0.037080 0.055177 0.011719
v 0.004212 0.042421 0.026063
v 0.013123 0.053011 -0.000244
v 0.026032 0.058229 0.002991
v 0.036958 0.039583 0.012116
v 0.026765 0.039796 0.000855
v 0.013123 0.053011 -0.000244
v 0.026765 0.039796 0.000855
v 0.012299 0.038667 0.002228
v 0.016419 0.037202 0.031343
v 0.012299 0.038667 0.002228
v 0.036958 0.039583 0.012116
v 0.030488 0.040254 0.031129
v 0.012299 0.038667 0.002228
v -0.018677 0.055727 0.019837
v -0.018677 0.039705 0.019837
v -0.008942 0.057283 -0.031587
v 0.013367 0.056948 -0.074435
v 0.023041 0.055269 -0.040895
v -0.013092 0.056612 -0.006165
v -0.015046 0.041810 -0.006439
v 0.005615 0.039705 0.023255
v -0.018677 0.055727 0.019837
v -0.018677 0.039705 0.019837
v -0.039796 0.043184 -0.020692
v -0.015046 0.041810 -0.006439
v 0.007447 0.038820 -0.003265
v -0.082766 0.061068 0.010224
v -0.066164 0.041902 -0.024110
v -0.071291 0.053560 0.001160
v -0.071200 0.039094 0.000641
v -0.078768 0.054903 -0.044862
v 0.070681 0.036073 0.082308
v -0.074892 0.042268 0.012452
v -0.071139 0.036073 -0.041871
v -0.097629 0.036073 -0.005707
v -0.033815 0.027894 -0.087954
v -0.111087 0.026460 0.020051
v 0.057222 0.026460 0.108066
v -0.040376 0.058290 -0.017884
v -0.045686 0.052248 0.008332
v 0.041353 0.056612 0.008057
v 0.015717 0.055635 0.033479
v -0.084140 0.026460 -0.031465
v 0.084170 0.026460 0.056551
v 0.110569 0.025269 0.035432
v 0.091769 0.034944 0.057619
v 0.075686 0.051943 0.014801
v 0.077395 0.039369 0.012543
v 0.075686 0.051943 0.014801
v -0.052583 0.037568 -0.065798
v 0.072787 0.025391 0.079623
v -0.071566 0.028016 -0.043764
v -0.030152 0.021607 0.076571
v 0.000519 0.030274 0.090884
v -0.014222 0.004822 0.052583
v 0.016449 0.013459 0.066897
v -0.018586 0.058962 -0.065126
v 0.092227 0.043489 -0.007263
v 0.053194 0.054628 0.000610
v 0.053682 0.038820 -0.000061
v 0.092227 0.043489 -0.007263
v 0.053682 0.038820 -0.000061
v 0.073794 0.056612 -0.022675
v -0.078890 0.021943 0.049318
v -0.024384 0.019013 0.074770
v 0.059328 0.033723 0.074526
v -0.011902 0.017701 0.047884
v -0.066378 0.020631 0.022431
v -0.090732 0.062960 -0.020966
v -0.088198 0.036042 0.007599
v -0.075106 0.025147 -0.015625
v 0.053682 0.038820 -0.000061
v 0.074313 0.040803 -0.023347
v 0.077395 0.039369 0.012543
v 0.076083 0.035737 0.049165
v 0.034547 0.034120 0.058138
v 0.051332 0.036103 0.032807
v 0.081271 0.017853 -0.038087
v 0.075503 0.030641 -0.070101
v 0.048738 0.011261 -0.034852
v 0.042940 0.024049 -0.066866
v -0.090732 0.062960 -0.020966
v 0.063631 0.043489 0.016968
v 0.054781 0.051943 0.043092
v -0.077456 0.069155 -0.015992
v 0.028993 0.054628 0.036592
v 0.041627 0.040803 0.007233
v 0.062716 0.056063 0.019654
v 0.062716 0.056063 0.019654
v 0.041353 0.056612 0.008057
v 0.029267 0.038820 0.035798
v 0.063631 0.043489 0.016968
v 0.063631 0.043489 0.016968
v 0.041627 0.040803 0.007233
v 0.028993 0.054628 0.036592
v 0.055696 0.039369 0.040407
v 0.055696 0.039369 0.040407
v 0.029267 0.038820 0.035798
v 0.041353 0.056612 0.008057
v 0.029267 0.038820 0.035798
v 0.054781 0.051943 0.043092
v 0.041627 0.040803 0.007233
v 0.062716 0.056063 0.019654
v 0.055696 0.039369 0.040407
v 0.028993 0.054628 0.036592
v 0.054781 0.051943 0.043092
v -0.065462 0.061129 -0.040040
v -0.078768 0.054903 -0.044862
v -0.074892 0.042268 0.012452
v -0.065462 0.061129 -0.040040
v -0.077456 0.069155 -0.015992
v -0.057833 0.042299 -0.037019
v -0.061831 0.031343 -0.010651
v -0.082766 0.061068 0.010224
v -0.077456 0.069155 -0.015992
v -0.096072 0.054872 0.005371
v -0.090732 0.062960 -0.020966
v -0.096072 0.054872 0.005371
v -0.061831 0.031343 -0.010651
v 0.006623 0.051943 -0.071230
v -0.018677 0.056337 -0.086184
v 0.004913 0.039369 -0.068972
v 0.062166 0.039796 -0.034059
v 0.042879 0.037202 -0.008271
v 0.047975 0.038667 -0.037233
v 0.060823 0.058229 -0.032228
v -0.071139 0.036073 -0.041871
v -0.075106 0.025147 -0.015625
v -0.057833 0.042299 -0.037019
v 0.035096 0.039705 -0.019318
v 0.046846 0.053652 -0.043092
v 0.013062 0.055727 -0.030122
v 0.035096 0.039705 -0.019318
v -0.049013 0.046327 -0.092746
v -0.046327 0.046327 -0.096377
v 0.114750 0.044435 0.032441
v 0.056581 0.055849 -0.004456
v 0.030641 0.055849 0.030732
v 0.016419 0.037202 0.031343
v -0.075106 0.025147 -0.015625
v -0.061831 0.031343 -0.010651
v 0.117527 0.051820 0.028687
v 0.114750 0.044435 0.032441
v -0.049013 0.046327 -0.092746
v -0.049013 0.046327 -0.092746
v 0.013062 0.039705 -0.030122
v 0.046846 0.053652 -0.043092
v -0.088198 0.036042 0.007599
v 0.013062 0.039705 -0.030122
v 0.035096 0.055727 -0.019318
v 0.045076 0.038820 -0.043947
v 0.015717 0.055635 0.033479
v 0.030641 0.055849 0.030732
v 0.030488 0.040254 0.031129
v 0.026032 0.058229 0.002991
v 0.049532 0.053011 -0.039308
v 0.013062 0.055727 -0.030122
v 0.037080 0.055177 0.011719
v 0.046846 0.053652 -0.043092
v 0.026460 0.056612 -0.053102
v 0.013062 0.039705 -0.030122
v 0.035096 0.055727 -0.019318
v 0.026460 0.056612 -0.053102
v 0.024720 0.041810 -0.053957
v 0.035096 0.039705 -0.019318
v 0.013062 0.055727 -0.030122
v 0.024720 0.041810 -0.053957
v 0.117527 0.051820 0.028687
v -0.046327 0.046327 -0.096377
v 0.120334 0.044435 0.024964
v 0.045076 0.038820 -0.043947
v 0.024720 0.041810 -0.053957
v 0.035096 0.055727 -0.019318
v 0.026460 0.056612 -0.053102
v 0.028657 0.038820 -0.056429
v 0.045076 0.038820 -0.043947
v -0.009888 0.043489 -0.049135
v 0.004913 0.039369 -0.068972
v 0.029145 0.054628 -0.057100
v 0.010102 0.040803 -0.031587
v 0.004913 0.039369 -0.068972
v 0.006623 0.051943 -0.071230
v 0.010620 0.056612 -0.032258
v 0.028657 0.038820 -0.056429
v 0.006623 0.051943 -0.071230
v -0.008179 0.056063 -0.051393
v 0.010102 0.040803 -0.031587
v 0.029145 0.054628 -0.057100
v -0.008179 0.056063 -0.051393
v -0.009888 0.043489 -0.049135
v 0.028657 0.038820 -0.056429
v 0.010620 0.056612 -0.032258
v 0.010620 0.056612 -0.032258
v 0.010102 0.040803 -0.031587
v 0.098880 0.051820 0.043275
v 0.029145 0.054628 -0.057100
v 0.097385 0.044435 0.047700
v 0.032899 0.042421 -0.017090
v 0.100375 0.044435 0.038850
v 0.034455 0.056764 -0.019166
v 0.068331 0.039583 -0.020173
v 0.047975 0.038667 -0.037233
v 0.068606 0.055177 -0.020508
v 0.056307 0.040254 -0.004089
v -0.009033 0.052248 -0.049471
v -0.047670 0.049898 -0.094546
v -0.046327 0.046327 -0.096377
v -0.047670 0.049898 -0.094546
v -0.047670 0.049898 -0.094546
v 0.117527 0.051820 0.028687
v -0.008179 0.056063 -0.051393
v -0.017609 0.036073 -0.105075
v 0.092227 0.043489 -0.007263
v -0.023927 0.054903 -0.110294
v 0.097385 0.044435 0.047700
v -0.095737 0.046327 -0.024659
v -0.097171 0.046327 -0.020417
v 0.114750 0.044435 0.032441
v 0.068606 0.055177 -0.020508
v 0.120334 0.044435 0.024964
v 0.056581 0.055849 -0.004456
v 0.056307 0.040254 -0.004089
v 0.056307 0.040254 -0.004089
v 0.056581 0.055849 -0.004456
v 0.068331 0.039583 -0.020173
v 0.068606 0.055177 -0.020508
v 0.041505 0.055635 -0.006470
v 0.068331 0.039583 -0.020173
v 0.049532 0.053011 -0.039308
v 0.034455 0.056764 -0.019166
v 0.042879 0.037202 -0.008271
v 0.060823 0.058229 -0.032228
v 0.034455 0.056764 -0.019166
v 0.032899 0.042421 -0.017090
v 0.032899 0.042421 -0.017090
v 0.041505 0.055635 -0.006470
v 0.062166 0.039796 -0.034059
v -0.018464 0.031343 -0.072512
v -0.038057 0.042268 -0.054598
v -0.029542 0.025147 -0.081362
v -0.007599 0.037141 -0.051973
v -0.018464 0.031343 -0.072512
v -0.031129 0.053560 -0.064211
v -0.031678 0.069155 -0.082430
v -0.018464 0.031343 -0.072512
v -0.049196 0.036042 -0.063326
v -0.029542 0.025147 -0.081362
v 0.049532 0.053011 -0.039308
v 0.047975 0.038667 -0.037233
v 0.004181 0.058290 -0.072726
v -0.009888 0.043489 -0.049135
v -0.049196 0.036042 -0.063326
v -0.056001 0.054872 -0.067934
v -0.029542 0.025147 -0.081362
v -0.042726 0.062960 -0.091281
v -0.038057 0.042268 -0.054598
v -0.044862 0.061068 -0.059175
v -0.023927 0.054903 -0.110294
v -0.017609 0.036073 -0.105075
v 0.100375 0.044435 0.038850
v -0.042726 0.062960 -0.091281
v -0.095737 0.046327 -0.024659
v -0.097171 0.046327 -0.020417
v 0.098880 0.051820 0.043275
v -0.096438 0.049898 -0.022553
v -0.097171 0.046327 -0.020417
v 0.097385 0.044435 0.047700
v -0.096438 0.049898 -0.022553
v -0.096438 0.049898 -0.022553
v 0.100375 0.044435 0.038850
v -0.095737 0.046327 -0.024659
v -0.044862 0.061068 -0.059175
v 0.098880 0.051820 0.043275
v -0.042726 0.062960 -0.091281
v -0.056001 0.054872 -0.067934
v -0.006470 0.042299 -0.096316
v -0.031678 0.069155 -0.082430
v -0.031678 0.069155 -0.082430
v 0.075686 0.051943 0.014801
v -0.031129 0.053560 -0.064211
v -0.012787 0.061129 -0.101566
v -0.009033 0.052248 -0.049471
v 0.005585 0.043184 -0.075228
v -0.030885 0.039094 -0.064669
v -0.030885 0.039094 -0.064669
v -0.007599 0.037141 -0.051973
v 0.004181 0.058290 -0.072726
v -0.018403 0.041902 -0.086642
v -0.018403 0.041902 -0.086642
v 0.005585 0.043184 -0.075228
v -0.007599 0.037141 -0.051973
v 0.004181 0.058290 -0.072726
v -0.018677 0.056337 -0.086184
v 0.005585 0.043184 -0.075228
v -0.018677 0.056337 -0.086184
v -0.012787 0.061129 -0.101566
v -0.009033 0.052248 -0.049471
v 0.090518 0.056063 -0.005005
v 0.073794 0.056612 -0.022675
v -0.030885 0.039094 -0.064669
v 0.053194 0.054628 0.000610
v -0.018403 0.041902 -0.086642
v 0.074313 0.040803 -0.023347
v 0.073794 0.056612 -0.022675
v -0.031129 0.053560 -0.064211
v -0.006470 0.042299 -0.096316
v 0.090518 0.056063 -0.005005
v 0.074313 0.040803 -0.023347
vt 0.499222 0.634297
vt 0.499222 0.508591
vt 0.499222 0.634297
vt 0.499222 0.638966
vt 0.757805 0.872005
vt 0.499222 0.508591
vt 0.995849 0.633045
vt 0.499222 0.639027
vt 0.499222 0.905820
vt 0.760643 0.508591
vt 0.995849 0.508591
vt 0.995849 0.851375
vt 0.760643 0.641377
vt 0.760643 0.633045
vt 0.757805 0.508591
vt 0.499222 0.905759
vt 0.499222 0.508591
vt 0.499222 0.634297
vt 0.499222 0.634297
vt 0.499222 0.638966
vt 0.757805 0.634297
vt 0.859828 0.919126
vt 0.034211 0.943358
vt 0.244575 0.299142
vt 0.859859 0.943358
vt 0.034181 0.919126
vt 0.034181 0.968169
vt 0.034181 0.919126
vt 0.034211 0.943358
vt 0.034211 0.943358
vt 0.034181 0.968169
vt 0.859859 0.968169
vt 0.859859 0.943358
vt 0.589526 0.299142
vt 0.244575 0.488937
vt 0.589526 0.488937
vt 0.859828 0.991424
vt 0.757805 0.508591
vt 0.757805 0.508591
vt 0.757805 0.651814
vt 0.499222 0.634297
vt 0.499222 0.508591
vt 0.499222 0.634297
vt 0.757805 0.634297
vt 0.757805 0.508591
vt 0.757805 0.634297
vt 0.760643 0.870540
vt 0.499222 0.508591
vt 0.995849 0.638264
vt 0.757805 0.508591
vt 0.245705 0.648793
vt 0.757805 0.508591
vt 0.995849 0.638295
vt 0.760643 0.870540
vt 0.995849 0.633045
vt 0.760643 0.508591
vt 0.760643 0.633045
vt 0.915830 0.491470
vt 0.995849 0.633045
vt 0.760643 0.508591
vt 0.885556 0.339824
vt 0.634938 0.339824
vt 0.635121 0.456008
vt 0.886196 0.455763
vt 0.915830 0.376934
vt 0.915830 0.309061
vt 0.634938 0.339824
vt 0.985504 0.376934
vt 0.886196 0.455763
vt 0.915830 0.491470
vt 0.885556 0.339824
vt 0.757805 0.634297
vt 0.635121 0.456008
vt 0.985504 0.425123
vt 0.915830 0.491470
vt 0.995849 0.851405
vt 0.760643 0.633045
vt 0.760643 0.641377
vt 0.995849 0.508591
vt 0.995849 0.633045
vt 0.995849 0.633045
vt 0.760643 0.508591
vt 0.760643 0.508591
vt 0.634938 0.339824
vt 0.760582 0.491134
vt 0.760857 0.304422
vt 0.995849 0.508591
vt 0.760643 0.633045
vt 0.760643 0.633045
vt 0.995849 0.508591
vt 0.757805 0.871914
vt 0.757805 0.651753
vt 0.757805 0.651814
vt 0.757805 0.634297
vt 0.757805 0.872005
vt 0.499222 0.905759
vt 0.635121 0.456008
vt 0.245705 0.870144
vt 0.499222 0.634297
vt 0.499222 0.508591
vt 0.499222 0.634297
vt 0.499222 0.639027
vt 0.757805 0.634297
vt 0.499222 0.508591
vt 0.249367 0.631672
vt 0.250984 0.508591
vt 0.249367 0.508591
vt 0.005585 0.632435
vt 0.005585 0.508591
vt 0.005585 0.632435
vt 0.250984 0.632435
vt 0.250984 0.508591
vt 0.250984 0.632435
vt 0.478500 0.897031
vt 0.005585 0.508591
vt 0.254921 0.631672
vt 0.458846 0.631672
vt 0.245430 0.508591
vt 0.258156 0.897031
vt 0.245430 0.631489
vt 0.499527 0.508591
vt 0.254891 0.631672
vt 0.258156 0.897031
vt 0.478530 0.897031
vt 0.499527 0.631489
vt 0.245430 0.508591
vt 0.245430 0.508591
vt 0.499527 0.508591
vt 0.499527 0.508591
vt 0.499222 0.905820
vt 0.245430 0.631489
vt 0.245430 0.508591
vt 0.499527 0.508591
vt 0.499527 0.631489
vt 0.245430 0.631489
vt 0.458815 0.631672
vt 0.499527 0.631489
vt 0.245430 0.631489
vt 0.499527 0.631489
vt 0.757805 0.651753
vt 0.757805 0.871914
vt 0.757805 0.634297
vt 1.000000 0.281289
vt 0.757805 0.508591
vt 0.499222 0.508591
vt 1.000000 0.006592
vt 0.757805 0.634297
vt 0.499222 0.508591
vt 0.000000 0.006592
vt 1.000000 0.281289
vt 0.757805 0.508591
vt 0.000000 0.006592
vt 1.000000 0.281289
vt 0.000000 0.281289
vt 1.000000 0.006592
vt 1.000000 0.143925
vt 0.000000 0.143925
vt 1.000000 0.006592
vt 0.000000 0.006592
vt 1.000000 0.281289
vt 1.000000 0.143925
vt 0.000000 0.006592
vt 0.000000 0.281289
vt 0.000000 0.143925
vt 0.004059 0.300790
vt 0.226569 0.495285
vt 1.000000 0.006592
vt 0.226569 0.300790
vt 0.004059 0.300790
vt 0.226569 0.495285
vt 0.004059 0.495285
vt 0.226569 0.300790
vt 0.244575 0.299142
vt 0.589526 0.488937
vt 0.004059 0.495285
vt 0.589526 0.299142
vt 0.244575 0.299142
vt 0.416089 0.488937
vt 0.244575 0.488937
vt 0.416089 0.299142
vt 0.244575 0.299142
vt 0.416089 0.488937
vt 0.244575 0.488937
vt 0.416089 0.299142
vt 0.004059 0.300790
vt 0.226569 0.495285
vt 0.244575 0.488937
vt 0.226569 0.300790
vt 0.000000 0.281289
vt 1.000000 0.143925
vt 0.004059 0.495285
vt 0.000000 0.143925
vt 0.499222 0.634297
vt 0.499222 0.634297
vt 0.915830 0.309061
vt 0.985504 0.309061
vt 0.915830 0.376934
vt 0.985504 0.490646
vt 0.985504 0.309061
vt 0.985504 0.309061
vt 0.995849 0.508591
vt 0.258156 0.897031
vt 0.458815 0.631672
vt 0.760857 0.304422
vt 0.634938 0.339824
vt 0.985504 0.490646
vt 0.635121 0.456008
vt 0.934904 0.933866
vt 0.254891 0.631672
vt 0.245705 0.648793
vt 0.957488 0.979980
vt 0.985504 0.376934
vt 0.915830 0.425123
vt 0.915830 0.376934
vt 0.915830 0.309061
vt 0.249367 0.631672
vt 0.000000 0.281289
vt 1.000000 0.143925
vt 0.885556 0.339824
vt 0.760582 0.491134
vt 0.886196 0.455763
vt 0.915830 0.491470
vt 0.985504 0.425123
vt 0.985504 0.425123
vt 0.915830 0.425123
vt 0.760582 0.491134
vt 0.760857 0.304422
vt 0.249367 0.508591
vt 0.000000 0.143925
vt 0.979553 0.934355
vt 0.499527 0.508591
vt 0.245430 0.631489
vt 0.499527 0.631489
vt 0.499527 0.508591
vt 0.245430 0.508591
vt 0.245430 0.631489
vt 0.009217 0.876766
vt 0.005585 0.508591
vt 0.009217 0.659169
vt 0.499527 0.508591
vt 0.760643 0.641377
vt 0.499527 0.631489
vt 0.245430 0.508591
vt 0.499527 0.508591
vt 0.245430 0.508591
vt 0.245430 0.631489
vt 0.499527 0.631489
vt 0.757805 0.651753
vt 0.499222 0.639027
vt 0.499222 0.905820
vt 0.757805 0.871914
vt 0.757805 0.508591
vt 0.499222 0.508591
vt 0.499222 0.634297
vt 0.757805 0.634297
vt 0.757805 0.651814
vt 0.499222 0.638966
vt 0.499222 0.905759
vt 0.757805 0.872005
vt 0.757805 0.508591
vt 0.499222 0.508591
vt 0.499222 0.634297
vt 0.757805 0.634297
vt 0.499222 0.634297
vt 0.757805 0.634297
vt 0.757805 0.508591
vt 0.499222 0.508591
vt 0.757805 0.508591
vt 0.499222 0.508591
vt 0.499222 0.634297
vt 0.760643 0.870540
vt 0.995849 0.638264
vt 0.757805 0.634297
vt 0.995849 0.851375
vt 0.760643 0.633045
vt 0.760643 0.641377
vt 0.760643 0.508591
vt 0.995849 0.633045
vt 0.995849 0.508591
vt 0.995849 0.638295
vt 0.760643 0.870540
vt 0.995849 0.851405
vt 0.478530 0.897031
vt 0.005585 0.631672
vt 0.034211 0.943358
vt 0.034211 0.943358
vt 0.034181 0.968169
vt 0.859859 0.943358
vt 0.034181 0.919126
vt 0.034181 0.968169
vt 0.009217 0.876766
vt 0.005585 0.508591
vt 0.009217 0.659169
vt 0.005585 0.631672
vt 0.245705 0.648793
vt 0.128086 0.634083
vt 0.128086 0.902707
vt 0.245705 0.870144
vt 0.249367 0.508591
vt 0.128086 0.508591
vt 0.128086 0.631672
vt 0.249367 0.631672
vt 0.128086 0.902707
vt 0.245705 0.870144
vt 0.245705 0.648793
vt 0.128086 0.634083
vt 0.249367 0.508591
vt 0.128086 0.508591
vt 0.128086 0.631672
vt 0.249367 0.631672
vt 0.005585 0.632435
vt 0.250984 0.632435
vt 0.250984 0.508591
vt 0.005585 0.508591
vt 0.250984 0.508591
vt 0.005585 0.508591
vt 0.005585 0.632435
vt 0.250984 0.632435
vt 0.254921 0.631672
vt 0.258156 0.897031
vt 0.478500 0.897031
vt 0.458846 0.631672
vt 0.245430 0.508591
vt 0.245430 0.631489
vt 0.499527 0.631489
vt 0.995849 0.633045
vt 0.985504 0.490646
vt 0.245705 0.870144
vt 0.859828 0.919126
vt 0.034211 0.943358
vt 0.034181 0.919126
vt 0.859859 0.968169
vt 0.757805 0.508591
vt 0.757805 0.634297
vt 0.757805 0.508591
vt 0.757805 0.651814
vt 0.757805 0.872005
vt 0.499222 0.634297
vt 0.034181 0.968169
vt 0.859828 0.991424
vt 0.859859 0.943358
vt 0.859859 0.968169
vt 0.934904 0.933866
vt 0.957488 0.979980
vt 0.034181 0.991424
vt 0.979553 0.934355
vt 0.128086 0.902707
vt 0.128086 0.634083
vt 0.009217 0.659169
vt 0.009217 0.876766
vt 0.005585 0.508591
vt 0.005585 0.631672
vt 0.128086 0.631672
vt 0.128086 0.508591
vt 0.009217 0.659169
vt 0.009217 0.876766
vt 0.128086 0.902707
vt 0.128086 0.634083
vt 0.128086 0.631672
vt 0.128086 0.508591
vt 0.005585 0.508591
vt 0.005585 0.631672
vt 0.985504 0.376934
vt 0.915830 0.309061
vt 0.915830 0.376934
vt 0.985504 0.309061
vt 0.760643 0.633045
vt 0.995849 0.508591
vt 0.760643 0.508591
vt 0.760643 0.633045
vt 0.760643 0.508591
vt 0.995849 0.633045
vt 0.995849 0.508591
vt 0.499222 0.905820
vt 0.499222 0.639027
vt 0.757805 0.871914
vt 0.757805 0.651753
vt 0.499222 0.634297
vt 0.499222 0.508591
vt 0.757805 0.634297
vt 0.757805 0.508591
vt 0.499222 0.905759
vt 0.499222 0.638966
vt 0.499222 0.508591
vt 0.757805 0.634297
vt 0.885556 0.339824
vt 0.915830 0.425123
vt 0.760582 0.491134
vt 0.499222 0.508591
vt 0.757805 0.634297
vt 0.757805 0.508591
vt 0.985504 0.376934
vt 0.034181 0.968169
vt 0.859859 0.968169
vt 0.034181 0.991424
vt 0.985504 0.425123
vt 0.886196 0.455763
vt 0.915830 0.425123
vt 0.760857 0.304422
vt 0.985504 0.490646
vt 0.859828 0.919126
vt 0.245430 0.631489
vt 0.499527 0.508591
vt 0.760643 0.633045
vt 0.245430 0.508591
vt 0.499222 0.905820
vt 0.757805 0.651753
vt 0.499527 0.631489
vt 0.499222 0.639027
vt 0.499222 0.634297
vt 0.757805 0.508591
vt 0.757805 0.634297
vt 0.499222 0.905759
vt 0.499222 0.508591
vt 0.757805 0.872005
vt 0.499222 0.634297
vt 0.499222 0.638966
vt 0.757805 0.871914
vt 0.245430 0.631489
vt 0.245430 0.508591
vt 0.250984 0.508591
vt 0.757805 0.651814
vt 0.757805 0.508591
vt 0.757805 0.634297
vt 0.757805 0.508591
vt 0.499222 0.508591
vt 0.760643 0.508591
vt 0.760643 0.870540
vt 0.995849 0.638295
vt 0.499527 0.631489
vt 0.499222 0.634297
vt 0.499222 0.508591
vt 0.499222 0.634297
vt 0.757805 0.634297
vt 0.757805 0.508591
vt 0.757805 0.634297
vt 0.760643 0.870540
vt 0.499222 0.508591
vt 0.995849 0.638264
vt 0.995849 0.851375
vt 0.760643 0.633045
vt 0.760643 0.641377
vt 0.995849 0.508591
vt 0.258156 0.897031
vt 0.458846 0.631672
vt 0.254921 0.631672
vt 0.995849 0.633045
vt 0.009217 0.659169
vt 0.005585 0.631672
vt 0.009217 0.876766
vt 0.245705 0.648793
vt 0.249367 0.508591
vt 0.245705 0.870144
vt 0.249367 0.631672
vt 0.995849 0.851405
vt 0.760643 0.633045
vt 0.760643 0.641377
vt 0.995849 0.508591
vt 0.995849 0.633045
vt 0.995849 0.633045
vt 0.760643 0.508591
vt 0.245430 0.631489
vt 0.499222 0.508591
vt 0.757805 0.634297
vt 0.499222 0.508591
vt 0.499527 0.631489
vt 0.499527 0.508591
vt 0.245430 0.508591
vt 0.499527 0.508591
vt 0.005585 0.632435
vt 0.250984 0.632435
vt 0.005585 0.508591
vt 0.250984 0.508591
vt 0.245705 0.648793
vt 0.128086 0.631672
vt 0.005585 0.508591
vt 0.128086 0.508591
vt 0.249367 0.631672
vt 0.128086 0.902707
vt 0.245705 0.870144
vt 0.128086 0.634083
vt 0.249367 0.508591
vt 0.005585 0.632435
vt 0.250984 0.632435
vt 0.005585 0.508591
vt 0.478500 0.897031
vt 0.245430 0.631489
vt 0.226569 0.300790
vt 0.004059 0.495285
vt 0.226569 0.495285
vt 0.499527 0.508591
vt 0.499527 0.631489
vt 0.478530 0.897031
vt 0.245430 0.508591
vt 0.258156 0.897031
vt 0.760643 0.633045
vt 0.254891 0.631672
vt 0.458815 0.631672
vt 0.635121 0.456008
vt 0.760643 0.508591
vt 0.995849 0.633045
vt 0.995849 0.508591
vt 0.886196 0.455763
vt 1.000000 0.143925
vt 0.634938 0.339824
vt 0.885556 0.339824
vt 0.000000 0.143925
vt 0.000000 0.281289
vt 0.000000 0.006592
vt 1.000000 0.006592
vt 0.760643 0.508591
vt 0.995849 0.508591
vt 0.499222 0.905820
vt 0.128086 0.902707
vt 0.000000 0.281289
vt 1.000000 0.281289
vt 1.000000 0.281289
vt 1.000000 0.143925
vt 0.757805 0.634297
vt 0.757805 0.508591
vt 0.499222 0.634297
vt 0.000000 0.143925
vt 1.000000 0.006592
vt 0.000000 0.006592
vt 0.004059 0.300790
vt 0.226569 0.300790
vt 0.004059 0.495285
vt 0.226569 0.495285
vt 0.004059 0.300790
vt 0.757805 0.651814
vt 0.499222 0.634297
vt 0.499222 0.508591
vt 0.757805 0.634297
vt 0.499222 0.634297
vt 0.499222 0.508591
vt 0.589526 0.488937
vt 0.244575 0.488937
vt 0.244575 0.299142
vt 0.244575 0.299142
vt 0.589526 0.299142
vt 0.760582 0.491134
vt 0.634938 0.339824
vt 0.760857 0.304422
vt 0.499222 0.905759
vt 0.499222 0.638966
vt 0.757805 0.872005
vt 0.416089 0.299142
vt 0.244575 0.488937
vt 0.416089 0.488937
vt 0.004059 0.300790
vt 0.226569 0.300790
vt 0.004059 0.495285
vt 0.226569 0.495285
vt 0.985504 0.490646
vt 0.757805 0.508591
vt 0.757805 0.651753
vt 0.915830 0.491470
vt 0.499222 0.639027
vt 0.499222 0.634297
vt 0.757805 0.508591
vt 0.757805 0.871914
vt 0.499222 0.508591
vt 0.499222 0.905759
vt 0.757805 0.651814
vt 0.757805 0.634297
vt 0.499222 0.638966
vt 0.499222 0.634297
vt 0.757805 0.508591
vt 0.757805 0.872005
vt 0.499222 0.508591
vt 0.757805 0.508591
vt 0.499222 0.634297
vt 0.757805 0.634297
vt 0.757805 0.634297
vt 0.757805 0.634297
vt 0.499222 0.508591
vt 0.499222 0.508591
vt 0.499222 0.634297
vt 0.915830 0.425123
vt 0.985504 0.425123
vt 0.915830 0.376934
vt 0.886196 0.455763
vt 0.760582 0.491134
vt 0.885556 0.339824
vt 0.760857 0.304422
vt 0.915830 0.425123
vt 0.915830 0.491470
vt 0.985504 0.425123
vt 0.985504 0.490646
vt 0.635121 0.456008
vt 0.915830 0.309061
vt 0.757805 0.508591
vt 0.995849 0.638264
vt 0.757805 0.634297
vt 0.128086 0.508591
vt 0.128086 0.634083
vt 0.245705 0.870144
vt 0.128086 0.631672
vt 0.985504 0.376934
vt 0.985504 0.309061
vt 0.915830 0.376934
vt 0.245430 0.631489
vt 0.499527 0.631489
vt 0.499527 0.508591
vt 0.245430 0.508591
vt 0.034211 0.943358
vt 0.034181 0.919126
vt 0.859859 0.943358
vt 0.250984 0.508591
vt 0.005585 0.508591
vt 0.128086 0.631672
vt 0.985504 0.309061
vt 0.915830 0.309061
vt 0.859859 0.968169
vt 0.859859 0.943358
vt 0.034211 0.943358
vt 0.034211 0.943358
vt 0.499527 0.631489
vt 0.245430 0.631489
vt 0.985504 0.376934
vt 0.258156 0.897031
vt 0.245430 0.631489
vt 0.499527 0.508591
vt 0.128086 0.508591
vt 0.009217 0.876766
vt 0.005585 0.631672
vt 0.128086 0.634083
vt 0.005585 0.632435
vt 0.478500 0.897031
vt 0.009217 0.659169
vt 0.254921 0.631672
vt 0.458846 0.631672
vt 0.245430 0.631489
vt 0.258156 0.897031
vt 0.499527 0.508591
vt 0.499527 0.631489
vt 0.478530 0.897031
vt 0.245430 0.508591
vt 0.254891 0.631672
vt 0.859859 0.968169
vt 0.034181 0.991424
vt 0.859828 0.991424
vt 0.458815 0.631672
vt 0.499527 0.508591
vt 0.245430 0.508591
vt 0.499527 0.631489
vt 0.499222 0.905820
vt 0.245430 0.508591
vt 0.757805 0.651753
vt 0.757805 0.871914
vt 0.499222 0.634297
vt 0.499222 0.639027
vt 0.757805 0.508591
vt 0.757805 0.634297
vt 0.499222 0.905759
vt 0.499222 0.508591
vt 0.757805 0.651814
vt 0.757805 0.872005
vt 0.499222 0.634297
vt 0.499222 0.638966
vt 0.757805 0.508591
vt 0.757805 0.634297
vt 0.757805 0.508591
vt 0.499222 0.508591
vt 0.499222 0.634297
vt 0.499222 0.508591
vt 0.934904 0.933866
vt 0.757805 0.634297
vt 0.979553 0.934355
vt 0.250984 0.508591
vt 0.957488 0.979980
vt 0.250984 0.632435
vt 0.005585 0.632435
vt 0.005585 0.508591
vt 0.005585 0.508591
vt 0.250984 0.632435
vt 0.760643 0.870540
vt 0.034181 0.968169
vt 0.034181 0.919126
vt 0.034181 0.968169
vt 0.034181 0.968169
vt 0.934904 0.933866
vt 0.499222 0.508591
vt 0.985504 0.376934
vt 0.757805 0.508591
vt 0.985504 0.425123
vt 0.859859 0.943358
vt 0.034181 0.919126
vt 0.034211 0.943358
vt 0.979553 0.934355
vt 0.009217 0.659169
vt 0.957488 0.979980
vt 0.009217 0.876766
vt 0.005585 0.631672
vt 0.009217 0.659169
vt 0.005585 0.508591
vt 0.009217 0.876766
vt 0.005585 0.631672
vt 0.128086 0.902707
vt 0.005585 0.508591
vt 0.245705 0.648793
vt 0.245705 0.870144
vt 0.128086 0.631672
vt 0.128086 0.634083
vt 0.249367 0.508591
vt 0.249367 0.631672
vt 0.245705 0.648793
vt 0.128086 0.508591
vt 0.128086 0.902707
vt 0.760857 0.304422
vt 0.634938 0.339824
vt 0.760857 0.304422
vt 0.760643 0.633045
vt 0.915830 0.309061
vt 0.995849 0.851375
vt 0.915830 0.491470
vt 0.915830 0.309061
vt 0.985504 0.376934
vt 0.985504 0.309061
vt 0.249367 0.631672
vt 0.249367 0.508591
vt 0.760643 0.641377
vt 0.499222 0.634297
vt 0.634938 0.339824
vt 0.635121 0.456008
vt 0.985504 0.309061
vt 0.985504 0.490646
vt 0.915830 0.376934
vt 0.635121 0.456008
vt 0.886196 0.455763
vt 0.885556 0.339824
vt 0.859828 0.919126
vt 0.760582 0.491134
vt 0.034181 0.919126
vt 0.034211 0.943358
vt 0.859859 0.968169
vt 0.034181 0.968169
vt 0.034211 0.943358
vt 0.859859 0.943358
vt 0.034181 0.968169
vt 0.034181 0.968169
vt 0.859828 0.991424
vt 0.034181 0.991424
vt 0.915830 0.425123
vt 0.859859 0.968169
vt 0.985504 0.490646
vt 0.985504 0.425123
vt 0.885556 0.339824
vt 0.915830 0.491470
vt 0.760582 0.491134
vt 0.757805 0.651753
vt 0.995849 0.508591
vt 0.886196 0.455763
vt 0.760643 0.508591
vt 0.760643 0.870540
vt 0.995849 0.638295
vt 0.995849 0.633045
vt 0.760643 0.641377
vt 0.760643 0.633045
vt 0.995849 0.508591
vt 0.995849 0.851405
vt 0.760643 0.508591
vt 0.995849 0.633045
vt 0.760643 0.508591
vt 0.995849 0.633045
vt 0.760643 0.633045
vt 0.760643 0.633045
vt 0.915830 0.425123
vt 0.995849 0.508591
vt 0.757805 0.871914
vt 0.499222 0.905820
vt 0.995849 0.508591
vt 0.499222 0.639027
vt 0.760643 0.508591
vt 0.499222 0.634297
vt 0.757805 0.508591
vt 0.995849 0.633045
vt 0.915830 0.376934
vt 0.757805 0.508591
vt 0.757805 0.634297
vn -0.281847 0.004375 -0.959449
vn -0.281847 0.004375 -0.959449
vn 0.358794 0.000130 0.933417
vn 0.117236 -0.992590 0.031960
vn 0.117236 -0.992590 0.031960
vn -0.982948 0.126897 0.133081
vn -0.363199 0.000517 -0.931711
vn -0.093639 0.992032 0.084286
vn -0.060036 0.997830 0.027048
vn -0.363199 0.000517 -0.931711
vn -0.955348 -0.036578 0.293211
vn -0.163210 0.985636 0.043399
vn -0.163210 0.985636 0.043399
vn -0.915081 -0.185430 0.358110
vn 0.973985 0.216362 -0.067384
vn 0.063773 -0.997954 -0.004671
vn 0.984746 0.126552 -0.119417
vn 0.985562 0.051647 -0.161243
vn -0.983883 0.051697 0.171177
vn 0.091585 0.992482 -0.081183
vn -0.982948 0.126897 0.133081
vn -0.003305 -0.999958 -0.008563
vn -0.003345 -0.999958 -0.008549
vn -0.253442 0.956182 -0.146569
vn -0.003318 -0.999958 -0.008559
vn -0.364399 -0.000000 -0.931243
vn -0.364399 -0.000000 -0.931243
vn -0.003318 -0.999958 -0.008559
vn -0.364399 -0.000000 -0.931243
vn -0.789819 0.535005 0.299926
vn -0.789857 0.534943 0.299938
vn -0.789875 0.534913 0.299944
vn -0.789857 0.534943 0.299938
vn -0.253451 0.956193 -0.146486
vn -0.253451 0.956193 -0.146486
vn -0.253461 0.956203 -0.146404
vn 0.787680 0.532580 -0.309707
vn -0.972383 0.217184 0.085449
vn 0.244209 0.000847 0.969722
vn 0.130759 0.980215 -0.148596
vn 0.244209 0.000847 0.969722
vn 0.244209 0.000847 0.969722
vn -0.244116 -0.000810 -0.969746
vn 0.244209 0.000847 0.969722
vn -0.244116 -0.000810 -0.969746
vn -0.244116 -0.000810 -0.969746
vn -0.193724 0.974845 0.110223
vn -0.244116 -0.000810 -0.969746
vn -0.129445 0.991174 -0.028617
vn 0.897066 -0.217437 -0.384700
vn -0.223046 -0.918137 -0.327529
vn -0.897854 -0.217504 0.382819
vn 0.075615 -0.991095 -0.109605
vn 0.216489 -0.974960 -0.050850
vn -0.937914 -0.113563 0.327751
vn -0.937914 -0.113563 0.327751
vn 0.866496 0.186452 -0.463055
vn 0.159462 0.873256 -0.460431
vn 0.473277 0.001054 0.880913
vn 0.858122 0.113656 -0.500708
vn -0.325177 -0.399360 -0.857188
vn 0.323804 0.399719 0.857541
vn 0.324327 0.399318 0.857530
vn -0.324077 -0.398249 -0.858121
vn 0.815485 -0.573827 0.075537
vn 0.491656 -0.829553 0.264795
vn -0.216998 -0.399983 -0.890464
vn 0.815833 -0.573441 0.074706
vn 0.216228 0.398208 0.891446
vn -0.397792 0.866923 -0.300344
vn 0.217557 0.399442 0.890570
vn 0.242256 -0.000065 0.970212
vn -0.323910 -0.399206 -0.857740
vn -0.797144 0.603775 0.004169
vn -0.431330 0.867014 -0.249481
vn 0.149107 -0.985630 -0.079370
vn 0.916316 0.187905 -0.353634
vn 0.149107 -0.985630 -0.079370
vn 0.901874 0.035892 -0.430506
vn 0.912645 0.114554 -0.392374
vn 0.362774 -0.000248 0.931877
vn 0.912645 0.114554 -0.392374
vn 0.362425 -0.001469 0.932012
vn -0.323294 -0.399680 -0.857751
vn -0.324234 -0.399520 -0.857471
vn -0.324356 -0.399923 -0.857237
vn 0.362599 -0.000858 0.931945
vn -0.363620 -0.000482 -0.931547
vn 0.362599 -0.000858 0.931945
vn -0.362778 0.001516 -0.931874
vn -0.093639 0.992032 0.084286
vn -0.131011 0.980219 0.148344
vn 0.188026 -0.978836 0.080783
vn 0.984746 0.126552 -0.119417
vn 0.091585 0.992482 -0.081183
vn 0.059308 0.997901 -0.025989
vn -0.217211 -0.399818 -0.890486
vn -0.055445 -0.988702 -0.139266
vn 0.947802 -0.051825 -0.314620
vn -0.929496 -0.127726 0.346009
vn -0.948234 -0.053052 0.313108
vn -0.119113 -0.992480 -0.028189
vn 0.928938 -0.127085 -0.347741
vn 0.928938 -0.127085 -0.347741
vn 0.877074 -0.010694 -0.480236
vn 0.241851 0.000969 0.970313
vn 0.784115 -0.163942 -0.598570
vn 0.243219 -0.000969 0.969971
vn 0.242536 0.000000 0.970143
vn -0.242040 0.001455 -0.970265
vn 0.242536 0.000000 0.970143
vn -0.242390 0.001005 -0.970178
vn -0.242215 0.001230 -0.970222
vn -0.030308 0.999443 0.013950
vn -0.242215 0.001230 -0.970222
vn 0.123883 0.988661 0.084871
vn 0.044395 0.997840 0.048412
vn -0.388910 0.062793 -0.919133
vn 0.044395 0.997840 0.048412
vn -0.419860 0.000000 -0.907589
vn 0.474151 -0.132018 0.870490
vn 0.016539 -0.988381 -0.151094
vn -0.007696 -0.997786 -0.066058
vn -0.030308 -0.999443 0.013950
vn 0.445168 -0.064012 0.893156
vn -0.908396 0.000000 0.418111
vn 0.445168 -0.064012 0.893156
vn -0.908396 0.000000 0.418111
vn 0.908810 0.001173 -0.417209
vn -0.064552 -0.997901 0.005160
vn 0.908484 0.000264 -0.417919
vn 0.908647 0.000718 -0.417565
vn -0.353567 0.129736 -0.926368
vn -0.388910 0.062793 -0.919133
vn 0.415624 0.000000 0.909537
vn -0.007696 -0.997786 -0.066058
vn -0.908396 0.000000 0.418111
vn -0.908396 0.000000 0.418111
vn 0.908647 0.000718 -0.417565
vn -0.185509 -0.980215 -0.069023
vn -0.119113 -0.992480 -0.028189
vn -0.929496 -0.127726 0.346009
vn 0.380605 0.923850 0.040498
vn 0.241513 0.000940 0.970397
vn 0.242256 -0.000065 0.970212
vn -0.380289 0.923985 -0.040399
vn -0.162664 0.004059 -0.986673
vn -0.162664 0.004059 -0.986673
vn -0.380289 0.923985 -0.040399
vn 0.312631 0.949458 -0.028141
vn -0.162178 0.005194 -0.986748
vn -0.312631 0.949458 0.028146
vn 0.312636 0.949458 -0.028091
vn 0.312622 0.949462 -0.028092
vn -0.312781 0.949409 0.028134
vn 0.109145 0.993977 -0.009807
vn -0.109132 0.993979 0.009825
vn -0.312781 0.949409 0.028134
vn -0.312631 0.949458 0.028146
vn 0.311254 0.948691 0.055735
vn 0.108756 0.993654 0.028710
vn -0.311160 0.949906 -0.029297
vn 0.311254 0.948691 0.055735
vn -0.108364 0.994111 -0.000952
vn 0.383874 0.896005 -0.223195
vn 0.384339 0.895957 -0.222586
vn -0.311004 0.949958 -0.029247
vn 0.384107 0.895981 -0.222891
vn 0.281625 0.950266 -0.132972
vn 0.281442 0.950252 -0.133463
vn 0.384107 0.895981 -0.222891
vn 0.281533 0.950259 -0.133218
vn 0.196390 0.975399 0.100134
vn 0.196429 0.975369 0.100354
vn 0.281533 0.950259 -0.133218
vn 0.196410 0.975384 0.100244
vn -0.066277 0.997723 0.012513
vn -0.065268 0.997802 0.011501
vn 0.196410 0.975384 0.100244
vn -0.065773 0.997762 0.012007
vn 0.028729 0.997801 -0.059737
vn 0.028729 0.997801 -0.059737
vn -0.065773 0.997762 0.012007
vn 0.028729 0.997801 -0.059737
vn -0.296828 0.945042 -0.137075
vn -0.296808 0.945023 -0.137246
vn 0.028729 0.997801 -0.059737
vn -0.296818 0.945032 -0.137160
vn 0.312767 0.949413 -0.028131
vn 0.109182 0.993973 -0.009828
vn -0.296818 0.945032 -0.137160
vn -0.109170 0.993974 0.009828
vn -0.163149 0.002924 -0.986597
vn 0.242998 -0.001070 0.970026
vn 0.520354 -0.829544 0.202702
vn 0.520467 -0.829752 0.201559
vn 0.818460 -0.574023 -0.024916
vn -0.397435 0.866614 -0.301705
vn -0.316847 -0.838497 0.443317
vn 0.491802 -0.829673 0.264147
vn 0.842906 0.035735 -0.536872
vn -0.015672 -0.997788 -0.064609
vn -0.015672 -0.997788 -0.064609
vn 0.217272 0.400068 0.890359
vn 0.216705 0.399758 0.890636
vn 0.215522 0.872283 -0.438945
vn 0.217490 0.399153 0.890716
vn 0.360075 -0.000744 0.932923
vn -0.001954 -0.988371 -0.152051
vn 0.042464 0.917932 -0.394459
vn 0.360075 -0.000744 0.932923
vn -0.554696 -0.705644 0.440884
vn -0.792084 0.603430 -0.092062
vn -0.825352 -0.421109 0.376113
vn -0.317689 -0.836744 0.446018
vn -0.999894 0.009279 -0.011200
vn 0.380428 0.923926 0.040447
vn 0.135942 0.990611 0.014465
vn -0.217416 -0.399846 -0.890423
vn -0.217206 -0.399915 -0.890444
vn -0.216941 -0.399409 -0.890735
vn 0.214852 0.873458 -0.436933
vn 0.821855 0.426753 -0.377408
vn -0.791606 0.603876 -0.093235
vn 0.493281 0.747148 -0.445471
vn 0.217133 0.399600 0.890603
vn -0.217272 -0.400068 -0.890359
vn -0.973593 0.163062 -0.159775
vn -0.135899 0.990617 -0.014437
vn 0.360075 -0.000744 0.932923
vn 0.576925 -0.131589 0.806128
vn -0.850504 0.000000 0.525969
vn -0.850504 0.000000 0.525969
vn -0.850504 0.000000 0.525969
vn -0.850504 0.000000 0.525969
vn 0.523776 0.000000 0.851856
vn 0.005309 0.993265 0.115740
vn -0.640063 0.023798 0.767954
vn 0.114655 0.971441 0.207740
vn -0.463556 0.130083 -0.876467
vn 0.138312 -0.985633 -0.096936
vn 0.551003 -0.063796 0.832061
vn 0.551003 -0.063796 0.832061
vn 0.850337 -0.001020 -0.526237
vn 0.850558 -0.000532 -0.525881
vn 0.850777 -0.000046 -0.525527
vn 0.850558 -0.000532 -0.525881
vn -0.192569 -0.980202 -0.046053
vn -0.121645 -0.992481 -0.013538
vn -0.063417 -0.997903 0.012963
vn -0.121645 -0.992481 -0.013538
vn 0.843917 -0.215508 -0.491284
vn 0.879538 -0.126190 -0.458791
vn 0.902033 -0.051808 -0.428547
vn 0.879538 -0.126190 -0.458791
vn 0.111674 0.980177 -0.163654
vn 0.081007 0.992470 -0.091881
vn 0.055701 0.997899 -0.033101
vn 0.081007 0.992470 -0.091881
vn -0.954820 0.215683 0.204451
vn -0.959328 0.127184 0.252018
vn -0.955779 0.053556 0.289170
vn -0.959328 0.127184 0.252018
vn 0.360491 -0.000087 0.932763
vn 0.360347 0.000269 0.932818
vn 0.360203 0.000625 0.932874
vn 0.360347 0.000269 0.932818
vn -0.359829 0.000378 -0.933018
vn -0.359829 0.000378 -0.933018
vn -0.359829 0.000378 -0.933018
vn -0.178683 0.974911 0.132745
vn -0.131919 0.991179 -0.012705
vn -0.359829 0.000378 -0.933018
vn -0.156624 0.985654 0.062883
vn -0.864317 -0.186447 0.467112
vn -0.156624 0.985654 0.062883
vn -0.891057 -0.113698 0.439420
vn -0.891057 -0.113698 0.439420
vn -0.912808 -0.035753 0.406821
vn 0.061627 -0.991100 -0.117998
vn 0.208754 -0.974946 -0.076821
vn 0.138312 -0.985633 -0.096936
vn -0.028377 -0.999443 0.017549
vn -0.694525 -0.048402 0.717839
vn -0.244131 -0.001043 -0.969742
vn -0.823225 0.530618 0.201855
vn -0.821869 0.532811 0.201605
vn -0.002245 -0.999958 -0.008900
vn -0.244131 -0.001043 -0.969742
vn -0.244131 -0.001043 -0.969742
vn 0.073531 -0.993275 0.089429
vn 0.989836 -0.023810 0.140207
vn 0.054018 -0.971430 0.231096
vn 0.996624 0.048751 0.066059
vn -0.005830 0.917966 -0.396617
vn -0.015803 0.999640 -0.021693
vn -0.060986 0.996016 0.065054
vn -0.034706 0.988659 -0.146110
vn -0.985768 0.162971 -0.041263
vn -0.889354 -0.022168 0.456682
vn -0.874235 -0.120121 0.470408
vn -0.993980 0.009763 0.109130
vn 0.088814 -0.996020 0.007440
vn -0.072163 -0.988650 -0.131772
vn -0.261893 -0.917626 -0.298955
vn -0.002859 -0.999638 -0.026746
vn 0.705553 -0.162619 -0.689746
vn 0.966125 0.022607 -0.257083
vn 0.963999 0.120717 -0.236926
vn 0.812151 -0.009191 -0.583374
vn 0.358776 0.000006 0.933424
vn 0.358776 0.000006 0.933424
vn 0.358776 0.000006 0.933424
vn 0.358776 0.000006 0.933424
vn -0.360014 -0.001022 -0.932946
vn -0.359366 -0.000154 -0.933197
vn -0.358717 0.000713 -0.933446
vn -0.359366 -0.000154 -0.933197
vn 0.133354 0.988655 0.069128
vn 0.049951 0.997842 0.042620
vn -0.028364 0.999444 0.017541
vn 0.049951 0.997842 0.042620
vn -0.497863 0.063005 -0.864964
vn -0.527306 0.000000 -0.849676
vn -0.497863 0.063005 -0.864964
vn 0.858122 0.113656 -0.500708
vn 0.159899 0.872023 -0.462611
vn -0.016636 0.988652 -0.149298
vn -0.002247 -0.999958 -0.008899
vn -0.002241 -0.999958 -0.008901
vn -0.002245 -0.999958 -0.008900
vn -0.821212 0.533867 0.201485
vn -0.845144 -0.215592 0.489133
vn -0.880385 -0.127150 0.456897
vn -0.281847 0.004375 -0.959449
vn 0.196661 -0.978783 0.057515
vn 0.120260 -0.992588 0.017532
vn -0.902679 -0.053551 0.426969
vn 0.817691 0.535638 -0.210886
vn 0.817665 0.535680 -0.210880
vn -0.821869 0.532811 0.201605
vn 0.817673 0.535667 -0.210882
vn 0.244839 0.002509 0.969561
vn 0.244839 0.002509 0.969561
vn 0.817673 0.535667 -0.210882
vn 0.244839 0.002509 0.969561
vn -0.068432 0.996014 0.057203
vn -0.013054 0.999638 -0.023531
vn 0.088401 0.971417 0.220304
vn -0.008863 0.993260 0.115568
vn -0.728858 0.025324 0.684196
vn -0.777447 -0.047753 0.627133
vn -0.925293 -0.120422 0.359627
vn -0.938437 -0.022003 0.344748
vn 0.025670 -0.971431 0.235930
vn 0.062196 -0.993249 0.097914
vn 0.087312 -0.996015 0.018200
vn 0.000444 -0.999640 -0.026829
vn 0.985915 0.119385 -0.117131
vn 0.990330 0.021200 -0.137105
vn 0.965019 -0.024907 0.260996
vn 0.980967 0.047616 0.188247
vn -0.496988 -0.705765 0.504875
vn -0.260995 -0.836753 0.481379
vn -0.773319 -0.421556 0.473569
vn -0.260641 -0.837984 0.479426
vn 0.473277 0.001054 0.880913
vn 0.473277 0.001054 0.880913
vn 0.473277 0.001054 0.880913
vn -0.473583 -0.000122 -0.880749
vn -0.473583 -0.000122 -0.880749
vn -0.473583 -0.000122 -0.880749
vn -0.473583 -0.000122 -0.880749
vn -0.056283 0.997829 0.034196
vn -0.082653 0.992025 0.095159
vn -0.082653 0.992025 0.095159
vn -0.111970 0.980178 0.163446
vn 0.958782 0.053511 -0.279059
vn 0.962878 0.126973 -0.238208
vn 0.962878 0.126973 -0.238208
vn 0.958674 0.215033 -0.186295
vn 0.062697 -0.997956 -0.012366
vn 0.120260 -0.992588 0.017532
vn -0.880385 -0.127150 0.456897
vn -0.281847 0.004375 -0.959449
vn 0.324789 0.399897 0.857085
vn -0.796939 0.604033 0.005722
vn 0.324298 0.399808 0.857312
vn 0.358794 0.000130 0.933417
vn 0.358794 0.000130 0.933417
vn 0.358794 0.000130 0.933417
vn 0.818535 -0.573859 -0.026185
vn 0.786212 0.535023 -0.309227
vn 0.787202 0.533378 -0.309551
vn 0.787202 0.533378 -0.309551
vn 0.770045 0.425687 -0.475207
vn 0.324736 0.399843 0.857130
vn 0.435019 0.746910 -0.502875
vn 0.324179 0.399923 0.857304
vn -0.431114 0.866661 -0.251077
vn -0.007354 -0.999958 -0.005493
vn 0.139940 0.000196 -0.990160
vn 0.139720 -0.000063 -0.990191
vn -0.980134 -0.001160 -0.198332
vn 0.139830 0.000067 -0.990176
vn -0.030561 -0.997902 0.057073
vn -0.158451 -0.980211 0.118660
vn 0.139830 0.000067 -0.990176
vn -0.088172 -0.992479 0.084924
vn 0.246830 -0.052856 -0.967616
vn 0.161142 -0.216985 -0.962783
vn 0.209089 -0.127393 -0.969563
vn 0.010157 0.997902 -0.063938
vn 0.209089 -0.127393 -0.969563
vn -0.018866 0.992479 -0.120955
vn -0.388733 0.052923 0.919829
vn -0.018866 0.992479 -0.120955
vn -0.088172 -0.992479 0.084924
vn 0.989926 0.000000 0.141583
vn 0.992108 -0.062789 0.108529
vn 0.947140 -0.001106 0.320820
vn -0.054466 0.980191 -0.190419
vn -0.453432 0.215635 0.864813
vn -0.419654 0.126805 0.898783
vn 0.947784 -0.000460 0.318912
vn -0.419654 0.126805 0.898783
vn -0.232040 -0.114679 0.965922
vn 0.074583 -0.974903 -0.209765
vn -0.051394 -0.991089 -0.122886
vn 0.992108 -0.062789 0.108529
vn 0.947784 -0.000460 0.318912
vn 0.947784 -0.000460 0.318912
vn -0.947127 0.001212 -0.320855
vn 0.947784 -0.000460 0.318912
vn -0.947767 -0.001416 -0.318960
vn -0.947449 -0.000102 -0.319908
vn -0.012280 0.974917 0.222231
vn -0.947449 -0.000102 -0.319908
vn -0.094987 0.991217 0.092013
vn -0.052265 0.985731 0.160006
vn -0.193371 -0.187950 0.962955
vn -0.052265 0.985731 0.160006
vn -0.271259 -0.036213 0.961825
vn 0.064752 0.997839 -0.011157
vn 0.064752 0.997839 -0.011157
vn 0.138542 0.988636 -0.058357
vn -0.232040 -0.114679 0.965922
vn 0.212328 -0.971372 0.106555
vn 0.688509 0.049338 -0.723547
vn 0.115842 -0.993267 0.000772
vn -0.396704 -0.917893 0.009954
vn -0.659801 0.162771 0.733600
vn -0.134423 0.988683 -0.066607
vn -0.549693 0.009825 0.835309
vn 0.013945 -0.985617 -0.168417
vn 0.197905 0.186453 -0.962325
vn 0.013945 -0.985617 -0.168417
vn 0.126713 0.036698 -0.991260
vn 0.163959 0.114228 -0.979831
vn 0.979908 -0.001838 0.199441
vn 0.163959 0.114228 -0.979831
vn -0.139331 0.000000 0.990246
vn 0.800334 0.001096 0.599554
vn 0.800334 0.001096 0.599554
vn -0.748909 0.004289 -0.662659
vn -0.139331 0.000000 0.990246
vn -0.139331 0.000000 0.990246
vn -0.139331 0.000000 0.990246
vn 0.988913 -0.129537 0.072602
vn -0.947139 -0.000881 -0.320823
vn -0.947062 -0.000582 -0.321049
vn 0.946919 -0.000160 0.321472
vn -0.946986 -0.000284 -0.321276
vn -0.308704 0.917987 -0.249001
vn 0.434732 0.120702 -0.892434
vn 0.740983 -0.022874 -0.671134
vn 0.420113 0.022317 -0.907197
vn 0.070247 -0.010412 -0.997475
vn 0.062464 -0.996022 -0.063550
vn -0.147348 -0.988663 -0.028893
vn -0.022328 -0.999640 -0.014910
vn -0.080463 -0.164795 -0.983040
vn 0.946698 0.000784 0.322123
vn 0.946919 -0.000160 0.321472
vn -0.947062 -0.000582 -0.321049
vn -0.004646 0.999444 0.033021
vn -0.990584 0.000000 -0.136910
vn 0.071364 0.997019 0.029344
vn 0.071364 0.997019 0.029344
vn 0.071324 0.997022 0.029324
vn -0.970085 0.131794 -0.203877
vn -0.983422 0.063828 -0.169725
vn -0.004648 -0.999443 0.033032
vn -0.983422 0.063828 -0.169725
vn -0.059665 -0.997790 -0.029244
vn 0.979987 -0.000573 0.199062
vn -0.117953 -0.988415 -0.095513
vn -0.059665 -0.997790 -0.029244
vn 0.867158 0.398581 0.298614
vn -0.980040 -0.000107 -0.198799
vn -0.980040 -0.000107 -0.198799
vn -0.979945 0.000944 -0.199265
vn -0.866769 -0.398772 -0.299486
vn 0.050772 0.993980 -0.097090
vn 0.866283 0.399658 0.299712
vn -0.866757 -0.399725 -0.298248
vn -0.050780 0.993978 0.097105
vn 0.215224 0.948701 -0.231614
vn -0.145532 0.949406 0.278297
vn -0.145532 0.949406 0.278297
vn 0.980064 0.000692 0.198682
vn 0.979987 -0.000573 0.199062
vn -0.009714 0.997828 0.065160
vn 0.011042 0.996017 0.088482
vn 0.145468 0.949451 -0.278175
vn 0.145468 0.949451 -0.278175
vn 0.215061 0.948772 -0.231476
vn 0.082993 0.993649 -0.075979
vn -0.501987 -0.127171 0.855474
vn -0.454249 -0.216937 0.864058
vn 0.800334 0.001096 0.599554
vn -0.059431 0.994106 0.090675
vn -0.192874 0.949932 0.245823
vn -0.192782 0.949970 0.245748
vn 0.027774 0.827585 -0.560654
vn 0.028272 0.827483 -0.560778
vn 0.028272 0.827483 -0.560778
vn 0.028770 0.827382 -0.560902
vn 0.071403 0.997015 0.029365
vn 0.197049 -0.978791 -0.056042
vn -0.537336 -0.052347 0.841742
vn -0.501987 -0.127171 0.855474
vn 0.688128 0.127744 -0.714256
vn -0.748694 0.005028 -0.662897
vn 0.688128 0.127744 -0.714256
vn 0.062743 0.997839 -0.019503
vn 0.062771 0.997837 -0.019526
vn -0.025354 0.997723 0.062491
vn 0.062799 0.997835 -0.019549
vn 0.062771 0.997837 -0.019526
vn -0.866580 -0.399602 -0.298927
vn -0.866403 -0.399479 -0.299603
vn -0.866281 -0.400208 -0.298983
vn 0.046438 -0.997957 -0.043873
vn 0.111048 -0.992596 -0.049207
vn 0.111048 -0.992596 -0.049207
vn -0.025501 0.997762 0.061819
vn -0.025501 0.997762 0.061819
vn -0.025648 0.997799 0.061145
vn -0.145551 0.909458 0.389487
vn -0.145476 0.909448 0.389539
vn -0.145476 0.909448 0.389539
vn -0.145400 0.909438 0.389591
vn -0.253066 0.872019 -0.418976
vn 0.947168 0.000462 0.320737
vn 0.054036 0.980181 0.190591
vn -0.251404 0.873486 -0.416914
vn 0.020302 0.992021 0.124430
vn 0.398418 0.054645 -0.915575
vn 0.470030 0.216968 -0.855568
vn 0.020302 0.992021 0.124430
vn 0.432632 0.128489 -0.892367
vn 0.030524 -0.997959 -0.056095
vn 0.170102 -0.978756 -0.114460
vn 0.432632 0.128489 -0.892367
vn 0.090357 -0.992590 -0.081239
vn -0.249257 -0.052867 0.966993
vn -0.163276 -0.217434 0.962322
vn 0.090357 -0.992590 -0.081239
vn -0.211376 -0.127649 0.969034
vn -0.917725 0.004758 -0.397187
vn -0.917863 0.003973 -0.396877
vn -0.211376 -0.127649 0.969034
vn -0.917795 0.004365 -0.397032
vn 0.947168 0.000462 0.320737
vn 0.947168 0.000462 0.320737
vn -0.917795 0.004365 -0.397032
vn 0.947168 0.000462 0.320737
vn -0.108693 0.746473 -0.656479
vn 0.126350 0.425628 -0.896034
vn -0.129893 -0.421820 0.897327
vn 0.866738 0.399173 0.299043
vn 0.866506 0.399760 0.298931
vn 0.866727 0.399860 0.298155
vn 0.866281 0.400208 0.298983
vn -0.505797 0.603679 0.616232
vn -0.467724 0.866969 0.172043
vn -0.506536 0.603969 0.615340
vn -0.468576 0.866693 0.171116
vn -0.867561 -0.398048 -0.298153
vn 0.488516 -0.829532 -0.270609
vn -0.801330 0.001471 -0.598221
vn -0.118817 0.991224 0.057950
vn -0.801330 0.001471 -0.598221
vn 0.680897 0.022323 -0.732039
vn -0.016554 -0.999641 -0.021069
vn -0.131022 -0.988683 -0.073064
vn 0.689774 0.121157 -0.713816
vn 0.503835 -0.573059 -0.646339
vn 0.487946 -0.829678 -0.271186
vn 0.503975 -0.573907 -0.645477
vn -0.440236 0.000000 0.897882
vn 0.908985 -0.063557 0.411956
vn -0.440236 0.000000 0.897882
vn 0.908985 -0.063557 0.411956
vn -0.007381 -0.999958 -0.005458
vn -0.804033 0.002541 -0.594579
vn -0.007363 -0.999958 -0.005482
vn 0.800365 -0.000018 0.599513
vn 0.180638 0.023247 0.983275
vn -0.197492 -0.120274 0.972898
vn 0.201312 -0.838268 0.506734
vn 0.202927 -0.836708 0.508666
vn -0.509391 0.534377 0.674509
vn -0.509647 0.533754 0.674809
vn -0.510175 0.532462 0.675430
vn -0.804033 0.002541 -0.594579
vn -0.440236 0.000000 0.897882
vn 0.440650 -0.000870 -0.897679
vn 0.070551 -0.705709 0.704981
vn -0.047619 -0.997788 -0.046394
vn 0.896489 0.000000 0.443066
vn 0.917151 -0.131137 0.376346
vn -0.217557 -0.022426 0.975790
vn 0.092454 0.993262 0.069872
vn 0.106920 -0.049040 0.993058
vn -0.026838 0.999638 -0.001762
vn -0.800567 0.000171 -0.599244
vn -0.014677 0.999444 0.029934
vn 0.233085 0.971431 0.044638
vn 0.149629 0.988665 -0.012352
vn 0.064955 0.997843 0.009535
vn -0.898304 0.000000 -0.439375
vn 0.064955 0.997843 0.009535
vn -0.858787 0.129546 -0.495685
vn -0.881593 0.062723 -0.467824
vn -0.014691 -0.999443 0.029963
vn -0.881593 0.062723 -0.467824
vn -0.082448 -0.988387 -0.127649
vn 0.501286 0.534764 -0.680250
vn 0.501286 0.534764 -0.680250
vn 0.501650 0.533866 -0.680687
vn -0.047619 -0.997788 -0.046394
vn 0.441278 -0.000055 -0.897371
vn -0.440236 0.000000 0.897882
vn 0.440963 -0.000463 -0.897525
vn -0.046740 -0.997903 0.044773
vn 0.440963 -0.000463 -0.897525
vn -0.187553 -0.980191 0.063635
vn -0.110132 -0.992483 0.053363
vn 0.535185 -0.052339 -0.843112
vn -0.110132 -0.992483 0.053363
vn 0.452062 -0.216850 -0.865226
vn 0.499805 -0.127134 -0.856757
vn 0.029533 0.997899 -0.057662
vn 0.499805 -0.127134 -0.856757
vn 0.007383 0.980162 -0.198063
vn 0.019651 0.992467 -0.120925
vn -0.654707 0.053509 0.753986
vn 0.019651 0.992467 -0.120925
vn -0.699394 0.217358 0.680884
vn -0.677734 0.127943 0.724090
vn 0.801205 0.000667 0.598390
vn -0.677734 0.127943 0.724090
vn 0.801616 -0.000917 0.597839
vn 0.801411 -0.000125 0.598114
vn 0.947368 -0.000000 0.320145
vn 0.801411 -0.000125 0.598114
vn 0.947368 -0.000000 0.320145
vn -0.800567 0.000171 -0.599244
vn 0.947368 -0.000000 0.320145
vn -0.800567 0.000171 -0.599244
vn 0.800886 -0.001215 0.598816
vn -0.800567 0.000171 -0.599244
vn 0.800626 -0.000617 0.599164
vn 0.800626 -0.000617 0.599164
vn -0.080557 0.974903 0.207545
vn -0.804033 0.002541 -0.594579
vn -0.007363 -0.999958 -0.005482
vn 0.500533 0.536617 -0.679345
vn -0.509647 0.533754 0.674809
vn 0.801172 0.002892 0.598427
vn -0.801330 0.001471 -0.598221
vn 0.679964 -0.573075 -0.457421
vn 0.800334 0.001096 0.599554
vn 0.399019 0.425906 -0.812027
vn -0.008696 -0.999958 -0.002939
vn -0.008696 -0.999958 -0.002939
vn -0.008696 -0.999958 -0.002940
vn 0.801172 0.002892 0.598427
vn 0.207766 0.971395 0.114998
vn 0.801172 0.002892 0.598427
vn 0.066111 0.993257 0.095235
vn -0.206903 -0.047871 0.977190
vn 0.168847 -0.971428 0.166788
vn -0.132740 0.025606 0.990820
vn 0.110050 -0.993249 0.036689
vn 0.879726 0.048402 -0.473011
vn -0.016998 0.996014 0.087561
vn 0.913554 -0.024829 -0.405960
vn -0.215755 0.918062 -0.332583
vn -0.107030 0.988677 -0.105181
vn -0.490514 -0.120846 0.863014
vn -0.024924 0.999640 -0.009975
vn -0.856193 0.163800 0.490003
vn -0.782699 0.009588 0.622327
vn -0.379948 -0.918043 -0.113295
vn -0.510192 -0.021917 0.859781
vn 0.079152 -0.996019 -0.040991
vn 0.730421 0.400404 0.553318
vn 0.730247 0.400053 0.553803
vn -0.730788 -0.399909 -0.553191
vn -0.482277 -0.187546 0.855708
vn 0.548284 -0.829601 -0.105579
vn -0.099290 0.985737 0.135881
vn -0.109603 0.873378 -0.474550
vn 0.035392 -0.836717 0.546491
vn -0.151499 -0.705536 0.692291
vn 0.034355 -0.838442 0.543906
vn 0.375293 -0.009350 -0.926859
vn 0.227702 -0.163586 -0.959891
vn -0.099290 0.985737 0.135881
vn -0.801330 0.001471 -0.598221
vn -0.730267 -0.399791 -0.553965
vn -0.730517 -0.399561 -0.553802
vn 0.547999 -0.829716 -0.106150
vn -0.110452 0.872054 -0.476784
vn -0.402307 -0.421182 0.812868
vn 0.730997 0.399365 0.553310
vn -0.730975 -0.398723 -0.553801
vn -0.731283 -0.399511 -0.552826
vn -0.008696 -0.999958 -0.002939
vn -0.730774 -0.399651 -0.553397
vn -0.947308 0.002679 -0.320313
vn -0.947308 0.002679 -0.320313
vn -0.274646 0.534521 0.799285
vn -0.947308 0.002679 -0.320313
vn -0.274642 0.534536 0.799276
vn -0.274645 0.534526 0.799282
vn 0.266571 0.527947 -0.806357
vn -0.274645 0.534526 0.799282
vn 0.265047 0.534517 -0.802522
vn 0.265543 0.532386 -0.803773
vn -0.672557 0.603272 0.428638
vn 0.265543 0.532386 -0.803773
vn -0.499008 0.866442 0.016390
vn -0.672853 0.603747 0.427503
vn 0.730853 0.400093 0.552973
vn -0.498310 0.866814 0.017928
vn 0.730551 0.400073 0.553387
vn -0.007881 0.980173 0.197986
vn -0.556077 -0.035663 0.830365
vn 0.730616 0.399480 0.553729
vn -0.519990 -0.114251 0.846497
vn 0.135957 -0.974912 -0.176246
vn -0.010755 -0.991091 -0.132749
vn -0.519990 -0.114251 0.846497
vn 0.065430 -0.985629 -0.155740
vn 0.486572 0.186601 -0.853480
vn 0.427772 0.036780 -0.903138
vn 0.065430 -0.985629 -0.155740
vn 0.459695 0.114369 -0.880682
vn 0.869828 0.000862 0.493355
vn 0.869546 -0.001003 0.493851
vn 0.459695 0.114369 -0.880682
vn 0.869687 -0.000071 0.493603
vn -0.869972 -0.000916 -0.493100
vn 0.100862 0.746600 -0.657583
vn 0.869687 -0.000071 0.493603
vn -0.019381 0.992021 0.124577
vn -0.029482 0.997827 0.058924
vn -0.869556 0.000952 -0.493834
vn -0.019381 0.992021 0.124577
vn -0.869764 0.000019 -0.493468
vn 0.662647 0.053474 -0.747020
vn -0.749123 0.003549 -0.662421
vn -0.869764 0.000019 -0.493468
vn 0.679828 -0.573821 -0.456687
vn 0.712376 0.216718 -0.667498
vn -0.748909 0.004289 -0.662659
f 29/29/29 27/27/27 26/26/26
f 230/230/230 211/211/211 208/208/208
f 285/285/285 290/290/290 289/289/289
f 346/346/346 344/344/344 343/343/343
f 24/24/24 34/34/34 35/35/35
f 35/35/35 34/34/34 36/36/36
f 22/22/22 25/25/25 28/28/28
f 28/28/28 25/25/25 23/23/23
f 32/32/32 31/31/31 33/33/33
f 33/33/33 31/31/31 30/30/30
f 395/395/395 394/394/394 37/37/37
f 393/393/393 394/394/394 395/395/395
f 95/95/95 20/20/20 40/40/40
f 96/96/96 20/20/20 95/95/95
f 21/21/21 6/6/6 38/38/38
f 19/19/19 6/6/6 21/21/21
f 39/39/39 44/44/44 42/42/42
f 42/42/42 44/44/44 41/41/41
f 43/43/43 48/48/48 46/46/46
f 46/46/46 48/48/48 45/45/45
f 47/47/47 13/13/13 12/12/12
f 12/12/12 13/13/13 49/49/49
f 14/14/14 56/56/56 55/55/55
f 55/55/55 56/56/56 11/11/11
f 54/54/54 78/78/78 76/76/76
f 76/76/76 78/78/78 53/53/53
f 77/77/77 82/82/82 80/80/80
f 80/80/80 82/82/82 79/79/79
f 81/81/81 89/89/89 87/87/87
f 87/87/87 89/89/89 83/83/83
f 88/88/88 10/10/10 7/7/7
f 7/7/7 10/10/10 90/90/90
f 9/9/9 8/8/8 91/91/91
f 91/91/91 8/8/8 92/92/92
f 18/18/18 17/17/17 94/94/94
f 94/94/94 17/17/17 15/15/15
f 16/16/16 4/4/4 5/5/5
f 5/5/5 4/4/4 93/93/93
f 142/142/142 100/100/100 52/52/52
f 101/101/101 100/100/100 142/142/142
f 103/103/103 104/104/104 50/50/50
f 99/99/99 104/104/104 103/103/103
f 51/51/51 98/98/98 358/358/358
f 358/358/358 98/98/98 357/357/357
f 357/357/357 356/356/356 358/358/358
f 358/358/358 356/356/356 355/355/355
f 105/105/105 360/360/360 107/107/107
f 359/359/359 360/360/360 105/105/105
f 362/362/362 360/360/360 359/359/359
f 361/361/361 360/360/360 362/362/362
f 106/106/106 111/111/111 109/109/109
f 109/109/109 111/111/111 108/108/108
f 110/110/110 115/115/115 113/113/113
f 113/113/113 115/115/115 112/112/112
f 114/114/114 119/119/119 117/117/117
f 117/117/117 119/119/119 116/116/116
f 120/120/120 118/118/118 134/134/134
f 134/134/134 118/118/118 133/133/133
f 124/124/124 123/123/123 136/136/136
f 136/136/136 123/123/123 122/122/122
f 135/135/135 127/127/127 125/125/125
f 125/125/125 127/127/127 121/121/121
f 128/128/128 137/137/137 126/126/126
f 126/126/126 137/137/137 138/138/138
f 131/131/131 132/132/132 139/139/139
f 139/139/139 132/132/132 129/129/129
f 130/130/130 102/102/102 141/141/141
f 141/141/141 102/102/102 140/140/140
f 151/151/151 147/147/147 148/148/148
f 148/148/148 147/147/147 193/193/193
f 146/146/146 229/229/229 149/149/149
f 218/218/218 229/229/229 146/146/146
f 229/229/229 218/218/218 217/217/217
f 217/217/217 218/218/218 143/143/143
f 189/189/189 190/190/190 150/150/150
f 192/192/192 190/190/190 189/189/189
f 190/190/190 192/192/192 155/155/155
f 155/155/155 192/192/192 152/152/152
f 154/154/154 156/156/156 153/153/153
f 157/157/157 156/156/156 154/154/154
f 156/156/156 157/157/157 158/158/158
f 158/158/158 157/157/157 159/159/159
f 163/163/163 161/161/161 160/160/160
f 164/164/164 161/161/161 163/163/163
f 161/161/161 164/164/164 167/167/167
f 167/167/167 164/164/164 162/162/162
f 165/165/165 168/168/168 171/171/171
f 171/171/171 168/168/168 166/166/166
f 169/169/169 172/172/172 175/175/175
f 175/175/175 172/172/172 170/170/170
f 173/173/173 176/176/176 179/179/179
f 179/179/179 176/176/176 174/174/174
f 177/177/177 180/180/180 183/183/183
f 183/183/183 180/180/180 178/178/178
f 181/181/181 184/184/184 187/187/187
f 187/187/187 184/184/184 182/182/182
f 185/185/185 188/188/188 191/191/191
f 191/191/191 188/188/188 186/186/186
f 194/194/194 145/145/145 72/72/72
f 72/72/72 145/145/145 144/144/144
f 69/69/69 226/226/226 71/71/71
f 71/71/71 226/226/226 204/204/204
f 204/204/204 226/226/226 205/205/205
f 205/205/205 226/226/226 207/207/207
f 224/224/224 70/70/70 198/198/198
f 213/213/213 70/70/70 224/224/224
f 224/224/224 214/214/214 213/213/213
f 212/212/212 214/214/214 224/224/224
f 212/212/212 215/215/215 214/214/214
f 199/199/199 215/215/215 212/212/212
f 97/97/97 220/220/220 67/67/67
f 67/67/67 220/220/220 227/227/227
f 227/227/227 220/220/220 219/219/219
f 219/219/219 220/220/220 221/221/221
f 66/66/66 200/200/200 65/65/65
f 65/65/65 200/200/200 68/68/68
f 68/68/68 223/223/223 65/65/65
f 65/65/65 223/223/223 225/225/225
f 206/206/206 225/225/225 223/223/223
f 222/222/222 225/225/225 206/206/206
f 216/216/216 354/354/354 228/228/228
f 353/353/353 354/354/354 216/216/216
f 353/353/353 352/352/352 354/354/354
f 354/354/354 352/352/352 351/351/351
f 328/328/328 348/348/348 210/210/210
f 347/347/347 348/348/348 328/328/328
f 350/350/350 348/348/348 347/347/347
f 349/349/349 348/348/348 350/350/350
f 203/203/203 202/202/202 209/209/209
f 283/283/283 202/202/202 203/203/203
f 242/242/242 243/243/243 231/231/231
f 236/236/236 243/243/243 242/242/242
f 234/234/234 233/233/233 235/235/235
f 235/235/235 233/233/233 232/232/232
f 246/246/246 245/245/245 247/247/247
f 247/247/247 245/245/245 244/244/244
f 250/250/250 249/249/249 251/251/251
f 251/251/251 249/249/249 248/248/248
f 254/254/254 253/253/253 255/255/255
f 255/255/255 253/253/253 252/252/252
f 258/258/258 257/257/257 259/259/259
f 259/259/259 257/257/257 256/256/256
f 262/262/262 261/261/261 263/263/263
f 263/263/263 261/261/261 260/260/260
f 266/266/266 265/265/265 267/267/267
f 267/267/267 265/265/265 264/264/264
f 270/270/270 269/269/269 273/273/273
f 273/273/273 269/269/269 268/268/268
f 271/271/271 276/276/276 274/274/274
f 274/274/274 276/276/276 272/272/272
f 275/275/275 277/277/277 278/278/278
f 278/278/278 277/277/277 279/279/279
f 281/281/281 241/241/241 282/282/282
f 282/282/282 241/241/241 280/280/280
f 326/326/326 60/60/60 201/201/201
f 57/57/57 60/60/60 326/326/326
f 325/325/325 323/323/323 240/240/240
f 324/324/324 323/323/323 325/325/325
f 239/239/239 296/296/296 237/237/237
f 237/237/237 296/296/296 297/297/297
f 297/297/297 296/296/296 298/298/298
f 298/298/298 296/296/296 295/295/295
f 300/300/300 284/284/284 238/238/238
f 301/301/301 284/284/284 300/300/300
f 301/301/301 300/300/300 302/302/302
f 302/302/302 300/300/300 299/299/299
f 306/306/306 291/291/291 293/293/293
f 303/303/303 291/291/291 306/306/306
f 306/306/306 304/304/304 303/303/303
f 305/305/305 304/304/304 306/306/306
f 292/292/292 308/308/308 294/294/294
f 294/294/294 308/308/308 309/309/309
f 309/309/309 308/308/308 310/310/310
f 310/310/310 308/308/308 307/307/307
f 313/313/313 312/312/312 314/314/314
f 314/314/314 312/312/312 311/311/311
f 317/317/317 316/316/316 318/318/318
f 318/318/318 316/316/316 315/315/315
f 321/321/321 320/320/320 322/322/322
f 322/322/322 320/320/320 319/319/319
f 59/59/59 367/367/367 368/368/368
f 368/368/368 367/367/367 369/369/369
f 58/58/58 398/398/398 327/327/327
f 327/327/327 398/398/398 396/396/396
f 197/197/197 396/396/396 398/398/398
f 392/392/392 396/396/396 197/197/197
f 197/197/197 196/196/196 392/392/392
f 195/195/195 196/196/196 197/197/197
f 62/62/62 388/388/388 63/63/63
f 399/399/399 388/388/388 62/62/62
f 386/386/386 388/388/388 399/399/399
f 397/397/397 388/388/388 386/386/386
f 61/61/61 85/85/85 64/64/64
f 86/86/86 85/85/85 61/61/61
f 84/84/84 85/85/85 86/86/86
f 73/73/73 85/85/85 84/84/84
f 329/329/329 288/288/288 331/331/331
f 331/331/331 288/288/288 330/330/330
f 332/332/332 287/287/287 341/341/341
f 341/341/341 287/287/287 286/286/286
f 339/339/339 342/342/342 345/345/345
f 345/345/345 342/342/342 340/340/340
f 366/366/366 364/364/364 363/363/363
f 363/363/363 364/364/364 365/365/365
f 363/363/363 365/365/365 74/74/74
f 74/74/74 365/365/365 387/387/387
f 387/387/387 75/75/75 74/74/74
f 74/74/74 75/75/75 400/400/400
f 370/370/370 371/371/371 372/372/372
f 372/372/372 371/371/371 373/373/373
f 374/374/374 375/375/375 376/376/376
f 376/376/376 375/375/375 377/377/377
f 378/378/378 379/379/379 380/380/380
f 380/380/380 379/379/379 381/381/381
f 382/382/382 383/383/383 337/337/337
f 337/337/337 383/383/383 336/336/336
f 338/338/338 384/384/384 334/334/334
f 334/334/334 384/384/384 333/333/333
f 335/335/335 385/385/385 2/2/2
f 2/2/2 385/385/385 1/1/1
f 3/3/3 389/389/389 390/390/390
f 390/390/390 389/389/389 391/391/391
f 669/669/669 671/671/671 667/667/667
f 617/617/617 678/678/678 607/607/607
f 690/690/690 692/692/692 682/682/682
f 735/735/735 737/737/737 734/734/734
f 401/401/401 608/608/608 679/679/679
f 679/679/679 608/608/608 606/606/606
f 404/404/404 500/500/500 501/501/501
f 501/501/501 500/500/500 502/502/502
f 402/402/402 405/405/405 408/408/408
f 408/408/408 405/405/405 403/403/403
f 406/406/406 409/409/409 418/418/418
f 418/418/418 409/409/409 407/407/407
f 410/410/410 414/414/414 412/412/412
f 412/412/412 414/414/414 411/411/411
f 413/413/413 417/417/417 415/415/415
f 415/415/415 417/417/417 422/422/422
f 416/416/416 426/426/426 424/424/424
f 424/424/424 426/426/426 423/423/423
f 425/425/425 434/434/434 432/432/432
f 432/432/432 434/434/434 431/431/431
f 433/433/433 438/438/438 436/436/436
f 436/436/436 438/438/438 435/435/435
f 437/437/437 442/442/442 440/440/440
f 440/440/440 442/442/442 439/439/439
f 441/441/441 427/427/427 447/447/447
f 447/447/447 427/427/427 443/443/443
f 428/428/428 457/457/457 455/455/455
f 455/455/455 457/457/457 429/429/429
f 456/456/456 461/461/461 459/459/459
f 459/459/459 461/461/461 458/458/458
f 460/460/460 496/496/496 512/512/512
f 512/512/512 496/496/496 511/511/511
f 468/468/468 466/466/466 462/462/462
f 467/467/467 466/466/466 468/468/468
f 430/430/430 420/420/420 469/469/469
f 419/419/419 420/420/420 430/430/430
f 481/481/481 450/450/450 448/448/448
f 479/479/479 450/450/450 481/481/481
f 481/481/481 480/480/480 479/479/479
f 451/451/451 480/480/480 481/481/481
f 476/476/476 477/477/477 449/449/449
f 449/449/449 477/477/477 475/475/475
f 475/475/475 477/477/477 478/478/478
f 478/478/478 477/477/477 482/482/482
f 453/453/453 627/627/627 474/474/474
f 514/514/514 627/627/627 453/453/453
f 625/625/625 627/627/627 514/514/514
f 630/630/630 627/627/627 625/625/625
f 454/454/454 624/624/624 452/452/452
f 611/611/611 624/624/624 454/454/454
f 611/611/611 626/626/626 624/624/624
f 624/624/624 626/626/626 610/610/610
f 421/421/421 484/484/484 472/472/472
f 472/472/472 484/484/484 483/483/483
f 470/470/470 485/485/485 471/471/471
f 471/471/471 485/485/485 473/473/473
f 486/486/486 444/444/444 445/445/445
f 445/445/445 444/444/444 446/446/446
f 487/487/487 494/494/494 492/492/492
f 492/492/492 494/494/494 491/491/491
f 493/493/493 495/495/495 498/498/498
f 498/498/498 495/495/495 497/497/497
f 513/513/513 558/558/558 561/561/561
f 561/561/561 558/558/558 556/556/556
f 505/505/505 583/583/583 499/499/499
f 585/585/585 583/583/583 505/505/505
f 584/584/584 583/583/583 585/585/585
f 582/582/582 583/583/583 584/584/584
f 506/506/506 541/541/541 503/503/503
f 543/543/543 541/541/541 506/506/506
f 542/542/542 541/541/541 543/543/543
f 590/590/590 541/541/541 542/542/542
f 515/515/515 504/504/504 516/516/516
f 507/507/507 504/504/504 515/515/515
f 504/504/504 507/507/507 510/510/510
f 510/510/510 507/507/507 509/509/509
f 508/508/508 518/518/518 517/517/517
f 522/522/522 518/518/518 508/508/508
f 518/518/518 522/522/522 523/523/523
f 523/523/523 522/522/522 524/524/524
f 525/525/525 526/526/526 527/527/527
f 527/527/527 526/526/526 528/528/528
f 529/529/529 488/488/488 489/489/489
f 489/489/489 488/488/488 490/490/490
f 539/539/539 540/540/540 537/537/537
f 537/537/537 540/540/540 536/536/536
f 538/538/538 547/547/547 548/548/548
f 548/548/548 547/547/547 549/549/549
f 550/550/550 551/551/551 552/552/552
f 552/552/552 551/551/551 553/553/553
f 557/557/557 579/579/579 554/554/554
f 554/554/554 579/579/579 580/580/580
f 601/601/601 580/580/580 579/579/579
f 599/599/599 580/580/580 601/601/601
f 601/601/601 600/600/600 599/599/599
f 591/591/591 600/600/600 601/601/601
f 575/575/575 576/576/576 555/555/555
f 578/578/578 576/576/576 575/575/575
f 559/559/559 562/562/562 565/565/565
f 565/565/565 562/562/562 560/560/560
f 563/563/563 566/566/566 569/569/569
f 569/569/569 566/566/566 564/564/564
f 567/567/567 570/570/570 573/573/573
f 573/573/573 570/570/570 568/568/568
f 571/571/571 574/574/574 577/577/577
f 577/577/577 574/574/574 572/572/572
f 588/588/588 587/587/587 589/589/589
f 586/586/586 587/587/587 588/588/588
f 588/588/588 581/581/581 586/586/586
f 620/620/620 581/581/581 588/588/588
f 620/620/620 613/613/613 581/581/581
f 612/612/612 613/613/613 620/620/620
f 628/628/628 674/674/674 672/672/672
f 672/672/672 674/674/674 670/670/670
f 629/629/629 634/634/634 632/632/632
f 632/632/632 634/634/634 631/631/631
f 633/633/633 638/638/638 636/636/636
f 636/636/636 638/638/638 635/635/635
f 637/637/637 621/621/621 643/643/643
f 643/643/643 621/621/621 639/639/639
f 622/622/622 605/605/605 603/603/603
f 603/603/603 605/605/605 623/623/623
f 604/604/604 618/618/618 645/645/645
f 645/645/645 618/618/618 602/602/602
f 619/619/619 648/648/648 646/646/646
f 646/646/646 648/648/648 644/644/644
f 647/647/647 652/652/652 650/650/650
f 650/650/650 652/652/652 649/649/649
f 651/651/651 656/656/656 654/654/654
f 654/654/654 656/656/656 653/653/653
f 655/655/655 660/660/660 658/658/658
f 658/658/658 660/660/660 657/657/657
f 659/659/659 664/664/664 662/662/662
f 662/662/662 664/664/664 661/661/661
f 663/663/663 668/668/668 666/666/666
f 666/666/666 668/668/668 665/665/665
f 675/675/675 676/676/676 673/673/673
f 609/609/609 676/676/676 675/675/675
f 677/677/677 722/722/722 715/715/715
f 715/715/715 722/722/722 593/593/593
f 614/614/614 681/681/681 615/615/615
f 615/615/615 681/681/681 616/616/616
f 680/680/680 640/640/640 641/641/641
f 641/641/641 640/640/640 642/642/642
f 691/691/691 704/704/704 693/693/693
f 693/693/693 704/704/704 699/699/699
f 699/699/699 704/704/704 702/702/702
f 702/702/702 704/704/704 701/701/701
f 708/708/708 694/694/694 696/696/696
f 703/703/703 694/694/694 708/708/708
f 703/703/703 708/708/708 706/706/706
f 706/706/706 708/708/708 705/705/705
f 596/596/596 697/697/697 695/695/695
f 709/709/709 697/697/697 596/596/596
f 596/596/596 597/597/597 709/709/709
f 707/707/707 597/597/597 596/596/596
f 700/700/700 595/595/595 698/698/698
f 698/698/698 595/595/595 598/598/598
f 598/598/598 595/595/595 720/720/720
f 720/720/720 595/595/595 721/721/721
f 594/594/594 683/683/683 592/592/592
f 723/723/723 683/683/683 594/594/594
f 713/713/713 754/754/754 757/757/757
f 757/757/757 754/754/754 752/752/752
f 725/725/725 733/733/733 724/724/724
f 724/724/724 733/733/733 712/712/712
f 712/712/712 733/733/733 731/731/731
f 731/731/731 733/733/733 730/730/730
f 714/714/714 726/726/726 778/778/778
f 778/778/778 726/726/726 684/684/684
f 684/684/684 686/686/686 778/778/778
f 778/778/778 686/686/686 768/768/768
f 727/727/727 768/768/768 686/686/686
f 716/716/716 768/768/768 727/727/727
f 719/719/719 717/717/717 718/718/718
f 718/718/718 717/717/717 728/728/728
f 718/718/718 728/728/728 747/747/747
f 747/747/747 728/728/728 744/744/744
f 744/744/744 749/749/749 747/747/747
f 747/747/747 749/749/749 746/746/746
f 711/711/711 750/750/750 729/729/729
f 710/710/710 750/750/750 711/711/711
f 748/748/748 750/750/750 710/710/710
f 753/753/753 750/750/750 748/748/748
f 732/732/732 687/687/687 688/688/688
f 688/688/688 687/687/687 689/689/689
f 736/736/736 741/741/741 739/739/739
f 739/739/739 741/741/741 738/738/738
f 740/740/740 745/745/745 743/743/743
f 743/743/743 745/745/745 742/742/742
f 770/770/770 773/773/773 751/751/751
f 771/771/771 773/773/773 770/770/770
f 755/755/755 758/758/758 761/761/761
f 761/761/761 758/758/758 756/756/756
f 759/759/759 762/762/762 765/765/765
f 765/765/765 762/762/762 760/760/760
f 763/763/763 766/766/766 769/769/769
f 769/769/769 766/766/766 764/764/764
f 767/767/767 774/774/774 777/777/777
f 777/777/777 774/774/774 772/772/772
f 775/775/775 535/535/535 533/533/533
f 533/533/533 535/535/535 779/779/779
f 776/776/776 780/780/780 465/465/465
f 465/465/465 780/780/780 534/534/534
f 464/464/464 463/463/463 685/685/685
f 521/521/521 463/463/463 464/464/464
f 519/519/519 532/532/532 520/520/520
f 531/531/531 532/532/532 519/519/519
f 546/546/546 545/545/545 530/530/530
f 544/544/544 545/545/545 546/546/546
