# Exported by s4extract — treeAFPOak_02_lod01_g01
o treeAFPOak_02_lod01_g01
v 0.486985 2.466410 -0.046464
v 1.038480 6.205410 -0.399718
v 0.189998 5.737230 -0.358031
v 0.406770 2.444550 -0.018320
v 0.495453 2.435040 0.023545
v 0.109635 1.242120 -0.087598
v 0.428531 2.463510 0.048531
v 0.133673 1.223610 0.019975
v 0.091180 1.538300 -0.059957
v 0.072685 1.163740 -0.080988
v 0.063304 1.372410 0.032290
v 0.137990 2.371610 -0.501531
v -0.031776 1.566680 -0.120725
v 0.029333 1.609800 -0.045052
v 0.142536 1.328240 -0.092373
v 0.055833 1.258230 0.080020
v 0.027956 1.645010 -0.081799
v -0.380982 2.501210 0.585105
v -0.630680 2.588160 -0.605580
v -0.774587 4.484260 -2.199200
v -0.825530 4.512340 -2.147610
v -0.581101 2.616940 -0.637136
v -0.770434 4.524660 -2.154280
v -0.574193 2.652540 -0.576075
v -0.625663 2.616010 -0.557086
v -1.434170 4.722590 -0.441543
v -0.562803 2.621110 -0.568916
v -1.198480 5.275020 -2.833700
v -1.399450 4.762150 -0.423412
v -1.431080 4.739700 -0.411742
v -1.403700 4.740270 -0.460935
v -0.084437 1.504360 -0.075221
v -1.441780 5.660350 -0.281492
v -0.036820 1.766550 -0.008456
v 0.941048 3.798650 -0.892389
v -0.021874 1.792660 -0.043840
v 0.176150 2.554590 -0.526937
v -0.057035 1.761750 -0.058579
v 0.368951 2.474610 -0.075019
v -0.166677 -0.006841 -0.105776
v 0.179180 2.543720 -0.675617
v 0.236090 2.524070 -0.715510
v 0.899233 3.813090 -0.863077
v 1.131300 6.125580 -1.968070
v 0.923645 3.822960 -0.823367
v 0.030087 1.436620 -0.125473
v 0.129894 4.880760 2.355980
v 0.222865 5.742900 -0.342489
v -0.052807 1.654810 -0.133673
v -0.024332 1.593670 -0.102942
v -0.477288 2.562610 -0.489028
v -0.487559 2.543240 -0.571742
v -0.071725 1.718410 -0.077831
v 0.068099 1.506640 -0.010821
v -0.106396 1.637830 -0.036964
v -0.064922 1.470410 -0.037937
v -0.059732 1.662120 -0.051520
v -0.043810 1.703630 -0.062519
v -0.055906 1.697250 -0.067196
v -0.121853 1.601070 -0.105341
v -0.551323 2.490530 -0.532639
v -0.550006 2.551750 -0.483352
v 0.004852 1.293040 0.088800
v 0.971874 3.810520 -0.844000
v 0.393316 2.483840 -0.003957
v 0.031640 1.398870 -0.094818
v 0.327178 2.460840 0.028092
v 0.292513 2.448070 -0.049639
v 0.077333 1.462260 -0.007741
v 0.184797 0.991531 0.040817
v -0.048342 1.437450 -0.046591
v 0.042396 1.515440 -0.177123
v 0.165259 2.308300 -0.613567
v 0.103578 2.377050 -0.587693
v 0.097307 1.563990 -0.093791
v -0.041128 1.484900 -0.077566
v 0.218938 2.370130 -0.556638
v -0.042843 0.491852 -0.107830
v 0.128790 0.481849 -0.028431
v 0.114851 0.479054 0.149109
v 0.013285 1.770120 -0.029104
v 0.075659 0.980635 -0.112618
v -0.006927 1.765320 -0.079223
v -0.172253 -0.026369 0.089032
v 0.008166 0.001071 -0.183347
v -0.008166 -0.035689 0.183347
v 0.172253 -0.008248 -0.089032
v 0.166677 -0.027776 0.105776
v -0.181922 0.495718 0.044121
v 0.031046 0.995405 0.149934
v -0.063020 0.486519 0.214897
v -0.078078 0.984509 -0.003509
v -0.280079 2.527920 0.563475
v -0.468796 6.031890 1.231800
v 0.335766 6.267070 -0.449361
v 0.278043 2.540230 -0.649653
v -0.560601 4.714970 1.359560
v -0.029253 1.487940 0.014700
v -0.300715 2.503900 0.534350
v -0.323208 2.547940 0.539002
v -0.290246 2.563800 0.518267
v -0.565797 4.694870 1.424190
v -0.049425 1.603220 -0.029127
v -0.093363 1.612870 -0.027218
v -0.328503 2.527450 0.604880
v -0.218323 2.535630 0.566016
v -0.617287 4.669120 1.404790
v -0.613560 4.685730 1.350200
v -0.063659 1.552620 -0.005094
v 0.428657 2.300830 -0.057180
v 0.214930 5.738410 -0.365542
v 0.412242 2.502040 -0.028604
v 0.201257 5.743020 -0.332983
v 0.180038 2.522680 -0.612995
v 0.004935 1.596840 -0.083640
v -0.229538 2.578130 0.512961
v -0.377183 2.518140 0.529465
v 0.366966 2.317130 0.059497
v 0.328943 2.275190 -0.040758
v 0.048238 1.194580 0.084931
v 0.176957 1.308540 0.023696
v 0.445228 2.241510 0.024002
v 0.242731 2.537170 -0.552850
v 0.070211 1.346980 0.071682
v 0.160641 2.592580 -0.577810
v 0.222093 2.584110 -0.614555
v 0.212404 2.557150 -0.621572
v 0.235076 6.316590 -0.671523
v 1.625050 4.607880 -1.011970
v 0.941887 4.156120 -1.001600
v 1.632690 4.608660 -0.998853
v 0.952555 4.173650 -1.036840
v 0.973191 4.137270 -1.002760
v 1.645530 4.608260 -1.005790
v 1.640510 4.599480 -0.999228
v -0.533494 4.190420 1.176840
v 1.629620 4.597830 -1.015730
v 0.979040 4.156510 -1.046080
v -1.204830 4.397970 2.184480
v -0.521516 4.165080 1.216660
v -0.551171 4.150640 1.154520
v -0.589754 2.647610 -0.561623
v -0.528650 2.654250 -0.582485
v -0.545847 4.117780 1.194440
v -0.584544 2.679530 -0.516163
v -0.828299 4.480090 -2.182620
v -0.521450 2.694810 -0.524923
v -0.015690 1.526460 0.040857
v -0.066710 1.548700 0.035330
v -0.094566 1.623320 -0.023377
v 0.045209 1.516290 0.010080
v -0.030653 1.696480 0.005935
v 0.013433 1.576400 0.030709
v -0.320842 2.414170 0.451768
v -0.094294 1.636030 0.069471
v -0.039935 1.749400 0.019835
v -0.226424 2.386980 0.406927
v -0.301738 2.336590 0.486344
v -0.011918 1.654900 0.071346
v -0.117051 1.689920 0.005757
v -0.238299 2.397930 0.516779
vn 0.461471 -0.151328 -0.874153
vn 0.468541 0.825937 0.313524
vn -0.922750 -0.054928 -0.381466
vn -0.091887 0.984028 -0.152463
vn 0.838029 -0.072332 0.540810
vn 0.485094 -0.263688 -0.833758
vn -0.423969 0.177286 0.888155
vn 0.990083 -0.087227 0.110122
vn -0.772543 0.333290 -0.540459
vn 0.767463 0.046135 -0.639431
vn -0.849650 0.306200 0.429345
vn -0.446085 0.442177 0.778131
vn -0.990704 0.123313 -0.057442
vn 0.939481 0.337614 -0.058243
vn 0.360303 -0.075018 -0.929814
vn 0.299460 -0.069759 0.951555
vn 0.139642 0.485307 0.863121
vn -0.920852 -0.243773 0.304314
vn -0.801931 -0.335000 -0.494653
vn 0.634141 -0.404155 -0.659184
vn -0.642099 0.438972 0.628500
vn 0.053553 0.088757 -0.994613
vn 0.899730 0.378230 0.217779
vn 0.824858 0.306395 0.475112
vn -0.519699 -0.233054 0.821948
vn -0.848807 -0.231831 -0.475165
vn 0.139776 0.892206 -0.429454
vn -0.247017 0.727623 -0.639959
vn 0.855167 0.199825 0.478288
vn 0.004840 -0.059710 0.998204
vn 0.635032 0.306525 -0.709067
vn -0.825224 -0.463471 -0.322800
vn -0.624389 0.703539 -0.339368
vn -0.665122 0.297207 0.685040
vn 0.402649 -0.428104 -0.809074
vn -0.094355 0.993898 -0.057132
vn -0.303852 0.059134 0.950882
vn -0.895990 0.296445 -0.330639
vn 0.310497 -0.064123 -0.948409
vn -0.800463 0.095349 -0.591750
vn -0.840023 0.342040 -0.421153
vn 0.059240 -0.191459 -0.979711
vn -0.917349 0.241602 -0.316384
vn 0.113428 0.945737 -0.304494
vn -0.068642 0.290608 0.954377
vn -0.014779 -0.540689 -0.841093
vn -0.122911 0.762624 0.635057
vn 0.923350 0.058718 0.379442
vn 0.348755 -0.265738 -0.898751
vn 0.327262 -0.185396 -0.926568
vn 0.523251 0.551197 0.649916
vn 0.757125 0.050615 -0.651306
vn 0.839661 0.505476 0.198653
vn 0.975509 0.207927 0.071756
vn -0.440402 0.211002 0.872654
vn -0.951227 -0.023734 0.307577
vn -0.728228 0.198553 0.655943
vn -0.192847 0.133203 -0.972146
vn 0.840615 0.485966 -0.239171
vn -0.843414 -0.496608 -0.205017
vn -0.468377 -0.581640 -0.665070
vn -0.717759 -0.017055 0.696083
vn -0.706283 0.091558 0.701984
vn 0.951300 -0.122347 0.282949
vn 0.913248 0.095448 0.396065
vn -0.092662 -0.034817 -0.995089
vn -0.564735 0.061327 0.822990
vn -0.903745 -0.077237 -0.421046
vn -0.858831 0.358945 0.365469
vn 0.993582 0.022182 -0.110919
vn -0.533325 -0.073885 -0.842677
vn -0.129649 -0.474757 -0.870516
vn 0.482482 -0.468270 -0.740225
vn -0.916829 -0.039834 -0.397288
vn 0.988551 -0.149624 -0.019502
vn -0.903825 -0.164768 -0.394907
vn 0.923164 0.045899 0.381656
vn 0.026252 0.121896 -0.992196
vn 0.916467 0.069371 -0.394050
vn 0.685782 0.012952 0.727692
vn 0.849070 0.298554 0.435828
vn -0.250977 0.011378 -0.967926
vn 0.467808 0.198822 -0.861177
vn -0.856133 -0.031491 0.515796
vn 0.049381 0.156907 -0.986378
vn 0.090332 -0.059310 0.994144
vn 0.743239 0.158993 -0.649859
vn 0.913736 0.053148 0.402818
vn -0.971718 0.132292 -0.195607
vn -0.018731 0.163303 0.986398
vn -0.461225 0.082732 0.883417
vn -0.986375 0.135398 0.093446
vn -0.625693 -0.399350 0.670096
vn -0.501208 0.836849 0.220170
vn -0.086376 0.980748 -0.175138
vn 0.846348 -0.380179 0.373039
vn 0.931014 0.124937 -0.342934
vn -0.841905 0.012460 0.539482
vn -0.152523 0.987414 0.041829
vn 0.537311 0.361798 -0.761839
vn -0.788679 0.449967 -0.418945
vn 0.670572 -0.104541 0.734441
vn -0.775927 0.622490 -0.102194
vn -0.701190 -0.061585 0.710310
vn 0.678996 -0.194716 0.707849
vn 0.804684 -0.425479 0.414066
vn -0.675950 -0.207839 0.707033
vn -0.688237 0.150821 -0.709636
vn -0.899692 -0.294335 0.322369
vn 0.628951 -0.171629 -0.758264
vn 0.820639 -0.021983 -0.571023
vn -0.839697 0.093531 -0.534940
vn 0.099708 0.125148 0.987115
vn -0.066445 0.848430 -0.525120
vn -0.180075 0.349686 -0.919398
vn 0.645933 0.412387 -0.642424
vn -0.683523 0.192267 -0.704152
vn -0.622616 0.205700 0.755008
vn -0.646286 0.151462 -0.747913
vn 0.530723 0.198448 0.823985
vn 0.940414 -0.275408 0.199428
vn 0.700235 -0.198916 0.685641
vn 0.874260 0.009469 0.485365
vn 0.182984 -0.041589 0.982236
vn -0.890372 0.022296 -0.454688
vn 0.298208 -0.021670 -0.954255
vn -0.472419 0.392973 0.788919
vn 0.390533 0.790841 0.471226
vn -0.293666 0.512296 -0.807040
vn -0.348779 0.527710 0.774516
vn -0.345584 0.528549 0.775376
vn -0.516021 0.814680 -0.264611
vn 0.457051 -0.664311 0.591435
vn 0.689154 0.546364 -0.475976
vn 0.569782 -0.817452 -0.084387
vn -0.022539 0.976117 -0.216073
vn 0.379882 -0.490512 -0.784275
vn 0.380559 -0.507967 -0.772751
vn -0.896272 0.242405 0.371397
vn 0.816997 0.000778 0.576641
vn -0.842835 0.012974 -0.538016
vn -0.890776 -0.355811 -0.282695
vn 0.660500 -0.427686 -0.617110
vn -0.042903 -0.968442 0.245521
vn -0.654377 0.431887 0.620697
vn -0.554194 -0.613522 -0.562548
vn 0.482769 0.605503 0.632693
vn 0.217968 0.144808 0.965153
vn -0.456043 -0.457483 0.763370
vn -0.846982 -0.087765 -0.524326
vn 0.553634 0.199164 0.808593
vn 0.387380 0.816228 0.428612
vn 0.790970 0.099137 0.603770
vn -0.616924 0.283832 -0.734060
vn -0.377819 -0.549393 0.745265
vn 0.279246 0.551032 -0.786375
vn 0.788536 0.456662 -0.411910
vn -0.742279 -0.498744 0.447523
vn 0.883386 -0.003503 0.468633
vn -0.892405 0.003715 -0.451220
vn 0.604556 -0.278897 0.746143
f 130//130 131//131 132//132
f 130//130 133//133 131//131
f 131//131 133//133 135//135
f 131//131 135//135 134//134
f 129//129 131//131 134//134
f 132//132 131//131 129//129
f 132//132 129//129 138//138
f 138//138 129//129 137//137
f 137//137 135//135 138//138
f 138//138 135//135 133//133
f 135//135 137//137 134//134
f 129//129 134//134 137//137
f 141//141 144//144 139//139
f 140//140 139//139 144//144
f 136//136 139//139 140//140
f 141//141 139//139 136//136
f 84//84 89//89 40//40
f 89//89 84//84 91//91
f 91//91 92//92 89//89
f 82//82 89//89 92//92
f 89//89 82//82 78//78
f 78//78 40//40 89//89
f 40//40 78//78 85//85
f 85//85 78//78 87//87
f 86//86 91//91 84//84
f 91//91 86//86 80//80
f 80//80 90//90 91//91
f 92//92 91//91 90//90
f 63//63 92//92 90//90
f 98//98 92//92 63//63
f 56//56 92//92 98//98
f 56//56 71//71 92//92
f 92//92 71//71 82//82
f 88//88 80//80 86//86
f 80//80 88//88 79//79
f 79//79 70//70 80//80
f 90//90 80//80 70//70
f 70//70 120//120 90//90
f 90//90 120//120 63//63
f 63//63 120//120 148//148
f 148//148 98//98 63//63
f 149//149 98//98 148//148
f 98//98 149//149 109//109
f 109//109 56//56 98//98
f 87//87 79//79 88//88
f 79//79 87//87 78//78
f 78//78 70//70 79//79
f 70//70 78//78 82//82
f 70//70 82//82 10//10
f 8//8 70//70 10//10
f 8//8 120//120 70//70
f 16//16 120//120 8//8
f 16//16 11//11 120//120
f 120//120 11//11 151//151
f 151//151 148//148 120//120
f 151//151 153//153 148//148
f 149//149 148//148 153//153
f 82//82 66//66 10//10
f 66//66 6//6 10//10
f 6//6 8//8 10//10
f 6//6 15//15 8//8
f 121//121 8//8 15//15
f 8//8 121//121 16//16
f 124//124 16//16 121//121
f 124//124 11//11 16//16
f 66//66 82//82 71//71
f 71//71 76//76 66//66
f 46//46 66//66 76//76
f 9//9 66//66 46//46
f 9//9 15//15 66//66
f 15//15 6//6 66//66
f 76//76 71//71 115//115
f 76//76 115//115 13//13
f 76//76 13//13 46//46
f 72//72 46//46 13//13
f 46//46 72//72 9//9
f 71//71 50//50 115//115
f 115//115 50//50 58//58
f 58//58 83//83 115//115
f 83//83 14//14 115//115
f 14//14 17//17 115//115
f 13//13 115//115 17//17
f 32//32 50//50 71//71
f 32//32 60//60 50//50
f 49//49 50//50 60//60
f 50//50 49//49 59//59
f 59//59 58//58 50//50
f 58//58 59//59 57//57
f 57//57 38//38 58//58
f 38//38 83//83 58//58
f 56//56 32//32 71//71
f 32//32 56//56 109//109
f 109//109 104//104 32//32
f 55//55 32//32 104//104
f 60//60 32//32 55//55
f 55//55 62//62 60//60
f 61//61 60//60 62//62
f 60//60 61//61 49//49
f 52//52 49//49 61//61
f 49//49 52//52 53//53
f 53//53 59//59 49//49
f 59//59 53//53 57//57
f 104//104 109//109 150//150
f 104//104 150//150 103//103
f 103//103 57//57 104//104
f 55//55 104//104 57//57
f 53//53 55//55 57//57
f 53//53 51//51 55//55
f 62//62 55//55 51//51
f 150//150 109//109 149//149
f 149//149 155//155 150//150
f 160//160 150//150 155//155
f 150//150 160//160 152//152
f 152//152 103//103 150//150
f 103//103 152//152 57//57
f 152//152 34//34 57//57
f 38//38 57//57 34//34
f 155//155 149//149 159//159
f 159//159 161//161 155//155
f 158//158 155//155 161//161
f 155//155 158//158 160//160
f 154//154 160//160 158//158
f 160//160 154//154 156//156
f 156//156 152//152 160//160
f 153//153 159//159 149//149
f 159//159 153//153 156//156
f 156//156 157//157 159//159
f 161//161 159//159 157//157
f 152//152 156//156 153//153
f 153//153 151//151 152//152
f 81//81 152//152 151//151
f 34//34 152//152 81//81
f 34//34 81//81 36//36
f 38//38 34//34 36//36
f 83//83 38//38 36//36
f 81//81 83//83 36//36
f 81//81 14//14 83//83
f 151//151 54//54 81//81
f 81//81 54//54 14//14
f 14//14 54//54 69//69
f 69//69 9//9 14//14
f 9//9 75//75 14//14
f 17//17 14//14 75//75
f 151//151 69//69 54//54
f 11//11 69//69 151//151
f 11//11 118//118 69//69
f 118//118 9//9 69//69
f 119//119 9//9 118//118
f 119//119 15//15 9//9
f 110//110 15//15 119//119
f 15//15 110//110 121//121
f 122//122 121//121 110//110
f 121//121 122//122 124//124
f 124//124 118//118 11//11
f 118//118 124//124 122//122
f 122//122 5//5 118//118
f 7//7 118//118 5//5
f 118//118 7//7 4//4
f 4//4 65//65 118//118
f 67//67 118//118 65//65
f 118//118 67//67 119//119
f 68//68 119//119 67//67
f 119//119 68//68 110//110
f 5//5 122//122 1//1
f 1//1 2//2 5//5
f 5//5 2//2 7//7
f 7//7 2//2 112//112
f 112//112 4//4 7//7
f 4//4 112//112 110//110
f 110//110 39//39 4//4
f 65//65 4//4 39//39
f 110//110 1//1 122//122
f 1//1 110//110 112//112
f 112//112 2//2 1//1
f 39//39 110//110 68//68
f 68//68 3//3 39//39
f 39//39 3//3 111//111
f 39//39 111//111 65//65
f 65//65 111//111 48//48
f 48//48 113//113 65//65
f 65//65 113//113 67//67
f 67//67 3//3 68//68
f 113//113 3//3 67//67
f 3//3 113//113 95//95
f 3//3 95//95 111//111
f 111//111 95//95 48//48
f 48//48 95//95 113//113
f 75//75 9//9 72//72
f 72//72 73//73 75//75
f 77//77 75//75 73//73
f 75//75 77//77 17//17
f 12//12 17//17 77//77
f 17//17 12//12 13//13
f 74//74 13//13 12//12
f 13//13 74//74 72//72
f 73//73 72//72 74//74
f 74//74 41//41 73//73
f 42//42 73//73 41//41
f 73//73 42//42 77//77
f 96//96 77//77 42//42
f 77//77 96//96 114//114
f 114//114 126//126 77//77
f 123//123 77//77 126//126
f 77//77 123//123 12//12
f 41//41 74//74 127//127
f 127//127 43//43 41//41
f 41//41 43//43 42//42
f 42//42 43//43 35//35
f 42//42 35//35 96//96
f 96//96 35//35 64//64
f 64//64 45//45 96//96
f 96//96 45//45 127//127
f 127//127 114//114 96//96
f 114//114 127//127 74//74
f 74//74 125//125 114//114
f 126//126 114//114 125//125
f 125//125 128//128 126//126
f 126//126 128//128 123//123
f 123//123 128//128 37//37
f 37//37 12//12 123//123
f 12//12 37//37 74//74
f 125//125 74//74 37//37
f 37//37 128//128 125//125
f 45//45 43//43 127//127
f 45//45 44//44 43//43
f 35//35 43//43 44//44
f 35//35 44//44 64//64
f 64//64 44//44 45//45
f 157//157 156//156 154//154
f 154//154 101//101 157//157
f 116//116 157//157 101//101
f 157//157 116//116 161//161
f 101//101 154//154 93//93
f 93//93 47//47 101//101
f 101//101 47//47 116//116
f 116//116 47//47 106//106
f 106//106 161//161 116//116
f 161//161 106//106 99//99
f 99//99 100//100 161//161
f 105//105 161//161 100//100
f 161//161 105//105 158//158
f 99//99 93//93 154//154
f 93//93 99//99 106//106
f 106//106 47//47 93//93
f 154//154 117//117 99//99
f 100//100 99//99 117//117
f 117//117 108//108 100//100
f 100//100 108//108 97//97
f 100//100 97//97 105//105
f 105//105 97//97 102//102
f 102//102 107//107 105//105
f 105//105 107//107 18//18
f 18//18 158//158 105//105
f 158//158 18//18 154//154
f 117//117 154//154 18//18
f 18//18 108//108 117//117
f 107//107 108//108 18//18
f 107//107 94//94 108//108
f 108//108 94//94 97//97
f 97//97 94//94 102//102
f 107//107 102//102 94//94
f 51//51 53//53 52//52
f 52//52 143//143 51//51
f 147//147 51//51 143//143
f 51//51 147//147 62//62
f 143//143 52//52 142//142
f 142//142 146//146 143//143
f 143//143 146//146 20//20
f 20//20 23//23 143//143
f 143//143 23//23 147//147
f 23//23 21//21 147//147
f 147//147 21//21 145//145
f 145//145 62//62 147//147
f 27//27 142//142 52//52
f 142//142 27//27 145//145
f 145//145 21//21 142//142
f 142//142 21//21 146//146
f 21//21 28//28 146//146
f 146//146 28//28 20//20
f 20//20 28//28 23//23
f 21//21 23//23 28//28
f 52//52 22//22 27//27
f 24//24 27//27 22//22
f 27//27 24//24 62//62
f 62//62 145//145 27//27
f 22//22 52//52 19//19
f 19//19 26//26 22//22
f 22//22 26//26 31//31
f 22//22 31//31 24//24
f 24//24 31//31 29//29
f 29//29 30//30 24//24
f 24//24 30//30 25//25
f 25//25 62//62 24//24
f 61//61 19//19 52//52
f 19//19 61//61 25//25
f 25//25 26//26 19//19
f 30//30 26//26 25//25
f 30//30 33//33 26//26
f 26//26 33//33 31//31
f 29//29 31//31 33//33
f 29//29 33//33 30//30
f 62//62 25//25 61//61
