# Exported by s4extract — object_painting_lod01_g01
o object_painting_lod01_g01
v -0.283098 0.263047 0.032595
v 0.461088 2.848379 0.070134
v -0.157297 0.102637 0.008332
v -0.272935 0.263139 0.008332
v -0.283098 0.263047 0.032595
v -0.262681 0.114173 0.044131
v -0.262681 0.114173 0.044131
v -0.272935 0.263139 0.008332
v -0.273576 0.101080 0.008332
v -0.421351 2.555393 0.057865
v -0.361930 0.263047 0.056125
v -0.421351 2.555393 0.000000
v -0.361930 0.263047 0.000000
v -0.157389 0.102271 0.032595
v -0.361930 0.263047 0.056125
v 0.156473 0.022890 0.055942
v -0.283098 0.263047 0.032595
v -0.157572 0.022890 0.055942
v -0.262681 0.114173 0.044131
v -0.361655 0.000000 0.068211
v 0.156290 0.102271 0.032595
v -0.189800 2.825490 0.057956
v 0.288958 0.101080 0.008332
v 0.156107 0.102637 0.008332
v 0.346640 2.555393 0.034334
v -0.317982 2.712324 0.008332
v 0.278154 0.114173 0.044131
v -0.307819 2.701611 0.045962
v -0.262681 0.114173 0.044131
v -0.329610 2.555393 0.034334
v -0.307819 2.701611 0.045962
v -0.273576 0.101080 0.008332
v -0.157389 0.102271 0.032595
v -0.317707 2.555393 0.008332
v 0.428127 2.555393 0.057865
v -0.317707 2.555393 0.008332
v 0.156290 0.102271 0.032595
v -0.421351 2.555393 0.057865
v -0.361930 0.263047 0.056125
v -0.329610 2.555393 0.034334
v 0.187054 2.825490 0.057956
v 0.461088 2.848379 0.000000
v 0.461088 2.848379 0.070134
v -0.189800 2.723494 0.034426
v -0.421351 2.555393 0.057865
v -0.307819 2.701611 0.045962
v -0.454404 2.848379 0.070134
v 0.368705 0.263047 0.056125
v 0.368339 0.000000 0.068211
v 0.187054 2.825490 0.000000
v 0.368705 0.263047 0.056125
v 0.368339 0.000000 0.000000
v 0.368339 0.000000 0.000000
v -0.329610 2.555393 0.034334
v 0.278154 0.114173 0.044131
v 0.368705 0.263047 0.056125
v 0.298572 0.263047 0.032595
v 0.368339 0.000000 0.068211
v 0.325215 2.701611 0.045962
v 0.187054 2.825490 0.057956
v 0.187054 2.723494 0.034426
v 0.461088 2.848379 0.070134
v -0.157389 0.102271 0.032595
v 0.156107 0.102637 0.008332
v -0.157297 0.102637 0.008332
v -0.361655 0.000000 0.000000
v -0.361655 0.000000 0.068211
v 0.368705 0.263047 0.000000
v -0.454404 2.848379 0.070134
v -0.157572 0.022890 0.000000
v -0.157572 0.022890 0.055942
v 0.156290 0.102271 0.032595
v 0.278154 0.114173 0.044131
v 0.297748 0.263139 0.008332
v 0.298572 0.263047 0.032595
v 0.297748 0.263139 0.008332
v 0.288958 0.101080 0.008332
v 0.297748 0.263139 0.008332
v 0.278154 0.114173 0.044131
v -0.454404 2.848379 0.000000
v -0.454404 2.848379 0.000000
v -0.421351 2.555393 0.057865
v 0.297015 2.217268 0.000000
v -0.421351 2.555393 0.000000
v -0.421351 2.555393 0.057865
v 0.334829 2.555393 0.008332
v 0.298572 0.263047 0.032595
v 0.334829 2.555393 0.008332
v 0.298572 0.263047 0.032595
v 0.346640 2.555393 0.034334
v 0.325215 2.701611 0.045962
v 0.334829 2.555393 0.008332
v 0.335378 2.712324 0.008332
v 0.334829 2.555393 0.008332
v 0.346640 2.555393 0.034334
v 0.187054 2.723494 0.034426
v 0.325215 2.701611 0.045962
v 0.325215 2.701611 0.045962
v 0.186871 2.712324 0.008332
v 0.187054 2.723494 0.034426
v 0.335378 2.712324 0.008332
v -0.189800 2.723494 0.034426
v -0.189709 2.712324 0.008332
v -0.307819 2.701611 0.045962
v -0.317982 2.712324 0.008332
v -0.189800 2.723494 0.034426
v -0.272935 0.263139 0.008332
v -0.329610 2.555393 0.034334
v -0.317707 2.555393 0.008332
v 0.156473 0.022890 0.000000
v -0.278887 2.217268 0.000000
v -0.157572 0.022890 0.000000
v -0.278887 2.217268 0.000000
v 0.297015 2.217268 0.000000
v 0.297015 2.217268 0.000000
v -0.329610 2.555393 0.034334
v -0.283098 0.263047 0.032595
v 0.368339 0.000000 0.000000
v -0.272935 0.263139 0.008332
v 0.156473 0.022890 0.000000
v 0.156473 0.022890 0.055942
v -0.189800 2.825490 0.057956
v 0.368339 0.000000 0.068211
v 0.187054 2.723494 0.034426
v -0.189800 2.723494 0.034426
v 0.368339 0.000000 0.000000
v -0.317707 2.555393 0.000000
v 0.334829 2.555393 0.000000
v -0.361930 0.263047 0.000000
v 0.156473 0.022890 0.000000
v 0.368705 0.263047 0.000000
v 0.428127 2.555393 0.000000
v -0.157572 0.022890 0.000000
v -0.361655 0.000000 0.000000
v 0.334829 2.555393 0.000000
v 0.187054 2.825490 0.000000
v -0.421351 2.555393 0.000000
v -0.454404 2.848379 0.000000
v -0.189800 2.825490 0.000000
v 0.461088 2.848379 0.000000
v 0.298114 0.064823 0.019502
v 0.250229 0.152902 0.019136
v -0.317707 2.555393 0.000000
v 0.187054 2.825490 0.057956
v 0.187054 2.825490 0.057956
v -0.189800 2.825490 0.000000
v -0.189800 2.825490 0.057956
v 0.368705 0.263047 0.056125
v 0.298572 0.263047 0.032595
v 0.428127 2.555393 0.057865
v -0.361655 0.000000 0.068211
v -0.361930 0.263047 0.056125
v -0.361930 0.263047 0.000000
v -0.361655 0.000000 0.000000
v -0.157572 0.022890 0.055942
v 0.187054 2.825490 0.000000
v -0.189800 2.825490 0.057956
v -0.189800 2.825490 0.000000
v -0.454404 2.848379 0.000000
v 0.156473 0.022890 0.055942
v -0.454404 2.848379 0.070134
v -0.157572 0.022890 0.055942
v -0.157389 0.102271 0.032595
v 0.156473 0.022890 0.000000
v -0.157572 0.022890 0.000000
v 0.156473 0.022890 0.055942
v 0.156290 0.102271 0.032595
v -0.361930 0.263047 0.056125
v -0.361655 0.000000 0.000000
v 0.428127 2.555393 0.057865
v 0.346640 2.555393 0.034334
v 0.368705 0.263047 0.056125
v 0.368705 0.263047 0.000000
v 0.428127 2.555393 0.000000
v 0.428127 2.555393 0.000000
v -0.295367 0.064823 0.019502
v -0.281725 2.664713 0.019136
v 0.283556 2.664713 0.019136
v -0.245834 0.152902 0.019136
v -0.281725 2.664713 0.019136
v -0.245834 0.152902 0.019136
v 0.428127 2.555393 0.057865
v 0.461088 2.848379 0.000000
v 0.428127 2.555393 0.057865
v 0.461088 2.848379 0.000000
v -0.281725 2.664713 0.019136
v 0.250229 0.152902 0.019136
v 0.283556 2.664713 0.019136
v 0.352133 2.757737 0.019502
v -0.337667 2.757737 0.019502
v 0.283556 2.664713 0.019136
vt 0.145493 0.228720
vt 0.881674 0.152461
vt 0.668153 0.081116
vt 0.745619 0.045535
vt 0.800740 0.045806
vt 0.798660 0.102194
vt 0.798660 0.102194
vt 0.745619 0.045535
vt 0.745317 0.080935
vt 0.081446 0.973012
vt 0.080119 0.228720
vt 0.013268 0.973012
vt 0.013268 0.228720
vt 0.708409 0.100716
vt 0.880618 0.045957
vt 0.279679 0.152943
vt 0.800740 0.045806
vt 0.709373 0.153365
vt 0.798660 0.102194
vt 0.881674 0.152461
vt 0.280463 0.102013
vt 0.279679 0.152943
vt 0.236016 0.079307
vt 0.320326 0.081116
vt 0.800740 0.045806
vt 0.236016 0.079307
vt 0.193559 0.100596
vt 0.193559 0.100596
vt 0.798660 0.102194
vt 0.192805 0.045957
vt 0.193559 0.100596
vt 0.745317 0.080935
vt 0.708409 0.100716
vt 0.239755 0.045173
vt 0.880618 0.045957
vt 0.239755 0.045173
vt 0.280463 0.102013
vt 0.081446 0.973012
vt 0.080119 0.228720
vt 0.146820 0.973012
vt 0.709373 0.153365
vt 0.955249 0.190183
vt 0.881674 0.152461
vt 0.280463 0.102013
vt 0.110364 0.045836
vt 0.193559 0.100596
vt 0.109731 0.151707
vt 0.110364 0.045836
vt 0.109731 0.151707
vt 0.777099 0.190183
vt 0.110364 0.045836
vt 0.036939 0.190183
vt 0.036939 0.190183
vt 0.192805 0.045957
vt 0.193559 0.100596
vt 0.110364 0.045836
vt 0.192805 0.045957
vt 0.109731 0.151707
vt 0.798660 0.102194
vt 0.709373 0.153365
vt 0.708409 0.100716
vt 0.881674 0.152461
vt 0.698186 0.103641
vt 0.320326 0.081116
vt 0.668153 0.081116
vt 0.955249 0.190183
vt 0.881674 0.152461
vt 0.036094 0.045927
vt 0.109731 0.151707
vt 0.777099 0.190183
vt 0.709373 0.153365
vt 0.288423 0.103611
vt 0.193559 0.100596
vt 0.239755 0.045173
vt 0.192805 0.045957
vt 0.239755 0.045173
vt 0.236016 0.079307
vt 0.377770 0.230379
vt 0.193559 0.100596
vt 0.036939 0.190183
vt 0.036939 0.190183
vt 0.110364 0.045836
vt 0.332237 0.845853
vt 0.036094 0.045927
vt 0.110364 0.045836
vt 0.375991 0.925429
vt 0.458794 0.230379
vt 0.375991 0.925429
vt 0.458794 0.230379
vt 0.461236 0.970540
vt 0.798660 0.102194
vt 0.745619 0.045535
vt 0.745317 0.080935
vt 0.745619 0.045535
vt 0.800740 0.045806
vt 0.708409 0.100716
vt 0.798660 0.102194
vt 0.798660 0.102194
vt 0.668153 0.081116
vt 0.698186 0.103641
vt 0.745317 0.080935
vt 0.288423 0.103611
vt 0.320326 0.081116
vt 0.193559 0.100596
vt 0.236016 0.079307
vt 0.280463 0.102013
vt 0.223683 0.228720
vt 0.146820 0.973012
vt 0.226185 0.927118
vt 0.322950 0.274072
vt 0.263335 0.856738
vt 0.269396 0.278535
vt 0.393450 0.018999
vt 0.594999 0.018999
vt 0.332237 0.845853
vt 0.146820 0.973012
vt 0.145493 0.228720
vt 0.036939 0.190183
vt 0.223683 0.228720
vt 0.217411 0.190183
vt 0.279679 0.152943
vt 0.291318 0.153516
vt 0.109731 0.151707
vt 0.698186 0.103641
vt 0.288423 0.103611
vt 0.367186 0.223685
vt 0.395621 0.062813
vt 0.589783 0.062481
vt 0.229140 0.253205
vt 0.322950 0.274072
vt 0.366975 0.253356
vt 0.367216 0.925459
vt 0.269396 0.278535
vt 0.229110 0.223443
vt 0.328046 0.922866
vt 0.314205 0.949703
vt 0.230980 0.925550
vt 0.228025 0.953744
vt 0.279709 0.949643
vt 0.371377 0.953925
vt 0.988057 0.228298
vt 0.965502 0.246843
vt 0.266622 0.923469
vt 0.694085 0.153365
vt 0.694085 0.153365
vt 0.228025 0.190183
vt 0.291318 0.153516
vt 0.533696 0.230379
vt 0.458794 0.230379
vt 0.530168 0.970540
vt 0.881674 0.152461
vt 0.880618 0.045957
vt 0.944876 0.045655
vt 0.955249 0.190183
vt 0.694085 0.153365
vt 0.768506 0.190183
vt 0.279679 0.152943
vt 0.217411 0.190183
vt 0.036939 0.190183
vt 0.291318 0.153516
vt 0.109731 0.151707
vt 0.694085 0.153365
vt 0.698186 0.103641
vt 0.228025 0.190183
vt 0.768506 0.190183
vt 0.291318 0.153516
vt 0.288423 0.103611
vt 0.880618 0.045957
vt 0.955249 0.190183
vt 0.530168 0.970540
vt 0.461236 0.970540
vt 0.533696 0.230379
vt 0.565690 0.230379
vt 0.944876 0.045655
vt 0.567227 0.970540
vt 0.578656 0.228268
vt 0.606458 0.953864
vt 0.965592 0.953925
vt 0.633627 0.247355
vt 0.633898 0.942345
vt 0.606156 0.247355
vt 0.880618 0.045957
vt 0.955249 0.190183
vt 0.880618 0.045957
vt 0.955249 0.190183
vt 0.606458 0.953864
vt 0.938031 0.246843
vt 0.938092 0.942436
vt 0.987152 0.967916
vt 0.579168 0.967675
vt 0.965592 0.953925
vn 0.286017 0.005076 0.958211
vn 0.993731 -0.111795 0.000000
vn 0.034498 0.976421 -0.213100
vn 0.957052 -0.003785 -0.289892
vn 0.911062 0.154566 0.382198
vn 0.911062 0.154566 0.382198
vn 0.957052 -0.003785 -0.289892
vn 0.911062 0.154566 0.382198
vn 0.957052 -0.003785 -0.289892
vn -0.999664 -0.025913 0.000000
vn -0.999664 -0.025913 0.000000
vn -0.999664 -0.025913 0.000000
vn -0.999664 -0.025913 0.000000
vn 0.113983 0.993363 0.015424
vn 0.217841 0.066781 0.973697
vn -0.062692 0.209816 0.975729
vn 0.284196 0.112756 0.952113
vn 0.067876 0.204505 0.976509
vn 0.153128 0.127582 0.979936
vn 0.121647 0.102761 0.987240
vn -0.117540 0.279961 0.952789
vn 0.060724 -0.153348 0.986305
vn 0.011015 0.940171 -0.340524
vn -0.030059 0.976747 -0.212278
vn -0.275548 -0.116259 0.954231
vn 0.965531 0.001690 -0.260283
vn -0.030059 0.976747 -0.212278
vn 0.965531 0.001690 -0.260283
vn 0.034498 0.976421 -0.213100
vn 0.896612 -0.166260 0.410421
vn 0.896612 -0.166260 0.410421
vn -0.012587 0.940316 -0.340070
vn 0.135719 0.279267 0.950574
vn 0.965531 0.001690 -0.260283
vn -0.182668 -0.048630 0.981971
vn 0.896612 -0.166260 0.410421
vn -0.098674 0.994995 0.015764
vn 0.248441 0.005705 0.968630
vn 0.265958 0.005414 0.963969
vn 0.265958 0.005414 0.963969
vn -0.083238 0.996530 0.000000
vn -0.083238 0.996530 0.000000
vn -0.083238 0.996530 0.000000
vn 0.135663 -0.222717 0.965398
vn 0.166741 -0.049305 0.984767
vn 0.116232 -0.099462 0.988229
vn 0.087951 -0.075736 0.993241
vn 0.999999 -0.001392 0.000000
vn 0.999999 -0.001392 0.000000
vn -0.083238 0.996530 0.000000
vn 0.999999 -0.001392 0.000000
vn 0.999999 -0.001392 0.000000
vn 0.999999 -0.001392 0.000000
vn 0.246845 -0.113322 0.962406
vn -0.155632 0.136750 0.978304
vn -0.239472 0.067625 0.968545
vn -0.315925 0.116296 0.941630
vn -0.124720 0.109466 0.986135
vn -0.117250 -0.106125 0.987416
vn -0.056326 -0.158266 0.985789
vn -0.116174 -0.223274 0.967808
vn -0.089729 -0.080423 0.992714
vn 0.000000 0.999886 0.015093
vn 0.000000 0.999886 0.015093
vn 0.000000 0.999886 0.015093
vn 0.111459 -0.993769 0.000000
vn 0.111459 -0.993769 0.000000
vn 0.999999 -0.001392 0.000000
vn -0.993697 -0.112101 0.000000
vn 0.111459 -0.993769 0.000000
vn 0.111459 -0.993769 0.000000
vn 0.000000 0.999886 0.015093
vn -0.989789 0.138391 0.034138
vn -0.989789 0.138391 0.034138
vn -0.989789 0.138391 0.034138
vn -0.950707 0.051564 -0.305773
vn -0.950707 0.051564 -0.305773
vn -0.999291 0.016165 0.033999
vn -0.950707 0.051564 -0.305773
vn -0.993697 -0.112101 0.000000
vn -0.993697 -0.112101 0.000000
vn -0.993697 -0.112101 0.000000
vn 0.000000 0.000000 -1.000000
vn -0.993697 -0.112101 0.000000
vn -0.993697 -0.112101 0.000000
vn -0.999291 0.016165 0.033999
vn -0.910316 0.018775 0.413488
vn -0.910316 0.018775 0.413488
vn -0.999291 0.016165 0.033999
vn -0.910316 0.018775 0.413488
vn -0.965648 0.003380 -0.259833
vn -0.965648 0.003380 -0.259833
vn -0.965648 0.003380 -0.259833
vn -0.898142 -0.164043 0.407959
vn -0.898142 -0.164043 0.407959
vn -0.175703 -0.904564 0.388450
vn -0.898142 -0.164043 0.407959
vn -0.075922 -0.997103 -0.004727
vn -0.035926 -0.976241 0.213690
vn 0.000000 -0.919312 0.393530
vn 0.000000 -0.961788 -0.273794
vn 0.000000 -0.919312 0.393530
vn 0.024289 -0.956657 0.290204
vn 0.088182 -0.996081 -0.006781
vn 0.000000 -0.961788 -0.273794
vn 0.204517 -0.899620 0.385818
vn 0.909123 0.017757 0.416148
vn 0.909123 0.017757 0.416148
vn 0.909123 0.017757 0.416148
vn 0.000000 0.000000 -1.000000
vn 0.000000 0.000000 -1.000000
vn 0.000000 0.000000 -1.000000
vn 0.000000 0.000000 -1.000000
vn 0.000000 0.000000 -1.000000
vn 0.000000 0.000000 -1.000000
vn 0.922173 0.018418 0.386338
vn 0.922173 0.018418 0.386338
vn -0.107413 -0.994214 0.000000
vn 0.922173 0.018418 0.386338
vn -0.107413 -0.994214 0.000000
vn -0.107413 -0.994214 0.000000
vn 0.000000 -0.224796 0.974406
vn -0.107413 -0.994214 0.000000
vn 0.000000 -0.224796 0.974406
vn 0.000000 -0.224796 0.974406
vn 0.000000 0.000000 -1.000000
vn 0.000000 0.000000 -1.000000
vn 0.000000 0.000000 -1.000000
vn 0.000000 0.000000 -1.000000
vn 0.000000 0.000000 -1.000000
vn 0.000000 0.000000 -1.000000
vn 0.000000 0.000000 -1.000000
vn 0.000000 0.000000 -1.000000
vn 0.000000 0.000000 -1.000000
vn 0.000000 0.000000 -1.000000
vn 0.000000 0.000000 -1.000000
vn 0.000000 0.000000 -1.000000
vn 0.000000 0.000000 -1.000000
vn 0.000000 0.000000 -1.000000
vn 0.000000 0.000000 -1.000000
vn -0.004779 0.001081 0.999988
vn -0.005511 0.001162 0.999984
vn 0.000000 0.000000 -1.000000
vn 0.000000 -0.224796 0.974406
vn 0.000000 1.000000 0.000000
vn 0.000000 1.000000 0.000000
vn 0.000000 1.000000 0.000000
vn -0.296430 0.006225 0.955034
vn -0.318078 0.005950 0.948046
vn -0.277423 0.006462 0.960726
vn -0.999999 -0.001044 0.000000
vn -0.999999 -0.001044 0.000000
vn -0.999999 -0.001044 0.000000
vn -0.999999 -0.001044 0.000000
vn 0.000000 0.282166 0.959366
vn 0.000000 1.000000 0.000000
vn 0.086183 0.996279 0.000000
vn 0.086183 0.996279 0.000000
vn 0.086183 0.996279 0.000000
vn 0.000000 -1.000000 0.000000
vn 0.086183 0.996279 0.000000
vn 0.000000 -1.000000 0.000000
vn 0.000000 0.282166 0.959366
vn 0.000000 -1.000000 0.000000
vn 0.000000 -1.000000 0.000000
vn 0.000000 0.282166 0.959366
vn 0.000000 0.282166 0.959366
vn -0.999999 -0.001044 0.000000
vn -0.999999 -0.001044 0.000000
vn 0.999664 -0.025913 0.000000
vn -0.296430 0.006225 0.955034
vn 0.999664 -0.025913 0.000000
vn 0.999664 -0.025913 0.000000
vn 0.993731 -0.111795 0.000000
vn 0.999664 -0.025913 0.000000
vn 0.005837 0.000753 0.999983
vn 0.006722 0.000106 0.999977
vn -0.005490 0.000110 0.999985
vn 0.000000 0.000000 1.000000
vn 0.000000 0.000000 1.000000
vn 0.004115 0.001844 0.999990
vn 0.993731 -0.111795 0.000000
vn 0.993731 -0.111795 0.000000
vn 0.993731 -0.111795 0.000000
vn 0.993731 -0.111795 0.000000
vn 0.005106 -0.001076 0.999986
vn 0.000000 0.000000 1.000000
vn 0.000000 0.000000 1.000000
vn -0.004045 -0.000955 0.999991
vn 0.003743 -0.001686 0.999992
vn -0.003833 -0.001865 0.999991
f 6/6/6 8/8/8 5/5/5
f 9/9/9 4/4/4 7/7/7
f 36/36/36 31/31/31 30/30/30
f 26/26/26 28/28/28 34/34/34
f 74/74/74 73/73/73 75/75/75
f 77/77/77 79/79/79 76/76/76
f 89/89/89 86/86/86 78/78/78
f 90/90/90 88/88/88 87/87/87
f 92/92/92 91/91/91 93/93/93
f 95/95/95 97/97/97 94/94/94
f 108/108/108 107/107/107 109/109/109
f 117/117/117 119/119/119 116/116/116
f 169/169/169 152/152/152 153/153/153
f 151/151/151 168/168/168 154/154/154
f 185/185/185 182/182/182 174/174/174
f 2/2/2 184/184/184 183/183/183
f 53/53/53 48/48/48 49/49/49
f 68/68/68 51/51/51 52/52/52
f 81/81/81 82/82/82 69/69/69
f 84/84/84 85/85/85 80/80/80
f 189/189/189 178/178/178 141/141/141
f 176/176/176 177/177/177 190/190/190
f 3/3/3 29/29/29 14/14/14
f 32/32/32 29/29/29 3/3/3
f 27/27/27 24/24/24 37/37/37
f 23/23/23 24/24/24 27/27/27
f 35/35/35 59/59/59 25/25/25
f 62/62/62 59/59/59 35/35/35
f 62/62/62 60/60/60 59/59/59
f 59/59/59 60/60/60 61/61/61
f 16/16/16 55/55/55 21/21/21
f 58/58/58 55/55/55 16/16/16
f 58/58/58 56/56/56 55/55/55
f 55/55/55 56/56/56 57/57/57
f 15/15/15 19/19/19 17/17/17
f 20/20/20 19/19/19 15/15/15
f 18/18/18 19/19/19 20/20/20
f 33/33/33 19/19/19 18/18/18
f 44/44/44 22/22/22 46/46/46
f 46/46/46 22/22/22 47/47/47
f 45/45/45 46/46/46 47/47/47
f 54/54/54 46/46/46 45/45/45
f 63/63/63 64/64/64 65/65/65
f 72/72/72 64/64/64 63/63/63
f 99/99/99 98/98/98 96/96/96
f 101/101/101 98/98/98 99/99/99
f 100/100/100 103/103/103 99/99/99
f 102/102/102 103/103/103 100/100/100
f 103/103/103 104/104/104 105/105/105
f 106/106/106 104/104/104 103/103/103
f 118/118/118 121/121/121 120/120/120
f 123/123/123 121/121/121 118/118/118
f 124/124/124 122/122/122 125/125/125
f 144/144/144 122/122/122 124/124/124
f 145/145/145 146/146/146 147/147/147
f 156/156/156 146/146/146 145/145/145
f 159/159/159 157/157/157 158/158/158
f 161/161/161 157/157/157 159/159/159
f 162/162/162 164/164/164 160/160/160
f 165/165/165 164/164/164 162/162/162
f 163/163/163 166/166/166 167/167/167
f 155/155/155 166/166/166 163/163/163
f 148/148/148 171/171/171 149/149/149
f 150/150/150 171/171/171 148/148/148
f 172/172/172 175/175/175 170/170/170
f 173/173/173 175/175/175 172/172/172
f 10/10/10 13/13/13 11/11/11
f 12/12/12 13/13/13 10/10/10
f 40/40/40 39/39/39 1/1/1
f 38/38/38 39/39/39 40/40/40
f 42/42/42 41/41/41 43/43/43
f 50/50/50 41/41/41 42/42/42
f 66/66/66 71/71/71 67/67/67
f 70/70/70 71/71/71 66/66/66
f 132/132/132 115/115/115 135/135/135
f 140/140/140 132/132/132 135/135/135
f 140/140/140 135/135/135 136/136/136
f 143/143/143 136/136/136 135/135/135
f 139/139/139 136/136/136 143/143/143
f 143/143/143 138/138/138 139/139/139
f 143/143/143 137/137/137 138/138/138
f 143/143/143 111/111/111 137/137/137
f 111/111/111 129/129/129 137/137/137
f 133/133/133 129/129/129 111/111/111
f 133/133/133 134/134/134 129/129/129
f 132/132/132 131/131/131 83/83/83
f 83/83/83 131/131/131 130/130/130
f 130/130/130 131/131/131 126/126/126
f 111/111/111 110/110/110 112/112/112
f 115/115/115 110/110/110 111/111/111
f 113/113/113 128/128/128 114/114/114
f 127/127/127 128/128/128 113/113/113
f 141/141/141 191/191/191 142/142/142
f 181/181/181 141/141/141 142/142/142
f 176/176/176 141/141/141 181/181/181
f 181/181/181 186/186/186 176/176/176
f 179/179/179 188/188/188 180/180/180
f 187/187/187 188/188/188 179/179/179
f 191/191/191 190/190/190 186/186/186
f 189/189/189 190/190/190 191/191/191
