# Exported by s4extract — treeGCWWillow_01_lod01_g00
o treeGCWWillow_01_lod01_g00
v 0.284043 11.261500 0.061853
v 3.189640 7.820710 -0.393497
v 2.038980 7.014300 -0.684729
v 1.840390 7.530310 -0.527194
v 1.880720 7.488360 -0.672122
v 2.091820 7.100030 -0.439985
v 2.036550 5.204841 -0.684473
v 2.114690 4.527630 -0.120061
v 2.313700 4.414440 -0.441269
v 2.199090 4.430000 -0.624385
v 2.306930 4.476310 -0.210640
v 1.872100 4.463500 -0.531722
v 1.789650 3.972830 0.412693
v 1.602260 3.998780 0.257982
v 1.696380 4.004540 0.361661
v 1.488010 3.899600 0.194876
v 1.498280 3.850870 0.075883
v 2.030400 3.689820 -0.003531
v 1.972000 3.584130 0.319710
v 0.883399 5.500760 0.659050
v 1.799320 3.461780 0.027251
v 1.724460 3.599340 -0.137928
v 1.807020 3.762420 0.551837
v 1.602000 3.581770 -0.115370
v 1.561760 3.736970 -0.005507
v 5.183990 10.480700 -0.558791
v 5.243720 10.481400 -0.587846
v 4.294380 9.546900 -0.506375
v 4.190650 9.591751 -0.544334
v 3.114830 7.839750 -0.253937
v 4.319130 9.509600 -0.614398
v 4.216480 9.552980 -0.656356
v 3.306530 7.762130 -0.288404
v 3.233570 7.780701 -0.152183
v 1.900090 4.537750 -0.207278
v 1.953690 7.525800 -0.461303
v 1.927200 3.702130 0.457321
v 0.209801 11.206100 0.112530
v 2.118420 6.774200 -0.545731
v 1.065790 3.326330 0.957119
v 1.441210 2.937670 0.252250
v 1.306070 2.980380 0.148219
v 1.076190 3.156000 0.254540
v 0.775585 6.652181 0.193246
v 0.337837 8.151680 -0.244681
v 0.076152 8.120590 -0.418844
v 0.823920 6.354650 0.090557
v 0.206641 8.109351 -0.164039
v 0.207869 11.206500 -0.021492
v 0.330083 11.206400 0.115062
v 2.038200 7.513920 -0.511642
v 0.896772 3.380250 0.874422
v 1.556090 2.909370 0.408447
v 0.369549 2.339340 0.790791
v 0.636550 2.391230 0.923146
v 1.073490 5.132061 0.315079
v 0.807482 5.131320 0.561674
v 0.128053 7.886031 -0.162913
v 0.352247 11.208100 -0.001796
v 0.260008 8.153411 -0.396425
v 0.729878 6.394040 0.382682
v 0.845102 3.341760 0.605989
v 1.364060 3.300150 0.872936
v 0.314891 2.453450 0.443660
v 1.076820 2.153170 0.404901
v 1.533140 2.955790 0.664408
v 0.849939 3.903390 0.483723
v 1.116000 5.128240 0.786134
v 2.057850 8.284470 1.539810
v 2.102520 10.287400 2.306020
v 2.154930 10.322300 2.236490
v -0.357771 1.278890 0.436530
v -0.326854 1.214820 -0.044021
v 0.507878 0.850497 0.500028
v 0.195772 1.015910 0.724938
v 0.679647 0.992043 -0.054958
v -0.628269 0.805148 0.051890
v 0.698406 1.022400 0.220850
v 0.405094 1.159250 -0.382034
v 0.587451 1.120230 -0.204608
v -0.023621 1.087360 0.680408
v -0.221388 1.099060 0.568433
v 0.981903 2.399640 0.159873
v 1.066350 2.299810 0.240321
v 1.217340 3.977360 0.250843
v 0.872759 3.971260 0.650894
v 1.040810 4.758430 0.803738
v -0.118318 1.382490 -0.184849
v 0.174257 1.234630 -0.291738
v 0.751881 2.486810 0.114284
v -0.230805 1.668490 0.252861
v 1.289150 3.569920 0.196761
v 2.156800 10.371600 2.321240
v 0.858983 4.746190 0.657731
v 1.055770 3.985750 0.836501
v 4.165920 9.378880 -3.630660
v -0.732490 9.298660 2.952890
v 2.026370 8.682510 0.018471
v 1.880720 7.488360 -0.672122
v 0.999609 3.886050 0.274992
v 0.928835 2.441410 0.980870
v 0.893996 5.128320 0.357908
v 1.225830 5.129690 0.433606
v 2.088390 8.300130 1.405770
v 1.990050 8.394020 1.387300
v 1.919910 8.305401 1.506260
v 0.896898 6.270220 0.307486
v 0.847651 3.270050 0.438734
v 1.432830 2.981960 0.877590
v 0.541725 2.592480 0.279485
v -0.699450 0.342899 0.105552
v -0.884063 0.106669 0.229109
v -0.860128 0.124422 0.538060
v -0.751506 0.421855 0.451684
v -0.596416 0.403257 -0.399377
v -0.949865 0.128707 -0.336680
v -0.902020 0.112271 -0.014420
v 0.958193 0.123391 0.343435
v -0.725877 0.121061 -0.521842
v -0.038561 0.141136 -0.895402
v 2.171610 10.273300 2.375170
v 0.333592 0.466811 -0.762660
v 0.662133 0.411708 -0.021685
v 0.869565 0.127141 -0.048673
v 0.370611 0.136518 -0.963440
v 0.566136 0.316774 0.471823
v 0.801542 0.406006 0.300513
v 0.040011 0.130987 0.908397
v 0.406150 0.318230 0.747273
v -0.796169 0.422524 -0.188555
v 2.038200 7.513920 -0.511642
v 2.205710 8.707831 -0.025772
v 1.953690 7.525800 -0.461303
v 2.062910 8.719550 -0.101409
v 2.133070 8.653111 0.032164
v 2.739000 10.202300 0.315897
v 4.282030 9.388880 -3.655710
v -0.788589 9.303390 2.932510
v 2.671730 8.985440 -2.884150
v 4.302930 9.292350 -3.676050
v 1.054970 2.242800 0.732450
v 0.106445 7.320620 2.050220
v -0.746632 9.300570 2.857830
v 0.096436 7.282781 2.222380
v -0.045761 7.261391 2.293940
v -0.849083 9.252990 2.918260
v 1.494480 3.624600 0.717046
v 1.364750 3.992990 0.776714
v 1.202210 3.965730 0.842199
v 1.441180 4.064240 0.644982
v 1.528350 3.916730 0.430380
v 1.450240 4.123350 0.476141
v 1.519520 3.824300 0.568395
v 1.479250 3.961880 0.338785
v 1.348920 4.131100 0.265863
v 1.377230 3.776020 0.211234
v 1.482710 3.898571 0.292424
v 2.665680 8.901470 -3.052220
v 1.259280 5.129220 0.648743
v 0.671779 6.584510 0.321976
v 1.949570 7.107470 -2.074350
v 4.285860 9.345730 -3.517380
v 2.036550 5.204840 -0.684473
v 2.523830 9.007310 -2.995180
v 1.784760 7.081840 -2.198110
v 5.205060 10.423700 -0.642322
v 5.274080 10.454800 -0.519846
v -2.954820 9.642060 0.003574
v -0.806129 9.253300 2.998440
v 2.133060 8.880349 -0.060238
v 5.294260 10.399901 -0.600409
v 2.008250 7.470360 -0.649429
v -2.938370 9.696470 -0.069015
v -3.039750 9.669900 -0.060359
v 2.114000 9.062940 -1.019860
v 2.233850 10.292801 2.285970
v 2.216280 9.062271 -1.032020
v 2.166370 9.205150 -0.988548
v 0.351069 0.099655 0.947004
v 0.601202 0.148413 0.863674
v 0.739170 0.422780 -0.376553
v 0.681437 0.100230 0.549154
v 0.506241 0.391930 -0.518918
v 0.544351 0.119140 -0.666044
v 0.869648 0.140620 -0.500802
v -0.430323 0.479690 -0.661633
v -0.012313 0.427687 -0.671652
v -0.304215 0.365838 0.779660
v -0.374576 0.122410 0.964029
v -0.458818 0.362099 0.580624
v -0.506490 0.160000 -0.829796
v 2.760970 10.175600 0.366399
v 2.700480 10.191601 0.352860
v 2.008250 7.470360 -0.649429
v 2.695370 10.169300 0.269759
v 1.077550 4.143490 0.226129
v 2.055570 7.213450 -0.592626
v 0.033224 0.361801 0.803275
v -0.527450 0.100526 0.705056
v 0.067617 8.262961 -0.225803
v 1.973340 7.023830 -2.262960
v 2.772210 10.173000 0.307174
v -0.092251 7.320680 2.083770
v -2.970550 9.632881 -0.131900
v 2.262240 9.156300 -1.051820
v -2.997090 9.560100 -0.059593
v 0.094706 7.907800 -0.301829
v 1.503530 9.080340 -1.776070
v 1.448320 9.044550 -1.725250
v 1.456890 9.076000 -1.753470
v 1.479580 9.024500 -1.769320
v 1.483540 9.115220 -1.704230
vn -0.007827 0.999939 0.007739
vn -0.015087 0.089009 -0.995917
vn 0.436961 -0.060044 -0.897474
vn -0.945543 0.011090 0.325308
vn -0.901008 -0.015646 -0.433520
vn 0.389840 0.120523 0.912962
vn -0.245654 -0.019815 -0.969155
vn 0.053362 0.242156 0.968769
vn 0.967159 -0.070526 -0.244191
vn 0.676952 -0.257946 -0.689347
vn 0.897940 0.078528 0.433056
vn -0.874280 -0.169043 -0.455036
vn 0.259746 0.579569 0.772420
vn -0.617682 0.716733 0.323672
vn -0.276150 0.763360 0.583971
vn -0.813799 0.581084 -0.008454
vn -0.788982 0.285041 -0.544296
vn 0.827841 -0.514067 -0.224532
vn 0.907413 -0.368904 0.201274
vn -0.283891 0.957801 -0.044976
vn 0.489617 -0.616802 -0.616304
vn 0.070012 -0.507187 -0.858988
vn 0.490137 0.339209 0.802934
vn -0.592865 -0.065379 -0.802643
vn -0.855966 0.257740 -0.448210
vn -0.517248 0.611935 0.598323
vn 0.418058 0.796010 -0.437716
vn 0.496598 -0.247852 0.831841
vn -0.664315 0.602643 0.442162
vn -0.777875 0.619576 0.105049
vn 0.614031 -0.515377 -0.597790
vn -0.546730 0.286921 -0.786614
vn 0.755274 -0.562250 -0.336803
vn -0.054165 0.017288 0.998382
vn -0.909333 0.193390 0.368393
vn -0.248325 0.101931 0.963299
vn 0.768708 -0.057076 0.637048
vn -0.618920 -0.035366 0.784658
vn 0.974335 -0.165830 -0.152225
vn -0.044104 0.090382 0.994930
vn 0.525962 -0.480666 -0.701659
vn -0.033709 -0.147311 -0.988516
vn -0.480112 0.182730 -0.857964
vn 0.338056 0.890430 -0.304716
vn 0.971951 0.060673 0.227223
vn -0.151454 0.000128 -0.988464
vn 0.542535 -0.013442 -0.839925
vn 0.113986 0.111992 0.987150
vn -0.610894 0.143046 -0.778683
vn 0.586686 -0.070349 0.806753
vn 0.977471 0.163418 0.133588
vn -0.728927 0.245820 0.638935
vn 0.820308 -0.558833 -0.121658
vn -0.731774 0.303925 0.610030
vn -0.315824 0.032305 0.948268
vn 0.201675 0.021953 -0.979206
vn -0.983004 -0.089004 -0.160567
vn -0.517288 -0.227469 0.825028
vn 0.818818 0.075467 -0.569071
vn 0.553013 0.082946 -0.829034
vn -0.191447 -0.169655 0.966729
vn -0.928496 0.370513 0.024801
vn 0.378809 0.082823 0.921762
vn -0.822624 0.554813 -0.124391
vn 0.931685 -0.339762 -0.128548
vn 0.833136 -0.441915 0.332560
vn -0.964056 -0.009275 -0.265537
vn 0.813293 0.282435 0.508710
vn 0.258719 -0.505090 0.823376
vn -0.962164 -0.017457 0.271911
vn -0.153428 0.432529 -0.888470
vn -0.841446 0.406724 0.355731
vn -0.773787 0.492548 -0.398309
vn 0.707500 -0.156519 0.689163
vn 0.269143 -0.162078 0.949364
vn 0.981890 -0.084204 -0.169712
vn -0.887357 0.439131 -0.140574
vn 0.963226 -0.219015 0.155656
vn 0.269239 0.322869 -0.907340
vn 0.781435 0.030031 -0.623263
vn -0.323757 0.088975 0.941947
vn -0.533105 0.177365 0.827249
vn 0.500156 0.009625 -0.865882
vn 0.781498 -0.277725 -0.558686
vn 0.123685 0.098874 -0.987383
vn -0.900978 0.053475 0.430557
vn 0.166244 -0.336888 0.926752
vn -0.455377 0.516894 -0.724881
vn -0.117784 0.419144 -0.900247
vn -0.148412 0.354090 -0.923360
vn -0.861051 0.493854 -0.121241
vn -0.376149 0.101724 -0.920958
vn 0.011874 0.943257 0.331853
vn -0.904705 -0.342198 0.253790
vn -0.508845 0.094181 0.855691
vn -0.395700 0.585835 -0.707262
vn 0.716313 0.054899 0.695616
vn -0.898691 0.087614 0.429742
vn -0.676017 0.394616 -0.622317
vn -0.631153 -0.017088 -0.775470
vn 0.262199 -0.201294 0.943786
vn -0.535273 -0.212861 -0.817419
vn 0.884344 0.191464 -0.425767
vn 0.890952 -0.147035 -0.429633
vn -0.131126 0.500831 -0.855555
vn -0.879227 0.233279 0.415381
vn 0.934291 -0.198451 0.296172
vn -0.761431 0.188891 -0.620115
vn 0.632264 -0.229306 0.740041
vn -0.569095 0.495180 -0.656451
vn -0.931277 0.358099 0.067003
vn -0.863487 0.500955 -0.058593
vn -0.722633 0.422728 0.546903
vn -0.791223 0.369812 0.487038
vn -0.718104 0.503199 -0.480748
vn -0.736986 0.553422 -0.388040
vn -0.838683 0.498826 0.218593
vn 0.820759 0.497568 0.280680
vn -0.711885 0.493170 -0.500004
vn -0.107100 0.551588 -0.827212
vn 0.155376 -0.352828 0.922697
vn 0.284566 0.501021 -0.817313
vn 0.976197 0.199829 -0.084305
vn 0.856146 0.511544 -0.073050
vn 0.330229 0.517051 -0.789688
vn 0.711682 0.208558 0.670829
vn 0.888449 0.335681 0.313014
vn 0.056245 0.534828 0.843087
vn 0.503287 0.359295 0.785881
vn -0.857811 0.509201 -0.069825
vn 0.849876 -0.305562 0.429352
vn 0.941736 -0.194413 -0.274474
vn -0.147569 -0.386649 0.910344
vn -0.612042 0.131162 -0.779873
vn 0.230573 -0.338448 0.912299
vn 0.148284 0.975213 -0.164231
vn 0.461051 0.854863 -0.237995
vn -0.396389 0.907738 0.137435
vn 0.023761 0.322586 0.946242
vn 0.125214 -0.908597 -0.398463
vn 0.745340 -0.432620 0.507255
vn 0.724436 0.563911 -0.396481
vn 0.420374 0.509091 -0.751074
vn 0.826677 0.051544 0.560311
vn -0.493162 -0.532140 0.688199
vn -0.948130 -0.291955 -0.125748
vn 0.530018 0.322792 0.784146
vn 0.614497 0.126443 0.778721
vn 0.199166 0.095792 0.975273
vn 0.918965 0.174528 0.353615
vn 0.333729 0.908850 0.250234
vn 0.961999 0.224081 -0.156033
vn 0.598691 0.554413 0.578096
vn 0.832579 0.417647 -0.363845
vn 0.586071 0.196714 -0.786018
vn -0.232955 0.321249 -0.917895
vn 0.082051 0.749865 -0.656483
vn 0.581977 -0.740587 -0.335907
vn 0.917120 0.250697 0.309906
vn -0.508133 0.403608 0.760856
vn 0.670219 0.224247 0.707474
vn 0.384806 0.065629 0.920661
vn 0.333983 0.559354 0.758669
vn -0.682592 0.554679 -0.475814
vn -0.940931 0.238900 0.239951
vn -0.231980 0.296367 -0.926473
vn 0.242001 -0.162448 0.956580
vn 0.100833 0.137751 0.985321
vn -0.141891 -0.342097 0.928890
vn -0.185358 0.827035 -0.530712
vn 0.705289 -0.705716 0.067329
vn 0.714214 0.114451 -0.690506
vn 0.405226 0.907748 -0.108557
vn -0.913601 0.398852 0.079056
vn -0.836097 -0.413844 0.360104
vn 0.967649 0.060532 -0.244932
vn 0.395730 -0.832226 -0.388328
vn -0.661220 0.711049 0.239160
vn 0.038403 0.668780 0.742468
vn 0.463723 0.797367 0.386220
vn 0.894423 0.354477 -0.272679
vn 0.609666 0.582336 0.537765
vn 0.646416 0.317666 -0.693711
vn 0.687834 0.419094 -0.592659
vn 0.677945 0.524897 -0.514659
vn -0.387554 0.528684 -0.755179
vn -0.117154 0.495081 -0.860912
vn -0.395729 0.364332 0.843007
vn -0.291798 0.629654 0.719993
vn -0.545747 0.275553 0.791348
vn -0.425127 0.498641 -0.755397
vn 0.601409 -0.374679 0.705636
vn -0.785496 0.233436 0.573153
vn 0.585084 0.278067 -0.761810
vn -0.408403 0.418075 -0.811431
vn -0.172120 0.052142 -0.983695
vn -0.342498 0.938511 -0.043485
vn 0.014888 0.192238 0.981235
vn -0.529726 0.469355 0.706468
vn -0.437991 0.887965 0.140292
vn 0.497140 -0.394332 -0.772887
vn 0.647965 -0.065241 -0.758871
vn -0.841332 -0.001262 -0.540518
vn -0.034307 0.129901 -0.990933
vn 0.856194 0.493174 -0.153985
vn -0.488959 -0.870962 0.048421
vn -0.688500 -0.552382 -0.469939
vn 0.675465 0.006143 -0.737366
vn -0.684645 -0.404937 0.606042
vn -0.747267 0.408613 -0.524049
vn 0.152954 -0.975605 -0.157478
vn -0.420669 0.864245 0.275893
f 172//172 3//3 5//5
f 172//172 197//197 3//3
f 197//197 2//2 3//3
f 33//33 3//3 2//2
f 33//33 39//39 3//3
f 3//3 39//39 10//10
f 10//10 7//7 3//3
f 3//3 7//7 5//5
f 51//51 197//197 172//172
f 51//51 6//6 197//197
f 34//34 197//197 6//6
f 30//30 197//197 34//34
f 197//197 30//30 2//2
f 30//30 32//32 2//2
f 31//31 2//2 32//32
f 2//2 31//31 33//33
f 6//6 51//51 36//36
f 8//8 6//6 36//36
f 11//11 6//6 8//8
f 39//39 6//6 11//11
f 34//34 6//6 39//39
f 34//34 39//39 33//33
f 33//33 28//28 34//34
f 29//29 34//34 28//28
f 34//34 29//29 30//30
f 32//32 30//30 29//29
f 32//32 29//29 166//166
f 166//166 31//31 32//32
f 36//36 35//35 8//8
f 8//8 35//35 15//15
f 8//8 15//15 13//13
f 11//11 8//8 13//13
f 4//4 35//35 36//36
f 4//4 5//5 35//35
f 35//35 5//5 12//12
f 35//35 12//12 25//25
f 17//17 35//35 25//25
f 17//17 16//16 35//35
f 16//16 14//14 35//35
f 15//15 35//35 14//14
f 12//12 5//5 7//7
f 28//28 33//33 31//31
f 31//31 171//171 28//28
f 28//28 171//171 167//167
f 26//26 28//28 167//167
f 29//29 28//28 26//26
f 166//166 29//29 26//26
f 171//171 31//31 166//166
f 166//166 27//27 171//171
f 171//171 27//27 167//167
f 27//27 26//26 167//167
f 26//26 27//27 166//166
f 14//14 151//151 15//15
f 151//151 14//14 157//157
f 157//157 154//154 151//151
f 152//152 151//151 154//154
f 151//151 152//152 153//153
f 153//153 15//15 151//151
f 15//15 153//153 13//13
f 16//16 157//157 14//14
f 157//157 16//16 156//156
f 156//156 155//155 157//157
f 154//154 157//157 155//155
f 152//152 154//154 155//155
f 103//103 152//152 155//155
f 103//103 159//159 152//152
f 159//159 150//150 152//152
f 150//150 153//153 152//152
f 153//153 150//150 147//147
f 147//147 13//13 153//153
f 17//17 156//156 16//16
f 156//156 17//17 92//92
f 92//92 85//85 156//156
f 155//155 156//156 85//85
f 85//85 56//56 155//155
f 56//56 103//103 155//155
f 56//56 47//47 103//103
f 47//47 107//107 103//103
f 103//103 107//107 159//159
f 25//25 92//92 17//17
f 92//92 25//25 43//43
f 100//100 92//92 43//43
f 196//196 92//92 100//100
f 85//85 92//92 196//196
f 196//196 56//56 85//85
f 102//102 56//56 196//196
f 102//102 47//47 56//56
f 24//24 43//43 25//25
f 42//42 43//43 24//24
f 43//43 42//42 90//90
f 90//90 110//110 43//43
f 43//43 110//110 108//108
f 43//43 108//108 100//100
f 25//25 12//12 24//24
f 22//22 24//24 12//12
f 22//22 42//42 24//24
f 42//42 22//22 41//41
f 42//42 41//41 83//83
f 90//90 42//42 83//83
f 79//79 90//90 83//83
f 89//89 90//90 79//79
f 89//89 88//88 90//90
f 90//90 88//88 110//110
f 12//12 10//10 22//22
f 21//21 22//22 10//10
f 21//21 41//41 22//22
f 41//41 21//21 53//53
f 41//41 53//53 84//84
f 83//83 41//41 84//84
f 80//80 83//83 84//84
f 79//79 83//83 80//80
f 12//12 201//201 10//10
f 10//10 201//201 163//163
f 161//161 163//163 201//201
f 161//161 165//165 163//163
f 163//163 165//165 12//12
f 165//165 201//201 12//12
f 164//164 201//201 165//165
f 158//158 201//201 164//164
f 201//201 158//158 161//161
f 139//139 161//161 158//158
f 161//161 139//139 165//165
f 164//164 165//165 139//139
f 139//139 162//162 164//164
f 96//96 164//164 162//162
f 164//164 96//96 158//158
f 140//140 158//158 96//96
f 162//162 158//158 140//140
f 139//139 158//158 162//162
f 96//96 137//137 140//140
f 162//162 140//140 137//137
f 96//96 162//162 137//137
f 196//196 100//100 102//102
f 100//100 67//67 102//102
f 102//102 67//67 57//57
f 207//207 102//102 57//57
f 46//46 102//102 207//207
f 46//46 47//47 102//102
f 100//100 108//108 67//67
f 62//62 67//67 108//108
f 67//67 62//62 86//86
f 86//86 94//94 67//67
f 67//67 94//94 57//57
f 94//94 203//203 57//57
f 203//203 20//20 57//57
f 58//58 57//57 20//20
f 207//207 57//57 58//58
f 110//110 62//62 108//108
f 64//64 62//62 110//110
f 64//64 54//54 62//62
f 62//62 54//54 52//52
f 62//62 52//52 86//86
f 86//86 52//52 95//95
f 95//95 94//94 86//86
f 87//87 94//94 95//95
f 145//145 94//94 87//87
f 94//94 145//145 203//203
f 110//110 88//88 64//64
f 88//88 73//73 64//64
f 73//73 91//91 64//64
f 64//64 91//91 72//72
f 54//54 64//64 72//72
f 82//82 54//54 72//72
f 82//82 81//81 54//54
f 54//54 81//81 55//55
f 55//55 52//52 54//54
f 88//88 186//186 73//73
f 73//73 186//186 115//115
f 73//73 115//115 77//77
f 72//72 73//73 77//77
f 91//91 73//73 72//72
f 89//89 186//186 88//88
f 187//187 186//186 89//89
f 187//187 120//120 186//186
f 186//186 120//120 191//191
f 191//191 119//119 186//186
f 186//186 119//119 115//115
f 119//119 116//116 115//115
f 115//115 116//116 130//130
f 77//77 115//115 130//130
f 89//89 79//79 187//187
f 187//187 79//79 122//122
f 122//122 120//120 187//187
f 125//125 120//120 122//122
f 125//125 122//122 184//184
f 184//184 122//122 183//183
f 184//184 183//183 185//185
f 185//185 183//183 181//181
f 181//181 124//124 185//185
f 79//79 183//183 122//122
f 80//80 183//183 79//79
f 80//80 181//181 183//183
f 76//76 181//181 80//80
f 181//181 76//76 123//123
f 123//123 124//124 181//181
f 127//127 124//124 123//123
f 118//118 124//124 127//127
f 118//118 127//127 182//182
f 76//76 80//80 65//65
f 76//76 65//65 78//78
f 78//78 123//123 76//76
f 127//127 123//123 78//78
f 78//78 74//74 127//127
f 74//74 126//126 127//127
f 182//182 127//127 126//126
f 129//129 182//182 126//126
f 180//180 182//182 129//129
f 179//179 180//180 129//129
f 65//65 80//80 84//84
f 84//84 53//53 65//65
f 53//53 141//141 65//65
f 65//65 141//141 78//78
f 74//74 78//78 141//141
f 141//141 75//75 74//74
f 75//75 129//129 74//74
f 129//129 126//126 74//74
f 66//66 141//141 53//53
f 66//66 109//109 141//141
f 141//141 109//109 101//101
f 101//101 75//75 141//141
f 55//55 75//75 101//101
f 81//81 75//75 55//55
f 75//75 81//81 198//198
f 198//198 129//129 75//75
f 53//53 19//19 66//66
f 19//19 37//37 66//66
f 66//66 37//37 109//109
f 109//109 37//37 63//63
f 109//109 63//63 101//101
f 63//63 40//40 101//101
f 101//101 40//40 55//55
f 40//40 52//52 55//55
f 40//40 95//95 52//52
f 18//18 19//19 53//53
f 11//11 19//19 18//18
f 37//37 19//19 11//11
f 37//37 11//11 23//23
f 23//23 63//63 37//37
f 63//63 23//23 147//147
f 147//147 148//148 63//63
f 149//149 63//63 148//148
f 63//63 149//149 40//40
f 95//95 40//40 149//149
f 149//149 87//87 95//95
f 18//18 53//53 21//21
f 18//18 21//21 10//10
f 10//10 9//9 18//18
f 9//9 11//11 18//18
f 9//9 39//39 11//11
f 10//10 39//39 9//9
f 148//148 147//147 150//150
f 148//148 150//150 159//159
f 159//159 68//68 148//148
f 148//148 68//68 149//149
f 68//68 87//87 149//149
f 144//144 87//87 68//68
f 87//87 144//144 145//145
f 144//144 97//97 145//145
f 145//145 97//97 169//169
f 146//146 145//145 169//169
f 203//203 145//145 146//146
f 107//107 68//68 159//159
f 61//61 68//68 107//107
f 61//61 20//20 68//68
f 142//142 68//68 20//20
f 68//68 142//142 144//144
f 143//143 144//144 142//142
f 97//97 144//144 143//143
f 138//138 97//97 143//143
f 169//169 97//97 138//138
f 146//146 169//169 138//138
f 146//146 138//138 143//143
f 143//143 203//203 146//146
f 142//142 203//203 143//143
f 20//20 203//203 142//142
f 107//107 69//69 61//61
f 106//106 61//61 69//69
f 61//61 106//106 160//160
f 160//160 20//20 61//61
f 58//58 20//20 160//160
f 69//69 107//107 104//104
f 104//104 176//176 69//69
f 69//69 176//176 121//121
f 70//70 69//69 121//121
f 106//106 69//69 70//70
f 70//70 105//105 106//106
f 44//44 106//106 105//105
f 160//160 106//106 44//44
f 104//104 107//107 47//47
f 104//104 47//47 105//105
f 105//105 176//176 104//104
f 71//71 176//176 105//105
f 71//71 93//93 176//176
f 176//176 93//93 121//121
f 93//93 70//70 121//121
f 70//70 93//93 71//71
f 71//71 105//105 70//70
f 44//44 105//105 47//47
f 60//60 44//44 47//47
f 45//45 44//44 60//60
f 48//48 44//44 45//45
f 160//160 44//44 48//48
f 48//48 58//58 160//160
f 60//60 47//47 46//46
f 49//49 60//60 46//46
f 59//59 60//60 49//49
f 59//59 45//45 60//60
f 50//50 45//45 59//59
f 45//45 50//50 48//48
f 48//48 50//50 38//38
f 38//38 200//200 48//48
f 200//200 168//168 48//48
f 168//168 58//58 48//48
f 200//200 49//49 46//46
f 38//38 49//49 200//200
f 38//38 1//1 49//49
f 49//49 1//1 59//59
f 1//1 50//50 59//59
f 38//38 50//50 1//1
f 204//204 200//200 46//46
f 173//173 200//200 204//204
f 173//173 168//168 200//200
f 168//168 173//173 174//174
f 206//206 168//168 174//174
f 206//206 58//58 168//168
f 206//206 207//207 58//58
f 204//204 46//46 207//207
f 204//204 207//207 206//206
f 206//206 174//174 204//204
f 174//174 173//173 204//204
f 13//13 147//147 23//23
f 23//23 11//11 13//13
f 128//128 179//179 129//129
f 198//198 128//128 129//129
f 188//188 128//128 198//198
f 189//189 128//128 188//188
f 189//189 188//188 199//199
f 199//199 188//188 190//190
f 114//114 199//199 190//190
f 113//113 199//199 114//114
f 113//113 114//114 112//112
f 198//198 81//81 188//188
f 81//81 82//82 188//188
f 188//188 82//82 190//190
f 82//82 114//114 190//190
f 72//72 114//114 82//82
f 77//77 114//114 72//72
f 111//111 114//114 77//77
f 112//112 114//114 111//111
f 117//117 112//112 111//111
f 130//130 117//117 111//111
f 116//116 117//117 130//130
f 77//77 130//130 111//111
f 99//99 134//134 194//194
f 134//134 99//99 98//98
f 98//98 170//170 134//134
f 170//170 178//178 134//134
f 175//175 134//134 178//178
f 175//175 177//177 134//134
f 134//134 177//177 132//132
f 132//132 194//194 134//134
f 194//194 132//132 131//131
f 4//4 98//98 99//99
f 4//4 133//133 98//98
f 135//135 98//98 133//133
f 135//135 193//193 98//98
f 98//98 193//193 170//170
f 170//170 193//193 195//195
f 202//202 170//170 195//195
f 132//132 170//170 202//202
f 132//132 205//205 170//170
f 178//178 170//170 205//205
f 131//131 135//135 133//133
f 135//135 131//131 132//132
f 132//132 192//192 135//135
f 192//192 193//193 135//135
f 192//192 136//136 193//193
f 193//193 136//136 195//195
f 202//202 195//195 136//136
f 202//202 136//136 192//192
f 202//202 192//192 132//132
f 177//177 205//205 132//132
f 177//177 208//208 205//205
f 208//208 212//212 205//205
f 205//205 212//212 178//178
f 178//178 212//212 175//175
f 175//175 212//212 209//209
f 209//209 211//211 175//175
f 175//175 211//211 177//177
f 211//211 208//208 177//177
f 211//211 210//210 208//208
f 208//208 210//210 212//212
f 209//209 212//212 210//210
f 209//209 210//210 211//211
