# Exported by s4extract — object_Food_PolloALaBrasa_lod00_g02
o object_Food_PolloALaBrasa_lod00_g02
v -0.082186 0.014985 0.035981
v 0.060640 0.017701 -0.050203
v 0.048891 0.020325 -0.024354
v 0.005829 0.015137 0.070650
v 0.012970 0.025941 0.055727
v 0.044069 0.015595 0.045961
v 0.005829 0.015137 0.070650
v 0.018372 0.018189 0.058504
v -0.002167 0.018830 -0.021424
v 0.028443 0.027985 0.080325
v -0.015992 0.019959 -0.038270
v 0.048891 0.020325 -0.024354
v 0.058809 0.012696 0.001801
v -0.090609 0.016724 -0.048677
v 0.019807 0.029817 0.062105
v 0.048036 0.033052 0.029633
v 0.075137 0.015717 0.010712
v -0.016297 0.064821 0.027650
v 0.000580 0.016907 -0.005310
v 0.020569 0.019257 0.045961
v 0.006653 0.049501 0.023164
v 0.063753 0.023835 0.009125
v -0.033631 0.011841 0.042726
v -0.077670 0.011872 0.014069
v -0.035127 0.041902 0.037111
v -0.029145 0.039979 0.015381
v -0.026795 0.020234 0.034852
v 0.050600 0.017823 0.093753
v 0.044069 0.015595 0.045961
v 0.050600 0.017823 0.093753
v -0.016297 0.064821 0.027650
v -0.035127 0.041902 0.037111
v -0.016144 0.041505 0.048708
v 0.052156 0.039766 0.104465
v 0.059023 0.041688 0.088595
v 0.064180 0.043611 0.063814
v 0.059023 0.041688 0.088595
v 0.034608 0.037507 0.107456
v -0.077670 0.012909 0.037599
v -0.032136 0.013855 0.019135
v -0.063845 0.023194 -0.075777
v -0.032167 0.021241 -0.042421
v 0.000244 0.016907 -0.012146
v 0.090732 0.020264 0.018738
v 0.028443 0.027985 0.080325
v 0.041444 0.036348 0.051668
v 0.028443 0.027985 0.080325
v 0.044069 0.015595 0.045961
v 0.099063 0.015442 -0.015595
v -0.029725 0.013642 -0.074099
v 0.052156 0.039766 0.104465
v 0.027467 0.012055 -0.056276
v -0.032899 0.016541 -0.054994
v 0.020203 0.023713 -0.061922
v 0.009278 0.018494 -0.020234
v 0.058168 0.019013 -0.006897
v 0.092166 0.015564 -0.038453
v -0.020905 0.018281 -0.040803
v -0.097934 0.017090 -0.028443
v 0.039369 0.022309 -0.045564
v 0.060640 0.017701 -0.050203
v -0.006714 0.011658 0.008209
v 0.096042 0.017853 0.000336
v 0.099063 0.015442 -0.015595
v 0.099063 0.015442 -0.015595
v 0.089480 0.003388 -0.009644
v -0.047853 0.012879 -0.026734
v -0.078646 0.017609 -0.058321
v 0.075137 0.015717 0.010712
v 0.008179 0.002441 0.021973
v 0.020875 0.041963 0.045930
v 0.075137 0.015717 0.010712
v 0.090732 0.020264 0.018738
v 0.058992 0.043580 0.057070
v 0.034608 0.037507 0.107456
v 0.059023 0.041688 0.088595
v 0.048769 0.019105 -0.065767
v 0.099063 0.015442 -0.015595
v 0.057161 0.023072 -0.007782
v 0.000885 0.039583 -0.005341
v 0.008179 0.002441 0.021973
v 0.087130 0.016816 -0.022523
v 0.058809 0.012696 0.001801
v 0.089480 0.003388 -0.009644
v 0.057161 0.023072 -0.007782
v 0.096042 0.017853 0.000336
v 0.033296 0.048860 0.011475
v 0.020875 0.041963 0.045930
v 0.093722 0.031281 -0.012574
v 0.062105 0.034181 -0.000458
v 0.063753 0.023835 0.009125
v 0.093722 0.031281 -0.012574
v -0.095279 0.013276 0.018952
v 0.047670 0.014649 -0.024323
v 0.039369 0.022309 -0.045564
v 0.038270 0.013337 -0.044435
v 0.019349 0.018006 -0.061434
v 0.048769 0.019105 -0.065767
v 0.020203 0.023713 -0.061922
v 0.020569 0.019257 0.045961
v 0.067171 0.019044 0.056246
v 0.087130 0.016816 -0.022523
v -0.035127 0.041902 0.037111
v 0.062105 0.034181 -0.000458
v 0.034608 0.037507 0.107456
v 0.048036 0.033052 0.029633
v 0.012970 0.025941 0.055727
v 0.041444 0.036348 0.051668
v -0.026795 0.020234 0.034852
v -0.016144 0.041505 0.048708
v -0.035127 0.041902 0.037111
v 0.000885 0.039583 -0.005341
v 0.028443 0.027985 0.080325
v 0.084902 0.022492 -0.085971
v 0.049471 0.026551 -0.096683
v 0.093966 0.017090 -0.065493
v 0.075137 0.015717 0.010712
v 0.044069 0.015595 0.045961
v 0.090732 0.020264 0.018738
v 0.050600 0.017823 0.093753
v 0.039644 0.019410 0.021760
v 0.067171 0.019044 0.056246
v 0.064180 0.043611 0.063814
v 0.064516 0.030702 0.079287
v 0.018372 0.018189 0.058504
v 0.012970 0.025941 0.055727
v 0.039644 0.019410 0.021760
v 0.082827 0.031953 0.044221
v 0.050600 0.017823 0.093753
v 0.082827 0.031953 0.044221
v 0.041444 0.036348 0.051668
v 0.048036 0.033052 0.029633
v 0.064180 0.043611 0.063814
v 0.051485 0.017823 0.093753
v 0.059877 0.043580 0.057070
v 0.076022 0.015717 0.010712
v -0.004089 0.010529 -0.089633
v 0.020997 0.033753 0.042604
v 0.011841 0.058931 0.003174
v 0.006745 0.015137 0.070650
v 0.015168 0.018281 0.055940
v 0.013886 0.025941 0.055727
v 0.028932 0.011811 -0.057375
v -0.034486 0.018342 -0.076266
v -0.025880 0.016968 -0.058596
v 0.091647 0.020264 0.018738
v 0.040895 0.030885 -0.049226
v 0.061647 0.021180 -0.053896
v 0.028230 0.022919 -0.029389
v 0.101138 0.018403 -0.044008
v 0.020783 0.057772 0.029176
v 0.039857 0.019318 -0.074618
v -0.000122 0.017975 -0.028748
v 0.047243 0.019715 0.000397
v 0.063997 0.018342 -0.011811
v -0.005432 0.025697 -0.073061
v -0.008698 0.023835 -0.051485
v 0.055879 0.019776 -0.035188
v 0.053041 0.039766 0.104465
v 0.075808 0.043611 0.069674
v 0.012207 0.010895 0.030030
v 0.028687 0.026093 -0.061068
v 0.012024 0.024598 -0.086215
v 0.034303 0.016114 -0.037812
v 0.063601 0.026795 -0.088748
v 0.010987 0.027192 -0.048463
v 0.042177 0.026307 -0.074557
v -0.111728 0.016877 -0.043489
v -0.036225 0.044069 0.033662
v 0.087497 0.020203 -0.023896
v 0.091647 0.030946 -0.017975
v 0.091617 0.016938 -0.018616
v -0.063631 0.022919 0.088870
v 0.059877 0.043580 0.057070
v 0.042360 0.036348 0.051668
v 0.016755 0.028596 -0.067171
v -0.025819 0.015442 -0.093600
v 0.029359 0.027985 0.080325
v 0.042360 0.036348 0.051668
v 0.044984 0.015595 0.045961
v 0.029359 0.027985 0.080325
v 0.035493 0.037507 0.107456
v 0.013886 0.025941 0.055727
v 0.042360 0.036348 0.051668
v 0.044984 0.015595 0.045961
v 0.048952 0.033052 0.029633
v 0.076022 0.015717 0.010712
v 0.091647 0.020264 0.018738
v -0.017914 0.059053 0.039888
v 0.013886 0.025941 0.055727
v 0.048952 0.033052 0.029633
v 0.040529 0.019410 0.021760
v 0.029359 0.027985 0.080325
v 0.020722 0.029817 0.062105
v 0.006745 0.015137 0.070650
v 0.076022 0.015717 0.010712
v 0.076022 0.015717 0.010712
v 0.015168 0.018281 0.055940
v 0.040529 0.019410 0.021760
v 0.023347 0.018067 0.061037
v 0.091800 0.008362 -0.005341
v 0.087588 0.008881 -0.017579
v 0.099338 0.019654 -0.014557
v 0.058626 0.016816 -0.000275
v 0.051485 0.017823 0.093753
v -0.024659 0.059908 0.020356
v -0.024384 0.023835 0.040559
v -0.017762 0.041017 0.049989
v -0.036225 0.044069 0.033662
v 0.053041 0.039766 0.104465
v 0.051485 0.017823 0.093753
v 0.075808 0.043611 0.069674
v 0.091647 0.020264 0.018738
v -0.031251 0.042756 0.010926
v 0.099338 0.019654 -0.014557
v 0.087588 0.008881 -0.017579
v 0.044984 0.015595 0.045961
v -0.036225 0.044069 0.033662
v 0.099338 0.019654 -0.014557
v -0.031098 0.024689 0.021027
v -0.036225 0.044069 0.033662
v -0.031098 0.024689 0.021027
v 0.097537 0.023560 -0.066652
v 0.031861 0.013215 0.025880
v 0.048952 0.033052 0.029633
v -0.005829 0.019105 0.008454
v -0.036561 0.021058 -0.051454
v 0.044008 0.014161 0.008393
v -0.005829 0.023927 -0.040223
v -0.048311 0.021516 -0.033540
v 0.020997 0.033753 0.042604
v -0.025544 0.023652 -0.030000
v 0.003235 0.012055 0.004059
v 0.003235 0.012055 0.004059
v 0.003052 0.036073 -0.009369
v 0.012635 0.021943 -0.002167
v -0.031251 0.042756 0.010926
v 0.063814 0.025300 0.009888
v 0.099338 0.019654 -0.014557
v 0.003052 0.036073 -0.009369
v 0.058626 0.016816 -0.000275
v -0.024384 0.023835 0.040559
v 0.056703 0.026215 -0.010743
v 0.056703 0.026215 -0.010743
v 0.061892 0.034700 -0.000610
v 0.058626 0.016816 -0.000275
v 0.063814 0.025300 0.009888
v -0.036225 0.044069 0.033662
v -0.036225 0.044069 0.033662
v -0.017914 0.059053 0.039888
v -0.024659 0.059908 0.020356
v 0.004151 0.020081 -0.034181
v 0.029359 0.027985 0.080325
v 0.035493 0.037507 0.107456
v -0.108737 0.019044 0.050386
v -0.063173 0.019654 -0.081301
v -0.017762 0.041017 0.049989
v -0.005097 0.019410 0.097690
v 0.095950 0.019105 0.000549
v 0.099338 0.019654 -0.014557
v 0.091800 0.008362 -0.005341
v 0.095950 0.019105 0.000549
v 0.099338 0.019654 -0.014557
v 0.095859 0.030396 -0.005768
v 0.095859 0.030396 -0.005768
v 0.091647 0.030946 -0.017975
v 0.087497 0.020203 -0.023896
vt 0.383129 0.015337
vt 0.271452 0.729694
vt 0.291971 0.770943
vt 0.342091 0.242100
vt 0.336177 0.250941
vt 0.348006 0.233229
vt 0.342091 0.242100
vt 0.348006 0.233229
vt 0.688649 0.015337
vt 0.320879 0.376438
vt 0.688649 0.160809
vt 0.320335 0.968045
vt 0.345562 0.162499
vt 0.383129 0.160809
vt 0.336177 0.250941
vt 0.338259 0.232354
vt 0.343359 0.186669
vt 0.313999 0.336185
vt 0.342061 0.263041
vt 0.290794 0.263041
vt 0.314029 0.263041
vt 0.355067 0.162499
vt 0.986685 0.011263
vt 0.681135 0.156736
vt 0.351597 0.386185
vt 0.331168 0.336185
vt 0.348639 0.336185
vt 0.284940 0.328430
vt 0.348006 0.233229
vt 0.371904 0.322124
vt 0.313999 0.336185
vt 0.326099 0.386185
vt 0.296890 0.336185
vt 0.309955 0.313403
vt 0.310951 0.299553
vt 0.311977 0.269106
vt 0.310951 0.299553
vt 0.320879 0.357700
vt 0.681135 0.011263
vt 0.986685 0.156736
vt 0.681135 0.156736
vt 0.986685 0.156736
vt 0.688649 0.160809
vt 0.315387 0.180031
vt 0.346950 0.313644
vt 0.336177 0.250941
vt 0.346950 0.313644
vt 0.348006 0.233229
vt 0.342061 0.036187
vt 0.120247 0.448646
vt 0.309955 0.313403
vt 0.098672 0.707727
vt 0.074833 0.452599
vt 0.320335 0.780358
vt 0.016596 0.666508
vt 0.010229 0.883314
vt 0.098249 0.997254
vt 0.048249 0.521579
vt 0.383129 0.015337
vt 0.320335 0.861347
vt 0.363244 0.913097
vt 0.688649 0.015337
vt 0.353950 0.078643
vt 0.325043 0.036187
vt 0.306365 0.036187
vt 0.344113 0.078643
vt 0.986685 0.011263
vt 0.681135 0.011263
vt 0.343359 0.186669
vt 0.348157 0.263041
vt 0.302231 0.263041
vt 0.287113 0.178673
vt 0.308175 0.183229
vt 0.326582 0.263102
vt 0.320879 0.357700
vt 0.310951 0.299553
vt 0.363244 0.835336
vt 0.342061 0.036187
vt 0.330203 0.162499
vt 0.328754 0.263041
vt 0.348157 0.263041
vt 0.329418 0.078643
vt 0.345562 0.162499
vt 0.344113 0.078643
vt 0.330203 0.162499
vt 0.300692 0.078643
vt 0.313516 0.212770
vt 0.302231 0.263041
vt 0.314904 0.078643
vt 0.314693 0.162499
vt 0.299937 0.162499
vt 0.314904 0.078643
vt 0.383129 0.160809
vt 0.251175 0.770943
vt 0.291971 0.853773
vt 0.251175 0.853773
vt 0.251175 0.931262
vt 0.271301 0.972179
vt 0.291971 0.931262
vt 0.360890 0.263041
vt 0.296558 0.255830
vt 0.329418 0.078643
vt 0.298791 0.386185
vt 0.314693 0.162499
vt 0.320879 0.357700
vt 0.338259 0.232354
vt 0.336177 0.250941
vt 0.336177 0.250941
vt 0.348639 0.336185
vt 0.360166 0.336185
vt 0.351597 0.386185
vt 0.328754 0.263041
vt 0.346950 0.313644
vt 0.199998 0.925348
vt 0.222841 0.807968
vt 0.157422 0.983977
vt 0.343359 0.186669
vt 0.348006 0.233229
vt 0.315387 0.180031
vt 0.371904 0.322124
vt 0.348006 0.233229
vt 0.300179 0.254230
vt 0.311977 0.269106
vt 0.304011 0.300549
vt 0.348006 0.233229
vt 0.336177 0.250941
vt 0.348006 0.233229
vt 0.313667 0.224568
vt 0.284940 0.328430
vt 0.313667 0.224568
vt 0.336177 0.250941
vt 0.338259 0.232354
vt 0.311977 0.269106
vt 0.113880 0.223150
vt 0.072238 0.149403
vt 0.111707 0.054111
vt 0.936203 0.296445
vt 0.190161 0.263041
vt 0.224380 0.263041
vt 0.056729 0.125686
vt 0.050814 0.115668
vt 0.062643 0.135704
vt 0.098672 0.707727
vt 0.074833 0.452599
vt 0.048249 0.521579
vt 0.090645 0.059241
vt 0.308658 0.679755
vt 0.274591 0.705736
vt 0.321512 0.573027
vt 0.157422 0.983977
vt 0.207361 0.263041
vt 0.288350 0.733225
vt 0.016596 0.666508
vt 0.010229 0.883314
vt 0.053440 0.916174
vt 0.368434 0.705736
vt 0.368434 0.628005
vt 0.274591 0.628005
vt 0.088865 0.206192
vt 0.086843 0.156192
vt 0.172268 0.263041
vt 0.298036 0.666901
vt 0.340945 0.760714
vt 0.288350 0.600516
vt 0.222841 0.807968
vt 0.368434 0.628005
vt 0.321512 0.760714
vt 0.816680 0.964997
vt 0.208417 0.386185
vt 0.232285 0.078643
vt 0.219220 0.078643
vt 0.098249 0.997254
vt 0.435301 0.654318
vt 0.072238 0.149403
vt 0.062643 0.135704
vt 0.368434 0.705736
vt 0.120247 0.448646
vt 0.051870 0.197170
vt 0.062643 0.135704
vt 0.050814 0.115668
vt 0.077941 0.248950
vt 0.077941 0.227797
vt 0.062643 0.135704
vt 0.062643 0.135704
vt 0.050814 0.115668
vt 0.060561 0.114672
vt 0.055461 0.063133
vt 0.083433 0.055650
vt 0.207421 0.336185
vt 0.062643 0.135704
vt 0.060561 0.114672
vt 0.050814 0.115668
vt 0.051870 0.197170
vt 0.062643 0.135704
vt 0.056729 0.125686
vt 0.055461 0.063133
vt 0.055461 0.063133
vt 0.050814 0.115668
vt 0.050814 0.115668
vt 0.050814 0.115668
vt 0.180988 0.078643
vt 0.168466 0.078643
vt 0.182256 0.036187
vt 0.173746 0.162499
vt 0.026916 0.206735
vt 0.224862 0.336185
vt 0.172751 0.336185
vt 0.190131 0.336185
vt 0.172238 0.386185
vt 0.088865 0.206192
vt 0.113880 0.223150
vt 0.086843 0.156192
vt 0.083433 0.055650
vt 0.242605 0.336185
vt 0.229540 0.036187
vt 0.245321 0.078643
vt 0.050814 0.115668
vt 0.242183 0.386185
vt 0.182256 0.036187
vt 0.260107 0.336185
vt 0.242183 0.386185
vt 0.155611 0.336185
vt 0.199998 0.925348
vt 0.688649 0.015337
vt 0.060561 0.114672
vt 0.986685 0.011263
vt 0.383129 0.160809
vt 0.688649 0.160809
vt 0.681135 0.156736
vt 0.383129 0.015337
vt 0.190161 0.263041
vt 0.681135 0.011263
vt 0.261163 0.263041
vt 0.154947 0.263041
vt 0.241881 0.263041
vt 0.986685 0.156736
vt 0.242605 0.336185
vt 0.193269 0.162499
vt 0.229540 0.036187
vt 0.241881 0.263041
vt 0.246769 0.162499
vt 0.172751 0.336185
vt 0.234186 0.162499
vt 0.234186 0.162499
vt 0.213849 0.162499
vt 0.173746 0.162499
vt 0.193269 0.162499
vt 0.172238 0.386185
vt 0.208417 0.386185
vt 0.207421 0.336185
vt 0.224862 0.336185
vt 0.340945 0.573027
vt 0.051870 0.197170
vt 0.077941 0.227797
vt 0.546405 0.964997
vt 0.930892 0.654318
vt 0.190131 0.336185
vt 0.429478 0.298678
vt 0.193571 0.078643
vt 0.207029 0.036187
vt 0.180988 0.078643
vt 0.193571 0.078643
vt 0.207029 0.036187
vt 0.206395 0.078643
vt 0.206395 0.078643
vt 0.219220 0.078643
vt 0.232285 0.078643
vn -0.049812 0.998505 0.022489
vn 0.886713 -0.188421 0.422183
vn -0.592997 0.105647 0.798244
vn -0.491715 -0.576463 -0.652616
vn -0.491715 -0.576463 -0.652616
vn 0.001940 -0.982629 0.185571
vn 0.122724 0.409415 0.904057
vn -0.491715 -0.576463 -0.652616
vn 0.000020 0.997762 0.066863
vn -0.567119 -0.728383 0.384492
vn -0.049812 0.998505 0.022489
vn 0.211038 0.977472 -0.003321
vn 0.326467 -0.741168 0.586591
vn 0.004593 0.999854 -0.016434
vn 0.196834 0.449358 0.871398
vn -0.363369 0.899333 -0.243235
vn -0.053963 0.696581 -0.715446
vn 0.507138 0.828865 -0.236207
vn -0.336633 -0.621658 -0.707262
vn 0.443076 -0.004750 0.896471
vn 0.259758 0.954635 -0.145597
vn 0.397114 -0.620746 0.675999
vn 0.014156 0.996199 0.085954
vn -0.038593 0.998285 -0.044023
vn -0.917367 -0.329452 -0.223383
vn -0.780300 0.054704 -0.623008
vn -0.687470 -0.636148 -0.350287
vn 0.241986 -0.622824 0.743998
vn -0.466337 -0.878392 0.104674
vn -0.466337 -0.878392 0.104674
vn -0.489178 0.858963 0.151285
vn -0.795763 0.543501 -0.267149
vn -0.058669 0.480406 0.875082
vn 0.604813 -0.383597 0.697893
vn -0.116643 0.991383 0.059615
vn 0.161039 0.978573 -0.128304
vn 0.904315 -0.058056 0.422899
vn -0.308687 -0.699470 0.644557
vn -0.012531 0.999715 0.020322
vn -0.012531 0.999715 0.020322
vn -0.141242 0.971373 0.191012
vn -0.161143 0.953904 0.253179
vn -0.016992 0.993390 0.113526
vn 0.747947 -0.484147 0.454068
vn -0.910506 -0.001441 -0.413494
vn -0.910506 -0.001441 -0.413494
vn -0.466337 -0.878392 0.104674
vn -0.910506 -0.001441 -0.413494
vn 0.814055 -0.531216 0.234785
vn -0.028653 0.983340 0.179503
vn -0.115579 0.990826 0.070032
vn -0.006623 0.999123 0.041346
vn 0.069918 0.985312 -0.155796
vn 0.147118 0.985213 -0.087817
vn 0.054665 0.987353 -0.148815
vn 0.003807 0.989880 -0.141856
vn -0.038604 0.997666 -0.056321
vn 0.078611 0.985441 -0.150753
vn -0.016992 0.993390 0.113526
vn 0.183545 0.981657 -0.051585
vn 0.205503 0.978214 -0.029440
vn -0.037605 0.970671 0.237453
vn 0.259078 -0.618878 0.741531
vn 0.502742 0.322505 -0.802023
vn 0.946412 0.293348 0.135096
vn 0.342867 -0.633828 0.693328
vn -0.180792 0.931461 0.315745
vn -0.161143 0.953904 0.253179
vn -0.142172 -0.981439 -0.128707
vn 0.128186 -0.841993 0.524039
vn 0.443076 -0.004750 0.896471
vn 0.279459 -0.952818 0.118496
vn 0.225546 -0.967983 0.110173
vn -0.135501 0.969845 -0.202584
vn -0.545025 0.822089 -0.164676
vn -0.115579 0.990826 0.070032
vn 0.168543 0.982647 -0.077442
vn 0.339635 -0.619409 -0.707800
vn -0.143047 -0.683648 -0.715656
vn -0.258814 0.002183 -0.965925
vn -0.233797 -0.884458 -0.403823
vn -0.320466 -0.678770 -0.660737
vn -0.131337 -0.794763 -0.592538
vn -0.245610 -0.693032 -0.677777
vn 0.016144 0.456210 -0.889725
vn 0.461281 0.649934 0.603991
vn 0.306764 0.937750 -0.162849
vn 0.374714 0.834339 0.404311
vn 0.545660 0.627844 0.555038
vn -0.182316 0.602813 -0.776774
vn 0.624986 0.478917 0.616466
vn -0.040279 0.578612 -0.814608
vn -0.100263 0.994701 -0.022743
vn 0.258573 -0.050421 0.964675
vn -0.742934 0.169133 0.647645
vn -0.806553 0.177514 0.563880
vn -0.897587 0.179156 0.402791
vn -0.143134 -0.063076 -0.987691
vn -0.896391 0.097216 -0.432472
vn 0.122358 -0.752509 0.647116
vn 0.279459 -0.952818 0.118496
vn -0.117333 0.592539 -0.796951
vn -0.402963 0.611971 0.680523
vn 0.385675 0.664875 0.639684
vn -0.121599 0.990629 0.062196
vn -0.074130 0.810135 -0.581538
vn -0.536261 0.644493 -0.545026
vn 0.078957 0.726453 0.682666
vn -0.247087 -0.581413 0.775182
vn -0.303045 -0.408937 0.860775
vn -0.504843 -0.279247 0.816795
vn 0.009978 0.797897 -0.602711
vn -0.500437 0.862139 -0.079245
vn 0.038992 0.970311 0.238695
vn -0.039064 0.951186 0.306136
vn -0.033213 0.975114 0.219203
vn 0.049093 -0.998000 0.039814
vn 0.049093 -0.998000 0.039814
vn 0.165844 0.879699 -0.445675
vn 0.049093 -0.998000 0.039814
vn -0.386191 0.627706 -0.675900
vn 0.849429 -0.291576 0.439834
vn 0.934164 0.283711 0.216438
vn 0.939109 -0.121335 0.321484
vn 0.109266 -0.874068 0.473357
vn -0.688255 0.657299 -0.307022
vn -0.268159 -0.943817 -0.193131
vn 0.730327 -0.327180 0.599646
vn 0.636278 -0.727234 0.257453
vn 0.278189 0.909989 -0.307459
vn -0.367608 0.928675 -0.049274
vn -0.309304 0.922596 -0.230540
vn 0.886400 -0.034312 0.461647
vn 0.233591 -0.967823 0.093564
vn -0.051749 0.976927 -0.207207
vn 0.233591 -0.967823 0.093564
vn 0.146123 0.988193 -0.046064
vn 0.412699 0.447429 0.793403
vn 0.054588 0.804758 -0.591087
vn -0.842579 -0.155371 -0.515674
vn -0.842579 -0.155371 -0.515674
vn -0.842579 -0.155371 -0.515674
vn -0.029139 0.998299 0.050503
vn 0.115031 0.992428 -0.043061
vn 0.094855 0.993624 -0.060940
vn 0.233591 -0.967823 0.093564
vn 0.129096 0.985088 0.113739
vn 0.424097 0.905613 0.002621
vn 0.035919 0.919245 0.392045
vn -0.115028 0.974620 0.192054
vn 0.411834 0.830308 0.375476
vn 0.464494 0.883614 -0.058913
vn 0.073951 0.987716 -0.137652
vn 0.032839 0.988785 -0.145694
vn 0.000871 0.989788 -0.142542
vn -0.015992 0.999795 0.012422
vn -0.021750 0.988724 0.148159
vn 0.311557 0.878365 0.362501
vn -0.087306 0.993898 0.067405
vn 0.128394 0.977960 -0.164648
vn 0.093279 -0.908133 0.408160
vn 0.142433 0.984006 0.106980
vn 0.133020 0.980236 -0.146432
vn 0.353587 0.887507 0.295479
vn -0.130013 0.947808 0.291130
vn -0.115922 0.976458 0.181913
vn 0.207739 0.964377 -0.163773
vn -0.073140 0.997107 -0.020685
vn -0.569987 0.397824 0.718924
vn -0.003847 0.483819 -0.875160
vn -0.110270 0.652985 -0.749300
vn -0.048298 0.997382 -0.053824
vn 0.005217 0.999803 -0.019172
vn -0.368098 0.928469 -0.049484
vn -0.368098 0.928469 -0.049484
vn -0.036719 0.996302 -0.077684
vn -0.060354 0.980030 0.189467
vn -0.910506 -0.001441 -0.413494
vn -0.910506 -0.001441 -0.413494
vn -0.910506 -0.001441 -0.413494
vn -0.567546 -0.728344 0.383937
vn -0.308893 -0.699526 0.644397
vn -0.590801 0.752527 -0.290961
vn 0.115328 0.813246 0.570378
vn 0.024104 -0.992682 0.118329
vn -0.363369 0.899333 -0.243235
vn 0.049165 -0.997996 0.039835
vn 0.183131 0.885702 -0.426609
vn 0.096324 0.486729 0.868226
vn -0.535985 0.645198 -0.544463
vn -0.074110 0.810268 -0.581355
vn -0.386012 0.628235 -0.675511
vn -0.466743 -0.878207 0.104422
vn 0.060654 0.607183 0.792244
vn 0.009974 -0.036888 0.999270
vn -0.142123 -0.981467 -0.128541
vn -0.053928 0.696655 -0.715377
vn -0.281925 -0.929628 -0.237298
vn -0.269480 -0.936068 -0.226178
vn 0.469240 -0.406373 0.784012
vn 0.048791 -0.997061 -0.059060
vn 0.048791 -0.997061 -0.059060
vn 0.687768 -0.675702 -0.265334
vn 0.006575 -0.998899 -0.046444
vn -0.158356 -0.985075 0.067459
vn -0.561314 0.553854 -0.614958
vn -0.076552 -0.457268 0.886028
vn -0.212107 -0.406100 0.888872
vn -0.668793 -0.142678 0.729630
vn 0.665449 -0.365049 0.651089
vn 0.641807 -0.506090 0.576157
vn 0.820161 -0.353594 0.449786
vn 0.822010 -0.375803 0.427869
vn -0.459855 0.556731 -0.691798
vn 0.555527 -0.401710 -0.728024
vn -0.326655 -0.599334 -0.730819
vn -0.158356 -0.985075 0.067459
vn -0.865950 0.451314 -0.215512
vn 0.879827 -0.439349 0.181318
vn -0.725232 -0.340660 -0.598322
vn -0.970932 -0.123006 -0.205332
vn -0.441436 -0.890194 0.112646
vn -0.057396 0.971407 0.230378
vn 0.041702 0.995690 0.082834
vn -0.309739 0.922423 -0.230645
vn -0.065288 0.986508 0.150132
vn 0.070138 0.997326 0.020516
vn 0.056017 0.997097 0.051564
vn 0.010454 0.998841 0.046993
vn 0.056017 0.997097 0.051564
vn 0.232411 -0.535672 0.811813
vn -0.027308 0.994758 0.098540
vn -0.287617 -0.522848 -0.802438
vn -0.090520 -0.995807 -0.013194
vn -0.113734 0.511199 -0.851904
vn -0.027308 0.994758 0.098540
vn -0.632153 -0.382031 -0.674118
vn 0.535182 0.529198 0.658429
vn 0.613771 0.185759 -0.767319
vn -0.293389 -0.468223 -0.833480
vn -0.191295 -0.747516 -0.636103
vn -0.550557 -0.820591 0.153353
vn -0.190051 -0.594165 -0.781568
vn 0.029262 0.593939 -0.803978
vn 0.368156 0.925826 -0.085477
vn 0.221510 -0.801245 0.555824
vn 0.316045 -0.660126 0.681431
vn -0.867093 -0.411981 0.280039
vn -0.662928 0.702221 0.259639
vn -0.223145 0.967447 0.119381
vn -0.096514 0.992334 0.077185
vn 0.080256 0.954650 0.286710
vn -0.501008 0.861776 -0.079581
vn -0.382546 0.920958 -0.074127
vn -0.070699 0.997300 -0.019840
vn 0.041424 0.998737 -0.028448
vn -0.048280 0.487768 0.871637
vn 0.106884 0.993713 -0.033325
vn 0.409817 -0.555174 0.723763
vn 0.966231 0.131732 0.221460
vn 0.184348 -0.666623 0.722239
vn 0.560720 0.407727 0.720661
vn 0.832370 0.486613 -0.265270
vn 0.346700 0.934765 -0.077547
vn 0.400859 0.586588 0.703723
vn 0.346700 0.934765 -0.077547
vn -0.151455 -0.482554 -0.862672
f 45/45/45 46/46/46 48/48/48
f 29/29/29 30/30/30 47/47/47
f 76/76/76 105/105/105 51/51/51
f 8/8/8 4/4/4 5/5/5
f 120/120/120 118/118/118 117/117/117
f 1/1/1 11/11/11 93/93/93
f 9/9/9 11/11/11 1/1/1
f 99/99/99 98/98/98 97/97/97
f 99/99/99 97/97/97 95/95/95
f 95/95/95 97/97/97 96/96/96
f 95/95/95 96/96/96 3/3/3
f 3/3/3 96/96/96 94/94/94
f 2/2/2 3/3/3 94/94/94
f 38/38/38 10/10/10 28/28/28
f 38/38/38 28/28/28 34/34/34
f 28/28/28 37/37/37 34/34/34
f 124/124/124 37/37/37 28/28/28
f 37/37/37 124/124/124 123/123/123
f 23/23/23 40/40/40 39/39/39
f 39/39/39 40/40/40 24/24/24
f 69/69/69 6/6/6 127/127/127
f 127/127/127 6/6/6 125/125/125
f 126/126/126 127/127/127 125/125/125
f 6/6/6 108/108/108 125/125/125
f 125/125/125 108/108/108 15/15/15
f 125/125/125 15/15/15 7/7/7
f 7/7/7 15/15/15 126/126/126
f 108/108/108 126/126/126 15/15/15
f 16/16/16 126/126/126 108/108/108
f 128/128/128 122/122/122 44/44/44
f 133/133/133 122/122/122 128/128/128
f 124/124/124 122/122/122 133/133/133
f 122/122/122 124/124/124 129/129/129
f 59/59/59 43/43/43 14/14/14
f 62/62/62 43/43/43 59/59/59
f 61/61/61 60/60/60 12/12/12
f 61/61/61 77/77/77 60/60/60
f 54/54/54 60/60/60 77/77/77
f 67/67/67 42/42/42 68/68/68
f 68/68/68 42/42/42 41/41/41
f 63/63/63 66/66/66 49/49/49
f 63/63/63 13/13/13 66/66/66
f 22/22/22 13/13/13 63/63/63
f 100/100/100 13/13/13 22/22/22
f 70/70/70 13/13/13 100/100/100
f 100/100/100 109/109/109 70/70/70
f 110/110/110 109/109/109 100/100/100
f 109/109/109 110/110/110 111/111/111
f 84/84/84 82/82/82 78/78/78
f 83/83/83 82/82/82 84/84/84
f 79/79/79 82/82/82 83/83/83
f 83/83/83 19/19/19 79/79/79
f 81/81/81 19/19/19 83/83/83
f 27/27/27 19/19/19 81/81/81
f 26/26/26 19/19/19 27/27/27
f 26/26/26 80/80/80 19/19/19
f 19/19/19 80/80/80 85/85/85
f 26/26/26 27/27/27 25/25/25
f 102/102/102 92/92/92 64/64/64
f 102/102/102 90/90/90 92/92/92
f 85/85/85 90/90/90 102/102/102
f 85/85/85 87/87/87 90/90/90
f 112/112/112 87/87/87 85/85/85
f 87/87/87 112/112/112 21/21/21
f 88/88/88 87/87/87 21/21/21
f 88/88/88 91/91/91 87/87/87
f 87/87/87 91/91/91 104/104/104
f 91/91/91 86/86/86 104/104/104
f 104/104/104 86/86/86 89/89/89
f 89/89/89 86/86/86 65/65/65
f 112/112/112 18/18/18 21/21/21
f 18/18/18 88/88/88 21/21/21
f 74/74/74 105/105/105 35/35/35
f 74/74/74 35/35/35 36/36/36
f 130/130/130 74/74/74 36/36/36
f 74/74/74 130/130/130 119/119/119
f 74/74/74 119/119/119 106/106/106
f 106/106/106 119/119/119 17/17/17
f 106/106/106 17/17/17 121/121/121
f 106/106/106 121/121/121 107/107/107
f 33/33/33 31/31/31 103/103/103
f 88/88/88 31/31/31 33/33/33
f 31/31/31 112/112/112 26/26/26
f 31/31/31 26/26/26 32/32/32
f 71/71/71 20/20/20 91/91/91
f 71/71/71 33/33/33 20/20/20
f 74/74/74 113/113/113 75/75/75
f 131/131/131 113/113/113 74/74/74
f 74/74/74 132/132/132 131/131/131
f 72/72/72 101/101/101 129/129/129
f 101/101/101 72/72/72 73/73/73
f 114/114/114 115/115/115 116/116/116
f 116/116/116 115/115/115 52/52/52
f 57/57/57 116/116/116 52/52/52
f 52/52/52 56/56/56 57/57/57
f 55/55/55 56/56/56 52/52/52
f 55/55/55 52/52/52 58/58/58
f 58/58/58 52/52/52 53/53/53
f 53/53/53 52/52/52 50/50/50
f 115/115/115 50/50/50 52/52/52
f 178/178/178 179/179/179 180/180/180
f 134/134/134 136/136/136 146/146/146
f 141/141/141 140/140/140 142/142/142
f 174/174/174 225/225/225 175/175/175
f 175/175/175 253/253/253 174/174/174
f 224/224/224 228/228/228 230/230/230
f 230/230/230 228/228/228 227/227/227
f 226/226/226 236/236/236 232/232/232
f 232/232/232 236/236/236 229/229/229
f 161/161/161 234/234/234 204/204/204
f 161/161/161 222/222/222 234/234/234
f 242/242/242 222/222/222 161/161/161
f 222/222/222 242/242/242 248/248/248
f 256/256/256 258/258/258 137/137/137
f 173/173/173 258/258/258 256/256/256
f 256/256/256 255/255/255 173/173/173
f 168/168/168 255/255/255 256/256/256
f 223/223/223 165/165/165 150/150/150
f 150/150/150 165/165/165 143/143/143
f 172/172/172 150/150/150 143/143/143
f 155/155/155 172/172/172 143/143/143
f 155/155/155 143/143/143 154/154/154
f 154/154/154 143/143/143 153/153/153
f 153/153/153 143/143/143 145/145/145
f 145/145/145 143/143/143 144/144/144
f 165/165/165 177/177/177 143/143/143
f 144/144/144 143/143/143 177/177/177
f 135/135/135 253/253/253 254/254/254
f 254/254/254 159/159/159 135/135/135
f 135/135/135 159/159/159 160/160/160
f 135/135/135 160/160/160 188/188/188
f 135/135/135 188/188/188 191/191/191
f 191/191/191 188/188/188 197/197/197
f 191/191/191 197/197/197 192/192/192
f 191/191/191 192/192/192 190/190/190
f 205/205/205 217/217/217 187/187/187
f 217/217/217 205/205/205 193/193/193
f 196/196/196 185/185/185 199/199/199
f 199/199/199 185/185/185 198/198/198
f 183/183/183 199/199/199 198/198/198
f 198/198/198 185/185/185 200/200/200
f 200/200/200 195/195/195 198/198/198
f 200/200/200 194/194/194 195/195/195
f 195/195/195 194/194/194 183/183/183
f 184/184/184 183/183/183 194/194/194
f 186/186/186 183/183/183 184/184/184
f 185/185/185 184/184/184 200/200/200
f 200/200/200 184/184/184 194/194/194
f 204/204/204 202/202/202 201/201/201
f 201/201/201 202/202/202 203/203/203
f 182/182/182 181/181/181 211/211/211
f 182/182/182 211/211/211 210/210/210
f 210/210/210 211/211/211 212/212/212
f 211/211/211 213/213/213 212/212/212
f 206/206/206 214/214/214 218/218/218
f 206/206/206 139/139/139 214/214/214
f 214/214/214 139/139/139 235/235/235
f 235/235/235 139/139/139 244/244/244
f 244/244/244 139/139/139 245/245/245
f 245/245/245 171/171/171 244/244/244
f 244/244/244 171/171/171 170/170/170
f 170/170/170 171/171/171 239/239/239
f 139/139/139 151/151/151 245/245/245
f 151/151/151 238/238/238 245/245/245
f 245/245/245 238/238/238 265/265/265
f 265/265/265 238/238/238 262/262/262
f 265/265/265 262/262/262 260/260/260
f 251/251/251 151/151/151 139/139/139
f 250/250/250 151/151/151 251/251/251
f 250/250/250 251/251/251 249/249/249
f 138/138/138 238/238/238 151/151/151
f 189/189/189 138/138/138 151/151/151
f 257/257/257 138/138/138 189/189/189
f 257/257/257 189/189/189 169/169/169
f 245/245/245 264/264/264 266/266/266
f 266/266/266 264/264/264 263/263/263
f 237/237/237 220/220/220 221/221/221
f 220/220/220 237/237/237 233/233/233
f 233/233/233 237/237/237 240/240/240
f 240/240/240 243/243/243 233/233/233
f 233/233/233 243/243/243 241/241/241
f 241/241/241 243/243/243 216/216/216
f 216/216/216 243/243/243 267/267/267
f 216/216/216 267/267/267 215/215/215
f 259/259/259 261/261/261 219/219/219
f 247/247/247 261/261/261 259/259/259
f 246/246/246 261/261/261 247/247/247
f 247/247/247 161/161/161 246/246/246
f 231/231/231 161/161/161 247/247/247
f 231/231/231 207/207/207 161/161/161
f 208/208/208 207/207/207 231/231/231
f 207/207/207 208/208/208 209/209/209
f 166/166/166 147/147/147 176/176/176
f 149/149/149 147/147/147 166/166/166
f 158/158/158 147/147/147 149/149/149
f 158/158/158 148/148/148 147/147/147
f 167/167/167 147/147/147 148/148/148
f 176/176/176 147/147/147 167/167/167
f 157/157/157 162/162/162 156/156/156
f 252/252/252 162/162/162 157/157/157
f 164/164/164 162/162/162 252/252/252
f 164/164/164 152/152/152 162/162/162
f 152/152/152 163/163/163 162/162/162
f 156/156/156 162/162/162 163/163/163
