# Exported by s4extract — object_sinkPedC_01_lod01_g01
o object_sinkPedC_01_lod01_g01
v -0.111091 1.071415 -0.359580
v -0.111091 1.071415 -0.359580
v -0.133126 1.071415 -0.359580
v -0.111091 1.071415 -0.335164
v -0.133126 1.071415 -0.335164
v -0.111091 1.071415 -0.335164
v -0.133126 1.071415 -0.335164
v -0.133126 1.071415 -0.359580
v -0.143258 1.029970 -0.323933
v -0.162363 0.993957 -0.302753
v -0.162363 0.993957 -0.391992
v -0.143258 1.029970 -0.370811
v -0.100958 1.029970 -0.370811
v -0.081853 0.993957 -0.391992
v -0.081853 0.993957 -0.302753
v -0.100958 1.029970 -0.323933
v -0.081853 0.993957 -0.391992
v -0.100958 1.029970 -0.370811
v -0.143258 1.029970 -0.370811
v -0.162363 0.993957 -0.391992
v -0.111091 1.071415 -0.359580
v -0.111091 1.071415 -0.335164
v -0.133126 1.071415 -0.335164
v -0.133126 1.071415 -0.359580
v 0.008240 1.118782 -0.337728
v 0.011292 1.118782 -0.347372
v 0.011292 1.148141 -0.334066
v 0.011292 1.148141 -0.334066
v -0.100958 1.029970 -0.323933
v -0.081853 0.993957 -0.302753
v -0.162363 0.993957 -0.302753
v -0.143258 1.029970 -0.323933
v -0.011292 1.148141 -0.360679
v -0.011292 1.148141 -0.360679
v -0.011292 1.118782 -0.347372
v -0.011292 1.148141 -0.334066
v -0.008240 1.118782 -0.357016
v -0.011292 1.118782 -0.347372
v 0.008240 1.118782 -0.357016
v -0.020021 1.118782 -0.369590
v -0.011292 1.148141 -0.334066
v -0.008240 1.118782 -0.337728
v 0.008240 1.118782 -0.337728
v -0.011292 1.118782 -0.347372
v 0.008240 1.118782 -0.357016
v 0.011292 1.148141 -0.360679
v -0.008240 1.118782 -0.337728
v -0.011292 1.148141 -0.334066
v 0.011292 1.148141 -0.360679
v -0.008240 1.118782 -0.357016
v 0.008240 1.118782 -0.357016
v -0.008240 1.118782 -0.357016
v 0.011292 1.118782 -0.347372
v 0.008240 1.118782 -0.337728
v -0.008240 1.118782 -0.337728
v 0.020021 1.118782 -0.369590
v -0.011597 1.069890 -0.200330
v -0.009888 1.083806 -0.184154
v 0.009888 1.083806 -0.184154
v -0.009888 1.083806 -0.184154
v 0.011597 1.069890 -0.200330
v 0.011597 1.069890 -0.200330
v -0.011597 1.069890 -0.200330
v 0.009888 1.083806 -0.184154
v 0.015077 1.082402 -0.215345
v -0.012940 1.108283 -0.204785
v -0.015077 1.082402 -0.215345
v -0.015077 1.082402 -0.215345
v -0.012940 1.108283 -0.204785
v -0.020021 1.118782 -0.325154
v 0.020021 1.118782 -0.325154
v 0.012940 1.108283 -0.204785
v 0.012940 1.108283 -0.204785
v 0.015077 1.082402 -0.215345
v -0.015077 1.082402 -0.215345
v 0.015077 1.082402 -0.215345
v -0.023378 1.077580 -0.373314
v 0.023378 1.077580 -0.373314
v -0.040225 0.993957 -0.391992
v 0.011292 1.148141 -0.334066
v 0.023378 1.077580 -0.321431
v 0.020021 1.118782 -0.369590
v 0.020021 1.118782 -0.325154
v -0.023378 1.077580 -0.321431
v 0.020021 1.118782 -0.369590
v -0.020021 1.118782 -0.325154
v -0.020021 1.118782 -0.369590
v -0.020021 1.118782 -0.369590
v -0.011292 1.148141 -0.334066
v -0.011292 1.148141 -0.360679
v 0.040225 0.993957 -0.302753
v -0.040225 0.993957 -0.302753
v 0.009888 1.083806 -0.184154
v -0.023378 1.077580 -0.321431
v -0.009888 1.083806 -0.184154
v 0.011597 1.069890 -0.200330
v -0.040225 0.993957 -0.302753
v 0.040225 0.993957 -0.391992
v -0.040225 0.993957 -0.391992
v 0.023378 1.077580 -0.373314
v -0.023378 1.077580 -0.373314
v -0.011597 1.069890 -0.200330
v 0.040225 0.993957 -0.302753
v 0.023378 1.077580 -0.321431
v 0.011292 1.148141 -0.360679
v 0.040225 0.993957 -0.391992
v -0.023378 1.077580 -0.321431
v 0.023378 1.077580 -0.321431
v 0.272417 0.995605 0.125496
v 0.130928 0.853324 -0.037478
v 0.130928 0.853324 -0.200757
v 0.272417 0.995605 -0.289935
v -0.130928 0.853324 -0.037478
v 0.130928 0.853324 -0.037478
v 0.272417 0.995605 0.125496
v -0.272417 0.995605 0.125496
v -0.130928 0.853324 -0.200757
v -0.130928 0.853324 -0.037478
v -0.272417 0.995605 0.125496
v -0.272417 0.995605 -0.289935
v -0.130928 0.853324 -0.200757
v -0.272417 0.995605 -0.289935
v 0.272417 0.995605 -0.289935
v 0.130928 0.853324 -0.200757
v -0.272417 0.995605 0.125496
v -0.347189 0.995605 0.201856
v -0.347189 0.995605 -0.416346
v -0.272417 0.995605 -0.289935
v -0.272417 0.995605 -0.289935
v -0.347189 0.995605 -0.416346
v 0.347189 0.995605 -0.416346
v 0.272417 0.995605 -0.289935
v 0.272417 0.995605 0.125496
v 0.272417 0.995605 -0.289935
v 0.347189 0.995605 -0.416346
v 0.347189 0.995605 0.201856
v 0.272417 0.995605 0.125496
v 0.347189 0.995605 0.201856
v -0.347189 0.995605 0.201856
v -0.272417 0.995605 0.125496
v -0.199048 -0.002319 -0.288226
v -0.199048 -0.002319 0.073735
v -0.199048 0.021974 0.073735
v -0.199048 0.021974 -0.288226
v 0.199048 0.021974 0.073735
v 0.199048 0.021974 -0.288226
v -0.199048 -0.002319 -0.288226
v 0.199048 -0.002319 -0.288226
v -0.199048 0.021974 0.073735
v 0.199048 0.021974 0.073735
v -0.183788 0.021974 0.057010
v 0.183788 0.021974 0.057010
v 0.183788 0.021974 -0.271501
v -0.183788 0.021974 -0.271501
v -0.183788 0.021974 -0.271501
v -0.183788 0.021974 0.057010
v 0.199048 0.021974 0.073735
v 0.199048 0.021974 -0.288226
v -0.158640 0.079839 -0.248978
v -0.158640 0.079839 0.034548
v 0.199048 -0.002319 0.073735
v -0.199048 -0.002319 0.073735
v -0.199048 0.021974 -0.288226
v 0.199048 0.021974 -0.288226
v -0.199048 0.021974 0.073735
v 0.199048 -0.002319 0.073735
v 0.199048 -0.002319 -0.288226
v 0.199048 0.021974 0.073735
v -0.199048 0.021974 -0.288226
v -0.183788 0.021974 -0.271501
v -0.183788 0.021974 0.057010
v -0.199048 0.021974 0.073735
v 0.183788 0.021974 0.057010
v 0.199048 0.021974 -0.288226
v -0.199048 0.021974 -0.288226
v 0.183788 0.021974 -0.271501
v -0.183788 0.021974 0.057010
v -0.158640 0.079839 0.034548
v 0.158640 0.079839 0.034548
v 0.183788 0.021974 0.057010
v 0.183788 0.021974 0.057010
v 0.158640 0.079839 0.034548
v 0.158640 0.079839 -0.248978
v 0.183788 0.021974 -0.271501
v 0.183788 0.021974 -0.271501
v 0.158640 0.079839 -0.248978
v -0.158640 0.079839 -0.248978
v -0.183788 0.021974 -0.271501
v -0.158640 0.079839 -0.248978
v -0.142099 0.079839 -0.234206
v -0.142099 0.079839 0.019716
v -0.158640 0.079839 0.034548
v -0.158640 0.079839 0.034548
v -0.142099 0.079839 0.019716
v 0.142099 0.079839 0.019716
v 0.158640 0.079839 0.034548
v 0.158640 0.079839 0.034548
v 0.142099 0.079839 0.019716
v 0.142099 0.079839 -0.234206
v 0.158640 0.079839 -0.248978
v 0.158640 0.079839 -0.248978
v 0.142099 0.079839 -0.234206
v -0.142099 0.079839 -0.234206
v -0.158640 0.079839 -0.248978
v -0.142099 0.079839 -0.234206
v -0.122261 0.136849 -0.221083
v -0.122261 0.136849 0.006592
v -0.142099 0.079839 0.019716
v -0.142099 0.079839 0.019716
v -0.122261 0.136849 0.006592
v 0.122261 0.136849 0.006592
v 0.142099 0.079839 0.019716
v 0.142099 0.079839 0.019716
v 0.122261 0.136849 0.006592
v 0.122261 0.136849 -0.221083
v 0.142099 0.079839 -0.234206
v 0.142099 0.079839 -0.234206
v 0.122261 0.136849 -0.221083
v -0.122261 0.136849 -0.221083
v -0.142099 0.079839 -0.234206
v -0.122261 0.136849 -0.221083
v -0.102179 0.136849 -0.202344
v -0.102179 0.136849 -0.012086
v -0.122261 0.136849 0.006592
v -0.122261 0.136849 0.006592
v -0.102179 0.136849 -0.012086
v 0.102179 0.136849 -0.012086
v 0.122261 0.136849 0.006592
v 0.122261 0.136849 0.006592
v 0.102179 0.136849 -0.012086
v 0.102179 0.136849 -0.202344
v 0.122261 0.136849 -0.221083
v 0.122261 0.136849 -0.221083
v 0.102179 0.136849 -0.202344
v -0.102179 0.136849 -0.202344
v -0.122261 0.136849 -0.221083
v -0.102179 0.136849 -0.202344
v -0.082464 0.243667 -0.189465
v -0.082464 0.243667 -0.024965
v -0.102179 0.136849 -0.012086
v -0.102179 0.136849 -0.012086
v -0.082464 0.243667 -0.024965
v 0.082464 0.243667 -0.024965
v 0.102179 0.136849 -0.012086
v 0.102179 0.136849 -0.012086
v 0.082464 0.243667 -0.024965
v 0.082464 0.243667 -0.189465
v 0.102179 0.136849 -0.202344
v 0.102179 0.136849 -0.202344
v 0.082464 0.243667 -0.189465
v -0.082464 0.243667 -0.189465
v -0.102179 0.136849 -0.202344
v 0.066227 0.612647 -0.172679
v -0.066227 0.612647 -0.172679
v 0.066227 0.612647 -0.172679
v 0.066227 0.612647 -0.041751
v -0.066227 0.612647 -0.172679
v -0.066227 0.612647 -0.041751
v 0.066227 0.612647 -0.041751
v -0.066227 0.612647 -0.041751
v -0.093267 0.698224 -0.200818
v -0.158396 0.760483 -0.259659
v -0.158396 0.760483 0.045230
v -0.093267 0.698224 -0.013612
v -0.093267 0.698224 -0.013612
v -0.158396 0.760483 0.045230
v 0.158396 0.760483 0.045230
v 0.093267 0.698224 -0.013612
v 0.093267 0.698224 -0.013612
v 0.158396 0.760483 0.045230
v 0.158396 0.760483 -0.259659
v 0.093267 0.698224 -0.200818
v 0.093267 0.698224 -0.200818
v 0.158396 0.760483 -0.259659
v -0.158396 0.760483 -0.259659
v -0.093267 0.698224 -0.200818
v -0.158396 0.760483 -0.259659
v -0.135445 0.781420 -0.243911
v -0.135445 0.781420 0.029482
v -0.158396 0.760483 0.045230
v -0.158396 0.760483 0.045230
v -0.135445 0.781420 0.029482
v 0.135445 0.781420 0.029482
v 0.158396 0.760483 0.045230
v 0.158396 0.760483 0.045230
v 0.135445 0.781420 0.029482
v 0.135445 0.781420 -0.243911
v 0.158396 0.760483 -0.259659
v 0.158396 0.760483 -0.259659
v 0.135445 0.781420 -0.243911
v -0.135445 0.781420 -0.243911
v -0.158396 0.760483 -0.259659
v 0.135445 0.781420 -0.243911
v 0.135445 0.781420 0.029482
v 0.284991 0.879021 0.153513
v 0.284991 0.879021 -0.368003
v -0.135445 0.781420 -0.243911
v 0.135445 0.781420 -0.243911
v 0.284991 0.879021 -0.368003
v -0.284991 0.879021 -0.368003
v -0.135445 0.781420 -0.243911
v -0.284991 0.879021 -0.368003
v -0.284991 0.879021 0.153513
v -0.135445 0.781420 0.029482
v -0.135445 0.781420 0.029482
v -0.284991 0.879021 0.153513
v 0.284991 0.879021 0.153513
v 0.135445 0.781420 0.029482
v -0.284991 0.879021 -0.368003
v -0.284991 0.879021 0.153513
v 0.284991 0.879021 0.153513
v -0.284991 0.879021 0.153513
v 0.284991 0.879021 0.153513
v 0.284991 0.879021 -0.368003
v -0.284991 0.879021 -0.368003
v 0.284991 0.879021 -0.368003
v -0.284991 0.908198 -0.368003
v -0.347189 0.995605 -0.416346
v 0.284991 0.908198 -0.368003
v 0.347189 0.995605 -0.416346
v 0.130928 0.853324 -0.037478
v -0.130928 0.853324 -0.037478
v -0.347189 0.995605 0.201856
v 0.284991 0.908198 0.153513
v -0.114997 1.072697 -0.339071
v -0.201672 1.067997 -0.334127
v -0.114997 1.072697 -0.339071
v -0.114997 1.072697 -0.355063
v 0.284991 0.908198 -0.368003
v 0.284991 0.908198 0.153513
v 0.347189 0.995605 0.201856
v 0.347189 0.995605 -0.416346
v -0.201672 1.067997 -0.334127
v -0.201672 1.067997 -0.359946
v -0.284991 0.908198 0.153513
v -0.284991 0.908198 -0.368003
v 0.347189 0.995605 0.201856
v -0.284991 0.908198 0.153513
v -0.347189 0.995605 -0.416346
v 0.199048 -0.002319 0.073735
v -0.199048 -0.002319 0.073735
v -0.347189 0.995605 0.201856
v -0.201672 1.092962 -0.359946
v -0.201672 1.067997 -0.334127
v -0.114997 1.088201 -0.355063
v -0.201672 1.092962 -0.359946
v -0.114997 1.088201 -0.339071
v -0.114997 1.088201 -0.339071
v 0.111091 1.071415 -0.359580
v 0.111091 1.071415 -0.359580
v 0.199048 -0.002319 -0.288226
v 0.130928 0.853324 -0.200757
v -0.130928 0.853324 -0.200757
v -0.199048 -0.002319 -0.288226
v -0.201672 1.067997 -0.359946
v -0.201672 1.092962 -0.334127
v -0.201672 1.092962 -0.334127
v -0.201672 1.092962 -0.334127
v 0.133126 1.071415 -0.359580
v 0.111091 1.071415 -0.335164
v -0.201672 1.092962 -0.359946
v -0.114997 1.072697 -0.339071
v -0.114997 1.088201 -0.355063
v -0.114997 1.088201 -0.339071
v -0.201672 1.067997 -0.359946
v -0.114997 1.072697 -0.355063
v -0.114997 1.072697 -0.355063
v -0.114997 1.088201 -0.355063
v 0.133126 1.071415 -0.335164
v 0.111091 1.071415 -0.335164
v 0.133126 1.071415 -0.335164
v 0.133126 1.071415 -0.359580
v 0.143258 1.029970 -0.323933
v 0.143258 1.029970 -0.370811
v 0.162363 0.993957 -0.391992
v 0.162363 0.993957 -0.302753
v 0.201672 1.067997 -0.359946
v 0.201672 1.067997 -0.334127
v 0.114997 1.072697 -0.355063
v 0.100958 1.029970 -0.370811
v 0.100958 1.029970 -0.323933
v 0.081853 0.993957 -0.302753
v 0.081853 0.993957 -0.391992
v 0.081853 0.993957 -0.391992
v 0.100958 1.029970 -0.370811
v 0.111091 1.071415 -0.359580
v 0.143258 1.029970 -0.370811
v 0.162363 0.993957 -0.391992
v 0.081853 0.993957 -0.302753
v 0.143258 1.029970 -0.323933
v 0.162363 0.993957 -0.302753
v 0.201672 1.067997 -0.359946
v 0.111091 1.071415 -0.335164
v 0.133126 1.071415 -0.335164
v 0.100958 1.029970 -0.323933
v 0.133126 1.071415 -0.359580
v 0.114997 1.088201 -0.355063
v 0.201672 1.092962 -0.359946
v 0.201672 1.067997 -0.359946
v 0.114997 1.088201 -0.355063
v 0.201672 1.092962 -0.334127
v 0.114997 1.088201 -0.339071
v 0.114997 1.072697 -0.339071
v 0.201672 1.067997 -0.334127
v 0.201672 1.092962 -0.359946
v 0.114997 1.088201 -0.339071
v 0.114997 1.088201 -0.355063
v 0.114997 1.072697 -0.355063
v 0.201672 1.092962 -0.334127
v 0.201672 1.067997 -0.334127
v 0.114997 1.072697 -0.355063
v 0.114997 1.072697 -0.339071
v 0.201672 1.092962 -0.359946
v 0.114997 1.088201 -0.339071
v 0.114997 1.072697 -0.339071
v 0.201672 1.092962 -0.334127
vt 0.772699 0.963390
vt 0.772699 0.963390
vt 0.755850 0.968056
vt 0.788032 0.966897
vt 0.905974 0.963390
vt 0.921277 0.966897
vt 0.905974 0.963390
vt 0.889095 0.967996
vt 0.905736 0.929158
vt 0.906241 0.893736
vt 0.846483 0.920124
vt 0.872544 0.941133
vt 0.772491 0.929158
vt 0.772966 0.893736
vt 0.827197 0.916439
vt 0.802741 0.939142
vt 0.772966 0.893736
vt 0.772491 0.929158
vt 0.739268 0.941163
vt 0.713208 0.920124
vt 0.764111 0.974979
vt 0.764111 0.993165
vt 0.780514 0.993165
vt 0.780514 0.974979
vt 0.917117 0.829788
vt 0.925319 0.829729
vt 0.914591 0.852134
vt 0.914591 0.852134
vt 0.936016 0.939142
vt 0.960443 0.916439
vt 0.906241 0.893736
vt 0.905736 0.929158
vt 0.953668 0.847261
vt 0.953668 0.847261
vt 0.897059 0.824677
vt 0.898872 0.849193
vt 0.946090 0.826163
vt 0.647566 0.839149
vt 0.933520 0.829224
vt 0.654549 0.822864
vt 0.898872 0.849193
vt 0.904369 0.827530
vt 0.917117 0.829788
vt 0.897059 0.824677
vt 0.933520 0.829224
vt 0.936848 0.851540
vt 0.904369 0.827530
vt 0.898872 0.849193
vt 0.936848 0.851540
vt 0.946090 0.826163
vt 0.632708 0.832136
vt 0.645426 0.832136
vt 0.630568 0.839149
vt 0.633094 0.846251
vt 0.645069 0.846251
vt 0.623585 0.822864
vt 0.681293 0.949483
vt 0.646377 0.968888
vt 0.631876 0.968917
vt 0.670090 0.960448
vt 0.596871 0.949483
vt 0.826484 0.880691
vt 0.809249 0.880691
vt 0.608073 0.960478
vt 0.829099 0.866131
vt 0.653538 0.948384
vt 0.673091 0.937478
vt 0.806634 0.866131
vt 0.653538 0.948384
vt 0.653479 0.855492
vt 0.624684 0.855492
vt 0.627151 0.949127
vt 0.627151 0.949127
vt 0.829099 0.866131
vt 0.806634 0.866131
vt 0.605072 0.937508
vt 0.657164 0.790861
vt 0.620970 0.790861
vt 0.670239 0.724565
vt 0.914591 0.852134
vt 0.835280 0.787116
vt 0.623585 0.822864
vt 0.624684 0.855492
vt 0.800453 0.787116
vt 0.623585 0.822864
vt 0.653479 0.855492
vt 0.654549 0.822864
vt 0.654549 0.822864
vt 0.898872 0.849193
vt 0.896376 0.866249
vt 0.847820 0.723317
vt 0.787913 0.723317
vt 0.631876 0.968917
vt 0.683403 0.860247
vt 0.646377 0.968888
vt 0.630687 0.984518
vt 0.746192 0.877482
vt 0.528495 0.811186
vt 0.749669 0.811067
vt 0.592710 0.821676
vt 0.685423 0.821646
vt 0.647655 0.984488
vt 0.532031 0.877512
vt 0.594761 0.860247
vt 0.910788 0.868924
vt 0.607955 0.724535
vt 0.800453 0.787116
vt 0.835280 0.787116
vt 0.854239 0.633545
vt 0.733117 0.483511
vt 0.611580 0.483362
vt 0.545076 0.633129
vt 0.733355 0.288605
vt 0.733117 0.483511
vt 0.909361 0.589031
vt 0.909807 0.183530
vt 0.611847 0.288456
vt 0.733355 0.288605
vt 0.854863 0.138451
vt 0.545700 0.138035
vt 0.611847 0.288456
vt 0.485823 0.182995
vt 0.485199 0.588496
vt 0.611580 0.483362
vt 0.854863 0.138451
vt 0.911768 0.082913
vt 0.451679 0.082259
vt 0.545700 0.138035
vt 0.485823 0.182995
vt 0.391832 0.127219
vt 0.391030 0.643976
vt 0.485199 0.588496
vt 0.854239 0.633545
vt 0.545076 0.633129
vt 0.450936 0.688609
vt 0.910996 0.689262
vt 0.909361 0.589031
vt 0.966148 0.644719
vt 0.966713 0.127962
vt 0.909807 0.183530
vt 0.398637 0.034298
vt 0.126233 0.034298
vt 0.126381 0.050671
vt 0.398607 0.050671
vt 0.398607 0.050671
vt 0.126381 0.050671
vt 0.398637 0.034298
vt 0.126233 0.034298
vt 0.126381 0.050671
vt 0.398607 0.050671
vt 0.138713 0.063270
vt 0.388266 0.063270
vt 0.138713 0.063270
vt 0.388266 0.063270
vt 0.388266 0.063270
vt 0.138713 0.063270
vt 0.398607 0.050671
vt 0.126381 0.050671
vt 0.371120 0.109062
vt 0.155562 0.109062
vt 0.398607 0.034298
vt 0.126233 0.034298
vt 0.398607 0.050671
vt 0.126381 0.050671
vt 0.126381 0.050671
vt 0.398607 0.034298
vt 0.126233 0.034298
vt 0.398607 0.050671
vt 0.398607 0.050671
vt 0.388266 0.063270
vt 0.138713 0.063270
vt 0.126381 0.050671
vt 0.388266 0.063270
vt 0.126381 0.050671
vt 0.398607 0.050671
vt 0.138713 0.063270
vt 0.138713 0.063270
vt 0.155562 0.109062
vt 0.371120 0.109062
vt 0.388266 0.063270
vt 0.388266 0.063270
vt 0.371120 0.109062
vt 0.155562 0.109062
vt 0.138713 0.063270
vt 0.138713 0.063270
vt 0.155562 0.109062
vt 0.371120 0.109062
vt 0.388266 0.063270
vt 0.371120 0.109062
vt 0.359858 0.120206
vt 0.166527 0.120206
vt 0.155562 0.109062
vt 0.155562 0.109062
vt 0.166527 0.120206
vt 0.359858 0.120206
vt 0.371120 0.109062
vt 0.371120 0.109062
vt 0.359858 0.120206
vt 0.166527 0.120206
vt 0.155562 0.109062
vt 0.155562 0.109062
vt 0.166527 0.120206
vt 0.359858 0.120206
vt 0.371120 0.109062
vt 0.359858 0.120206
vt 0.341345 0.165106
vt 0.180167 0.165106
vt 0.166527 0.120206
vt 0.166527 0.120206
vt 0.180167 0.165106
vt 0.341345 0.165106
vt 0.359858 0.120206
vt 0.359858 0.120206
vt 0.341345 0.165106
vt 0.180167 0.165106
vt 0.166527 0.120206
vt 0.166527 0.120206
vt 0.180167 0.165106
vt 0.341345 0.165106
vt 0.359858 0.120206
vt 0.341345 0.165106
vt 0.328448 0.178657
vt 0.193242 0.178657
vt 0.180167 0.165106
vt 0.180167 0.165106
vt 0.193242 0.178657
vt 0.328448 0.178657
vt 0.341345 0.165106
vt 0.341345 0.165106
vt 0.328448 0.178657
vt 0.193242 0.178657
vt 0.180167 0.165106
vt 0.180167 0.165106
vt 0.193242 0.178657
vt 0.328448 0.178657
vt 0.341345 0.165106
vt 0.328448 0.178657
vt 0.318315 0.258117
vt 0.203583 0.258117
vt 0.193242 0.178657
vt 0.193242 0.178657
vt 0.203583 0.258117
vt 0.318315 0.258117
vt 0.328448 0.178657
vt 0.328448 0.178657
vt 0.318315 0.258117
vt 0.203583 0.258117
vt 0.193242 0.178657
vt 0.193242 0.178657
vt 0.203583 0.258117
vt 0.318315 0.258117
vt 0.328448 0.178657
vt 0.212735 0.533344
vt 0.307558 0.533344
vt 0.212735 0.533344
vt 0.307558 0.533344
vt 0.307558 0.533344
vt 0.212735 0.533344
vt 0.307558 0.533344
vt 0.212735 0.533344
vt 0.318493 0.601393
vt 0.363008 0.667005
vt 0.158652 0.667005
vt 0.202602 0.601393
vt 0.202602 0.601393
vt 0.158652 0.667005
vt 0.363008 0.667005
vt 0.318493 0.601393
vt 0.318493 0.601393
vt 0.363008 0.667005
vt 0.158652 0.667005
vt 0.202602 0.601393
vt 0.202602 0.601393
vt 0.158652 0.667005
vt 0.363008 0.667005
vt 0.318493 0.601393
vt 0.363008 0.667005
vt 0.352696 0.682131
vt 0.169142 0.682131
vt 0.158652 0.667005
vt 0.158652 0.667005
vt 0.169142 0.682131
vt 0.352696 0.682131
vt 0.363008 0.667005
vt 0.363008 0.667005
vt 0.352696 0.682131
vt 0.169142 0.682131
vt 0.158652 0.667005
vt 0.158652 0.667005
vt 0.169142 0.682131
vt 0.352696 0.682131
vt 0.363008 0.667005
vt 0.169142 0.682131
vt 0.352696 0.682131
vt 0.458068 0.804233
vt 0.066504 0.804233
vt 0.352696 0.682131
vt 0.169142 0.682131
vt 0.066504 0.804233
vt 0.458068 0.804233
vt 0.352696 0.682131
vt 0.458068 0.804233
vt 0.066504 0.804233
vt 0.169142 0.682131
vt 0.169142 0.682131
vt 0.066504 0.804233
vt 0.458068 0.804233
vt 0.352696 0.682131
vt 0.458068 0.804233
vt 0.066504 0.804233
vt 0.458068 0.804233
vt 0.066504 0.804233
vt 0.458068 0.804233
vt 0.066504 0.804233
vt 0.458068 0.804233
vt 0.066504 0.804233
vt 0.457979 0.823964
vt 0.501008 0.898372
vt 0.066682 0.823964
vt 0.021484 0.898372
vt 0.733117 0.483511
vt 0.733355 0.288605
vt 0.021484 0.898372
vt 0.457979 0.823964
vt 0.961572 0.761175
vt 0.897237 0.761620
vt 0.961572 0.761175
vt 0.962166 0.749288
vt 0.066682 0.823964
vt 0.457979 0.823964
vt 0.501008 0.898372
vt 0.021484 0.898372
vt 0.897237 0.761620
vt 0.898188 0.742454
vt 0.066682 0.823964
vt 0.457979 0.823964
vt 0.501008 0.898372
vt 0.066682 0.823964
vt 0.501008 0.898372
vt 0.182782 0.334337
vt 0.182782 0.498844
vt 0.021484 0.898372
vt 0.880270 0.741532
vt 0.897237 0.761620
vt 0.964335 0.784442
vt 0.901338 0.799122
vt 0.962285 0.772704
vt 0.962285 0.772704
vt 0.772699 0.963390
vt 0.772699 0.963390
vt 0.033192 0.334337
vt 0.611580 0.483362
vt 0.611847 0.288456
vt 0.033192 0.498844
vt 0.898188 0.742454
vt 0.879319 0.760729
vt 0.898040 0.780222
vt 0.898040 0.780222
vt 0.755850 0.968056
vt 0.788032 0.966897
vt 0.900803 0.724060
vt 0.961572 0.761175
vt 0.973696 0.749853
vt 0.973102 0.761739
vt 0.898188 0.742454
vt 0.962166 0.749288
vt 0.962166 0.749288
vt 0.964009 0.737907
vt 0.905974 0.963450
vt 0.921277 0.966926
vt 0.905974 0.963450
vt 0.889095 0.968056
vt 0.905736 0.929217
vt 0.872544 0.941193
vt 0.846483 0.920154
vt 0.906241 0.893766
vt 0.898188 0.742483
vt 0.897237 0.761680
vt 0.962166 0.749348
vt 0.772491 0.929158
vt 0.802741 0.939142
vt 0.827197 0.916439
vt 0.772966 0.893736
vt 0.772966 0.893736
vt 0.772491 0.929158
vt 0.764111 0.975009
vt 0.739268 0.941163
vt 0.713208 0.920124
vt 0.960443 0.916499
vt 0.905736 0.929217
vt 0.906241 0.893766
vt 0.898188 0.742483
vt 0.764111 0.993225
vt 0.780514 0.993225
vt 0.936016 0.939202
vt 0.780514 0.975009
vt 0.964335 0.784501
vt 0.900803 0.724119
vt 0.898188 0.742483
vt 0.964009 0.737937
vt 0.898040 0.780252
vt 0.962285 0.772764
vt 0.961572 0.761234
vt 0.897237 0.761680
vt 0.880270 0.741562
vt 0.973102 0.761799
vt 0.973696 0.749912
vt 0.962166 0.749348
vt 0.879319 0.760759
vt 0.897237 0.761680
vt 0.962166 0.749348
vt 0.961572 0.761234
vt 0.901338 0.799181
vt 0.962285 0.772764
vt 0.961572 0.761234
vt 0.898040 0.780252
vn 0.971392 0.237483 0.000000
vn 0.000000 0.261553 -0.965189
vn 0.000000 0.261553 -0.965189
vn 0.971392 0.237483 0.000000
vn -0.971392 0.237483 0.000000
vn 0.000000 0.261553 0.965189
vn 0.000000 0.261553 0.965189
vn -0.971392 0.237483 0.000000
vn -0.944305 0.329071 0.000000
vn -0.883387 0.468644 0.000000
vn -0.883387 0.468644 0.000000
vn -0.912153 0.409849 0.000000
vn 0.944305 0.329071 0.000000
vn 0.883387 0.468644 0.000000
vn 0.883387 0.468644 0.000000
vn 0.912153 0.409849 0.000000
vn 0.000000 0.506956 -0.861972
vn 0.000000 0.445858 -0.895104
vn 0.000000 0.360347 -0.932818
vn 0.000000 0.506956 -0.861972
vn 0.000000 1.000000 0.000000
vn 0.000000 1.000000 0.000000
vn 0.000000 1.000000 0.000000
vn 0.000000 1.000000 0.000000
vn 0.944610 -0.135480 0.298927
vn 0.998189 -0.060160 0.000000
vn 0.995757 -0.037988 0.083818
vn 0.000000 -0.123781 0.992310
vn 0.000000 0.360347 0.932818
vn 0.000000 0.506956 0.861972
vn 0.000000 0.506956 0.861972
vn 0.000000 0.445858 0.895104
vn 0.000000 -0.123781 -0.992310
vn -0.995757 -0.037988 -0.083818
vn -0.995757 -0.037988 -0.083818
vn -1.000000 0.000000 0.000000
vn 0.000000 -0.123781 -0.992310
vn 0.000000 1.000000 0.000000
vn 0.000000 -0.123781 -0.992310
vn 0.000000 1.000000 0.000000
vn 0.000000 -0.123781 0.992310
vn 0.000000 -0.123781 0.992310
vn 0.000000 -0.123781 0.992310
vn -0.944610 -0.135480 0.298927
vn 0.944610 -0.135480 -0.298927
vn 0.995757 -0.037988 -0.083818
vn -0.944610 -0.135480 0.298927
vn -0.944610 -0.135480 0.298927
vn 0.000000 -0.123781 -0.992310
vn -0.944610 -0.135480 -0.298927
vn 0.000000 1.000000 0.000000
vn 0.000000 1.000000 0.000000
vn 0.000000 1.000000 0.000000
vn 0.000000 1.000000 0.000000
vn 0.000000 1.000000 0.000000
vn 0.000000 1.000000 0.000000
vn -0.983263 -0.073175 0.166850
vn 0.000000 0.644488 0.764614
vn 0.000000 0.644488 0.764614
vn -0.986217 -0.015375 0.164740
vn 0.983263 -0.073175 0.166850
vn 0.000000 -0.768221 -0.640184
vn 0.000000 -0.768221 -0.640184
vn 0.986217 -0.015375 0.164740
vn 0.000000 -0.768221 -0.640184
vn -0.995349 0.048110 0.083461
vn -0.994643 0.062109 0.082628
vn 0.000000 -0.768221 -0.640184
vn 0.000000 0.946074 0.323952
vn 0.000000 0.997042 0.076857
vn 0.000000 0.997611 0.069087
vn 0.000000 0.987971 0.154638
vn 0.995349 0.048110 0.083461
vn 0.000000 -0.998969 0.045408
vn 0.000000 -0.998969 0.045408
vn 0.994643 0.062109 0.082628
vn 0.000000 0.157825 -0.987467
vn 0.000000 0.198911 -0.980018
vn 0.000000 0.217986 -0.975952
vn 0.000000 1.000000 0.000000
vn 0.000000 -0.998969 0.045408
vn 0.996697 0.081212 0.000000
vn 0.996001 0.076767 0.045702
vn 0.000000 -0.998969 0.045408
vn 0.000000 0.090004 -0.995941
vn -0.995553 0.075740 0.056020
vn -0.996697 0.081212 0.000000
vn 0.000000 0.090004 -0.995941
vn 0.000000 1.000000 0.000000
vn 0.000000 1.000000 0.000000
vn 0.000000 0.217986 0.975952
vn 0.000000 0.217986 0.975952
vn 0.000000 -0.758044 0.652204
vn -0.991980 0.123801 0.025459
vn 0.000000 -0.758044 0.652204
vn 0.000000 -0.758044 0.652204
vn -0.980304 0.197492 0.000000
vn 0.980304 0.197492 0.000000
vn -0.980304 0.197492 0.000000
vn 0.989770 0.142669 0.000000
vn -0.983654 0.180068 0.000000
vn 0.000000 -0.758044 0.652204
vn 0.980304 0.197492 0.000000
vn 0.987236 0.158295 0.017552
vn 0.000000 1.000000 0.000000
vn 0.000000 0.217986 -0.975952
vn 0.000000 0.217986 0.975952
vn 0.000000 0.217986 0.975952
vn -0.709081 0.705127 0.000000
vn -0.709081 0.705127 0.000000
vn -0.709081 0.705127 0.000000
vn -0.709081 0.705127 0.000000
vn 0.000000 0.753310 -0.657665
vn 0.000000 0.753310 -0.657665
vn 0.000000 0.753310 -0.657665
vn 0.000000 0.753310 -0.657665
vn 0.709081 0.705127 0.000000
vn 0.709081 0.705127 0.000000
vn 0.709081 0.705127 0.000000
vn 0.709081 0.705127 0.000000
vn 0.000000 0.531077 0.847324
vn 0.000000 0.531077 0.847324
vn 0.000000 0.531077 0.847324
vn 0.000000 0.531077 0.847324
vn 0.000000 1.000000 0.000000
vn 0.000000 1.000000 0.000000
vn 0.000000 1.000000 0.000000
vn 0.000000 1.000000 0.000000
vn 0.000000 1.000000 0.000000
vn 0.000000 1.000000 0.000000
vn 0.000000 1.000000 0.000000
vn 0.000000 1.000000 0.000000
vn 0.000000 1.000000 0.000000
vn 0.000000 1.000000 0.000000
vn 0.000000 1.000000 0.000000
vn 0.000000 1.000000 0.000000
vn 0.000000 1.000000 0.000000
vn 0.000000 1.000000 0.000000
vn 0.000000 1.000000 0.000000
vn 0.000000 1.000000 0.000000
vn -1.000000 0.000000 0.000000
vn -1.000000 0.000000 0.000000
vn -1.000000 0.000000 0.000000
vn -1.000000 0.000000 0.000000
vn 1.000000 0.000000 0.000000
vn 1.000000 0.000000 0.000000
vn 0.000000 0.000000 -1.000000
vn 0.000000 0.000000 -1.000000
vn 0.000000 1.000000 0.000000
vn 0.000000 1.000000 0.000000
vn 0.000000 1.000000 0.000000
vn 0.000000 1.000000 0.000000
vn 0.000000 1.000000 0.000000
vn 0.000000 1.000000 0.000000
vn -0.917132 0.398585 0.000000
vn -0.917132 0.398585 0.000000
vn 0.000000 1.000000 0.000000
vn 0.000000 1.000000 0.000000
vn -0.917132 0.398585 0.000000
vn -0.917132 0.398585 0.000000
vn 0.000000 0.000000 1.000000
vn 0.000000 0.000000 1.000000
vn 0.000000 0.000000 -1.000000
vn 0.000000 0.000000 -1.000000
vn 0.000000 0.000000 1.000000
vn 1.000000 0.000000 0.000000
vn 1.000000 0.000000 0.000000
vn 0.000000 0.000000 1.000000
vn 0.000000 1.000000 0.000000
vn 0.000000 1.000000 0.000000
vn 0.000000 1.000000 0.000000
vn 0.000000 1.000000 0.000000
vn 0.000000 1.000000 0.000000
vn 0.000000 1.000000 0.000000
vn 0.000000 1.000000 0.000000
vn 0.000000 1.000000 0.000000
vn 0.000000 0.361877 0.932226
vn 0.000000 0.361877 0.932226
vn 0.000000 0.361877 0.932226
vn 0.000000 0.361877 0.932226
vn 0.917132 0.398585 0.000000
vn 0.917132 0.398585 0.000000
vn 0.917132 0.398585 0.000000
vn 0.917132 0.398585 0.000000
vn 0.000000 0.362731 -0.931894
vn 0.000000 0.362731 -0.931894
vn 0.000000 0.362731 -0.931894
vn 0.000000 0.362731 -0.931894
vn 0.000000 1.000000 0.000000
vn 0.000000 1.000000 0.000000
vn 0.000000 1.000000 0.000000
vn 0.000000 1.000000 0.000000
vn 0.000000 1.000000 0.000000
vn 0.000000 1.000000 0.000000
vn 0.000000 1.000000 0.000000
vn 0.000000 1.000000 0.000000
vn 0.000000 1.000000 0.000000
vn 0.000000 1.000000 0.000000
vn 0.000000 1.000000 0.000000
vn 0.000000 1.000000 0.000000
vn 0.000000 1.000000 0.000000
vn 0.000000 1.000000 0.000000
vn 0.000000 1.000000 0.000000
vn 0.000000 1.000000 0.000000
vn -0.944456 0.328638 0.000000
vn -0.944456 0.328638 0.000000
vn -0.944456 0.328638 0.000000
vn -0.944456 0.328638 0.000000
vn 0.000000 0.224326 0.974514
vn 0.000000 0.224326 0.974514
vn 0.000000 0.224326 0.974514
vn 0.000000 0.224326 0.974514
vn 0.944456 0.328638 0.000000
vn 0.944456 0.328638 0.000000
vn 0.944456 0.328638 0.000000
vn 0.944456 0.328638 0.000000
vn 0.000000 0.224326 -0.974514
vn 0.000000 0.224326 -0.974514
vn 0.000000 0.224326 -0.974514
vn 0.000000 0.224326 -0.974514
vn 0.000000 1.000000 0.000000
vn 0.000000 1.000000 0.000000
vn 0.000000 1.000000 0.000000
vn 0.000000 1.000000 0.000000
vn 0.000000 1.000000 0.000000
vn 0.000000 1.000000 0.000000
vn 0.000000 1.000000 0.000000
vn 0.000000 1.000000 0.000000
vn 0.000000 1.000000 0.000000
vn 0.000000 1.000000 0.000000
vn 0.000000 1.000000 0.000000
vn 0.000000 1.000000 0.000000
vn 0.000000 1.000000 0.000000
vn 0.000000 1.000000 0.000000
vn 0.000000 1.000000 0.000000
vn 0.000000 1.000000 0.000000
vn -0.983390 0.181506 0.000000
vn -0.995229 0.097564 0.000000
vn -0.997989 0.063389 0.000000
vn -0.983390 0.181506 0.000000
vn 0.000000 0.119704 0.992810
vn 0.000000 0.074809 0.997198
vn 0.000000 0.055792 0.998442
vn 0.000000 0.119704 0.992810
vn 0.983390 0.181506 0.000000
vn 0.995229 0.097564 0.000000
vn 0.997989 0.063389 0.000000
vn 0.983390 0.181506 0.000000
vn 0.000000 0.119704 -0.992810
vn 0.000000 0.074809 -0.997198
vn 0.000000 0.055792 -0.998442
vn 0.000000 0.119704 -0.992810
vn 0.999718 -0.023761 0.000000
vn 0.000000 -0.024969 -0.999688
vn 0.000000 -0.029064 -0.999578
vn 0.999610 -0.027925 0.000000
vn -0.999945 0.010451 0.000000
vn 0.000000 0.010445 0.999945
vn 0.000000 -0.088305 0.996093
vn -0.996344 -0.085430 0.000000
vn -0.881799 -0.471625 0.000000
vn -0.691007 -0.722848 0.000000
vn -0.691007 -0.722848 0.000000
vn -0.782625 -0.622494 0.000000
vn 0.000000 -0.456269 0.889842
vn 0.000000 -0.686875 0.726776
vn 0.000000 -0.686875 0.726776
vn 0.000000 -0.593340 0.804952
vn 0.848588 -0.529054 0.000000
vn 0.691007 -0.722848 0.000000
vn 0.691007 -0.722848 0.000000
vn 0.818247 -0.574867 0.000000
vn 0.000000 -0.507098 -0.861888
vn 0.000000 -0.686875 -0.726776
vn 0.000000 -0.686875 -0.726776
vn 0.000000 -0.549784 -0.835307
vn -0.673943 0.738783 0.000000
vn -0.673943 0.738783 0.000000
vn -0.673943 0.738783 0.000000
vn -0.673943 0.738783 0.000000
vn 0.000000 0.601118 0.799160
vn 0.000000 0.601118 0.799160
vn 0.000000 0.601118 0.799160
vn 0.000000 0.601118 0.799160
vn 0.673943 0.738783 0.000000
vn 0.673943 0.738783 0.000000
vn 0.673943 0.738783 0.000000
vn 0.673943 0.738783 0.000000
vn 0.000000 0.601118 -0.799160
vn 0.000000 0.601118 -0.799160
vn 0.000000 0.601118 -0.799160
vn 0.000000 0.601118 -0.799160
vn 0.546549 -0.837427 0.000000
vn 0.546549 -0.837427 0.000000
vn 0.546549 -0.837427 0.000000
vn 0.546549 -0.837427 0.000000
vn 0.000000 -0.786010 -0.618214
vn 0.000000 -0.786010 -0.618214
vn 0.000000 -0.786010 -0.618214
vn 0.000000 -0.786010 -0.618214
vn -0.546549 -0.837427 0.000000
vn -0.546549 -0.837427 0.000000
vn -0.546549 -0.837427 0.000000
vn -0.546549 -0.837427 0.000000
vn 0.000000 -0.785862 0.618402
vn 0.000000 -0.785862 0.618402
vn 0.000000 -0.785862 0.618402
vn 0.000000 -0.785862 0.618402
vn -1.000000 0.000000 0.000000
vn 0.000000 0.000000 1.000000
vn 0.000000 0.000000 1.000000
vn -1.000000 0.000000 0.000000
vn 1.000000 0.000000 0.000000
vn 0.000000 0.000000 -1.000000
vn 0.000000 0.000000 -1.000000
vn 1.000000 0.000000 0.000000
vn 0.000000 -0.383035 -0.923734
vn 0.000000 -0.483982 -0.875078
vn 0.000000 -0.391240 -0.920289
vn 0.000000 -0.483982 -0.875078
vn 0.000000 1.000000 0.000000
vn 0.000000 1.000000 0.000000
vn 0.000000 -0.483982 0.875078
vn 0.000000 -0.433268 0.901265
vn 0.056950 0.000000 0.998377
vn 0.056950 0.000000 0.998377
vn 0.054146 -0.998533 0.000000
vn 0.054146 -0.998533 0.000000
vn 0.882289 -0.470708 0.000000
vn 0.878034 -0.478599 0.000000
vn 0.814770 -0.579784 0.000000
vn 0.814770 -0.579784 0.000000
vn 0.054146 -0.998533 0.000000
vn 0.054146 -0.998533 0.000000
vn -0.850928 -0.525282 0.000000
vn -0.919761 -0.392478 0.000000
vn 0.000000 -0.483982 0.875078
vn 0.000000 -0.314797 0.949159
vn -0.814770 -0.579784 0.000000
vn 0.000000 -1.000000 0.000000
vn 0.000000 -1.000000 0.000000
vn -0.814770 -0.579784 0.000000
vn -1.000000 0.000000 0.000000
vn -1.000000 0.000000 0.000000
vn 0.054847 0.998495 0.000000
vn 0.054847 0.998495 0.000000
vn 0.054847 0.998495 0.000000
vn 0.056950 0.000000 0.998377
vn 0.000000 0.261553 -0.965189
vn -0.971392 0.237483 0.000000
vn 0.000000 -1.000000 0.000000
vn 0.000000 1.000000 0.000000
vn 0.000000 1.000000 0.000000
vn 0.000000 -1.000000 0.000000
vn -1.000000 0.000000 0.000000
vn -1.000000 0.000000 0.000000
vn 0.056950 0.000000 0.998377
vn 0.054847 0.998495 0.000000
vn 0.000000 0.261553 -0.965189
vn -0.971392 0.237483 0.000000
vn 0.056249 0.000000 -0.998417
vn 1.000000 0.000000 0.000000
vn 1.000000 0.000000 0.000000
vn 1.000000 0.000000 0.000000
vn 0.056249 0.000000 -0.998417
vn 1.000000 0.000000 0.000000
vn 0.056249 0.000000 -0.998417
vn 0.056249 0.000000 -0.998417
vn 0.971392 0.237483 0.000000
vn 0.000000 0.261553 0.965189
vn 0.000000 0.261553 0.965189
vn 0.971392 0.237483 0.000000
vn 0.944305 0.329071 0.000000
vn 0.912153 0.409849 0.000000
vn 0.883387 0.468644 0.000000
vn 0.883387 0.468644 0.000000
vn -0.054146 -0.998533 0.000000
vn -0.054146 -0.998533 0.000000
vn -0.054146 -0.998533 0.000000
vn -0.944305 0.329071 0.000000
vn -0.912153 0.409849 0.000000
vn -0.883387 0.468644 0.000000
vn -0.883387 0.468644 0.000000
vn 0.000000 0.506956 -0.861972
vn 0.000000 0.445858 -0.895104
vn 0.000000 1.000000 0.000000
vn 0.000000 0.360347 -0.932818
vn 0.000000 0.506956 -0.861972
vn 0.000000 0.506956 0.861972
vn 0.000000 0.445858 0.895104
vn 0.000000 0.506956 0.861972
vn 1.000000 0.000000 0.000000
vn 0.000000 1.000000 0.000000
vn 0.000000 1.000000 0.000000
vn 0.000000 0.360347 0.932818
vn 0.000000 1.000000 0.000000
vn -0.054847 0.998495 0.000000
vn -0.056249 0.000000 -0.998417
vn -0.056249 0.000000 -0.998417
vn -0.056249 0.000000 -0.998417
vn -0.054847 0.998495 0.000000
vn -0.056950 0.000000 0.998377
vn -0.056950 0.000000 0.998377
vn -0.056950 0.000000 0.998377
vn 1.000000 0.000000 0.000000
vn -1.000000 0.000000 0.000000
vn -1.000000 0.000000 0.000000
vn -1.000000 0.000000 0.000000
vn 1.000000 0.000000 0.000000
vn 1.000000 0.000000 0.000000
vn -0.056249 0.000000 -0.998417
vn -1.000000 0.000000 0.000000
vn -0.054847 0.998495 0.000000
vn -0.054847 0.998495 0.000000
vn -0.054146 -0.998533 0.000000
vn -0.056950 0.000000 0.998377
f 44/44/44 47/47/47 48/48/48
f 4/4/4 13/13/13 1/1/1
f 16/16/16 13/13/13 4/4/4
f 16/16/16 14/14/14 13/13/13
f 15/15/15 14/14/14 16/16/16
f 3/3/3 2/2/2 19/19/19
f 19/19/19 2/2/2 18/18/18
f 19/19/19 18/18/18 20/20/20
f 20/20/20 18/18/18 17/17/17
f 8/8/8 9/9/9 5/5/5
f 12/12/12 9/9/9 8/8/8
f 12/12/12 10/10/10 9/9/9
f 11/11/11 10/10/10 12/12/12
f 7/7/7 29/29/29 6/6/6
f 32/32/32 29/29/29 7/7/7
f 32/32/32 30/30/30 29/29/29
f 31/31/31 30/30/30 32/32/32
f 24/24/24 22/22/22 21/21/21
f 23/23/23 22/22/22 24/24/24
f 26/26/26 27/27/27 25/25/25
f 46/46/46 27/27/27 26/26/26
f 45/45/45 46/46/46 26/26/26
f 41/41/41 43/43/43 28/28/28
f 42/42/42 43/43/43 41/41/41
f 34/34/34 35/35/35 36/36/36
f 50/50/50 35/35/35 34/34/34
f 49/49/49 37/37/37 33/33/33
f 39/39/39 37/37/37 49/49/49
f 60/60/60 67/67/67 57/57/57
f 66/66/66 67/67/67 60/60/60
f 86/86/86 67/67/67 66/66/66
f 94/94/94 67/67/67 86/86/86
f 87/87/87 94/94/94 86/86/86
f 101/101/101 94/94/94 87/87/87
f 101/101/101 97/97/97 94/94/94
f 99/99/99 97/97/97 101/101/101
f 59/59/59 69/69/69 58/58/58
f 72/72/72 69/69/69 59/59/59
f 72/72/72 70/70/70 69/69/69
f 71/71/71 70/70/70 72/72/72
f 70/70/70 71/71/71 55/55/55
f 38/38/38 70/70/70 55/55/55
f 40/40/40 70/70/70 38/38/38
f 40/40/40 38/38/38 52/52/52
f 51/51/51 40/40/40 52/52/52
f 56/56/56 40/40/40 51/51/51
f 55/55/55 71/71/71 54/54/54
f 71/71/71 53/53/53 54/54/54
f 71/71/71 56/56/56 53/53/53
f 53/53/53 56/56/56 51/51/51
f 76/76/76 64/64/64 61/61/61
f 73/73/73 64/64/64 76/76/76
f 76/76/76 83/83/83 73/73/73
f 104/104/104 83/83/83 76/76/76
f 104/104/104 100/100/100 83/83/83
f 83/83/83 100/100/100 82/82/82
f 104/104/104 98/98/98 100/100/100
f 103/103/103 98/98/98 104/104/104
f 63/63/63 65/65/65 62/62/62
f 68/68/68 65/65/65 63/63/63
f 75/75/75 81/81/81 74/74/74
f 84/84/84 81/81/81 75/75/75
f 88/88/88 85/85/85 77/77/77
f 77/77/77 85/85/85 78/78/78
f 78/78/78 79/79/79 77/77/77
f 106/106/106 79/79/79 78/78/78
f 95/95/95 96/96/96 93/93/93
f 102/102/102 96/96/96 95/95/95
f 105/105/105 89/89/89 80/80/80
f 90/90/90 89/89/89 105/105/105
f 108/108/108 92/92/92 91/91/91
f 107/107/107 92/92/92 108/108/108
f 112/112/112 110/110/110 109/109/109
f 111/111/111 110/110/110 112/112/112
f 116/116/116 114/114/114 113/113/113
f 115/115/115 114/114/114 116/116/116
f 120/120/120 118/118/118 117/117/117
f 119/119/119 118/118/118 120/120/120
f 124/124/124 122/122/122 121/121/121
f 123/123/123 122/122/122 124/124/124
f 128/128/128 126/126/126 125/125/125
f 127/127/127 126/126/126 128/128/128
f 132/132/132 130/130/130 129/129/129
f 131/131/131 130/130/130 132/132/132
f 136/136/136 134/134/134 133/133/133
f 135/135/135 134/134/134 136/136/136
f 140/140/140 138/138/138 137/137/137
f 139/139/139 138/138/138 140/140/140
f 142/142/142 144/144/144 141/141/141
f 143/143/143 144/144/144 142/142/142
f 161/161/161 165/165/165 162/162/162
f 168/168/168 165/165/165 161/161/161
f 167/167/167 145/145/145 166/166/166
f 146/146/146 145/145/145 167/167/167
f 147/147/147 164/164/164 148/148/148
f 163/163/163 164/164/164 147/147/147
f 172/172/172 170/170/170 169/169/169
f 171/171/171 170/170/170 172/172/172
f 150/150/150 151/151/151 149/149/149
f 152/152/152 151/151/151 150/150/150
f 158/158/158 173/173/173 157/157/157
f 176/176/176 173/173/173 158/158/158
f 175/175/175 153/153/153 174/174/174
f 154/154/154 153/153/153 175/175/175
f 156/156/156 159/159/159 155/155/155
f 160/160/160 159/159/159 156/156/156
f 180/180/180 178/178/178 177/177/177
f 179/179/179 178/178/178 180/180/180
f 184/184/184 182/182/182 181/181/181
f 183/183/183 182/182/182 184/184/184
f 188/188/188 186/186/186 185/185/185
f 187/187/187 186/186/186 188/188/188
f 192/192/192 190/190/190 189/189/189
f 191/191/191 190/190/190 192/192/192
f 196/196/196 194/194/194 193/193/193
f 195/195/195 194/194/194 196/196/196
f 200/200/200 198/198/198 197/197/197
f 199/199/199 198/198/198 200/200/200
f 204/204/204 202/202/202 201/201/201
f 203/203/203 202/202/202 204/204/204
f 208/208/208 206/206/206 205/205/205
f 207/207/207 206/206/206 208/208/208
f 212/212/212 210/210/210 209/209/209
f 211/211/211 210/210/210 212/212/212
f 216/216/216 214/214/214 213/213/213
f 215/215/215 214/214/214 216/216/216
f 220/220/220 218/218/218 217/217/217
f 219/219/219 218/218/218 220/220/220
f 224/224/224 222/222/222 221/221/221
f 223/223/223 222/222/222 224/224/224
f 228/228/228 226/226/226 225/225/225
f 227/227/227 226/226/226 228/228/228
f 232/232/232 230/230/230 229/229/229
f 231/231/231 230/230/230 232/232/232
f 236/236/236 234/234/234 233/233/233
f 235/235/235 234/234/234 236/236/236
f 240/240/240 238/238/238 237/237/237
f 239/239/239 238/238/238 240/240/240
f 239/239/239 257/257/257 238/238/238
f 260/260/260 257/257/257 239/239/239
f 260/260/260 261/261/261 257/257/257
f 264/264/264 261/261/261 260/260/260
f 264/264/264 262/262/262 261/261/261
f 263/263/263 262/262/262 264/264/264
f 244/244/244 242/242/242 241/241/241
f 243/243/243 242/242/242 244/244/244
f 243/243/243 258/258/258 242/242/242
f 259/259/259 258/258/258 243/243/243
f 259/259/259 265/265/265 258/258/258
f 268/268/268 265/265/265 259/259/259
f 268/268/268 266/266/266 265/265/265
f 267/267/267 266/266/266 268/268/268
f 248/248/248 246/246/246 245/245/245
f 247/247/247 246/246/246 248/248/248
f 247/247/247 256/256/256 246/246/246
f 253/253/253 256/256/256 247/247/247
f 272/272/272 256/256/256 253/253/253
f 269/269/269 256/256/256 272/272/272
f 272/272/272 270/270/270 269/269/269
f 271/271/271 270/270/270 272/272/272
f 252/252/252 250/250/250 249/249/249
f 251/251/251 250/250/250 252/252/252
f 251/251/251 255/255/255 250/250/250
f 254/254/254 255/255/255 251/251/251
f 276/276/276 255/255/255 254/254/254
f 273/273/273 255/255/255 276/276/276
f 276/276/276 274/274/274 273/273/273
f 275/275/275 274/274/274 276/276/276
f 280/280/280 278/278/278 277/277/277
f 279/279/279 278/278/278 280/280/280
f 284/284/284 282/282/282 281/281/281
f 283/283/283 282/282/282 284/284/284
f 288/288/288 286/286/286 285/285/285
f 287/287/287 286/286/286 288/288/288
f 292/292/292 290/290/290 289/289/289
f 291/291/291 290/290/290 292/292/292
f 296/296/296 294/294/294 293/293/293
f 295/295/295 294/294/294 296/296/296
f 300/300/300 298/298/298 297/297/297
f 299/299/299 298/298/298 300/300/300
f 304/304/304 302/302/302 301/301/301
f 303/303/303 302/302/302 304/304/304
f 308/308/308 306/306/306 305/305/305
f 307/307/307 306/306/306 308/308/308
f 312/312/312 336/336/336 309/309/309
f 335/335/335 336/336/336 312/312/312
f 335/335/335 339/339/339 336/336/336
f 342/342/342 339/339/339 335/335/335
f 311/311/311 338/338/338 310/310/310
f 324/324/324 338/338/338 311/311/311
f 324/324/324 323/323/323 338/338/338
f 337/337/337 323/323/323 324/324/324
f 316/316/316 330/330/330 313/313/313
f 329/329/329 330/330/330 316/316/316
f 332/332/332 330/330/330 329/329/329
f 331/331/331 330/330/330 332/332/332
f 315/315/315 319/319/319 314/314/314
f 317/317/317 319/319/319 315/315/315
f 318/318/318 319/319/319 317/317/317
f 320/320/320 319/319/319 318/318/318
f 341/341/341 351/351/351 340/340/340
f 354/354/354 351/351/351 341/341/341
f 353/353/353 321/321/321 352/352/352
f 322/322/322 321/321/321 353/353/353
f 356/356/356 355/355/355 344/344/344
f 343/343/343 355/355/355 356/356/356
f 362/362/362 363/363/363 364/364/364
f 366/366/366 363/363/363 362/362/362
f 365/365/365 368/368/368 367/367/367
f 361/361/361 368/368/368 365/365/365
f 346/346/346 347/347/347 345/345/345
f 358/358/358 347/347/347 346/346/346
f 357/357/357 325/325/325 348/348/348
f 326/326/326 325/325/325 357/357/357
f 333/333/333 328/328/328 327/327/327
f 334/334/334 328/328/328 333/333/333
f 380/380/380 360/360/360 350/350/350
f 381/381/381 360/360/360 380/380/380
f 383/383/383 381/381/381 380/380/380
f 382/382/382 381/381/381 383/383/383
f 359/359/359 387/387/387 349/349/349
f 349/349/349 387/387/387 385/385/385
f 387/387/387 388/388/388 385/385/385
f 385/385/385 388/388/388 384/384/384
f 373/373/373 372/372/372 369/369/369
f 374/374/374 372/372/372 373/373/373
f 376/376/376 374/374/374 373/373/373
f 375/375/375 374/374/374 376/376/376
f 395/395/395 371/371/371 370/370/370
f 390/390/390 371/371/371 395/395/395
f 389/389/389 390/390/390 395/395/395
f 391/391/391 390/390/390 389/389/389
f 393/393/393 396/396/396 386/386/386
f 394/394/394 396/396/396 393/393/393
f 392/392/392 409/409/409 410/410/410
f 405/405/405 409/409/409 392/392/392
f 407/407/407 412/412/412 406/406/406
f 408/408/408 412/412/412 407/407/407
f 400/400/400 399/399/399 411/411/411
f 398/398/398 399/399/399 400/400/400
f 414/414/414 413/413/413 397/397/397
f 401/401/401 413/413/413 414/414/414
f 403/403/403 416/416/416 402/402/402
f 404/404/404 416/416/416 403/403/403
f 379/379/379 378/378/378 415/415/415
f 377/377/377 378/378/378 379/379/379
