# Exported by s4extract — object_GrillFood_lod01_g00
o object_GrillFood_lod01_g00
v 0.125584 0.002441 -0.235298
v 0.149724 0.005982 -0.262276
v 0.149266 0.024171 -0.261727
v 0.125095 0.020631 -0.234779
v -0.169225 0.001923 0.073763
v -0.159459 0.003906 0.122135
v -0.141026 0.003052 0.096927
v 0.178716 0.007599 -0.240059
v 0.153233 -0.000031 -0.211585
v 0.150609 0.018983 -0.208625
v 0.176122 0.026612 -0.237098
v 0.149724 0.005982 -0.262276
v 0.178716 0.007599 -0.240059
v 0.176122 0.026612 -0.237098
v 0.149266 0.024171 -0.261727
v -0.140660 0.022706 0.096438
v -0.141026 0.003052 0.096927
v -0.167150 0.019990 0.070894
v 0.125584 0.002441 -0.235298
v 0.153233 -0.000031 -0.211585
v 0.178716 0.007599 -0.240059
v 0.149724 0.005982 -0.262276
v 0.125095 0.020631 -0.234779
v 0.150609 0.018983 -0.208625
v 0.153233 -0.000031 -0.211585
v 0.125584 0.002441 -0.235298
v 0.149266 0.024171 -0.261727
v 0.176122 0.026612 -0.237098
v 0.150609 0.018983 -0.208625
v 0.125095 0.020631 -0.234779
v 0.178991 0.018616 -0.232124
v 0.153447 0.023804 -0.209662
v 0.150548 0.007996 -0.207129
v 0.176092 0.002808 -0.229560
v 0.173254 0.024506 -0.178564
v 0.205237 0.022034 -0.206671
v 0.204382 0.002106 -0.205908
v 0.172399 0.004578 -0.177801
v 0.153447 0.023804 -0.209662
v 0.173254 0.024506 -0.178564
v 0.172399 0.004578 -0.177801
v 0.150548 0.007996 -0.207129
v 0.178991 0.018616 -0.232124
v 0.205237 0.022034 -0.206671
v 0.173254 0.024506 -0.178564
v 0.153447 0.023804 -0.209662
v 0.176092 0.002808 -0.229560
v 0.204382 0.002106 -0.205908
v 0.205237 0.022034 -0.206671
v 0.178991 0.018616 -0.232124
v 0.150548 0.007996 -0.207129
v 0.172399 0.004578 -0.177801
v 0.204382 0.002106 -0.205908
v 0.176092 0.002808 -0.229560
v 0.200385 0.005860 -0.201453
v 0.224921 0.002106 -0.182196
v 0.227027 0.020753 -0.180517
v 0.202521 0.024506 -0.199774
v 0.204474 0.003235 -0.151921
v 0.177953 0.003235 -0.172735
v 0.177953 0.023377 -0.172735
v 0.204474 0.023377 -0.151921
v 0.224921 0.002106 -0.182196
v 0.204474 0.003235 -0.151921
v 0.204474 0.023377 -0.151921
v 0.227027 0.020753 -0.180517
v 0.200385 0.005860 -0.201453
v 0.177953 0.003235 -0.172735
v 0.204474 0.003235 -0.151921
v 0.224921 0.002106 -0.182196
v 0.202521 0.024506 -0.199774
v 0.177953 0.023377 -0.172735
v 0.177953 0.003235 -0.172735
v 0.200385 0.005860 -0.201453
v 0.227027 0.020753 -0.180517
v 0.204474 0.023377 -0.151921
v 0.177953 0.023377 -0.172735
v 0.202521 0.024506 -0.199774
v 0.200537 0.006623 -0.144414
v 0.229316 0.001923 -0.169591
v 0.231971 0.019990 -0.171941
v 0.203223 0.024689 -0.146764
v 0.252235 0.022706 -0.141240
v 0.251778 0.003052 -0.140843
v 0.228278 0.003906 -0.120273
v 0.228736 0.023560 -0.120670
v 0.229316 0.001923 -0.169591
v 0.251778 0.003052 -0.140843
v 0.252235 0.022706 -0.141240
v 0.231971 0.019990 -0.171941
v 0.200537 0.006623 -0.144414
v 0.228278 0.003906 -0.120273
v 0.251778 0.003052 -0.140843
v 0.229316 0.001923 -0.169591
v 0.203223 0.024689 -0.146764
v 0.228736 0.023560 -0.120670
v 0.228278 0.003906 -0.120273
v 0.200537 0.006623 -0.144414
v 0.231971 0.019990 -0.171941
v 0.252235 0.022706 -0.141240
v 0.228736 0.023560 -0.120670
v 0.203223 0.024689 -0.146764
v 0.269326 0.017640 -0.100589
v 0.265633 0.009827 -0.097354
v 0.273019 0.009827 -0.103854
v 0.273019 0.009827 -0.103854
v 0.129215 0.011109 -0.265145
v 0.126713 0.016388 -0.262947
v 0.124210 0.011109 -0.260750
v 0.269326 0.017640 -0.100589
v 0.265633 0.009827 -0.097354
v 0.269326 0.017640 -0.100589
v 0.129215 0.011109 -0.265145
v 0.126713 0.016388 -0.262947
v 0.126713 0.016388 -0.262947
v 0.124210 0.011109 -0.260750
v 0.129215 0.011109 -0.265145
v 0.124210 0.011109 -0.260750
v -0.159459 0.003906 0.122135
v -0.169225 0.001923 0.073763
v -0.191809 0.006623 0.104617
v 0.265633 0.009827 -0.097354
v -0.084140 0.002441 -0.219153
v -0.084506 0.020631 -0.218543
v 0.273019 0.009827 -0.103854
v -0.065920 0.005982 -0.250435
v -0.033021 0.007599 -0.234535
v -0.035005 0.026612 -0.231086
v -0.066286 0.024171 -0.249825
v -0.191809 0.006623 0.104617
v -0.189703 0.024689 0.101749
v -0.141026 0.003052 0.096927
v -0.052278 -0.000031 -0.201514
v -0.065920 0.005982 -0.250435
v -0.066286 0.024171 -0.249825
v -0.054231 0.018983 -0.198065
v -0.033021 0.007599 -0.234535
v -0.084140 0.002441 -0.219153
v -0.065920 0.005982 -0.250435
v -0.035005 0.026612 -0.231086
v -0.052278 -0.000031 -0.201514
v -0.084506 0.020631 -0.218543
v -0.084140 0.002441 -0.219153
v -0.033021 0.007599 -0.234535
v -0.054231 0.018983 -0.198065
v -0.066286 0.024171 -0.249825
v -0.084506 0.020631 -0.218543
v -0.052278 -0.000031 -0.201514
v -0.035005 0.026612 -0.231086
v -0.031159 0.018616 -0.226814
v -0.033509 0.002808 -0.223701
v -0.054231 0.018983 -0.198065
v -0.051668 0.023804 -0.199683
v -0.026002 0.024506 -0.173193
v -0.026704 0.004578 -0.172277
v -0.054018 0.007996 -0.196570
v -0.000336 0.022034 -0.207160
v -0.051668 0.023804 -0.199683
v -0.054018 0.007996 -0.196570
v -0.001038 0.002106 -0.206244
v -0.026002 0.024506 -0.173193
v -0.031159 0.018616 -0.226814
v -0.051668 0.023804 -0.199683
v -0.026704 0.004578 -0.172277
v -0.000336 0.022034 -0.207160
v -0.033509 0.002808 -0.223701
v -0.031159 0.018616 -0.226814
v -0.026002 0.024506 -0.173193
v -0.001038 0.002106 -0.206244
v -0.054018 0.007996 -0.196570
v -0.033509 0.002808 -0.223701
v -0.000336 0.022034 -0.207160
v -0.026704 0.004578 -0.172277
v -0.004028 0.005860 -0.201056
v -0.001617 0.024506 -0.199866
v -0.001038 0.002106 -0.206244
v 0.023865 0.002106 -0.187140
v 0.009949 0.003235 -0.153386
v 0.009949 0.023377 -0.153386
v 0.026276 0.020753 -0.185949
v -0.020203 0.003235 -0.168432
v 0.023865 0.002106 -0.187140
v 0.026276 0.020753 -0.185949
v -0.020203 0.023377 -0.168432
v 0.009949 0.003235 -0.153386
v -0.004028 0.005860 -0.201056
v 0.023865 0.002106 -0.187140
v 0.009949 0.023377 -0.153386
v -0.020203 0.003235 -0.168432
v -0.001617 0.024506 -0.199866
v -0.004028 0.005860 -0.201056
v 0.009949 0.003235 -0.153386
v -0.020203 0.023377 -0.168432
v 0.026276 0.020753 -0.185949
v -0.001617 0.024506 -0.199866
v -0.020203 0.003235 -0.168432
v 0.009949 0.023377 -0.153386
v 0.007599 0.006623 -0.145238
v 0.009766 0.024689 -0.148076
v -0.020203 0.023377 -0.168432
v 0.030702 0.001923 -0.175695
v 0.058870 0.022706 -0.152562
v 0.040010 0.023560 -0.127689
v 0.032838 0.019990 -0.178533
v 0.058504 0.003052 -0.152074
v 0.030702 0.001923 -0.175695
v 0.032838 0.019990 -0.178533
v 0.039644 0.003906 -0.127201
v 0.058504 0.003052 -0.152074
v 0.007599 0.006623 -0.145238
v 0.030702 0.001923 -0.175695
v 0.058870 0.022706 -0.152562
v 0.039644 0.003906 -0.127201
v 0.009766 0.024689 -0.148076
v 0.007599 0.006623 -0.145238
v 0.058504 0.003052 -0.152074
v 0.040010 0.023560 -0.127689
v 0.032838 0.019990 -0.178533
v 0.009766 0.024689 -0.148076
v 0.039644 0.003906 -0.127201
v 0.058870 0.022706 -0.152562
v 0.083804 0.017640 -0.116184
v 0.086795 0.009827 -0.120121
v 0.040010 0.023560 -0.127689
v 0.080844 0.009827 -0.112278
v -0.086581 0.011109 -0.249123
v 0.083804 0.017640 -0.116184
v 0.086795 0.009827 -0.120121
v -0.088595 0.016388 -0.246467
v 0.080844 0.009827 -0.112278
v -0.088595 0.016388 -0.246467
v -0.090609 0.011109 -0.243812
v -0.167150 0.019990 0.070894
v -0.159459 0.003906 0.122135
v -0.159124 0.023560 0.121616
v 0.083804 0.017640 -0.116184
v -0.088595 0.016388 -0.246467
v -0.090609 0.011109 -0.243812
v -0.086581 0.011109 -0.249123
v -0.090609 0.011109 -0.243812
v 0.080844 0.009827 -0.112278
v 0.086795 0.009827 -0.120121
v -0.086581 0.011109 -0.249123
v -0.159124 0.023560 0.121616
v -0.140660 0.022706 0.096438
v -0.189703 0.024689 0.101749
v -0.265816 0.002441 -0.245247
v -0.238075 0.005982 -0.268532
v -0.238624 0.024171 -0.268075
v -0.266366 0.020631 -0.244789
v -0.212500 0.007599 -0.242439
v -0.241768 -0.000031 -0.217872
v -0.244789 0.018983 -0.215308
v -0.215522 0.026612 -0.239906
v -0.238075 0.005982 -0.268532
v -0.212500 0.007599 -0.242439
v -0.215522 0.026612 -0.239906
v -0.238624 0.024171 -0.268075
v -0.265816 0.002441 -0.245247
v -0.241768 -0.000031 -0.217872
v -0.212500 0.007599 -0.242439
v -0.238075 0.005982 -0.268532
v -0.266366 0.020631 -0.244789
v -0.244789 0.018983 -0.215308
v -0.241768 -0.000031 -0.217872
v -0.265816 0.002441 -0.245247
v -0.238624 0.024171 -0.268075
v -0.215522 0.026612 -0.239906
v -0.244789 0.018983 -0.215308
v -0.266366 0.020631 -0.244789
v -0.213355 0.018616 -0.234535
v -0.241829 0.023804 -0.215949
v -0.245064 0.007996 -0.213813
v -0.216620 0.002808 -0.232429
v -0.226600 0.024506 -0.182348
v -0.190954 0.022034 -0.205664
v -0.191931 0.002106 -0.205023
v -0.227577 0.004578 -0.181738
v -0.241829 0.023804 -0.215949
v -0.226600 0.024506 -0.182348
v -0.227577 0.004578 -0.181738
v -0.245064 0.007996 -0.213813
v -0.213355 0.018616 -0.234535
v -0.190954 0.022034 -0.205664
v -0.226600 0.024506 -0.182348
v -0.241829 0.023804 -0.215949
v -0.216620 0.002808 -0.232429
v -0.191931 0.002106 -0.205023
v -0.190954 0.022034 -0.205664
v -0.213355 0.018616 -0.234535
v -0.245064 0.007996 -0.213813
v -0.227577 0.004578 -0.181738
v -0.191931 0.002106 -0.205023
v -0.216620 0.002808 -0.232429
v -0.196509 0.005860 -0.201178
v -0.174963 0.002106 -0.178625
v -0.173101 0.020753 -0.176702
v -0.194647 0.024506 -0.199225
v -0.199469 0.003235 -0.151555
v -0.222785 0.003235 -0.175909
v -0.222785 0.023377 -0.175909
v -0.199469 0.023377 -0.151555
v -0.174963 0.002106 -0.178625
v -0.199469 0.003235 -0.151555
v -0.199469 0.023377 -0.151555
v -0.173101 0.020753 -0.176702
v -0.196509 0.005860 -0.201178
v -0.222785 0.003235 -0.175909
v -0.199469 0.003235 -0.151555
v -0.174963 0.002106 -0.178625
v -0.194647 0.024506 -0.199225
v -0.222785 0.023377 -0.175909
v -0.222785 0.003235 -0.175909
v -0.196509 0.005860 -0.201178
v -0.173101 0.020753 -0.176702
v -0.199469 0.023377 -0.151555
v -0.222785 0.023377 -0.175909
v -0.194647 0.024506 -0.199225
v -0.204413 0.006623 -0.144688
v -0.172399 0.001923 -0.165563
v -0.169408 0.019990 -0.167516
v -0.201453 0.024689 -0.146641
v -0.153691 0.022706 -0.134251
v -0.154210 0.003052 -0.133915
v -0.180364 0.003906 -0.116886
v -0.179876 0.023560 -0.117222
v -0.172399 0.001923 -0.165563
v -0.154210 0.003052 -0.133915
v -0.153691 0.022706 -0.134251
v -0.169408 0.019990 -0.167516
v -0.204413 0.006623 -0.144688
v -0.180364 0.003906 -0.116886
v -0.154210 0.003052 -0.133915
v -0.172399 0.001923 -0.165563
v -0.201453 0.024689 -0.146641
v -0.179876 0.023560 -0.117222
v -0.180364 0.003906 -0.116886
v -0.204413 0.006623 -0.144688
v -0.169408 0.019990 -0.167516
v -0.153691 0.022706 -0.134251
v -0.179876 0.023560 -0.117222
v -0.201453 0.024689 -0.146641
v -0.142521 0.017640 -0.091586
v -0.146641 0.009827 -0.088900
v -0.138401 0.009827 -0.094302
v -0.138401 0.009827 -0.094302
v -0.118015 0.009827 0.136357
v -0.112217 0.009827 0.128391
v -0.115116 0.017640 0.132359
v -0.257973 0.011109 -0.274300
v -0.260750 0.016388 -0.272469
v -0.263558 0.011109 -0.270638
v -0.142521 0.017640 -0.091586
v -0.146641 0.009827 -0.088900
v -0.142521 0.017640 -0.091586
v -0.257973 0.011109 -0.274300
v -0.260750 0.016388 -0.272469
v -0.115116 0.017640 0.132359
v -0.287759 0.011109 0.002380
v -0.112217 0.009827 0.128391
v -0.260750 0.016388 -0.272469
v -0.263558 0.011109 -0.270638
v -0.257973 0.011109 -0.274300
v -0.263558 0.011109 -0.270638
v -0.146641 0.009827 -0.088900
v 0.123417 0.002441 0.017701
v 0.122959 0.020631 0.018250
v -0.138401 0.009827 -0.094302
v 0.146489 0.005982 -0.010193
v 0.176336 0.007599 0.010834
v 0.173833 0.026612 0.013886
v 0.146031 0.024171 -0.009644
v 0.151982 -0.000031 0.040284
v 0.146489 0.005982 -0.010193
v 0.146031 0.024171 -0.009644
v 0.149510 0.018983 0.043367
v 0.176336 0.007599 0.010834
v 0.123417 0.002441 0.017701
v 0.146489 0.005982 -0.010193
v 0.173833 0.026612 0.013886
v 0.151982 -0.000031 0.040284
v 0.122959 0.020631 0.018250
v 0.123417 0.002441 0.017701
v 0.176336 0.007599 0.010834
v 0.149510 0.018983 0.043367
v 0.146031 0.024171 -0.009644
v 0.122959 0.020631 0.018250
v 0.151982 -0.000031 0.040284
v 0.173833 0.026612 0.013886
v 0.176946 0.018616 0.018769
v 0.174108 0.002808 0.021424
v 0.149510 0.018983 0.043367
v 0.152287 0.023804 0.042207
v 0.173315 0.024506 0.072481
v 0.172491 0.004578 0.073275
v 0.149480 0.007996 0.044862
v 0.204169 0.022034 0.043153
v 0.152287 0.023804 0.042207
v 0.149480 0.007996 0.044862
v 0.203345 0.002106 0.043947
v 0.173315 0.024506 0.072481
v 0.176946 0.018616 0.018769
v 0.152287 0.023804 0.042207
v 0.172491 0.004578 0.073275
v 0.204169 0.022034 0.043153
v 0.174108 0.002808 0.021424
v 0.176946 0.018616 0.018769
v 0.173315 0.024506 0.072481
v 0.203345 0.002106 0.043947
v 0.149480 0.007996 0.044862
v 0.174108 0.002808 0.021424
v 0.204169 0.022034 0.043153
v 0.172491 0.004578 0.073275
v 0.199530 0.005860 0.048555
v 0.201697 0.024506 0.050142
v 0.203345 0.002106 0.043947
v 0.224799 0.002106 0.066836
v 0.205573 0.003235 0.097903
v 0.205573 0.023377 0.097903
v 0.226966 0.020753 0.068422
v 0.178259 0.003235 0.078158
v 0.224799 0.002106 0.066836
v 0.226966 0.020753 0.068422
v 0.178259 0.023377 0.078158
v 0.205573 0.003235 0.097903
v 0.199530 0.005860 0.048555
v 0.224799 0.002106 0.066836
v 0.205573 0.023377 0.097903
v 0.178259 0.003235 0.078158
v 0.201697 0.024506 0.050142
v 0.199530 0.005860 0.048555
v 0.205573 0.003235 0.097903
v 0.178259 0.023377 0.078158
v 0.226966 0.020753 0.068422
v 0.201697 0.024506 0.050142
v 0.178259 0.003235 0.078158
v 0.205573 0.023377 0.097903
v 0.201941 0.006623 0.105533
v 0.204505 0.024689 0.103092
v 0.178259 0.023377 0.078158
v 0.229682 0.001923 0.079226
v 0.253731 0.022706 0.106662
v 0.231056 0.023560 0.128147
v 0.232246 0.019990 0.076785
v 0.253273 0.003052 0.107059
v 0.229682 0.001923 0.079226
v 0.232246 0.019990 0.076785
v 0.230598 0.003906 0.128544
v 0.253273 0.003052 0.107059
v 0.201941 0.006623 0.105533
v 0.229682 0.001923 0.079226
v 0.253731 0.022706 0.106662
v 0.230598 0.003906 0.128544
v 0.204505 0.024689 0.103092
v 0.201941 0.006623 0.105533
v 0.253273 0.003052 0.107059
v 0.231056 0.023560 0.128147
v 0.232246 0.019990 0.076785
v 0.204505 0.024689 0.103092
v 0.230598 0.003906 0.128544
v -0.118015 0.009827 0.136357
v -0.291696 0.011109 0.007752
v -0.289712 0.016388 0.005066
v 0.253731 0.022706 0.106662
v 0.272408 0.017640 0.146580
v 0.275979 0.009827 0.143193
v 0.231056 0.023560 0.128147
v 0.268838 0.009827 0.149968
v 0.125889 0.011109 -0.012268
v 0.272408 0.017640 0.146580
v 0.275979 0.009827 0.143193
v -0.287759 0.011109 0.002380
v -0.115116 0.017640 0.132359
v -0.289712 0.016388 0.005066
v 0.123478 0.016388 -0.009980
v 0.268838 0.009827 0.149968
v 0.123478 0.016388 -0.009980
v 0.121067 0.011109 -0.007691
v 0.272408 0.017640 0.146580
v 0.123478 0.016388 -0.009980
v 0.121067 0.011109 -0.007691
v 0.125889 0.011109 -0.012268
v 0.121067 0.011109 -0.007691
v 0.268838 0.009827 0.149968
v 0.275979 0.009827 0.143193
v 0.125889 0.011109 -0.012268
v -0.067110 0.002441 0.006073
v -0.039857 0.005982 -0.017762
v -0.040407 0.024171 -0.017273
v -0.067660 0.020631 0.006561
v -0.013764 0.007599 0.007813
v -0.042543 -0.000031 0.032991
v -0.045503 0.018983 0.035585
v -0.016724 0.026612 0.010437
v -0.039857 0.005982 -0.017762
v -0.013764 0.007599 0.007813
v -0.016724 0.026612 0.010437
v -0.040407 0.024171 -0.017273
v -0.067110 0.002441 0.006073
v -0.042543 -0.000031 0.032991
v -0.013764 0.007599 0.007813
v -0.039857 0.005982 -0.017762
v -0.067660 0.020631 0.006561
v -0.045503 0.018983 0.035585
v -0.042543 -0.000031 0.032991
v -0.067110 0.002441 0.006073
v -0.040407 0.024171 -0.017273
v -0.016724 0.026612 0.010437
v -0.045503 0.018983 0.035585
v -0.067660 0.020631 0.006561
v -0.014466 0.018616 0.015717
v -0.042543 0.023804 0.034913
v -0.045747 0.007996 0.037111
v -0.017670 0.002808 0.017914
v -0.026673 0.024506 0.068178
v 0.008515 0.022034 0.044160
v 0.007538 0.002106 0.044832
v -0.027619 0.004578 0.068819
v -0.042543 0.023804 0.034913
v -0.026673 0.024506 0.068178
v -0.027619 0.004578 0.068819
v -0.045747 0.007996 0.037111
v -0.014466 0.018616 0.015717
v 0.008515 0.022034 0.044160
v -0.026673 0.024506 0.068178
v -0.042543 0.023804 0.034913
v -0.017670 0.002808 0.017914
v 0.007538 0.002106 0.044832
v 0.008515 0.022034 0.044160
v -0.014466 0.018616 0.015717
v -0.045747 0.007996 0.037111
v -0.027619 0.004578 0.068819
v 0.007538 0.002106 0.044832
v -0.017670 0.002808 0.017914
v 0.003052 0.005860 0.048769
v 0.025056 0.002106 0.070864
v 0.026948 0.020753 0.072756
v 0.004944 0.024506 0.050691
v 0.001099 0.003235 0.098422
v -0.022706 0.003235 0.074557
v -0.022706 0.023377 0.074557
v 0.001099 0.023377 0.098422
v 0.025056 0.002106 0.070864
v 0.001099 0.003235 0.098422
v 0.001099 0.023377 0.098422
v 0.026948 0.020753 0.072756
v 0.003052 0.005860 0.048769
v -0.022706 0.003235 0.074557
v 0.001099 0.003235 0.098422
v 0.025056 0.002106 0.070864
v 0.004944 0.024506 0.050691
v -0.022706 0.023377 0.074557
v -0.022706 0.003235 0.074557
v 0.003052 0.005860 0.048769
v 0.026948 0.020753 0.072756
v 0.001099 0.023377 0.098422
v -0.022706 0.023377 0.074557
v 0.004944 0.024506 0.050691
v -0.003723 0.006623 0.105380
v 0.027894 0.001923 0.083895
v 0.030824 0.019990 0.081881
v -0.000763 0.024689 0.103397
v 0.047212 0.022706 0.114811
v 0.046724 0.003052 0.115146
v 0.020875 0.003906 0.132725
v 0.021393 0.023560 0.132359
v 0.027894 0.001923 0.083895
v 0.046724 0.003052 0.115146
v 0.047212 0.022706 0.114811
v 0.030824 0.019990 0.081881
v -0.003723 0.006623 0.105380
v 0.020875 0.003906 0.132725
v 0.046724 0.003052 0.115146
v 0.027894 0.001923 0.083895
v -0.291696 0.011109 0.007752
v -0.291696 0.011109 0.007752
v -0.289712 0.016388 0.005066
v -0.000763 0.024689 0.103397
v 0.021393 0.023560 0.132359
v 0.020875 0.003906 0.132725
v -0.003723 0.006623 0.105380
v 0.030824 0.019990 0.081881
v 0.047212 0.022706 0.114811
v 0.021393 0.023560 0.132359
v -0.000763 0.024689 0.103397
v -0.112217 0.009827 0.128391
v -0.118015 0.009827 0.136357
v -0.287759 0.011109 0.002380
v 0.059236 0.017640 0.157231
v 0.055177 0.009827 0.160009
v 0.063326 0.009827 0.154454
v 0.063326 0.009827 0.154454
v -0.059877 0.011109 -0.023103
v -0.062624 0.016388 -0.021210
v -0.065371 0.011109 -0.019349
v 0.059236 0.017640 0.157231
v 0.055177 0.009827 0.160009
v 0.059236 0.017640 0.157231
v -0.059877 0.011109 -0.023103
v -0.062624 0.016388 -0.021210
v -0.062624 0.016388 -0.021210
v -0.065371 0.011109 -0.019349
v -0.059877 0.011109 -0.023103
v -0.065371 0.011109 -0.019349
v 0.055177 0.009827 0.160009
v -0.284829 0.002441 0.032289
v -0.285165 0.020631 0.032929
v 0.063326 0.009827 0.154454
v -0.267129 0.005982 0.000702
v -0.233985 0.007599 0.016053
v -0.235878 0.026612 0.019501
v -0.267464 0.024171 0.001343
v -0.252632 -0.000031 0.049409
v -0.267129 0.005982 0.000702
v -0.267464 0.024171 0.001343
v -0.254555 0.018983 0.052858
v -0.233985 0.007599 0.016053
v -0.284829 0.002441 0.032289
v -0.267129 0.005982 0.000702
v -0.235878 0.026612 0.019501
v -0.252632 -0.000031 0.049409
v -0.285165 0.020631 0.032929
v -0.284829 0.002441 0.032289
v -0.233985 0.007599 0.016053
v -0.254555 0.018983 0.052858
v -0.267464 0.024171 0.001343
v -0.285165 0.020631 0.032929
v -0.252632 -0.000031 0.049409
v -0.235878 0.026612 0.019501
v -0.231971 0.018616 0.023743
v -0.234260 0.002808 0.026887
v -0.254555 0.018983 0.052858
v -0.251991 0.023804 0.051210
v -0.225898 0.024506 0.077242
v -0.226569 0.004578 0.078188
v -0.254280 0.007996 0.054353
v -0.200812 0.022034 0.042848
v -0.251991 0.023804 0.051210
v -0.254280 0.007996 0.054353
v -0.201483 0.002106 0.043764
v -0.225898 0.024506 0.077242
v -0.231971 0.018616 0.023743
v -0.251991 0.023804 0.051210
v -0.226569 0.004578 0.078188
v -0.200812 0.022034 0.042848
v -0.234260 0.002808 0.026887
v -0.231971 0.018616 0.023743
v -0.225898 0.024506 0.077242
v -0.201483 0.002106 0.043764
v -0.254280 0.007996 0.054353
v -0.234260 0.002808 0.026887
v -0.200812 0.022034 0.042848
v -0.226569 0.004578 0.078188
v -0.204413 0.005860 0.049013
v -0.201971 0.024506 0.050172
v -0.201483 0.002106 0.043764
v -0.176275 0.002106 0.062441
v -0.189611 0.003235 0.096438
v -0.189611 0.023377 0.096438
v -0.173833 0.020753 0.063601
v -0.220008 0.003235 0.081912
v -0.176275 0.002106 0.062441
v -0.173833 0.020753 0.063601
v -0.220008 0.023377 0.081912
v -0.189611 0.003235 0.096438
v -0.204413 0.005860 0.049013
v -0.176275 0.002106 0.062441
v -0.189611 0.023377 0.096438
v -0.220008 0.003235 0.081912
v -0.201971 0.024506 0.050172
v -0.204413 0.005860 0.049013
v -0.189611 0.003235 0.096438
v -0.220008 0.023377 0.081912
v -0.173833 0.020753 0.063601
v -0.201971 0.024506 0.050172
v -0.220008 0.003235 0.081912
v -0.189611 0.023377 0.096438
v -0.191809 0.006623 0.104617
v -0.189703 0.024689 0.101749
v -0.220008 0.023377 0.081912
v -0.169225 0.001923 0.073763
v -0.140660 0.022706 0.096438
v -0.159124 0.023560 0.121616
v -0.167150 0.019990 0.070894
vt 1.000000 0.003998
vt 0.763787 0.003998
vt 0.763787 0.253883
vt 1.000000 0.253883
vt 0.250404 0.003998
vt 0.252022 0.252693
vt 0.005585 0.252693
vt 0.763787 0.253883
vt 1.000000 0.253883
vt 1.000000 0.003998
vt 0.763787 0.003998
vt 1.000000 0.003998
vt 0.763787 0.003998
vt 0.763787 0.253883
vt 1.000000 0.253883
vt 0.005585 0.251167
vt 0.005585 0.003998
vt 0.250404 0.251167
vt 1.000000 0.264443
vt 0.763787 0.270638
vt 0.763787 0.730857
vt 1.000000 0.692434
vt 1.000000 0.003998
vt 0.763787 0.003998
vt 0.763787 0.253883
vt 1.000000 0.253883
vt 1.000000 0.264412
vt 0.763787 0.270669
vt 0.763787 0.730888
vt 1.000000 0.692404
vt 0.760949 0.003998
vt 0.501297 0.003998
vt 0.501297 0.256417
vt 0.760949 0.256417
vt 0.501297 0.256417
vt 0.760949 0.256417
vt 0.760949 0.003998
vt 0.501297 0.003998
vt 0.760949 0.003998
vt 0.501297 0.003998
vt 0.501297 0.256417
vt 0.760949 0.256417
vt 0.760949 0.291604
vt 0.501297 0.265786
vt 0.501297 0.801599
vt 0.760949 0.733787
vt 0.760949 0.003998
vt 0.501297 0.003998
vt 0.501297 0.256417
vt 0.760949 0.256417
vt 0.760949 0.291482
vt 0.501297 0.265908
vt 0.501297 0.801721
vt 0.760949 0.733665
vt 0.501602 0.003998
vt 0.246437 0.003998
vt 0.246437 0.250801
vt 0.501602 0.250801
vt 0.246437 0.250801
vt 0.501602 0.250801
vt 0.501602 0.003998
vt 0.246437 0.003998
vt 0.501602 0.003998
vt 0.246437 0.003998
vt 0.246437 0.250801
vt 0.501602 0.250801
vt 0.255959 0.251137
vt 0.259255 0.784082
vt 0.480514 0.784082
vt 0.460738 0.251137
vt 0.501602 0.003998
vt 0.246437 0.003998
vt 0.246437 0.250801
vt 0.501602 0.250801
vt 0.255989 0.251137
vt 0.259224 0.784082
vt 0.480483 0.784082
vt 0.460768 0.251137
vt 0.252022 0.003998
vt 0.005585 0.003998
vt 0.005585 0.252693
vt 0.252022 0.252693
vt 0.005585 0.003998
vt 0.005585 0.252693
vt 0.252022 0.252693
vt 0.252022 0.003998
vt 0.250404 0.003998
vt 0.005585 0.003998
vt 0.005585 0.251167
vt 0.250404 0.251167
vt 0.246742 0.285562
vt 0.009247 0.306375
vt 0.009247 0.743370
vt 0.246742 0.730094
vt 0.250404 0.003998
vt 0.005585 0.003998
vt 0.005585 0.251167
vt 0.250404 0.251167
vt 0.246742 0.285562
vt 0.009247 0.306375
vt 0.009247 0.743370
vt 0.246742 0.730094
vt 0.938780 0.858089
vt 0.983612 0.859066
vt 0.863430 0.973663
vt 0.961486 0.950652
vt 0.034333 0.973663
vt 0.034333 0.926969
vt 0.034333 0.877102
vt 0.863430 0.926969
vt 0.863460 0.877102
vt 0.863430 0.926969
vt 0.034333 0.828455
vt 0.034333 0.926969
vt 0.034333 0.926969
vt 0.034333 0.877102
vt 0.034333 0.828455
vt 0.034333 0.877102
vt 0.009247 0.306375
vt 0.246742 0.730094
vt 0.246742 0.285562
vt 0.863460 0.877102
vt 1.000000 0.003998
vt 1.000000 0.253883
vt 0.863430 0.828455
vt 0.763787 0.003998
vt 0.763787 0.253883
vt 0.763787 0.003998
vt 0.763787 0.253883
vt 0.250404 0.251167
vt 0.250404 0.003998
vt 0.009247 0.743370
vt 1.000000 0.253883
vt 1.000000 0.003998
vt 1.000000 0.253883
vt 1.000000 0.003998
vt 0.763787 0.003998
vt 1.000000 0.264443
vt 1.000000 0.692434
vt 0.763787 0.253883
vt 0.763787 0.270638
vt 1.000000 0.003998
vt 1.000000 0.253883
vt 0.763787 0.730857
vt 0.763787 0.003998
vt 1.000000 0.264412
vt 1.000000 0.692404
vt 0.763787 0.253883
vt 0.763787 0.270669
vt 0.760949 0.003998
vt 0.760949 0.256417
vt 0.763787 0.730888
vt 0.501297 0.003998
vt 0.501297 0.256417
vt 0.501297 0.003998
vt 0.501297 0.256417
vt 0.760949 0.256417
vt 0.760949 0.003998
vt 0.760949 0.256417
vt 0.760949 0.003998
vt 0.501297 0.003998
vt 0.760949 0.291604
vt 0.760949 0.733787
vt 0.501297 0.256417
vt 0.501297 0.265786
vt 0.760949 0.003998
vt 0.760949 0.256417
vt 0.501297 0.801599
vt 0.501297 0.003998
vt 0.760949 0.291482
vt 0.760949 0.733665
vt 0.501297 0.256417
vt 0.501297 0.265908
vt 0.501602 0.003998
vt 0.501602 0.250801
vt 0.501297 0.801721
vt 0.246437 0.003998
vt 0.246437 0.250801
vt 0.246437 0.003998
vt 0.246437 0.250801
vt 0.501602 0.250801
vt 0.501602 0.003998
vt 0.501602 0.250801
vt 0.501602 0.003998
vt 0.246437 0.003998
vt 0.255959 0.251137
vt 0.460738 0.251137
vt 0.246437 0.250801
vt 0.259255 0.784082
vt 0.501602 0.003998
vt 0.501602 0.250801
vt 0.480514 0.784082
vt 0.246437 0.003998
vt 0.255989 0.251137
vt 0.460768 0.251137
vt 0.246437 0.250801
vt 0.259224 0.784082
vt 0.252022 0.003998
vt 0.252022 0.252693
vt 0.480483 0.784082
vt 0.005585 0.003998
vt 0.005585 0.003998
vt 0.252022 0.003998
vt 0.005585 0.252693
vt 0.005585 0.252693
vt 0.250404 0.003998
vt 0.250404 0.251167
vt 0.252022 0.252693
vt 0.005585 0.003998
vt 0.246742 0.285562
vt 0.246742 0.730094
vt 0.005585 0.251167
vt 0.009247 0.306375
vt 0.250404 0.003998
vt 0.250404 0.251167
vt 0.009247 0.743370
vt 0.005585 0.003998
vt 0.246742 0.285562
vt 0.246742 0.730094
vt 0.005585 0.251167
vt 0.009247 0.306375
vt 0.938780 0.858089
vt 0.961486 0.950652
vt 0.009247 0.743370
vt 0.983612 0.859066
vt 0.034333 0.973663
vt 0.863430 0.926969
vt 0.863430 0.973663
vt 0.034333 0.926969
vt 0.863460 0.877102
vt 0.034333 0.926969
vt 0.034333 0.877102
vt 0.246742 0.285562
vt 0.005585 0.251167
vt 0.005585 0.003998
vt 0.863430 0.926969
vt 0.034333 0.926969
vt 0.034333 0.877102
vt 0.034333 0.828455
vt 0.034333 0.877102
vt 0.863460 0.877102
vt 0.863430 0.828455
vt 0.034333 0.828455
vt 0.009247 0.743370
vt 0.009247 0.306375
vt 0.246742 0.730094
vt 1.000000 0.003998
vt 0.763787 0.003998
vt 0.763787 0.253883
vt 1.000000 0.253883
vt 0.763787 0.253883
vt 1.000000 0.253883
vt 1.000000 0.003998
vt 0.763787 0.003998
vt 1.000000 0.003998
vt 0.763787 0.003998
vt 0.763787 0.253883
vt 1.000000 0.253883
vt 1.000000 0.264443
vt 0.763787 0.270638
vt 0.763787 0.730857
vt 1.000000 0.692434
vt 1.000000 0.003998
vt 0.763787 0.003998
vt 0.763787 0.253883
vt 1.000000 0.253883
vt 1.000000 0.264412
vt 0.763787 0.270669
vt 0.763787 0.730888
vt 1.000000 0.692404
vt 0.760949 0.003998
vt 0.501297 0.003998
vt 0.501297 0.256417
vt 0.760949 0.256417
vt 0.501297 0.256417
vt 0.760949 0.256417
vt 0.760949 0.003998
vt 0.501297 0.003998
vt 0.760949 0.003998
vt 0.501297 0.003998
vt 0.501297 0.256417
vt 0.760949 0.256417
vt 0.760949 0.291604
vt 0.501297 0.265786
vt 0.501297 0.801599
vt 0.760949 0.733787
vt 0.760949 0.003998
vt 0.501297 0.003998
vt 0.501297 0.256417
vt 0.760949 0.256417
vt 0.760949 0.291482
vt 0.501297 0.265908
vt 0.501297 0.801721
vt 0.760949 0.733665
vt 0.501602 0.003998
vt 0.246437 0.003998
vt 0.246437 0.250801
vt 0.501602 0.250801
vt 0.246437 0.250801
vt 0.501602 0.250801
vt 0.501602 0.003998
vt 0.246437 0.003998
vt 0.501602 0.003998
vt 0.246437 0.003998
vt 0.246437 0.250801
vt 0.501602 0.250801
vt 0.255959 0.251137
vt 0.259255 0.784082
vt 0.480514 0.784082
vt 0.460738 0.251137
vt 0.501602 0.003998
vt 0.246437 0.003998
vt 0.246437 0.250801
vt 0.501602 0.250801
vt 0.255989 0.251137
vt 0.259224 0.784082
vt 0.480483 0.784082
vt 0.460768 0.251137
vt 0.252022 0.003998
vt 0.005585 0.003998
vt 0.005585 0.252693
vt 0.252022 0.252693
vt 0.005585 0.003998
vt 0.005585 0.252693
vt 0.252022 0.252693
vt 0.252022 0.003998
vt 0.250404 0.003998
vt 0.005585 0.003998
vt 0.005585 0.251167
vt 0.250404 0.251167
vt 0.246742 0.285562
vt 0.009247 0.306375
vt 0.009247 0.743370
vt 0.246742 0.730094
vt 0.250404 0.003998
vt 0.005585 0.003998
vt 0.005585 0.251167
vt 0.250404 0.251167
vt 0.246742 0.285562
vt 0.009247 0.306375
vt 0.009247 0.743370
vt 0.246742 0.730094
vt 0.938780 0.858089
vt 0.983612 0.859066
vt 0.863430 0.973663
vt 0.961486 0.950652
vt 0.983612 0.859066
vt 0.961486 0.950652
vt 0.938780 0.858089
vt 0.034333 0.973663
vt 0.034333 0.926969
vt 0.034333 0.877102
vt 0.863430 0.926969
vt 0.863460 0.877102
vt 0.863430 0.926969
vt 0.034333 0.828455
vt 0.034333 0.926969
vt 0.863430 0.926969
vt 0.034333 0.973663
vt 0.863430 0.973663
vt 0.034333 0.926969
vt 0.034333 0.877102
vt 0.034333 0.828455
vt 0.034333 0.877102
vt 0.863460 0.877102
vt 1.000000 0.003998
vt 1.000000 0.253883
vt 0.863430 0.828455
vt 0.763787 0.003998
vt 0.763787 0.253883
vt 0.763787 0.003998
vt 0.763787 0.253883
vt 1.000000 0.253883
vt 1.000000 0.003998
vt 1.000000 0.253883
vt 1.000000 0.003998
vt 0.763787 0.003998
vt 1.000000 0.264443
vt 1.000000 0.692434
vt 0.763787 0.253883
vt 0.763787 0.270638
vt 1.000000 0.003998
vt 1.000000 0.253883
vt 0.763787 0.730857
vt 0.763787 0.003998
vt 1.000000 0.264412
vt 1.000000 0.692404
vt 0.763787 0.253883
vt 0.763787 0.270669
vt 0.760949 0.003998
vt 0.760949 0.256417
vt 0.763787 0.730888
vt 0.501297 0.003998
vt 0.501297 0.256417
vt 0.501297 0.003998
vt 0.501297 0.256417
vt 0.760949 0.256417
vt 0.760949 0.003998
vt 0.760949 0.256417
vt 0.760949 0.003998
vt 0.501297 0.003998
vt 0.760949 0.291604
vt 0.760949 0.733787
vt 0.501297 0.256417
vt 0.501297 0.265786
vt 0.760949 0.003998
vt 0.760949 0.256417
vt 0.501297 0.801599
vt 0.501297 0.003998
vt 0.760949 0.291482
vt 0.760949 0.733665
vt 0.501297 0.256417
vt 0.501297 0.265908
vt 0.501602 0.003998
vt 0.501602 0.250801
vt 0.501297 0.801721
vt 0.246437 0.003998
vt 0.246437 0.250801
vt 0.246437 0.003998
vt 0.246437 0.250801
vt 0.501602 0.250801
vt 0.501602 0.003998
vt 0.501602 0.250801
vt 0.501602 0.003998
vt 0.246437 0.003998
vt 0.255959 0.251137
vt 0.460738 0.251137
vt 0.246437 0.250801
vt 0.259255 0.784082
vt 0.501602 0.003998
vt 0.501602 0.250801
vt 0.480514 0.784082
vt 0.246437 0.003998
vt 0.255989 0.251137
vt 0.460768 0.251137
vt 0.246437 0.250801
vt 0.259224 0.784082
vt 0.252022 0.003998
vt 0.252022 0.252693
vt 0.480483 0.784082
vt 0.005585 0.003998
vt 0.005585 0.003998
vt 0.252022 0.003998
vt 0.005585 0.252693
vt 0.005585 0.252693
vt 0.250404 0.003998
vt 0.250404 0.251167
vt 0.252022 0.252693
vt 0.005585 0.003998
vt 0.246742 0.285562
vt 0.246742 0.730094
vt 0.005585 0.251167
vt 0.009247 0.306375
vt 0.250404 0.003998
vt 0.250404 0.251167
vt 0.009247 0.743370
vt 0.005585 0.003998
vt 0.246742 0.285562
vt 0.246742 0.730094
vt 0.005585 0.251167
vt 0.863460 0.877102
vt 0.034333 0.877102
vt 0.034333 0.926969
vt 0.009247 0.306375
vt 0.938780 0.858089
vt 0.961486 0.950652
vt 0.009247 0.743370
vt 0.983612 0.859066
vt 0.034333 0.973663
vt 0.863430 0.926969
vt 0.863430 0.973663
vt 0.034333 0.828455
vt 0.863430 0.926969
vt 0.034333 0.926969
vt 0.034333 0.926969
vt 0.863460 0.877102
vt 0.034333 0.926969
vt 0.034333 0.877102
vt 0.863430 0.926969
vt 0.034333 0.926969
vt 0.034333 0.877102
vt 0.034333 0.828455
vt 0.034333 0.877102
vt 0.863460 0.877102
vt 0.863430 0.828455
vt 0.034333 0.828455
vt 1.000000 0.003998
vt 0.763787 0.003998
vt 0.763787 0.253883
vt 1.000000 0.253883
vt 0.763787 0.253883
vt 1.000000 0.253883
vt 1.000000 0.003998
vt 0.763787 0.003998
vt 1.000000 0.003998
vt 0.763787 0.003998
vt 0.763787 0.253883
vt 1.000000 0.253883
vt 1.000000 0.264443
vt 0.763787 0.270638
vt 0.763787 0.730857
vt 1.000000 0.692434
vt 1.000000 0.003998
vt 0.763787 0.003998
vt 0.763787 0.253883
vt 1.000000 0.253883
vt 1.000000 0.264412
vt 0.763787 0.270669
vt 0.763787 0.730888
vt 1.000000 0.692404
vt 0.760949 0.003998
vt 0.501297 0.003998
vt 0.501297 0.256417
vt 0.760949 0.256417
vt 0.501297 0.256417
vt 0.760949 0.256417
vt 0.760949 0.003998
vt 0.501297 0.003998
vt 0.760949 0.003998
vt 0.501297 0.003998
vt 0.501297 0.256417
vt 0.760949 0.256417
vt 0.760949 0.291604
vt 0.501297 0.265786
vt 0.501297 0.801599
vt 0.760949 0.733787
vt 0.760949 0.003998
vt 0.501297 0.003998
vt 0.501297 0.256417
vt 0.760949 0.256417
vt 0.760949 0.291482
vt 0.501297 0.265908
vt 0.501297 0.801721
vt 0.760949 0.733665
vt 0.501602 0.003998
vt 0.246437 0.003998
vt 0.246437 0.250801
vt 0.501602 0.250801
vt 0.246437 0.250801
vt 0.501602 0.250801
vt 0.501602 0.003998
vt 0.246437 0.003998
vt 0.501602 0.003998
vt 0.246437 0.003998
vt 0.246437 0.250801
vt 0.501602 0.250801
vt 0.255959 0.251137
vt 0.259255 0.784082
vt 0.480514 0.784082
vt 0.460738 0.251137
vt 0.501602 0.003998
vt 0.246437 0.003998
vt 0.246437 0.250801
vt 0.501602 0.250801
vt 0.255989 0.251137
vt 0.259224 0.784082
vt 0.480483 0.784082
vt 0.460768 0.251137
vt 0.252022 0.003998
vt 0.005585 0.003998
vt 0.005585 0.252693
vt 0.252022 0.252693
vt 0.005585 0.003998
vt 0.005585 0.252693
vt 0.252022 0.252693
vt 0.252022 0.003998
vt 0.250404 0.003998
vt 0.005585 0.003998
vt 0.005585 0.251167
vt 0.250404 0.251167
vt 0.246742 0.285562
vt 0.009247 0.306375
vt 0.009247 0.743370
vt 0.246742 0.730094
vt 0.034333 0.877102
vt 0.034333 0.877102
vt 0.034333 0.926969
vt 0.250404 0.003998
vt 0.005585 0.003998
vt 0.005585 0.251167
vt 0.250404 0.251167
vt 0.246742 0.285562
vt 0.009247 0.306375
vt 0.009247 0.743370
vt 0.246742 0.730094
vt 0.863430 0.828455
vt 0.863460 0.877102
vt 0.034333 0.828455
vt 0.938780 0.858089
vt 0.983612 0.859066
vt 0.863430 0.973663
vt 0.961486 0.950652
vt 0.034333 0.973663
vt 0.034333 0.926969
vt 0.034333 0.877102
vt 0.863430 0.926969
vt 0.863460 0.877102
vt 0.863430 0.926969
vt 0.034333 0.828455
vt 0.034333 0.926969
vt 0.034333 0.926969
vt 0.034333 0.877102
vt 0.034333 0.828455
vt 0.034333 0.877102
vt 0.863460 0.877102
vt 1.000000 0.003998
vt 1.000000 0.253883
vt 0.863430 0.828455
vt 0.763787 0.003998
vt 0.763787 0.253883
vt 0.763787 0.003998
vt 0.763787 0.253883
vt 1.000000 0.253883
vt 1.000000 0.003998
vt 1.000000 0.253883
vt 1.000000 0.003998
vt 0.763787 0.003998
vt 1.000000 0.264443
vt 1.000000 0.692434
vt 0.763787 0.253883
vt 0.763787 0.270638
vt 1.000000 0.003998
vt 1.000000 0.253883
vt 0.763787 0.730857
vt 0.763787 0.003998
vt 1.000000 0.264412
vt 1.000000 0.692404
vt 0.763787 0.253883
vt 0.763787 0.270669
vt 0.760949 0.003998
vt 0.760949 0.256417
vt 0.763787 0.730888
vt 0.501297 0.003998
vt 0.501297 0.256417
vt 0.501297 0.003998
vt 0.501297 0.256417
vt 0.760949 0.256417
vt 0.760949 0.003998
vt 0.760949 0.256417
vt 0.760949 0.003998
vt 0.501297 0.003998
vt 0.760949 0.291604
vt 0.760949 0.733787
vt 0.501297 0.256417
vt 0.501297 0.265786
vt 0.760949 0.003998
vt 0.760949 0.256417
vt 0.501297 0.801599
vt 0.501297 0.003998
vt 0.760949 0.291482
vt 0.760949 0.733665
vt 0.501297 0.256417
vt 0.501297 0.265908
vt 0.501602 0.003998
vt 0.501602 0.250801
vt 0.501297 0.801721
vt 0.246437 0.003998
vt 0.246437 0.250801
vt 0.246437 0.003998
vt 0.246437 0.250801
vt 0.501602 0.250801
vt 0.501602 0.003998
vt 0.501602 0.250801
vt 0.501602 0.003998
vt 0.246437 0.003998
vt 0.255959 0.251137
vt 0.460738 0.251137
vt 0.246437 0.250801
vt 0.259255 0.784082
vt 0.501602 0.003998
vt 0.501602 0.250801
vt 0.480514 0.784082
vt 0.246437 0.003998
vt 0.255989 0.251137
vt 0.460768 0.251137
vt 0.246437 0.250801
vt 0.259224 0.784082
vt 0.252022 0.003998
vt 0.252022 0.252693
vt 0.480483 0.784082
vt 0.005585 0.003998
vt 0.005585 0.003998
vt 0.252022 0.003998
vt 0.005585 0.252693
vn -0.745155 -0.000982 -0.666891
vn -0.744837 0.000221 -0.667247
vn -0.744517 0.001425 -0.667602
vn -0.744837 0.000221 -0.667247
vn 0.627520 -0.191895 -0.754583
vn 0.807240 0.001792 0.590221
vn 0.806820 0.000729 0.590796
vn 0.745433 -0.002081 0.666577
vn 0.745167 -0.001565 0.666876
vn 0.744900 -0.001051 0.667175
vn 0.745167 -0.001565 0.666876
vn 0.606407 0.039247 -0.794185
vn 0.632385 0.124015 -0.764663
vn 0.651770 0.202713 -0.730824
vn 0.632385 0.124015 -0.764663
vn 0.695441 -0.030795 -0.717923
vn 0.665395 -0.108794 -0.738521
vn 0.665395 -0.108794 -0.738521
vn 0.012996 -0.992850 -0.118655
vn 0.084944 -0.988746 -0.123150
vn 0.151835 -0.980242 -0.126772
vn 0.084944 -0.988746 -0.123150
vn -0.716506 -0.039101 0.696485
vn -0.683931 -0.124455 0.718853
vn -0.647778 -0.203716 0.734087
vn -0.683931 -0.124455 0.718853
vn -0.115167 0.992975 0.027149
vn -0.111392 0.988791 0.099423
vn -0.107336 0.980188 0.166468
vn -0.111392 0.988791 0.099423
vn -0.660419 -0.000648 -0.750897
vn -0.660095 -0.000028 -0.751182
vn -0.659770 0.000592 -0.751467
vn -0.660095 -0.000028 -0.751182
vn 0.660146 0.000451 0.751137
vn 0.660146 0.000451 0.751137
vn 0.660146 0.000451 0.751137
vn 0.660146 0.000451 0.751137
vn -0.822440 0.233919 0.518531
vn -0.812582 0.137588 0.566374
vn -0.797381 0.057191 0.600760
vn -0.812582 0.137588 0.566374
vn 0.043839 0.983191 -0.177241
vn 0.040024 0.993668 -0.104988
vn 0.036772 0.998267 -0.045952
vn 0.040024 0.993668 -0.104988
vn 0.619988 -0.235093 -0.748563
vn 0.666497 -0.138199 -0.732586
vn 0.698863 -0.057262 -0.712960
vn 0.666497 -0.138199 -0.732586
vn -0.181536 -0.983167 0.020671
vn -0.109311 -0.993663 0.026183
vn -0.050309 -0.998266 0.030550
vn -0.109311 -0.993663 0.026183
vn 0.617397 0.000079 -0.786652
vn 0.617677 0.000532 -0.786431
vn 0.617958 0.000986 -0.786211
vn 0.617677 0.000532 -0.786431
vn -0.617382 0.000000 0.786664
vn -0.617382 0.000000 0.786664
vn -0.617382 0.000000 0.786664
vn -0.617382 0.000000 0.786664
vn 0.817757 -0.142545 0.557633
vn 0.803478 -0.069206 0.591298
vn 0.785183 0.000000 0.619264
vn 0.803478 -0.069206 0.591298
vn -0.049889 -0.990327 -0.129476
vn -0.034084 -0.998164 -0.050077
vn -0.019122 -0.999520 0.024365
vn -0.034084 -0.998164 -0.050077
vn -0.735413 0.143860 -0.662172
vn -0.765052 0.069837 -0.640170
vn -0.788088 0.000000 -0.615563
vn -0.765052 0.069837 -0.640170
vn 0.137746 0.990309 0.017746
vn 0.056752 0.998162 0.021237
vn -0.019123 0.999520 0.024366
vn 0.056752 0.998162 0.021237
vn -0.658449 -0.000014 -0.752625
vn -0.658693 -0.000507 -0.752412
vn -0.658936 -0.001000 -0.752198
vn -0.658693 -0.000507 -0.752412
vn 0.658640 -0.000152 0.752458
vn 0.658640 -0.000152 0.752458
vn 0.658640 -0.000152 0.752458
vn 0.658640 -0.000152 0.752458
vn 0.776961 -0.192158 -0.599505
vn 0.810542 -0.108794 -0.575488
vn 0.835445 -0.030536 -0.548725
vn 0.810542 -0.108794 -0.575488
vn -0.129334 -0.990905 0.037136
vn -0.072139 -0.996649 0.038570
vn -0.001176 -0.999192 0.040166
vn -0.072139 -0.996649 0.038570
vn -0.697307 0.193424 0.690181
vn -0.677858 0.109425 0.727004
vn -0.654440 0.030494 0.755499
vn -0.677858 0.109425 0.727004
vn 0.054002 0.990898 -0.123307
vn 0.047820 0.996647 -0.066392
vn 0.039972 0.999192 0.004156
vn 0.047820 0.996647 -0.066392
vn 0.660697 -0.001466 0.750651
vn 0.660697 -0.001466 0.750651
vn 0.633363 0.533615 -0.560453
vn 0.660697 -0.001466 0.750651
vn 0.633385 0.533570 -0.560470
vn 0.633418 0.533503 -0.560496
vn -0.637447 0.533504 0.555909
vn 0.633385 0.533570 -0.560470
vn -0.637883 0.532637 0.556240
vn -0.638178 0.532050 0.556464
vn -0.659801 0.000000 -0.751440
vn -0.637883 0.532637 0.556240
vn -0.659801 0.000000 -0.751440
vn -0.003914 -0.999982 -0.004457
vn -0.003917 -0.999982 -0.004454
vn -0.659801 0.000000 -0.751440
vn -0.061992 -0.996648 0.053388
vn -0.061992 -0.996648 0.053388
vn -0.118117 -0.990904 0.064483
vn -0.003917 -0.999982 -0.004454
vn -0.864090 -0.000507 -0.503337
vn -0.864090 -0.000507 -0.503337
vn -0.003919 -0.999982 -0.004453
vn -0.864090 -0.000507 -0.503337
vn 0.863957 -0.001197 0.503565
vn 0.864189 -0.001793 0.503164
vn -0.864090 -0.000507 -0.503337
vn -0.502721 0.109545 0.857480
vn -0.529563 0.192886 0.826050
vn 0.007615 -0.999193 0.039439
vn 0.864189 -0.001793 0.503164
vn 0.433263 0.038939 -0.900426
vn 0.465089 0.124998 -0.876395
vn 0.864422 -0.002390 0.502762
vn 0.465089 0.124998 -0.876395
vn -0.011209 -0.992844 -0.118889
vn 0.058306 -0.988747 -0.137770
vn 0.491174 0.204810 -0.846641
vn 0.058306 -0.988747 -0.137770
vn -0.561306 -0.039043 0.826687
vn -0.524820 -0.124593 0.842045
vn 0.122994 -0.980265 -0.154766
vn -0.524820 -0.124593 0.842045
vn -0.107359 0.992970 0.049845
vn -0.089110 0.988783 0.119865
vn -0.486240 -0.204063 0.849664
vn -0.089110 0.988783 0.119865
vn -0.797747 -0.000152 -0.602992
vn -0.797747 -0.000152 -0.602992
vn -0.071623 0.980169 0.184768
vn -0.797747 -0.000152 -0.602992
vn 0.797830 -0.000404 0.602882
vn 0.797830 -0.000404 0.602882
vn -0.797747 -0.000152 -0.602992
vn 0.797830 -0.000404 0.602882
vn -0.700910 0.236678 0.672836
vn -0.681514 0.139186 0.718447
vn 0.797830 -0.000404 0.602882
vn -0.681514 0.139186 0.718447
vn 0.007324 0.983183 -0.182474
vn 0.018112 0.993667 -0.110893
vn -0.659427 0.057662 0.749554
vn 0.018112 0.993667 -0.110893
vn 0.456074 -0.236721 -0.857881
vn 0.505300 -0.139153 -0.851651
vn 0.026789 0.998266 -0.052408
vn 0.505300 -0.139153 -0.851651
vn -0.173563 -0.983183 0.056813
vn -0.101766 -0.993666 0.047671
vn 0.541272 -0.057604 -0.838872
vn -0.101766 -0.993666 0.047671
vn 0.446366 -0.000595 -0.894850
vn 0.446366 -0.000595 -0.894850
vn -0.043120 -0.998266 0.040068
vn 0.446366 -0.000595 -0.894850
vn -0.446489 0.000000 0.894789
vn -0.446489 0.000000 0.894789
vn 0.446366 -0.000595 -0.894850
vn -0.446489 0.000000 0.894789
vn 0.913390 -0.142440 0.381353
vn 0.906190 -0.069126 0.417182
vn -0.446489 0.000000 0.894789
vn 0.906190 -0.069126 0.417182
vn -0.074977 -0.990316 -0.116843
vn -0.043492 -0.998162 -0.042204
vn 0.893924 0.000000 0.448219
vn -0.043492 -0.998162 -0.042204
vn -0.854258 0.142366 -0.499976
vn -0.878524 0.069109 -0.472672
vn -0.013838 -0.999520 0.027732
vn -0.878524 0.069109 -0.472672
vn 0.138457 0.990314 -0.010396
vn 0.059886 0.998161 0.009347
vn -0.895931 0.000000 -0.444194
vn 0.059886 0.998161 0.009347
vn -0.796686 0.000602 -0.604393
vn -0.796923 0.000006 -0.604081
vn -0.013835 0.999520 0.027725
vn -0.796923 0.000006 -0.604081
vn 0.796824 0.000164 0.604212
vn 0.796824 0.000164 0.604212
vn -0.797159 -0.000590 -0.603769
vn 0.796824 0.000164 0.604212
vn 0.639894 -0.192534 -0.743953
vn 0.677695 -0.109091 -0.727206
vn 0.796824 0.000164 0.604212
vn 0.677695 -0.109091 -0.727206
vn -0.119175 -0.990904 0.062509
vn -0.062877 -0.996647 0.052363
vn 0.707548 -0.030724 -0.705997
vn -0.062877 -0.996647 0.052363
vn -0.543400 0.193497 0.816869
vn -0.516934 0.109583 0.848982
vn 0.006943 -0.999192 0.039593
vn -0.516934 0.109583 0.848982
vn 0.027998 0.990895 -0.131695
vn 0.033437 0.996645 -0.074709
vn -0.488284 0.030767 0.872142
vn 0.033437 0.996645 -0.074709
vn 0.796640 0.000375 0.604454
vn 0.796640 0.000375 0.604454
vn 0.040000 0.999192 -0.003997
vn 0.796640 0.000375 0.604454
vn 0.507131 0.534349 -0.676232
vn 0.507131 0.534349 -0.676232
vn 0.506971 0.534738 -0.676045
vn 0.507369 0.533772 -0.676508
vn -0.512786 0.532378 0.673516
vn -0.512786 0.532378 0.673516
vn -0.512205 0.533778 0.672850
vn 0.025777 0.990902 -0.132097
vn -0.473908 0.031325 0.880017
vn -0.502721 0.109545 0.857480
vn -0.513179 0.531430 0.673966
vn -0.796691 0.000000 -0.604386
vn -0.796691 0.000000 -0.604386
vn -0.796691 0.000000 -0.604386
vn -0.004726 -0.999982 -0.003585
vn -0.004725 -0.999982 -0.003585
vn -0.004725 -0.999982 -0.003585
vn -0.004725 -0.999982 -0.003585
vn 0.039913 0.999192 -0.004643
vn 0.032164 0.996646 -0.075251
vn 0.032164 0.996646 -0.075251
vn -0.642905 -0.000139 -0.765946
vn -0.642905 -0.000139 -0.765946
vn -0.642905 -0.000139 -0.765946
vn -0.642905 -0.000139 -0.765946
vn 0.642911 0.000121 0.765941
vn 0.643226 -0.000409 0.765676
vn 0.643541 -0.000937 0.765411
vn 0.643226 -0.000409 0.765676
vn 0.712409 0.039150 -0.700671
vn 0.733985 0.124129 -0.667726
vn 0.748401 0.203047 -0.631401
vn 0.733985 0.124129 -0.667726
vn 0.029611 -0.992847 -0.115667
vn 0.101439 -0.988748 -0.109945
vn 0.168179 -0.980247 -0.104072
vn 0.101439 -0.988748 -0.109945
vn -0.807385 -0.039201 0.588721
vn -0.778233 -0.124680 0.615473
vn -0.744538 -0.204018 0.635641
vn -0.778233 -0.124680 0.615473
vn -0.117837 0.992977 0.010579
vn -0.124272 0.988796 0.082702
vn -0.129694 0.980186 0.149714
vn -0.124272 0.988796 0.082702
vn -0.546428 0.001313 -0.837505
vn -0.547094 0.000172 -0.837071
vn -0.547760 -0.000969 -0.836635
vn -0.547094 0.000172 -0.837071
vn 0.547346 -0.001190 0.836906
vn 0.547127 -0.000534 0.837050
vn 0.546908 0.000123 0.837193
vn 0.547127 -0.000534 0.837050
vn -0.887106 0.235200 0.397145
vn -0.884169 0.138489 0.446168
vn -0.873940 0.057608 0.482607
vn -0.884169 0.138489 0.446168
vn 0.068479 0.983143 -0.169530
vn 0.054451 0.993663 -0.098331
vn 0.042877 0.998268 -0.040287
vn 0.054451 0.993663 -0.098331
vn 0.719039 -0.235618 -0.653810
vn 0.762764 -0.139080 -0.631544
vn 0.792059 -0.058356 -0.607649
vn 0.762764 -0.139080 -0.631544
vn -0.182707 -0.983154 -0.005159
vn -0.111893 -0.993665 0.010514
vn -0.054096 -0.998267 0.023166
vn -0.111893 -0.993665 0.010514
vn 0.723080 0.000165 -0.690764
vn 0.722805 -0.000342 -0.691052
vn 0.722528 -0.000851 -0.691341
vn 0.722805 -0.000342 -0.691052
vn -0.722327 0.000000 0.691551
vn -0.722327 0.000000 0.691551
vn -0.722327 0.000000 0.691551
vn -0.722327 0.000000 0.691551
vn 0.730896 -0.141805 0.667594
vn 0.712082 -0.068809 0.698717
vn 0.690157 0.000000 0.723660
vn 0.712082 -0.068809 0.698717
vn -0.031060 -0.990337 -0.135159
vn -0.026657 -0.998164 -0.054384
vn -0.022384 -0.999520 0.021430
vn -0.026657 -0.998164 -0.054384
vn -0.634891 0.142916 -0.759269
vn -0.667078 0.069366 -0.741751
vn -0.693159 0.000000 -0.720785
vn -0.667078 0.069366 -0.741751
vn 0.133858 0.990310 0.036998
vn 0.053192 0.998162 0.029025
vn -0.022367 0.999520 0.021414
vn 0.053192 0.998162 0.029025
vn -0.546301 -0.001038 -0.837588
vn -0.546077 -0.000629 -0.837735
vn -0.545852 -0.000221 -0.837881
vn -0.546077 -0.000629 -0.837735
vn 0.545193 -0.000073 0.838311
vn 0.545426 0.000342 0.838159
vn 0.545658 0.000757 0.838007
vn 0.545426 0.000342 0.838159
vn 0.853572 -0.193590 -0.483671
vn 0.883662 -0.109831 -0.455059
vn 0.904701 -0.031140 -0.424908
vn 0.883662 -0.109831 -0.455059
vn -0.133369 -0.990893 0.018557
vn -0.076901 -0.996645 0.028032
vn -0.006864 -0.999192 0.039596
vn -0.076901 -0.996645 0.028032
vn -0.787787 0.192339 0.585147
vn -0.773689 0.108609 0.624187
vn -0.754530 0.029944 0.655582
vn -0.773689 0.108609 0.624187
vn 0.070827 0.990910 -0.114373
vn 0.056690 0.996649 -0.058958
vn 0.038964 0.999193 0.009774
vn 0.056690 0.996649 -0.058958
vn 0.548250 -0.001633 0.836313
vn 0.548250 -0.001633 0.836313
vn 0.705991 0.534024 -0.465182
vn 0.548250 -0.001633 0.836313
vn 0.808468 0.001149 0.588540
vn 0.808468 0.001149 0.588540
vn 0.808468 0.001149 0.588540
vn 0.706202 0.533640 -0.465302
vn 0.706515 0.533073 -0.465479
vn -0.708267 0.535989 0.459426
vn 0.706202 0.533640 -0.465302
vn -0.709345 0.534045 0.460027
vn -0.710074 0.532726 0.460432
vn -0.548356 0.001585 -0.836243
vn -0.709345 0.534045 0.460027
vn 0.496190 0.532405 -0.685814
vn 0.496190 0.532405 -0.685814
vn 0.496192 0.532400 -0.685816
vn -0.548356 0.001585 -0.836243
vn -0.003253 -0.999982 -0.004960
vn -0.003252 -0.999982 -0.004961
vn -0.548356 0.001585 -0.836243
vn -0.003252 -0.999982 -0.004961
vn -0.770557 -0.000144 -0.637371
vn -0.770557 -0.000144 -0.637371
vn -0.003252 -0.999982 -0.004961
vn -0.770557 -0.000144 -0.637371
vn 0.770742 -0.000825 0.637146
vn 0.771223 -0.001798 0.636562
vn -0.770557 -0.000144 -0.637371
vn 0.771223 -0.001798 0.636562
vn 0.574068 0.039149 -0.817871
vn 0.601300 0.124253 -0.789303
vn 0.771703 -0.002770 0.635978
vn 0.601300 0.124253 -0.789303
vn 0.008284 -0.992841 -0.119154
vn 0.079955 -0.988743 -0.126466
vn 0.622073 0.203245 -0.756119
vn 0.079955 -0.988743 -0.126466
vn -0.687967 -0.039201 0.724683
vn -0.654624 -0.124346 0.745658
vn 0.146615 -0.980251 -0.132709
vn -0.654624 -0.124346 0.745658
vn -0.114030 0.992971 0.031704
vn -0.107352 0.988786 0.103818
vn -0.617990 -0.203462 0.759402
vn -0.107352 0.988786 0.103818
vn -0.688729 0.001883 -0.725017
vn -0.689016 0.001315 -0.724745
vn -0.100606 0.980180 0.170665
vn -0.689016 0.001315 -0.724745
vn 0.688972 0.000371 0.724788
vn 0.688972 0.000371 0.724788
vn -0.689303 0.000747 -0.724472
vn 0.688972 0.000371 0.724788
vn -0.800915 0.234763 0.550837
vn -0.789127 0.137951 0.598538
vn 0.688972 0.000371 0.724788
vn -0.789127 0.137951 0.598538
vn 0.036806 0.983177 -0.178907
vn 0.035844 0.993662 -0.106541
vn -0.772468 0.057123 0.632480
vn 0.035844 0.993662 -0.106541
vn 0.589534 -0.235607 -0.772618
vn 0.636816 -0.138451 -0.758483
vn 0.034923 0.998265 -0.047401
vn 0.636816 -0.138451 -0.758483
vn -0.180530 -0.983173 0.027932
vn -0.108137 -0.993667 0.030548
vn 0.670092 -0.057174 -0.740073
vn -0.108137 -0.993667 0.030548
vn 0.586214 0.000830 -0.810156
vn 0.586214 0.000830 -0.810156
vn -0.049041 -0.998266 0.032549
vn 0.586214 0.000830 -0.810156
vn -0.585854 0.000000 0.810416
vn -0.585854 0.000000 0.810416
vn 0.586214 0.000830 -0.810156
vn -0.585854 0.000000 0.810416
vn 0.839376 -0.142187 0.524625
vn 0.826471 -0.069027 0.558731
vn -0.585854 0.000000 0.810416
vn 0.826471 -0.069027 0.558731
vn -0.055003 -0.990335 -0.127326
vn -0.036059 -0.998164 -0.048672
vn 0.809352 0.000000 0.587324
vn -0.036059 -0.998164 -0.048672
vn -0.761996 0.142312 -0.631751
vn -0.790338 0.069056 -0.608767
vn -0.018145 -0.999520 0.025099
vn -0.790338 0.069056 -0.608767
vn 0.138293 0.990316 0.012191
vn 0.057569 0.998162 0.018927
vn -0.812090 0.000000 -0.583533
vn 0.057569 0.998162 0.018927
vn -0.688135 -0.000411 -0.725582
vn -0.688135 -0.000411 -0.725582
vn -0.018147 0.999520 0.025103
vn -0.688135 -0.000411 -0.725582
vn 0.687771 -0.001366 0.725926
vn 0.687771 -0.001366 0.725926
vn -0.688135 -0.000411 -0.725582
vn 0.687771 -0.001366 0.725926
vn 0.752494 -0.191910 -0.630019
vn 0.786923 -0.108732 -0.607396
vn 0.687771 -0.001366 0.725926
vn 0.786923 -0.108732 -0.607396
vn -0.127829 -0.990897 0.042230
vn -0.070558 -0.996648 0.041398
vn 0.812818 -0.030675 -0.581710
vn -0.070558 -0.996648 0.041398
vn -0.669234 0.191963 0.717827
vn -0.648442 0.108632 0.753473
vn 0.000419 -0.999192 0.040183
vn -0.648442 0.108632 0.753473
vn 0.049022 0.990903 -0.125334
vn 0.045112 0.996648 -0.068240
vn -0.624077 0.030297 0.780775
vn -0.500446 0.534377 0.681172
vn -0.500404 0.534480 0.681122
vn 0.496187 0.532412 -0.685810
vn 0.045112 0.996648 -0.068240
vn 0.688260 0.000000 0.725464
vn 0.688260 0.000000 0.725464
vn 0.040079 0.999193 0.002559
vn 0.688260 0.000000 0.725464
vn 0.610936 0.532945 -0.585429
vn 0.610936 0.532945 -0.585429
vn 0.610898 0.533024 -0.585397
vn -0.806548 0.002331 -0.591163
vn -0.500474 0.534308 0.681205
vn -0.500446 0.534377 0.681172
vn 0.610993 0.532828 -0.585476
vn -0.615195 0.532948 0.580949
vn -0.615195 0.532948 0.580949
vn -0.615252 0.532830 0.580997
vn -0.615156 0.533028 0.580917
vn -0.688508 -0.000000 -0.725229
vn -0.688508 -0.000000 -0.725229
vn -0.688508 -0.000000 -0.725229
vn -0.004084 -0.999982 -0.004302
vn -0.004083 -0.999982 -0.004303
vn -0.004083 -0.999982 -0.004303
vn -0.004083 -0.999982 -0.004303
vn -0.658349 0.000324 -0.752712
vn -0.658349 0.000324 -0.752712
vn -0.658349 0.000324 -0.752712
vn -0.658349 0.000324 -0.752712
vn 0.658646 -0.001320 0.752452
vn 0.658342 -0.000800 0.752719
vn 0.658038 -0.000279 0.752985
vn 0.658342 -0.000800 0.752719
vn 0.698129 0.040275 -0.714839
vn 0.720258 0.125044 -0.682343
vn 0.735323 0.203715 -0.646374
vn 0.720258 0.125044 -0.682343
vn 0.027375 -0.992853 -0.116165
vn 0.099243 -0.988754 -0.111877
vn 0.165972 -0.980271 -0.107341
vn 0.099243 -0.988754 -0.111877
vn -0.795313 -0.040257 0.604861
vn -0.766020 -0.124518 0.630642
vn -0.732475 -0.202717 0.649912
vn -0.766020 -0.124518 0.630642
vn -0.117601 0.992976 0.013018
vn -0.122605 0.988789 0.085230
vn -0.126702 0.980167 0.152381
vn -0.122605 0.988789 0.085230
vn -0.564435 -0.000326 -0.825477
vn -0.564435 -0.000326 -0.825477
vn -0.564435 -0.000326 -0.825477
vn -0.564435 -0.000326 -0.825477
vn 0.563749 -0.000201 0.825946
vn 0.563682 0.000004 0.825992
vn 0.563614 0.000210 0.826038
vn 0.563682 0.000004 0.825992
vn -0.879032 0.235779 0.414380
vn -0.875111 0.138461 0.463690
vn -0.864059 0.057104 0.500141
vn -0.875111 0.138461 0.463690
vn 0.064994 0.983184 -0.170662
vn 0.052444 0.993669 -0.099360
vn 0.042057 0.998268 -0.041128
vn 0.052444 0.993669 -0.099360
vn 0.706215 -0.235936 -0.667529
vn 0.750266 -0.139651 -0.646219
vn 0.779949 -0.059212 -0.623036
vn 0.750266 -0.139651 -0.646219
vn -0.182713 -0.983165 -0.001523
vn -0.111682 -0.993663 0.012724
vn -0.053663 -0.998265 0.024224
vn -0.111682 -0.993663 0.012724
vn 0.708645 0.000842 -0.705565
vn 0.708357 0.000324 -0.705854
vn 0.708069 -0.000195 -0.706143
vn 0.708357 0.000324 -0.705854
vn -0.708012 0.000000 0.706201
vn -0.708012 0.000000 0.706201
vn -0.708012 0.000000 0.706201
vn -0.708012 0.000000 0.706201
vn 0.744192 -0.141752 0.652752
vn 0.726009 -0.068792 0.684236
vn 0.704589 0.000000 0.709616
vn 0.726009 -0.068792 0.684236
vn -0.033818 -0.990327 -0.134568
vn -0.027762 -0.998163 -0.053853
vn -0.021939 -0.999520 0.021883
vn -0.027762 -0.998163 -0.053853
vn -0.650033 0.142916 -0.746346
vn -0.681871 0.069356 -0.728177
vn -0.707525 0.000000 -0.706688
vn -0.681871 0.069356 -0.728177
vn 0.134578 0.990310 0.034270
vn 0.053774 0.998162 0.027946
vn -0.021935 0.999520 0.021879
vn 0.053774 0.998162 0.027946
vn -0.561921 0.001248 -0.827190
vn -0.562485 0.000209 -0.826807
vn -0.563049 -0.000830 -0.826423
vn -0.562485 0.000209 -0.826807
vn 0.562126 0.000161 0.827051
vn 0.562238 0.000362 0.826975
vn 0.562349 0.000563 0.826900
vn 0.562238 0.000362 0.826975
vn 0.843544 -0.192680 -0.501306
vn 0.874220 -0.108697 -0.473207
vn 0.895836 -0.029830 -0.443382
vn 0.874220 -0.108697 -0.473207
vn -0.132926 -0.990900 0.021147
vn -0.076259 -0.996651 0.029527
vn -0.006015 -0.999192 0.039728
vn -0.076259 -0.996651 0.029527
vn -0.004784 -0.999982 -0.003506
vn -0.806548 0.002331 -0.591163
vn -0.806548 0.002331 -0.591163
vn -0.775648 0.193069 0.600911
vn -0.760972 0.110019 0.639388
vn -0.741491 0.032062 0.670196
vn -0.760972 0.110019 0.639388
vn 0.068532 0.990901 -0.115841
vn 0.055515 0.996646 -0.060129
vn 0.039177 0.999192 0.008986
vn 0.055515 0.996646 -0.060129
vn -0.004796 -0.999982 -0.003491
vn -0.004791 -0.999982 -0.003497
vn -0.004791 -0.999982 -0.003497
vn 0.563240 0.001100 0.826292
vn 0.563240 0.001100 0.826292
vn 0.696089 0.534679 -0.479143
vn 0.563240 0.001100 0.826292
vn 0.696220 0.534439 -0.479221
vn 0.696414 0.534082 -0.479336
vn -0.700942 0.532107 0.474914
vn 0.696220 0.534439 -0.479221
vn -0.700739 0.532479 0.474795
vn -0.700602 0.532731 0.474715
vn -0.564189 0.002386 -0.825642
vn -0.700739 0.532479 0.474795
vn -0.564189 0.002386 -0.825642
vn -0.003346 -0.999982 -0.004897
vn -0.003343 -0.999982 -0.004899
vn -0.564189 0.002386 -0.825642
vn -0.003343 -0.999982 -0.004899
vn -0.872415 0.001120 -0.488764
vn -0.872415 0.001120 -0.488764
vn -0.003341 -0.999982 -0.004901
vn -0.872415 0.001120 -0.488764
vn 0.873025 -0.001572 0.487672
vn 0.872797 -0.000969 0.488082
vn -0.872415 0.001120 -0.488764
vn 0.872797 -0.000969 0.488082
vn 0.418350 0.039694 -0.907418
vn 0.450022 0.124162 -0.884344
vn 0.872569 -0.000365 0.488491
vn 0.450022 0.124162 -0.884344
vn -0.013141 -0.992850 -0.118640
vn 0.056004 -0.988748 -0.138713
vn 0.476241 0.202594 -0.855658
vn 0.056004 -0.988748 -0.138713
vn -0.546673 -0.039560 0.836411
vn -0.510173 -0.124519 0.851010
vn 0.120489 -0.980244 -0.156855
vn -0.510173 -0.124519 0.851010
vn -0.106440 0.992977 0.051643
vn -0.086936 0.988793 0.121368
vn -0.471819 -0.203324 0.857931
vn -0.086936 0.988793 0.121368
vn -0.808125 -0.000114 -0.589012
vn -0.808125 -0.000114 -0.589012
vn -0.068294 0.980182 0.185956
vn -0.808125 -0.000114 -0.589012
vn 0.807955 0.000753 0.589244
vn 0.808064 0.000291 0.589095
vn -0.808125 -0.000114 -0.589012
vn 0.808064 0.000291 0.589095
vn -0.689504 0.235990 0.684758
vn -0.669387 0.138962 0.729802
vn 0.808172 -0.000171 0.588946
vn -0.669387 0.138962 0.729802
vn 0.004156 0.983164 -0.182680
vn 0.016192 0.993662 -0.111237
vn -0.646889 0.057892 0.760383
vn 0.016192 0.993662 -0.111237
vn 0.440845 -0.236025 -0.865996
vn 0.490180 -0.138346 -0.860572
vn 0.025888 0.998266 -0.052866
vn 0.490180 -0.138346 -0.860572
vn -0.172718 -0.983153 0.059814
vn -0.100942 -0.993664 0.049417
vn 0.526372 -0.056709 -0.848361
vn -0.100942 -0.993664 0.049417
vn 0.430665 -0.000258 -0.902512
vn 0.430665 -0.000258 -0.902512
vn -0.042385 -0.998268 0.040797
vn 0.430665 -0.000258 -0.902512
vn -0.431199 0.000000 0.902257
vn -0.431199 0.000000 0.902257
vn 0.430665 -0.000258 -0.902512
vn -0.431199 0.000000 0.902257
vn 0.919720 -0.143156 0.365543
vn 0.913140 -0.069485 0.401681
vn -0.431199 0.000000 0.902257
vn 0.913140 -0.069485 0.401681
vn -0.076994 -0.990319 -0.115502
vn -0.044221 -0.998162 -0.041438
vn 0.901353 0.000000 0.433085
vn -0.044221 -0.998162 -0.041438
vn -0.862652 0.143121 -0.485127
vn -0.886610 0.069477 -0.457270
vn -0.013361 -0.999520 0.027957
vn -0.886610 0.069477 -0.457270
vn 0.138199 0.990322 -0.012750
vn 0.060037 0.998161 0.008323
vn -0.903618 0.000000 -0.428339
vn 0.060037 0.998161 0.008323
vn -0.806918 0.000262 -0.590663
vn -0.807153 -0.000342 -0.590343
vn -0.013365 0.999520 0.027965
vn -0.807153 -0.000342 -0.590343
vn 0.806400 -0.000334 0.591371
vn 0.806820 0.000729 0.590796
vn -0.807386 -0.000946 -0.590023
f 104/104/104 106/106/106 103/103/103
f 118/118/118 115/115/115 113/113/113
f 225/225/225 223/223/223 222/222/222
f 238/238/238 237/237/237 239/239/239
f 344/344/344 346/346/346 343/343/343
f 364/364/364 361/361/361 356/356/356
f 468/468/468 466/466/466 465/465/465
f 481/481/481 480/480/480 482/482/482
f 590/590/590 592/592/592 589/589/589
f 604/604/604 601/601/601 599/599/599
f 347/347/347 348/348/348 349/349/349
f 576/576/576 577/577/577 472/472/472
f 4/4/4 2/2/2 1/1/1
f 3/3/3 2/2/2 4/4/4
f 11/11/11 9/9/9 8/8/8
f 10/10/10 9/9/9 11/11/11
f 15/15/15 13/13/13 12/12/12
f 14/14/14 13/13/13 15/15/15
f 22/22/22 20/20/20 19/19/19
f 21/21/21 20/20/20 22/22/22
f 26/26/26 24/24/24 23/23/23
f 25/25/25 24/24/24 26/26/26
f 30/30/30 28/28/28 27/27/27
f 29/29/29 28/28/28 30/30/30
f 34/34/34 32/32/32 31/31/31
f 33/33/33 32/32/32 34/34/34
f 38/38/38 36/36/36 35/35/35
f 37/37/37 36/36/36 38/38/38
f 42/42/42 40/40/40 39/39/39
f 41/41/41 40/40/40 42/42/42
f 46/46/46 44/44/44 43/43/43
f 45/45/45 44/44/44 46/46/46
f 50/50/50 48/48/48 47/47/47
f 49/49/49 48/48/48 50/50/50
f 54/54/54 52/52/52 51/51/51
f 53/53/53 52/52/52 54/54/54
f 58/58/58 56/56/56 55/55/55
f 57/57/57 56/56/56 58/58/58
f 62/62/62 60/60/60 59/59/59
f 61/61/61 60/60/60 62/62/62
f 66/66/66 64/64/64 63/63/63
f 65/65/65 64/64/64 66/66/66
f 70/70/70 68/68/68 67/67/67
f 69/69/69 68/68/68 70/70/70
f 74/74/74 72/72/72 71/71/71
f 73/73/73 72/72/72 74/74/74
f 78/78/78 76/76/76 75/75/75
f 77/77/77 76/76/76 78/78/78
f 82/82/82 80/80/80 79/79/79
f 81/81/81 80/80/80 82/82/82
f 86/86/86 84/84/84 83/83/83
f 85/85/85 84/84/84 86/86/86
f 90/90/90 88/88/88 87/87/87
f 89/89/89 88/88/88 90/90/90
f 94/94/94 92/92/92 91/91/91
f 93/93/93 92/92/92 94/94/94
f 98/98/98 96/96/96 95/95/95
f 97/97/97 96/96/96 98/98/98
f 102/102/102 100/100/100 99/99/99
f 101/101/101 100/100/100 102/102/102
f 107/107/107 110/110/110 105/105/105
f 108/108/108 110/110/110 107/107/107
f 111/111/111 114/114/114 109/109/109
f 112/112/112 114/114/114 111/111/111
f 117/117/117 122/122/122 116/116/116
f 125/125/125 122/122/122 117/117/117
f 124/124/124 126/126/126 123/123/123
f 129/129/129 126/126/126 124/124/124
f 128/128/128 133/133/133 127/127/127
f 136/136/136 133/133/133 128/128/128
f 135/135/135 137/137/137 134/134/134
f 140/140/140 137/137/137 135/135/135
f 139/139/139 141/141/141 138/138/138
f 144/144/144 141/141/141 139/139/139
f 143/143/143 145/145/145 142/142/142
f 148/148/148 145/145/145 143/143/143
f 147/147/147 149/149/149 146/146/146
f 152/152/152 149/149/149 147/147/147
f 151/151/151 153/153/153 150/150/150
f 156/156/156 153/153/153 151/151/151
f 155/155/155 157/157/157 154/154/154
f 160/160/160 157/157/157 155/155/155
f 159/159/159 161/161/161 158/158/158
f 164/164/164 161/161/161 159/159/159
f 163/163/163 165/165/165 162/162/162
f 168/168/168 165/165/165 163/163/163
f 167/167/167 169/169/169 166/166/166
f 172/172/172 169/169/169 167/167/167
f 171/171/171 173/173/173 170/170/170
f 176/176/176 173/173/173 171/171/171
f 175/175/175 177/177/177 174/174/174
f 180/180/180 177/177/177 175/175/175
f 179/179/179 181/181/181 178/178/178
f 184/184/184 181/181/181 179/179/179
f 183/183/183 185/185/185 182/182/182
f 188/188/188 185/185/185 183/183/183
f 187/187/187 189/189/189 186/186/186
f 192/192/192 189/189/189 187/187/187
f 191/191/191 193/193/193 190/190/190
f 196/196/196 193/193/193 191/191/191
f 195/195/195 197/197/197 194/194/194
f 200/200/200 197/197/197 195/195/195
f 199/199/199 201/201/201 198/198/198
f 204/204/204 201/201/201 199/199/199
f 203/203/203 205/205/205 202/202/202
f 208/208/208 205/205/205 203/203/203
f 207/207/207 209/209/209 206/206/206
f 212/212/212 209/209/209 207/207/207
f 211/211/211 213/213/213 210/210/210
f 216/216/216 213/213/213 211/211/211
f 215/215/215 217/217/217 214/214/214
f 220/220/220 217/217/217 215/215/215
f 219/219/219 221/221/221 218/218/218
f 224/224/224 221/221/221 219/219/219
f 226/226/226 227/227/227 228/228/228
f 229/229/229 227/227/227 226/226/226
f 230/230/230 231/231/231 232/232/232
f 236/236/236 231/231/231 230/230/230
f 243/243/243 241/241/241 240/240/240
f 242/242/242 241/241/241 243/243/243
f 250/250/250 248/248/248 247/247/247
f 249/249/249 248/248/248 250/250/250
f 254/254/254 252/252/252 251/251/251
f 253/253/253 252/252/252 254/254/254
f 258/258/258 256/256/256 255/255/255
f 257/257/257 256/256/256 258/258/258
f 262/262/262 260/260/260 259/259/259
f 261/261/261 260/260/260 262/262/262
f 266/266/266 264/264/264 263/263/263
f 265/265/265 264/264/264 266/266/266
f 270/270/270 268/268/268 267/267/267
f 269/269/269 268/268/268 270/270/270
f 274/274/274 272/272/272 271/271/271
f 273/273/273 272/272/272 274/274/274
f 278/278/278 276/276/276 275/275/275
f 277/277/277 276/276/276 278/278/278
f 282/282/282 280/280/280 279/279/279
f 281/281/281 280/280/280 282/282/282
f 286/286/286 284/284/284 283/283/283
f 285/285/285 284/284/284 286/286/286
f 290/290/290 288/288/288 287/287/287
f 289/289/289 288/288/288 290/290/290
f 294/294/294 292/292/292 291/291/291
f 293/293/293 292/292/292 294/294/294
f 298/298/298 296/296/296 295/295/295
f 297/297/297 296/296/296 298/298/298
f 302/302/302 300/300/300 299/299/299
f 301/301/301 300/300/300 302/302/302
f 306/306/306 304/304/304 303/303/303
f 305/305/305 304/304/304 306/306/306
f 310/310/310 308/308/308 307/307/307
f 309/309/309 308/308/308 310/310/310
f 314/314/314 312/312/312 311/311/311
f 313/313/313 312/312/312 314/314/314
f 318/318/318 316/316/316 315/315/315
f 317/317/317 316/316/316 318/318/318
f 322/322/322 320/320/320 319/319/319
f 321/321/321 320/320/320 322/322/322
f 326/326/326 324/324/324 323/323/323
f 325/325/325 324/324/324 326/326/326
f 330/330/330 328/328/328 327/327/327
f 329/329/329 328/328/328 330/330/330
f 334/334/334 332/332/332 331/331/331
f 333/333/333 332/332/332 334/334/334
f 338/338/338 336/336/336 335/335/335
f 337/337/337 336/336/336 338/338/338
f 342/342/342 340/340/340 339/339/339
f 341/341/341 340/340/340 342/342/342
f 350/350/350 353/353/353 345/345/345
f 351/351/351 353/353/353 350/350/350
f 354/354/354 357/357/357 352/352/352
f 355/355/355 357/357/357 354/354/354
f 363/363/363 365/365/365 362/362/362
f 368/368/368 365/365/365 363/363/363
f 367/367/367 369/369/369 366/366/366
f 372/372/372 369/369/369 367/367/367
f 371/371/371 373/373/373 370/370/370
f 376/376/376 373/373/373 371/371/371
f 375/375/375 377/377/377 374/374/374
f 380/380/380 377/377/377 375/375/375
f 379/379/379 381/381/381 378/378/378
f 384/384/384 381/381/381 379/379/379
f 383/383/383 385/385/385 382/382/382
f 388/388/388 385/385/385 383/383/383
f 387/387/387 389/389/389 386/386/386
f 392/392/392 389/389/389 387/387/387
f 391/391/391 393/393/393 390/390/390
f 396/396/396 393/393/393 391/391/391
f 395/395/395 397/397/397 394/394/394
f 400/400/400 397/397/397 395/395/395
f 399/399/399 401/401/401 398/398/398
f 404/404/404 401/401/401 399/399/399
f 403/403/403 405/405/405 402/402/402
f 408/408/408 405/405/405 403/403/403
f 407/407/407 409/409/409 406/406/406
f 412/412/412 409/409/409 407/407/407
f 411/411/411 413/413/413 410/410/410
f 416/416/416 413/413/413 411/411/411
f 415/415/415 417/417/417 414/414/414
f 420/420/420 417/417/417 415/415/415
f 419/419/419 421/421/421 418/418/418
f 424/424/424 421/421/421 419/419/419
f 423/423/423 425/425/425 422/422/422
f 428/428/428 425/425/425 423/423/423
f 427/427/427 429/429/429 426/426/426
f 432/432/432 429/429/429 427/427/427
f 431/431/431 433/433/433 430/430/430
f 436/436/436 433/433/433 431/431/431
f 435/435/435 437/437/437 434/434/434
f 440/440/440 437/437/437 435/435/435
f 439/439/439 441/441/441 438/438/438
f 444/444/444 441/441/441 439/439/439
f 443/443/443 445/445/445 442/442/442
f 448/448/448 445/445/445 443/443/443
f 447/447/447 449/449/449 446/446/446
f 452/452/452 449/449/449 447/447/447
f 451/451/451 453/453/453 450/450/450
f 456/456/456 453/453/453 451/451/451
f 455/455/455 457/457/457 454/454/454
f 460/460/460 457/457/457 455/455/455
f 459/459/459 464/464/464 458/458/458
f 467/467/467 464/464/464 459/459/459
f 469/469/469 470/470/470 471/471/471
f 475/475/475 470/470/470 469/469/469
f 476/476/476 477/477/477 478/478/478
f 479/479/479 477/477/477 476/476/476
f 486/486/486 484/484/484 483/483/483
f 485/485/485 484/484/484 486/486/486
f 490/490/490 488/488/488 487/487/487
f 489/489/489 488/488/488 490/490/490
f 494/494/494 492/492/492 491/491/491
f 493/493/493 492/492/492 494/494/494
f 498/498/498 496/496/496 495/495/495
f 497/497/497 496/496/496 498/498/498
f 502/502/502 500/500/500 499/499/499
f 501/501/501 500/500/500 502/502/502
f 506/506/506 504/504/504 503/503/503
f 505/505/505 504/504/504 506/506/506
f 510/510/510 508/508/508 507/507/507
f 509/509/509 508/508/508 510/510/510
f 514/514/514 512/512/512 511/511/511
f 513/513/513 512/512/512 514/514/514
f 518/518/518 516/516/516 515/515/515
f 517/517/517 516/516/516 518/518/518
f 522/522/522 520/520/520 519/519/519
f 521/521/521 520/520/520 522/522/522
f 526/526/526 524/524/524 523/523/523
f 525/525/525 524/524/524 526/526/526
f 530/530/530 528/528/528 527/527/527
f 529/529/529 528/528/528 530/530/530
f 534/534/534 532/532/532 531/531/531
f 533/533/533 532/532/532 534/534/534
f 538/538/538 536/536/536 535/535/535
f 537/537/537 536/536/536 538/538/538
f 542/542/542 540/540/540 539/539/539
f 541/541/541 540/540/540 542/542/542
f 546/546/546 544/544/544 543/543/543
f 545/545/545 544/544/544 546/546/546
f 550/550/550 548/548/548 547/547/547
f 549/549/549 548/548/548 550/550/550
f 554/554/554 552/552/552 551/551/551
f 553/553/553 552/552/552 554/554/554
f 558/558/558 556/556/556 555/555/555
f 557/557/557 556/556/556 558/558/558
f 562/562/562 560/560/560 559/559/559
f 561/561/561 560/560/560 562/562/562
f 566/566/566 564/564/564 563/563/563
f 565/565/565 564/564/564 566/566/566
f 570/570/570 568/568/568 567/567/567
f 569/569/569 568/568/568 570/570/570
f 574/574/574 572/572/572 571/571/571
f 573/573/573 572/572/572 574/574/574
f 581/581/581 579/579/579 578/578/578
f 580/580/580 579/579/579 581/581/581
f 585/585/585 583/583/583 582/582/582
f 584/584/584 583/583/583 585/585/585
f 593/593/593 596/596/596 591/591/591
f 594/594/594 596/596/596 593/593/593
f 597/597/597 600/600/600 595/595/595
f 598/598/598 600/600/600 597/597/597
f 603/603/603 605/605/605 602/602/602
f 608/608/608 605/605/605 603/603/603
f 607/607/607 609/609/609 606/606/606
f 612/612/612 609/609/609 607/607/607
f 611/611/611 613/613/613 610/610/610
f 616/616/616 613/613/613 611/611/611
f 615/615/615 617/617/617 614/614/614
f 620/620/620 617/617/617 615/615/615
f 619/619/619 621/621/621 618/618/618
f 624/624/624 621/621/621 619/619/619
f 623/623/623 625/625/625 622/622/622
f 628/628/628 625/625/625 623/623/623
f 627/627/627 629/629/629 626/626/626
f 632/632/632 629/629/629 627/627/627
f 631/631/631 633/633/633 630/630/630
f 636/636/636 633/633/633 631/631/631
f 635/635/635 637/637/637 634/634/634
f 640/640/640 637/637/637 635/635/635
f 639/639/639 641/641/641 638/638/638
f 644/644/644 641/641/641 639/639/639
f 643/643/643 645/645/645 642/642/642
f 648/648/648 645/645/645 643/643/643
f 647/647/647 649/649/649 646/646/646
f 652/652/652 649/649/649 647/647/647
f 651/651/651 653/653/653 650/650/650
f 656/656/656 653/653/653 651/651/651
f 655/655/655 657/657/657 654/654/654
f 660/660/660 657/657/657 655/655/655
f 659/659/659 661/661/661 658/658/658
f 664/664/664 661/661/661 659/659/659
f 663/663/663 665/665/665 662/662/662
f 668/668/668 665/665/665 663/663/663
f 667/667/667 669/669/669 666/666/666
f 672/672/672 669/669/669 667/667/667
f 671/671/671 673/673/673 670/670/670
f 676/676/676 673/673/673 671/671/671
f 675/675/675 677/677/677 674/674/674
f 680/680/680 677/677/677 675/675/675
f 679/679/679 681/681/681 678/678/678
f 684/684/684 681/681/681 679/679/679
f 683/683/683 7/7/7 682/682/682
f 6/6/6 7/7/7 683/683/683
f 18/18/18 17/17/17 5/5/5
f 16/16/16 17/17/17 18/18/18
f 120/120/120 119/119/119 121/121/121
f 132/132/132 119/119/119 120/120/120
f 130/130/130 235/235/235 131/131/131
f 234/234/234 235/235/235 130/130/130
f 246/246/246 245/245/245 233/233/233
f 244/244/244 245/245/245 246/246/246
f 359/359/359 358/358/358 360/360/360
f 463/463/463 358/358/358 359/359/359
f 461/461/461 474/474/474 462/462/462
f 473/473/473 474/474/474 461/461/461
f 588/588/588 587/587/587 575/575/575
f 586/586/586 587/587/587 588/588/588
