# Exported by s4extract — Prop_Utensil_Hand_lod00_g00
o Prop_Utensil_Hand_lod00_g00
v -0.052431 -0.028352 0.104587
v -0.007416 -0.002472 0.100375
v 0.050142 -0.016327 0.100894
v -0.052034 -0.013733 0.058657
v -0.007721 -0.016327 0.035371
v -0.007813 -0.013733 0.025513
v 0.000092 -0.019410 0.029695
v 0.000153 -0.028352 0.034486
v -0.046785 -0.016327 0.070803
v 0.050142 -0.016327 0.100894
v 0.055879 -0.028352 0.098605
v 0.033082 -0.016327 0.046052
v 0.061953 -0.013733 0.098575
v 0.060915 -0.019410 0.098544
v 0.033082 -0.016327 0.046052
v 0.042817 -0.003479 0.040559
v 0.050142 -0.016327 0.100894
v 0.042817 -0.013733 0.040559
v 0.042817 -0.003479 0.040559
v 0.061953 -0.013733 0.098575
v -0.007721 -0.016327 0.035371
v 0.000092 -0.019410 0.029695
v -0.043550 -0.028352 0.054903
v 0.024140 0.002258 0.054476
v 0.064302 0.003784 0.094363
v -0.047670 -0.019410 0.052004
v -0.059175 0.006897 0.102817
v 0.042817 -0.003479 0.040559
v -0.007111 0.006409 0.096286
v -0.007416 -0.002472 0.100375
v 0.059267 0.006897 0.099673
v -0.052034 -0.003479 0.058657
v -0.049318 0.006897 0.053163
v 0.067568 -0.004120 0.092318
v -0.001556 0.006897 0.030824
v -0.001434 0.020386 0.039033
v 0.060915 -0.019410 0.098544
v 0.055879 -0.028352 0.098605
v 0.061953 -0.003479 0.098575
v 0.050142 -0.016327 0.100894
v -0.007721 -0.016327 0.035371
v -0.047670 -0.019410 0.052004
v 0.050661 0.020386 0.099826
v -0.059175 0.006897 0.102817
v 0.061953 -0.003479 0.098575
v 0.044465 -0.028352 0.053591
v 0.061953 -0.013733 0.098575
v -0.027650 0.004578 0.079958
v -0.055879 0.004639 0.101840
v -0.006500 0.006195 0.029695
v 0.033082 -0.016327 0.046052
v 0.048494 -0.019410 0.050539
v 0.050661 0.020386 0.099826
v -0.046785 -0.016327 0.070803
v 0.000153 -0.028352 0.034486
v -0.052431 -0.028352 0.104587
v -0.043550 -0.028352 0.054903
v -0.002777 -0.001770 0.098025
v -0.055879 -0.001709 0.101840
v -0.002503 0.005554 0.095096
v -0.007111 0.006409 0.096286
v -0.050569 0.020386 0.102695
v -0.008637 0.029420 0.094790
v 0.033082 -0.016327 0.046052
v -0.057466 -0.019410 0.104678
v -0.059023 -0.013733 0.099185
v -0.046785 -0.016327 0.070803
v -0.046785 -0.016327 0.070803
v -0.047670 -0.019410 0.052004
v -0.046663 -0.016327 0.102878
v -0.059023 -0.013733 0.099185
v -0.046663 -0.016327 0.102878
v -0.059023 -0.003479 0.099185
v -0.059023 -0.013733 0.099185
v -0.006134 -0.028352 0.102603
v -0.046663 -0.016327 0.102878
v -0.006500 -0.001709 0.029695
v -0.055879 0.004639 0.101840
v -0.046663 -0.016327 0.102878
v -0.007691 -0.016327 0.103397
v -0.055879 -0.001709 0.101840
v -0.006500 0.006195 0.029695
v -0.055879 0.004639 0.101840
v -0.050569 0.020386 0.102695
v 0.068697 0.003510 0.086581
v 0.066683 0.001984 0.027802
v -0.059175 0.006897 0.102817
v -0.007813 -0.003479 0.025513
v 0.059267 0.006897 0.099673
v -0.049318 0.006897 0.053163
v -0.001556 0.006897 0.030824
v 0.059267 0.006897 0.099673
v 0.042817 -0.003479 0.040559
v -0.059023 -0.003479 0.099185
v -0.052034 -0.003479 0.058657
v -0.002503 0.005554 0.095096
v 0.024140 0.002258 0.054476
v -0.001038 0.031312 0.064516
v -0.046999 0.006745 0.097903
v -0.007721 -0.016327 0.035371
v -0.059145 0.004089 0.058596
v -0.006500 -0.001709 0.029695
v -0.007691 -0.016327 0.103397
v -0.027650 0.004578 0.079958
v -0.027589 -0.000458 0.073794
v -0.002777 -0.001770 0.098025
v -0.055879 -0.001709 0.101840
v -0.057558 -0.003754 0.058535
v 0.024140 0.002258 0.054476
v -0.001556 0.006897 0.030824
v -0.052431 -0.028352 0.104587
v -0.007111 0.006409 0.096286
v -0.059145 0.004089 0.058596
v -0.027589 -0.000458 0.073794
v 0.064302 0.003784 0.094363
v -0.007813 -0.003479 0.025513
v -0.057558 -0.003754 0.058535
v -0.059145 0.004089 0.058596
v -0.055879 -0.001709 0.101840
v -0.055879 0.004639 0.101840
v -0.006500 0.006195 0.029695
v 0.024140 0.002258 0.054476
v -0.004364 0.013977 0.086276
v -0.006500 -0.001709 0.029695
v -0.057558 -0.003754 0.058535
v -0.076937 0.000702 0.101077
v -0.079257 0.000702 0.031190
v -0.007416 -0.002472 0.100375
v 0.061953 -0.003479 0.098575
v 0.024140 0.002258 0.054476
v -0.002503 0.005554 0.095096
v -0.046663 -0.016327 0.102878
v -0.057466 -0.019410 0.104678
v -0.006134 -0.028352 0.102603
v -0.049318 0.006897 0.053163
v 0.033082 -0.016327 0.046052
v 0.042817 -0.013733 0.040559
v 0.046876 0.006897 0.051698
v -0.008637 0.029420 0.094790
v -0.003601 -0.001892 0.064516
v -0.007813 -0.003479 0.025513
v -0.047670 -0.019410 0.052004
v 0.046876 0.006897 0.051698
v 0.039979 0.020386 0.056887
v 0.024140 0.002258 0.054476
v 0.067568 -0.004120 0.092318
v -0.002777 -0.001770 0.098025
v -0.042268 0.020386 0.058107
v 0.046876 0.006897 0.051698
v -0.007813 -0.013733 0.025513
v -0.059023 -0.003479 0.099185
v -0.002777 -0.001770 0.098025
v -0.059023 -0.013733 0.099185
v -0.006134 -0.028352 0.102603
v 0.044465 -0.028352 0.053591
v 0.055879 -0.028352 0.098605
v -0.007813 -0.003479 0.025513
v 0.085757 0.002197 0.035615
v -0.017701 0.003479 0.020905
v -0.043550 -0.028352 0.054903
v 0.018189 0.012848 0.071841
v -0.003601 -0.001892 0.064516
v -0.002503 0.005554 0.095096
v -0.059023 -0.003479 0.099185
v 0.067568 -0.004120 0.092318
v 0.064302 0.003784 0.094363
v 0.033082 -0.016327 0.016480
v -0.049318 0.006897 0.023591
v -0.001556 0.006897 0.001282
v 0.055879 -0.028352 0.069033
v 0.033082 -0.016327 0.016480
v -0.046785 -0.016327 0.041231
v -0.052034 -0.013733 0.029115
v -0.007721 -0.016327 0.005799
v -0.043550 -0.028352 0.025330
v -0.043550 -0.028352 0.025330
v 0.000153 -0.028352 0.004913
v 0.061953 -0.013733 0.069002
v 0.050142 -0.016327 0.071352
v 0.033082 -0.016327 0.016480
v 0.061953 -0.013733 0.069002
v 0.042817 -0.013733 0.010987
v 0.042817 -0.003479 0.010987
v 0.044465 -0.028352 0.024018
v 0.042817 -0.003479 0.010987
v 0.061953 -0.013733 0.069002
v 0.033082 -0.016327 0.016480
v 0.061953 -0.003479 0.069002
v 0.000092 -0.019410 0.000122
v -0.047670 -0.019410 0.022431
v 0.000092 -0.019410 0.000122
v -0.007111 0.006409 0.066744
v 0.042817 -0.003479 0.010987
v -0.007813 -0.003479 -0.004059
v -0.047670 -0.019410 0.022431
v -0.047670 -0.019410 0.022431
v -0.007721 -0.016327 0.005799
v -0.002503 0.005554 0.065523
v -0.002777 -0.001770 0.068453
v -0.001556 0.006897 0.001282
v -0.007721 -0.016327 0.005799
v -0.042268 0.020386 0.028565
v -0.001556 0.006897 0.001282
v 0.050142 -0.016327 0.071352
v -0.007691 -0.016327 0.073824
v -0.007813 -0.003479 -0.004059
v -0.047670 -0.019410 0.022431
v 0.059267 0.006897 0.070101
v -0.046785 -0.016327 0.041231
v -0.050569 0.020386 0.073122
v -0.001434 0.020386 0.009461
v -0.007691 -0.016327 0.073824
v -0.006500 -0.001709 0.000122
v 0.048494 -0.019410 0.020997
v -0.006500 -0.001709 0.000122
v 0.024140 0.002258 0.024934
v -0.027650 0.004578 0.050417
v -0.050569 0.020386 0.073122
v -0.008637 0.029420 0.065218
v 0.050661 0.020386 0.070254
v -0.055879 0.004639 0.072268
v -0.002777 -0.001770 0.068453
v -0.055879 -0.001709 0.072268
v 0.024140 0.002258 0.024934
v -0.006500 0.006195 0.000122
v -0.006500 0.006195 0.000122
v -0.002503 0.005554 0.065523
v 0.066683 0.001984 -0.003510
v -0.059175 0.006897 0.073244
v -0.007111 0.006409 0.066744
v -0.057466 -0.019410 0.075106
v -0.059023 -0.013733 0.069613
v -0.046785 -0.016327 0.041231
v -0.059023 -0.013733 0.069613
v -0.046663 -0.016327 0.073305
v 0.060915 -0.019410 0.068972
v -0.006134 -0.028352 0.073031
v -0.046663 -0.016327 0.073305
v -0.046785 -0.016327 0.041231
v -0.046663 -0.016327 0.073305
v -0.059023 -0.003479 0.069613
v -0.052431 -0.028352 0.075014
v -0.059023 -0.013733 0.069613
v 0.050142 -0.016327 0.071352
v -0.055879 -0.001709 0.072268
v 0.000153 -0.028352 0.004913
v -0.046663 -0.016327 0.073305
v -0.046663 -0.016327 0.073305
v -0.055879 0.004639 0.072268
v -0.002503 0.005554 0.065523
v -0.027650 0.004578 0.050417
v -0.059175 0.006897 0.073244
v -0.055879 0.004639 0.072268
v 0.050661 0.020386 0.070254
v -0.059145 0.004089 0.029023
v 0.042817 -0.003479 0.010987
v -0.052034 -0.003479 0.029115
v -0.003601 -0.001892 0.034944
v -0.007416 -0.002472 0.070803
v -0.002777 -0.001770 0.068453
v -0.027589 -0.000458 0.044221
v -0.007813 -0.003479 -0.004059
v -0.008637 0.029420 0.065218
v -0.001038 0.031312 0.034944
v -0.006134 -0.028352 0.073031
v -0.055879 -0.001709 0.072268
v -0.027589 -0.000458 0.044221
v -0.057558 -0.003754 0.028962
v -0.059145 0.004089 0.029023
v -0.057558 -0.003754 0.028962
v 0.024140 0.002258 0.024934
v -0.006500 -0.001709 0.000122
v -0.006500 0.006195 0.000122
v -0.059145 0.004089 0.029023
v -0.055879 0.004639 0.072268
v -0.057558 -0.003754 0.028962
v 0.046876 0.006897 0.022126
v -0.007721 -0.016327 0.005799
v 0.033082 -0.016327 0.016480
v 0.024140 0.002258 0.024934
v -0.055879 -0.001709 0.072268
v -0.007416 -0.002472 0.070803
v 0.061953 -0.003479 0.069002
v 0.061953 -0.003479 0.069002
v 0.060915 -0.019410 0.068972
v 0.050142 -0.016327 0.071352
v -0.079257 0.000702 -0.000153
v 0.055879 -0.028352 0.069033
v -0.007416 -0.002472 0.070803
v -0.004364 0.013977 0.056703
v 0.068697 0.003510 0.057039
v -0.052431 -0.028352 0.075014
v -0.057466 -0.019410 0.075106
v -0.002503 0.005554 0.065523
v -0.076937 0.000702 0.071535
v -0.007111 0.006409 0.066744
v -0.046999 0.006745 0.068331
v -0.003601 -0.001892 0.034944
v 0.067568 -0.004120 0.062746
v -0.059023 -0.003479 0.069613
v -0.059023 -0.013733 0.069613
v -0.059175 0.006897 0.073244
v 0.046876 0.006897 0.022126
v -0.049318 0.006897 0.023591
v 0.046876 0.006897 0.022126
v -0.007813 -0.003479 -0.004059
v 0.067568 -0.004120 0.062746
v 0.024140 0.002258 0.024934
v 0.039979 0.020386 0.027314
v 0.059267 0.006897 0.070101
v 0.067568 -0.004120 0.062746
v -0.002777 -0.001770 0.068453
v 0.064302 0.003784 0.064791
v -0.049318 0.006897 0.023591
v 0.059267 0.006897 0.070101
v 0.042817 -0.013733 0.010987
v 0.064302 0.003784 0.064791
v -0.043550 -0.028352 0.025330
v -0.052431 -0.028352 0.075014
v 0.024140 0.002258 0.024934
v -0.007813 -0.013733 -0.004059
v 0.068545 0.002197 0.006043
v -0.017701 0.003479 -0.010407
v 0.064302 0.003784 0.064791
v 0.018189 0.012848 0.042268
v -0.059023 -0.003479 0.069613
v -0.059023 -0.003479 0.069613
v -0.052034 -0.003479 0.029115
v -0.007813 -0.013733 -0.004059
v -0.006134 -0.028352 0.073031
v 0.044465 -0.028352 0.024018
v 0.055879 -0.028352 0.069033
vt 0.956337 0.612624
vt 0.843630 0.725301
vt 0.898823 0.942215
vt 0.450256 0.437972
vt 0.292966 0.345702
vt 0.288445 0.374730
vt 0.943436 0.189437
vt 0.895839 0.202851
vt 0.478319 0.423081
vt 0.698820 0.025908
vt 0.691616 0.090235
vt 0.832085 0.022592
vt 0.885108 0.988666
vt 0.699905 0.056564
vt 0.127417 0.400744
vt 0.166514 0.466457
vt 0.023964 0.566263
vt 0.146136 0.427964
vt 0.166514 0.466457
vt 0.057062 0.573950
vt 0.987717 0.186996
vt 0.943436 0.189437
vt 0.866509 0.336629
vt 0.180651 0.591343
vt 0.165036 0.529578
vt 0.898160 0.363969
vt 0.826207 0.442011
vt 0.166514 0.466457
vt 0.932042 0.237155
vt 0.417701 0.466337
vt 0.766975 0.986345
vt 0.423006 0.471612
vt 0.920255 0.368973
vt 0.184148 0.538893
vt 0.921612 0.169512
vt 0.868830 0.190944
vt 0.920135 0.964340
vt 0.956337 0.923556
vt 0.841400 0.988666
vt 0.905063 0.925153
vt 0.987717 0.186996
vt 0.898160 0.363969
vt 0.674133 0.103287
vt 0.826207 0.442011
vt 0.097756 0.570272
vt 0.800766 0.100544
vt 0.057062 0.573950
vt 0.317804 0.558004
vt 0.317804 0.474536
vt 0.317804 0.641471
vt 0.832085 0.022592
vt 0.813366 0.054153
vt 0.698428 0.924701
vt 0.932675 0.396765
vt 0.779726 0.416690
vt 0.645888 0.251774
vt 0.784760 0.371686
vt 0.398740 0.505825
vt 0.838626 0.539706
vt 0.398740 0.505825
vt 0.769899 0.721925
vt 0.687757 0.553934
vt 0.634433 0.715233
vt 0.832085 0.022592
vt 0.920135 0.540581
vt 0.508734 0.540370
vt 0.478319 0.423081
vt 0.932675 0.396765
vt 0.898160 0.363969
vt 0.905063 0.579436
vt 0.508734 0.540370
vt 0.545841 0.551493
vt 0.845891 0.523670
vt 0.885108 0.523670
vt 0.956337 0.721382
vt 0.789040 0.493617
vt 0.317804 0.641471
vt 0.801429 0.539706
vt 0.898823 0.563369
vt 0.905063 0.722045
vt 0.317804 0.474536
vt 0.317804 0.641471
vt 0.317804 0.474536
vt 0.804624 0.391339
vt 0.208564 0.662331
vt 0.581742 0.662331
vt 0.766975 0.521650
vt 0.293569 0.421905
vt 0.649837 0.045532
vt 0.920255 0.368973
vt 0.921612 0.169512
vt 0.649837 0.045532
vt 0.542616 0.558305
vt 0.484861 0.428898
vt 0.542616 0.558305
vt 0.398740 0.505825
vt 0.425749 0.599753
vt 0.814572 0.213010
vt 0.020106 0.306123
vt 0.292966 0.345702
vt 0.425749 0.599753
vt 0.317804 0.641471
vt 0.898823 0.729129
vt 0.317804 0.558004
vt 0.317804 0.558004
vt 0.398740 0.505825
vt 0.317804 0.474536
vt 0.425749 0.599753
vt 0.425749 0.599753
vt 0.921612 0.169512
vt 0.768181 0.400202
vt 0.932042 0.237155
vt 0.820540 0.804277
vt 0.317804 0.558004
vt 0.173296 0.600778
vt 0.505057 0.622782
vt 0.837391 0.804277
vt 0.820540 0.744563
vt 0.837391 0.764458
vt 0.820540 0.764458
vt 0.820540 0.794330
vt 0.828980 0.784382
vt 0.302160 0.829025
vt 0.837391 0.794330
vt 0.837391 0.744563
vt 0.384332 0.995750
vt 0.581742 0.995750
vt 0.417701 0.466337
vt 0.484861 0.428898
vt 0.228640 0.622180
vt 0.283953 0.558004
vt 0.905063 0.579436
vt 0.797119 0.437309
vt 0.956337 0.721382
vt 0.920255 0.368973
vt 0.127417 0.400744
vt 0.146136 0.427964
vt 0.776470 0.017860
vt 0.747864 0.265399
vt 0.467377 0.555230
vt 0.505057 0.622782
vt 0.898160 0.363969
vt 0.776470 0.017860
vt 0.770532 0.082729
vt 0.228640 0.622180
vt 0.173296 0.600778
vt 0.228640 0.536602
vt 0.873352 0.330419
vt 0.776470 0.017860
vt 0.288445 0.374730
vt 0.466594 0.553271
vt 0.838626 0.737991
vt 0.508734 0.540370
vt 0.624667 0.286892
vt 0.697735 0.401468
vt 0.580717 0.321587
vt 0.293569 0.421905
vt 0.367692 0.017287
vt 0.367813 0.306304
vt 0.866509 0.336629
vt 0.194035 0.161675
vt 0.467377 0.555230
vt 0.781233 0.739378
vt 0.466594 0.553271
vt 0.838626 0.950263
vt 0.774511 0.937723
vt 0.832085 0.022592
vt 0.920255 0.368973
vt 0.921612 0.169512
vt 0.691616 0.090235
vt 0.832085 0.022592
vt 0.478319 0.423081
vt 0.450256 0.437972
vt 0.292966 0.345702
vt 0.866509 0.336629
vt 0.866509 0.336629
vt 0.895839 0.202851
vt 0.885108 0.988666
vt 0.023964 0.566263
vt 0.127417 0.400744
vt 0.057062 0.573950
vt 0.146136 0.427964
vt 0.166514 0.466457
vt 0.800766 0.100544
vt 0.166514 0.466457
vt 0.057062 0.573950
vt 0.832085 0.022592
vt 0.097756 0.570272
vt 0.943436 0.189437
vt 0.898160 0.363969
vt 0.943436 0.189437
vt 0.932042 0.237155
vt 0.166514 0.466457
vt 0.293569 0.421905
vt 0.898160 0.363969
vt 0.898160 0.363969
vt 0.987717 0.186996
vt 0.781233 0.739378
vt 0.838626 0.737991
vt 0.921612 0.169512
vt 0.987717 0.186996
vt 0.873352 0.330419
vt 0.921612 0.169512
vt 0.898823 0.942215
vt 0.898823 0.729129
vt 0.293569 0.421905
vt 0.898160 0.363969
vt 0.766975 0.986345
vt 0.932675 0.396765
vt 0.804624 0.391339
vt 0.868830 0.190944
vt 0.905063 0.722045
vt 0.317804 0.641471
vt 0.813366 0.054153
vt 0.317804 0.641471
vt 0.425749 0.599753
vt 0.317804 0.558004
vt 0.687757 0.553934
vt 0.634433 0.715233
vt 0.698428 0.924701
vt 0.801429 0.539706
vt 0.398740 0.505825
vt 0.838626 0.539706
vt 0.425749 0.599753
vt 0.317804 0.641471
vt 0.317804 0.641471
vt 0.398740 0.505825
vt 0.581742 0.662331
vt 0.766975 0.521650
vt 0.769899 0.721925
vt 0.920135 0.540581
vt 0.508734 0.540370
vt 0.478319 0.423081
vt 0.508734 0.540370
vt 0.789040 0.493617
vt 0.699905 0.056564
vt 0.956337 0.721382
vt 0.545841 0.551493
vt 0.932675 0.396765
vt 0.898823 0.563369
vt 0.845891 0.523670
vt 0.956337 0.612624
vt 0.885108 0.523670
vt 0.698820 0.025908
vt 0.317804 0.474536
vt 0.779726 0.416690
vt 0.905063 0.579436
vt 0.905063 0.579436
vt 0.317804 0.474536
vt 0.398740 0.505825
vt 0.317804 0.558004
vt 0.826207 0.442011
vt 0.317804 0.474536
vt 0.674133 0.103287
vt 0.425749 0.599753
vt 0.542616 0.558305
vt 0.542616 0.558305
vt 0.467377 0.555230
vt 0.417701 0.466337
vt 0.398740 0.505825
vt 0.317804 0.558004
vt 0.505057 0.622782
vt 0.747864 0.265399
vt 0.814572 0.213010
vt 0.956337 0.721382
vt 0.317804 0.474536
vt 0.317804 0.558004
vt 0.425749 0.599753
vt 0.820540 0.804277
vt 0.837391 0.804277
vt 0.828980 0.784382
vt 0.837391 0.794330
vt 0.820540 0.794330
vt 0.820540 0.744563
vt 0.820540 0.764458
vt 0.837391 0.744563
vt 0.776470 0.017860
vt 0.292966 0.345702
vt 0.127417 0.400744
vt 0.228640 0.622180
vt 0.837391 0.764458
vt 0.417701 0.466337
vt 0.841400 0.988666
vt 0.484861 0.428898
vt 0.920135 0.964340
vt 0.905063 0.925153
vt 0.581742 0.995750
vt 0.956337 0.923556
vt 0.843630 0.725301
vt 0.302160 0.829025
vt 0.208564 0.662331
vt 0.768181 0.400202
vt 0.797119 0.437309
vt 0.283953 0.558004
vt 0.384332 0.995750
vt 0.932042 0.237155
vt 0.020106 0.306123
vt 0.467377 0.555230
vt 0.838626 0.950263
vt 0.466594 0.553271
vt 0.508734 0.540370
vt 0.826207 0.442011
vt 0.776470 0.017860
vt 0.920255 0.368973
vt 0.776470 0.017860
vt 0.505057 0.622782
vt 0.184148 0.538893
vt 0.180651 0.591343
vt 0.770532 0.082729
vt 0.649837 0.045532
vt 0.173296 0.600778
vt 0.228640 0.536602
vt 0.173296 0.600778
vt 0.920255 0.368973
vt 0.649837 0.045532
vt 0.146136 0.427964
vt 0.774511 0.937723
vt 0.784760 0.371686
vt 0.645888 0.251774
vt 0.228640 0.622180
vt 0.288445 0.374730
vt 0.376102 0.034951
vt 0.367813 0.306304
vt 0.165036 0.529578
vt 0.194035 0.161675
vt 0.484861 0.428898
vt 0.466594 0.553271
vt 0.423006 0.471612
vt 0.288445 0.374730
vt 0.624667 0.286892
vt 0.697735 0.401468
vt 0.580717 0.321587
vn 0.059671 0.112353 0.991875
vn 0.011381 0.203652 0.978977
vn 0.045263 0.169167 0.984548
vn -0.666710 -0.640569 -0.381009
vn -0.156803 -0.969096 -0.190438
vn -0.567151 -0.325130 -0.756724
vn 0.020126 -0.398151 -0.917099
vn -0.013140 -0.472334 -0.881322
vn -0.199962 -0.972275 -0.121231
vn 0.233828 0.969965 -0.067026
vn 0.850219 -0.480264 -0.215581
vn 0.214303 0.974490 -0.066664
vn 0.192702 0.000000 0.981257
vn 0.964997 0.086368 -0.247630
vn 0.210378 -0.975289 -0.067471
vn 0.949678 0.000000 -0.313229
vn 0.202295 -0.977301 -0.062929
vn 0.722344 -0.649198 -0.238248
vn 0.949678 0.000000 -0.313229
vn 0.538809 -0.823818 -0.176094
vn -0.072341 0.831361 -0.551004
vn -0.072341 0.831361 -0.551004
vn -0.380335 -0.438826 -0.814111
vn 0.628725 0.427740 -0.649418
vn 0.628725 0.427740 -0.649418
vn -0.363554 0.511884 -0.778334
vn -0.009618 -0.999952 -0.001909
vn 0.284855 0.000000 -0.958570
vn 0.001047 -0.999992 -0.003856
vn -0.026195 0.999649 0.003883
vn -0.050600 -0.043570 0.997768
vn -0.745726 0.000000 -0.666253
vn -0.658474 0.537289 -0.527003
vn 0.628725 0.427740 -0.649418
vn -0.012857 0.519666 -0.854273
vn -0.008707 0.809783 -0.586665
vn 0.185337 -0.097696 0.977807
vn 0.079614 -0.149613 0.985534
vn 0.047592 0.134917 0.989713
vn 0.063468 -0.109974 0.991906
vn -0.139518 0.978200 -0.153818
vn -0.139518 0.978200 -0.153818
vn 0.318963 0.944440 -0.079344
vn -0.840648 0.516793 -0.161977
vn 0.949678 0.000000 -0.313229
vn 0.653279 -0.495320 -0.572612
vn 0.949678 0.000000 -0.313229
vn 0.033022 0.999454 -0.001160
vn -0.007259 0.999900 -0.012154
vn 0.076067 0.995045 0.064027
vn 0.333009 0.539573 -0.773282
vn 0.627668 0.602007 -0.493580
vn -0.065610 0.018491 0.997674
vn -0.139518 0.978200 -0.153818
vn 0.000000 -1.000000 0.000000
vn 0.000000 -1.000000 0.000000
vn 0.000000 -1.000000 0.000000
vn -0.004689 -0.998774 -0.049289
vn 0.071654 0.000000 0.997430
vn -0.020901 0.999339 -0.029751
vn 0.027568 0.016920 0.999477
vn 0.150478 0.014615 0.988505
vn 0.028264 0.066690 0.997373
vn 0.096598 0.924394 -0.369004
vn 0.144211 0.071105 0.986989
vn -0.332521 -0.941351 -0.057340
vn -0.205625 -0.978630 0.000783
vn -0.411669 0.910121 -0.046993
vn -0.875013 -0.455927 -0.162734
vn -0.013281 -0.067552 0.997627
vn -0.205625 -0.978630 0.000783
vn -0.205625 -0.978630 0.000783
vn -0.069088 0.213612 0.974473
vn -0.286262 0.000000 0.958151
vn 0.037447 -0.100342 0.994248
vn -0.274201 0.961672 0.001044
vn 0.076440 -0.994967 0.064785
vn 0.094909 0.206760 0.973777
vn -0.046577 0.213561 0.975819
vn 0.020447 -0.063197 0.997792
vn -0.004689 -0.998774 -0.049289
vn -0.029024 0.999380 0.019947
vn -0.020901 0.999339 -0.029751
vn -0.416074 0.906025 -0.077462
vn 0.141885 0.989412 -0.030548
vn 0.039228 0.987164 -0.154819
vn 0.123515 -0.069846 0.989882
vn -0.599735 0.000000 -0.800199
vn 0.829055 0.518076 -0.210395
vn -0.009618 -0.999952 -0.001909
vn 0.003101 -0.999969 -0.007196
vn 0.007454 -0.999970 -0.001925
vn 0.020291 0.999755 -0.008833
vn -0.019434 0.999806 -0.003351
vn -0.026847 0.999593 -0.009638
vn 0.007154 0.997066 -0.076212
vn 0.048101 0.998819 0.006847
vn -0.002378 0.987077 -0.160228
vn -0.128800 0.987497 -0.090888
vn 0.066625 -0.964773 -0.254507
vn -0.020577 0.999760 0.007485
vn 0.076436 -0.994968 0.064783
vn 0.020019 0.212633 0.976927
vn -0.020577 0.999760 0.007485
vn 0.035645 -0.999231 -0.016315
vn 0.023276 -0.996696 -0.077810
vn 0.087251 -0.995231 0.043609
vn 0.081162 -0.995152 0.055550
vn 0.051066 -0.998689 -0.003675
vn -0.003633 -0.999963 -0.007767
vn -0.861615 -0.483633 -0.154011
vn -0.003633 -0.999963 -0.007767
vn -0.476543 -0.089615 -0.874572
vn 0.081162 -0.995152 0.055550
vn 0.025730 0.997614 -0.064072
vn 0.012480 0.999040 -0.041997
vn -0.484581 -0.045448 -0.873565
vn -0.991986 -0.111190 0.059998
vn -0.991986 -0.111190 0.059998
vn -0.997161 0.000000 0.075297
vn -0.236658 -0.038989 -0.970810
vn 0.628842 0.000000 -0.777533
vn -0.024018 0.993736 -0.109141
vn -0.049621 0.000000 -0.998768
vn -0.978969 -0.198447 0.047314
vn -0.178767 0.983874 0.005933
vn -0.076938 0.988056 -0.133517
vn 0.022939 0.999734 0.002432
vn 0.014393 0.999885 -0.004747
vn 0.025730 0.997614 -0.064072
vn 0.025730 0.997614 -0.064072
vn 0.059671 0.112353 0.991875
vn -0.983929 0.069190 -0.164611
vn 0.042496 0.120580 0.991794
vn -0.003633 -0.999963 -0.007767
vn 0.077439 -0.958259 -0.275215
vn 0.241483 -0.530414 -0.812617
vn 0.345991 0.485663 -0.802759
vn -0.001856 0.999996 -0.002339
vn -0.031141 0.999427 -0.013280
vn -0.028181 0.998895 -0.037601
vn -0.620533 0.000687 -0.784180
vn 0.833451 0.508944 -0.215255
vn 0.380266 0.884119 -0.271535
vn -0.042728 -0.992073 -0.118178
vn -0.042728 -0.992073 -0.118178
vn -0.042728 -0.992073 -0.118178
vn -0.421269 0.856746 -0.297520
vn 0.005229 -0.999976 -0.004620
vn 0.239778 -0.527628 -0.814933
vn -0.985456 0.000000 -0.169932
vn 0.068254 0.126012 0.989678
vn -0.985456 0.000000 -0.169932
vn 0.000000 -1.000000 0.000000
vn 0.000000 -1.000000 0.000000
vn 0.000000 -1.000000 0.000000
vn 0.284855 0.000000 -0.958570
vn 0.041848 0.976978 -0.209194
vn -0.038621 0.987256 -0.154386
vn -0.765349 -0.497876 -0.407874
vn -0.038621 0.987256 -0.154386
vn 0.027158 0.999539 -0.013591
vn 0.060330 0.368763 0.927564
vn -0.985456 0.000000 -0.169932
vn 0.071473 -0.222024 0.972418
vn 0.048816 0.067501 0.996524
vn 0.214430 0.974462 -0.066667
vn -0.003628 -0.999963 -0.007767
vn -0.003628 -0.999963 -0.007767
vn 0.850219 -0.480264 -0.215581
vn 0.334380 0.535771 -0.775332
vn -0.200195 -0.972203 -0.121420
vn -0.666937 -0.640208 -0.381221
vn -0.157030 -0.969021 -0.190630
vn -0.765349 -0.497876 -0.407874
vn -0.380335 -0.438826 -0.814111
vn -0.013140 -0.472334 -0.881322
vn 0.195141 0.000000 0.980775
vn 0.202155 -0.977335 -0.062850
vn 0.210302 -0.975308 -0.067429
vn 0.538605 -0.823968 -0.176012
vn 0.722344 -0.649198 -0.238248
vn 0.949678 0.000000 -0.313229
vn 0.653609 -0.494550 -0.572901
vn 0.949678 0.000000 -0.313229
vn 0.949678 0.000000 -0.313229
vn 0.096598 0.924394 -0.369004
vn 0.949678 0.000000 -0.313229
vn -0.072341 0.831361 -0.551004
vn -0.620533 0.000687 -0.784180
vn 0.020315 -0.398000 -0.917160
vn 0.001046 -0.999992 -0.003856
vn 0.284855 0.000000 -0.958570
vn 0.284855 0.000000 -0.958570
vn -0.139518 0.978200 -0.153818
vn -0.363554 0.511884 -0.778334
vn -0.072341 0.831361 -0.551004
vn 0.060330 0.368763 0.927564
vn 0.068254 0.126012 0.989678
vn 0.003097 -0.999969 -0.007196
vn -0.139518 0.978200 -0.153818
vn -0.421297 0.856710 -0.297584
vn -0.013007 0.519283 -0.854503
vn 0.045212 0.170280 0.984358
vn 0.019711 0.212641 0.976932
vn -0.600088 0.000000 -0.799934
vn -0.875013 -0.455927 -0.162734
vn -0.050145 -0.043280 0.997804
vn -0.139518 0.978200 -0.153818
vn -0.416080 0.906018 -0.077516
vn -0.008930 0.809530 -0.587010
vn 0.020132 -0.063238 0.997795
vn 0.076390 -0.994973 0.064761
vn 0.627502 0.602325 -0.493403
vn 0.076440 -0.994967 0.064785
vn 0.051068 -0.998688 -0.003675
vn -0.020582 0.999760 0.007481
vn 0.150081 0.015521 0.988552
vn 0.028262 0.068007 0.997284
vn -0.065305 0.019410 0.997677
vn 0.094909 0.206760 0.973777
vn -0.004689 -0.998774 -0.049289
vn 0.071654 0.000000 0.997430
vn 0.048101 0.998819 0.006847
vn -0.029033 0.999380 0.019932
vn 0.076043 0.995050 0.063978
vn -0.020907 0.999337 -0.029801
vn 0.039362 0.987853 -0.150325
vn 0.122950 -0.069484 0.989977
vn 0.027567 0.017838 0.999461
vn 0.144211 0.071105 0.986989
vn -0.332668 -0.941295 -0.057408
vn -0.205625 -0.978630 0.000783
vn -0.205625 -0.978630 0.000783
vn -0.274201 0.961672 0.001044
vn 0.964927 0.086938 -0.247705
vn 0.042496 0.120580 0.991794
vn -0.205625 -0.978630 0.000783
vn -0.411669 0.910121 -0.046993
vn -0.046577 0.213561 0.975819
vn -0.069088 0.213612 0.974473
vn 0.059671 0.112353 0.991875
vn -0.286262 0.000000 0.958151
vn 0.233828 0.969965 -0.067026
vn -0.004689 -0.998774 -0.049289
vn 0.000000 -1.000000 0.000000
vn -0.013281 -0.067552 0.997627
vn 0.059671 0.112353 0.991875
vn -0.020907 0.999337 -0.029801
vn 0.007112 0.997060 -0.076296
vn 0.033041 0.999453 -0.001161
vn -0.840557 0.516929 -0.162012
vn -0.007246 0.999900 -0.012154
vn 0.318963 0.944440 -0.079344
vn -0.020582 0.999760 0.007481
vn 0.020291 0.999755 -0.008833
vn -0.026855 0.999593 -0.009641
vn 0.027158 0.999539 -0.013591
vn -0.026194 0.999649 0.003885
vn 0.023309 -0.996693 -0.077844
vn 0.035646 -0.999231 -0.016315
vn -0.028205 0.998895 -0.037598
vn -0.001807 0.999996 -0.002340
vn -0.002438 0.987076 -0.160235
vn 0.037252 -0.101342 0.994154
vn 0.087251 -0.995231 0.043609
vn 0.081162 -0.995152 0.055550
vn 0.081162 -0.995152 0.055550
vn -0.476543 -0.089615 -0.874572
vn -0.484581 -0.045448 -0.873565
vn 0.629310 0.000000 -0.777155
vn -0.049249 0.000000 -0.998787
vn -0.236450 -0.038991 -0.970861
vn -0.991986 -0.111190 0.059998
vn -0.997161 0.000000 0.075297
vn -0.978969 -0.198447 0.047314
vn 0.345589 0.485550 -0.803000
vn 0.066625 -0.964773 -0.254507
vn 0.077439 -0.958259 -0.275215
vn 0.025730 0.997610 -0.064120
vn -0.991986 -0.111190 0.059998
vn 0.022939 0.999734 0.002432
vn 0.047910 0.136922 0.989423
vn 0.014393 0.999885 -0.004747
vn 0.187614 -0.098982 0.977243
vn 0.063398 -0.111295 0.991763
vn -0.076666 0.988567 -0.129838
vn 0.079898 -0.151907 0.985160
vn 0.011247 0.204335 0.978836
vn -0.023737 0.994074 -0.106084
vn 0.141898 0.989437 -0.029656
vn -0.861615 -0.483633 -0.154011
vn -0.983929 0.069190 -0.164611
vn 0.025730 0.997610 -0.064120
vn -0.178794 0.983870 0.005785
vn -0.003628 -0.999963 -0.007767
vn -0.127900 0.987825 -0.088559
vn -0.031149 0.999427 -0.013280
vn 0.071473 -0.222024 0.972418
vn -0.985434 0.000000 -0.170056
vn -0.985434 0.000000 -0.170056
vn -0.009617 -0.999952 -0.001909
vn 0.005227 -0.999976 -0.004619
vn -0.009617 -0.999952 -0.001909
vn 0.833451 0.508944 -0.215255
vn 0.012480 0.999040 -0.041997
vn 0.628485 0.427706 -0.649672
vn 0.628485 0.427706 -0.649672
vn 0.380286 0.884093 -0.271591
vn 0.829055 0.518076 -0.210395
vn -0.042735 -0.992062 -0.118264
vn -0.042735 -0.992062 -0.118264
vn 0.025730 0.997610 -0.064120
vn -0.657946 0.538132 -0.526803
vn 0.007453 -0.999970 -0.001925
vn 0.241483 -0.530414 -0.812617
vn 0.048816 0.067501 0.996524
vn 0.000000 -1.000000 0.000000
vn 0.000000 -1.000000 0.000000
vn -0.042735 -0.992062 -0.118264
vn 0.239778 -0.527628 -0.814933
vn 0.054726 0.975978 -0.210883
vn -0.040855 0.988154 -0.147924
vn 0.628485 0.427706 -0.649672
vn -0.040855 0.988154 -0.147924
vn -0.019434 0.999806 -0.003354
vn -0.985434 0.000000 -0.170056
vn -0.745820 0.000000 -0.666147
vn -0.567505 -0.325035 -0.756499
vn 0.000000 -1.000000 0.000000
vn 0.000000 -1.000000 0.000000
vn 0.000000 -1.000000 0.000000
f 45/45/45 47/47/47 19/19/19
f 72/72/72 71/71/71 67/67/67
f 105/105/105 58/58/58 81/81/81
f 60/60/60 48/48/48 83/83/83
f 112/112/112 135/135/135 110/110/110
f 29/29/29 27/27/27 90/90/90
f 142/142/142 7/7/7 160/160/160
f 153/153/153 151/151/151 4/4/4
f 34/34/34 24/24/24 25/25/25
f 54/54/54 41/41/41 42/42/42
f 115/115/115 130/130/130 131/131/131
f 145/145/145 146/146/146 147/147/147
f 12/12/12 10/10/10 52/52/52
f 52/52/52 10/10/10 14/14/14
f 52/52/52 14/14/14 46/46/46
f 46/46/46 7/7/7 52/52/52
f 7/7/7 51/51/51 52/52/52
f 46/46/46 14/14/14 11/11/11
f 8/8/8 7/7/7 46/46/46
f 23/23/23 7/7/7 8/8/8
f 39/39/39 3/3/3 13/13/13
f 2/2/2 3/3/3 39/39/39
f 103/103/103 3/3/3 2/2/2
f 103/103/103 2/2/2 79/79/79
f 79/79/79 2/2/2 73/73/73
f 79/79/79 73/73/73 74/74/74
f 17/17/17 15/15/15 20/20/20
f 20/20/20 15/15/15 18/18/18
f 16/16/16 20/20/20 18/18/18
f 21/21/21 64/64/64 22/22/22
f 26/26/26 21/21/21 22/22/22
f 1/1/1 132/132/132 65/65/65
f 1/1/1 134/134/134 132/132/132
f 9/9/9 66/66/66 4/4/4
f 9/9/9 4/4/4 5/5/5
f 5/5/5 4/4/4 6/6/6
f 32/32/32 6/6/6 4/4/4
f 88/88/88 6/6/6 32/32/32
f 4/4/4 164/164/164 32/32/32
f 133/133/133 68/68/68 142/142/142
f 76/76/76 68/68/68 133/133/133
f 70/70/70 75/75/75 80/80/80
f 80/80/80 75/75/75 40/40/40
f 40/40/40 75/75/75 38/38/38
f 40/40/40 38/38/38 37/37/37
f 160/160/160 133/133/133 69/69/69
f 111/111/111 133/133/133 160/160/160
f 108/108/108 77/77/77 114/114/114
f 114/114/114 107/107/107 108/108/108
f 57/57/57 154/154/154 56/56/56
f 55/55/55 154/154/154 57/57/57
f 55/55/55 155/155/155 154/154/154
f 154/154/154 155/155/155 156/156/156
f 152/152/152 78/78/78 59/59/59
f 163/163/163 78/78/78 152/152/152
f 152/152/152 166/166/166 163/163/163
f 165/165/165 166/166/166 152/152/152
f 82/82/82 101/101/101 104/104/104
f 104/104/104 101/101/101 49/49/49
f 97/97/97 50/50/50 48/48/48
f 96/96/96 97/97/97 48/48/48
f 102/102/102 109/109/109 105/105/105
f 109/109/109 106/106/106 105/105/105
f 121/121/121 117/117/117 113/113/113
f 124/124/124 117/117/117 121/121/121
f 122/122/122 124/124/124 121/121/121
f 118/118/118 119/119/119 120/120/120
f 125/125/125 119/119/119 118/118/118
f 93/93/93 128/128/128 129/129/129
f 128/128/128 93/93/93 162/162/162
f 162/162/162 93/93/93 116/116/116
f 100/100/100 150/150/150 136/136/136
f 136/136/136 150/150/150 137/137/137
f 150/150/150 28/28/28 137/137/137
f 157/157/157 28/28/28 150/150/150
f 99/99/99 161/161/161 159/159/159
f 161/161/161 158/158/158 159/159/159
f 138/138/138 35/35/35 144/144/144
f 144/144/144 35/35/35 36/36/36
f 144/144/144 36/36/36 98/98/98
f 139/139/139 144/144/144 98/98/98
f 43/43/43 144/144/144 139/139/139
f 43/43/43 89/89/89 144/144/144
f 144/144/144 89/89/89 143/143/143
f 35/35/35 148/148/148 36/36/36
f 36/36/36 148/148/148 98/98/98
f 148/148/148 139/139/139 98/98/98
f 84/84/84 139/139/139 148/148/148
f 148/148/148 44/44/44 84/84/84
f 33/33/33 44/44/44 148/148/148
f 33/33/33 148/148/148 35/35/35
f 29/29/29 91/91/91 149/149/149
f 92/92/92 29/29/29 149/149/149
f 140/140/140 141/141/141 95/95/95
f 30/30/30 140/140/140 95/95/95
f 30/30/30 95/95/95 94/94/94
f 53/53/53 61/61/61 31/31/31
f 63/63/63 61/61/61 53/53/53
f 62/62/62 61/61/61 63/63/63
f 87/87/87 61/61/61 62/62/62
f 85/85/85 86/86/86 123/123/123
f 123/123/123 86/86/86 127/127/127
f 126/126/126 123/123/123 127/127/127
f 296/296/296 168/168/168 169/169/169
f 188/188/188 186/186/186 185/185/185
f 238/238/238 234/234/234 233/233/233
f 261/261/261 222/222/222 245/245/245
f 227/227/227 251/251/251 249/249/249
f 192/192/192 302/302/302 304/304/304
f 307/307/307 308/308/308 324/324/324
f 301/301/301 327/327/327 173/173/173
f 190/190/190 191/191/191 175/175/175
f 209/209/209 201/201/201 195/195/195
f 313/313/313 280/280/280 294/294/294
f 320/320/320 311/311/311 312/312/312
f 191/191/191 171/171/171 214/214/214
f 184/184/184 191/191/191 214/214/214
f 177/177/177 191/191/191 184/184/184
f 176/176/176 191/191/191 177/177/177
f 214/214/214 236/236/236 184/184/184
f 184/184/184 236/236/236 170/170/170
f 214/214/214 244/244/244 236/236/236
f 167/167/167 244/244/244 214/214/214
f 283/283/283 204/204/204 178/178/178
f 289/289/289 204/204/204 283/283/283
f 205/205/205 204/204/204 289/289/289
f 205/205/205 289/289/289 240/240/240
f 240/240/240 289/289/289 241/241/241
f 240/240/240 241/241/241 243/243/243
f 179/179/179 180/180/180 181/181/181
f 181/181/181 180/180/180 182/182/182
f 183/183/183 181/181/181 182/182/182
f 197/197/197 187/187/187 189/189/189
f 196/196/196 197/197/197 189/189/189
f 242/242/242 248/248/248 231/231/231
f 242/242/242 237/237/237 248/248/248
f 172/172/172 232/232/232 173/173/173
f 172/172/172 173/173/173 174/174/174
f 174/174/174 173/173/173 329/329/329
f 328/328/328 329/329/329 173/173/173
f 206/206/206 329/329/329 328/328/328
f 173/173/173 300/300/300 328/328/328
f 293/293/293 239/239/239 190/190/190
f 235/235/235 239/239/239 293/293/293
f 247/247/247 265/265/265 212/212/212
f 212/212/212 265/265/265 286/286/286
f 286/286/286 265/265/265 288/288/288
f 286/286/286 288/288/288 285/285/285
f 213/213/213 216/216/216 261/261/261
f 216/216/216 260/260/260 261/261/261
f 199/199/199 221/221/221 223/223/223
f 198/198/198 221/221/221 199/199/199
f 199/199/199 317/317/317 198/198/198
f 299/299/299 317/317/317 199/199/199
f 225/225/225 255/255/255 217/217/217
f 217/217/217 255/255/255 253/253/253
f 224/224/224 226/226/226 251/251/251
f 250/250/250 224/224/224 251/251/251
f 268/268/268 215/215/215 267/267/267
f 267/267/267 266/266/266 268/268/268
f 273/273/273 270/270/270 269/269/269
f 272/272/272 270/270/270 273/273/273
f 271/271/271 272/272/272 273/273/273
f 274/274/274 281/281/281 275/275/275
f 276/276/276 281/281/281 274/274/274
f 256/256/256 282/282/282 284/284/284
f 282/282/282 256/256/256 258/258/258
f 258/258/258 256/256/256 306/306/306
f 175/175/175 293/293/293 207/207/207
f 292/292/292 293/293/293 175/175/175
f 278/278/278 321/321/321 279/279/279
f 279/279/279 321/321/321 316/316/316
f 321/321/321 193/193/193 316/316/316
f 194/194/194 193/193/193 321/321/321
f 297/297/297 325/325/325 323/323/323
f 325/325/325 322/322/322 323/323/323
f 298/298/298 262/262/262 257/257/257
f 259/259/259 298/298/298 257/257/257
f 259/259/259 257/257/257 326/326/326
f 277/277/277 203/203/203 309/309/309
f 309/309/309 203/203/203 211/211/211
f 309/309/309 211/211/211 264/264/264
f 263/263/263 309/309/309 264/264/264
f 254/254/254 309/309/309 263/263/263
f 254/254/254 310/310/310 309/309/309
f 309/309/309 310/310/310 305/305/305
f 203/203/203 202/202/202 211/211/211
f 211/211/211 202/202/202 264/264/264
f 202/202/202 263/263/263 264/264/264
f 210/210/210 263/263/263 202/202/202
f 202/202/202 252/252/252 210/210/210
f 314/314/314 252/252/252 202/202/202
f 314/314/314 202/202/202 203/203/203
f 192/192/192 200/200/200 303/303/303
f 315/315/315 192/192/192 303/303/303
f 220/220/220 230/230/230 208/208/208
f 219/219/219 230/230/230 220/220/220
f 218/218/218 230/230/230 219/219/219
f 229/229/229 230/230/230 218/218/218
f 291/291/291 228/228/228 290/290/290
f 290/290/290 228/228/228 287/287/287
f 295/295/295 290/290/290 287/287/287
f 318/318/318 330/330/330 319/319/319
f 246/246/246 330/330/330 318/318/318
f 246/246/246 331/331/331 330/330/330
f 330/330/330 331/331/331 332/332/332
