# Exported by s4extract — treeAppleRural_01_lod01_g00
o treeAppleRural_01_lod01_g00
v 0.052098 2.198560 -0.251733
v 0.543143 7.658050 -0.378336
v -0.206645 2.074710 -0.334548
v -0.951860 3.285400 -0.158491
v -0.649793 3.192330 -0.109347
v -1.368290 4.226960 -0.164987
v -1.534960 4.214110 0.037371
v -1.375560 5.317300 0.857579
v -0.964382 6.672690 0.918965
v -0.732005 3.600020 -0.197338
v -2.207250 4.609770 -1.265040
v -0.799886 3.131990 -0.394479
v -0.772147 3.419530 -0.531844
v -0.514521 3.293290 -0.390375
v -0.189584 2.139450 0.039112
v -0.049429 2.135280 -0.379789
v -0.308320 2.074860 -0.049363
v -0.336031 2.036540 -0.221295
v -0.572744 3.499700 -0.153038
v -1.389120 4.210020 0.244977
v -1.162650 6.613540 0.980526
v -0.900738 3.392150 -0.216008
v -0.912008 3.555450 -0.003321
v -1.197390 4.403550 -0.059908
v -0.096492 2.381770 0.044466
v -0.051232 2.442360 -0.053251
v -0.160858 2.214230 0.040764
v -1.156210 4.227210 0.114496
v -1.121090 6.552790 1.156270
v -2.188590 4.675420 -1.127690
v -3.331010 6.333580 -1.137020
v 1.129170 4.379970 0.022235
v 1.326120 4.525740 0.098096
v 2.543530 5.376630 0.555877
v 0.617532 5.500500 -0.350455
v 0.197310 5.605180 -0.445023
v 0.264106 5.634930 -0.610712
v 1.267060 4.651240 0.021743
v 0.992806 4.418340 -0.001090
v 1.142930 4.565110 -0.026248
v 0.922977 4.197610 0.056327
v 1.368310 4.554270 -0.051820
v 2.760550 6.350300 0.799507
v 0.726184 5.445100 -0.280999
v 0.647276 5.742600 -0.207163
v 0.929119 4.189750 -0.088172
v 1.152200 4.396520 -0.135411
v 2.455730 5.430200 0.597922
v 0.646801 5.835390 -0.302399
v 0.480659 5.984120 -0.130076
v 0.402227 5.959570 -0.240788
v 2.509700 5.355080 0.659500
v 0.548593 5.759630 -0.294909
v 0.717750 5.577010 -0.342978
v -0.415395 6.597100 -0.501761
v -0.376232 6.611750 -0.596611
v -1.276790 7.678030 -0.835100
v -0.311201 6.958720 0.100247
v -1.629410 5.320510 0.866730
v -1.637880 5.383690 0.628045
v -1.392490 5.394500 0.616393
v -0.925861 6.637780 1.118450
v 0.352027 5.697150 -0.465115
v -1.387840 5.382980 0.426302
v -1.478890 4.770000 0.408017
v -2.097060 4.714450 -1.244410
v -1.149100 7.596510 0.558617
v 0.790276 5.080240 -0.421638
v -1.356230 5.019080 0.494652
v -0.329718 6.654100 -0.514222
v 0.512646 6.041480 -0.251315
v -1.544120 5.322040 0.290118
v -1.533640 5.031170 0.537311
v -1.591950 5.368370 0.495669
v -1.505450 5.772770 0.306943
v -1.929800 6.639440 -0.487959
v -1.883900 6.582420 -0.587038
v -1.807850 6.630280 -0.502773
v -1.689400 5.767480 0.366110
v -1.633380 5.660790 0.214977
v -1.552210 7.544790 -1.291210
v 0.407335 5.325590 -0.355490
v 0.525390 5.315200 -0.552053
v 0.655368 5.362690 -0.402377
v 0.472718 5.548810 -0.435985
v 0.654329 5.151980 -0.311494
v 0.648386 4.530420 -0.076480
v 0.603338 5.695140 -0.416720
v 0.588556 7.164160 -0.450877
v 0.596677 7.136440 -0.336928
v 0.487905 7.082530 -0.336193
v 0.848240 5.761660 -0.405441
v 0.475579 7.117760 -0.436919
v -0.135670 2.190710 0.170927
v -0.168319 2.078450 0.067364
v 0.165478 2.097360 0.295534
v 0.021314 2.348590 -0.134529
v 0.784401 4.338740 -0.193257
v -0.008387 2.146260 0.260064
v 1.024170 4.455270 -0.188245
v 0.261774 2.095060 0.134113
v 0.066305 2.213610 -0.171524
v 0.796401 4.613620 0.112567
v 0.861066 5.709320 -0.653581
v 0.999983 4.446470 0.061732
v 0.624320 5.647460 -0.656652
v -0.275328 1.608960 -0.135801
v -0.096679 1.487370 -0.257207
v -0.081847 1.532230 0.219546
v 0.130143 2.168530 -0.158986
v 0.240156 2.123040 -0.030300
v -0.264434 1.617400 0.092768
v 0.251720 1.529410 0.064329
v 0.132761 1.660200 0.250661
v 0.114355 2.005020 -0.160250
v -0.160176 2.153190 0.046605
v 0.341042 0.264209 0.128511
v 0.143423 -0.202671 0.316643
v 0.264605 0.769177 -0.114321
v -0.290320 0.899503 0.134703
v -0.297458 0.893721 -0.114355
v 0.491984 -0.202671 0.185237
v -0.119044 0.825911 -0.275387
v 0.127040 0.933986 -0.320455
v -0.091991 0.766434 0.264460
v 0.148261 0.952188 0.310314
v 0.240595 1.514450 -0.132548
v 0.289596 0.826352 0.107996
v 0.101749 1.559940 -0.288126
v 0.316643 -0.202671 -0.143423
v 0.283254 0.264678 -0.128179
v 0.150408 -0.202671 -0.399478
v -0.325315 -0.202671 -0.122485
v -0.296595 0.268274 -0.111558
v 0.117770 0.265785 -0.312631
v -0.175031 -0.202671 -0.386426
v -0.138442 0.267374 -0.305575
v -0.323570 0.268331 0.146699
v -0.468469 -0.202671 0.212193
v -0.122485 -0.202671 0.325315
v -0.110563 0.266945 0.293853
v 0.131096 0.265445 0.289488
vn 0.717447 0.247304 -0.651238
vn -0.377788 0.878147 0.293486
vn -0.351330 -0.236255 -0.905953
vn -0.790534 -0.429755 0.436310
vn 0.012893 -0.081288 0.996607
vn -0.426159 0.370524 -0.825288
vn -0.926386 -0.314665 -0.206871
vn 0.775653 -0.340741 0.531279
vn 0.735929 -0.172964 -0.654593
vn 0.717885 0.282279 -0.636365
vn -0.069867 -0.526316 -0.847414
vn -0.744568 -0.420183 -0.518713
vn -0.088223 0.042034 -0.995213
vn 0.697618 0.490018 -0.522696
vn -0.328059 0.055001 0.943055
vn 0.176269 -0.068473 -0.981958
vn -0.699176 -0.155786 0.697771
vn -0.854036 -0.388117 -0.346393
vn 0.679567 0.419397 0.601909
vn -0.253277 -0.528280 0.810414
vn -0.650261 0.224082 -0.725912
vn -0.557489 -0.797453 -0.230814
vn -0.217910 0.554647 0.803046
vn 0.520200 0.589466 -0.617998
vn -0.794617 0.377653 0.475355
vn -0.187525 0.568898 -0.800743
vn -0.343585 0.099483 0.933837
vn 0.825725 0.079167 0.558490
vn -0.716604 0.280758 0.638478
vn -0.609417 -0.215797 0.762917
vn -0.639259 0.723991 -0.259202
vn 0.398319 -0.563357 0.723858
vn 0.233556 -0.740366 0.630325
vn 0.708905 -0.542342 -0.450910
vn -0.872901 -0.325968 0.363028
vn -0.648423 -0.397850 0.649048
vn -0.246440 -0.188661 -0.950618
vn -0.623497 0.741681 0.247308
vn -0.463576 0.601679 0.650446
vn -0.747385 0.662798 -0.045975
vn 0.646957 -0.632019 0.426613
vn 0.450547 0.005795 -0.892734
vn 0.603886 0.717847 0.346436
vn 0.600599 -0.022921 0.799222
vn 0.197853 -0.081364 0.976849
vn -0.291166 0.102812 -0.951132
vn 0.437351 -0.331413 -0.835996
vn -0.439553 0.744057 -0.503162
vn 0.634756 0.367127 -0.679929
vn 0.083172 -0.179150 0.980300
vn -0.762853 -0.385211 -0.519295
vn -0.207349 -0.145843 0.967335
vn -0.851436 -0.430986 -0.298844
vn 0.240671 0.244619 -0.939276
vn -0.844823 -0.503801 0.180161
vn 0.313065 0.136401 -0.939886
vn -0.561386 0.820865 -0.105004
vn -0.566470 0.792617 0.225546
vn -0.759264 -0.205851 0.617368
vn -0.734926 0.423017 -0.530038
vn 0.664382 0.304383 -0.682603
vn 0.621256 -0.102514 0.776873
vn 0.749332 0.610245 0.257104
vn 0.964783 0.212896 0.154498
vn -0.635757 -0.248952 -0.730641
vn 0.607403 0.793529 0.037050
vn -0.263503 0.919806 0.290729
vn -0.255955 -0.701153 -0.665486
vn 0.882210 -0.010261 -0.470744
vn 0.475593 0.458454 0.750754
vn 0.623767 0.662200 -0.415218
vn -0.308834 -0.283954 -0.907740
vn -0.115773 0.122249 0.985724
vn -0.717776 0.073756 0.692357
vn 0.967704 0.245256 0.058289
vn -0.968203 0.116901 0.221174
vn 0.270716 -0.546935 -0.792196
vn 0.671447 0.533523 0.514307
vn -0.636416 0.400094 0.659469
vn -0.332235 -0.567506 -0.753363
vn 0.004784 0.867665 -0.497127
vn -0.635326 -0.535380 0.556533
vn -0.146522 -0.387919 -0.909972
vn 0.743148 0.574078 -0.343753
vn 0.687189 0.683318 0.246673
vn -0.083057 0.062182 0.994603
vn -0.966521 0.216421 -0.137839
vn -0.834427 0.010949 0.551009
vn 0.890682 0.213969 -0.401128
vn 0.348427 0.018699 0.937149
vn -0.926116 -0.071879 0.370327
vn 0.706126 0.260067 0.658598
vn -0.414255 0.107028 -0.903846
vn -0.752381 0.262779 0.604045
vn -0.931097 0.207054 0.300311
vn 0.352029 -0.065591 0.933688
vn -0.169883 0.382326 -0.908277
vn -0.274772 -0.080767 -0.958111
vn -0.166159 0.083909 0.982522
vn 0.754577 -0.283111 -0.591997
vn 0.947774 -0.263657 0.179471
vn 0.268543 0.205163 -0.941166
vn -0.400696 0.270968 0.875225
vn 0.780101 0.095220 -0.618365
vn 0.746723 -0.014980 0.664967
vn -0.570971 -0.200941 -0.795999
vn -0.899377 -0.042045 -0.435148
vn -0.367799 -0.063717 -0.927720
vn -0.387939 0.023974 0.921373
vn 0.581962 -0.129290 -0.802873
vn 0.726766 -0.184600 -0.661615
vn -0.877722 0.050378 0.476514
vn 0.958543 0.028253 0.283543
vn 0.342435 0.007853 0.939509
vn 0.780223 0.160800 -0.604480
vn -0.934335 0.117273 0.336550
vn 0.879753 0.163274 0.446515
vn 0.340093 0.131932 0.931091
vn 0.925242 0.045197 -0.376676
vn -0.879463 0.049445 0.473392
vn -0.935051 0.022096 -0.353825
vn 0.955139 0.253134 0.153732
vn -0.390930 0.029307 -0.919954
vn 0.368590 0.028862 -0.929144
vn -0.381870 0.062871 0.922075
vn 0.436052 0.041572 0.898961
vn 0.905282 0.061929 -0.420273
vn 0.948339 0.050309 0.313246
vn 0.418618 -0.018989 -0.907964
vn 0.830417 0.104150 -0.547321
vn 0.874934 0.080508 -0.477503
vn 0.295253 0.191070 -0.936119
vn -0.928828 0.129011 -0.347325
vn -0.943508 0.053754 -0.326961
vn 0.388741 0.075412 -0.918256
vn -0.589858 0.148816 -0.793676
vn -0.411017 0.110719 -0.904879
vn -0.930520 0.148345 0.334854
vn -0.794622 0.245859 0.555093
vn -0.116222 0.067091 0.990955
vn -0.274219 0.083675 0.958020
vn 0.397006 0.030129 0.917321
f 84//84 85//85 86//86
f 85//85 84//84 83//83
f 83//83 37//37 85//85
f 63//63 85//85 37//37
f 85//85 63//63 82//82
f 82//82 86//86 85//85
f 86//86 82//82 68//68
f 83//83 68//68 82//82
f 68//68 83//83 84//84
f 82//82 36//36 83//83
f 36//36 82//82 63//63
f 63//63 70//70 36//36
f 55//55 36//36 70//70
f 36//36 55//55 37//37
f 37//37 83//83 36//36
f 70//70 63//63 56//56
f 56//56 57//57 70//70
f 70//70 57//57 55//55
f 55//55 57//57 56//56
f 56//56 37//37 55//55
f 37//37 56//56 63//63
f 69//69 64//64 73//73
f 64//64 69//69 72//72
f 72//72 80//80 64//64
f 75//75 64//64 80//80
f 64//64 75//75 74//74
f 74//74 73//73 64//64
f 73//73 74//74 65//65
f 72//72 65//65 74//74
f 65//65 72//72 69//69
f 74//74 79//79 72//72
f 79//79 74//74 75//75
f 75//75 78//78 79//79
f 76//76 79//79 78//78
f 79//79 76//76 80//80
f 80//80 72//72 79//79
f 78//78 75//75 77//77
f 77//77 81//81 78//78
f 78//78 81//81 76//76
f 76//76 81//81 77//77
f 77//77 80//80 76//76
f 80//80 77//77 75//75
f 54//54 49//49 44//44
f 49//49 54//54 53//53
f 53//53 51//51 49//49
f 71//71 49//49 51//51
f 49//49 71//71 45//45
f 45//45 44//44 49//49
f 44//44 45//45 35//35
f 53//53 35//35 45//45
f 35//35 53//53 54//54
f 45//45 50//50 53//53
f 50//50 45//45 71//71
f 71//71 58//58 50//50
f 50//50 58//58 51//51
f 51//51 53//53 50//50
f 51//51 58//58 71//71
f 39//39 40//40 46//46
f 40//40 39//39 32//32
f 32//32 33//33 40//40
f 38//38 40//40 33//33
f 40//40 38//38 47//47
f 47//47 46//46 40//40
f 46//46 47//47 41//41
f 32//32 41//41 47//47
f 41//41 32//32 39//39
f 47//47 42//42 32//32
f 42//42 47//47 38//38
f 38//38 48//48 42//42
f 34//34 42//42 48//48
f 42//42 34//34 33//33
f 33//33 32//32 42//42
f 48//48 38//38 52//52
f 52//52 43//43 48//48
f 48//48 43//43 34//34
f 34//34 43//43 52//52
f 52//52 33//33 34//34
f 33//33 52//52 38//38
f 10//10 66//66 23//23
f 66//66 10//10 11//11
f 11//11 31//31 66//66
f 66//66 31//31 30//30
f 30//30 23//23 66//66
f 23//23 30//30 22//22
f 11//11 22//22 30//30
f 22//22 11//11 10//10
f 30//30 31//31 11//11
f 130//130 131//131 122//122
f 131//131 130//130 135//135
f 135//135 124//124 131//131
f 119//119 131//131 124//124
f 131//131 119//119 117//117
f 117//117 122//122 131//131
f 122//122 117//117 118//118
f 142//142 118//118 117//117
f 118//118 142//142 140//140
f 132//132 135//135 130//130
f 135//135 132//132 137//137
f 137//137 123//123 135//135
f 124//124 135//135 123//123
f 123//123 108//108 124//124
f 129//129 124//124 108//108
f 124//124 129//129 119//119
f 127//127 119//119 129//129
f 119//119 127//127 128//128
f 128//128 117//117 119//119
f 117//117 128//128 142//142
f 136//136 137//137 132//132
f 137//137 136//136 134//134
f 134//134 121//121 137//137
f 123//123 137//137 121//121
f 121//121 107//107 123//123
f 108//108 123//123 107//107
f 107//107 18//18 108//108
f 3//3 108//108 18//18
f 108//108 3//3 129//129
f 16//16 129//129 3//3
f 129//129 16//16 127//127
f 133//133 134//134 136//136
f 134//134 133//133 138//138
f 138//138 120//120 134//134
f 121//121 134//134 120//120
f 120//120 112//112 121//121
f 107//107 121//121 112//112
f 112//112 17//17 107//107
f 18//18 107//107 17//17
f 17//17 4//4 18//18
f 12//12 18//18 4//4
f 18//18 12//12 3//3
f 3//3 12//12 16//16
f 139//139 138//138 133//133
f 138//138 139//139 141//141
f 141//141 125//125 138//138
f 120//120 138//138 125//125
f 125//125 109//109 120//120
f 112//112 120//120 109//109
f 140//140 141//141 139//139
f 141//141 140//140 142//142
f 142//142 126//126 141//141
f 125//125 141//141 126//126
f 126//126 114//114 125//125
f 109//109 125//125 114//114
f 114//114 96//96 109//109
f 99//99 109//109 96//96
f 109//109 99//99 112//112
f 126//126 142//142 128//128
f 128//128 113//113 126//126
f 114//114 126//126 113//113
f 113//113 101//101 114//114
f 96//96 114//114 101//101
f 101//101 105//105 96//96
f 96//96 105//105 99//99
f 103//103 99//99 105//105
f 99//99 103//103 94//94
f 94//94 112//112 99//99
f 113//113 128//128 127//127
f 127//127 111//111 113//113
f 101//101 113//113 111//111
f 111//111 100//100 101//101
f 105//105 101//101 100//100
f 100//100 104//104 105//105
f 92//92 105//105 104//104
f 105//105 92//92 103//103
f 111//111 127//127 110//110
f 110//110 98//98 111//111
f 100//100 111//111 98//98
f 98//98 106//106 100//100
f 104//104 100//100 106//106
f 106//106 93//93 104//104
f 89//89 104//104 93//93
f 104//104 89//89 92//92
f 115//115 110//110 127//127
f 110//110 115//115 102//102
f 102//102 98//98 110//110
f 97//97 98//98 102//102
f 26//26 98//98 97//97
f 87//87 98//98 26//26
f 87//87 88//88 98//98
f 106//106 98//98 88//88
f 127//127 1//1 115//115
f 102//102 115//115 1//1
f 1//1 14//14 102//102
f 102//102 14//14 97//97
f 14//14 26//26 97//97
f 19//19 26//26 14//14
f 26//26 19//19 25//25
f 25//25 87//87 26//26
f 87//87 25//25 103//103
f 103//103 88//88 87//87
f 1//1 127//127 16//16
f 16//16 13//13 1//1
f 14//14 1//1 13//13
f 13//13 6//6 14//14
f 24//24 14//14 6//6
f 14//14 24//24 19//19
f 13//13 16//16 12//12
f 12//12 7//7 13//13
f 6//6 13//13 7//7
f 7//7 59//59 6//6
f 60//60 6//6 59//59
f 6//6 60//60 24//24
f 61//61 24//24 60//60
f 24//24 61//61 28//28
f 28//28 19//19 24//24
f 7//7 12//12 20//20
f 20//20 59//59 7//7
f 59//59 20//20 8//8
f 8//8 62//62 59//59
f 29//29 59//59 62//62
f 59//59 29//29 60//60
f 21//21 60//60 29//29
f 60//60 21//21 61//61
f 4//4 20//20 12//12
f 5//5 20//20 4//4
f 20//20 5//5 28//28
f 28//28 8//8 20//20
f 8//8 28//28 61//61
f 61//61 9//9 8//8
f 62//62 8//8 9//9
f 9//9 67//67 62//62
f 62//62 67//67 29//29
f 29//29 67//67 21//21
f 21//21 67//67 9//9
f 9//9 61//61 21//21
f 4//4 17//17 5//5
f 15//15 5//5 17//17
f 5//5 15//15 19//19
f 19//19 28//28 5//5
f 17//17 112//112 15//15
f 95//95 15//15 112//112
f 15//15 95//95 116//116
f 116//116 27//27 15//15
f 27//27 19//19 15//15
f 25//25 19//19 27//27
f 94//94 25//25 27//27
f 103//103 25//25 94//94
f 112//112 94//94 95//95
f 116//116 95//95 94//94
f 27//27 116//116 94//94
f 88//88 103//103 92//92
f 92//92 90//90 88//88
f 91//91 88//88 90//90
f 88//88 91//91 106//106
f 93//93 106//106 91//91
f 91//91 2//2 93//93
f 93//93 2//2 89//89
f 90//90 92//92 89//89
f 89//89 2//2 90//90
f 90//90 2//2 91//91
