# Exported by s4extract — object_Food_ChimichurriSkewers_lod00_g02
o object_Food_ChimichurriSkewers_lod00_g02
v -0.025666 0.007172 0.040803
v -0.045412 0.025971 0.064058
v -0.017487 0.008087 0.083743
v -0.025239 0.008240 -0.040345
v 0.089236 0.017884 -0.018036
v 0.071169 0.017884 0.012879
v 0.071169 0.017884 0.012879
v 0.078463 0.040773 0.025666
v 0.017609 0.017884 -0.018403
v 0.103916 0.040773 -0.017975
v 0.035371 0.017884 0.012696
v 0.027955 0.040773 0.025391
v 0.002899 0.040773 -0.018464
v 0.078463 0.040773 0.025666
v 0.035676 0.017884 -0.049318
v 0.028382 0.040773 -0.062075
v -0.021851 0.009400 -0.088534
v 0.002899 0.040773 -0.018464
v 0.000580 0.009186 -0.063845
v 0.035371 0.017884 0.012696
v 0.027955 0.040773 0.025391
v -0.047700 0.008454 -0.065035
v 0.017609 0.017884 -0.018403
v -0.023194 0.026276 0.032502
v 0.003052 0.007843 0.009247
v -0.023408 0.008576 0.032991
v -0.066073 0.007569 -0.062410
v -0.032014 0.008423 -0.028199
v -0.015351 0.025452 0.012177
v -0.065371 0.008271 -0.027497
v -0.063540 0.007355 0.006043
v -0.063540 0.007355 0.006043
v -0.032746 0.007752 -0.063112
v -0.035279 0.010559 0.016419
v 0.089633 0.007508 -0.018036
v 0.071688 0.007508 -0.049501
v 0.103916 0.040773 -0.017975
v -0.040773 0.007355 0.046327
v -0.024049 0.007355 -0.016144
v 0.004028 0.007355 0.028260
v 0.004028 0.007355 0.028260
v -0.001465 0.023652 -0.032655
v 0.009888 0.026124 -0.001099
v -0.035279 0.010559 0.016419
v -0.032502 0.026154 -0.016358
v -0.032502 0.026154 -0.016358
v -0.015351 0.025452 0.012177
v -0.014954 0.007538 0.012116
v 0.078890 0.040773 -0.061831
v 0.035676 0.017884 -0.049318
v 0.028382 0.040773 -0.062075
v -0.034547 0.009522 -0.015137
v 0.010254 0.008209 -0.001129
v 0.089236 0.017884 -0.018036
v 0.071169 0.017884 0.012879
v 0.053407 0.012909 -0.018220
v 0.027955 0.040773 0.025391
v 0.071474 0.017884 -0.049135
v 0.071474 0.017884 -0.049135
v 0.089236 0.017884 -0.018036
v 0.103916 0.040773 -0.017975
v 0.009888 0.026124 -0.001099
v 0.078890 0.040773 -0.061831
v 0.078890 0.040773 -0.061831
v 0.028382 0.040773 -0.062075
v 0.035463 0.007508 -0.049684
v 0.071688 0.007508 -0.049501
v 0.078890 0.040773 -0.061831
v 0.002899 0.040773 -0.018464
v 0.017212 0.007508 -0.018403
v 0.035463 0.007508 -0.049684
v 0.028382 0.040773 -0.062075
v 0.035157 0.007508 0.013062
v 0.017212 0.007508 -0.018403
v 0.002899 0.040773 -0.018464
v 0.035157 0.007508 0.013062
v 0.071383 0.007508 0.013245
v 0.027955 0.040773 0.025391
v 0.078463 0.040773 0.025666
v 0.071383 0.007508 0.013245
v -0.014954 0.007538 0.012116
v -0.063265 0.007385 0.048921
v -0.003540 0.007019 -0.031434
v 0.089633 0.007508 -0.018036
v 0.078463 0.040773 0.025666
v 0.103916 0.040773 -0.017975
v 0.071688 0.007508 -0.049501
v 0.035157 0.007508 0.013062
v 0.035463 0.007508 -0.049684
v 0.017212 0.007508 -0.018403
v 0.071383 0.007508 0.013245
v 0.035676 0.017884 -0.049318
v 0.071474 0.017884 -0.049135
v 0.089633 0.007508 -0.018036
v 0.035676 0.017884 -0.049318
v 0.053407 0.012909 -0.018220
v 0.071169 0.017884 0.012879
v 0.017609 0.017884 -0.018403
v 0.035371 0.017884 0.012696
v -0.034547 0.009522 -0.015137
v -0.019501 0.025117 0.084964
v -0.026154 0.025513 0.040071
v -0.044923 0.007599 0.064791
v -0.003540 0.007019 -0.031434
v 0.025452 0.010559 0.033753
v -0.014954 0.007538 0.012116
v -0.063082 0.024079 0.047121
v -0.030183 0.022523 0.042299
v -0.063265 0.007385 0.048921
v -0.033113 0.006409 0.012940
v -0.001465 0.023652 -0.032655
v 0.010254 0.008209 -0.001129
v -0.030183 0.022523 0.042299
v -0.030641 0.004639 0.041292
v -0.063082 0.024079 0.047121
v -0.030641 0.004639 0.041292
v -0.063265 0.007385 0.048921
v -0.066195 0.022919 0.012146
v -0.066378 0.006226 0.013947
v -0.033113 0.006409 0.012940
v -0.032624 0.024293 0.013947
v -0.066378 0.006226 0.013947
v -0.030641 0.004639 0.041292
v -0.033113 0.006409 0.012940
v -0.030183 0.022523 0.042299
v -0.032624 0.024293 0.013947
v -0.063082 0.024079 0.047121
v -0.066195 0.022919 0.012146
v -0.026154 0.025513 0.040071
v -0.066378 0.006226 0.013947
v -0.019501 0.025117 0.084964
v -0.017487 0.008087 0.083743
v -0.066195 0.022919 0.012146
v -0.032624 0.024293 0.013947
v -0.001770 0.028108 0.062654
v -0.025666 0.007172 0.040803
v -0.045412 0.025971 0.064058
v -0.001770 0.028108 0.062654
v 0.000214 0.011078 0.061434
v -0.044923 0.007599 0.064791
v -0.026154 0.025513 0.040071
v 0.000214 0.011078 0.061434
v -0.017487 0.008087 0.083743
v -0.044923 0.007599 0.064791
v -0.025666 0.007172 0.040803
v -0.019501 0.025117 0.084964
v 0.000214 0.011078 0.061434
v -0.045412 0.025971 0.064058
v -0.001770 0.028108 0.062654
v -0.000946 0.024384 0.057222
v 0.009888 0.026124 -0.001099
v 0.000855 0.007935 0.055849
v 0.023652 0.027039 0.035127
v 0.010254 0.008209 -0.001129
v -0.001465 0.023652 -0.032655
v -0.034547 0.009522 -0.015137
v -0.015351 0.025452 0.012177
v -0.003540 0.007019 -0.031434
v -0.127445 0.017975 0.017182
v -0.129429 0.024903 0.012787
v 0.091494 0.022248 -0.088839
v 0.092837 0.017579 -0.085879
v 0.092837 0.017579 -0.085879
v 0.090304 0.017304 -0.091372
v 0.090304 0.017304 -0.091372
v -0.032502 0.026154 -0.016358
v -0.127445 0.017975 0.017182
v -0.131230 0.017548 0.009033
v 0.091494 0.022248 -0.088839
v 0.090304 0.017304 -0.091372
v 0.091494 0.022248 -0.088839
v -0.129429 0.024903 0.012787
v -0.131230 0.017548 0.009033
v 0.092837 0.017579 -0.085879
v -0.127445 0.017975 0.017182
v -0.131230 0.017548 0.009033
v -0.129429 0.024903 0.012787
v 0.003052 0.007843 0.009247
v 0.000855 0.007935 0.055849
v 0.025452 0.010559 0.033753
v -0.000946 0.024384 0.057222
v 0.023652 0.027039 0.035127
v 0.003052 0.007843 0.009247
v 0.003265 0.025544 0.008759
v 0.000855 0.007935 0.055849
v -0.000946 0.024384 0.057222
v 0.003265 0.025544 0.008759
v -0.023194 0.026276 0.032502
v 0.023652 0.027039 0.035127
v 0.025452 0.010559 0.033753
v -0.023408 0.008576 0.032991
v 0.003265 0.025544 0.008759
v -0.023194 0.026276 0.032502
v -0.023408 0.008576 0.032991
v 0.011902 0.007355 0.013459
v -0.007050 0.007508 0.030305
v 0.006439 0.023621 -0.014496
v 0.040834 0.027070 0.027558
v 0.045289 0.025483 0.060579
v -0.024598 0.026124 0.001831
v 0.045808 0.007782 0.060183
v 0.080569 0.008698 0.052858
v 0.070986 0.008118 0.020905
v 0.018159 0.008179 0.017029
v -0.024598 0.026124 0.001831
v -0.007447 0.025422 0.030366
v 0.038636 0.010620 0.027772
v 0.017792 0.026093 0.017090
v 0.045289 0.025483 0.060579
v 0.045808 0.007782 0.060183
v 0.038636 0.010620 0.027772
v 0.080081 0.026399 0.053224
v 0.045289 0.025483 0.060579
v 0.070986 0.008118 0.020905
v 0.040834 0.027070 0.027558
v 0.073183 0.024598 0.020692
v 0.080569 0.008698 0.052858
v 0.070986 0.008118 0.020905
v 0.045808 0.007782 0.060183
v 0.073183 0.024598 0.020692
v 0.080081 0.026399 0.053224
v 0.038636 0.010620 0.027772
v 0.080569 0.008698 0.052858
v 0.040834 0.027070 0.027558
v 0.073183 0.024598 0.020692
v 0.080081 0.026399 0.053224
v -0.007447 0.025422 0.030366
v 0.018159 0.008179 0.017029
v 0.017792 0.026093 0.017090
v -0.115207 0.017914 0.050172
v 0.077670 0.017579 -0.098025
v -0.120640 0.017487 0.043031
v -0.024598 0.026124 0.001831
v 0.004364 0.006989 -0.013276
v -0.026643 0.009491 0.003052
v -0.007447 0.025422 0.030366
v -0.026643 0.009491 0.003052
v -0.007050 0.007508 0.030305
v 0.004364 0.006989 -0.013276
v 0.006439 0.023621 -0.014496
v -0.065676 0.029969 -0.015809
v -0.026643 0.009491 0.003052
v 0.004364 0.006989 -0.013276
v -0.044557 0.027345 0.012146
v -0.065676 0.029969 -0.015809
v 0.017792 0.026093 0.017090
v -0.073855 0.029786 0.028474
v -0.118076 0.024842 0.046297
v -0.115207 0.017914 0.050172
v -0.091037 0.029176 0.005737
v -0.118076 0.024842 0.046297
v 0.075716 0.022248 -0.100650
v -0.120640 0.017487 0.043031
v 0.075716 0.022248 -0.100650
v 0.073977 0.017304 -0.102847
v -0.118076 0.024842 0.046297
v 0.075716 0.022248 -0.100650
v 0.073977 0.017304 -0.102847
v 0.077670 0.017579 -0.098025
v 0.073977 0.017304 -0.102847
v -0.120640 0.017487 0.043031
v -0.115207 0.017914 0.050172
v 0.077670 0.017579 -0.098025
v 0.006439 0.023621 -0.014496
v -0.007050 0.007508 0.030305
v 0.018159 0.008179 0.017029
v 0.072848 0.025788 -0.051454
v 0.034333 0.025788 -0.051668
v 0.034333 0.025788 -0.051668
v 0.072512 0.025788 0.015229
v 0.072512 0.025788 0.015229
v 0.091922 0.025788 -0.018036
v 0.078890 0.040773 -0.061831
v 0.103916 0.040773 -0.017975
v 0.091922 0.025788 -0.018036
v 0.091922 0.025788 -0.018036
v 0.072512 0.025788 0.015229
v 0.078463 0.040773 0.025666
v 0.072512 0.025788 0.015229
v 0.103916 0.040773 -0.017975
v 0.033998 0.025788 0.015046
v 0.027955 0.040773 0.025391
v 0.033998 0.025788 0.015046
v 0.078463 0.040773 0.025666
v 0.014924 0.025788 -0.018403
v 0.002899 0.040773 -0.018464
v 0.014924 0.025788 -0.018403
v 0.027955 0.040773 0.025391
v -0.034761 0.029481 -0.040986
v 0.011902 0.011078 -0.034303
v 0.011902 0.011078 -0.034303
v -0.034974 0.011292 -0.041078
v 0.034333 0.025788 -0.051668
v 0.002899 0.040773 -0.018464
v 0.028382 0.040773 -0.062075
v 0.072848 0.025788 -0.051454
v 0.078890 0.040773 -0.061831
v -0.011261 0.029084 -0.010010
v -0.005158 0.028901 -0.056948
v 0.016480 0.007843 0.017884
v 0.016694 0.025544 0.017365
v -0.009735 0.026276 0.041108
v 0.053407 0.032960 -0.018220
v 0.053407 0.032960 -0.018220
v 0.014313 0.007935 0.064486
v 0.012482 0.024384 0.065859
v 0.037080 0.027039 0.043733
v -0.031190 0.024262 0.027009
v -0.022828 0.022523 0.054201
v -0.053957 0.024079 0.065859
v 0.033998 0.025788 0.015046
v -0.067232 0.013337 -0.017701
v -0.091037 0.029176 0.005737
v 0.014924 0.025788 -0.018403
v -0.090945 0.011261 0.006043
v 0.028382 0.040773 -0.062075
v 0.072848 0.025788 -0.051454
v 0.034333 0.025788 -0.051668
v -0.073763 0.011872 0.028779
v -0.064394 0.022889 0.032319
v -0.031190 0.024262 0.027009
v -0.019349 0.025513 0.051180
v -0.022828 0.022523 0.054201
v -0.023469 0.004639 0.053285
v -0.064180 0.006165 0.034120
v -0.031861 0.006378 0.026124
v -0.064394 0.022889 0.032319
v -0.031190 0.024262 0.027009
v -0.053774 0.007355 0.067660
v -0.031861 0.006378 0.026124
v -0.064180 0.006165 0.034120
v -0.031861 0.006378 0.026124
v -0.053957 0.024079 0.065859
v -0.023469 0.004639 0.053285
v -0.053774 0.007355 0.067660
v -0.023469 0.004639 0.053285
v -0.064394 0.022889 0.032319
v -0.022828 0.022523 0.054201
v 0.038911 0.010559 0.042360
v -0.009980 0.008576 0.041627
v -0.053774 0.007355 0.067660
v -0.009735 0.026276 0.041108
v -0.018708 0.007141 0.051790
v 0.009247 0.028108 0.068087
v 0.009247 0.028108 0.068087
v 0.010956 0.011109 0.066469
v 0.014313 0.007935 0.064486
v -0.018708 0.007141 0.051790
v -0.032472 0.007599 0.079287
v -0.033113 0.025971 0.078677
v -0.003357 0.025117 0.093661
v -0.001648 0.008118 0.092044
v -0.003357 0.025117 0.093661
v -0.032472 0.007599 0.079287
v -0.064180 0.006165 0.034120
v -0.003357 0.025117 0.093661
v -0.033113 0.025971 0.078677
v -0.053957 0.024079 0.065859
v -0.067232 0.013337 -0.017701
v -0.090945 0.011261 0.006043
v -0.000549 0.007355 0.086184
v 0.033540 0.007355 0.078982
v -0.046113 0.010712 0.010254
v -0.000549 0.007355 0.086184
v 0.011689 0.011505 0.045778
v -0.028443 0.007355 -0.001556
v -0.036561 0.007355 0.050691
v 0.011902 0.007355 0.013459
v 0.011689 0.011505 0.045778
v 0.052034 0.007355 0.019959
v 0.031953 0.007355 0.019745
v 0.062593 0.007355 0.055483
v 0.009247 0.028108 0.068087
v -0.001648 0.008118 0.092044
v 0.010956 0.011109 0.066469
v -0.019349 0.025513 0.051180
v -0.032472 0.007599 0.079287
v -0.033113 0.025971 0.078677
v -0.019349 0.025513 0.051180
v -0.073855 0.029786 0.028474
v -0.091037 0.029176 0.005737
v -0.044557 0.027345 0.012146
v -0.009980 0.008576 0.041627
v 0.010956 0.011109 0.066469
v -0.018708 0.007141 0.051790
v 0.012482 0.024384 0.065859
v -0.001648 0.008118 0.092044
v -0.036439 0.028077 0.008179
v -0.040376 0.028474 -0.037049
v 0.038911 0.010559 0.042360
v -0.034364 0.011048 0.007050
v -0.060610 0.010559 -0.013520
v -0.061037 0.028932 -0.014283
v -0.036439 0.028077 0.008179
v -0.034974 0.011292 -0.041078
v -0.034761 0.029481 -0.040986
v -0.006958 0.014313 -0.059175
v -0.015351 0.014039 -0.014130
v -0.039918 0.010132 -0.036287
v -0.060610 0.010559 -0.013520
v -0.034364 0.011048 0.007050
v -0.017396 0.031068 -0.013031
v -0.040376 0.028474 -0.037049
v -0.039918 0.010132 -0.036287
v -0.015351 0.014039 -0.014130
v -0.011261 0.029084 -0.010010
v -0.011444 0.010895 -0.010071
v 0.013672 0.025666 -0.032075
v -0.040376 0.028474 -0.037049
v -0.065676 0.029969 -0.015809
v -0.046113 0.010712 0.010254
v -0.067232 0.013337 -0.017701
v -0.073763 0.011872 0.028779
v 0.016694 0.025544 0.017365
v 0.038911 0.010559 0.042360
v 0.037080 0.027039 0.043733
v 0.011902 0.011078 -0.034303
v -0.005158 0.028901 -0.056948
v -0.011444 0.010895 -0.010071
v -0.090945 0.011261 0.006043
v 0.014313 0.007935 0.064486
v 0.016480 0.007843 0.017884
v -0.046113 0.010712 0.010254
v -0.009980 0.008576 0.041627
v -0.073763 0.011872 0.028779
v -0.073855 0.029786 0.028474
v -0.044557 0.027345 0.012146
v -0.060610 0.010559 -0.013520
v -0.061037 0.028932 -0.014283
v -0.036439 0.028077 0.008179
v -0.039918 0.010132 -0.036287
v -0.061037 0.028932 -0.014283
v -0.015351 0.014039 -0.014130
v -0.034364 0.011048 0.007050
v -0.017396 0.031068 -0.013031
v -0.017396 0.031068 -0.013031
v 0.016480 0.007843 0.017884
v -0.011444 0.010895 -0.010071
v -0.005158 0.028901 -0.056948
v 0.012482 0.024384 0.065859
v -0.009735 0.026276 0.041108
v 0.016694 0.025544 0.017365
v 0.037080 0.027039 0.043733
v 0.013672 0.025666 -0.032075
v -0.034974 0.011292 -0.041078
v -0.011261 0.029084 -0.010010
v -0.034761 0.029481 -0.040986
v -0.006958 0.014313 -0.059175
v 0.013672 0.025666 -0.032075
v -0.006958 0.014313 -0.059175
vt 0.258175 0.897022
vt 0.245417 0.631510
vt 0.499542 0.508619
vt 0.004050 0.003566
vt 0.469002 0.196732
vt 0.576912 0.196732
vt 0.576912 0.196732
vt 0.576912 0.101763
vt 0.356859 0.196732
vt 0.469002 0.101763
vt 0.469002 0.196732
vt 0.469002 0.101763
vt 0.356828 0.101763
vt 0.576912 0.101763
vt 0.243285 0.196732
vt 0.243285 0.101763
vt 0.226569 0.198103
vt 0.356828 0.101763
vt 0.226569 0.003566
vt 0.469002 0.196732
vt 0.469002 0.101763
vt 0.004050 0.198103
vt 0.356859 0.196732
vt 0.760639 0.633032
vt 0.995856 0.508619
vt 0.760639 0.508619
vt 0.004050 0.003566
vt 0.226569 0.198103
vt 0.009226 0.876774
vt 0.226569 0.003566
vt 0.617957 0.008438
vt 0.617957 0.008438
vt 0.004050 0.198103
vt 0.795747 0.008438
vt 0.469002 0.006123
vt 0.356494 0.006123
vt 0.469002 0.101763
vt 0.796447 0.183335
vt 0.796447 0.183335
vt 0.963885 0.008438
vt 0.963885 0.008438
vt 0.245721 0.648805
vt 0.009226 0.659157
vt 0.795747 0.008438
vt 0.245721 0.870136
vt 0.249375 0.508619
vt 0.005572 0.508619
vt 0.005572 0.631692
vt 0.356828 0.101763
vt 0.243285 0.196732
vt 0.243285 0.101763
vt 0.249375 0.631692
vt 0.009226 0.876774
vt 0.895253 0.157088
vt 0.970370 0.010234
vt 0.793037 0.010234
vt 0.469002 0.101763
vt 0.356859 0.196732
vt 0.356859 0.196732
vt 0.469002 0.196732
vt 0.469002 0.101763
vt 0.005572 0.631692
vt 0.356828 0.101763
vt 0.356828 0.101763
vt 0.243285 0.101763
vt 0.243285 0.006123
vt 0.356494 0.006123
vt 0.356828 0.101763
vt 0.356828 0.101763
vt 0.356494 0.006123
vt 0.243285 0.006123
vt 0.243285 0.101763
vt 0.469002 0.006123
vt 0.356494 0.006123
vt 0.356828 0.101763
vt 0.469002 0.006123
vt 0.576912 0.006123
vt 0.469002 0.101763
vt 0.576912 0.101763
vt 0.576912 0.006123
vt 0.009226 0.659157
vt 0.250989 0.508619
vt 0.249375 0.508619
vt 0.469002 0.006123
vt 0.576912 0.101763
vt 0.469002 0.101763
vt 0.328054 0.002287
vt 0.484317 0.002287
vt 0.249923 0.002287
vt 0.328054 0.002287
vt 0.562449 0.002287
vt 0.615917 0.010234
vt 0.690699 0.156845
vt 0.484317 0.002287
vt 0.615917 0.010234
vt 0.793037 0.010234
vt 0.970370 0.010234
vt 0.690790 0.156784
vt 0.895253 0.156936
vt 0.245721 0.648805
vt 0.499542 0.631510
vt 0.499542 0.508619
vt 0.245417 0.508619
vt 0.245721 0.870136
vt 0.995856 0.508619
vt 0.250989 0.632454
vt 0.245721 0.870136
vt 0.005572 0.508619
vt 0.249375 0.631692
vt 0.009226 0.876774
vt 0.249375 0.631692
vt 0.005572 0.508619
vt 0.009226 0.876774
vt 0.005572 0.631692
vt 0.249375 0.508619
vt 0.009226 0.659157
vt 0.245721 0.648805
vt 0.249375 0.631692
vt 0.249375 0.508619
vt 0.005572 0.508619
vt 0.005572 0.631692
vt 0.245721 0.870136
vt 0.250989 0.632454
vt 0.005572 0.632454
vt 0.250989 0.508619
vt 0.005572 0.508619
vt 0.250989 0.632454
vt 0.005572 0.632454
vt 0.478502 0.897022
vt 0.005572 0.508619
vt 0.254917 0.631662
vt 0.245417 0.508619
vt 0.245721 0.648805
vt 0.009226 0.659157
vt 0.458862 0.631662
vt 0.245417 0.631510
vt 0.258144 0.897022
vt 0.499542 0.508619
vt 0.499542 0.631510
vt 0.478532 0.897022
vt 0.245417 0.508619
vt 0.254886 0.631662
vt 0.458832 0.631662
vt 0.245417 0.631510
vt 0.499542 0.631510
vt 0.245417 0.631510
vt 0.499542 0.508619
vt 0.245417 0.508619
vt 0.499542 0.631510
vt 0.760639 0.633032
vt 0.005572 0.508619
vt 0.760639 0.508619
vt 0.995856 0.633032
vt 0.005572 0.632454
vt 0.005572 0.632454
vt 0.250989 0.508619
vt 0.250989 0.508619
vt 0.005572 0.508619
vt 0.859841 0.991413
vt 0.859872 0.968181
vt 0.034194 0.968181
vt 0.034194 0.919128
vt 0.034194 0.919128
vt 0.034194 0.943335
vt 0.034194 0.943335
vt 0.250989 0.632454
vt 0.859841 0.919128
vt 0.859872 0.943335
vt 0.034194 0.968181
vt 0.034194 0.943335
vt 0.034194 0.968181
vt 0.859872 0.968181
vt 0.859872 0.943335
vt 0.034194 0.991413
vt 0.957490 0.979965
vt 0.979535 0.934353
vt 0.934897 0.933896
vt 0.760639 0.641375
vt 0.995856 0.851410
vt 0.995856 0.638300
vt 0.995856 0.638269
vt 0.995856 0.851380
vt 0.760639 0.633032
vt 0.760639 0.870532
vt 0.995856 0.508619
vt 0.995856 0.633032
vt 0.995856 0.633032
vt 0.760639 0.641375
vt 0.995856 0.508619
vt 0.995856 0.633032
vt 0.760639 0.870532
vt 0.760639 0.508619
vt 0.760639 0.633032
vt 0.760639 0.508619
vt 0.615917 0.010234
vt 0.005572 0.631692
vt 0.245721 0.648805
vt 0.995856 0.851380
vt 0.760639 0.870532
vt 0.249375 0.508619
vt 0.760639 0.641375
vt 0.760639 0.870532
vt 0.995856 0.851410
vt 0.009226 0.876774
vt 0.245721 0.870136
vt 0.009226 0.876774
vt 0.995856 0.508619
vt 0.009226 0.659157
vt 0.760639 0.508619
vt 0.760639 0.633032
vt 0.995856 0.633032
vt 0.760639 0.633032
vt 0.995856 0.633032
vt 0.995856 0.508619
vt 0.995856 0.633032
vt 0.760639 0.633032
vt 0.760639 0.508619
vt 0.760639 0.508619
vt 0.995856 0.508619
vt 0.995856 0.633032
vt 0.760639 0.633032
vt 0.995856 0.638300
vt 0.760639 0.508619
vt 0.995856 0.508619
vt 0.995856 0.638269
vt 0.760639 0.641375
vt 0.250989 0.508619
vt 0.005572 0.632454
vt 0.005572 0.508619
vt 0.859841 0.991413
vt 0.034194 0.991413
vt 0.979535 0.934353
vt 0.250989 0.632454
vt 0.005572 0.508619
vt 0.250989 0.508619
vt 0.005572 0.508619
vt 0.245721 0.648805
vt 0.009226 0.659157
vt 0.249375 0.508619
vt 0.249375 0.631692
vt 0.249375 0.508619
vt 0.249375 0.631692
vt 0.245721 0.870136
vt 0.245721 0.648805
vt 0.245721 0.870136
vt 0.005572 0.631692
vt 0.009226 0.659157
vt 0.934897 0.933896
vt 0.957490 0.979965
vt 0.009226 0.876774
vt 0.859872 0.968181
vt 0.034194 0.968181
vt 0.859872 0.943335
vt 0.034194 0.968181
vt 0.034194 0.943335
vt 0.859872 0.968181
vt 0.034194 0.968181
vt 0.034194 0.943335
vt 0.034194 0.919128
vt 0.034194 0.943335
vt 0.859872 0.943335
vt 0.859841 0.919128
vt 0.034194 0.919128
vt 0.005572 0.632454
vt 0.250989 0.632454
vt 0.005572 0.508619
vt 0.690699 0.156845
vt 0.615917 0.010234
vt 0.615917 0.010234
vt 0.970370 0.010234
vt 0.970370 0.010234
vt 0.895253 0.157088
vt 0.356828 0.101763
vt 0.469002 0.101763
vt 0.469002 0.196732
vt 0.469002 0.196732
vt 0.576912 0.196732
vt 0.576912 0.101763
vt 0.576912 0.196732
vt 0.469002 0.101763
vt 0.469002 0.196732
vt 0.469002 0.101763
vt 0.469002 0.196732
vt 0.576912 0.101763
vt 0.356859 0.196732
vt 0.356828 0.101763
vt 0.356859 0.196732
vt 0.469002 0.101763
vt 0.499237 0.905761
vt 0.757777 0.508619
vt 0.757777 0.871933
vt 0.499237 0.639000
vt 0.243285 0.196732
vt 0.356828 0.101763
vt 0.243285 0.101763
vt 0.356859 0.196732
vt 0.356828 0.101763
vt 0.499237 0.638939
vt 0.757777 0.871994
vt 0.995856 0.508619
vt 0.995856 0.633032
vt 0.760639 0.633032
vt 0.793037 0.010234
vt 0.793037 0.010234
vt 0.760639 0.508619
vt 0.760639 0.633032
vt 0.995856 0.633032
vt 0.009226 0.659157
vt 0.009226 0.876774
vt 0.245721 0.870136
vt 0.895253 0.156936
vt 0.249375 0.631692
vt 0.005572 0.508619
vt 0.690790 0.156784
vt 0.005572 0.631692
vt 0.243285 0.101763
vt 0.356859 0.196732
vt 0.243285 0.196732
vt 0.009226 0.876774
vt 0.005572 0.632454
vt 0.005572 0.508619
vt 0.478502 0.897022
vt 0.250989 0.508619
vt 0.250989 0.632454
vt 0.249375 0.508619
vt 0.005572 0.632454
vt 0.249375 0.631692
vt 0.005572 0.631692
vt 0.245721 0.648805
vt 0.005572 0.508619
vt 0.245721 0.870136
vt 0.009226 0.876774
vt 0.249375 0.508619
vt 0.009226 0.659157
vt 0.249375 0.631692
vt 0.005572 0.631692
vt 0.245721 0.648805
vt 0.005572 0.508619
vt 0.995856 0.508619
vt 0.760639 0.508619
vt 0.250989 0.508619
vt 0.760639 0.633032
vt 0.245417 0.631510
vt 0.458862 0.631662
vt 0.499542 0.508619
vt 0.499542 0.631510
vt 0.995856 0.508619
vt 0.499542 0.631510
vt 0.245417 0.631510
vt 0.245417 0.508619
vt 0.245417 0.631510
vt 0.499542 0.508619
vt 0.499542 0.631510
vt 0.245417 0.508619
vt 0.005572 0.508619
vt 0.254917 0.631662
vt 0.258144 0.897022
vt 0.250989 0.632454
vt 0.245721 0.648805
vt 0.009226 0.659157
vt 0.970370 0.010234
vt 0.902317 0.095795
vt 0.245721 0.870136
vt 0.970370 0.010234
vt 0.793037 0.010234
vt 0.674165 0.147984
vt 0.893426 0.155688
vt 0.615917 0.010234
vt 0.793037 0.010234
vt 0.664147 0.127492
vt 0.640032 0.068878
vt 0.834295 0.181356
vt 0.499542 0.631510
vt 0.245417 0.508619
vt 0.499542 0.508619
vt 0.499542 0.508619
vt 0.478532 0.897022
vt 0.245417 0.631510
vt 0.245417 0.508619
vt 0.005572 0.508619
vt 0.250989 0.508619
vt 0.005572 0.632454
vt 0.760639 0.508619
vt 0.254886 0.631662
vt 0.258175 0.897022
vt 0.995856 0.633032
vt 0.458832 0.631662
vt 0.245417 0.631510
vt 0.499542 0.508619
vt 0.995856 0.638300
vt 0.499542 0.508619
vt 0.245417 0.508619
vt 0.245417 0.631510
vt 0.499542 0.631510
vt 0.499237 0.634311
vt 0.499237 0.508619
vt 0.757777 0.634311
vt 0.254886 0.631662
vt 0.258175 0.897022
vt 0.478532 0.897022
vt 0.458832 0.631662
vt 0.499542 0.508619
vt 0.245417 0.508619
vt 0.245417 0.631510
vt 0.499542 0.631510
vt 0.499237 0.634311
vt 0.499237 0.508619
vt 0.757777 0.634311
vt 0.478502 0.897022
vt 0.250989 0.632454
vt 0.005572 0.508619
vt 0.250989 0.508619
vt 0.005572 0.632454
vt 0.760639 0.508619
vt 0.995856 0.633032
vt 0.995856 0.508619
vt 0.757777 0.634311
vt 0.499237 0.508619
vt 0.757777 0.508619
vt 0.250989 0.632454
vt 0.995856 0.851410
vt 0.760639 0.641375
vt 0.249375 0.508619
vt 0.760639 0.870532
vt 0.005572 0.508619
vt 0.005572 0.631692
vt 0.249375 0.631692
vt 0.245417 0.631510
vt 0.245417 0.508619
vt 0.254917 0.631662
vt 0.499542 0.631510
vt 0.258144 0.897022
vt 0.499542 0.508619
vt 0.245417 0.508619
vt 0.458862 0.631662
vt 0.499542 0.631510
vt 0.760639 0.633032
vt 0.499237 0.905822
vt 0.757777 0.508619
vt 0.995856 0.638269
vt 0.760639 0.641375
vt 0.760639 0.870532
vt 0.995856 0.851380
vt 0.757777 0.508619
vt 0.499237 0.508619
vt 0.757777 0.634311
vt 0.499237 0.634311
vt 0.499237 0.634311
vt 0.757777 0.651819
vt 0.757777 0.651758
vn 0.077332 -0.996984 0.006528
vn -0.627580 0.014353 0.778420
vn -0.562379 -0.125110 0.817360
vn -0.015731 0.999613 0.022961
vn -0.754887 0.485310 -0.441158
vn 0.004469 0.486626 -0.873599
vn -0.754802 0.485962 -0.440584
vn -0.754742 0.486424 -0.440178
vn 0.754518 0.486079 0.440942
vn -0.754802 0.485962 -0.440584
vn 0.004634 0.486389 -0.873730
vn 0.004752 0.486220 -0.873823
vn 0.758647 0.486401 -0.433437
vn 0.004634 0.486389 -0.873730
vn 0.754512 0.486122 0.440905
vn 0.754508 0.486152 0.440878
vn -0.015730 0.999613 0.022941
vn 0.754512 0.486122 0.440905
vn -0.015731 0.999613 0.022951
vn 0.758789 0.486230 -0.433381
vn 0.758706 0.486330 -0.433414
vn -0.015731 0.999613 0.022951
vn 0.758706 0.486330 -0.433414
vn -0.668012 -0.012463 -0.744046
vn -0.668012 -0.012463 -0.744046
vn -0.668012 -0.012463 -0.744046
vn -0.005914 0.999783 -0.019982
vn -0.004976 0.999805 -0.019123
vn -0.010376 0.999471 0.030822
vn -0.005445 0.999794 -0.019552
vn -0.067913 0.990341 -0.120879
vn -0.141187 0.986762 0.079792
vn -0.005445 0.999794 -0.019552
vn -0.033037 0.994391 0.100474
vn 0.814135 -0.348703 -0.464317
vn 0.814119 -0.348556 -0.464457
vn 0.814119 -0.348556 -0.464457
vn -0.033037 0.994391 0.100474
vn 0.028937 0.995700 -0.088003
vn 0.046305 0.992306 0.114823
vn 0.099996 0.992977 -0.063228
vn 0.033069 0.995404 -0.089874
vn 0.013645 0.999262 -0.035907
vn 0.028937 0.995700 -0.088003
vn 0.013645 0.999262 -0.035907
vn -0.846893 0.141730 0.512528
vn -0.832424 0.058208 0.551073
vn -0.812475 -0.019979 0.582654
vn -0.004224 0.486091 0.873898
vn -0.004471 0.485737 0.874094
vn -0.004327 0.485944 0.873979
vn -0.832424 0.058208 0.551073
vn 0.038110 -0.999034 0.021890
vn -0.137519 0.990499 -0.000677
vn -0.136682 0.987389 -0.079878
vn -0.092332 0.994333 0.052690
vn -0.813833 -0.348542 0.464967
vn -0.758789 0.486230 0.433381
vn -0.004327 0.485944 0.873979
vn -0.759026 0.485944 0.433288
vn -0.759194 0.485741 0.433221
vn 0.940277 0.019801 -0.339833
vn -0.759026 0.485944 0.433288
vn 0.814107 -0.348450 -0.464557
vn 0.004531 -0.348199 -0.937410
vn 0.004618 -0.348298 -0.937372
vn 0.004738 -0.348436 -0.937320
vn 0.004618 -0.348298 -0.937372
vn -0.809114 -0.349009 -0.472786
vn -0.809346 -0.348705 -0.472613
vn -0.809669 -0.348281 -0.472373
vn -0.809346 -0.348705 -0.472613
vn -0.813871 -0.348884 0.464645
vn -0.813923 -0.349359 0.464196
vn -0.813871 -0.348884 0.464645
vn -0.004738 -0.348436 0.937320
vn -0.004947 -0.348676 0.937230
vn -0.004947 -0.348676 0.937230
vn -0.005096 -0.348848 0.937166
vn 0.809547 -0.348662 0.472301
vn -0.030501 -0.999527 0.003913
vn -0.995914 0.020412 0.087965
vn 0.902966 -0.142420 -0.405424
vn 0.809617 -0.348570 0.472249
vn 0.809617 -0.348570 0.472249
vn 0.809667 -0.348503 0.472212
vn 0.000000 -1.000000 0.000000
vn 0.000000 -1.000000 0.000000
vn 0.000000 -1.000000 0.000000
vn 0.000000 -1.000000 0.000000
vn 0.000000 -1.000000 0.000000
vn -0.000810 0.987374 0.158403
vn -0.069397 0.990487 0.118822
vn 0.000000 -1.000000 0.000000
vn 0.136796 0.987368 0.079944
vn 0.092384 0.994327 -0.052720
vn 0.000810 0.987374 -0.158404
vn 0.137634 0.990483 0.000677
vn 0.069427 0.990479 -0.118872
vn -0.086016 -0.996237 -0.010675
vn -0.597917 -0.053298 0.799784
vn -0.779414 -0.045702 -0.624840
vn -0.597917 -0.053298 0.799784
vn -0.030501 -0.999527 0.003913
vn 0.667567 0.010899 0.744470
vn 0.464964 0.007281 0.885300
vn 0.003180 0.999951 0.009359
vn 0.187865 0.019053 0.982010
vn 0.187865 0.019053 0.982010
vn 0.003598 -0.998031 -0.062623
vn 0.925993 -0.058658 -0.372955
vn 0.925993 -0.058658 -0.372955
vn 0.055578 0.996800 0.057447
vn 0.222471 -0.060492 0.973061
vn 0.149060 0.104425 0.983299
vn -0.039679 -0.999194 -0.006131
vn -0.074610 -0.996423 0.039681
vn 0.012408 -0.023181 -0.999654
vn -0.029500 -0.106873 -0.993835
vn 0.012408 -0.023181 -0.999654
vn 0.051245 0.054756 -0.997184
vn -0.039679 -0.999194 -0.006131
vn 0.995899 -0.020530 -0.088115
vn 0.995923 -0.021408 -0.087636
vn 0.995923 -0.021408 -0.087636
vn 0.995945 -0.022285 -0.087156
vn -0.995914 0.020412 0.087965
vn -0.995914 0.020412 0.087965
vn -0.050722 0.996924 -0.059745
vn -0.995914 0.020412 0.087965
vn -0.045546 0.994233 0.097090
vn 0.779202 0.046660 0.625034
vn -0.039271 0.998789 -0.029623
vn 0.003180 0.999951 0.009359
vn -0.048373 0.998701 0.015995
vn 0.624621 -0.014551 -0.780793
vn -0.048373 0.998701 0.015995
vn 0.666218 0.130244 -0.734296
vn 0.646764 0.055702 -0.760653
vn 0.003533 -0.999781 0.020644
vn 0.646764 0.055702 -0.760653
vn 0.155987 -0.987721 -0.008652
vn 0.077332 -0.996984 0.006528
vn -0.779387 -0.045627 -0.624879
vn -0.779401 -0.045664 -0.624860
vn 0.778876 0.047294 0.625392
vn 0.779528 0.046026 0.624674
vn -0.779401 -0.045664 -0.624860
vn 0.779202 0.046660 0.625034
vn 0.667558 0.010917 0.744478
vn 0.465344 0.008005 0.885094
vn 0.667563 0.010908 0.744474
vn 0.667563 0.010908 0.744474
vn 0.465154 0.007643 0.885197
vn -0.465310 -0.006906 -0.885121
vn -0.465716 -0.007694 -0.884901
vn 0.465154 0.007643 0.885197
vn -0.465513 -0.007300 -0.885011
vn 0.348677 0.571211 0.743063
vn 0.348666 0.571253 0.743036
vn 0.348650 0.571315 0.742995
vn 0.908179 -0.004187 -0.418562
vn 0.018315 -0.998911 0.042917
vn 0.908179 -0.004187 -0.418562
vn 0.017814 -0.998970 0.041734
vn -0.465513 -0.007300 -0.885011
vn 0.018652 -0.998870 0.043713
vn 0.018315 -0.998911 0.042917
vn 0.908179 -0.004187 -0.418562
vn -0.358802 0.492592 -0.792852
vn -0.358811 0.492546 -0.792876
vn -0.358818 0.492515 -0.792893
vn -0.358811 0.492546 -0.792876
vn 0.348666 0.571253 0.743036
vn -0.907084 0.007257 0.420887
vn -0.907084 0.007257 0.420887
vn -0.907084 0.007257 0.420887
vn 0.040506 -0.999172 0.003873
vn 0.040506 -0.999172 0.003873
vn 0.112539 -0.993621 0.007258
vn -0.021563 0.995188 0.095582
vn -0.017535 0.999595 0.022396
vn 0.739343 -0.027482 -0.672767
vn -0.013687 0.998845 -0.046065
vn -0.681373 -0.134649 0.719444
vn -0.715510 -0.051306 0.696716
vn -0.668012 -0.012463 -0.744046
vn -0.017535 0.999595 0.022396
vn 0.780010 0.136122 -0.610783
vn 0.762148 0.052094 -0.645303
vn -0.027054 -0.999634 0.000688
vn 0.762148 0.052094 -0.645303
vn -0.741969 0.027434 0.669872
vn -0.715510 -0.051306 0.696716
vn 0.039826 0.991101 -0.127017
vn -0.812475 -0.019979 0.582654
vn 0.033033 0.995414 -0.089775
vn 0.021690 0.999740 -0.007014
vn -0.015686 0.998621 0.050109
vn -0.846893 0.141730 0.512528
vn -0.029422 -0.999191 -0.027400
vn 0.028357 -0.999551 0.009635
vn -0.029422 -0.999191 -0.027400
vn 0.038131 -0.999033 0.021880
vn 0.013637 0.999263 -0.035885
vn -0.010376 0.999471 0.030822
vn -0.206513 0.014881 -0.978331
vn 0.013637 0.999263 -0.035885
vn -0.982913 0.047357 0.177872
vn -0.976450 -0.033397 0.213145
vn -0.982913 0.047357 0.177872
vn 0.206867 -0.015198 0.978251
vn 0.207205 -0.015851 0.978169
vn 0.950325 -0.130374 -0.282641
vn -0.206521 0.014868 -0.978329
vn -0.206529 0.014855 -0.978328
vn 0.206529 -0.014544 0.978332
vn -0.206521 0.014868 -0.978329
vn 0.206867 -0.015198 0.978251
vn 0.968194 -0.047313 -0.245686
vn 0.977425 0.031287 -0.208953
vn -0.091056 -0.993599 -0.066861
vn 0.968194 -0.047313 -0.245686
vn -0.981362 0.132894 0.138807
vn 0.061620 0.995768 -0.068177
vn 0.021690 0.999740 -0.007014
vn 0.465592 0.006899 0.884973
vn 0.465592 0.006899 0.884973
vn 0.465381 0.006498 0.885087
vn 0.500717 0.571215 0.650381
vn 0.500315 0.572247 0.649784
vn -0.796124 0.008846 0.605069
vn -0.466189 -0.007190 -0.884656
vn -0.466189 -0.007190 -0.884656
vn -0.466392 -0.007585 -0.884546
vn -0.832424 0.058208 0.551073
vn -0.086023 -0.996236 -0.010670
vn -0.030498 -0.999527 0.003912
vn 0.902966 -0.142420 -0.405424
vn 0.926068 -0.058328 -0.372821
vn -0.643196 0.145705 -0.751711
vn -0.832424 0.058208 0.551073
vn -0.030498 -0.999527 0.003912
vn 0.095010 0.995241 0.021664
vn 0.037832 0.999222 0.011119
vn 0.940357 0.020381 -0.339578
vn 0.037832 0.999222 0.011119
vn -0.796124 0.008846 0.605069
vn -0.796124 0.008846 0.605069
vn -0.032926 0.999456 -0.001949
vn 0.500315 0.572247 0.649784
vn 0.499718 0.573772 0.648897
vn -0.521822 0.492079 -0.696822
vn -0.521822 0.492079 -0.696822
vn -0.521526 0.493006 -0.696388
vn -0.522020 0.491456 -0.697113
vn 0.794152 -0.009359 -0.607647
vn 0.794152 -0.009359 -0.607647
vn 0.794152 -0.009359 -0.607647
vn 0.026501 -0.998978 0.036609
vn 0.027325 -0.998913 0.037767
vn 0.027883 -0.998868 0.038551
vn 0.027325 -0.998913 0.037767
vn -0.465985 -0.006796 -0.884766
vn 0.465802 0.007301 0.884859
vn 0.926068 -0.058328 -0.372821
vn 0.092346 0.983091 -0.158128
vn -0.181686 0.977626 -0.106011
vn 0.001166 0.977639 -0.210287
vn 0.181549 0.977660 0.105931
vn -0.000999 0.977659 0.210197
vn 0.183061 0.983101 0.000922
vn -0.713755 0.569764 0.407336
vn -0.713820 0.569688 0.407329
vn -0.713755 0.569764 0.407336
vn -0.709788 0.569807 -0.414152
vn -0.709723 0.569994 -0.414005
vn -0.709673 0.570138 -0.413893
vn 0.003905 0.570505 -0.821285
vn -0.709723 0.569994 -0.414005
vn 0.004226 0.569866 -0.821727
vn 0.004470 0.569378 -0.822064
vn 0.714219 0.569217 -0.407287
vn 0.004226 0.569866 -0.821727
vn 0.713576 0.569975 -0.407355
vn 0.713085 0.570552 -0.407406
vn 0.709203 0.570782 0.413810
vn 0.713576 0.569975 -0.407355
vn 0.018799 0.999822 -0.001456
vn 0.707762 -0.189801 0.680477
vn 0.005419 -0.997606 -0.068947
vn 0.005419 -0.997606 -0.068947
vn 0.709407 0.570198 0.414267
vn 0.709407 0.570198 0.414267
vn 0.709562 0.569752 0.414614
vn -0.713669 0.569865 0.407345
vn -0.003970 0.570374 0.821375
vn 0.077391 0.996982 0.006174
vn 0.077391 0.996982 0.006174
vn -0.668231 -0.013161 -0.743838
vn -0.668448 -0.013729 -0.743633
vn -0.668231 -0.013161 -0.743838
vn 0.123275 0.989875 -0.070355
vn -0.123284 0.989874 0.070360
vn 0.667985 0.012226 0.744074
vn 0.667980 0.012236 0.744078
vn 0.667985 0.012226 0.744074
vn 0.004837 0.999960 0.007548
vn 0.066113 0.996866 0.043442
vn 0.004837 0.999960 0.007548
vn -0.092321 0.983100 0.158085
vn -0.678850 0.062393 -0.731621
vn -0.678850 0.062393 -0.731621
vn -0.183201 0.983075 -0.000922
vn -0.706790 -0.015661 -0.707250
vn -0.004226 0.569866 0.821727
vn -0.004226 0.569866 0.821727
vn -0.004560 0.569199 0.822187
vn -0.015890 -0.999119 0.038830
vn -0.954848 0.019719 0.296441
vn 0.955227 -0.021257 -0.295111
vn -0.062211 0.996921 -0.047737
vn 0.955070 -0.020155 -0.295694
vn 0.954912 -0.019053 -0.296277
vn -0.238118 -0.106973 -0.965327
vn 0.955070 -0.020155 -0.295694
vn -0.198416 -0.023297 -0.979841
vn -0.159891 0.054779 -0.985614
vn -0.063233 -0.996483 0.054982
vn -0.198416 -0.023297 -0.979841
vn -0.038862 -0.999240 0.002993
vn -0.008563 -0.998084 -0.061276
vn 0.353375 0.103963 0.929687
vn -0.038862 -0.999240 0.002993
vn 0.391178 0.018356 0.920132
vn 0.423245 -0.061444 0.903929
vn -0.044750 0.998766 -0.021517
vn 0.391178 0.018356 0.920132
vn 0.667990 0.012215 0.744070
vn -0.668013 -0.012594 -0.744043
vn -0.955077 0.021367 0.295585
vn -0.742693 0.029852 0.668966
vn 0.445004 -0.014225 -0.895416
vn -0.043903 0.998701 0.025854
vn 0.495657 0.131521 -0.858502
vn 0.470954 0.056355 -0.880356
vn -0.680823 -0.135876 0.719735
vn -0.893588 -0.046006 -0.446524
vn -0.893588 -0.046006 -0.446524
vn -0.893588 -0.046006 -0.446524
vn 0.893762 0.047417 0.446027
vn -0.377593 -0.125261 0.917460
vn -0.416004 -0.053485 0.907788
vn -0.416004 -0.053485 0.907788
vn -0.954963 0.020543 0.296013
vn -0.024035 0.994242 0.104426
vn -0.043903 0.998701 0.025854
vn -0.954963 0.020543 0.296013
vn -0.003680 -0.995870 -0.090718
vn -0.009166 -0.999420 -0.032786
vn 0.023042 0.993768 0.109058
vn 0.045792 0.994502 0.094178
vn -0.009166 -0.999420 -0.032786
vn -0.077489 0.993888 0.078622
vn -0.053087 0.998549 -0.009089
vn -0.040703 0.997766 -0.052980
vn -0.083007 0.996199 0.026389
vn 0.047238 0.990787 -0.126928
vn 0.053348 0.998534 0.009134
vn 0.066175 0.996194 -0.056737
vn 0.022701 0.989870 -0.140151
vn 0.076690 0.996765 0.024030
vn 0.893762 0.047417 0.446027
vn 0.893762 0.047417 0.446027
vn 0.893762 0.047417 0.446027
vn -0.893588 -0.046006 -0.446524
vn 0.008234 -0.999750 0.020765
vn -0.449412 0.013998 0.893215
vn 0.470954 0.056355 -0.880356
vn -0.797875 0.006191 0.602791
vn -0.797875 0.006191 0.602791
vn 0.797618 -0.006026 -0.603133
vn -0.715739 -0.050689 0.696525
vn 0.152125 -0.987531 -0.040513
vn 0.077954 -0.996918 -0.008851
vn -0.715739 -0.050689 0.696525
vn 0.077954 -0.996918 -0.008851
vn 0.740102 0.045703 0.670939
vn -0.740191 -0.046377 -0.670796
vn 0.112480 -0.993628 0.007182
vn -0.610460 -0.126241 0.781922
vn -0.645324 -0.053501 0.762033
vn -0.673953 0.015000 0.738622
vn -0.645324 -0.053501 0.762033
vn -0.543382 0.010607 -0.839418
vn -0.509582 0.091854 -0.855505
vn -0.509582 0.091854 -0.855505
vn 0.156299 -0.987709 0.000834
vn 0.076791 -0.996984 0.011221
vn 0.002275 -0.999780 0.020831
vn 0.076791 -0.996984 0.011221
vn 0.709379 0.129870 -0.692759
vn 0.691652 0.055769 -0.720074
vn 0.670897 -0.014096 -0.741416
vn 0.691652 0.055769 -0.720074
vn 0.661978 -0.009179 0.749467
vn 0.686040 -0.091287 0.721814
vn 0.686040 -0.091287 0.721814
vn -0.047003 0.996925 -0.062701
vn 0.797618 -0.006026 -0.603133
vn 0.797618 -0.006026 -0.603133
vn 0.797618 -0.006026 -0.603133
vn -0.797875 0.006191 0.602791
vn 0.761723 0.052191 -0.645798
vn 0.761723 0.052191 -0.645798
vn 0.779816 0.137539 -0.610713
vn 0.796719 -0.005214 -0.604327
vn 0.796719 -0.005214 -0.604327
vn -0.796549 0.005990 0.604544
vn -0.797875 0.006191 0.602791
vn 0.040483 -0.999173 0.003845
vn 0.040483 -0.999173 0.003845
vn 0.546519 -0.144973 0.824803
vn -0.027037 -0.999634 0.000707
vn 0.518211 -0.061160 0.853063
vn 0.487832 0.017361 0.872765
vn 0.518211 -0.061160 0.853063
vn -0.739698 -0.045085 -0.671427
vn -0.739944 -0.045731 -0.671112
vn -0.051366 0.994239 0.094076
vn -0.739944 -0.045731 -0.671112
vn -0.049262 0.998701 0.013048
vn 0.740164 0.045590 0.670879
vn 0.740133 0.045647 0.670909
vn -0.049262 0.998701 0.013048
vn 0.740133 0.045647 0.670909
vn 0.738510 -0.028657 -0.673634
vn -0.003041 -0.999940 -0.010487
vn -0.463121 0.189392 -0.865823
vn -0.021570 0.995201 0.095444
vn -0.017545 0.999596 0.022381
vn -0.013696 0.998845 -0.046058
vn -0.017545 0.999596 0.022381
vn 0.797004 -0.004471 -0.603958
vn -0.796593 0.006152 0.604485
vn -0.796593 0.006152 0.604485
vn -0.796636 0.006314 0.604426
vn 0.796434 -0.005956 -0.604696
vn 0.149302 0.988669 0.015558
vn 0.015832 -0.989918 -0.140755
f 164/164/164 169/169/169 162/162/162
f 176/176/176 175/175/175 177/177/177
f 11/11/11 14/14/14 6/6/6
f 12/12/12 14/14/14 11/11/11
f 4/4/4 19/19/19 22/22/22
f 22/22/22 19/19/19 17/17/17
f 7/7/7 10/10/10 5/5/5
f 8/8/8 10/10/10 7/7/7
f 15/15/15 18/18/18 9/9/9
f 16/16/16 18/18/18 15/15/15
f 13/13/13 21/21/21 23/23/23
f 23/23/23 21/21/21 20/20/20
f 29/29/29 43/43/43 45/45/45
f 45/45/45 43/43/43 42/42/42
f 27/27/27 30/30/30 33/33/33
f 33/33/33 30/30/30 28/28/28
f 39/39/39 31/31/31 44/44/44
f 44/44/44 41/41/41 39/39/39
f 32/32/32 38/38/38 34/34/34
f 38/38/38 40/40/40 34/34/34
f 48/48/48 47/47/47 52/52/52
f 52/52/52 47/47/47 46/46/46
f 49/49/49 51/51/51 59/59/59
f 59/59/59 51/51/51 50/50/50
f 53/53/53 81/81/81 104/104/104
f 104/104/104 81/81/81 100/100/100
f 75/75/75 73/73/73 57/57/57
f 74/74/74 73/73/73 75/75/75
f 60/60/60 63/63/63 58/58/58
f 61/61/61 63/63/63 60/60/60
f 62/62/62 112/112/112 111/111/111
f 111/111/111 112/112/112 83/83/83
f 37/37/37 36/36/36 64/64/64
f 35/35/35 36/36/36 37/37/37
f 67/67/67 66/66/66 68/68/68
f 68/68/68 66/66/66 65/65/65
f 71/71/71 70/70/70 72/72/72
f 72/72/72 70/70/70 69/69/69
f 76/76/76 77/77/77 78/78/78
f 78/78/78 77/77/77 79/79/79
f 80/80/80 84/84/84 85/85/85
f 85/85/85 84/84/84 86/86/86
f 87/87/87 94/94/94 89/89/89
f 94/94/94 91/91/91 89/89/89
f 91/91/91 88/88/88 89/89/89
f 88/88/88 90/90/90 89/89/89
f 93/93/93 92/92/92 56/56/56
f 54/54/54 93/93/93 56/56/56
f 55/55/55 54/54/54 56/56/56
f 95/95/95 98/98/98 96/96/96
f 98/98/98 99/99/99 96/96/96
f 99/99/99 97/97/97 96/96/96
f 127/127/127 130/130/130 82/82/82
f 128/128/128 130/130/130 127/127/127
f 113/113/113 134/134/134 107/107/107
f 107/107/107 134/134/134 133/133/133
f 114/114/114 108/108/108 109/109/109
f 109/109/109 108/108/108 115/115/115
f 110/110/110 116/116/116 122/122/122
f 122/122/122 116/116/116 117/117/117
f 121/121/121 120/120/120 118/118/118
f 118/118/118 120/120/120 119/119/119
f 123/123/123 124/124/124 125/125/125
f 125/125/125 124/124/124 126/126/126
f 129/129/129 137/137/137 135/135/135
f 135/135/135 137/137/137 131/131/131
f 136/136/136 141/141/141 139/139/139
f 139/139/139 141/141/141 138/138/138
f 140/140/140 1/1/1 143/143/143
f 143/143/143 1/1/1 142/142/142
f 2/2/2 103/103/103 101/101/101
f 101/101/101 103/103/103 3/3/3
f 102/102/102 145/145/145 148/148/148
f 148/148/148 145/145/145 144/144/144
f 146/146/146 132/132/132 149/149/149
f 149/149/149 132/132/132 147/147/147
f 153/153/153 152/152/152 105/105/105
f 150/150/150 152/152/152 153/153/153
f 106/106/106 154/154/154 157/157/157
f 157/157/157 154/154/154 151/151/151
f 155/155/155 158/158/158 166/166/166
f 166/166/166 158/158/158 156/156/156
f 167/167/167 168/168/168 163/163/163
f 163/163/163 168/168/168 165/165/165
f 172/172/172 171/171/171 173/173/173
f 173/173/173 171/171/171 170/170/170
f 161/161/161 160/160/160 174/174/174
f 174/174/174 160/160/160 159/159/159
f 184/184/184 188/188/188 182/182/182
f 182/182/182 188/188/188 181/181/181
f 183/183/183 192/192/192 190/190/190
f 190/190/190 192/192/192 189/189/189
f 191/191/191 178/178/178 179/179/179
f 179/179/179 178/178/178 180/180/180
f 193/193/193 194/194/194 186/186/186
f 186/186/186 194/194/194 185/185/185
f 187/187/187 25/25/25 24/24/24
f 24/24/24 25/25/25 26/26/26
f 232/232/232 249/249/249 248/248/248
f 258/258/258 257/257/257 259/259/259
f 369/369/369 371/371/371 195/195/195
f 371/371/371 369/369/369 370/370/370
f 372/372/372 370/370/370 369/369/369
f 369/369/369 362/362/362 372/372/372
f 362/362/362 369/369/369 361/361/361
f 204/204/204 238/238/238 243/243/243
f 243/243/243 238/238/238 237/237/237
f 196/196/196 236/236/236 242/242/242
f 242/242/242 236/236/236 200/200/200
f 205/205/205 208/208/208 197/197/197
f 206/206/206 208/208/208 205/205/205
f 215/215/215 218/218/218 207/207/207
f 216/216/216 218/218/218 215/215/215
f 212/212/212 219/219/219 217/217/217
f 213/213/213 219/219/219 212/212/212
f 220/220/220 223/223/223 214/214/214
f 221/221/221 223/223/223 220/220/220
f 203/203/203 201/201/201 222/222/222
f 202/202/202 201/201/201 203/203/203
f 211/211/211 209/209/209 224/224/224
f 210/210/210 209/209/209 211/211/211
f 198/198/198 226/226/226 225/225/225
f 199/199/199 226/226/226 198/198/198
f 27/27/27 30/30/30 33/33/33
f 33/33/33 30/30/30 28/28/28
f 246/246/246 266/266/266 240/240/240
f 240/240/240 266/266/266 239/239/239
f 245/245/245 247/247/247 244/244/244
f 250/250/250 247/247/247 245/245/245
f 231/231/231 251/251/251 230/230/230
f 252/252/252 251/251/251 231/231/231
f 253/253/253 254/254/254 255/255/255
f 256/256/256 254/254/254 253/253/253
f 263/263/263 261/261/261 260/260/260
f 262/262/262 261/261/261 263/263/263
f 233/233/233 234/234/234 235/235/235
f 264/264/264 234/234/234 233/233/233
f 227/227/227 228/228/228 229/229/229
f 265/265/265 228/228/228 227/227/227
f 22/22/22 19/19/19 17/17/17
f 4/4/4 19/19/19 22/22/22
f 312/312/312 313/313/313 241/241/241
f 315/315/315 313/313/313 312/312/312
f 88/88/88 90/90/90 89/89/89
f 91/91/91 88/88/88 89/89/89
f 94/94/94 91/91/91 89/89/89
f 87/87/87 94/94/94 89/89/89
f 85/85/85 84/84/84 86/86/86
f 80/80/80 84/84/84 85/85/85
f 78/78/78 77/77/77 79/79/79
f 76/76/76 77/77/77 78/78/78
f 75/75/75 73/73/73 57/57/57
f 74/74/74 73/73/73 75/75/75
f 72/72/72 70/70/70 69/69/69
f 71/71/71 70/70/70 72/72/72
f 68/68/68 66/66/66 65/65/65
f 67/67/67 66/66/66 68/68/68
f 37/37/37 36/36/36 64/64/64
f 35/35/35 36/36/36 37/37/37
f 267/267/267 269/269/269 303/303/303
f 272/272/272 267/267/267 303/303/303
f 270/270/270 272/272/272 303/303/303
f 268/268/268 314/314/314 304/304/304
f 314/314/314 311/311/311 304/304/304
f 311/311/311 271/271/271 304/304/304
f 277/277/277 280/280/280 276/276/276
f 278/278/278 280/280/280 277/277/277
f 281/281/281 284/284/284 279/279/279
f 282/282/282 284/284/284 281/281/281
f 285/285/285 288/288/288 283/283/283
f 286/286/286 288/288/288 285/285/285
f 293/293/293 294/294/294 287/287/287
f 295/295/295 294/294/294 293/293/293
f 297/297/297 316/316/316 317/317/317
f 317/317/317 316/316/316 318/318/318
f 275/275/275 273/273/273 296/296/296
f 274/274/274 273/273/273 275/275/275
f 319/319/319 360/360/360 363/363/363
f 363/363/363 360/360/360 359/359/359
f 322/322/322 357/357/357 344/344/344
f 344/344/344 357/357/357 356/356/356
f 320/320/320 355/355/355 358/358/358
f 358/358/358 355/355/355 341/341/341
f 323/323/323 326/326/326 321/321/321
f 324/324/324 326/326/326 323/323/323
f 327/327/327 330/330/330 325/325/325
f 328/328/328 330/330/330 327/327/327
f 331/331/331 334/334/334 329/329/329
f 332/332/332 334/334/334 331/331/331
f 335/335/335 338/338/338 333/333/333
f 336/336/336 338/338/338 335/335/335
f 310/310/310 308/308/308 337/337/337
f 309/309/309 308/308/308 310/310/310
f 307/307/307 305/305/305 339/339/339
f 306/306/306 305/305/305 307/307/307
f 302/302/302 300/300/300 340/340/340
f 301/301/301 300/300/300 302/302/302
f 342/342/342 383/383/383 386/386/386
f 386/386/386 383/383/383 347/347/347
f 343/343/343 379/379/379 346/346/346
f 346/346/346 379/379/379 345/345/345
f 367/367/367 364/364/364 365/365/365
f 366/366/366 367/367/367 365/365/365
f 368/368/368 366/366/366 365/365/365
f 373/373/373 374/374/374 375/375/375
f 351/351/351 374/374/374 373/373/373
f 350/350/350 348/348/348 349/349/349
f 376/376/376 348/348/348 350/350/350
f 353/353/353 354/354/354 352/352/352
f 378/378/378 354/354/354 353/353/353
f 377/377/377 385/385/385 387/387/387
f 387/387/387 385/385/385 384/384/384
f 421/421/421 422/422/422 390/390/390
f 424/424/424 422/422/422 421/421/421
f 388/388/388 434/434/434 436/436/436
f 436/436/436 434/434/434 433/433/433
f 389/389/389 431/431/431 429/429/429
f 429/429/429 431/431/431 428/428/428
f 394/394/394 392/392/392 391/391/391
f 393/393/393 392/392/392 394/394/394
f 401/401/401 399/399/399 398/398/398
f 400/400/400 399/399/399 401/401/401
f 405/405/405 403/403/403 402/402/402
f 404/404/404 403/403/403 405/405/405
f 409/409/409 432/432/432 435/435/435
f 435/435/435 432/432/432 430/430/430
f 410/410/410 411/411/411 412/412/412
f 382/382/382 411/411/411 410/410/410
f 381/381/381 413/413/413 380/380/380
f 420/420/420 413/413/413 381/381/381
f 427/427/427 425/425/425 423/423/423
f 426/426/426 425/425/425 427/427/427
f 397/397/397 396/396/396 439/439/439
f 395/395/395 396/396/396 397/397/397
f 437/437/437 414/414/414 415/415/415
f 415/415/415 414/414/414 416/416/416
f 438/438/438 292/292/292 291/291/291
f 291/291/291 292/292/292 450/450/450
f 443/443/443 441/441/441 440/440/440
f 442/442/442 441/441/441 443/443/443
f 417/417/417 418/418/418 444/444/444
f 448/448/448 418/418/418 417/417/417
f 445/445/445 446/446/446 447/447/447
f 419/419/419 446/446/446 445/445/445
f 299/299/299 298/298/298 449/449/449
f 289/289/289 298/298/298 299/299/299
f 408/408/408 407/407/407 290/290/290
f 406/406/406 407/407/407 408/408/408
