# Exported by s4extract — Prop_Utensil_Hand_lod00_g00
o Prop_Utensil_Hand_lod00_g00
v -0.022614 -0.005402 0.012268
v -0.016663 -0.010834 0.014771
v -0.011811 -0.005249 0.013001
v 0.039521 -0.028352 0.027223
v 0.030610 -0.010681 0.010743
v 0.012726 -0.005280 0.014130
v 0.049074 -0.005188 0.059297
v 0.024659 -0.005249 0.008240
v 0.043519 -0.004852 0.016022
v 0.030610 -0.010681 0.010743
v 0.035463 -0.005097 0.008972
v 0.035463 -0.005097 0.008972
v 0.039277 -0.004486 0.101199
v 0.012879 -0.015656 0.014344
v 0.017548 -0.015412 0.101199
v 0.036287 -0.014618 0.024049
v 0.027223 -0.014649 0.053163
v 0.050478 -0.004456 0.029664
v 0.044313 -0.014740 0.027223
v 0.039552 -0.028352 0.104892
v -0.044343 -0.014740 0.102695
v -0.039552 -0.028352 0.104923
v 0.044374 -0.014740 0.102664
v -0.034394 -0.015809 0.018372
v -0.010987 -0.014740 0.028077
v -0.003723 -0.004975 0.020051
v 0.049074 -0.005188 0.059297
v 0.050478 -0.004456 0.029664
v 0.004334 -0.004578 0.052675
v 0.012726 -0.005280 0.014130
v 0.050478 -0.004456 0.029664
v 0.038575 0.003052 0.096957
v 0.012726 -0.005280 0.014130
v 0.039521 -0.028352 0.027223
v 0.042756 0.003052 0.035157
v -0.028138 -0.014771 0.057192
v -0.006714 -0.004913 0.103122
v -0.037812 -0.015534 0.105228
v 0.000000 -0.028352 0.099460
v -0.044404 -0.014740 0.027253
v 0.044374 -0.014740 0.102664
v 0.044313 -0.014740 0.027223
v -0.044343 -0.014740 0.102695
v 0.043519 -0.004852 0.016022
v -0.039613 -0.028352 0.027253
v 0.035463 -0.005097 0.008972
v 0.003815 -0.014039 0.098636
v -0.002594 -0.013703 0.021607
v -0.042787 -0.005432 0.033937
v 0.039552 -0.028352 0.104892
v 0.039277 -0.004486 0.101199
v 0.004334 -0.004578 0.052675
v 0.049074 -0.005188 0.059297
v 0.004334 -0.004578 0.052675
v 0.024659 -0.005249 0.008240
v 0.012879 -0.015656 0.014344
v 0.017548 -0.015412 0.101199
v -0.002594 -0.013703 0.021607
v -0.041322 -0.005249 0.101932
v 0.003815 -0.014039 0.098636
v -0.042055 -0.000488 0.034211
v -0.041322 -0.005249 0.101932
v -0.041139 0.003052 0.098361
v 0.004334 -0.004578 0.052675
v -0.002655 -0.002411 0.101138
v -0.002655 -0.002411 0.101138
v 0.045259 -0.003845 0.032838
v 0.040773 -0.005066 0.100528
v 0.045259 -0.003845 0.032838
v 0.040773 -0.005066 0.100528
v -0.041322 -0.005249 0.101932
v 0.040773 -0.005066 0.100528
v 0.042756 0.003052 0.035157
v 0.045259 -0.003845 0.032838
v 0.038575 0.003052 0.096957
v -0.041139 0.003052 0.098361
v -0.011841 0.003052 0.026460
v 0.004364 0.003052 0.092471
v -0.042787 -0.005432 0.033937
v 0.017548 -0.015412 0.101199
v 0.039277 -0.004486 0.101199
v 0.024659 -0.005249 0.008240
v -0.002655 -0.002411 0.101138
v 0.039521 -0.028352 0.027223
v -0.044404 -0.014740 0.027253
v -0.039613 -0.028352 0.027253
v -0.007996 0.027528 0.100040
v 0.041780 0.014893 0.028260
v -0.000031 0.014893 0.028291
v -0.039613 -0.028352 0.027253
v 0.000000 -0.028352 0.099460
v -0.039552 -0.028352 0.104923
v 0.044313 -0.014740 0.027223
v 0.044374 0.003143 0.099765
v -0.044343 0.003143 0.102878
v -0.044343 0.003143 0.102878
v 0.041780 0.014893 0.028260
v 0.044374 0.003143 0.099765
v 0.044313 0.003143 0.027223
v -0.041810 0.014893 0.102878
v -0.041810 0.014893 0.102878
v -0.044343 0.003143 0.102878
v 0.044313 0.003143 0.027223
v 0.013581 0.003143 0.095004
v -0.044404 0.003143 0.027253
v 0.041810 0.014893 0.099765
v -0.044404 0.003143 0.027253
v -0.041871 0.014893 0.028291
v 0.041810 0.014893 0.099765
v -0.044404 0.003143 0.027253
v 0.044313 0.003143 0.027223
v 0.044374 0.003143 0.099765
v -0.007477 0.003143 0.100040
v -0.007996 0.027528 0.100040
v 0.017731 0.027528 0.095004
v -0.007477 0.003143 0.100040
v -0.011811 -0.005249 0.013001
v 0.017701 0.025300 0.037782
v -0.017762 0.025300 0.037782
v -0.041871 0.014893 0.028291
v 0.041810 0.014893 0.099765
v -0.041810 0.014893 0.102878
v 0.013581 0.003143 0.095004
v -0.044404 -0.014740 0.027253
v 0.017731 0.027528 0.095004
v 0.000000 -0.014740 0.097232
v 0.039552 -0.028352 0.104892
v 0.044374 -0.014740 0.102664
v 0.000000 -0.014740 0.097232
v -0.006714 -0.004913 0.103122
v -0.042909 -0.004700 0.056703
v -0.047243 -0.003723 0.105167
v -0.047243 -0.003723 0.105167
v -0.006714 -0.004913 0.103122
v 0.003204 -0.004608 0.033692
v -0.037812 -0.015534 0.105228
v -0.034547 -0.005432 0.018159
v -0.042909 -0.004700 0.056703
v 0.003204 -0.004608 0.033692
v -0.006714 -0.004913 0.103122
v -0.037812 -0.015534 0.105228
v -0.047243 -0.003723 0.105167
v -0.003723 -0.004975 0.020051
v -0.011811 -0.005249 0.013001
v -0.034547 -0.005432 0.018159
v -0.022614 -0.005402 0.012268
v -0.034547 -0.005432 0.018159
v -0.042909 -0.004700 0.056703
v -0.028138 -0.014771 0.057192
v -0.034394 -0.015809 0.018372
v -0.034547 -0.005432 0.018159
v -0.016663 -0.010834 0.014771
v -0.022614 -0.005402 0.012268
v 0.003204 -0.004608 0.033692
v 0.017548 -0.015198 0.079684
v 0.035463 -0.006165 -0.001221
v -0.041322 -0.006287 0.080447
v 0.039277 -0.005615 0.079684
v -0.002655 -0.003815 0.079623
v 0.030610 -0.011048 0.000580
v 0.035463 -0.006165 -0.001221
v -0.044343 -0.014618 0.081210
v 0.012879 -0.015442 0.004151
v 0.049074 -0.006256 0.037812
v 0.039277 -0.005615 0.079684
v 0.017548 -0.015198 0.079684
v 0.043519 -0.005921 0.005829
v 0.036287 -0.014496 0.013855
v 0.027223 -0.014527 0.031648
v 0.050478 -0.005585 0.019471
v 0.044374 -0.014618 0.081179
v 0.039552 -0.026551 0.083407
v 0.039521 -0.026551 0.005707
v 0.039277 -0.005615 0.079684
v -0.039552 -0.026551 0.083438
v 0.044313 -0.014618 0.005707
v 0.012726 -0.006317 0.003937
v 0.004334 -0.005707 0.031159
v 0.003204 -0.005707 0.021088
v -0.022614 -0.006409 -0.000336
v -0.011811 -0.006256 0.000397
v 0.050478 -0.005585 0.019471
v -0.039613 -0.026551 0.005737
v 0.050478 -0.005585 0.019471
v 0.004334 -0.005707 0.031159
v 0.042756 0.001007 0.013672
v 0.040773 -0.006134 0.079012
v 0.038575 0.001007 0.075442
v 0.045259 -0.005036 0.011322
v 0.040773 -0.006134 0.079012
v -0.003723 -0.006043 0.007447
v -0.016663 -0.011170 0.002197
v -0.011811 -0.006256 0.000397
v 0.044374 -0.014618 0.081179
v 0.000000 -0.014618 0.075716
v -0.044404 -0.014618 0.005737
v 0.000000 -0.026551 0.077944
v 0.012726 -0.006317 0.003937
v 0.043519 -0.005921 0.005829
v -0.044343 -0.014618 0.081210
v 0.024659 -0.006287 -0.001953
v -0.002594 -0.013703 0.000092
v -0.011841 0.001007 0.004944
v -0.042787 -0.006439 0.012421
v 0.049074 -0.006256 0.037812
v -0.002655 -0.003815 0.079623
v 0.004334 -0.005707 0.031159
v 0.004334 -0.005707 0.031159
v 0.012726 -0.006317 0.003937
v 0.024659 -0.006287 -0.001953
v 0.035463 -0.006165 -0.001221
v 0.012879 -0.015442 0.004151
v -0.042055 -0.002106 0.012696
v 0.004364 0.001007 0.070986
v -0.042055 -0.002106 0.012696
v -0.041139 0.001007 0.076876
v -0.041139 0.001007 0.076876
v -0.042787 -0.006439 0.012421
v 0.030610 -0.011048 0.000580
v 0.049074 -0.006256 0.037812
v 0.024659 -0.006287 -0.001953
v 0.045259 -0.005036 0.011322
v 0.038575 0.001007 0.075442
v 0.042756 0.001007 0.013672
v 0.040773 -0.006134 0.079012
v -0.002594 -0.013703 0.000092
v 0.045259 -0.005036 0.011322
v -0.042787 -0.006439 0.012421
v 0.003815 -0.014008 0.077120
v -0.041322 -0.006287 0.080447
v -0.041322 -0.006287 0.080447
v -0.041139 0.001007 0.076876
v 0.003815 -0.014008 0.077120
v -0.042787 -0.006439 0.012421
v -0.002655 -0.003815 0.079623
v 0.017701 0.020539 0.016266
v -0.017762 0.020539 0.016266
v -0.041810 0.011414 0.081362
v 0.039521 -0.026551 0.005707
v -0.044404 -0.014618 0.005737
v -0.044404 -0.014618 0.005737
v 0.017731 0.022492 0.073519
v 0.041780 0.011414 0.006745
v -0.007996 0.022492 0.078524
v -0.007477 0.001099 0.078524
v -0.037812 -0.015320 0.083712
v -0.034394 -0.015534 0.005768
v -0.010987 -0.014618 0.006561
v 0.039521 -0.026551 0.005707
v -0.028138 -0.014649 0.035676
v -0.006714 -0.005982 0.081637
v -0.039613 -0.026551 0.005737
v 0.000000 -0.026551 0.077944
v -0.039552 -0.026551 0.083438
v -0.044404 0.001099 0.005737
v -0.044404 0.001099 0.005737
v -0.044343 0.001099 0.081362
v -0.041871 0.011414 0.006806
v -0.041810 0.011414 0.081362
v 0.044374 0.001099 0.078249
v 0.044374 0.001099 0.078249
v 0.041810 0.011414 0.078249
v 0.044374 0.001099 0.078249
v -0.044343 0.001099 0.081362
v 0.039552 -0.026551 0.083407
v 0.044313 -0.014618 0.005707
v 0.044313 0.001099 0.005707
v 0.041780 0.011414 0.006745
v 0.044313 0.001099 0.005707
v -0.041810 0.011414 0.081362
v -0.044343 0.001099 0.081362
v 0.041810 0.011414 0.078249
v 0.044313 0.001099 0.005707
v -0.044404 0.001099 0.005737
v -0.007477 0.001099 0.078524
v 0.013581 0.001099 0.073519
v -0.000031 0.011414 0.006775
v -0.007996 0.022492 0.078524
v -0.022614 -0.006409 -0.000336
v -0.034547 -0.006439 0.005554
v -0.034394 -0.015534 0.005768
v -0.028138 -0.014649 0.035676
v -0.034547 -0.006439 0.005554
v -0.047243 -0.004944 0.083651
v -0.039613 -0.026551 0.005737
v -0.041871 0.011414 0.006806
v 0.013581 0.001099 0.073519
v 0.017731 0.022492 0.073519
v 0.041810 0.011414 0.078249
v 0.039552 -0.026551 0.083407
v -0.034547 -0.006439 0.005554
v -0.042909 -0.005799 0.035188
v -0.047243 -0.004944 0.083651
v 0.003204 -0.005707 0.021088
v -0.006714 -0.005982 0.081637
v -0.042909 -0.005799 0.035188
v -0.003723 -0.006043 0.007447
v 0.003204 -0.005707 0.021088
v -0.034547 -0.006439 0.005554
v -0.022614 -0.006409 -0.000336
v 0.044374 -0.014618 0.081179
v 0.000000 -0.014618 0.075716
v 0.044313 -0.014618 0.005707
v -0.011811 -0.006256 0.000397
v -0.037812 -0.015320 0.083712
v -0.006714 -0.005982 0.081637
v -0.047243 -0.004944 0.083651
v -0.006714 -0.005982 0.081637
v -0.037812 -0.015320 0.083712
v -0.042909 -0.005799 0.035188
v -0.016663 -0.011170 0.002197
vt 0.230712 0.972913
vt 0.150148 0.972913
vt 0.230499 0.990293
vt 0.841494 0.175826
vt 0.150148 0.972913
vt 0.230712 0.946068
vt 0.021051 0.875817
vt 0.230712 0.972913
vt 0.021051 0.972913
vt 0.150148 0.972913
vt 0.062698 0.990293
vt 0.230499 0.990293
vt 0.021051 0.781573
vt 0.193584 0.946068
vt 0.150178 0.781573
vt 0.106802 0.946068
vt 0.150178 0.875817
vt 0.021051 0.946068
vt 0.662955 0.175826
vt 0.841494 0.492744
vt 0.776370 0.006083
vt 0.841494 0.175826
vt 0.662955 0.492744
vt 0.193584 0.946068
vt 0.106802 0.946068
vt 0.021051 0.972913
vt 0.482050 0.861439
vt 0.488025 0.935391
vt 0.294016 0.878032
vt 0.329324 0.974217
vt 0.488025 0.935391
vt 0.868096 0.672830
vt 0.329324 0.974217
vt 0.841494 0.175826
vt 0.861575 0.871358
vt 0.150178 0.875817
vt 0.021051 0.809783
vt 0.150178 0.781573
vt 0.841494 0.090954
vt 0.662955 0.006083
vt 0.776370 0.175826
vt 0.662955 0.175826
vt 0.662955 0.175826
vt 0.458906 0.969424
vt 0.841494 0.492744
vt 0.425024 0.987018
vt 0.736846 0.601244
vt 0.753377 0.968363
vt 0.912686 0.903299
vt 0.841494 0.006083
vt 0.440797 0.781118
vt 0.294016 0.878032
vt 0.482050 0.861439
vt 0.230712 0.875817
vt 0.230712 0.972913
vt 0.193584 0.946068
vt 0.150178 0.781573
vt 0.714855 0.984257
vt 0.588276 0.630879
vt 0.756411 0.581770
vt 0.584909 0.862653
vt 0.588276 0.630879
vt 0.610024 0.654630
vt 0.230712 0.875817
vt 0.264381 0.781239
vt 0.230712 0.781573
vt 0.884567 0.889406
vt 0.895851 0.651900
vt 0.550359 0.922742
vt 0.895851 0.651900
vt 0.906680 0.630728
vt 0.593189 0.623508
vt 0.861575 0.871358
vt 0.884567 0.889406
vt 0.868096 0.672830
vt 0.610024 0.654630
vt 0.680609 0.894472
vt 0.756987 0.676257
vt 0.566345 0.869235
vt 0.349920 0.727732
vt 0.438492 0.729158
vt 0.379555 0.988898
vt 0.276120 0.670494
vt 0.841494 0.175826
vt 0.662955 0.006083
vt 0.841494 0.006083
vt 0.282369 0.080702
vt 0.572563 0.476212
vt 0.334177 0.479124
vt 0.841494 0.006083
vt 0.841494 0.090954
vt 0.841494 0.175826
vt 0.662955 0.175826
vt 0.774125 0.013272
vt 0.107864 0.008965
vt 0.774125 0.170791
vt 0.572563 0.476212
vt 0.562887 0.008965
vt 0.641024 0.511702
vt 0.120967 0.047184
vt 0.102889 0.088588
vt 0.020717 0.093017
vt 0.641024 0.511702
vt 0.774125 0.067932
vt 0.030272 0.510701
vt 0.569136 0.088012
vt 0.030272 0.510701
vt 0.098612 0.475150
vt 0.569136 0.088012
vt 0.661742 0.170791
vt 0.661742 0.013272
vt 0.651489 0.092865
vt 0.774125 0.122622
vt 0.282369 0.080702
vt 0.415014 0.080581
vt 0.270812 0.008965
vt 0.062698 0.990293
vt 0.432122 0.434413
vt 0.239994 0.433352
vt 0.098612 0.475150
vt 0.549965 0.046911
vt 0.102889 0.088588
vt 0.401880 0.008965
vt 0.662955 0.492744
vt 0.415014 0.080581
vt 0.662955 0.090954
vt 0.841494 0.006083
vt 0.662955 0.006083
vt 0.776370 0.090954
vt 0.467854 0.798408
vt 0.294016 0.878032
vt 0.230712 0.781573
vt 0.264381 0.781239
vt 0.467854 0.798408
vt 0.488056 0.935391
vt 0.150178 0.781573
vt 0.329324 0.974217
vt 0.294016 0.878032
vt 0.488056 0.935391
vt 0.438492 0.729158
vt 0.349920 0.727732
vt 0.276120 0.670494
vt 0.458906 0.969424
vt 0.425024 0.987018
vt 0.329324 0.974217
vt 0.379555 0.988898
vt 0.230712 0.946068
vt 0.230712 0.875817
vt 0.150178 0.875817
vt 0.193584 0.946068
vt 0.230712 0.946068
vt 0.150148 0.972913
vt 0.230712 0.972913
vt 0.021051 0.946068
vt 0.349920 0.727732
vt 0.425024 0.987018
vt 0.588276 0.630879
vt 0.438492 0.729158
vt 0.264381 0.781239
vt 0.150148 0.972913
vt 0.062698 0.990293
vt 0.776370 0.006083
vt 0.193584 0.946068
vt 0.021051 0.875817
vt 0.021051 0.781573
vt 0.150178 0.781573
vt 0.021051 0.972913
vt 0.106802 0.946068
vt 0.150178 0.875817
vt 0.021051 0.946068
vt 0.662955 0.492744
vt 0.841494 0.492744
vt 0.841494 0.175826
vt 0.440797 0.781118
vt 0.841494 0.175826
vt 0.662955 0.175826
vt 0.329324 0.974217
vt 0.294016 0.878032
vt 0.021051 0.946068
vt 0.230712 0.972913
vt 0.230499 0.990293
vt 0.488025 0.935391
vt 0.841494 0.006083
vt 0.488025 0.935391
vt 0.294016 0.878032
vt 0.861575 0.871358
vt 0.895851 0.651900
vt 0.868096 0.672830
vt 0.884567 0.889406
vt 0.895851 0.651900
vt 0.021051 0.972913
vt 0.150148 0.972913
vt 0.062698 0.990293
vt 0.662955 0.006083
vt 0.662955 0.090954
vt 0.662955 0.006083
vt 0.841494 0.090954
vt 0.329324 0.974217
vt 0.458906 0.969424
vt 0.662955 0.175826
vt 0.379555 0.988898
vt 0.714855 0.984257
vt 0.680609 0.894472
vt 0.566345 0.869235
vt 0.482050 0.861439
vt 0.230712 0.781573
vt 0.230712 0.875817
vt 0.230712 0.875817
vt 0.230712 0.946068
vt 0.230712 0.972913
vt 0.230499 0.990293
vt 0.193584 0.946068
vt 0.584909 0.862653
vt 0.756987 0.676257
vt 0.584909 0.862653
vt 0.610024 0.654630
vt 0.610024 0.654630
vt 0.566345 0.869235
vt 0.150148 0.972913
vt 0.482050 0.861439
vt 0.230712 0.972913
vt 0.550359 0.922742
vt 0.868096 0.672830
vt 0.861575 0.871358
vt 0.593189 0.623508
vt 0.753377 0.968363
vt 0.884567 0.889406
vt 0.912686 0.903299
vt 0.736846 0.601244
vt 0.906680 0.630728
vt 0.588276 0.630879
vt 0.610024 0.654630
vt 0.756411 0.581770
vt 0.566345 0.869235
vt 0.276120 0.670494
vt 0.432122 0.434413
vt 0.239994 0.433352
vt 0.102889 0.088588
vt 0.841494 0.175826
vt 0.662955 0.006083
vt 0.662955 0.492744
vt 0.415014 0.080581
vt 0.572563 0.476212
vt 0.282369 0.080702
vt 0.270812 0.008965
vt 0.150178 0.781573
vt 0.193584 0.946068
vt 0.106802 0.946068
vt 0.841494 0.175826
vt 0.150178 0.875817
vt 0.021051 0.809783
vt 0.841494 0.006083
vt 0.841494 0.090954
vt 0.841494 0.175826
vt 0.030272 0.510701
vt 0.030272 0.510701
vt 0.020717 0.093017
vt 0.098612 0.475150
vt 0.102889 0.088588
vt 0.562887 0.008965
vt 0.651489 0.092865
vt 0.569136 0.088012
vt 0.774125 0.013272
vt 0.107864 0.008965
vt 0.841494 0.006083
vt 0.662955 0.175826
vt 0.641024 0.511702
vt 0.572563 0.476212
vt 0.641024 0.511702
vt 0.120967 0.047184
vt 0.774125 0.170791
vt 0.569136 0.088012
vt 0.661742 0.013272
vt 0.661742 0.170791
vt 0.774125 0.122622
vt 0.774125 0.067932
vt 0.334177 0.479124
vt 0.282369 0.080702
vt 0.230712 0.972913
vt 0.230712 0.946068
vt 0.193584 0.946068
vt 0.150178 0.875817
vt 0.230712 0.946068
vt 0.230712 0.781573
vt 0.841494 0.492744
vt 0.098612 0.475150
vt 0.401880 0.008965
vt 0.415014 0.080581
vt 0.549965 0.046911
vt 0.841494 0.006083
vt 0.329324 0.974217
vt 0.294016 0.878032
vt 0.264381 0.781239
vt 0.488056 0.935391
vt 0.467854 0.798408
vt 0.294016 0.878032
vt 0.458906 0.969424
vt 0.488056 0.935391
vt 0.329324 0.974217
vt 0.379555 0.988898
vt 0.776370 0.175826
vt 0.776370 0.090954
vt 0.662955 0.175826
vt 0.425024 0.987018
vt 0.349920 0.727732
vt 0.438492 0.729158
vt 0.276120 0.670494
vt 0.467854 0.798408
vt 0.150178 0.781573
vt 0.230712 0.875817
vt 0.150148 0.972913
vn -0.013393 -0.430440 -0.902520
vn 0.355785 -0.834710 -0.420328
vn 0.068228 -0.354809 -0.932446
vn 0.942917 -0.333027 -0.000564
vn -0.013393 -0.430440 -0.902520
vn -0.909287 -0.021928 -0.415592
vn 0.382504 -0.922036 0.059495
vn -0.013393 -0.430440 -0.902520
vn 0.570716 -0.716701 -0.400778
vn 0.355200 -0.834269 -0.421697
vn 0.520275 -0.633541 -0.572660
vn 0.068228 -0.354809 -0.932446
vn 0.411803 -0.906962 0.088536
vn -0.158107 -0.987133 -0.023898
vn 0.447919 -0.890833 0.076061
vn 0.323779 -0.942959 -0.077426
vn 0.109994 -0.992211 0.058473
vn 0.490340 -0.871379 0.016320
vn 0.943263 -0.332046 -0.000763
vn 0.942580 -0.333979 -0.000370
vn 0.000000 1.000000 0.000000
vn -0.618643 -0.108227 0.778183
vn 0.942917 -0.333027 -0.000564
vn 0.064176 -0.982850 -0.172879
vn 0.305569 -0.951771 -0.027573
vn 0.570334 -0.717393 -0.400083
vn 0.009911 0.999634 0.025177
vn -0.002609 0.999997 0.000073
vn -0.002609 0.999997 0.000073
vn -0.013151 0.999692 -0.021068
vn -0.012475 0.999664 -0.022710
vn 0.950637 0.303098 0.066487
vn -0.012523 0.999681 -0.021933
vn 0.000000 -1.000000 0.000000
vn 0.944813 0.321313 0.063921
vn 0.108452 -0.993668 0.029361
vn 0.332737 -0.941851 0.046935
vn 0.325838 -0.944069 0.050628
vn 0.000381 0.161528 0.986868
vn 0.000000 1.000000 0.000000
vn 0.000000 1.000000 0.000000
vn 0.000000 1.000000 0.000000
vn -0.919648 -0.278463 0.276959
vn -0.012548 0.999685 -0.021738
vn -0.943282 -0.331991 0.000752
vn -0.012762 0.999718 -0.020037
vn 0.010869 -0.999939 -0.001895
vn 0.017948 -0.999822 -0.005851
vn -0.194363 -0.980883 0.009520
vn 0.000000 -1.000000 0.000000
vn 0.032933 0.999130 -0.025601
vn 0.032933 0.999130 -0.025601
vn 0.015580 0.999793 -0.013106
vn -0.452595 -0.891715 0.001663
vn -0.442432 -0.024963 -0.896455
vn -0.909287 -0.021928 -0.415592
vn -0.470230 -0.879889 -0.068397
vn 0.017371 0.289915 -0.956895
vn 0.128091 0.351829 0.927259
vn 0.015331 0.338838 0.940720
vn -0.118509 0.991778 -0.048289
vn -0.999281 0.031267 0.021444
vn -0.997213 0.072891 0.015910
vn -0.977006 -0.018740 -0.212388
vn 0.049450 0.998073 -0.037493
vn -0.540615 -0.840300 -0.040390
vn 0.950637 0.303098 0.066487
vn -0.127308 0.350080 0.928028
vn 0.218700 -0.975700 -0.013399
vn 0.954990 0.288622 0.068498
vn -0.190657 -0.981634 0.006751
vn 0.236012 -0.971748 -0.001883
vn 0.032233 0.978385 -0.204264
vn 0.141845 0.361374 -0.921569
vn -0.016095 0.992308 0.122739
vn 0.009065 0.997504 0.070028
vn -0.047071 0.965369 -0.256605
vn -0.018917 0.985489 0.168683
vn -0.824200 0.120872 -0.553249
vn -0.001325 0.002636 0.999996
vn -0.001325 0.002636 0.999996
vn -0.012655 0.999714 -0.020295
vn -0.001325 0.002636 0.999996
vn -0.000364 0.000000 -1.000000
vn -0.000364 0.000000 -1.000000
vn -0.000386 -0.000136 -1.000000
vn -0.137014 0.990455 -0.015039
vn 0.301292 0.876464 -0.375545
vn -0.000294 0.372681 -0.927959
vn 0.000000 -1.000000 0.000000
vn 0.000000 -1.000000 0.000000
vn 0.000000 -1.000000 0.000000
vn -0.000344 0.000121 -1.000000
vn 0.000000 -1.000000 0.000000
vn 0.076749 -0.016546 0.996913
vn 0.000000 -1.000000 0.000000
vn 0.977273 0.211982 -0.000621
vn -0.152708 -0.033318 0.987710
vn 0.977526 0.210812 -0.000822
vn 0.080853 -0.004507 0.996716
vn -0.977541 0.210743 0.000800
vn -0.977548 0.210709 0.000794
vn -0.000466 0.088792 -0.996050
vn 0.000000 -1.000000 0.000000
vn -0.000233 0.088842 -0.996046
vn 0.430270 0.902562 -0.015824
vn -0.977556 0.210676 0.000789
vn -0.977548 0.210709 0.000794
vn 0.977016 0.213167 -0.000417
vn 0.000000 -1.000000 0.000000
vn 0.000000 -1.000000 0.000000
vn 0.977273 0.211982 -0.000621
vn 0.000000 -1.000000 0.000000
vn 0.157633 -0.008420 0.987462
vn 0.245516 0.968654 -0.037844
vn 0.125752 -0.001732 0.992060
vn 0.520470 -0.633625 -0.572390
vn 0.189922 0.973305 -0.128865
vn -0.221060 0.968143 -0.117606
vn -0.305152 0.879910 -0.364198
vn -0.169304 0.007436 0.985536
vn -0.370734 0.928668 0.011504
vn 0.034312 -0.005007 0.999399
vn -0.943263 -0.332046 0.000763
vn 0.005286 -0.000900 0.999986
vn 0.000358 0.183437 0.983031
vn -0.126240 0.181973 0.975166
vn -0.119026 0.201305 0.972270
vn 0.000000 1.000000 0.000000
vn 0.028463 0.999440 -0.017595
vn 0.028463 0.999440 -0.017595
vn -0.780036 -0.623115 -0.057195
vn 0.028463 0.999440 -0.017595
vn 0.000224 0.999990 0.004428
vn -0.004325 0.999980 -0.004689
vn -0.666440 -0.739468 -0.095104
vn -0.012856 0.999680 -0.021785
vn -0.004325 0.999980 -0.004689
vn -0.013624 0.999709 -0.019919
vn 0.051693 0.046430 0.997583
vn 0.051693 0.046430 0.997583
vn 0.051693 0.046430 0.997583
vn -0.013462 0.999687 -0.021075
vn -0.012447 0.999618 -0.024668
vn -0.013579 0.999694 -0.020662
vn -0.013221 0.999653 -0.022790
vn -0.557820 -0.823246 -0.105372
vn -0.634544 -0.766593 -0.098438
vn -0.987151 -0.011235 0.159393
vn -0.991938 -0.017172 -0.125552
vn -0.991938 -0.017172 -0.125552
vn -0.013393 -0.430440 -0.902520
vn -0.442432 -0.024963 -0.896455
vn 0.396620 -0.915305 0.070068
vn -0.001326 0.003008 0.999995
vn -0.009700 0.999676 -0.023535
vn -0.999137 0.035577 0.021436
vn -0.001326 0.003008 0.999995
vn 0.042925 0.998540 -0.032796
vn 0.323949 -0.864772 -0.383702
vn 0.490857 -0.685892 -0.537226
vn 0.000000 1.000000 0.000000
vn -0.127084 -0.991488 -0.028292
vn 0.337857 -0.939129 0.062369
vn 0.368247 -0.926328 0.079435
vn -0.162388 -0.986521 -0.020157
vn 0.531116 -0.760812 -0.372937
vn 0.298885 -0.950038 -0.089973
vn 0.093715 -0.993724 0.061080
vn 0.447585 -0.894003 0.020651
vn 0.927556 -0.373684 -0.000554
vn 0.927139 -0.374717 -0.000364
vn 0.927556 -0.373684 -0.000554
vn 0.028850 0.999327 -0.022661
vn -0.617380 -0.123255 0.776950
vn 0.927985 -0.372618 -0.000750
vn -0.009027 0.999642 -0.025196
vn 0.028850 0.999327 -0.022661
vn 0.341627 -0.937543 0.065604
vn -0.011162 -0.480516 -0.876915
vn 0.067594 -0.401469 -0.913375
vn -0.002439 0.999997 0.000815
vn -0.000386 -0.000155 -1.000000
vn -0.011737 0.999758 -0.018616
vn -0.002439 0.999997 0.000815
vn 0.930490 0.360861 0.062983
vn -0.133548 0.410029 0.902242
vn 0.937966 0.340449 0.065686
vn 0.937966 0.340449 0.065686
vn 0.943549 0.324221 0.067797
vn 0.626885 -0.549281 -0.552544
vn 0.298160 -0.627608 -0.719172
vn 0.490285 -0.682728 -0.541760
vn -0.118955 0.228469 0.966256
vn 0.000356 0.208325 0.978060
vn 0.000000 1.000000 0.000000
vn 0.000379 0.183529 0.983014
vn -0.011737 0.999758 -0.018611
vn -0.011527 0.999751 -0.019119
vn -0.909107 -0.314003 0.273728
vn -0.011216 0.999740 -0.019865
vn 0.017170 0.327168 -0.944810
vn -0.041621 0.973020 -0.226935
vn -0.264040 0.138913 -0.954456
vn 0.006753 0.999289 0.037097
vn -0.490470 -0.870683 -0.036735
vn -0.410460 -0.911877 0.001834
vn -0.955511 -0.022863 -0.294068
vn -0.852159 -0.026485 -0.522613
vn -0.011162 -0.480516 -0.876915
vn 0.066444 -0.402671 -0.912930
vn -0.852159 -0.026485 -0.522613
vn -0.050938 0.997761 -0.043346
vn -0.013225 0.991920 0.126177
vn -0.986061 0.166278 0.006002
vn -0.986061 0.166278 0.006002
vn -0.999137 0.035577 0.021436
vn -0.999137 0.035577 0.021436
vn -0.011162 -0.480516 -0.876915
vn 0.014063 0.999829 -0.012013
vn -0.442384 -0.028383 -0.896376
vn 0.193214 -0.981082 -0.012084
vn -0.041760 0.951158 0.305867
vn 0.028433 0.983241 -0.180080
vn 0.208471 -0.978026 -0.002058
vn 0.015876 -0.999860 -0.005282
vn 0.137895 0.408071 -0.902476
vn -0.171483 -0.985152 0.008272
vn 0.009545 -0.999953 -0.001855
vn -0.168192 -0.985737 0.005833
vn 0.126066 0.392244 0.911182
vn 0.007962 0.998075 0.061507
vn -0.007012 0.384496 0.923100
vn -0.986061 0.166278 0.006002
vn -0.001326 0.003008 0.999995
vn 0.167562 0.979287 -0.113662
vn -0.195285 0.975228 -0.103892
vn -0.330359 0.943800 0.010255
vn -0.000364 0.000000 -1.000000
vn -0.000364 0.000000 -1.000000
vn -0.927985 -0.372618 0.000750
vn 0.216824 0.975639 -0.033400
vn 0.271538 0.900867 -0.338681
vn 0.156904 -0.009535 0.987568
vn 0.125336 -0.001984 0.992112
vn 0.290071 -0.955944 0.045058
vn 0.031274 -0.977958 -0.206447
vn 0.274911 -0.961000 -0.030038
vn 0.000000 -1.000000 0.000000
vn 0.101142 -0.994501 0.027177
vn 0.291564 -0.955526 0.044284
vn 0.000000 -1.000000 0.000000
vn 0.000000 -1.000000 0.000000
vn 0.000000 -1.000000 0.000000
vn -0.000465 0.102067 -0.994777
vn -0.971167 0.238401 0.000784
vn -0.971157 0.238439 0.000789
vn -0.971157 0.238439 0.000789
vn -0.971148 0.238477 0.000795
vn -0.151728 -0.037708 0.987703
vn 0.970807 0.239861 -0.000617
vn 0.970479 0.241184 -0.000414
vn 0.000000 -1.000000 0.000000
vn 0.076746 -0.018846 0.996873
vn 0.000000 -1.000000 0.000000
vn -0.000344 0.000138 -1.000000
vn 0.971129 0.238555 -0.000817
vn 0.970807 0.239861 -0.000617
vn -0.000465 0.101021 -0.994884
vn 0.080852 -0.005136 0.996713
vn 0.000000 -1.000000 0.000000
vn 0.385616 0.922550 -0.014177
vn 0.000000 -1.000000 0.000000
vn 0.000000 -1.000000 0.000000
vn 0.000000 -1.000000 0.000000
vn 0.000000 -1.000000 0.000000
vn -0.000476 0.416373 -0.909194
vn -0.120374 0.992641 -0.013210
vn -0.442383 -0.028478 -0.896374
vn -0.987533 -0.020236 -0.156108
vn -0.987533 -0.020236 -0.156108
vn -0.978679 -0.011604 0.205067
vn -0.506935 -0.852931 -0.124602
vn -0.738791 -0.671750 -0.054219
vn -0.928008 -0.372558 0.000740
vn -0.274925 0.903720 -0.328186
vn 0.034112 -0.005673 0.999402
vn 0.005286 -0.001026 0.999986
vn -0.168250 0.008421 0.985708
vn -0.126306 0.206661 0.970226
vn -0.009407 0.999661 -0.024274
vn -0.003440 0.999983 -0.004758
vn 0.024826 0.999573 -0.015405
vn -0.003440 0.999983 -0.004758
vn -0.000630 0.999990 0.004433
vn 0.024826 0.999573 -0.015405
vn -0.011865 0.999762 -0.018282
vn -0.011723 0.999757 -0.018649
vn -0.011725 0.999758 -0.018626
vn -0.012075 0.999770 -0.017736
vn 0.000000 1.000000 0.000000
vn 0.000000 1.000000 0.000000
vn 0.000000 1.000000 0.000000
vn -0.013085 0.999798 -0.015286
vn 0.050901 0.052127 0.997342
vn 0.050901 0.052127 0.997342
vn 0.050901 0.052127 0.997342
vn 0.024826 0.999573 -0.015405
vn -0.618384 -0.780901 -0.088284
vn -0.590849 -0.800835 -0.097781
vn -0.011162 -0.480516 -0.876915
f 81/81/81 83/83/83 80/80/80
f 140/140/140 142/142/142 141/141/141
f 130/130/130 131/131/131 133/133/133
f 91/91/91 34/34/34 50/50/50
f 90/90/90 34/34/34 91/91/91
f 90/90/90 91/91/91 92/92/92
f 51/51/51 52/52/52 65/65/65
f 53/53/53 52/52/52 51/51/51
f 66/66/66 54/54/54 57/57/57
f 57/57/57 54/54/54 17/17/17
f 54/54/54 14/14/14 17/17/17
f 17/17/17 14/14/14 16/16/16
f 16/16/16 18/18/18 17/17/17
f 17/17/17 18/18/18 7/7/7
f 7/7/7 13/13/13 17/17/17
f 17/17/17 13/13/13 15/15/15
f 14/14/14 10/10/10 16/16/16
f 10/10/10 9/9/9 16/16/16
f 16/16/16 9/9/9 18/18/18
f 9/9/9 10/10/10 11/11/11
f 6/6/6 56/56/56 64/64/64
f 6/6/6 55/55/55 56/56/56
f 14/14/14 8/8/8 5/5/5
f 8/8/8 12/12/12 5/5/5
f 129/129/129 40/40/40 21/21/21
f 129/129/129 42/42/42 40/40/40
f 41/41/41 42/42/42 129/129/129
f 4/4/4 23/23/23 20/20/20
f 19/19/19 23/23/23 4/4/4
f 27/27/27 28/28/28 29/29/29
f 29/29/29 28/28/28 30/30/30
f 31/31/31 44/44/44 33/33/33
f 33/33/33 44/44/44 82/82/82
f 44/44/44 46/46/46 82/82/82
f 32/32/32 67/67/67 35/35/35
f 70/70/70 67/67/67 32/32/32
f 72/72/72 47/47/47 69/69/69
f 69/69/69 47/47/47 48/48/48
f 48/48/48 47/47/47 49/49/49
f 49/49/49 47/47/47 71/71/71
f 74/74/74 58/58/58 73/73/73
f 73/73/73 58/58/58 77/77/77
f 78/78/78 73/73/73 77/77/77
f 75/75/75 73/73/73 78/78/78
f 78/78/78 68/68/68 75/75/75
f 60/60/60 68/68/68 78/78/78
f 60/60/60 78/78/78 59/59/59
f 59/59/59 78/78/78 76/76/76
f 58/58/58 79/79/79 77/77/77
f 77/77/77 79/79/79 61/61/61
f 61/61/61 78/78/78 77/77/77
f 76/76/76 78/78/78 61/61/61
f 79/79/79 63/63/63 61/61/61
f 62/62/62 63/63/63 79/79/79
f 124/124/124 45/45/45 43/43/43
f 43/43/43 45/45/45 22/22/22
f 22/22/22 126/126/126 43/43/43
f 39/39/39 126/126/126 22/22/22
f 39/39/39 127/127/127 126/126/126
f 126/126/126 127/127/127 128/128/128
f 85/85/85 84/84/84 86/86/86
f 93/93/93 84/84/84 85/85/85
f 104/104/104 111/111/111 94/94/94
f 104/104/104 110/110/110 111/111/111
f 113/113/113 110/110/110 104/104/104
f 110/110/110 113/113/113 96/96/96
f 116/116/116 100/100/100 95/95/95
f 116/116/116 114/114/114 100/100/100
f 123/123/123 114/114/114 116/116/116
f 125/125/125 114/114/114 123/123/123
f 125/125/125 123/123/123 121/121/121
f 123/123/123 98/98/98 121/121/121
f 97/97/97 112/112/112 99/99/99
f 109/109/109 112/112/112 97/97/97
f 108/108/108 102/102/102 101/101/101
f 107/107/107 102/102/102 108/108/108
f 143/143/143 144/144/144 146/146/146
f 145/145/145 143/143/143 146/146/146
f 139/139/139 143/143/143 145/145/145
f 138/138/138 135/135/135 137/137/137
f 134/134/134 135/135/135 138/138/138
f 132/132/132 148/148/148 136/136/136
f 136/136/136 148/148/148 36/36/36
f 148/148/148 147/147/147 36/36/36
f 149/149/149 151/151/151 150/150/150
f 151/151/151 153/153/153 150/150/150
f 24/24/24 1/1/1 152/152/152
f 1/1/1 3/3/3 152/152/152
f 26/26/26 2/2/2 117/117/117
f 2/2/2 26/26/26 25/25/25
f 24/24/24 2/2/2 25/25/25
f 36/36/36 24/24/24 25/25/25
f 25/25/25 154/154/154 36/36/36
f 36/36/36 154/154/154 37/37/37
f 36/36/36 37/37/37 38/38/38
f 25/25/25 26/26/26 154/154/154
f 89/89/89 88/88/88 103/103/103
f 88/88/88 89/89/89 118/118/118
f 118/118/118 106/106/106 88/88/88
f 115/115/115 106/106/106 118/118/118
f 115/115/115 118/118/118 87/87/87
f 87/87/87 118/118/118 119/119/119
f 119/119/119 122/122/122 87/87/87
f 89/89/89 103/103/103 105/105/105
f 120/120/120 89/89/89 105/105/105
f 89/89/89 120/120/120 119/119/119
f 118/118/118 89/89/89 119/119/119
f 120/120/120 122/122/122 119/119/119
f 234/234/234 216/216/216 215/215/215
f 157/157/157 217/217/217 218/218/218
f 158/158/158 235/235/235 155/155/155
f 306/306/306 307/307/307 305/305/305
f 308/308/308 296/296/296 293/293/293
f 205/205/205 182/182/182 185/185/185
f 185/185/185 182/182/182 177/177/177
f 220/220/220 178/178/178 174/174/174
f 174/174/174 178/178/178 159/159/159
f 206/206/206 207/207/207 166/166/166
f 166/166/166 207/207/207 169/169/169
f 169/169/169 165/165/165 166/166/166
f 164/164/164 165/165/165 169/169/169
f 169/169/169 170/170/170 164/164/164
f 168/168/168 170/170/170 169/169/169
f 168/168/168 167/167/167 170/170/170
f 207/207/207 163/163/163 169/169/169
f 169/169/169 163/163/163 168/168/168
f 163/163/163 160/160/160 168/168/168
f 160/160/160 167/167/167 168/168/168
f 167/167/167 160/160/160 161/161/161
f 209/209/209 212/212/212 208/208/208
f 209/209/209 221/221/221 212/212/212
f 163/163/163 210/210/210 219/219/219
f 210/210/210 211/211/211 219/219/219
f 302/302/302 196/196/196 162/162/162
f 302/302/302 303/303/303 196/196/196
f 301/301/301 303/303/303 302/302/302
f 173/173/173 171/171/171 172/172/172
f 176/176/176 171/171/171 173/173/173
f 240/240/240 239/239/239 183/183/183
f 266/266/266 239/239/239 240/240/240
f 184/184/184 199/199/199 198/198/198
f 198/198/198 199/199/199 201/201/201
f 199/199/199 156/156/156 201/201/201
f 188/188/188 189/189/189 186/186/186
f 190/190/190 189/189/189 188/188/188
f 223/223/223 233/233/233 187/187/187
f 214/214/214 233/233/233 223/223/223
f 233/233/233 214/214/214 231/231/231
f 231/231/231 214/214/214 232/232/232
f 232/232/232 214/214/214 213/213/213
f 213/213/213 214/214/214 203/203/203
f 203/203/203 204/204/204 213/213/213
f 202/202/202 204/204/204 203/203/203
f 223/223/223 224/224/224 214/214/214
f 214/214/214 224/224/224 203/203/203
f 224/224/224 202/202/202 203/203/203
f 227/227/227 202/202/202 224/224/224
f 225/225/225 229/229/229 222/222/222
f 222/222/222 229/229/229 226/226/226
f 226/226/226 229/229/229 228/228/228
f 228/228/228 229/229/229 230/230/230
f 241/241/241 285/285/285 200/200/200
f 200/200/200 285/285/285 175/175/175
f 175/175/175 195/195/195 200/200/200
f 197/197/197 195/195/195 175/175/175
f 197/197/197 290/290/290 195/195/195
f 195/195/195 290/290/290 194/194/194
f 253/253/253 249/249/249 265/265/265
f 252/252/252 249/249/249 253/253/253
f 252/252/252 253/253/253 254/254/254
f 276/276/276 273/273/273 263/263/263
f 276/276/276 274/274/274 273/273/273
f 275/275/275 274/274/274 276/276/276
f 274/274/274 275/275/275 271/271/271
f 245/245/245 270/270/270 264/264/264
f 245/245/245 244/244/244 270/270/270
f 287/287/287 244/244/244 245/245/245
f 288/288/288 244/244/244 287/287/287
f 288/288/288 287/287/287 289/289/289
f 287/287/287 260/260/260 289/289/289
f 268/268/268 261/261/261 267/267/267
f 262/262/262 261/261/261 268/268/268
f 258/258/258 257/257/257 259/259/259
f 256/256/256 257/257/257 258/258/258
f 297/297/297 304/304/304 300/300/300
f 299/299/299 297/297/297 300/300/300
f 298/298/298 297/297/297 299/299/299
f 292/292/292 294/294/294 291/291/291
f 295/295/295 294/294/294 292/292/292
f 284/284/284 310/310/310 309/309/309
f 309/309/309 310/310/310 250/250/250
f 310/310/310 283/283/283 250/250/250
f 282/282/282 280/280/280 281/281/281
f 280/280/280 279/279/279 281/281/281
f 247/247/247 180/180/180 311/311/311
f 180/180/180 181/181/181 311/311/311
f 191/191/191 192/192/192 193/193/193
f 192/192/192 191/191/191 248/248/248
f 247/247/247 192/192/192 248/248/248
f 250/250/250 247/247/247 248/248/248
f 248/248/248 179/179/179 250/250/250
f 250/250/250 179/179/179 251/251/251
f 250/250/250 251/251/251 246/246/246
f 248/248/248 191/191/191 179/179/179
f 277/277/277 243/243/243 269/269/269
f 243/243/243 277/277/277 236/236/236
f 236/236/236 272/272/272 243/243/243
f 242/242/242 272/272/272 236/236/236
f 242/242/242 236/236/236 278/278/278
f 278/278/278 236/236/236 237/237/237
f 237/237/237 238/238/238 278/278/278
f 277/277/277 269/269/269 255/255/255
f 286/286/286 277/277/277 255/255/255
f 277/277/277 286/286/286 237/237/237
f 236/236/236 277/277/277 237/237/237
f 286/286/286 238/238/238 237/237/237
