# Exported by s4extract — object_painting_lod01_g01
o object_painting_lod01_g01
v -0.341024 1.278520 0.044131
v -0.481658 0.749985 0.068058
v -0.341024 1.278520 0.044131
v -0.481963 1.419459 0.068058
v 0.341024 1.278520 0.044131
v 0.481963 1.419459 0.068058
v 0.000000 0.220228 0.044131
v 0.000000 0.078923 0.068058
v -0.562473 0.000000 0.068058
v -0.562473 0.000000 0.000000
v 0.000000 -0.001770 0.000000
v 0.481963 0.080510 0.068058
v 0.341024 1.278520 0.044131
v 0.340780 0.749985 0.044131
v 0.000000 0.220228 0.044131
v -0.341024 0.221449 0.044131
v 0.000000 0.078923 0.068058
v -0.481963 0.080510 0.068058
v 0.000000 -0.001770 0.068058
v -0.481658 0.749985 0.068058
v 0.341024 1.278520 0.044131
v 0.562473 0.000000 0.000000
v 0.481963 1.419459 0.068058
v 0.481963 0.080510 0.068058
v 0.000000 1.279741 0.020204
v -0.562107 0.749985 0.000000
v -0.341024 1.278520 0.020204
v 0.000000 0.749985 0.020204
v 0.000000 0.220228 0.020204
v -0.341024 0.221449 0.020204
v 0.562473 0.000000 0.000000
v 0.565281 0.375023 0.068058
v -0.562473 0.000000 0.000000
v -0.562473 0.000000 0.068058
v -0.562107 0.749985 0.000000
v 0.000000 1.501740 0.000000
v 0.000000 1.421046 0.068058
v 0.481658 0.749985 0.068058
v 0.000000 1.501740 0.068058
v -0.481963 1.419459 0.068058
v -0.562473 1.499969 0.000000
v -0.562473 1.499969 0.068058
v 0.000000 1.501740 0.068058
v -0.562473 1.499969 0.068058
v 0.341024 1.278520 0.020204
v 0.000000 1.279741 0.044131
v -0.341024 1.278520 0.020204
v 0.000000 1.279741 0.020204
v 0.562107 0.749985 0.068058
v 0.562107 0.749985 0.000000
v 0.000000 -0.001770 0.000000
v 0.562473 1.499969 0.068058
v 0.481963 1.419459 0.068058
v 0.562473 1.499969 0.068058
v -0.340780 0.749985 0.044131
v -0.341024 1.278520 0.044131
v -0.341024 0.221449 0.020204
v -0.562473 0.000000 0.000000
v -0.341024 0.221449 0.044131
v 0.341024 0.221449 0.044131
v 0.562473 0.000000 0.068058
v 0.565281 0.375023 0.000000
v -0.341024 0.221449 0.044131
v -0.481963 0.080510 0.068058
v 0.562473 1.499969 0.000000
v 0.562473 0.000000 0.000000
v 0.562107 0.749985 0.000000
v 0.341024 1.278520 0.020204
v 0.562473 1.499969 0.068058
v 0.562473 1.499969 0.000000
v 0.341024 0.221449 0.044131
v 0.481963 0.080510 0.068058
v 0.562473 0.000000 0.068058
v 0.565281 0.375023 0.068058
v 0.341024 1.278520 0.020204
v 0.341024 1.278520 0.044131
v 0.565281 0.375023 0.000000
v 0.562473 0.000000 0.068058
v 0.340780 0.749985 0.020204
v 0.341024 0.221449 0.020204
v 0.341024 0.221449 0.020204
v 0.340780 0.749985 0.044131
v -0.340780 0.749985 0.044131
v -0.562107 0.749985 0.068058
v -0.562473 0.000000 0.068058
v 0.562107 0.749985 0.068058
v -0.562473 1.499969 0.068058
v -0.341024 1.278520 0.020204
v -0.340780 0.749985 0.020204
v 0.340780 0.749985 0.020204
v -0.341024 1.278520 0.044131
v 0.341024 0.221449 0.044131
v 0.341024 0.221449 0.020204
v 0.341024 0.221449 0.044131
v -0.341024 0.221449 0.020204
v 0.000000 0.220228 0.020204
v 0.000000 1.421046 0.068058
v 0.000000 1.279741 0.044131
v 0.481658 0.749985 0.068058
v -0.481963 1.419459 0.068058
v -0.481963 0.080510 0.068058
v -0.341024 0.221449 0.044131
v -0.562107 0.749985 0.068058
v -0.340780 0.749985 0.020204
v -0.562473 1.499969 0.000000
v 0.000000 1.501740 0.000000
v 0.000000 -0.001770 0.068058
v 0.562473 1.499969 0.000000
v -0.562473 1.499969 0.000000
v 0.000000 0.749985 0.000000
vt 0.163775 0.836834
vt 0.057697 0.500058
vt 0.163775 0.836834
vt 0.057697 0.944038
vt 0.590918 0.836834
vt 0.696996 0.944038
vt 0.377362 0.163252
vt 0.377362 0.056048
vt 0.995560 0.003405
vt 0.756824 0.813237
vt 0.825757 0.813237
vt 0.696996 0.056048
vt 0.590918 0.836834
vt 0.590918 0.500058
vt 0.377362 0.163252
vt 0.163775 0.163252
vt 0.377362 0.056048
vt 0.057697 0.056048
vt 0.377362 0.002339
vt 0.057697 0.500058
vt 0.590918 0.836834
vt 0.804809 0.003405
vt 0.696996 0.944038
vt 0.696996 0.056048
vt 0.377362 0.826756
vt 0.954365 0.478532
vt 0.174218 0.826756
vt 0.377362 0.500058
vt 0.377362 0.173330
vt 0.174218 0.173330
vt 0.904188 0.953690
vt 0.945414 0.716111
vt 0.804809 0.716111
vt 0.846004 0.716111
vt 0.756824 0.905127
vt 0.825757 0.997016
vt 0.377362 0.944038
vt 0.696996 0.500058
vt 0.377362 0.997747
vt 0.057697 0.944038
vt 0.954365 0.953690
vt 0.995560 0.953690
vt 0.854773 0.359758
vt 0.854773 0.716111
vt 0.580475 0.826756
vt 0.377362 0.836834
vt 0.174218 0.826756
vt 0.377362 0.826756
vt 0.945414 0.478532
vt 0.904188 0.478532
vt 0.804809 0.359758
vt 0.945414 0.003405
vt 0.696996 0.944038
vt 0.750674 0.997747
vt 0.163775 0.500058
vt 0.163775 0.836834
vt 0.174218 0.173330
vt 0.954365 0.003405
vt 0.163775 0.163252
vt 0.590918 0.163252
vt 0.846004 0.003405
vt 0.894689 0.859182
vt 0.163775 0.163252
vt 0.057697 0.056048
vt 0.894689 0.997016
vt 0.894689 0.813237
vt 0.894689 0.905127
vt 0.580475 0.826756
vt 0.854773 0.003405
vt 0.895998 0.003405
vt 0.590918 0.163252
vt 0.696996 0.056048
vt 0.750674 0.002339
vt 0.750674 0.251214
vt 0.580475 0.826756
vt 0.590918 0.836834
vt 0.904188 0.716111
vt 0.945414 0.953690
vt 0.580475 0.500058
vt 0.580475 0.173330
vt 0.580475 0.173330
vt 0.590918 0.500058
vt 0.163775 0.500058
vt 0.004019 0.500058
vt 0.004019 0.002339
vt 0.750674 0.500058
vt 0.004019 0.997747
vt 0.174218 0.826756
vt 0.174218 0.500058
vt 0.580475 0.500058
vt 0.163775 0.836834
vt 0.590918 0.163252
vt 0.580475 0.173330
vt 0.590918 0.163252
vt 0.174218 0.173330
vt 0.377362 0.173330
vt 0.377362 0.944038
vt 0.377362 0.836834
vt 0.696996 0.500058
vt 0.057697 0.944038
vt 0.057697 0.056048
vt 0.163775 0.163252
vt 0.995560 0.478532
vt 0.174218 0.500058
vt 0.895998 0.716111
vt 0.895998 0.359758
vt 0.846004 0.359758
vt 0.904188 0.003405
vt 0.756824 0.997016
vt 0.825757 0.905127
vn 0.167448 0.000077 0.985881
vn 0.167448 -0.000000 0.985881
vn 0.000569 -0.166888 0.985976
vn 0.167450 0.000076 0.985881
vn -0.167448 0.000077 0.985881
vn -0.167450 0.000076 0.985881
vn 0.000000 0.166954 0.985965
vn -0.000000 0.166888 0.985976
vn -1.000000 0.000488 0.000000
vn 0.000000 0.000000 -1.000000
vn 0.000000 0.000000 -1.000000
vn 0.000000 0.000000 1.000000
vn -1.000000 0.000462 0.000000
vn -1.000000 -0.000154 0.000000
vn -0.001193 0.999999 0.000000
vn 0.003580 0.999994 0.000000
vn 0.000000 0.000000 1.000000
vn 0.000000 0.000000 1.000000
vn 0.000000 0.000000 1.000000
vn 0.000000 0.000000 1.000000
vn -0.000569 -0.166888 0.985976
vn 0.003147 -0.999995 0.000000
vn -0.000549 -0.166842 0.985984
vn -0.000549 0.166842 0.985984
vn 0.000000 0.000000 1.000000
vn -1.000000 0.000163 0.000000
vn 0.000000 0.000000 1.000000
vn 0.000000 0.000000 1.000000
vn 0.000000 0.000000 1.000000
vn 0.000000 0.000000 1.000000
vn 0.999972 -0.007487 0.000000
vn 1.000000 0.000488 0.000000
vn -0.003147 -0.999995 0.000000
vn -0.003147 -0.999995 0.000000
vn 0.000000 0.000000 -1.000000
vn 0.000000 0.000000 -1.000000
vn 0.000000 0.000000 1.000000
vn 0.000000 0.000000 1.000000
vn 0.000000 0.000000 1.000000
vn 0.000000 0.000000 1.000000
vn -1.000000 -0.000488 0.000000
vn -1.000000 -0.000488 0.000000
vn 0.001049 0.999999 0.000000
vn -0.003147 0.999995 0.000000
vn -1.000000 0.000462 0.000000
vn 0.000000 -1.000000 0.000000
vn 0.003580 -0.999994 0.000000
vn 0.000000 -1.000000 0.000000
vn 0.999992 0.003988 0.000000
vn 0.999999 0.001302 0.000000
vn 0.001049 -0.999999 0.000000
vn 1.000000 -0.000488 0.000000
vn 0.000000 0.000000 1.000000
vn 0.000000 0.000000 1.000000
vn 1.000000 -0.000154 0.000000
vn 1.000000 0.000462 0.000000
vn 1.000000 -0.000462 0.000000
vn -1.000000 0.000488 0.000000
vn 1.000000 -0.000462 0.000000
vn -1.000000 -0.000462 0.000000
vn 0.003147 -0.999995 0.000000
vn 0.000000 0.000000 -1.000000
vn 0.167448 -0.000077 0.985881
vn 0.167450 -0.000076 0.985881
vn 0.000000 0.000000 -1.000000
vn 0.000000 0.000000 -1.000000
vn 0.000000 0.000000 -1.000000
vn 0.000000 0.000000 1.000000
vn 0.003147 0.999995 0.000000
vn 0.003147 0.999995 0.000000
vn -0.167448 -0.000077 0.985881
vn -0.167450 -0.000076 0.985881
vn 0.000000 0.000000 1.000000
vn 0.000000 0.000000 1.000000
vn -0.003580 -0.999994 0.000000
vn -0.003580 -0.999994 0.000000
vn 1.000000 0.000488 0.000000
vn 0.999972 -0.007487 0.000000
vn 0.000000 0.000000 1.000000
vn -1.000000 -0.000462 0.000000
vn 0.000000 0.000000 1.000000
vn -0.167446 0.000000 0.985881
vn 0.167446 0.000000 0.985881
vn 0.000000 0.000000 1.000000
vn 0.000000 0.000000 1.000000
vn 0.000000 0.000000 1.000000
vn 0.000000 0.000000 1.000000
vn 1.000000 0.000462 0.000000
vn 1.000000 0.000154 0.000000
vn -1.000000 0.000154 0.000000
vn 0.003580 -0.999994 0.000000
vn -0.003580 0.999994 0.000000
vn -0.003580 0.999994 0.000000
vn -0.000569 0.166888 0.985976
vn 0.003580 0.999994 0.000000
vn 0.001193 0.999999 0.000000
vn -0.000000 -0.166888 0.985976
vn -0.000000 -0.166954 0.985965
vn -0.167448 0.000000 0.985881
vn 0.000549 -0.166842 0.985984
vn 0.000549 0.166842 0.985984
vn 0.000569 0.166888 0.985976
vn -1.000000 -0.000163 0.000000
vn 0.000000 0.000000 1.000000
vn -0.003147 0.999995 0.000000
vn -0.001049 0.999999 0.000000
vn -0.001049 -0.999999 0.000000
vn 1.000000 -0.000488 0.000000
vn 0.000000 0.000000 -1.000000
vn 0.000000 0.000000 -1.000000
f 97/97/97 21/21/21 23/23/23
f 98/98/98 21/21/21 97/97/97
f 97/97/97 3/3/3 98/98/98
f 100/100/100 3/3/3 97/97/97
f 76/76/76 46/46/46 75/75/75
f 75/75/75 46/46/46 48/48/48
f 46/46/46 47/47/47 48/48/48
f 91/91/91 47/47/47 46/46/46
f 93/93/93 15/15/15 92/92/92
f 96/96/96 15/15/15 93/93/93
f 96/96/96 16/16/16 15/15/15
f 95/95/95 16/16/16 96/96/96
f 94/94/94 8/8/8 24/24/24
f 7/7/7 8/8/8 94/94/94
f 102/102/102 8/8/8 7/7/7
f 101/101/101 8/8/8 102/102/102
f 61/61/61 51/51/51 22/22/22
f 107/107/107 51/51/51 61/61/61
f 107/107/107 33/33/33 51/51/51
f 34/34/34 33/33/33 107/107/107
f 66/66/66 11/11/11 62/62/62
f 11/11/11 110/110/110 62/62/62
f 62/62/62 110/110/110 67/67/67
f 67/67/67 110/110/110 65/65/65
f 65/65/65 110/110/110 36/36/36
f 110/110/110 109/109/109 36/36/36
f 35/35/35 109/109/109 110/110/110
f 110/110/110 10/10/10 35/35/35
f 11/11/11 10/10/10 110/110/110
f 70/70/70 43/43/43 69/69/69
f 106/106/106 43/43/43 70/70/70
f 106/106/106 44/44/44 43/43/43
f 105/105/105 44/44/44 106/106/106
f 60/60/60 14/14/14 80/80/80
f 80/80/80 14/14/14 90/90/90
f 14/14/14 13/13/13 90/90/90
f 90/90/90 13/13/13 45/45/45
f 57/57/57 55/55/55 59/59/59
f 89/89/89 55/55/55 57/57/57
f 89/89/89 56/56/56 55/55/55
f 88/88/88 56/56/56 89/89/89
f 63/63/63 2/2/2 64/64/64
f 83/83/83 2/2/2 63/63/63
f 1/1/1 2/2/2 83/83/83
f 4/4/4 2/2/2 1/1/1
f 9/9/9 26/26/26 58/58/58
f 103/103/103 26/26/26 9/9/9
f 103/103/103 41/41/41 26/26/26
f 42/42/42 41/41/41 103/103/103
f 99/99/99 71/71/71 72/72/72
f 82/82/82 71/71/71 99/99/99
f 99/99/99 5/5/5 82/82/82
f 6/6/6 5/5/5 99/99/99
f 31/31/31 77/77/77 78/78/78
f 78/78/78 77/77/77 32/32/32
f 32/32/32 77/77/77 49/49/49
f 49/49/49 77/77/77 50/50/50
f 50/50/50 52/52/52 49/49/49
f 108/108/108 52/52/52 50/50/50
f 53/53/53 39/39/39 37/37/37
f 54/54/54 39/39/39 53/53/53
f 54/54/54 53/53/53 86/86/86
f 86/86/86 53/53/53 38/38/38
f 38/38/38 74/74/74 86/86/86
f 12/12/12 74/74/74 38/38/38
f 73/73/73 74/74/74 12/12/12
f 12/12/12 19/19/19 73/73/73
f 17/17/17 19/19/19 12/12/12
f 18/18/18 19/19/19 17/17/17
f 85/85/85 19/19/19 18/18/18
f 18/18/18 84/84/84 85/85/85
f 20/20/20 84/84/84 18/18/18
f 40/40/40 84/84/84 20/20/20
f 87/87/87 84/84/84 40/40/40
f 87/87/87 40/40/40 39/39/39
f 39/39/39 40/40/40 37/37/37
f 28/28/28 68/68/68 25/25/25
f 79/79/79 68/68/68 28/28/28
f 28/28/28 81/81/81 79/79/79
f 29/29/29 81/81/81 28/28/28
f 28/28/28 30/30/30 29/29/29
f 104/104/104 30/30/30 28/28/28
f 104/104/104 28/28/28 27/27/27
f 27/27/27 28/28/28 25/25/25
