# Exported by s4extract — treeGCWBeech_01_lod01_g01
o treeGCWBeech_01_lod01_g01
v -0.005851 -0.052594 0.131502
v -0.028473 1.255910 0.086509
v 0.101015 -0.051514 0.088149
v -0.139933 -0.057968 -0.038513
v -0.143009 1.253920 0.037860
v -0.142709 2.635750 -0.039312
v -0.160954 2.634650 0.070958
v -0.081436 5.620360 -0.107498
v -0.115194 1.255410 -0.083438
v -0.055233 -0.058119 -0.129061
v 0.067272 -0.055920 -0.125157
v -0.015817 1.258030 -0.158315
v 0.090465 1.258640 0.049969
v 0.126457 -0.053063 -0.023041
v 0.075306 1.259260 -0.073557
v -0.112120 -0.055334 0.081564
v 0.055508 3.408170 0.077632
v -0.093789 5.458160 -0.071376
v -0.046572 2.636390 -0.096329
v -0.063504 2.634190 0.125702
v 0.041120 2.634660 0.086368
v 0.049169 3.406990 -0.029831
v -0.047405 3.405210 0.109278
v -0.121458 5.620150 -0.020311
v -0.045666 7.032890 -0.023828
v -0.673544 7.085420 -1.015940
v -0.693356 7.045380 -1.047730
v -0.309186 6.417730 -0.406511
v 0.039806 2.635760 -0.025393
v -0.200594 5.668950 -0.215400
v 0.027323 7.745600 -0.111899
v -0.276078 4.700990 0.432261
v -0.057906 7.218660 -0.035094
v -0.026134 7.338520 -0.057126
v -0.001245 7.727250 -0.134498
v -1.071280 7.557280 -1.460280
v -0.004857 7.751570 -0.121281
v -0.322053 6.394910 -0.456839
v -0.046171 6.945830 -0.047436
v -0.378919 6.392580 -0.453426
v -0.031027 7.307540 -0.084339
v -0.242708 4.734350 0.360578
v -0.134209 3.842680 0.055551
v -0.181286 5.480450 0.923592
v -0.348445 4.709630 0.402733
v -0.163921 5.511660 0.872961
v -0.351143 6.411930 -0.383474
v -0.129310 5.253290 -0.109640
v -0.129965 5.697360 -0.177498
v 0.054299 8.134420 -0.259329
v 0.024790 8.096480 -0.278033
v 0.014932 7.719140 -0.133112
v 0.016372 8.137130 -0.266229
v -0.001020 6.285720 -0.003620
v 0.113622 9.205060 -0.955903
v 0.037224 8.143640 -0.258004
v 0.138393 9.196580 -0.965778
v 0.114836 9.189470 -0.979112
v 0.047405 8.098800 -0.269623
v 0.160539 9.833380 -1.304350
v 0.161135 9.820410 -1.327690
v 0.183915 9.825850 -1.314840
v 0.167837 9.845830 -1.322590
v -0.083894 7.260210 0.018271
v 0.820726 6.794290 -0.424176
v 0.041731 3.870820 -0.044399
v -0.330562 4.746030 0.322017
v 1.194400 7.811990 -0.906194
v -0.036772 6.647410 1.504470
v 0.031204 4.435910 -0.079961
v 0.879049 6.792420 -0.379502
v -0.044765 4.054820 -0.104390
v 0.009766 7.761350 -0.109363
v -0.031576 7.564150 0.024571
v -0.094634 7.260810 -0.038892
v -0.058605 7.573670 0.005321
v 1.044490 7.361530 -0.601186
v 0.990894 7.360350 -0.640530
v -0.046794 7.573390 -0.028446
v -0.052924 7.261250 -0.000948
v -0.111348 7.259930 -0.007146
v -0.012853 7.563550 -0.027258
v -0.060439 7.261580 -0.035040
v 0.509200 9.713460 0.198411
v -0.002006 7.557330 0.006529
v 0.490329 9.713330 0.206385
v 0.463869 9.921920 0.220577
v 0.480877 9.927790 0.211803
v 0.506663 9.712200 0.218701
v 0.480141 9.925500 0.231677
v 0.013601 6.010900 -0.004372
v 0.013647 5.622060 -0.099402
v -0.119524 3.407530 -0.043892
v 0.065610 8.531440 0.648981
v -0.011201 6.477070 -0.003096
v -0.048489 5.621770 0.041858
v -0.118115 6.162280 -0.015959
v 0.050848 8.555870 0.611136
v 0.310377 9.061330 1.098380
v -0.056873 6.009760 0.036272
v 0.341329 9.044500 1.098130
v 0.021215 8.547970 0.647283
v 0.334636 9.069420 1.074140
v 0.344815 9.079870 1.118300
v -1.052300 7.596590 -1.428950
v -0.143618 3.406930 0.060971
v -0.088317 6.475600 -0.071730
v -0.123911 5.278120 -0.005713
v -0.024977 6.476820 -0.065847
v -0.643602 7.066180 -1.057640
v -0.147386 5.679850 -0.216126
v -0.029598 3.407320 -0.103105
v -1.024970 7.581530 -1.472690
v -0.053533 7.344450 -0.073158
v -1.071740 7.611920 -1.471250
v -0.093582 7.130050 -0.044361
v -0.041244 7.341490 -0.054660
v -0.092092 6.944880 -0.052105
v -0.049396 7.306850 -0.086992
v 1.191880 7.850310 -0.902728
v 1.193010 7.831500 -0.871135
v 0.047558 4.236130 0.046579
v 1.160380 7.829780 -0.894468
v 0.884865 6.767980 -0.448565
v 0.467924 9.943720 0.223255
v -0.052865 6.676490 1.549160
v 1.047920 7.333100 -0.661200
v -0.087277 6.640070 1.530890
v 0.051094 3.867870 0.060391
v -0.094537 4.859220 -0.085619
v 0.034243 5.622940 -0.005434
v -0.125737 5.023610 0.005148
v -0.036137 6.945730 -0.001812
v -0.116187 6.475040 -0.013448
v -0.113295 6.944130 -0.009682
v -0.077075 6.944670 0.022813
v -0.046389 5.354230 -0.131966
v -0.066947 6.475960 0.029561
v -0.194948 5.684580 -0.118571
v -0.050264 6.621680 1.562930
v -0.040737 3.739890 0.102475
v -0.221861 5.526810 0.857219
v -0.240578 5.495340 0.908421
vn 0.089239 0.032891 0.995467
vn -0.048168 0.002073 0.998837
vn 0.921218 0.030915 0.387818
vn -0.968876 -0.005133 -0.247494
vn -0.863019 -0.011120 0.505050
vn -0.804514 0.013644 -0.593777
vn -0.969506 -0.007494 0.244955
vn -0.469008 0.032205 -0.882606
vn -0.857785 -0.000997 -0.514009
vn -0.465801 -0.011543 -0.884814
vn 0.503758 0.010058 -0.863786
vn 0.097761 0.019505 -0.995019
vn 0.837741 0.025624 0.545466
vn 0.921631 0.031134 -0.386817
vn 0.907237 0.031023 -0.419473
vn -0.660617 0.010745 0.750646
vn 0.877666 0.001338 0.479271
vn -0.089244 0.695157 0.713297
vn 0.169157 0.031251 -0.985094
vn -0.201959 -0.011394 0.979328
vn 0.651440 0.000364 0.758700
vn 0.927448 -0.005688 -0.373909
vn 0.168222 -0.078771 0.982597
vn -0.953927 0.005091 0.299995
vn 0.995897 0.012203 0.089662
vn -0.275762 0.585613 0.762242
vn -0.694727 -0.675671 -0.246623
vn 0.853347 0.467967 0.229796
vn 0.931122 0.015753 -0.364368
vn -0.798916 -0.319643 -0.509473
vn 0.897058 0.024239 0.441248
vn 0.390530 -0.276732 0.878012
vn 0.889909 0.226929 0.395684
vn 0.959083 -0.063697 0.275868
vn -0.790682 -0.080390 -0.606926
vn -0.375841 -0.714817 -0.589729
vn -0.962811 0.141037 0.230442
vn 0.499262 -0.308855 -0.809535
vn 0.655475 0.019996 -0.754952
vn -0.940784 -0.337549 -0.031390
vn 0.921594 -0.110207 -0.372182
vn 0.806736 0.299757 -0.509237
vn -0.850569 0.177046 -0.495164
vn 0.482006 -0.490203 0.726203
vn -0.977696 -0.177046 0.112980
vn 0.861365 0.186308 -0.472588
vn -0.388131 0.388583 0.835678
vn -0.889478 -0.167747 -0.425076
vn 0.883476 0.330461 0.332064
vn 0.934002 0.125379 0.334546
vn -0.750007 -0.272112 -0.602864
vn 0.697008 -0.239062 -0.676039
vn -0.966887 0.175950 0.184854
vn 0.759068 0.165112 -0.629726
vn -0.700555 0.416146 0.579694
vn 0.116466 0.499822 0.858262
vn 0.998777 -0.036595 0.033252
vn -0.392488 -0.461377 -0.795666
vn 0.739551 -0.382211 -0.554057
vn -0.883455 0.282797 0.373541
vn 0.040738 -0.474128 -0.879513
vn 0.843687 0.224282 0.487739
vn 0.064261 0.872994 -0.483479
vn -0.216273 0.018557 0.976157
vn -0.510961 0.067950 -0.856914
vn 0.513156 -0.201977 -0.834192
vn -0.565567 0.369687 -0.737201
vn 0.909890 -0.361741 -0.203086
vn 0.973983 0.028526 -0.224817
vn -0.622939 0.782007 0.020312
vn 0.067086 0.167296 0.983622
vn -0.165057 -0.043924 -0.985305
vn -0.397612 0.267127 0.877808
vn -0.003411 -0.074946 0.997182
vn -0.624355 0.112458 -0.773004
vn -0.892982 0.176990 0.413833
vn 0.273481 0.320370 0.906957
vn -0.923437 0.185721 -0.335815
vn -0.500373 0.199215 -0.842580
vn 0.815792 -0.041199 0.576876
vn -0.956818 0.055030 0.285430
vn 0.413852 -0.004303 -0.910334
vn 0.629986 -0.072698 -0.773196
vn 0.817871 -0.137263 -0.558790
vn 0.938027 -0.237452 0.252433
vn -0.723369 0.240589 -0.647190
vn -0.827823 -0.053109 -0.558470
vn 0.884604 0.177623 -0.431191
vn 0.099784 -0.097318 0.990239
vn -0.069642 -0.039021 0.996809
vn 0.973430 -0.042127 0.225077
vn 0.759424 0.035011 -0.649653
vn -0.811247 0.007436 -0.584657
vn 0.670241 -0.257275 0.696122
vn 0.963483 0.050546 0.262956
vn 0.014380 0.033099 0.999349
vn -0.986983 -0.009125 0.160563
vn 0.539323 0.274376 -0.796146
vn -0.852709 0.521802 -0.024678
vn -0.297809 -0.184433 0.936640
vn 0.160290 -0.689429 0.706395
vn -0.931437 -0.042642 0.361395
vn 0.719552 0.221965 -0.658009
vn 0.381343 0.692247 0.612676
vn -0.507512 0.301877 0.807033
vn -0.842028 -0.134559 0.522381
vn -0.520936 0.031427 -0.853017
vn -0.885887 0.024503 0.463253
vn 0.589881 0.058078 -0.805399
vn 0.883729 0.143014 -0.445613
vn 0.509106 -0.130716 -0.850720
vn 0.278104 -0.009048 -0.960508
vn 0.850099 0.457824 -0.260247
vn -0.978954 0.150111 0.138256
vn -0.499012 0.674540 -0.544044
vn -0.888115 0.065233 -0.454969
vn -0.364260 0.178543 0.914022
vn -0.635315 0.000279 -0.772253
vn -0.306556 -0.057913 -0.950089
vn 0.282946 0.842823 -0.457812
vn -0.143895 0.540265 0.829101
vn 0.236262 0.161012 0.958256
vn -0.732196 -0.080276 -0.676346
vn 0.804800 -0.329562 -0.493646
vn -0.278238 0.955317 0.099762
vn 0.087316 0.904188 0.418114
vn 0.664133 -0.465525 -0.584991
vn -0.747409 0.417063 -0.517145
vn 0.879860 -0.148914 0.451299
vn -0.848543 -0.016945 -0.528855
vn 0.972579 0.024177 0.231312
vn -0.831108 0.014000 0.555934
vn 0.794049 0.040166 0.606526
vn -0.997668 0.006141 0.067978
vn -0.936471 0.002723 0.350734
vn -0.102631 0.012761 0.994638
vn 0.169021 -0.027843 -0.985219
vn -0.591961 0.357888 -0.722149
vn -0.697950 0.113939 0.707024
vn 0.064822 -0.471913 0.879259
vn 0.360071 0.090163 0.928558
vn -0.196185 0.551855 -0.810536
vn -0.924300 -0.087785 0.371433
f 1//1 2//2 16//16
f 2//2 1//1 13//13
f 13//13 21//21 2//2
f 20//20 2//2 21//21
f 2//2 20//20 5//5
f 5//5 16//16 2//2
f 16//16 5//5 4//4
f 9//9 4//4 5//5
f 4//4 9//9 10//10
f 3//3 13//13 1//1
f 13//13 3//3 15//15
f 15//15 29//29 13//13
f 21//21 13//13 29//29
f 29//29 17//17 21//21
f 17//17 23//23 21//21
f 21//21 23//23 20//20
f 23//23 106//106 20//20
f 20//20 106//106 7//7
f 7//7 5//5 20//20
f 5//5 7//7 9//9
f 14//14 15//15 3//3
f 15//15 14//14 12//12
f 12//12 19//19 15//15
f 29//29 15//15 19//19
f 112//112 29//29 19//19
f 22//22 29//29 112//112
f 22//22 17//17 29//29
f 17//17 22//22 129//129
f 141//141 17//17 129//129
f 17//17 141//141 23//23
f 11//11 12//12 14//14
f 10//10 12//12 11//11
f 12//12 10//10 9//9
f 9//9 6//6 12//12
f 19//19 12//12 6//6
f 93//93 19//19 6//6
f 112//112 19//19 93//93
f 93//93 72//72 112//112
f 66//66 112//112 72//72
f 22//22 112//112 66//66
f 129//129 22//22 66//66
f 6//6 9//9 7//7
f 106//106 6//6 7//7
f 93//93 6//6 106//106
f 106//106 45//45 93//93
f 45//45 43//43 93//93
f 43//43 130//130 93//93
f 130//130 72//72 93//93
f 130//130 137//137 72//72
f 72//72 137//137 70//70
f 70//70 65//65 72//72
f 72//72 65//65 66//66
f 45//45 106//106 32//32
f 32//32 44//44 45//45
f 143//143 45//45 44//44
f 45//45 143//143 67//67
f 67//67 43//43 45//45
f 23//23 32//32 106//106
f 141//141 32//32 23//23
f 42//42 32//32 141//141
f 42//42 46//46 32//32
f 44//44 32//32 46//46
f 46//46 69//69 44//44
f 140//140 44//44 69//69
f 44//44 140//140 143//143
f 128//128 143//143 140//140
f 143//143 128//128 142//142
f 142//142 67//67 143//143
f 43//43 42//42 141//141
f 67//67 42//42 43//43
f 67//67 142//142 42//42
f 46//46 42//42 142//142
f 142//142 128//128 46//46
f 69//69 46//46 128//128
f 128//128 126//126 69//69
f 69//69 126//126 140//140
f 126//126 128//128 140//140
f 141//141 132//132 43//43
f 132//132 130//130 43//43
f 130//130 132//132 48//48
f 48//48 137//137 130//130
f 96//96 132//132 141//141
f 96//96 108//108 132//132
f 48//48 132//132 108//108
f 108//108 139//139 48//48
f 48//48 139//139 30//30
f 30//30 137//137 48//48
f 141//141 122//122 96//96
f 96//96 122//122 131//131
f 91//91 96//96 131//131
f 100//100 96//96 91//91
f 100//100 24//24 96//96
f 96//96 24//24 108//108
f 24//24 18//18 108//108
f 139//139 108//108 18//18
f 141//141 129//129 122//122
f 129//129 71//71 122//122
f 122//122 71//71 70//70
f 122//122 70//70 131//131
f 131//131 70//70 92//92
f 92//92 91//91 131//131
f 71//71 129//129 124//124
f 124//124 127//127 71//71
f 77//77 71//71 127//127
f 71//71 77//77 65//65
f 65//65 70//70 71//71
f 66//66 124//124 129//129
f 124//124 66//66 65//65
f 65//65 78//78 124//124
f 127//127 124//124 78//78
f 78//78 123//123 127//127
f 68//68 127//127 123//123
f 127//127 68//68 77//77
f 121//121 77//77 68//68
f 77//77 121//121 78//78
f 78//78 65//65 77//77
f 123//123 78//78 121//121
f 121//121 120//120 123//123
f 120//120 68//68 123//123
f 68//68 120//120 121//121
f 137//137 92//92 70//70
f 8//8 92//92 137//137
f 8//8 109//109 92//92
f 92//92 109//109 91//91
f 91//91 109//109 54//54
f 54//54 98//98 91//91
f 94//94 91//91 98//98
f 91//91 94//94 100//100
f 8//8 137//137 18//18
f 8//8 18//18 24//24
f 97//97 8//8 24//24
f 107//107 8//8 97//97
f 107//107 109//109 8//8
f 107//107 39//39 109//109
f 39//39 95//95 109//109
f 109//109 95//95 54//54
f 49//49 18//18 137//137
f 139//139 18//18 49//49
f 49//49 47//47 139//139
f 139//139 47//47 30//30
f 49//49 137//137 111//111
f 49//49 111//111 38//38
f 28//28 49//49 38//38
f 28//28 47//47 49//49
f 28//28 110//110 47//47
f 26//26 47//47 110//110
f 47//47 26//26 40//40
f 30//30 47//47 40//40
f 111//111 137//137 30//30
f 111//111 30//30 38//38
f 38//38 30//30 40//40
f 40//40 27//27 38//38
f 110//110 38//38 27//27
f 38//38 110//110 28//28
f 27//27 40//40 26//26
f 26//26 105//105 27//27
f 36//36 27//27 105//105
f 27//27 36//36 110//110
f 110//110 36//36 113//113
f 110//110 113//113 26//26
f 105//105 26//26 113//113
f 113//113 115//115 105//105
f 105//105 115//115 36//36
f 113//113 36//36 115//115
f 97//97 24//24 100//100
f 100//100 102//102 97//97
f 102//102 138//138 97//97
f 138//138 134//134 97//97
f 97//97 134//134 107//107
f 134//134 118//118 107//107
f 118//118 39//39 107//107
f 102//102 100//100 94//94
f 94//94 101//101 102//102
f 99//99 102//102 101//101
f 102//102 99//99 98//98
f 98//98 138//138 102//102
f 101//101 94//94 103//103
f 103//103 104//104 101//101
f 104//104 99//99 101//101
f 99//99 104//104 103//103
f 103//103 98//98 99//99
f 98//98 103//103 94//94
f 54//54 138//138 98//98
f 95//95 138//138 54//54
f 133//133 138//138 95//95
f 136//136 138//138 133//133
f 136//136 135//135 138//138
f 138//138 135//135 134//134
f 135//135 118//118 134//134
f 133//133 95//95 39//39
f 39//39 25//25 133//133
f 25//25 80//80 133//133
f 133//133 80//80 136//136
f 136//136 80//80 64//64
f 81//81 136//136 64//64
f 135//135 136//136 81//81
f 116//116 135//135 81//81
f 118//118 135//135 116//116
f 116//116 119//119 118//118
f 119//119 39//39 118//118
f 39//39 41//41 25//25
f 34//34 25//25 41//41
f 25//25 34//34 33//33
f 33//33 80//80 25//25
f 80//80 33//33 83//83
f 80//80 83//83 85//85
f 74//74 80//80 85//85
f 64//64 80//80 74//74
f 41//41 39//39 119//119
f 119//119 52//52 41//41
f 52//52 34//34 41//41
f 31//31 34//34 52//52
f 31//31 117//117 34//34
f 117//117 33//33 34//34
f 117//117 116//116 33//33
f 116//116 75//75 33//33
f 33//33 75//75 83//83
f 75//75 79//79 83//83
f 83//83 79//79 82//82
f 85//85 83//83 82//82
f 35//35 52//52 119//119
f 35//35 51//51 52//52
f 59//59 52//52 51//51
f 52//52 59//59 31//31
f 50//50 31//31 59//59
f 50//50 56//56 31//31
f 73//73 31//31 56//56
f 73//73 117//117 31//31
f 114//114 35//35 119//119
f 37//37 35//35 114//114
f 37//37 53//53 35//35
f 51//51 35//35 53//53
f 53//53 55//55 51//51
f 58//58 51//51 55//55
f 51//51 58//58 59//59
f 57//57 59//59 58//58
f 59//59 57//57 50//50
f 50//50 57//57 56//56
f 114//114 119//119 116//116
f 116//116 117//117 114//114
f 73//73 114//114 117//117
f 37//37 114//114 73//73
f 37//37 73//73 53//53
f 56//56 53//53 73//73
f 56//56 55//55 53//53
f 55//55 56//56 57//57
f 57//57 62//62 55//55
f 60//60 55//55 62//62
f 55//55 60//60 58//58
f 61//61 58//58 60//60
f 58//58 61//61 57//57
f 62//62 57//57 61//61
f 63//63 62//62 61//61
f 62//62 63//63 60//60
f 60//60 63//63 61//61
f 116//116 81//81 75//75
f 81//81 76//76 75//75
f 75//75 76//76 79//79
f 76//76 86//86 79//79
f 79//79 86//86 82//82
f 84//84 82//82 86//86
f 82//82 84//84 85//85
f 81//81 64//64 76//76
f 76//76 64//64 74//74
f 74//74 89//89 76//76
f 86//86 76//76 89//89
f 89//89 90//90 86//86
f 87//87 86//86 90//90
f 86//86 87//87 84//84
f 88//88 84//84 87//87
f 84//84 88//88 89//89
f 89//89 85//85 84//84
f 85//85 89//89 74//74
f 90//90 89//89 88//88
f 125//125 90//90 88//88
f 90//90 125//125 87//87
f 87//87 125//125 88//88
