# Exported by s4extract — treeAFPOak_01_lod01_g00
o treeAFPOak_01_lod01_g00
v 1.026030 4.236760 -0.452795
v 2.219410 4.894450 3.750400
v 1.104660 3.920360 -0.224432
v 0.760727 3.729490 -0.857312
v 0.427709 3.706110 -0.740392
v 1.230130 3.597750 -0.760765
v 1.070790 3.834510 -0.998930
v 1.365420 3.909270 -1.202700
v 1.381370 4.250290 -1.060860
v 2.203010 4.331560 -1.685890
v 3.134180 4.292420 -1.963650
v 3.951910 4.416480 -2.081950
v 4.082940 4.208330 -1.880870
v 4.945000 4.809760 -2.556820
v 4.833090 4.770710 -2.792770
v 4.998620 6.699410 -3.553780
v 5.239650 6.708650 -3.487790
v 5.273550 7.872820 -5.702420
v 5.433080 7.884660 -5.707440
v -1.187420 7.083120 -2.182850
v -0.759473 6.635150 -1.848860
v -1.655890 7.724380 -2.289480
v -1.907140 8.536060 -2.967870
v -2.282880 8.292580 -3.337870
v -2.301010 8.474760 -3.072630
v -2.510110 9.084710 -3.810650
v -2.759620 9.198430 -4.004480
v 0.462359 3.382600 -0.639300
v 0.692106 2.848710 -0.338646
v 0.925002 3.354610 -0.624369
v 0.722175 3.472730 -0.094044
v 0.724568 4.189110 -0.309095
v 1.091130 3.493620 -0.304369
v 0.734560 3.822640 -0.085094
v 0.836742 4.163390 -0.809267
v 1.111510 4.219150 -0.923836
v 2.379130 4.446310 -1.442600
v 3.198410 4.150500 -1.802900
v 4.215600 3.942300 -2.014360
v 4.603700 4.890690 -2.862790
v 5.316660 6.541580 -3.621170
v 5.352990 7.750480 -5.755260
v -1.314830 7.321190 -1.921970
v -1.664940 8.103550 -2.938340
v -2.442650 8.987370 -3.612370
v -2.874840 8.847950 -3.895120
v -3.889520 9.713310 -4.126240
v 1.444030 3.649480 -0.469335
v 1.461150 4.046510 -0.365403
v 1.299600 4.312400 -0.601047
v 0.545942 4.149000 -0.705800
v 1.579410 4.392870 -0.783606
v 2.548660 4.227810 -1.228200
v 3.182110 3.937820 -1.859160
v 4.112390 4.030080 -2.285670
v 4.849780 5.890630 -2.706260
v 5.080510 6.488610 -3.717830
v -1.313860 7.974180 -2.491600
v -0.886994 6.905130 -1.653730
v -1.959900 7.873190 -2.935870
v -2.297370 8.803860 -3.735720
v -2.690220 8.953870 -4.074720
v -4.046080 9.511080 -3.807500
v -5.773310 11.514600 -5.428490
v -2.392290 8.969590 -3.909100
v 1.555970 3.692050 -0.976389
v 1.803870 3.735820 -0.682448
v 1.803630 4.137290 -0.568624
v 2.483830 3.900100 -1.318830
v 3.130460 3.798310 -2.069700
v 3.993090 4.253450 -2.334780
v 5.145290 5.901410 -2.596340
v 5.161310 7.374290 -4.579060
v -0.969226 7.665990 -2.297120
v -1.605980 8.210470 -2.688310
v -2.054190 8.110970 -2.610370
v -2.616900 8.600420 -3.831330
v -2.775760 8.961780 -3.680260
v -5.321280 10.328100 -4.422950
v -5.706490 11.501000 -5.576780
v -2.557930 9.001340 -4.055350
v -1.419050 11.790200 -3.955150
v -3.863280 13.906200 -2.760670
v 2.139960 4.006080 -1.833040
v 2.317390 3.710670 -1.608480
v 3.059100 4.008020 -2.206950
v 4.529910 5.034930 -2.613230
v 5.256370 5.703530 -2.815640
v 5.412690 7.367260 -4.555380
v -0.906932 7.372000 -2.324960
v -1.307690 7.729990 -2.591170
v -2.172040 8.799460 -3.258830
v -2.585900 8.830420 -3.533870
v -3.916320 9.867960 -3.735800
v -5.194510 10.196600 -4.710330
v -5.844030 11.433900 -5.546320
v -1.769970 10.152600 -4.070370
v -1.755040 11.737100 -4.006970
v -3.913250 13.827400 -2.819070
v -0.625627 6.541550 2.181920
v 3.065940 4.237450 -2.176500
v 4.755730 4.989230 -2.404000
v 4.937130 5.670960 -2.975890
v 5.298160 7.175600 -4.689830
v -0.419360 6.953880 -2.069620
v -1.549120 7.546890 -2.520920
v -1.979960 8.457770 -3.321610
v -2.631210 9.119830 -3.797190
v -5.464810 10.056300 -4.562520
v -6.301110 12.388000 -5.139760
v -1.540720 10.089000 -4.425670
v -3.917960 13.821400 -2.703250
v -2.369010 13.026100 -3.151020
v -1.025320 12.377000 -1.129350
v -0.976962 12.427100 -0.839253
v -1.212990 12.466200 -0.911202
v -1.531270 11.632300 5.335270
v -1.695500 11.839600 5.271350
v -2.004310 9.322270 4.079720
v -1.898150 8.777010 4.353010
v -2.203440 11.082000 8.122650
v -2.045000 8.723460 4.440990
v -1.606010 9.849530 7.427320
v -2.117930 8.731850 4.160150
v -2.038730 10.642200 4.360940
v -0.767220 12.399100 6.451900
v -0.732611 7.895390 -1.905460
v -0.468518 7.703240 -1.675870
v -6.352920 12.344900 -5.234290
v -6.260090 12.402500 -5.247380
v -1.934350 10.205100 -4.407890
v -1.102400 10.950200 -0.505846
v -0.826424 11.017400 -0.462145
v -0.795473 12.524300 8.072900
v -1.432280 11.818200 5.135330
v -2.079270 10.517000 4.700810
v -2.341410 10.640600 4.527050
v -0.927639 12.413500 6.495120
v -0.776937 7.607620 -2.085960
v -1.616570 11.642100 -3.713050
v -0.527147 10.019900 -0.361657
v -0.906520 10.962100 -0.738102
v -0.300006 10.075000 -0.704059
v -0.607354 8.348950 -0.994751
v -0.861563 12.645900 8.089040
v -0.723092 12.634700 8.073720
v -0.840872 12.261900 6.532970
v -1.015090 7.799080 -1.638100
v -0.535315 7.230400 -1.962940
v -0.687326 9.969010 -0.613312
v -0.322086 10.112100 -0.551519
v -0.232988 9.619240 -0.695786
v -0.868652 8.496060 -1.201710
v -0.868011 7.140580 -1.651910
v -0.748747 7.609670 -1.414010
v -1.111580 7.518380 -1.773980
v -0.656462 8.241690 -1.677290
v 1.333540 12.239700 2.360580
v -0.477722 10.060000 -0.746553
v 1.133430 12.305000 2.240640
v -0.470916 9.668060 -0.351517
v -0.593028 8.583870 -1.454000
v -0.371171 8.064550 -1.452380
v -0.673808 7.955090 -1.194350
v -0.958610 8.160270 -1.416620
v 0.489846 10.461700 -0.098729
v 1.167930 13.989500 2.620700
v 1.359460 12.390400 2.148100
v 0.281172 10.654800 -0.046443
v -0.708056 9.687170 -0.691433
v -0.453734 9.840100 -0.853224
v -0.308785 8.444980 -1.210770
v -0.473022 10.145100 -0.517430
v 1.311820 11.428600 0.829012
v 1.032590 14.006300 2.673640
v 1.145070 13.981100 2.773260
v 1.283470 11.179400 0.991071
v 0.476278 10.695800 -0.277059
v -0.187447 9.879740 -0.585895
v -0.359697 9.920210 -0.353122
v -0.389392 10.130300 -0.447406
v 1.074010 11.312400 0.968494
v -2.262680 13.119200 -3.084210
v -2.335350 13.001800 -2.997060
v -0.679499 7.253480 2.012620
v -0.499462 6.376300 1.946810
v -1.031820 6.988110 2.120030
v -0.807106 6.911410 2.614370
v -1.676100 8.544230 4.019140
v -1.921740 8.744430 4.513900
v -1.460130 8.908350 4.832320
v -1.103330 9.846270 5.889850
v -2.363530 11.081200 8.072920
v -2.434690 9.245850 4.291600
v -0.215151 13.773200 -1.544060
v -0.815964 6.644530 1.573950
v -0.947833 6.820000 1.839400
v -0.648870 7.141190 1.843110
v -0.383289 7.088400 2.451730
v -0.732038 6.699850 2.420660
v -0.454995 7.195690 2.587400
v -1.891180 8.324860 4.008610
v -1.828750 8.642940 4.568710
v -1.408630 9.691910 5.918400
v -2.324070 11.030000 8.240290
v -2.054980 9.241000 4.498720
v -0.376637 13.903800 -1.389510
v -0.715171 7.365060 2.160140
v -0.375818 6.999120 2.352270
v -0.399737 7.152360 2.529550
v -0.974751 7.859570 3.039840
v -1.778630 8.220480 4.283850
v -1.823530 9.141340 4.828260
v -1.145360 9.503290 6.002360
v -1.836660 8.871760 4.085740
v -0.209114 13.765400 -1.282230
v 1.030540 14.970900 -1.112460
v -1.113450 7.155680 2.406870
v -0.764514 7.481960 2.333240
v -1.354540 7.510660 3.080690
v -1.581030 8.369710 4.194440
v -1.611510 8.680040 4.454810
v -1.517430 10.103900 7.323670
v 1.142690 14.906700 -1.175850
v -1.939620 8.837780 4.379740
v 1.099590 14.858900 -1.037410
v -0.706196 7.600440 3.378240
v -1.062040 7.274590 3.406710
v -1.645110 8.870950 4.245120
v -1.417330 9.277300 4.610400
v -1.762260 9.976780 7.240820
v 2.296600 4.025920 3.027830
v 1.909940 4.249050 3.118760
v 2.585480 4.143280 3.433580
v 3.071170 4.560360 3.573450
v 3.223980 4.936380 4.160850
v 3.622350 6.210730 5.538180
v 3.574910 6.184500 5.725820
v 3.772140 6.134670 5.659950
v 4.314390 7.067110 5.664140
v 5.193180 7.779350 5.469720
v 2.211920 4.314820 3.611320
v 5.201460 7.810650 5.590060
v 1.968920 4.950030 3.436630
v 1.750990 4.826740 3.709020
v 1.943060 4.795430 3.978980
v 2.764790 4.497870 3.902230
v 2.967570 4.265440 3.736250
v 2.879920 4.800920 3.756360
v 2.454150 4.677030 3.416250
v 2.383820 4.394610 2.859560
v 2.657930 4.445950 3.270640
v 2.340560 4.379220 3.620670
v 3.122520 4.564520 4.251820
v 4.236820 7.158380 5.564780
v 5.271580 7.711730 5.544950
v 3.734150 5.237980 5.129280
v 3.400270 5.228850 5.195330
v 3.486230 5.465030 5.010740
v 3.452860 4.598140 4.069810
v 4.232970 7.192960 5.729880
v 2.143730 4.680850 3.277510
v 1.952170 4.429050 3.414870
v 0.217901 3.430040 0.922029
v 0.289149 3.992730 0.590881
v 0.184410 3.134530 0.584531
v 0.385206 3.572030 1.234520
v 0.853822 3.336920 1.024910
v 0.869511 4.200370 1.409100
v 0.768023 3.835940 1.663280
v 1.173210 3.566290 1.469950
v 1.731320 4.272490 2.026370
v 1.685440 3.988400 2.148630
v 2.102040 4.632000 3.052700
v 0.610882 3.767380 0.277018
v 0.537564 4.096540 1.018850
v 0.696400 3.389040 0.217962
v 0.801266 3.693420 0.513247
v 0.053447 3.487120 0.526136
v 0.655382 2.925810 0.435804
v 0.728675 3.167650 0.748028
v 0.954929 3.808570 0.752999
v 1.226040 4.011560 1.206420
v 1.100900 3.923720 1.006260
v 1.054380 3.469000 1.316230
v 0.599565 3.726950 1.490290
v 0.678350 4.148650 1.203070
v 1.509530 4.487800 2.166750
v 1.406240 4.147520 2.323030
v -1.967310 4.619950 -1.180960
v -1.755940 4.792880 -0.945065
v -2.344980 4.576130 -0.682487
v -2.767630 6.713140 -0.570236
v -2.894540 6.832790 -0.941672
v -3.729830 7.106610 0.015734
v -4.345640 7.887780 0.819262
v -4.504210 8.036730 0.544484
v -5.382310 8.195790 1.534700
v -5.525940 8.271670 1.316290
v 0.413004 4.040320 0.820652
v -6.568720 8.621310 1.851010
v -6.542130 8.391550 1.929980
v -2.728990 5.633890 -1.070560
v -2.598560 5.696940 -0.768644
v -2.579620 5.727540 -1.353240
v -2.245840 5.894710 -1.248190
v -2.253040 4.531540 -0.995565
v -2.268050 5.865780 -0.846834
v -2.120550 4.744310 -0.485548
v -3.229520 6.592900 -0.942158
v -4.712340 7.760900 0.461751
v -5.521210 8.004290 1.415710
v -3.832550 7.307110 -0.292930
v -3.618710 7.528740 -0.251983
v -3.454130 7.424330 0.050368
v -3.143980 6.413480 -0.496347
v -4.531740 7.609470 0.724365
v -6.456790 8.562340 2.065240
v 0.789776 1.587990 -0.411597
v 0.555113 1.856540 -0.462046
v 0.849980 1.426750 -0.377139
v 0.664908 1.256010 -0.707090
v 0.568855 1.132420 -0.637592
v 0.780413 1.689860 -0.613397
v 0.924254 1.580540 -0.461330
v 0.616219 0.914462 -0.418131
v 0.735589 1.139490 -0.541228
v 0.721687 1.140920 -0.299877
v 0.833661 1.270370 -0.420265
v 0.689587 1.644460 -0.301218
v 0.805322 1.290280 -0.221867
v 0.760790 1.476140 -0.249208
v 0.600241 1.406250 -0.726041
v 0.983295 1.351340 -0.479809
v 1.092580 1.631130 -0.606028
v 0.477190 1.593780 -0.589111
v 0.602319 1.561180 -0.666639
v 0.437881 1.443220 -0.662197
v 0.484361 1.275580 -0.694179
v 0.888043 1.237330 -0.662320
v 1.118460 1.413140 -0.600011
v 0.978212 1.481600 -0.882964
v -0.332376 3.879820 -0.716354
v 0.980439 1.734350 -0.755165
v 0.694500 1.560270 -0.789759
v 0.742455 1.330100 -0.824085
v 1.063410 1.317170 -0.789212
v -0.779127 4.393760 -0.452455
v -0.680001 3.584220 -0.869555
v -0.929190 4.294960 -0.513921
v -0.582922 3.826860 0.050820
v -2.205420 4.714900 -0.691508
v -2.143260 4.829320 -0.426051
v -2.249890 4.755780 -0.751634
v -0.883798 3.478730 -0.111852
v -0.600040 4.020730 -0.837270
v -0.575682 4.476620 -0.358075
v -0.329025 3.406650 -0.718479
v -0.852653 4.141670 -0.893648
v -2.338500 4.433940 -0.897615
v -0.576938 2.856860 -0.394439
v -0.875578 3.136000 -0.569967
v -3.355390 4.920300 -0.063770
v -2.120400 4.549660 -0.215094
v -2.154940 4.410450 -0.750805
v -2.203240 4.338230 -0.708368
v -3.401940 4.815210 -0.446814
v -4.439830 4.876550 -0.174595
v -2.195560 4.232990 -0.318074
v -2.291780 4.205850 -0.630592
v -3.416070 4.434870 -0.434525
v -4.329670 4.726540 -0.537830
v -3.347280 4.588890 0.105198
v -3.374950 4.368030 -0.117693
v -4.603960 4.485390 0.032271
v -4.445850 4.338470 -0.404950
v -5.239270 5.089670 -0.690883
v -5.531610 4.785140 -0.713371
v -5.367490 4.736650 -1.056390
v -5.156550 4.963460 -1.018180
v -0.812351 3.932490 -0.115692
v -0.560242 3.343670 0.060304
v -0.984431 3.761300 -0.929011
v -1.126020 4.263920 -0.903652
v -1.655160 4.547460 -0.882774
v -1.098200 4.358200 -0.557613
v -1.023340 4.050660 -0.191472
v -1.149870 3.666340 -0.279413
v -1.165190 3.467210 -0.672594
v -1.294370 3.965050 -0.944712
v -1.624480 4.667530 -0.568894
v -1.245580 4.162820 -0.303526
v -1.397370 3.883850 -0.409338
v -1.491690 3.731910 -0.732975
v -1.811180 4.281490 -0.984629
v -5.715320 6.000440 -0.823424
v -1.717600 4.424580 -0.330344
v -1.845600 4.160460 -0.435863
v -1.925060 4.080310 -0.727055
v -5.675820 6.079610 -1.163350
v -6.486860 6.867150 -0.452032
v -6.008220 5.824930 -0.923731
v -5.983720 5.921240 -1.279870
v -6.698010 6.763710 -0.578621
v -6.561080 6.995640 -0.688919
v -7.283950 7.499300 0.175039
v -7.450990 7.399320 0.041278
v -1.811890 4.862580 -0.606854
v -7.372350 7.623470 -0.029395
v -0.756442 1.420610 -0.157725
v -1.366260 8.350390 -1.782650
v -0.778638 1.284040 -0.249991
v -0.754344 0.835236 -0.184312
v -0.936967 1.017400 -0.037782
v -0.845105 0.845151 0.014520
v -0.890618 1.026170 -0.197050
v -0.603131 1.107680 -0.369498
v -0.665176 0.955231 -0.295028
v -0.596828 1.443010 -0.193595
v -0.820114 1.152700 -0.267974
v -0.593002 1.264170 -0.285264
v -0.911149 1.074730 0.089296
v -0.803376 1.333610 0.118710
v -0.694442 1.051930 0.243516
v -0.835733 1.184230 0.170737
v -0.804828 0.935604 0.164235
v -0.646812 1.200060 0.236986
v -0.884171 1.467530 -0.149447
v -0.646161 1.620610 0.013962
v -0.795400 1.459910 0.008959
v -0.691691 1.396010 0.154705
v -0.972513 1.314730 -0.289771
v -0.989438 1.266550 0.162010
v -1.080460 1.108620 0.029628
v -1.070160 1.135850 -0.192255
v -1.097160 1.560480 -0.127298
v -0.889730 1.448760 0.073528
v -1.228300 1.227120 -0.170515
v -1.190370 1.421980 -0.257285
v 0.077404 2.112060 0.865310
v 0.060320 2.174500 0.735690
v 0.300279 2.250580 0.706749
v 0.274913 2.184960 0.828628
v 0.033188 1.790340 0.932866
v 0.177204 1.491700 0.823328
v 0.221315 1.700780 0.942640
v -0.029378 1.650370 0.783201
v 0.352303 1.675740 0.801014
v 0.354915 1.839980 0.908312
v 0.430637 1.856980 0.772792
v 0.277699 2.192300 0.920402
v 0.382038 2.017260 0.744217
v 0.375697 2.001760 0.862927
v 0.037199 2.117590 0.993689
v 0.282013 1.790970 1.093500
v 0.033092 1.882110 1.096380
v 0.335897 2.302590 1.264590
v 0.426399 1.982630 0.985917
v 0.090919 2.196520 1.214160
v 0.510261 2.175470 1.474300
v 0.362357 1.985010 1.528750
v 0.089712 1.973900 1.296360
v -1.088030 1.534300 0.080427
v -1.153590 1.349980 0.162550
v -1.218700 1.192550 0.036064
v 0.681262 1.707870 -0.543917
v -0.112537 1.828910 0.793579
v -0.064213 2.022970 0.770552
v -0.004552 1.963730 0.907494
v -0.091825 8.809840 2.965980
v -0.081920 9.015910 2.735530
v 0.363777 8.540660 3.054820
v 0.375392 9.517760 3.415770
v 0.651517 9.613170 3.476580
v 0.318168 4.345750 -1.005530
v 0.101939 4.312650 -1.046350
v -0.118234 4.733630 -0.178352
v 0.236680 9.661550 3.302300
v 0.181680 9.626220 3.040060
v 0.332211 9.640910 2.864510
v 0.644119 9.877150 2.942960
v 0.096141 8.627390 3.094300
v 0.787948 9.633820 3.016150
v 0.846314 9.653120 3.309810
v 0.471309 9.410160 3.086140
v -0.092081 4.347240 -0.954363
v 0.104449 4.759510 -0.152729
v 0.500844 4.412770 -0.892907
v 0.684928 4.503990 -0.732030
v 0.719414 4.628000 -0.488014
v 0.596063 4.735040 -0.259398
v -0.205910 4.412490 -0.810466
v 0.359910 4.786020 -0.129680
v -0.158733 5.337900 -1.580530
v 0.096063 5.775120 -0.781908
v -0.248054 4.646390 -0.337624
v -0.233662 4.555820 -0.520491
v -0.221010 4.488840 -0.655966
v 0.357209 5.779930 -0.910672
v -0.443347 5.378100 -1.424120
v 0.048291 6.717150 -1.341120
v -0.477389 6.217580 -1.823440
v 0.123826 5.444960 -1.546350
v 0.305548 5.556770 -1.390490
v 0.424411 5.621620 -1.152210
v -0.514144 5.462230 -1.114060
v 0.110984 6.544850 -1.585790
v -0.673616 6.276490 -1.599670
v -0.365316 7.469580 -1.621230
v -0.186159 5.772970 -0.752083
v -0.440107 5.664740 -0.878439
v 0.046850 6.362700 -1.790120
v -0.616767 6.331640 -1.299450
v -0.280910 7.363730 -1.958340
v -0.938325 7.024580 -1.707530
v -0.172087 6.202670 -1.849180
v -0.154514 6.586460 -1.123060
v -0.394363 6.403330 -1.106740
v -0.527805 7.247740 -2.178740
v -0.924033 7.223200 -1.479170
v -1.226340 8.199580 -2.390620
v -0.937178 6.991270 -1.961910
v -0.769073 7.062630 -2.184860
v -0.652718 7.376410 -1.455560
v -1.423660 8.007040 -2.411410
v -1.201170 8.476840 -2.237430
v -1.147030 8.405480 -1.939030
v -1.684760 7.994250 -2.254100
v -1.662320 8.306980 -1.814430
v -1.685870 7.989040 -1.956810
v 0.405470 4.644470 0.135297
v 0.404120 4.798760 -0.065270
v 0.114195 4.788760 -0.068085
v -0.551867 4.056740 -0.631434
v -0.576252 4.607430 -0.289811
v -0.554794 4.432140 -0.598872
v -0.375111 4.732550 -0.414628
v 0.139477 4.812140 -0.255291
v -0.338100 4.688750 -0.413886
v -0.108558 4.801620 -0.387510
v -0.675156 4.485470 -0.108157
v -0.384641 4.185110 0.668983
v -0.578756 4.219830 0.480044
v -0.618119 4.319760 0.256860
v -0.642746 4.396910 0.088118
v -0.116557 4.253560 0.698290
v -0.142544 5.730750 0.457932
v 0.060744 5.547200 0.655075
v 0.070716 5.390730 0.985936
v 0.194046 4.342530 0.713006
v -0.423141 5.808920 0.297122
v -1.099700 5.346010 0.810815
v -1.088320 5.598560 0.493932
v -0.797317 5.752070 0.258072
v -0.218318 5.243410 1.145160
v -0.549672 5.196070 1.250180
v -0.782423 6.540650 0.985344
v -0.438735 7.325300 1.492190
v -0.546772 5.905840 1.621740
v 0.110055 6.165370 1.473430
v -0.839209 6.109730 1.524730
v -0.947429 6.398180 1.294850
v -0.664005 7.171040 1.721180
v -0.097282 6.742650 2.223880
v -0.475158 6.823460 2.254430
v -0.643544 6.951410 1.951740
v 0.311045 7.643160 2.454590
v 0.104559 8.045190 2.019400
v 0.319104 7.821060 2.165360
v -0.517904 8.006290 2.234170
v -0.241315 8.096190 2.007950
v -0.514228 7.847370 2.571500
v -0.903580 5.236200 1.134470
v 0.063546 6.310120 1.133910
v -0.457701 6.474360 0.809537
v -0.127383 6.432820 0.876768
v -0.179465 5.934860 1.620650
v -0.063220 7.287540 1.467120
v 0.255926 7.019100 1.585890
v 0.258453 6.795630 1.982550
v -0.229216 7.738640 2.769640
v 0.604521 8.719610 2.911340
v 0.081298 7.627550 2.700260
v 0.349425 8.832970 2.451830
v 0.548736 8.758160 2.625060
v 0.083547 8.887490 2.475710
v -0.056570 1.294630 -0.664028
v 0.263801 1.297850 -0.808476
v -0.548982 1.323790 -0.430407
v 0.106199 1.251460 0.862918
v -0.210964 1.294140 0.807805
v -0.437817 1.320040 0.594635
v -0.531101 1.314450 0.327230
v -0.378672 1.292560 -0.697908
v -0.732532 1.253200 0.105821
v -0.618955 1.276850 -0.160276
v 0.531170 1.197830 0.973072
v 0.675923 1.788750 -0.303990
v 0.939177 1.833760 -0.068442
v 0.816607 1.878120 0.240412
v 0.660003 1.920850 0.488665
v 0.501286 1.787630 -0.509656
v -0.486185 1.989350 -0.431961
v -0.281873 1.910940 -0.626843
v -0.003023 1.792640 -0.612145
v 0.261406 1.793170 -0.632407
v -0.558910 1.986620 -0.161554
v -0.413654 1.912770 0.638763
v -0.529647 1.921900 0.360728
v -0.636398 1.981750 0.104646
v 0.860215 2.524520 -0.103668
v 0.800158 2.582980 0.165404
v 0.725214 2.566890 0.447829
v -0.313233 2.682840 0.537076
v -0.059730 2.686330 0.657896
v 0.515977 2.617280 0.659366
v 0.215418 2.635570 0.662978
v 0.635918 3.850450 0.233292
v 0.566177 3.551130 -0.565753
v 0.637488 3.652340 -0.330526
v 0.738061 3.772910 -0.068898
v 0.379673 3.457950 -0.726822
v -0.182882 3.509650 -0.776539
v 0.115605 3.479390 -0.749422
v -0.586051 3.581550 -0.305219
v -0.483271 3.602970 -0.622384
v -0.557236 3.541440 -0.003372
v 0.151147 1.830100 0.759196
v -0.149543 1.883610 0.798261
v 0.675247 2.536140 -0.323853
v 0.486249 1.894200 0.769620
v 0.044767 2.468740 -0.758313
v 0.348644 2.512150 -0.784571
v 0.580461 2.541930 -0.589919
v -0.325057 2.448040 -0.829785
v -0.692708 2.545980 -0.252771
v -0.517673 2.462180 -0.524674
v -0.486072 2.622360 0.322231
v -0.700268 2.559290 0.079614
v -0.427583 3.521510 0.239662
v 0.372300 3.730980 0.497863
v 0.042482 3.612360 0.505862
v -0.231044 3.514320 0.446248
v 0.443172 4.507640 0.538226
v 0.536932 4.297490 0.201007
v 0.512602 4.679800 0.238455
v 0.938570 -0.315382 0.758571
v 0.744171 0.169656 0.601454
v 1.176600 -0.315382 0.347315
v 0.887200 -0.315382 -1.097720
v 0.661220 0.171289 -0.818119
v 0.754623 -0.315382 -0.410650
v 0.659832 0.170723 -0.359067
v 0.899062 0.170278 0.265391
v 1.712830 -0.315382 -0.181662
v 1.169940 0.171123 -0.124082
v 0.321274 0.171162 -1.088380
v -0.556213 0.169894 -1.022110
v -0.105658 -0.315382 -0.996215
v -0.088343 0.170294 -0.832945
v 0.443292 -0.315382 -1.501740
v -0.765134 -0.315382 -1.406030
v -1.135690 -0.315382 -0.335240
v -0.878950 0.168521 -0.259455
v -0.920207 -0.315382 -0.743730
v -0.726816 0.169129 -0.587428
v -1.175580 0.167647 0.124681
v -0.306206 0.167700 1.037340
v -0.865049 -0.315382 0.470742
v -0.718953 0.167937 0.391240
v -1.701110 -0.315382 0.180420
v 0.101475 0.168350 0.956764
v -0.417456 -0.315382 1.414210
v 0.129359 -0.315382 1.219670
v 0.087799 0.660724 0.844019
v -0.261586 0.588828 0.875759
v -0.529600 0.621880 0.652043
v 0.510443 0.656089 0.941750
v 0.890875 1.169400 0.282974
v 0.761473 1.216160 0.627351
v 0.679451 1.250040 -0.335562
v 0.977173 1.146200 -0.079455
v 0.564776 1.281590 -0.651389
v 0.619496 0.168827 1.138400
v 0.788244 0.700401 0.234635
v -0.790508 -0.315382 0.978084
v -0.610020 0.167637 0.754769
v 0.868531 -0.315382 1.596040
v 0.964482 0.637681 -0.102455
v 0.656168 0.679599 0.532625
v 0.565091 0.637533 -0.702184
v 0.621708 0.665022 -0.338688
v 0.266756 0.623632 -0.913059
v -0.641476 0.724745 -0.515805
v -0.463591 0.714050 -0.848104
v -0.081336 0.701651 -0.752522
v -0.770849 0.735444 -0.225174
v -0.652541 0.667994 0.354851
v -0.957812 0.662375 0.101822
vn -0.004570 0.920109 0.391636
vn 0.712553 0.425920 0.557549
vn 0.343123 0.178651 0.922144
vn -0.278011 -0.195264 -0.940522
vn -0.332952 0.023577 -0.942649
vn 0.201970 -0.903437 -0.378165
vn -0.325372 -0.271346 -0.905817
vn -0.571137 -0.154136 -0.806253
vn -0.443960 0.725699 -0.525604
vn -0.399386 0.697244 -0.595265
vn 0.032257 0.983569 0.177630
vn -0.359051 0.905970 0.224279
vn 0.302515 0.261907 0.916455
vn 0.830042 -0.273149 0.486230
vn 0.497278 -0.553444 -0.668143
vn -0.866997 0.466482 0.175243
vn 0.260796 0.733603 0.627545
vn -0.979583 -0.078948 -0.184889
vn 0.368505 0.866338 0.337139
vn -0.403699 -0.726720 -0.555792
vn -0.555083 -0.778020 -0.294223
vn -0.627560 0.113941 0.770186
vn 0.406211 0.787248 0.463933
vn -0.410421 -0.812975 -0.413070
vn -0.868177 -0.011766 0.496115
vn 0.439769 0.063989 0.895829
vn -0.467059 0.882426 -0.056394
vn -0.062492 -0.472912 -0.878891
vn 0.795743 -0.530914 -0.291415
vn 0.429855 -0.768857 -0.473374
vn 0.734749 -0.400564 0.547442
vn 0.100488 0.796094 0.596771
vn 0.522279 -0.609678 0.596252
vn 0.372074 0.102551 0.922521
vn -0.356239 0.663707 -0.657713
vn -0.428153 0.656830 -0.620692
vn 0.092858 0.993253 0.069472
vn 0.385350 0.296125 0.873965
vn 0.539438 -0.757172 0.368370
vn -0.573399 -0.032522 -0.818631
vn 0.960047 -0.257646 -0.109216
vn 0.660091 -0.654552 -0.368566
vn -0.519924 0.165993 0.837929
vn 0.661249 -0.127135 -0.739315
vn 0.079877 0.843076 0.531829
vn -0.492487 -0.793787 -0.356875
vn 0.184408 -0.090613 -0.978664
vn 0.479583 -0.705913 0.521236
vn 0.396183 0.213577 0.892986
vn -0.036568 0.935898 0.350368
vn -0.248083 0.861814 -0.442416
vn 0.099162 0.961777 0.255249
vn 0.599110 0.362975 0.713664
vn 0.387685 -0.719972 0.575622
vn 0.060346 -0.764588 -0.641688
vn -0.832863 0.497498 0.242560
vn -0.353066 -0.655815 -0.667272
vn 0.388169 0.773407 0.501165
vn -0.061973 0.496430 0.865862
vn -0.423255 -0.796446 -0.431891
vn 0.813419 0.042075 -0.580154
vn -0.117489 -0.305209 -0.945010
vn -0.513911 -0.683605 0.518247
vn -0.419412 0.321106 0.849108
vn 0.918445 -0.395480 0.007403
vn -0.147095 -0.932914 -0.328686
vn 0.499470 -0.717395 0.485668
vn 0.590462 0.218203 0.777008
vn 0.565816 -0.583532 0.582531
vn 0.174036 -0.983979 -0.038682
vn -0.499931 0.262933 -0.825188
vn 0.360675 0.413116 0.836211
vn -0.903008 0.425099 0.062189
vn 0.615508 0.779885 0.113705
vn 0.384465 0.797130 0.465587
vn -0.740830 0.010137 0.671616
vn -0.098490 -0.842796 -0.529145
vn -0.210611 -0.202628 0.956339
vn -0.060304 0.533602 0.843583
vn 0.855014 0.420606 -0.303382
vn 0.053313 -0.340131 -0.938866
vn 0.961299 0.247115 -0.121812
vn 0.427318 0.691003 0.583022
vn -0.492262 -0.291862 -0.820058
vn -0.036228 -0.971722 -0.233333
vn -0.233146 -0.381722 -0.894389
vn -0.809481 0.550243 0.204874
vn 0.897489 -0.393319 -0.199536
vn 0.825231 0.466066 0.319025
vn 0.309995 -0.275439 -0.909965
vn 0.519106 -0.208404 -0.828913
vn 0.256698 0.871160 0.418552
vn -0.814268 -0.072383 0.575958
vn 0.274999 0.833606 0.479037
vn 0.603691 0.294651 -0.740769
vn -0.550734 -0.619812 -0.559039
vn 0.202135 0.046291 0.978263
vn -0.638370 0.116559 -0.760853
vn -0.145938 0.183395 -0.972146
vn -0.269011 -0.856255 0.440977
vn -0.256711 0.641398 -0.722985
vn 0.209184 0.352005 0.912324
vn -0.448305 -0.288385 -0.846083
vn -0.018840 -0.828298 -0.559971
vn 0.145787 -0.428859 -0.891530
vn -0.414701 -0.795332 -0.442120
vn 0.750151 -0.107617 -0.652451
vn 0.412500 0.879864 0.235974
vn -0.639675 -0.755867 -0.139574
vn -0.247880 -0.381338 0.890582
vn 0.764051 -0.235192 -0.600759
vn -0.397115 -0.839114 0.371737
vn -0.398218 0.053002 -0.915758
vn 0.245910 -0.146746 -0.958120
vn 0.690653 -0.064816 0.720276
vn -0.967040 0.226075 0.117148
vn 0.102857 -0.724734 0.681308
vn -0.833911 0.545994 -0.080520
vn 0.245074 0.238164 -0.939796
vn 0.837650 0.254810 0.483129
vn 0.842424 0.275357 0.463142
vn -0.706689 -0.403856 0.580939
vn 0.033122 -0.834233 0.550416
vn -0.904028 -0.263353 -0.336719
vn 0.664027 0.316233 -0.677543
vn 0.927593 0.213595 -0.306511
vn 0.097810 0.521776 -0.847457
vn 0.982995 -0.183634 -0.000435
vn -0.607175 -0.015630 -0.794414
vn 0.807308 0.583770 -0.086407
vn -0.856134 0.187516 -0.481531
vn -0.936394 -0.100881 0.336139
vn 0.724075 0.197011 0.660986
vn -0.587702 -0.787296 0.186471
vn 0.805318 0.225876 -0.548126
vn 0.329736 -0.411267 0.849785
vn -0.959771 0.213516 -0.182348
vn -0.743886 0.661259 -0.096800
vn -0.284619 0.555123 -0.781556
vn -0.264966 -0.248425 0.931707
vn -0.306179 0.010843 0.951912
vn -0.060576 -0.062050 -0.996233
vn 0.028085 0.631451 -0.774907
vn 0.151510 -0.431745 0.889180
vn -0.392132 0.916627 -0.077631
vn 0.999517 -0.024362 0.019303
vn -0.130964 -0.862608 0.488626
vn -0.982531 0.166379 0.083373
vn 0.985874 -0.039532 -0.162756
vn -0.953108 -0.167498 0.252053
vn 0.902642 0.429394 0.029309
vn 0.941440 -0.225246 0.250908
vn -0.982319 0.070484 0.173438
vn 0.322103 -0.485709 0.812611
vn 0.024874 -0.486259 0.873461
vn -0.894196 0.046964 0.445205
vn 0.056025 0.532548 -0.844544
vn 0.390837 -0.531980 0.751162
vn -0.229066 -0.058714 -0.971639
vn -0.972751 0.217290 -0.080872
vn -0.250779 -0.339751 0.906465
vn -0.077993 0.457911 -0.885570
vn 0.984386 -0.162537 -0.067572
vn -0.040742 -0.500474 0.864792
vn -0.981202 0.178076 0.074374
vn 0.580476 -0.753924 0.307647
vn 0.968090 0.193203 -0.159607
vn 0.725800 0.324575 -0.606518
vn -0.829407 0.272779 0.487520
vn -0.956750 0.213074 -0.198065
vn 0.269346 0.374518 -0.887237
vn 0.987996 -0.030223 -0.151495
vn -0.637710 0.428916 0.639811
vn 0.442136 0.532382 -0.721863
vn -0.722986 0.166108 -0.670596
vn -0.240464 -0.208943 0.947903
vn 0.547987 -0.706849 0.447298
vn 0.157502 0.641389 -0.750875
vn 0.810118 -0.543358 -0.220161
vn 0.038950 -0.324551 0.945066
vn -0.583686 -0.789939 -0.187900
vn -0.945160 0.255904 0.202942
vn 0.807933 0.554012 0.200785
vn -0.442734 -0.489872 0.751008
vn 0.029444 0.804907 -0.592670
vn -0.055472 -0.845324 0.531366
vn -0.977114 -0.102025 -0.186653
vn 0.056517 -0.860243 0.506743
vn 0.438083 0.796040 -0.417617
vn -0.943908 -0.238681 0.228185
vn 0.719868 -0.657758 0.221684
vn 0.694020 0.663130 -0.280350
vn -0.324642 0.507327 -0.798265
vn -0.989653 -0.130660 0.059291
vn 0.520229 -0.302956 -0.798486
vn -0.884223 -0.443788 -0.145612
vn -0.950313 -0.204676 -0.234547
vn -0.220980 0.741409 -0.633625
vn 0.966741 -0.021975 0.254811
vn -0.321574 -0.786721 0.526935
vn 0.943452 0.228154 0.240507
vn -0.809721 0.113165 -0.575800
vn -0.137048 -0.596913 0.790515
vn -0.957813 0.253531 -0.135338
vn -0.610897 -0.628252 0.481772
vn 0.624409 -0.124090 0.771178
vn -0.819488 0.570050 -0.059011
vn -0.054011 0.811196 -0.582275
vn 0.881720 0.429922 -0.194262
vn 0.917042 -0.013034 0.398577
vn 0.135573 0.851593 -0.506369
vn -0.491126 -0.724396 0.483782
vn -0.951825 0.073931 0.297596
vn 0.358660 -0.807450 0.468388
vn 0.064880 0.151125 -0.986383
vn 0.417804 -0.271772 0.866937
vn -0.423698 0.750062 -0.507825
vn -0.942544 -0.273511 -0.191838
vn -0.154746 0.842908 -0.515326
vn -0.934053 -0.099442 -0.343011
vn 0.737154 -0.112353 0.666319
vn 0.906847 -0.397947 0.138804
vn 0.838897 0.542489 -0.044247
vn 0.671834 -0.637836 -0.376569
vn -0.710643 0.497986 -0.496987
vn -0.146784 0.011649 0.989100
vn 0.876522 0.100170 0.470823
vn -0.133682 -0.796129 0.590176
vn 0.203085 0.691614 -0.693128
vn 0.279255 0.796062 -0.536938
vn -0.882445 0.278090 -0.379415
vn 0.124944 -0.990192 0.062526
vn -0.853997 -0.162791 0.494153
vn 0.390309 -0.911654 -0.128628
vn 0.684166 0.130182 -0.717614
vn -0.413758 0.858654 -0.302518
vn -0.031647 0.531031 -0.846761
vn -0.713174 0.082693 0.696093
vn 0.748929 -0.548129 0.372371
vn 0.670431 -0.670070 0.318635
vn 0.091798 -0.206571 -0.974116
vn 0.023113 -0.675643 0.736866
vn -0.451814 0.854119 0.257575
vn -0.023002 0.961986 -0.272128
vn -0.958702 0.042569 -0.281210
vn -0.353287 -0.104105 0.929705
vn -0.509434 -0.188400 0.839633
vn 0.213458 -0.924663 0.315331
vn -0.304326 0.951965 -0.033895
vn 0.283859 0.958111 -0.038039
vn 0.768370 0.195659 -0.609364
vn 0.698716 0.160606 -0.697139
vn -0.375274 -0.519797 0.767451
vn -0.445071 -0.607320 0.658084
vn -0.137354 0.269020 -0.953290
vn 0.512867 -0.545856 0.662577
vn 0.877147 -0.460954 0.134666
vn -0.735796 -0.264827 0.623274
vn 0.009419 0.755530 -0.655046
vn 0.938228 -0.226201 -0.261841
vn -0.527694 0.467085 0.709486
vn -0.548154 0.463085 -0.696476
vn -0.952867 -0.283963 0.106819
vn -0.732402 -0.312262 0.605045
vn -0.744621 0.603315 0.285571
vn -0.370219 -0.691507 0.620287
vn -0.695324 -0.333326 0.636725
vn 0.449386 -0.874863 0.180740
vn -0.458626 0.884176 0.088852
vn -0.566475 -0.337965 0.751589
vn 0.576990 -0.812622 0.082024
vn 0.776057 0.277069 -0.566541
vn 0.357188 -0.932632 0.051125
vn -0.087389 0.970075 -0.226536
vn 0.581904 0.728375 -0.361743
vn -0.399063 0.916422 -0.030313
vn 0.945862 -0.011188 -0.324376
vn 0.866825 0.310031 -0.390507
vn -0.912411 0.108435 0.394650
vn 0.850961 -0.501698 0.155450
vn 0.528083 -0.783832 0.326703
vn 0.790723 0.280535 -0.544111
vn 0.703900 0.383476 -0.597889
vn 0.777860 0.245286 -0.578592
vn 0.427409 -0.884458 0.187231
vn -0.657692 -0.210704 0.723218
vn -0.298123 0.953465 -0.045025
vn -0.344244 0.938880 -0.000842
vn -0.757316 -0.259787 0.599152
vn -0.076017 -0.235054 -0.969005
vn 0.758814 0.245240 -0.603373
vn -0.871571 -0.333700 0.359176
vn 0.741688 0.300563 0.599634
vn 0.377009 0.694351 -0.612977
vn -0.292203 -0.818060 0.495375
vn 0.628874 0.240372 0.739418
vn 0.164015 0.944587 -0.284350
vn 0.562430 0.235034 0.792737
vn -0.276994 0.724212 -0.631499
vn -0.430410 0.898926 0.081724
vn 0.060408 0.953583 -0.295009
vn -0.584765 -0.660990 -0.470258
vn -0.865690 -0.443632 -0.231889
vn -0.269758 -0.149700 0.951221
vn -0.062587 -0.035740 -0.997399
vn 0.651719 0.446158 -0.613356
vn -0.662989 -0.487185 -0.568415
vn 0.686341 0.438770 0.580015
vn -0.043093 0.107612 0.993259
vn -0.728507 -0.167105 -0.664344
vn -0.683070 -0.085529 -0.725327
vn -0.380129 -0.918053 0.112607
vn -0.725375 -0.192813 -0.660799
vn 0.204412 0.843271 -0.497101
vn 0.704475 0.252181 0.663415
vn -0.290233 -0.617112 0.731394
vn -0.177800 -0.917707 0.355247
vn 0.292598 -0.167447 0.941460
vn 0.664201 0.563603 0.491110
vn 0.571566 0.760159 -0.308983
vn 0.830254 0.195513 0.521970
vn -0.064190 -0.539340 -0.839638
vn 0.077242 -0.459769 -0.884673
vn -0.111713 0.992723 0.044964
vn 0.463537 0.501358 0.730598
vn 0.681271 -0.609118 -0.406011
vn 0.605622 -0.756681 -0.246283
vn 0.845041 -0.528266 0.082714
vn 0.756514 -0.595071 0.271250
vn 0.753364 0.540837 0.374082
vn 0.943621 -0.171217 0.283309
vn 0.823720 0.366157 0.432914
vn -0.326861 -0.025363 -0.944732
vn 0.653521 -0.452282 0.606920
vn 0.548728 0.692960 0.467659
vn -0.184915 0.537745 -0.822579
vn -0.424154 0.591601 -0.685640
vn -0.333730 0.304637 -0.892088
vn -0.123826 -0.130061 -0.983743
vn 0.351081 -0.886723 -0.300773
vn 0.988191 -0.010759 0.152848
vn 0.097851 -0.200293 -0.974837
vn 0.498934 0.248720 -0.830182
vn 0.360214 0.588727 -0.723634
vn -0.452984 0.393343 -0.800054
vn -0.154764 -0.280013 -0.947439
vn 0.845805 -0.399818 -0.353212
vn -0.298494 0.929361 0.217230
vn 0.093545 -0.322670 -0.941878
vn 0.032179 0.973649 0.225771
vn -0.487743 0.372911 0.789332
vn 0.890487 -0.440235 -0.115004
vn 0.181074 0.964040 0.194521
vn -0.159847 0.604019 -0.780775
vn -0.626575 -0.363560 0.689368
vn 0.378570 0.409401 -0.830106
vn 0.096919 0.958943 -0.266523
vn 0.140523 -0.416155 -0.898370
vn 0.227415 0.496850 -0.837510
vn -0.254607 -0.524329 -0.812560
vn -0.611287 -0.789867 0.049379
vn -0.522350 -0.766821 -0.373010
vn 0.079940 0.933338 0.349985
vn 0.276785 0.195957 0.940739
vn 0.931291 -0.208809 -0.298488
vn -0.050124 -0.480813 -0.875389
vn -0.059631 0.585925 -0.808168
vn 0.021401 0.904366 0.426221
vn 0.040371 -0.779040 0.625674
vn -0.253701 -0.927411 -0.274853
vn -0.192780 -0.354424 -0.914997
vn 0.311291 0.441758 -0.841397
vn 0.063076 -0.015054 0.997895
vn -0.083682 -0.985803 0.145569
vn -0.361272 -0.305635 0.880948
vn -0.073261 -0.905109 -0.418821
vn 0.221351 0.684221 0.694871
vn -0.649769 -0.485685 0.584731
vn -0.290471 -0.633506 -0.717145
vn 0.590100 0.430889 -0.682728
vn -0.389400 0.324730 0.861927
vn -0.562049 -0.246030 0.789664
vn -0.057389 -0.289333 -0.955507
vn 0.292984 0.552298 -0.780466
vn 0.570339 0.537309 -0.621299
vn 0.417812 0.897161 0.143299
vn -0.237092 0.369412 0.898511
vn -0.686125 -0.395408 0.610642
vn -0.596970 -0.731136 -0.330252
vn -0.153205 -0.284890 -0.946238
vn 0.489107 0.790413 0.368812
vn -0.010992 0.346042 0.938155
vn -0.482899 -0.487030 0.727743
vn -0.570986 -0.783522 -0.245091
vn -0.051197 -0.311678 -0.948807
vn 0.412640 0.313931 0.855088
vn 0.154712 0.192218 0.969080
vn -0.241319 -0.650517 0.720134
vn -0.487377 -0.787714 -0.376789
vn 0.594878 0.565601 -0.571153
vn 0.492201 0.077388 0.867035
vn -0.747449 -0.537327 0.390640
vn -0.360396 -0.115736 -0.925592
vn -0.803573 -0.491353 -0.335920
vn 0.227035 0.725265 -0.649959
vn 0.250470 -0.373989 0.892971
vn -0.810030 -0.322472 -0.489758
vn 0.798732 0.409862 0.440501
vn 0.398092 0.897434 -0.190094
vn -0.133991 0.733267 -0.666608
vn -0.014483 0.468110 0.883552
vn -0.011647 0.387016 -0.921999
vn -0.707187 -0.513880 -0.485607
vn -0.762028 -0.644040 -0.067276
vn -0.878946 -0.465699 0.102855
vn -0.564552 -0.585132 -0.582152
vn -0.399729 0.122096 -0.908466
vn -0.457379 -0.287878 -0.841386
vn -0.208592 0.591880 -0.778567
vn -0.279795 -0.093279 -0.955518
vn -0.201487 0.395962 -0.895889
vn -0.604338 -0.447595 0.659116
vn -0.276110 0.379360 0.883091
vn -0.414259 0.138050 0.899629
vn -0.280122 0.074956 0.957034
vn -0.681368 -0.196628 0.705035
vn -0.457321 0.225681 0.860189
vn 0.252111 0.831842 -0.494448
vn -0.612533 0.775394 -0.153514
vn -0.384271 0.872830 0.300838
vn -0.525520 0.459197 0.716217
vn -0.043799 0.092492 -0.994750
vn -0.054376 -0.028759 0.998106
vn -0.473335 -0.784784 0.400086
vn -0.445529 -0.677745 -0.584949
vn -0.646120 0.763235 -0.001436
vn 0.284546 0.760708 0.583401
vn -0.908027 -0.140821 -0.394534
vn -0.254727 0.440081 -0.861071
vn -0.507492 0.836112 0.208250
vn -0.505121 0.723602 0.470375
vn 0.148541 0.852048 0.501946
vn 0.367907 0.915141 0.164809
vn -0.579742 -0.551152 0.600108
vn 0.168291 -0.501050 0.848898
vn 0.111034 -0.702681 0.702788
vn -0.481353 -0.453883 0.749860
vn 0.696009 -0.400438 0.596004
vn 0.794773 -0.386496 0.467929
vn 0.925441 -0.027670 0.377881
vn 0.240333 0.923655 -0.298499
vn 0.893523 0.394572 0.214312
vn 0.954386 0.298417 -0.009780
vn -0.849977 0.526021 0.029007
vn 0.428525 -0.850044 0.306253
vn -0.656026 -0.620527 0.429622
vn 0.237200 0.963413 0.124786
vn 0.985796 0.010944 -0.167591
vn -0.623836 0.695623 0.356284
vn 0.982904 -0.142507 0.116585
vn -0.299283 -0.291835 0.908439
vn -0.857824 -0.034324 0.512797
vn -0.019581 0.697692 0.716130
vn -0.755976 0.087607 0.648710
vn -0.976653 -0.147060 0.156595
vn 0.191337 0.899601 -0.392565
vn -0.767973 -0.069478 0.636703
vn -0.730098 0.451152 0.513244
vn -0.901308 0.234750 0.364055
vn -0.859426 0.155373 0.487080
vn -0.835789 0.489317 -0.249049
vn 0.363446 -0.425687 0.828672
vn -0.477103 0.074217 0.875708
vn 0.153124 -0.182026 0.971298
vn 0.423187 -0.313372 -0.850124
vn -0.075724 -0.393338 -0.916270
vn -0.272879 0.472035 0.838284
vn -0.794081 0.452866 0.405398
vn -0.565447 0.735248 -0.373737
vn -0.303922 0.688135 -0.658864
vn 0.444535 0.500124 -0.743145
vn -0.345297 -0.215380 0.913445
vn 0.956324 0.114192 -0.269083
vn 0.863742 -0.165146 0.476105
vn -0.092715 0.958338 0.270172
vn -0.487254 -0.391952 -0.780357
vn -0.115866 0.622866 0.773701
vn 0.720867 -0.212152 -0.659804
vn 0.905616 -0.083492 -0.415800
vn 0.970475 0.208326 0.121570
vn 0.827855 0.401260 0.391977
vn -0.884454 -0.199085 -0.422026
vn 0.327130 0.604430 0.726395
vn -0.225403 -0.424646 -0.876852
vn 0.169839 0.514640 0.840417
vn -0.837864 0.271109 0.473798
vn -0.998299 0.005743 -0.058024
vn -0.925803 -0.029817 -0.376829
vn 0.761057 0.474982 0.441796
vn -0.781597 -0.393524 -0.483988
vn 0.762713 0.501079 0.408886
vn -0.323848 -0.390410 -0.861802
vn 0.404366 -0.270065 -0.873815
vn 0.740837 -0.104697 -0.663475
vn 0.964301 0.219868 -0.147584
vn -0.977400 -0.186733 0.099100
vn 0.918432 0.257762 -0.300069
vn -0.901631 -0.341960 -0.264812
vn 0.650422 0.631062 0.422744
vn -0.340078 0.388519 0.856388
vn -0.832066 0.104990 0.544650
vn 0.647411 -0.036323 -0.761275
vn -0.893864 -0.088463 0.439523
vn 0.810877 0.413651 -0.413970
vn -0.853398 -0.390867 0.344870
vn 0.109901 -0.329944 -0.937581
vn 0.177188 0.460512 0.869789
vn -0.419126 0.241452 0.875234
vn 0.462481 0.010512 -0.886567
vn -0.533112 -0.008204 0.846005
vn 0.460694 0.211228 -0.862058
vn -0.712240 -0.578209 -0.397981
vn -0.158903 -0.413895 -0.896349
vn 0.080545 0.412691 0.907303
vn -0.123389 -0.116831 -0.985457
vn 0.335660 0.861432 -0.381140
vn 0.481753 0.654291 0.582939
vn -0.773747 -0.336673 -0.536626
vn -0.754143 0.026654 0.656169
vn -0.956726 -0.263257 0.123978
vn 0.623129 -0.309749 -0.718168
vn 0.760396 0.502391 -0.411584
vn 0.240620 -0.909418 -0.339205
vn -0.785344 0.062586 -0.615888
vn -0.779714 0.177773 -0.600369
vn -0.404067 0.440677 -0.801582
vn -0.365603 0.442416 -0.818903
vn 0.481847 0.494713 -0.723245
vn 0.564725 -0.511784 -0.647428
vn 0.130638 0.481795 -0.866492
vn -0.959735 -0.184995 -0.211389
vn -0.246530 -0.448901 0.858901
vn -0.745360 -0.435240 0.504979
vn -0.936925 -0.325870 0.126415
vn -0.971946 -0.224913 -0.068815
vn 0.008433 -0.356447 0.934278
vn 0.575750 0.563378 -0.592552
vn 0.927071 0.359162 -0.107432
vn 0.894166 -0.060556 0.443621
vn 0.374287 -0.233578 0.897413
vn 0.184087 0.627391 -0.756632
vn -0.961739 -0.234439 0.141764
vn -0.907974 0.137402 -0.395859
vn -0.470177 0.491890 -0.732788
vn 0.380190 -0.415406 0.826373
vn -0.110036 -0.528921 0.841507
vn -0.511092 0.619932 -0.595374
vn -0.356582 0.577115 -0.734702
vn -0.231068 -0.497094 0.836364
vn 0.919203 -0.313375 0.238456
vn -0.806290 -0.175290 0.564951
vn -0.965727 0.259474 -0.006621
vn -0.888932 0.393723 -0.234057
vn 0.294983 -0.539645 0.788523
vn -0.439815 -0.394879 0.806618
vn -0.897191 -0.050775 0.438715
vn 0.884438 -0.336011 0.323832
vn 0.417114 0.430550 -0.800402
vn 0.935317 0.058290 -0.348978
vn -0.886612 0.415472 -0.203231
vn -0.294043 0.584224 -0.756453
vn -0.876221 0.003286 0.481898
vn -0.682388 -0.446587 0.578712
vn 0.915044 0.147486 -0.375422
vn -0.086413 0.635885 -0.766931
vn 0.506347 0.473337 -0.720808
vn 0.401606 -0.553894 0.729325
vn 0.376915 0.479741 -0.792328
vn 0.894613 0.132277 -0.426814
vn 0.882629 -0.334318 0.330450
vn -0.400809 -0.314437 0.860512
vn 0.905191 -0.347153 0.245183
vn 0.358233 -0.478790 0.801517
vn 0.383332 0.329550 -0.862817
vn 0.888988 -0.022195 -0.457392
vn -0.253828 0.540540 -0.802114
vn -0.177726 0.133475 -0.974986
vn 0.132843 0.189378 -0.972876
vn -0.908607 0.149232 -0.390082
vn -0.136581 0.118680 0.983494
vn -0.395477 0.116205 0.911095
vn -0.804639 0.099415 0.585382
vn -0.831160 0.103734 0.546272
vn -0.331633 0.187120 -0.924665
vn -0.973900 0.213173 0.077953
vn -0.934557 0.169206 -0.313006
vn 0.341060 0.129533 0.931074
vn 0.748713 -0.006883 -0.662859
vn 0.969627 0.072084 -0.233724
vn 0.917735 0.118625 0.379067
vn 0.862253 0.113074 0.493695
vn 0.697997 -0.026006 -0.715628
vn -0.858555 -0.025861 -0.512069
vn -0.403734 -0.074111 -0.911870
vn -0.046635 -0.065819 -0.996741
vn 0.197531 0.012998 -0.980210
vn -0.973891 -0.053708 -0.220573
vn -0.733235 0.103130 0.672109
vn -0.875615 0.072885 0.477479
vn -0.993392 0.049846 0.103379
vn 0.980779 0.097312 -0.169121
vn 0.987833 0.070911 0.138412
vn 0.887137 0.079487 0.454610
vn -0.695203 0.149402 0.703116
vn -0.268349 0.176508 0.947013
vn 0.414073 0.160319 0.896014
vn 0.026093 0.143263 0.989341
vn 0.866087 0.146726 0.477874
vn 0.805241 -0.075657 -0.588100
vn 0.959442 -0.023523 -0.280922
vn 0.998940 0.032836 0.032275
vn 0.538630 -0.089558 -0.837769
vn -0.186703 -0.016850 -0.982272
vn -0.022471 -0.114933 -0.993119
vn -0.981019 0.019009 -0.192978
vn -0.833027 -0.007448 -0.553182
vn -0.982039 0.005602 0.188595
vn 0.007768 0.126041 0.991995
vn -0.235154 0.104096 0.966368
vn 0.805441 -0.002553 -0.592671
vn 0.360121 0.171375 0.917030
vn 0.061280 -0.075420 -0.995267
vn 0.288301 -0.070723 -0.954924
vn 0.807100 -0.015844 -0.590203
vn -0.364267 -0.081625 -0.927711
vn -0.979268 -0.008631 -0.202386
vn -0.865461 -0.055588 -0.497884
vn -0.786300 0.084740 0.612006
vn -0.955293 0.037653 0.293255
vn -0.790622 -0.081129 0.606906
vn 0.381200 0.035803 0.923799
vn -0.040122 -0.034251 0.998608
vn -0.481096 -0.040677 0.875724
vn 0.850744 0.096299 0.516683
vn 0.916547 0.350420 0.192736
vn 0.945621 0.309359 0.100491
vn 0.859934 0.444164 0.251459
vn 0.897751 0.368476 0.241389
vn 0.664174 0.534726 0.522437
vn 0.742289 0.568233 -0.355130
vn 0.872191 0.381580 -0.306071
vn 0.822075 0.286089 -0.492286
vn 0.672758 0.245647 -0.697893
vn 0.805768 0.378117 0.455813
vn 0.588560 0.590286 -0.552412
vn 0.808294 0.577816 -0.113091
vn 0.100029 0.525926 -0.844628
vn -0.191734 0.460325 -0.866798
vn 0.051154 0.384064 -0.921888
vn -0.177694 0.300158 -0.937192
vn -0.205215 0.554834 -0.806255
vn -0.442918 0.632906 -0.635022
vn -0.665608 0.506848 -0.547787
vn -0.805196 0.355712 -0.474478
vn -0.838334 0.446327 -0.313032
vn -0.874078 0.355196 -0.331397
vn -0.822431 0.568132 0.028873
vn -0.313015 0.499670 0.807683
vn -0.703858 0.349852 0.618213
vn -0.626101 0.306081 0.717155
vn -0.639734 0.634462 0.433818
vn -0.034541 0.400383 0.915697
vn -0.096550 0.598606 0.795204
vn -0.170373 0.507716 0.844510
vn -0.084285 0.099250 0.991486
vn -0.348922 0.188446 0.918010
vn -0.790733 0.177979 0.585718
vn 0.393195 0.112894 0.912498
vn 0.946533 -0.043018 0.319726
vn 0.893179 0.017910 0.449345
vn 0.764935 0.022803 -0.643704
vn 0.958597 -0.010428 -0.284576
vn 0.791424 0.126173 -0.598104
vn 0.270613 0.569863 0.775903
vn 0.916301 0.030976 0.399290
vn -0.731393 0.513956 0.448235
vn -0.805088 0.374007 0.460383
vn 0.537439 0.676974 0.502857
vn 0.962425 0.163818 -0.216567
vn 0.941250 0.017859 0.337237
vn 0.840515 0.142782 -0.522636
vn 0.790356 0.051646 -0.610466
vn 0.102867 0.252113 -0.962215
vn -0.893174 0.222543 -0.390787
vn -0.292543 0.277562 -0.915083
vn -0.125670 0.186488 -0.974387
vn -0.877892 0.248157 -0.409541
vn -0.755387 0.182762 0.629277
vn -0.939454 0.325495 0.107140
f 139//139 127//127 149//149
f 127//127 139//139 148//148
f 148//148 165//165 127//127
f 157//157 127//127 165//165
f 127//127 157//157 128//128
f 128//128 149//149 127//127
f 149//149 128//128 154//154
f 155//155 154//154 128//128
f 154//154 155//155 156//156
f 156//156 148//148 139//139
f 148//148 156//156 155//155
f 155//155 164//164 148//148
f 165//165 148//148 164//164
f 164//164 144//144 165//165
f 153//153 165//165 144//144
f 165//165 153//153 157//157
f 162//162 157//157 153//153
f 157//157 162//162 163//163
f 163//163 128//128 157//157
f 128//128 163//163 155//155
f 164//164 155//155 163//163
f 163//163 172//172 164//164
f 144//144 164//164 172//172
f 172//172 152//152 144//144
f 161//161 144//144 152//152
f 144//144 161//161 153//153
f 170//170 153//153 161//161
f 153//153 170//170 162//162
f 171//171 162//162 170//170
f 162//162 171//171 172//172
f 172//172 163//163 162//162
f 152//152 172//172 171//171
f 171//171 143//143 152//152
f 179//179 152//152 143//143
f 152//152 179//179 161//161
f 180//180 161//161 179//179
f 161//161 180//180 181//181
f 181//181 151//151 161//161
f 141//141 161//161 151//151
f 161//161 141//141 170//170
f 143//143 171//171 173//173
f 173//173 169//169 143//143
f 178//178 143//143 169//169
f 143//143 178//178 179//179
f 166//166 179//179 178//178
f 179//179 166//166 180//180
f 180//180 166//166 173//173
f 173//173 181//181 180//180
f 181//181 173//173 171//171
f 171//171 159//159 181//181
f 151//151 181//181 159//159
f 159//159 142//142 151//151
f 133//133 151//151 142//142
f 151//151 133//133 141//141
f 141//141 133//133 150//150
f 150//150 170//170 141//141
f 170//170 150//150 171//171
f 159//159 171//171 150//150
f 150//150 132//132 159//159
f 142//142 159//159 132//132
f 132//132 116//116 142//142
f 114//114 142//142 116//116
f 142//142 114//114 133//133
f 115//115 133//133 114//114
f 133//133 115//115 132//132
f 132//132 150//150 133//133
f 116//116 132//132 115//115
f 115//115 216//216 116//116
f 207//207 116//116 216//216
f 116//116 207//207 114//114
f 195//195 114//114 207//207
f 114//114 195//195 115//115
f 216//216 115//115 195//195
f 195//195 224//224 216//216
f 226//226 216//216 224//224
f 216//216 226//226 207//207
f 217//217 207//207 226//226
f 207//207 217//217 195//195
f 224//224 195//195 217//217
f 224//224 217//217 226//226
f 169//169 173//173 166//166
f 166//166 177//177 169//169
f 182//182 169//169 177//177
f 169//169 182//182 178//178
f 174//174 178//178 182//182
f 178//178 174//174 166//166
f 177//177 166//166 174//174
f 174//174 168//168 177//177
f 158//158 177//177 168//168
f 177//177 158//158 182//182
f 160//160 182//182 158//158
f 182//182 160//160 174//174
f 168//168 174//174 160//160
f 160//160 175//175 168//168
f 167//167 168//168 175//175
f 168//168 167//167 158//158
f 176//176 158//158 167//167
f 158//158 176//176 160//160
f 175//175 160//160 176//176
f 167//167 175//175 176//176
f 198//198 185//185 209//209
f 185//185 198//198 197//197
f 197//197 187//187 185//185
f 208//208 185//185 187//187
f 185//185 208//208 199//199
f 199//199 209//209 185//185
f 209//209 199//199 186//186
f 100//100 186//186 199//199
f 186//186 100//100 196//196
f 196//196 197//197 198//198
f 197//197 196//196 100//100
f 100//100 200//200 197//197
f 187//187 197//197 200//200
f 200//200 188//188 187//187
f 218//218 187//187 188//188
f 187//187 218//218 208//208
f 219//219 208//208 218//218
f 208//208 219//219 210//210
f 210//210 199//199 208//208
f 199//199 210//210 100//100
f 200//200 100//100 210//210
f 210//210 201//201 200//200
f 188//188 200//200 201//201
f 201//201 227//227 188//188
f 228//228 188//188 227//227
f 188//188 228//228 218//218
f 220//220 218//218 228//228
f 218//218 220//220 219//219
f 211//211 219//219 220//220
f 219//219 211//211 201//201
f 201//201 210//210 219//219
f 227//227 201//201 211//211
f 211//211 189//189 227//227
f 221//221 227//227 189//189
f 227//227 221//221 228//228
f 212//212 228//228 221//221
f 228//228 212//212 220//220
f 202//202 220//220 212//212
f 220//220 202//202 211//211
f 189//189 211//211 202//202
f 202//202 124//124 189//189
f 215//215 189//189 124//124
f 215//215 120//120 189//189
f 189//189 120//120 190//190
f 190//190 225//225 189//189
f 229//229 189//189 225//225
f 189//189 229//229 221//221
f 124//124 202//202 122//122
f 122//122 206//206 124//124
f 194//194 124//124 206//206
f 124//124 194//194 215//215
f 119//119 215//215 194//194
f 215//215 119//119 120//120
f 212//212 122//122 202//202
f 122//122 212//212 120//120
f 120//120 206//206 122//122
f 206//206 120//120 119//119
f 119//119 125//125 206//206
f 136//136 206//206 125//125
f 206//206 136//136 194//194
f 137//137 194//194 136//136
f 194//194 137//137 119//119
f 125//125 119//119 137//137
f 137//137 118//118 125//125
f 135//135 125//125 118//118
f 125//125 135//135 136//136
f 190//190 120//120 212//212
f 212//212 203//203 190//190
f 203//203 213//213 190//190
f 213//213 225//225 190//190
f 225//225 213//213 229//229
f 230//230 229//229 213//213
f 229//229 230//230 222//222
f 222//222 221//221 229//229
f 203//203 212//212 222//222
f 222//222 191//191 203//203
f 203//203 191//191 213//213
f 191//191 214//214 213//213
f 204//204 213//213 214//214
f 213//213 204//204 230//230
f 192//192 230//230 204//204
f 230//230 192//192 191//191
f 191//191 222//222 230//230
f 221//221 222//222 212//212
f 214//214 191//191 192//192
f 192//192 223//223 214//214
f 123//123 214//214 223//223
f 214//214 123//123 204//204
f 231//231 204//204 123//123
f 204//204 231//231 192//192
f 223//223 192//192 231//231
f 231//231 193//193 223//223
f 121//121 223//223 193//193
f 223//223 121//121 123//123
f 205//205 123//123 121//121
f 123//123 205//205 231//231
f 193//193 231//231 205//205
f 121//121 193//193 205//205
f 117//117 136//136 135//135
f 136//136 117//117 137//137
f 118//118 137//137 117//117
f 117//117 147//147 118//118
f 138//138 118//118 147//147
f 118//118 138//138 135//135
f 126//126 135//135 138//138
f 135//135 126//126 117//117
f 147//147 117//117 126//126
f 126//126 146//146 147//147
f 134//134 147//147 146//146
f 147//147 134//134 138//138
f 145//145 138//138 134//134
f 138//138 145//145 126//126
f 146//146 126//126 145//145
f 146//146 145//145 134//134
f 74//74 58//58 59//59
f 58//58 74//74 90//90
f 90//90 91//91 58//58
f 75//75 58//58 91//91
f 58//58 75//75 43//43
f 43//43 59//59 58//58
f 59//59 43//43 21//21
f 20//20 21//21 43//43
f 21//21 20//20 105//105
f 105//105 90//90 74//74
f 90//90 105//105 20//20
f 20//20 106//106 90//90
f 91//91 90//90 106//106
f 106//106 60//60 91//91
f 44//44 91//91 60//60
f 91//91 44//44 75//75
f 23//23 75//75 44//44
f 75//75 23//23 22//22
f 22//22 43//43 75//75
f 43//43 22//22 20//20
f 106//106 20//20 22//22
f 22//22 76//76 106//106
f 60//60 106//106 76//76
f 76//76 25//25 60//60
f 24//24 60//60 25//25
f 60//60 24//24 44//44
f 107//107 44//44 24//24
f 44//44 107//107 23//23
f 92//92 23//23 107//107
f 23//23 92//92 76//76
f 76//76 22//22 23//23
f 25//25 76//76 92//92
f 92//92 45//45 25//25
f 93//93 25//25 45//45
f 25//25 93//93 24//24
f 77//77 24//24 93//93
f 24//24 77//77 107//107
f 61//61 107//107 77//77
f 107//107 61//61 92//92
f 45//45 92//92 61//61
f 61//61 65//65 45//45
f 26//26 45//45 65//65
f 108//108 45//45 26//26
f 45//45 108//108 93//93
f 78//78 93//93 108//108
f 93//93 78//78 77//77
f 65//65 61//61 81//81
f 65//65 81//81 111//111
f 65//65 111//111 26//26
f 97//97 26//26 111//111
f 26//26 97//97 27//27
f 108//108 26//26 27//27
f 27//27 47//47 108//108
f 94//94 108//108 47//47
f 108//108 94//94 78//78
f 77//77 81//81 61//61
f 81//81 77//77 62//62
f 81//81 62//62 27//27
f 27//27 131//131 81//81
f 131//131 111//111 81//81
f 131//131 98//98 111//111
f 82//82 111//111 98//98
f 111//111 82//82 97//97
f 140//140 97//97 82//82
f 97//97 140//140 131//131
f 131//131 27//27 97//97
f 77//77 46//46 62//62
f 46//46 47//47 62//62
f 62//62 47//47 27//27
f 46//46 77//77 78//78
f 78//78 63//63 46//46
f 63//63 47//47 46//46
f 63//63 109//109 47//47
f 95//95 47//47 109//109
f 47//47 95//95 94//94
f 63//63 78//78 94//94
f 94//94 79//79 63//63
f 109//109 63//63 79//79
f 79//79 64//64 109//109
f 96//96 109//109 64//64
f 109//109 96//96 95//95
f 80//80 95//95 96//96
f 95//95 80//80 79//79
f 79//79 94//94 95//95
f 64//64 79//79 80//80
f 80//80 130//130 64//64
f 110//110 64//64 130//130
f 64//64 110//110 96//96
f 129//129 96//96 110//110
f 96//96 129//129 80//80
f 130//130 80//80 129//129
f 110//110 130//130 129//129
f 98//98 131//131 140//140
f 140//140 184//184 98//98
f 113//113 98//98 184//184
f 98//98 113//113 82//82
f 183//183 82//82 113//113
f 82//82 183//183 140//140
f 184//184 140//140 183//183
f 183//183 83//83 184//184
f 112//112 184//184 83//83
f 184//184 112//112 113//113
f 99//99 113//113 112//112
f 113//113 99//99 183//183
f 83//83 183//183 99//99
f 112//112 83//83 99//99
f 32//32 1//1 51//51
f 1//1 32//32 3//3
f 3//3 49//49 1//1
f 50//50 1//1 49//49
f 1//1 50//50 35//35
f 35//35 51//51 1//1
f 51//51 35//35 5//5
f 4//4 5//5 35//35
f 5//5 4//4 28//28
f 34//34 3//3 32//32
f 3//3 34//34 33//33
f 33//33 48//48 3//3
f 49//49 3//3 48//48
f 48//48 67//67 49//49
f 68//68 49//49 67//67
f 49//49 68//68 50//50
f 52//52 50//50 68//68
f 50//50 52//52 36//36
f 36//36 35//35 50//50
f 35//35 36//36 4//4
f 31//31 33//33 34//34
f 33//33 31//31 30//30
f 30//30 6//6 33//33
f 48//48 33//33 6//6
f 6//6 66//66 48//48
f 67//67 48//48 66//66
f 66//66 85//85 67//67
f 69//69 67//67 85//85
f 67//67 69//69 68//68
f 53//53 68//68 69//69
f 68//68 53//53 52//52
f 29//29 30//30 31//31
f 28//28 30//30 29//29
f 30//30 28//28 4//4
f 4//4 7//7 30//30
f 6//6 30//30 7//7
f 7//7 8//8 6//6
f 66//66 6//6 8//8
f 8//8 84//84 66//66
f 85//85 66//66 84//84
f 84//84 86//86 85//85
f 70//70 85//85 86//86
f 85//85 70//70 69//69
f 54//54 69//69 70//70
f 69//69 54//54 53//53
f 7//7 4//4 36//36
f 36//36 9//9 7//7
f 8//8 7//7 9//9
f 9//9 10//10 8//8
f 84//84 8//8 10//10
f 10//10 101//101 84//84
f 86//86 84//84 101//101
f 101//101 71//71 86//86
f 55//55 86//86 71//71
f 86//86 55//55 70//70
f 70//70 55//55 54//54
f 9//9 36//36 52//52
f 52//52 37//37 9//9
f 10//10 9//9 37//37
f 37//37 11//11 10//10
f 101//101 10//10 11//11
f 11//11 12//12 101//101
f 71//71 101//101 12//12
f 12//12 87//87 71//71
f 40//40 71//71 87//87
f 71//71 40//40 55//55
f 37//37 52//52 53//53
f 53//53 38//38 37//37
f 11//11 37//37 38//38
f 38//38 13//13 11//11
f 12//12 11//11 13//13
f 13//13 102//102 12//12
f 87//87 12//12 102//102
f 102//102 72//72 87//87
f 56//56 87//87 72//72
f 87//87 56//56 40//40
f 38//38 53//53 54//54
f 54//54 39//39 38//38
f 13//13 38//38 39//39
f 39//39 14//14 13//13
f 102//102 13//13 14//14
f 14//14 88//88 102//102
f 72//72 102//102 88//88
f 88//88 41//41 72//72
f 17//17 72//72 41//41
f 72//72 17//17 56//56
f 39//39 54//54 55//55
f 55//55 15//15 39//39
f 14//14 39//39 15//15
f 15//15 88//88 14//14
f 88//88 15//15 103//103
f 103//103 57//57 88//88
f 41//41 88//88 57//57
f 57//57 104//104 41//41
f 104//104 89//89 41//41
f 17//17 41//41 89//89
f 17//17 89//89 16//16
f 16//16 56//56 17//17
f 15//15 55//55 40//40
f 40//40 103//103 15//15
f 103//103 40//40 56//56
f 56//56 16//16 103//103
f 57//57 103//103 16//16
f 16//16 73//73 57//57
f 104//104 57//57 73//73
f 73//73 18//18 104//104
f 42//42 104//104 18//18
f 104//104 42//42 89//89
f 19//19 89//89 42//42
f 89//89 19//19 73//73
f 73//73 16//16 89//89
f 18//18 73//73 19//19
f 18//18 19//19 42//42
f 265//265 300//300 275//275
f 300//300 265//265 264//264
f 264//264 267//267 300//300
f 276//276 300//300 267//267
f 300//300 276//276 278//278
f 278//278 275//275 300//300
f 275//275 278//278 277//277
f 277//277 278//278 280//280
f 279//279 264//264 265//265
f 266//266 264//264 279//279
f 264//264 266//266 281//281
f 281//281 268//268 264//264
f 267//267 264//264 268//268
f 268//268 285//285 267//267
f 286//286 267//267 285//285
f 267//267 286//286 276//276
f 287//287 276//276 286//286
f 276//276 287//287 282//282
f 282//282 278//278 276//276
f 280//280 281//281 266//266
f 281//281 280//280 278//278
f 278//278 282//282 281//281
f 268//268 281//281 282//282
f 282//282 284//284 268//268
f 285//285 268//268 284//284
f 284//284 283//283 285//285
f 271//271 285//285 283//283
f 285//285 271//271 286//286
f 270//270 286//286 271//271
f 286//286 270//270 287//287
f 269//269 287//287 270//270
f 287//287 269//269 284//284
f 284//284 282//282 287//287
f 283//283 284//284 269//269
f 269//269 288//288 283//283
f 272//272 283//283 288//288
f 283//283 272//272 271//271
f 273//273 271//271 272//272
f 271//271 273//273 270//270
f 289//289 270//270 273//273
f 270//270 289//289 269//269
f 288//288 269//269 289//289
f 289//289 233//233 288//288
f 274//274 288//288 233//233
f 288//288 274//274 272//272
f 251//251 272//272 274//274
f 272//272 251//251 273//273
f 232//232 273//273 251//251
f 273//273 232//232 289//289
f 233//233 289//289 232//232
f 232//232 242//242 233//233
f 263//263 233//233 242//242
f 233//233 263//263 274//274
f 262//262 274//274 263//263
f 250//250 274//274 262//262
f 274//274 250//250 251//251
f 252//252 251//251 250//250
f 251//251 252//252 232//232
f 234//234 232//232 252//252
f 232//232 234//234 253//253
f 242//242 232//232 253//253
f 242//242 253//253 250//250
f 250//250 2//2 242//242
f 246//246 242//242 2//2
f 242//242 246//246 263//263
f 245//245 263//263 246//246
f 263//263 245//245 262//262
f 250//250 249//249 252//252
f 235//235 252//252 249//249
f 252//252 235//235 234//234
f 248//248 234//234 235//235
f 234//234 248//248 253//253
f 247//247 253//253 248//248
f 253//253 247//247 250//250
f 249//249 250//250 247//247
f 247//247 254//254 249//249
f 236//236 249//249 254//254
f 249//249 236//236 235//235
f 260//260 235//235 236//236
f 235//235 260//260 248//248
f 248//248 260//260 247//247
f 254//254 247//247 260//260
f 260//260 257//257 254//254
f 258//258 254//254 257//257
f 254//254 258//258 236//236
f 259//259 236//236 258//258
f 236//236 259//259 260//260
f 257//257 260//260 259//259
f 259//259 237//237 257//257
f 239//239 257//257 237//237
f 257//257 239//239 258//258
f 238//238 258//258 239//239
f 258//258 238//238 259//259
f 237//237 259//259 238//238
f 238//238 261//261 237//237
f 255//255 237//237 261//261
f 237//237 255//255 239//239
f 240//240 239//239 255//255
f 239//239 240//240 238//238
f 261//261 238//238 240//240
f 240//240 256//256 261//261
f 243//243 261//261 256//256
f 261//261 243//243 255//255
f 241//241 255//255 243//243
f 255//255 241//241 240//240
f 256//256 240//240 241//241
f 241//241 243//243 256//256
f 244//244 262//262 245//245
f 262//262 244//244 250//250
f 2//2 250//250 244//244
f 244//244 246//246 2//2
f 245//245 246//246 244//244
f 357//357 348//348 351//351
f 348//348 357//357 356//356
f 356//356 359//359 348//348
f 350//350 348//348 359//359
f 348//348 350//350 381//381
f 381//381 351//351 348//348
f 351//351 381//381 382//382
f 355//355 382//382 381//381
f 382//382 355//355 361//361
f 343//343 356//356 357//357
f 356//356 343//343 349//349
f 349//349 383//383 356//356
f 359//359 356//356 383//383
f 383//383 390//390 359//359
f 384//384 359//359 390//390
f 359//359 384//384 350//350
f 386//386 350//350 384//384
f 350//350 386//386 387//387
f 387//387 381//381 350//350
f 381//381 387//387 355//355
f 358//358 349//349 343//343
f 349//349 358//358 362//362
f 362//362 389//389 349//349
f 383//383 349//349 389//389
f 389//389 394//394 383//383
f 390//390 383//383 394//394
f 394//394 399//399 390//390
f 395//395 390//390 399//399
f 390//390 395//395 384//384
f 385//385 384//384 395//395
f 384//384 385//385 386//386
f 361//361 362//362 358//358
f 362//362 361//361 355//355
f 355//355 388//388 362//362
f 389//389 362//362 388//388
f 388//388 393//393 389//389
f 394//394 389//389 393//393
f 393//393 398//398 394//394
f 399//399 394//394 398//398
f 388//388 355//355 387//387
f 387//387 392//392 388//388
f 393//393 388//388 392//392
f 392//392 397//397 393//393
f 398//398 393//393 397//397
f 397//397 364//364 398//398
f 369//369 398//398 364//364
f 398//398 369//369 399//399
f 392//392 387//387 386//386
f 386//386 391//391 392//392
f 397//397 392//392 391//391
f 391//391 353//353 397//397
f 364//364 397//397 353//353
f 353//353 363//363 364//364
f 373//373 364//364 363//363
f 364//364 373//373 369//369
f 374//374 369//369 373//373
f 369//369 374//374 370//370
f 370//370 399//399 369//369
f 391//391 386//386 385//385
f 385//385 291//291 391//391
f 408//408 391//391 291//291
f 391//391 408//408 352//352
f 352//352 354//354 391//391
f 353//353 391//391 354//354
f 354//354 367//367 353//353
f 363//363 353//353 367//367
f 291//291 385//385 290//290
f 290//290 305//305 291//291
f 306//306 291//291 305//305
f 291//291 306//306 408//408
f 308//308 408//408 306//306
f 408//408 308//308 309//309
f 309//309 352//352 408//408
f 395//395 290//290 385//385
f 290//290 395//395 307//307
f 307//307 303//303 290//290
f 305//305 290//290 303//303
f 303//303 310//310 305//305
f 305//305 310//310 306//306
f 294//294 306//306 310//310
f 306//306 294//294 308//308
f 293//293 308//308 294//294
f 308//308 293//293 304//304
f 304//304 309//309 308//308
f 399//399 307//307 395//395
f 307//307 399//399 292//292
f 292//292 303//303 307//307
f 303//303 292//292 304//304
f 304//304 316//316 303//303
f 310//310 303//303 316//316
f 316//316 295//295 310//310
f 313//313 310//310 295//295
f 310//310 313//313 294//294
f 314//314 294//294 313//313
f 294//294 314//314 293//293
f 365//365 292//292 399//399
f 292//292 365//365 309//309
f 309//309 304//304 292//292
f 399//399 366//366 365//365
f 360//360 365//365 366//366
f 365//365 360//360 352//352
f 352//352 309//309 365//365
f 399//399 370//370 366//366
f 360//360 366//366 370//370
f 370//370 374//374 360//360
f 371//371 360//360 374//374
f 360//360 371//371 354//354
f 354//354 352//352 360//360
f 374//374 376//376 371//371
f 371//371 376//376 367//367
f 367//367 354//354 371//371
f 376//376 374//374 375//375
f 375//375 378//378 376//376
f 379//379 376//376 378//378
f 376//376 379//379 372//372
f 372//372 367//367 376//376
f 367//367 372//372 363//363
f 368//368 363//363 372//372
f 363//363 368//368 373//373
f 373//373 375//375 374//374
f 375//375 373//373 368//368
f 368//368 377//377 375//375
f 378//378 375//375 377//377
f 377//377 396//396 378//378
f 402//402 378//378 396//396
f 378//378 402//402 379//379
f 403//403 379//379 402//402
f 379//379 403//403 380//380
f 380//380 372//372 379//379
f 372//372 380//380 368//368
f 377//377 368//368 380//380
f 380//380 400//400 377//377
f 396//396 377//377 400//400
f 400//400 405//405 396//396
f 401//401 396//396 405//405
f 396//396 401//401 402//402
f 404//404 402//402 401//401
f 402//402 404//404 403//403
f 403//403 404//404 400//400
f 400//400 380//380 403//403
f 405//405 400//400 404//404
f 404//404 407//407 405//405
f 409//409 405//405 407//407
f 405//405 409//409 401//401
f 406//406 401//401 409//409
f 401//401 406//406 404//404
f 407//407 404//404 406//406
f 406//406 409//409 407//407
f 316//316 304//304 293//293
f 293//293 315//315 316//316
f 295//295 316//316 315//315
f 315//315 296//296 295//295
f 317//317 295//295 296//296
f 295//295 317//317 313//313
f 311//311 313//313 317//317
f 313//313 311//311 314//314
f 315//315 293//293 314//314
f 314//314 297//297 315//315
f 296//296 315//315 297//297
f 297//297 299//299 296//296
f 298//298 296//296 299//299
f 296//296 298//298 317//317
f 312//312 317//317 298//298
f 317//317 312//312 311//311
f 312//312 299//299 311//311
f 297//297 311//311 299//299
f 297//297 314//314 311//311
f 312//312 302//302 299//299
f 302//302 312//312 318//318
f 318//318 301//301 302//302
f 301//301 299//299 302//302
f 299//299 301//301 298//298
f 318//318 298//298 301//301
f 298//298 318//318 312//312
f 320//320 466//466 336//336
f 466//466 320//320 319//319
f 319//319 325//325 466//466
f 324//324 466//466 325//325
f 466//466 324//324 337//337
f 337//337 336//336 466//466
f 336//336 337//337 338//338
f 333//333 338//338 337//337
f 338//338 333//333 339//339
f 330//330 319//319 320//320
f 319//319 330//330 321//321
f 321//321 334//334 319//319
f 325//325 319//319 334//334
f 334//334 341//341 325//325
f 335//335 325//325 341//341
f 325//325 335//335 324//324
f 344//344 324//324 335//335
f 324//324 344//344 345//345
f 345//345 337//337 324//324
f 337//337 345//345 333//333
f 332//332 321//321 330//330
f 331//331 321//321 332//332
f 321//321 331//331 329//329
f 329//329 334//334 321//321
f 334//334 329//329 340//340
f 340//340 347//347 334//334
f 341//341 334//334 347//347
f 347//347 344//344 341//341
f 341//341 344//344 335//335
f 328//328 329//329 331//331
f 329//329 328//328 327//327
f 327//327 340//340 329//329
f 340//340 327//327 346//346
f 346//346 342//342 340//340
f 347//347 340//340 342//342
f 344//344 347//347 342//342
f 342//342 346//346 344//344
f 345//345 344//344 346//346
f 346//346 322//322 345//345
f 333//333 345//345 322//322
f 322//322 323//323 333//333
f 339//339 333//333 323//323
f 326//326 327//327 328//328
f 327//327 326//326 322//322
f 322//322 346//346 327//327
f 323//323 322//322 326//326
f 442//442 443//443 452//452
f 443//443 442//442 440//440
f 440//440 454//454 443//443
f 451//451 443//443 454//454
f 443//443 451//451 453//453
f 453//453 452//452 443//443
f 452//452 453//453 450//450
f 449//449 450//450 453//453
f 450//450 449//449 448//448
f 441//441 440//440 442//442
f 440//440 441//441 469//469
f 469//469 454//454 440//440
f 454//454 469//469 456//456
f 456//456 462//462 454//454
f 459//459 454//454 462//462
f 454//454 459//459 451//451
f 457//457 451//451 459//459
f 451//451 457//457 458//458
f 458//458 453//453 451//451
f 453//453 458//458 449//449
f 468//468 469//469 441//441
f 467//467 469//469 468//468
f 469//469 467//467 444//444
f 444//444 456//456 469//469
f 456//456 444//444 455//455
f 455//455 461//461 456//456
f 462//462 456//456 461//461
f 462//462 461//461 459//459
f 459//459 461//461 457//457
f 461//461 460//460 457//457
f 460//460 458//458 457//457
f 458//458 460//460 455//455
f 455//455 446//446 458//458
f 449//449 458//458 446//446
f 447//447 444//444 467//467
f 444//444 447//447 446//446
f 446//446 455//455 444//444
f 445//445 446//446 447//447
f 446//446 445//445 449//449
f 448//448 449//449 445//445
f 461//461 455//455 460//460
f 419//419 410//410 429//429
f 410//410 419//419 412//412
f 412//412 432//432 410//410
f 428//428 410//410 432//432
f 410//410 428//428 430//430
f 430//430 429//429 410//410
f 429//429 430//430 431//431
f 423//423 431//431 430//430
f 431//431 423//423 427//427
f 421//421 412//412 419//419
f 412//412 421//421 420//420
f 420//420 432//432 412//412
f 432//432 420//420 435//435
f 435//435 438//438 432//432
f 439//439 432//432 438//438
f 432//432 439//439 428//428
f 436//436 428//428 439//439
f 428//428 436//436 437//437
f 437//437 430//430 428//428
f 430//430 437//437 423//423
f 417//417 420//420 421//421
f 418//418 420//420 417//417
f 420//420 418//418 416//416
f 416//416 435//435 420//420
f 435//435 416//416 434//434
f 434//434 465//465 435//435
f 438//438 435//435 465//465
f 465//465 436//436 438//438
f 438//438 436//436 439//439
f 413//413 416//416 418//418
f 416//416 413//413 414//414
f 414//414 434//434 416//416
f 422//422 434//434 414//414
f 434//434 422//422 433//433
f 433//433 464//464 434//434
f 465//465 434//434 464//464
f 464//464 436//436 465//465
f 463//463 436//436 464//464
f 463//463 437//437 436//436
f 415//415 414//414 413//413
f 414//414 415//415 422//422
f 426//426 422//422 415//415
f 422//422 426//426 425//425
f 425//425 433//433 422//422
f 433//433 425//425 437//437
f 437//437 463//463 433//433
f 464//464 433//433 463//463
f 424//424 425//425 426//426
f 425//425 424//424 423//423
f 423//423 437//437 425//425
f 427//427 423//423 424//424
f 647//647 648//648 688//688
f 648//648 647//647 654//654
f 654//654 685//685 648//648
f 690//690 648//648 685//685
f 648//648 690//690 684//684
f 684//684 688//688 648//648
f 688//688 684//684 674//674
f 672//672 674//674 684//684
f 674//674 672//672 673//673
f 649//649 654//654 647//647
f 654//654 649//649 656//656
f 656//656 689//689 654//654
f 685//685 654//654 689//689
f 689//689 682//682 685//685
f 679//679 685//685 682//682
f 685//685 679//679 690//690
f 680//680 690//690 679//679
f 690//690 680//680 678//678
f 678//678 684//684 690//690
f 684//684 678//678 672//672
f 655//655 656//656 649//649
f 656//656 655//655 653//653
f 653//653 692//692 656//656
f 689//689 656//656 692//692
f 692//692 681//681 689//689
f 682//682 689//689 681//681
f 681//681 598//598 682//682
f 599//599 682//682 598//598
f 682//682 599//599 679//679
f 600//600 679//679 599//599
f 679//679 600//600 680//680
f 652//652 653//653 655//655
f 653//653 652//652 651//651
f 651//651 691//691 653//653
f 692//692 653//653 691//691
f 691//691 683//683 692//692
f 681//681 692//692 683//683
f 683//683 602//602 681//681
f 598//598 681//681 602//602
f 602//602 634//634 598//598
f 630//630 598//598 634//634
f 598//598 630//630 599//599
f 650//650 651//651 652//652
f 651//651 650//650 657//657
f 657//657 693//693 651//651
f 691//691 651//651 693//693
f 693//693 588//588 691//691
f 683//683 691//691 588//588
f 588//588 606//606 683//683
f 602//602 683//683 606//606
f 606//606 633//633 602//602
f 634//634 602//602 633//633
f 633//633 622//622 634//634
f 634//634 622//622 630//630
f 661//661 657//657 650//650
f 657//657 661//661 660//660
f 660//660 696//696 657//657
f 693//693 657//657 696//696
f 696//696 587//587 693//693
f 588//588 693//693 587//587
f 587//587 605//605 588//588
f 606//606 588//588 605//605
f 605//605 632//632 606//606
f 633//633 606//606 632//632
f 632//632 624//624 633//633
f 622//622 633//633 624//624
f 659//659 660//660 661//661
f 660//660 659//659 658//658
f 658//658 695//695 660//660
f 696//696 660//660 695//695
f 695//695 594//594 696//696
f 587//587 696//696 594//594
f 594//594 604//604 587//587
f 605//605 587//587 604//604
f 604//604 635//635 605//605
f 632//632 605//605 635//635
f 635//635 623//623 632//632
f 624//624 632//632 623//623
f 662//662 658//658 659//659
f 658//658 662//662 666//666
f 666//666 694//694 658//658
f 695//695 658//658 694//694
f 694//694 589//589 695//695
f 594//594 695//695 589//589
f 589//589 603//603 594//594
f 604//604 594//594 603//603
f 603//603 637//637 604//604
f 635//635 604//604 637//637
f 637//637 626//626 635//635
f 623//623 635//635 626//626
f 665//665 666//666 662//662
f 666//666 665//665 664//664
f 664//664 697//697 666//666
f 694//694 666//666 697//697
f 697//697 596//596 694//694
f 589//589 694//694 596//596
f 596//596 607//607 589//589
f 603//603 589//589 607//607
f 607//607 636//636 603//603
f 637//637 603//603 636//636
f 636//636 625//625 637//637
f 626//626 637//637 625//625
f 663//663 664//664 665//665
f 664//664 663//663 667//667
f 667//667 699//699 664//664
f 697//697 664//664 699//699
f 699//699 595//595 697//697
f 596//596 697//697 595//595
f 595//595 610//610 596//596
f 607//607 596//596 610//610
f 610//610 639//639 607//607
f 636//636 607//607 639//639
f 639//639 627//627 636//636
f 625//625 636//636 627//627
f 671//671 667//667 663//663
f 667//667 671//671 670//670
f 670//670 698//698 667//667
f 699//699 667//667 698//698
f 698//698 593//593 699//699
f 595//595 699//699 593//593
f 593//593 609//609 595//595
f 610//610 595//595 609//609
f 609//609 638//638 610//610
f 639//639 610//610 638//638
f 638//638 640//640 639//639
f 627//627 639//639 640//640
f 669//669 670//670 671//671
f 670//670 669//669 687//687
f 687//687 677//677 670//670
f 698//698 670//670 677//677
f 677//677 592//592 698//698
f 593//593 698//698 592//592
f 592//592 608//608 593//593
f 609//609 593//593 608//608
f 608//608 614//614 609//609
f 638//638 609//609 614//614
f 614//614 643//643 638//638
f 640//640 638//638 643//643
f 686//686 687//687 669//669
f 687//687 686//686 668//668
f 668//668 676//676 687//687
f 677//677 687//687 676//676
f 676//676 591//591 677//677
f 592//592 677//677 591//591
f 591//591 629//629 592//592
f 608//608 592//592 629//629
f 629//629 615//615 608//608
f 614//614 608//608 615//615
f 615//615 643//643 614//614
f 673//673 668//668 686//686
f 668//668 673//673 672//672
f 672//672 675//675 668//668
f 676//676 668//668 675//675
f 675//675 590//590 676//676
f 591//591 676//676 590//590
f 590//590 628//628 591//591
f 629//629 591//591 628//628
f 628//628 617//617 629//629
f 615//615 629//629 617//617
f 617//617 642//642 615//615
f 643//643 615//615 642//642
f 675//675 672//672 678//678
f 678//678 597//597 675//675
f 590//590 675//675 597//597
f 597//597 631//631 590//590
f 628//628 590//590 631//631
f 631//631 616//616 628//628
f 617//617 628//628 616//616
f 616//616 641//641 617//617
f 642//642 617//617 641//641
f 641//641 550//550 642//642
f 546//546 642//642 550//550
f 642//642 546//546 643//643
f 597//597 678//678 680//680
f 680//680 601//601 597//597
f 631//631 597//597 601//601
f 601//601 613//613 631//631
f 616//616 631//631 613//613
f 613//613 618//618 616//616
f 641//641 616//616 618//618
f 618//618 644//644 641//641
f 550//550 641//641 644//644
f 644//644 549//549 550//550
f 555//555 550//550 549//549
f 550//550 555//555 546//546
f 601//601 680//680 600//600
f 600//600 612//612 601//601
f 613//613 601//601 612//612
f 612//612 621//621 613//613
f 618//618 613//613 621//621
f 621//621 490//490 618//618
f 491//491 618//618 490//490
f 618//618 491//491 645//645
f 645//645 646//646 618//618
f 644//644 618//618 646//646
f 612//612 600//600 611//611
f 611//611 620//620 612//612
f 621//621 612//612 620//620
f 620//620 489//489 621//621
f 490//490 621//621 489//489
f 489//489 505//505 490//490
f 490//490 505//505 491//491
f 499//499 491//491 505//505
f 491//491 499//499 493//493
f 493//493 645//645 491//491
f 599//599 611//611 600//600
f 611//611 599//599 630//630
f 630//630 619//619 611//611
f 620//620 611//611 619//619
f 619//619 488//488 620//620
f 489//489 620//620 488//488
f 488//488 504//504 489//489
f 505//505 489//489 504//504
f 504//504 512//512 505//505
f 507//507 505//505 512//512
f 505//505 507//507 499//499
f 619//619 630//630 622//622
f 622//622 475//475 619//619
f 488//488 619//619 475//475
f 475//475 503//503 488//488
f 504//504 488//488 503//503
f 503//503 516//516 504//504
f 512//512 504//504 516//516
f 516//516 523//523 512//512
f 519//519 512//512 523//523
f 512//512 519//519 507//507
f 475//475 622//622 476//476
f 476//476 494//494 475//475
f 503//503 475//475 494//494
f 494//494 502//502 503//503
f 516//516 503//503 502//502
f 502//502 522//522 516//516
f 523//523 516//516 522//522
f 522//522 528//528 523//523
f 525//525 523//523 528//528
f 523//523 525//525 519//519
f 624//624 476//476 622//622
f 476//476 624//624 486//486
f 486//486 494//494 476//476
f 494//494 486//486 500//500
f 500//500 508//508 494//494
f 502//502 494//494 508//508
f 508//508 522//522 502//502
f 522//522 508//508 515//515
f 515//515 530//530 522//522
f 528//528 522//522 530//530
f 530//530 526//526 528//528
f 528//528 526//526 525//525
f 623//623 486//486 624//624
f 486//486 623//623 492//492
f 492//492 500//500 486//486
f 500//500 492//492 506//506
f 506//506 508//508 500//500
f 508//508 506//506 513//513
f 513//513 515//515 508//508
f 515//515 513//513 520//520
f 520//520 529//529 515//515
f 530//530 515//515 529//529
f 529//529 526//526 530//530
f 626//626 492//492 623//623
f 492//492 626//626 498//498
f 498//498 506//506 492//492
f 497//497 506//506 498//498
f 506//506 497//497 511//511
f 511//511 513//513 506//506
f 513//513 511//511 518//518
f 518//518 520//520 513//513
f 520//520 518//518 524//524
f 524//524 411//411 520//520
f 529//529 520//520 411//411
f 411//411 526//526 529//529
f 534//534 498//498 626//626
f 498//498 534//534 497//497
f 536//536 497//497 534//534
f 497//497 536//536 496//496
f 496//496 511//511 497//497
f 511//511 496//496 510//510
f 510//510 518//518 511//511
f 518//518 510//510 517//517
f 517//517 524//524 518//518
f 626//626 541//541 534//534
f 535//535 534//534 541//541
f 534//534 535//535 536//536
f 537//537 536//536 535//535
f 536//536 537//537 539//539
f 539//539 496//496 536//536
f 496//496 539//539 477//477
f 477//477 510//510 496//496
f 510//510 477//477 495//495
f 495//495 517//517 510//510
f 541//541 626//626 545//545
f 545//545 552//552 541//541
f 553//553 541//541 552//552
f 541//541 553//553 535//535
f 554//554 535//535 553//553
f 535//535 554//554 537//537
f 537//537 554//554 540//540
f 540//540 539//539 537//537
f 539//539 540//540 533//533
f 533//533 477//477 539//539
f 625//625 545//545 626//626
f 545//545 625//625 544//544
f 544//544 552//552 545//545
f 552//552 544//544 573//573
f 573//573 561//561 552//552
f 562//562 552//552 561//561
f 552//552 562//562 553//553
f 553//553 562//562 554//554
f 557//557 554//554 562//562
f 554//554 557//557 551//551
f 551//551 540//540 554//554
f 627//627 544//544 625//625
f 544//544 627//627 543//543
f 543//543 573//573 544//544
f 573//573 543//543 556//556
f 556//556 559//559 573//573
f 561//561 573//573 559//559
f 559//559 565//565 561//561
f 566//566 561//561 565//565
f 561//561 566//566 562//562
f 563//563 562//562 566//566
f 562//562 563//563 557//557
f 640//640 543//543 627//627
f 543//543 640//640 542//542
f 542//542 556//556 543//543
f 556//556 542//542 555//555
f 555//555 577//577 556//556
f 559//559 556//556 577//577
f 577//577 564//564 559//559
f 565//565 559//559 564//564
f 564//564 583//583 565//565
f 581//581 565//565 583//583
f 565//565 581//581 566//566
f 643//643 542//542 640//640
f 542//542 643//643 546//546
f 546//546 555//555 542//542
f 572//572 566//566 581//581
f 566//566 572//572 563//563
f 570//570 563//563 572//572
f 563//563 570//570 558//558
f 558//558 575//575 563//563
f 557//557 563//563 575//575
f 575//575 551//551 557//557
f 581//581 482//482 572//572
f 470//470 572//572 482//482
f 572//572 470//470 570//570
f 471//471 570//570 470//470
f 570//570 471//471 571//571
f 571//571 558//558 570//570
f 558//558 571//571 578//578
f 578//578 576//576 558//558
f 575//575 558//558 576//576
f 482//482 581//581 472//472
f 472//472 474//474 482//482
f 473//473 482//482 474//474
f 482//482 473//473 470//470
f 478//478 470//470 473//473
f 470//470 478//478 471//471
f 479//479 471//471 478//478
f 471//471 479//479 586//586
f 586//586 571//571 471//471
f 583//583 472//472 581//581
f 472//472 583//583 582//582
f 582//582 484//484 472//472
f 474//474 472//472 484//484
f 484//484 485//485 474//474
f 474//474 485//485 473//473
f 473//473 485//485 478//478
f 478//478 485//485 479//479
f 479//479 485//485 480//480
f 480//480 586//586 479//479
f 586//586 480//480 584//584
f 584//584 568//568 586//586
f 571//571 586//586 568//568
f 567//567 582//582 583//583
f 582//582 567//567 585//585
f 585//585 483//483 582//582
f 484//484 582//582 483//483
f 483//483 485//485 484//484
f 481//481 485//485 483//483
f 480//480 485//485 481//481
f 481//481 584//584 480//480
f 584//584 481//481 585//585
f 585//585 569//569 584//584
f 568//568 584//584 569//569
f 583//583 564//564 567//567
f 580//580 567//567 564//564
f 567//567 580//580 569//569
f 569//569 585//585 567//567
f 564//564 577//577 580//580
f 560//560 580//580 577//577
f 580//580 560//560 579//579
f 579//579 569//569 580//580
f 569//569 579//579 568//568
f 578//578 568//568 579//579
f 568//568 578//578 571//571
f 577//577 555//555 560//560
f 549//549 560//560 555//555
f 560//560 549//549 574//574
f 574//574 579//579 560//560
f 579//579 574//574 578//578
f 576//576 578//578 574//574
f 574//574 548//548 576//576
f 547//547 576//576 548//548
f 576//576 547//547 575//575
f 551//551 575//575 547//547
f 548//548 574//574 549//549
f 549//549 644//644 548//548
f 646//646 548//548 644//644
f 532//532 548//548 646//646
f 548//548 532//532 547//547
f 538//538 547//547 532//532
f 547//547 538//538 551//551
f 540//540 551//551 538//538
f 538//538 533//533 540//540
f 533//533 538//538 531//531
f 531//531 487//487 533//533
f 477//477 533//533 487//487
f 646//646 645//645 532//532
f 531//531 532//532 645//645
f 532//532 531//531 538//538
f 645//645 493//493 531//531
f 487//487 531//531 493//493
f 493//493 495//495 487//487
f 487//487 495//495 477//477
f 495//495 493//493 499//499
f 499//499 501//501 495//495
f 517//517 495//495 501//501
f 501//501 509//509 517//517
f 524//524 517//517 509//509
f 509//509 527//527 524//524
f 411//411 524//524 527//527
f 527//527 526//526 411//411
f 501//501 499//499 507//507
f 507//507 514//514 501//501
f 509//509 501//501 514//514
f 514//514 526//526 509//509
f 527//527 509//509 526//526
f 514//514 507//507 519//519
f 519//519 521//521 514//514
f 526//526 514//514 521//521
f 525//525 526//526 521//521
f 521//521 519//519 525//525
f 483//483 585//585 481//481
