# Exported by s4extract — object_Food_Asado_lod00_g01
o object_Food_Asado_lod00_g01
v -0.102573 0.016602 0.071383
v 0.119877 0.014557 -0.037568
v -0.102908 0.014557 0.071718
v 0.103671 0.014557 -0.072085
v -0.066286 0.014557 -0.106510
v 0.109867 0.014557 0.060915
v -0.122837 0.014557 -0.025269
v 0.070376 0.000000 -0.048891
v -0.102573 0.016602 -0.071383
v -0.122837 0.014557 -0.025269
v 0.103671 0.014557 -0.072085
v -0.122410 0.016602 -0.025147
v 0.083956 0.000000 0.017212
v -0.066286 0.014557 0.106510
v 0.031587 0.014557 0.121525
v -0.018921 0.016602 -0.123539
v -0.066286 0.014557 -0.106510
v -0.066103 0.016602 -0.106052
v 0.076510 0.016602 -0.098819
v 0.031587 0.014557 -0.121525
v 0.031343 0.016602 -0.121006
v 0.076937 0.014557 -0.099246
v -0.018891 0.014557 -0.124058
v -0.018921 0.016602 -0.123539
v -0.018921 0.016602 0.123539
v -0.018891 0.014557 0.124058
v -0.066103 0.016602 0.106052
v -0.102908 0.014557 -0.071718
v -0.122410 0.016602 0.025147
v -0.122837 0.014557 0.025269
v 0.103122 0.016602 -0.071780
v 0.076937 0.014557 0.099246
v 0.031343 0.016602 0.121006
v 0.031587 0.014557 0.121525
v 0.109867 0.014557 0.060915
v 0.125004 0.014557 0.012696
v 0.124363 0.016602 0.012635
v 0.103122 0.016602 -0.071780
v 0.076510 0.016602 0.098819
v 0.076937 0.014557 0.099246
v 0.076510 0.016602 -0.098819
v 0.109287 0.016602 0.060640
v 0.119266 0.016602 -0.037416
v 0.031343 0.016602 -0.121006
v 0.119877 0.014557 -0.037568
v -0.018921 0.016602 0.123539
v -0.102573 0.016602 0.071383
v -0.066103 0.016602 0.106052
v 0.031343 0.016602 0.121006
v 0.109287 0.016602 0.060640
v 0.088473 0.007508 -0.018159
v 0.119266 0.016602 -0.037416
v 0.124363 0.016602 0.012635
v -0.013031 0.000000 0.085910
v -0.052248 0.000000 -0.067660
v 0.045412 0.000000 0.072604
v -0.039979 0.007508 0.081271
v -0.022797 0.007508 -0.087558
v -0.079226 0.007508 -0.043855
v 0.074129 0.007508 0.051729
v -0.066286 0.014557 0.106510
v -0.086459 0.007508 0.027131
v -0.122410 0.016602 0.025147
v -0.122410 0.016602 -0.025147
v -0.122837 0.014557 0.025269
v -0.102573 0.016602 -0.071383
v 0.125004 0.014557 0.012696
v -0.018891 0.014557 0.124058
v 0.013581 0.007508 0.089480
v 0.076510 0.016602 0.098819
v 0.076937 0.014557 -0.099246
v 0.013092 0.000000 -0.084567
v 0.031587 0.014557 -0.121525
v 0.047731 0.007508 -0.076724
v -0.018891 0.014557 -0.124058
v -0.084994 0.000000 -0.008667
v -0.102908 0.014557 -0.071718
v -0.066103 0.016602 -0.106052
v -0.102908 0.014557 0.071718
v -0.064791 0.000000 0.055727
vt 0.111545 0.228204
vt 0.955531 0.640269
vt 0.105889 0.224036
vt 0.893731 0.771670
vt 0.245566 0.902863
vt 0.917338 0.265118
vt 0.029888 0.593383
vt 0.737055 0.662447
vt 0.111545 0.766074
vt 0.029888 0.593383
vt 0.893731 0.771670
vt 0.036705 0.591894
vt 0.783079 0.438881
vt 0.245566 0.091415
vt 0.618782 0.034317
vt 0.427039 0.962461
vt 0.245566 0.902863
vt 0.249079 0.896641
vt 0.786919 0.869403
vt 0.618782 0.959960
vt 0.616550 0.952846
vt 0.791801 0.875208
vt 0.426295 0.969695
vt 0.427039 0.962461
vt 0.427039 0.031817
vt 0.426295 0.024553
vt 0.249079 0.097636
vt 0.105889 0.770241
vt 0.036705 0.402384
vt 0.029888 0.400895
vt 0.887271 0.767443
vt 0.791801 0.119070
vt 0.616550 0.041432
vt 0.618782 0.034317
vt 0.917338 0.265118
vt 0.975030 0.448764
vt 0.967320 0.449508
vt 0.887271 0.767443
vt 0.786919 0.124875
vt 0.791801 0.119070
vt 0.786919 0.869403
vt 0.910520 0.268690
vt 0.948119 0.638066
vt 0.616550 0.952846
vt 0.955531 0.640269
vt 0.427039 0.031817
vt 0.111545 0.228204
vt 0.249079 0.097636
vt 0.616550 0.041432
vt 0.910520 0.268690
vt 0.811627 0.561470
vt 0.948119 0.638066
vt 0.967320 0.449508
vt 0.454695 0.206651
vt 0.321924 0.725945
vt 0.652511 0.251573
vt 0.357230 0.210194
vt 0.417959 0.806530
vt 0.218357 0.652236
vt 0.760841 0.314564
vt 0.245566 0.091415
vt 0.192845 0.401461
vt 0.036705 0.402384
vt 0.036705 0.591894
vt 0.029888 0.400895
vt 0.111545 0.766074
vt 0.975030 0.448764
vt 0.426295 0.024553
vt 0.546622 0.181228
vt 0.786919 0.124875
vt 0.791801 0.875208
vt 0.543139 0.783161
vt 0.618782 0.959960
vt 0.667455 0.768366
vt 0.426295 0.969695
vt 0.211034 0.526402
vt 0.105889 0.770241
vt 0.249079 0.896641
vt 0.105889 0.224036
vt 0.279443 0.308670
vn -0.837059 0.219678 0.501072
vn 0.937625 0.295096 -0.183790
vn -0.760385 0.222337 0.610230
vn 0.277131 -0.941262 -0.192936
vn -0.179252 -0.940783 -0.287744
vn 0.274891 -0.946731 0.167736
vn -0.941571 0.212369 -0.261425
vn 0.184197 -0.974487 -0.128243
vn -0.837059 0.219678 -0.501072
vn -0.331984 -0.940815 -0.068214
vn 0.814582 0.292119 -0.501122
vn -0.968873 0.210253 -0.130684
vn 0.148047 -0.988700 0.023538
vn -0.174208 -0.942069 0.286632
vn 0.080464 -0.942057 0.325658
vn 0.038171 0.967819 0.248734
vn -0.457168 0.230511 -0.858989
vn -0.570110 0.230301 -0.788629
vn 0.500771 0.276293 -0.820299
vn 0.304656 0.268048 -0.913967
vn 0.177278 0.260268 -0.949122
vn 0.587749 0.281500 -0.758491
vn -0.081391 0.245602 -0.965948
vn -0.212560 0.239909 -0.947239
vn -0.212560 0.239909 0.947239
vn -0.081391 0.245602 0.965948
vn -0.570110 0.230301 0.788629
vn -0.760385 0.222337 -0.610230
vn -0.957312 0.211780 0.196729
vn -0.957313 0.211791 0.196716
vn 0.752872 0.290216 -0.590727
vn 0.207688 -0.940699 0.268238
vn 0.177278 0.260268 0.949122
vn 0.304656 0.268048 0.913967
vn 0.863989 0.298562 0.405442
vn 0.948952 0.300312 0.096454
vn 0.949045 0.299994 0.096526
vn -0.184028 0.974540 0.128085
vn 0.534732 0.278660 0.797754
vn 0.637001 0.285339 0.716109
vn -0.144171 0.966965 0.210224
vn 0.801680 0.294612 0.520109
vn 0.911431 0.294857 -0.286971
vn -0.049111 0.972130 0.229241
vn 0.309471 -0.948209 -0.071609
vn 0.038134 0.967855 -0.248600
vn 0.187619 0.971806 -0.142802
vn 0.133595 0.967596 -0.214268
vn -0.063110 0.967811 -0.243637
vn -0.219502 0.967969 -0.121877
vn -0.150744 0.987997 0.033736
vn -0.246785 0.967079 0.062098
vn -0.231611 0.972230 -0.033544
vn -0.016067 -0.994361 0.104826
vn -0.049081 -0.996360 -0.069698
vn 0.049426 -0.996528 0.066994
vn 0.055896 0.994402 -0.089669
vn 0.013152 0.998007 0.061717
vn 0.057334 0.997736 0.035166
vn -0.080458 0.995455 -0.050953
vn -0.457168 0.230511 0.858989
vn 0.153321 0.987331 -0.040869
vn 0.247566 0.967535 -0.050875
vn 0.232655 0.971832 0.037596
vn -0.312226 -0.946830 0.077643
vn 0.207045 0.967662 0.144095
vn 0.337403 -0.940736 0.034294
vn -0.053515 -0.935658 0.348827
vn -0.010423 0.999135 -0.040250
vn -0.135670 0.972071 -0.191500
vn 0.174550 -0.948234 -0.265299
vn 0.019599 -0.994969 -0.098243
vn 0.084944 -0.940825 -0.328074
vn -0.032105 0.998256 0.049542
vn -0.061784 -0.946782 -0.315890
vn -0.155974 -0.987494 -0.022982
vn -0.271416 -0.946817 -0.172832
vn 0.132824 0.971949 0.194098
vn -0.278099 -0.940844 0.193583
vn -0.198167 -0.969406 0.144850
f 35/35/35 42/42/42 40/40/40
f 35/35/35 37/37/37 42/42/42
f 36/36/36 37/37/37 35/35/35
f 36/36/36 2/2/2 37/37/37
f 37/37/37 2/2/2 43/43/43
f 2/2/2 11/11/11 43/43/43
f 43/43/43 11/11/11 31/31/31
f 11/11/11 22/22/22 31/31/31
f 31/31/31 22/22/22 19/19/19
f 22/22/22 20/20/20 19/19/19
f 19/19/19 20/20/20 21/21/21
f 20/20/20 23/23/23 21/21/21
f 21/21/21 23/23/23 24/24/24
f 23/23/23 17/17/17 24/24/24
f 24/24/24 17/17/17 18/18/18
f 17/17/17 28/28/28 18/18/18
f 18/18/18 28/28/28 9/9/9
f 28/28/28 7/7/7 9/9/9
f 9/9/9 7/7/7 12/12/12
f 7/7/7 30/30/30 12/12/12
f 12/12/12 30/30/30 29/29/29
f 30/30/30 1/1/1 29/29/29
f 3/3/3 1/1/1 30/30/30
f 3/3/3 27/27/27 1/1/1
f 61/61/61 27/27/27 3/3/3
f 61/61/61 25/25/25 27/27/27
f 26/26/26 25/25/25 61/61/61
f 26/26/26 33/33/33 25/25/25
f 34/34/34 33/33/33 26/26/26
f 34/34/34 39/39/39 33/33/33
f 40/40/40 39/39/39 34/34/34
f 40/40/40 42/42/42 39/39/39
f 52/52/52 38/38/38 51/51/51
f 51/51/51 38/38/38 74/74/74
f 74/74/74 60/60/60 51/51/51
f 60/60/60 53/53/53 51/51/51
f 53/53/53 52/52/52 51/51/51
f 74/74/74 38/38/38 41/41/41
f 74/74/74 41/41/41 44/44/44
f 74/74/74 44/44/44 58/58/58
f 58/58/58 69/69/69 74/74/74
f 74/74/74 69/69/69 60/60/60
f 69/69/69 70/70/70 60/60/60
f 70/70/70 50/50/50 60/60/60
f 50/50/50 53/53/53 60/60/60
f 58/58/58 44/44/44 16/16/16
f 58/58/58 16/16/16 78/78/78
f 58/58/58 78/78/78 59/59/59
f 59/59/59 69/69/69 58/58/58
f 57/57/57 69/69/69 59/59/59
f 57/57/57 46/46/46 69/69/69
f 46/46/46 49/49/49 69/69/69
f 49/49/49 70/70/70 69/69/69
f 59/59/59 78/78/78 66/66/66
f 59/59/59 66/66/66 64/64/64
f 59/59/59 64/64/64 62/62/62
f 57/57/57 59/59/59 62/62/62
f 62/62/62 47/47/47 57/57/57
f 48/48/48 57/57/57 47/47/47
f 46/46/46 57/57/57 48/48/48
f 62/62/62 64/64/64 63/63/63
f 62/62/62 63/63/63 47/47/47
f 75/75/75 55/55/55 5/5/5
f 75/75/75 72/72/72 55/55/55
f 56/56/56 55/55/55 72/72/72
f 54/54/54 55/55/55 56/56/56
f 54/54/54 76/76/76 55/55/55
f 77/77/77 55/55/55 76/76/76
f 5/5/5 55/55/55 77/77/77
f 73/73/73 72/72/72 75/75/75
f 71/71/71 72/72/72 73/73/73
f 71/71/71 8/8/8 72/72/72
f 13/13/13 72/72/72 8/8/8
f 56/56/56 72/72/72 13/13/13
f 6/6/6 56/56/56 13/13/13
f 6/6/6 32/32/32 56/56/56
f 32/32/32 15/15/15 56/56/56
f 15/15/15 54/54/54 56/56/56
f 4/4/4 8/8/8 71/71/71
f 4/4/4 45/45/45 8/8/8
f 45/45/45 13/13/13 8/8/8
f 45/45/45 67/67/67 13/13/13
f 67/67/67 6/6/6 13/13/13
f 15/15/15 68/68/68 54/54/54
f 14/14/14 54/54/54 68/68/68
f 14/14/14 80/80/80 54/54/54
f 80/80/80 76/76/76 54/54/54
f 65/65/65 76/76/76 80/80/80
f 10/10/10 76/76/76 65/65/65
f 77/77/77 76/76/76 10/10/10
f 79/79/79 80/80/80 14/14/14
f 65/65/65 80/80/80 79/79/79
