# Exported by s4extract — object_Food_Asado_lod00_g02
o object_Food_Asado_lod00_g02
v -0.036195 0.023347 -0.046175
v -0.019868 0.004852 -0.058229
v -0.025178 0.026795 -0.006531
v 0.008759 0.012391 0.006104
v 0.008759 0.012391 0.006104
v 0.005280 0.007019 0.014924
v 0.033418 0.011109 -0.035249
v 0.038575 0.007263 -0.026093
v -0.010681 0.007263 -0.000214
v -0.008728 0.011109 0.005768
v 0.023621 0.020783 0.007141
v 0.081942 0.008789 0.052461
v 0.051607 0.008057 -0.045412
v 0.020386 0.003204 -0.002258
v 0.092715 0.010559 0.025056
v 0.020386 0.003204 -0.002258
v 0.090976 0.027772 0.026337
v 0.054842 0.025605 -0.035981
v 0.054842 0.025605 -0.035981
v 0.023621 0.020783 0.007141
v 0.057558 0.007477 0.061586
v 0.092715 0.010559 0.025056
v 0.051607 0.008057 -0.045412
v 0.020386 0.003204 -0.002258
v 0.055788 0.024720 0.062838
v 0.042848 0.007416 -0.018372
v 0.023621 0.020783 0.007141
v 0.092715 0.010559 0.025056
v 0.090976 0.027772 0.026337
v 0.042848 0.007416 -0.018372
v -0.008698 0.017060 0.051088
v -0.037751 0.006165 0.051881
v 0.001068 0.007447 -0.002686
v 0.092715 0.010559 0.025056
v 0.054842 0.025605 -0.035981
v 0.090976 0.027772 0.026337
v 0.051607 0.008057 -0.045412
v 0.001068 0.007447 -0.002686
v -0.009003 0.036500 -0.027558
v -0.025178 0.026795 -0.006531
v 0.057558 0.007477 0.061586
v 0.030946 0.005310 -0.007324
v 0.081942 0.008789 0.052461
v 0.018097 0.024384 -0.017975
v -0.022980 0.020661 -0.065065
v -0.022980 0.020661 -0.065065
v -0.022980 0.020661 -0.065065
v 0.019196 0.006165 0.006287
v -0.050142 0.013642 0.019532
v -0.026582 0.006317 -0.005188
v -0.059847 0.005585 -0.029084
v 0.030946 0.005310 -0.007324
v 0.046083 0.024995 -0.008942
v 0.042848 0.007416 -0.018372
v -0.087649 0.008087 -0.011628
v -0.013153 0.007172 0.070498
v -0.070772 0.013489 -0.006989
v -0.027314 0.007141 0.027070
v -0.002045 0.023438 -0.063570
v -0.019868 0.004852 -0.058229
v -0.017914 0.038667 -0.052614
v 0.001068 0.007447 -0.002686
v 0.055788 0.024720 0.062838
v 0.033815 0.007904 -0.045534
v 0.033418 0.011109 -0.035249
v 0.038575 0.007263 -0.026093
v -0.022980 0.020661 -0.065065
v -0.017914 0.038667 -0.052614
v -0.036195 0.023347 -0.046175
v -0.025178 0.026795 -0.006531
v -0.009003 0.036500 -0.027558
v 0.018097 0.024384 -0.017975
v 0.055788 0.024720 0.062838
v 0.034181 0.022889 0.002106
v 0.080203 0.026032 0.053743
v -0.002808 0.007385 0.007660
v -0.008728 0.011109 0.005768
v 0.057558 0.007477 0.061586
v -0.010681 0.007263 -0.000214
v 0.080203 0.026032 0.053743
v 0.034181 0.022889 0.002106
v 0.046083 0.024995 -0.008942
v 0.027253 0.007385 -0.034425
v 0.002716 0.005982 -0.002533
v -0.002808 0.007385 0.007660
v -0.062105 0.007202 0.036409
v -0.003052 0.016755 0.061831
v 0.002716 0.005982 -0.002533
v 0.027253 0.007385 -0.034425
v -0.012238 0.007904 0.010193
v 0.019196 0.006165 0.006287
v -0.044740 0.016236 -0.015442
v -0.034822 0.005432 -0.021943
v 0.015748 0.007752 0.064089
v 0.015748 0.007752 0.064089
v 0.012909 0.005829 0.039064
v -0.022523 0.006714 0.030946
v 0.022156 0.006439 0.051241
v 0.018097 0.024384 -0.017975
v -0.002045 0.023438 -0.063570
v -0.009003 0.036500 -0.027558
v -0.003052 0.016755 0.061831
v -0.037629 0.013550 -0.104862
v -0.071078 0.030793 -0.059725
v -0.034425 0.014527 -0.036958
v -0.033662 0.029908 -0.109592
v -0.034425 0.014527 -0.036958
v -0.044130 0.039186 -0.060518
v -0.044130 0.039186 -0.060518
v -0.033662 0.029908 -0.109592
v -0.015839 0.026826 -0.098575
v -0.031251 0.045259 -0.093356
v -0.033662 0.029908 -0.109592
v -0.034425 0.014527 -0.036958
v -0.015839 0.026826 -0.098575
v -0.071078 0.030793 -0.059725
v -0.034425 0.014527 -0.036958
v -0.037629 0.013550 -0.104862
v -0.057619 0.007935 -0.040407
v -0.085482 0.010071 0.071566
v 0.060549 0.009461 -0.049135
v 0.079470 0.034089 -0.047700
v 0.054994 0.025758 -0.046815
v 0.036042 0.022919 0.063784
v 0.065859 0.013794 0.055361
v 0.085025 0.017792 -0.049989
v -0.037629 0.013550 -0.104862
v -0.057619 0.007935 -0.040407
v -0.033662 0.029908 -0.109592
v -0.071078 0.030793 -0.059725
v -0.053255 0.035188 -0.098300
v -0.071078 0.030793 -0.059725
v -0.044130 0.039186 -0.060518
v -0.037629 0.013550 -0.104862
v -0.053255 0.035188 -0.098300
v -0.031251 0.045259 -0.093356
v -0.044130 0.039186 -0.060518
v -0.078188 0.019562 -0.039338
v -0.002136 0.022736 -0.031404
v -0.017792 0.038362 -0.053224
v -0.057619 0.007935 -0.040407
v -0.002136 0.022736 -0.031404
v -0.014008 0.003357 -0.053255
v -0.025605 0.022523 -0.068422
v -0.014008 0.003357 -0.053255
v -0.085482 0.010071 0.071566
v -0.092105 0.028748 0.051454
v -0.030122 0.012238 -0.003327
v -0.017792 0.038362 -0.053224
v -0.092502 0.024842 0.074099
v 0.029847 0.032624 -0.092868
v 0.016083 0.027070 -0.108188
v 0.008271 0.044130 -0.095248
v -0.006470 0.025727 -0.103153
v 0.016083 0.027070 -0.108188
v -0.025605 0.022523 -0.068422
v -0.081179 0.043764 0.067385
v -0.092502 0.024842 0.074099
v -0.092105 0.028748 0.051454
v -0.065188 0.034913 -0.022523
v -0.045839 0.004944 -0.032350
v -0.120670 0.027589 -0.001068
v -0.109653 0.024812 0.016327
v -0.074557 0.028901 0.085208
v -0.092502 0.024842 0.074099
v -0.030122 0.012238 -0.003327
v -0.056093 0.026399 -0.003540
v -0.046937 0.040284 0.016480
v -0.019501 0.027772 0.016907
v -0.039125 0.022095 -0.015046
v 0.016785 0.011200 -0.101352
v -0.065188 0.034913 -0.022523
v 0.008271 0.044130 -0.095248
v 0.016083 0.027070 -0.108188
v -0.006470 0.025727 -0.103153
v -0.045839 0.004944 -0.032350
v -0.109653 0.024812 0.016327
v -0.056093 0.026399 -0.003540
v -0.056093 0.026399 -0.003540
v -0.019501 0.027772 0.016907
v -0.046937 0.040284 0.016480
v -0.046937 0.040284 0.016480
v -0.030122 0.012238 -0.003327
v -0.019501 0.027772 0.016907
v -0.019501 0.027772 0.016907
v -0.074557 0.028901 0.085208
v -0.092502 0.024842 0.074099
v -0.081179 0.043764 0.067385
v -0.085482 0.010071 0.071566
v -0.078188 0.019562 -0.039338
v -0.108158 0.011872 0.009033
v -0.039125 0.022095 -0.015046
v 0.109958 0.016144 0.039796
v 0.039888 0.011414 0.099094
v -0.019105 0.011902 0.112552
v -0.045839 0.004944 -0.032350
v -0.065188 0.034913 -0.022523
v -0.039125 0.022095 -0.015046
v -0.078188 0.019562 -0.039338
v -0.108158 0.011872 0.009033
v -0.086795 0.026917 0.015198
v -0.023743 0.001984 -0.048616
v 0.016327 0.005371 -0.037172
v 0.000488 0.031343 -0.027284
v -0.068300 0.007080 -0.020905
v -0.109653 0.024812 0.016327
v 0.016785 0.011200 -0.101352
v 0.029847 0.032624 -0.092868
v -0.100681 0.039583 0.004822
v -0.068300 0.007080 -0.020905
v -0.120670 0.027589 -0.001068
v -0.109653 0.024812 0.016327
v -0.100681 0.039583 0.004822
v -0.086795 0.026917 0.015198
v 0.016083 0.027070 -0.108188
v -0.002136 0.022736 -0.031404
v 0.109958 0.016144 0.039796
v 0.085025 0.017792 -0.049989
v 0.064119 0.009827 0.063662
v 0.064119 0.009827 0.063662
v 0.037843 0.016388 -0.024384
v 0.001434 0.029725 0.094241
v 0.043367 0.000671 -0.022095
v 0.089297 0.016541 0.063082
v 0.043367 0.000671 -0.022095
v 0.060549 0.009461 -0.049135
v -0.000671 0.021180 -0.028138
v 0.041322 0.006714 0.060518
v 0.060610 0.030000 0.058657
v 0.060549 0.009461 -0.049135
v 0.037843 0.016388 -0.024384
v 0.033784 0.006195 0.048128
v 0.052858 0.008087 0.072817
v -0.069643 0.007538 0.074923
v 0.085025 0.017792 -0.049989
v 0.039888 0.011414 0.099094
v -0.038728 0.007538 0.031892
v -0.010224 0.029786 0.072359
v -0.025605 0.022523 -0.068422
v -0.014008 0.003357 -0.053255
v -0.017792 0.038362 -0.053224
v 0.028199 0.007080 0.041322
v 0.035768 0.039430 -0.058596
v 0.036042 0.022919 0.063784
v 0.017273 0.014527 -0.056581
v 0.041047 0.023194 -0.061861
v 0.054994 0.025758 -0.046815
v 0.089297 0.016541 0.063082
v -0.041261 0.021119 -0.013672
v 0.029481 0.007538 -0.010376
v 0.028199 0.007080 0.041322
v -0.027589 0.008240 0.056154
v -0.008332 0.028962 0.028840
v 0.104404 0.032441 0.042085
v 0.079470 0.034089 -0.047700
v 0.079470 0.034089 -0.047700
v 0.001434 0.029725 0.094241
v 0.104404 0.032441 0.042085
v 0.011994 0.030732 -0.053285
v 0.041322 0.006714 0.060518
v 0.079318 0.021760 0.030366
v -0.000671 0.021180 -0.028138
v 0.004639 0.004944 -0.031404
v 0.074007 0.037965 0.033631
v 0.079318 0.021760 0.030366
v 0.041047 0.023194 -0.061861
v 0.074007 0.037965 0.033631
v 0.011994 0.030732 -0.053285
v 0.104404 0.032441 0.042085
v 0.065859 0.013794 0.055361
v 0.041047 0.023194 -0.061861
v 0.035768 0.039430 -0.058596
v 0.074007 0.037965 0.033631
v 0.035768 0.039430 -0.058596
v 0.079318 0.021760 0.030366
v 0.037843 0.016388 -0.024384
v 0.089297 0.016541 0.063082
v 0.043367 0.000671 -0.022095
v 0.004639 0.004944 -0.031404
v 0.036042 0.022919 0.063784
v 0.060610 0.030000 0.058657
v 0.017273 0.014527 -0.056581
v 0.011994 0.030732 -0.053285
v 0.017273 0.014527 -0.056581
v -0.000671 0.021180 -0.028138
v 0.109958 0.016144 0.039796
v 0.004639 0.004944 -0.031404
v 0.041322 0.006714 0.060518
v 0.064119 0.009827 0.063662
vt 0.670772 0.583210
vt 0.735450 0.583210
vt 0.670772 0.669898
vt 0.373521 0.834934
vt 0.373521 0.834934
vt 0.403903 0.843997
vt 0.151185 0.813345
vt 0.148114 0.787570
vt 0.370420 0.809159
vt 0.373521 0.834934
vt 0.200115 0.794074
vt 0.127127 0.908223
vt 0.031255 0.732257
vt 0.032519 0.561982
vt 0.197375 0.745536
vt 0.200115 0.731956
vt 0.198639 0.556893
vt 0.197375 0.815724
vt 0.031225 0.793833
vt 0.031225 0.769986
vt 0.011171 0.909307
vt 0.239891 0.908223
vt 0.198639 0.556893
vt 0.239891 0.908223
vt 0.011171 0.993948
vt 0.117913 0.532534
vt 0.239891 0.992864
vt 0.197375 0.745536
vt 0.239891 0.992864
vt 0.117913 0.532534
vt 0.757671 0.254734
vt 0.875223 0.163349
vt 0.735450 0.696907
vt 0.239891 0.908223
vt 0.011171 0.992864
vt 0.239891 0.992864
vt 0.011171 0.908223
vt 0.320466 0.901237
vt 0.412002 0.816898
vt 0.410888 0.901508
vt 0.031225 0.796453
vt 0.075216 0.547258
vt 0.116618 0.809280
vt 0.320557 0.815182
vt 0.626510 0.546987
vt 0.626510 0.546987
vt 0.626510 0.546987
vt 0.356057 0.849206
vt 0.304719 0.306042
vt 0.170064 0.398512
vt 0.081630 0.201017
vt 0.158713 0.732016
vt 0.117311 0.793954
vt 0.117311 0.732107
vt 0.215622 0.078557
vt 0.847883 0.320827
vt 0.214959 0.185962
vt 0.325103 0.428653
vt 0.571107 0.583210
vt 0.513595 0.583210
vt 0.621602 0.583210
vt 0.513595 0.690494
vt 0.032519 0.561982
vt 0.181567 0.822408
vt 0.151185 0.813345
vt 0.148114 0.787570
vt 0.626510 0.546987
vt 0.621602 0.583210
vt 0.670772 0.583210
vt 0.670772 0.669898
vt 0.621602 0.628647
vt 0.571107 0.658125
vt 0.009906 0.992864
vt 0.158713 0.794014
vt 0.127127 0.992864
vt 0.356057 0.849206
vt 0.373521 0.834934
vt 0.009906 0.908223
vt 0.370420 0.809159
vt 0.117913 0.532534
vt 0.075517 0.758634
vt 0.131131 0.756888
vt 0.133751 0.827587
vt 0.370420 0.809159
vt 0.356057 0.849206
vt 0.413689 0.271747
vt 0.769354 0.310439
vt 0.370420 0.809159
vt 0.133751 0.827587
vt 0.403903 0.843997
vt 0.356057 0.849206
vt 0.161362 0.289994
vt 0.092469 0.335912
vt 0.703021 0.390292
vt 0.703021 0.390292
vt 0.620669 0.275059
vt 0.743339 0.114389
vt 0.630063 0.358646
vt 0.571107 0.658125
vt 0.571107 0.583210
vt 0.621602 0.628647
vt 0.769354 0.310439
vt 0.735450 0.583210
vt 0.670772 0.749541
vt 0.595376 0.792749
vt 0.626510 0.546987
vt 0.595376 0.792749
vt 0.621602 0.748336
vt 0.621602 0.748336
vt 0.626510 0.546987
vt 0.571107 0.583210
vt 0.621602 0.583210
vt 0.626510 0.546987
vt 0.320557 0.815182
vt 0.571107 0.583210
vt 0.410888 0.901508
vt 0.595376 0.792749
vt 0.513595 0.583210
vt 0.592696 0.770166
vt 0.986632 0.558820
vt 0.127127 0.909518
vt 0.009906 0.993617
vt 0.127127 0.993767
vt 0.009906 0.992864
vt 0.127127 0.908223
vt 0.009906 0.909729
vt 0.513595 0.583210
vt 0.735450 0.746981
vt 0.626510 0.546987
vt 0.670772 0.749541
vt 0.670772 0.583210
vt 0.670772 0.749541
vt 0.621602 0.748336
vt 0.735450 0.583210
vt 0.670772 0.583210
vt 0.621602 0.583210
vt 0.412002 0.816898
vt 0.422150 0.684201
vt 0.595376 0.792749
vt 0.621602 0.748336
vt 0.320466 0.901237
vt 0.595376 0.792749
vt 0.735450 0.746981
vt 0.670772 0.749541
vt 0.592696 0.770166
vt 0.763694 0.558820
vt 0.814821 0.558820
vt 0.763694 0.778507
vt 0.621602 0.748336
vt 0.875163 0.519014
vt 0.571107 0.583210
vt 0.626510 0.546987
vt 0.621602 0.583210
vt 0.670772 0.583210
vt 0.626510 0.546987
vt 0.670772 0.749541
vt 0.875163 0.558820
vt 0.875163 0.519014
vt 0.814821 0.558820
vt 0.871821 0.853452
vt 0.986632 0.783656
vt 0.931771 0.943001
vt 0.871821 0.979224
vt 0.931891 0.558820
vt 0.875163 0.519014
vt 0.320647 0.683237
vt 0.318539 0.573243
vt 0.424167 0.573514
vt 0.422150 0.684201
vt 0.318539 0.573243
vt 0.735450 0.583210
vt 0.320647 0.683237
vt 0.621602 0.583210
vt 0.626510 0.546987
vt 0.670772 0.583210
vt 0.424167 0.573514
vt 0.871821 0.979224
vt 0.814821 0.729547
vt 0.814821 0.729547
vt 0.931891 0.807383
vt 0.875163 0.723435
vt 0.875163 0.723435
vt 0.986632 0.751709
vt 0.931891 0.807383
vt 0.931891 0.807383
vt 0.931891 0.558820
vt 0.875163 0.519014
vt 0.875163 0.558820
vt 0.986632 0.558820
vt 0.932584 0.841950
vt 0.986632 0.943001
vt 0.817441 0.803408
vt 0.239891 0.908223
vt 0.680920 0.458161
vt 0.897053 0.354551
vt 0.763694 0.784409
vt 0.871821 0.853452
vt 0.817441 0.803408
vt 0.932584 0.841950
vt 0.763694 0.943001
vt 0.817441 0.943001
vt 0.033603 0.185811
vt 0.047575 0.359730
vt 0.136401 0.300532
vt 0.206348 0.027911
vt 0.871821 0.979224
vt 0.513595 0.583210
vt 0.571107 0.583210
vt 0.871821 0.943001
vt 0.206348 0.027911
vt 0.931771 0.943001
vt 0.871821 0.979224
vt 0.871821 0.943001
vt 0.817441 0.943001
vt 0.626510 0.546987
vt 0.320557 0.815182
vt 0.197375 0.847580
vt 0.198639 0.556893
vt 0.031225 0.847580
vt 0.197375 0.847580
vt 0.198639 0.556893
vt 0.779893 0.339044
vt 0.032519 0.561982
vt 0.116618 0.871910
vt 0.239891 0.909307
vt 0.117913 0.532534
vt 0.031225 0.847580
vt 0.009906 0.908223
vt 0.127127 0.992864
vt 0.127127 0.909518
vt 0.239891 0.993948
vt 0.558039 0.286230
vt 0.572040 0.410948
vt 0.937853 0.119568
vt 0.011171 0.908223
vt 0.680920 0.458161
vt 0.741081 0.046520
vt 0.762489 0.255908
vt 0.410888 0.901508
vt 0.320466 0.901237
vt 0.412002 0.816898
vt 0.347536 0.479298
vt 0.009906 0.993617
vt 0.011171 0.993948
vt 0.127127 0.909518
vt 0.009906 0.909729
vt 0.117913 0.532534
vt 0.116618 0.871910
vt 0.205504 0.166420
vt 0.147632 0.440456
vt 0.347536 0.479298
vt 0.461715 0.277016
vt 0.321219 0.321218
vt 0.239891 0.992864
vt 0.011171 0.992864
vt 0.032519 0.561982
vt 0.779893 0.339044
vt 0.031225 0.847580
vt 0.127127 0.993767
vt 0.011171 0.909307
vt 0.239891 0.908223
vt 0.239891 0.993948
vt 0.239891 0.909307
vt 0.239891 0.992864
vt 0.197375 0.847580
vt 0.198639 0.556893
vt 0.198639 0.556893
vt 0.116618 0.871910
vt 0.239891 0.992864
vt 0.116618 0.871910
vt 0.011171 0.908223
vt 0.197375 0.847580
vt 0.239891 0.992864
vt 0.011171 0.992864
vt 0.239891 0.908223
vt 0.239891 0.993948
vt 0.127127 0.950528
vt 0.239891 0.909307
vt 0.239891 0.909307
vt 0.032519 0.561982
vt 0.117913 0.532534
vt 0.117913 0.532534
vt 0.127127 0.993767
vt 0.127127 0.909518
vt 0.239891 0.993948
vt 0.239891 0.908223
vt 0.032519 0.561982
vt 0.031225 0.847580
vt 0.011171 0.951612
vn -0.734762 -0.676938 0.043359
vn -0.662430 -0.729911 0.168570
vn -0.614815 -0.746722 0.253787
vn 0.371537 0.602085 -0.706721
vn -0.241609 0.868199 0.433424
vn -0.241609 0.868199 0.433424
vn -0.384087 0.753908 0.533010
vn -0.384087 0.753908 0.533010
vn -0.764532 0.626188 -0.152906
vn -0.357979 0.867844 0.344524
vn -0.454257 0.484132 -0.747841
vn 0.810099 0.038281 0.585042
vn -0.903574 0.319789 -0.285113
vn 0.177956 -0.983312 -0.037805
vn 0.088475 -0.995641 -0.029527
vn -0.455143 0.483557 -0.747675
vn -0.074499 0.997088 0.016309
vn -0.063323 0.997991 0.002016
vn -0.903578 0.319612 -0.285299
vn -0.179703 0.983123 0.034293
vn -0.855401 -0.118261 0.504285
vn 0.927167 0.066243 0.368744
vn 0.065127 -0.997874 -0.002555
vn -0.855366 -0.112927 0.505566
vn -0.855410 -0.124299 0.502815
vn 0.065127 -0.997874 -0.002555
vn -0.855401 -0.118261 0.504285
vn 0.065127 -0.997874 -0.002555
vn 0.927185 0.066189 0.368711
vn 0.104619 -0.993768 -0.038474
vn 0.046881 0.971415 -0.232714
vn -0.373051 0.922139 0.102434
vn -0.597336 -0.758480 0.260573
vn 0.856546 0.117975 -0.502406
vn 0.856546 0.117975 -0.502406
vn 0.856559 0.123873 -0.500961
vn 0.856507 0.112770 -0.503665
vn 0.223111 0.677416 0.700949
vn 0.223111 0.677416 0.700949
vn 0.404180 0.671654 0.620902
vn 0.095159 -0.995447 -0.005448
vn 0.105436 -0.994227 -0.019887
vn 0.086598 -0.996037 -0.020280
vn 0.026025 0.655302 0.754919
vn 0.115447 -0.375019 -0.919800
vn -0.017297 0.571978 -0.820087
vn -0.785293 -0.369465 -0.496800
vn 0.407175 0.699877 0.586839
vn 0.100219 0.984806 0.141821
vn 0.395508 0.918441 -0.006208
vn -0.098352 0.849005 -0.519151
vn -0.571302 0.466949 -0.674961
vn -0.781393 0.400520 -0.478549
vn -0.858238 0.356325 -0.369405
vn -0.296228 0.954519 -0.033789
vn -0.167622 0.752621 0.636761
vn -0.224539 0.974048 -0.028503
vn 0.218831 0.961466 0.166424
vn 0.576828 -0.682241 -0.449240
vn 0.594983 -0.737452 -0.319623
vn 0.411533 0.774489 -0.480425
vn 0.601114 -0.776169 -0.190324
vn -0.095658 0.995406 0.004021
vn 0.218047 0.934116 -0.282634
vn 0.218047 0.934116 -0.282634
vn 0.761528 0.626555 -0.165841
vn -0.646495 0.548555 -0.530218
vn -0.655598 0.751566 -0.073067
vn -0.566653 0.823867 -0.012128
vn -0.463402 0.884631 0.051828
vn -0.506855 0.850707 0.139267
vn 0.625562 -0.746128 -0.227959
vn 0.350398 -0.031956 0.936055
vn -0.570968 0.467215 -0.675060
vn 0.607895 0.003094 0.794011
vn 0.560245 0.601428 -0.569570
vn 0.560245 0.601428 -0.569570
vn 0.351141 -0.032996 0.935741
vn 0.560245 0.601428 -0.569570
vn -0.085174 0.996153 0.020616
vn -0.105492 0.994231 0.019399
vn -0.088332 0.995754 0.025910
vn -0.523887 0.807281 -0.271736
vn -0.774854 0.627496 0.076491
vn 0.221327 0.698030 0.681005
vn -0.193785 0.945318 0.262338
vn 0.442688 0.872245 -0.207883
vn 0.371537 0.602085 -0.706721
vn -0.384087 0.753908 0.533010
vn -0.357979 0.867844 0.344524
vn 0.371537 0.602085 -0.706721
vn 0.145407 0.973682 -0.175499
vn 0.398634 0.713027 -0.576787
vn 0.368567 0.929187 -0.027748
vn 0.169118 0.557093 0.813047
vn 0.206701 0.872241 -0.443249
vn -0.095688 0.910607 -0.402044
vn 0.324016 0.939757 -0.108949
vn 0.462312 0.858465 -0.222047
vn 0.444018 0.829108 -0.339748
vn 0.521457 0.829482 -0.200107
vn -0.226036 0.825117 0.517774
vn -0.707834 -0.650157 -0.276165
vn -0.707834 -0.650157 -0.276165
vn 0.522858 -0.852329 -0.012416
vn -0.519614 -0.118655 -0.846122
vn 0.719748 0.606328 0.338126
vn 0.757077 0.521613 0.393390
vn 0.719748 0.606328 0.338126
vn -0.184630 0.727682 -0.660598
vn 0.748586 0.623601 0.225255
vn -0.357001 0.900996 -0.246489
vn 0.448978 -0.347007 -0.823410
vn -0.282213 0.602346 0.746683
vn 0.547769 -0.819626 -0.167814
vn -0.157642 0.581625 0.798036
vn 0.273254 -0.961941 0.000940
vn 0.273254 -0.961941 0.000940
vn 0.273254 -0.961941 0.000940
vn 0.500099 -0.793530 0.346715
vn -0.074263 0.114748 -0.990615
vn -0.074263 0.114748 -0.990615
vn -0.476230 -0.037276 -0.878531
vn 0.235279 -0.117753 0.964768
vn 0.709978 0.089450 0.698519
vn -0.073436 0.114121 -0.990749
vn 0.547769 -0.819626 -0.167814
vn -0.707834 -0.650157 -0.276165
vn 0.494951 0.593502 -0.634648
vn -0.792224 -0.445707 -0.416804
vn -0.745958 -0.370961 -0.553113
vn -0.298004 0.954124 -0.028988
vn -0.351834 0.935957 -0.014065
vn -0.745958 -0.370961 -0.553113
vn -0.332015 0.931721 -0.147178
vn 0.772644 0.633235 0.045095
vn -0.218255 0.593000 0.775058
vn 0.394414 0.506137 -0.766983
vn 0.385090 0.858557 0.338504
vn 0.392972 0.850701 0.349113
vn -0.218255 0.593000 0.775058
vn 0.680717 -0.691053 0.243044
vn -0.546419 -0.697511 -0.463577
vn -0.520720 -0.746898 -0.413513
vn 0.700836 -0.648748 0.296573
vn -0.572492 -0.739801 -0.353479
vn -0.705609 -0.619877 -0.343320
vn -0.445613 -0.822606 -0.353198
vn -0.679912 0.653868 -0.331927
vn -0.905475 -0.415282 -0.087503
vn 0.419912 0.875398 0.239484
vn 0.421623 0.662610 -0.619018
vn 0.459311 0.882423 0.101799
vn -0.554341 0.661163 -0.505539
vn -0.215059 0.525756 -0.823001
vn -0.676810 0.662430 -0.321114
vn -0.608234 0.741922 -0.282141
vn -0.843283 0.531927 0.076987
vn -0.549303 0.775331 -0.311654
vn -0.289429 0.807739 -0.513604
vn -0.324794 -0.881995 -0.341458
vn -0.644347 -0.704371 -0.297790
vn -0.814816 -0.353262 0.459652
vn 0.468772 -0.680235 0.563501
vn -0.434914 -0.349022 0.830080
vn 0.342666 0.670300 -0.658239
vn 0.372705 0.673938 -0.637886
vn 0.342666 0.670300 -0.658239
vn 0.314324 0.666118 -0.676378
vn 0.464731 0.532107 -0.707734
vn -0.487588 -0.719363 -0.494746
vn 0.427027 0.518591 -0.740750
vn -0.613641 0.661686 -0.430832
vn -0.177582 -0.395951 -0.900937
vn -0.420977 -0.739096 -0.525848
vn 0.427027 0.518591 -0.740750
vn 0.087435 -0.481474 0.872088
vn -0.532423 -0.759632 -0.373477
vn -0.474075 0.810057 -0.345051
vn 0.391759 0.869295 0.301416
vn 0.479124 0.814389 0.327431
vn -0.486215 0.793394 -0.366226
vn 0.500099 -0.793530 0.346715
vn 0.570731 -0.672505 0.471172
vn 0.500099 -0.793530 0.346715
vn 0.388262 0.835624 0.388569
vn -0.526725 0.546278 0.651261
vn 0.377479 0.775349 0.506304
vn 0.468772 -0.680235 0.563501
vn -0.411262 -0.825715 -0.386081
vn -0.465857 -0.821542 -0.328702
vn 0.310239 -0.732637 0.605801
vn 0.906535 0.343441 -0.245443
vn 0.183695 0.593426 0.783646
vn -0.158524 0.790492 0.591602
vn 0.320244 -0.724320 0.610577
vn 0.365708 0.845659 0.388741
vn 0.322575 0.871444 0.369500
vn -0.305742 0.798926 -0.517918
vn 0.292650 -0.687739 0.664357
vn 0.299935 -0.706293 0.641241
vn -0.172415 0.700637 -0.692373
vn 0.451225 0.544409 -0.707118
vn 0.158194 0.934830 -0.317912
vn -0.258567 0.786782 -0.560462
vn -0.552507 0.694546 0.460805
vn 0.801304 -0.565670 0.194756
vn 0.738468 -0.636690 0.222014
vn -0.364361 0.838433 -0.405303
vn -0.498042 0.830143 0.250631
vn -0.417759 0.851669 -0.316445
vn -0.018550 0.621388 0.783284
vn 0.301777 0.779999 0.548208
vn 0.313900 0.830495 0.460157
vn 0.763949 -0.226490 -0.604222
vn -0.838891 -0.091159 0.536612
vn 0.164226 -0.986274 -0.017120
vn 0.317149 -0.942504 -0.105372
vn 0.258322 -0.965208 0.040535
vn -0.251736 0.956656 0.146421
vn -0.273746 0.948504 0.159384
vn 0.441912 0.866264 -0.233024
vn 0.339265 -0.940660 -0.007686
vn 0.232377 -0.972517 0.014573
vn -0.737916 -0.343912 -0.580693
vn 0.250116 -0.967837 -0.027083
vn -0.316137 0.940083 0.127679
vn 0.236182 -0.118526 0.964453
vn 0.495878 -0.015187 0.868259
vn -0.746845 -0.257857 -0.612970
vn -0.746845 -0.257857 -0.612970
vn 0.203729 0.860214 -0.467467
vn 0.323184 0.936712 -0.134620
vn -0.369471 0.926964 0.065035
vn 0.906535 0.343441 -0.245443
vn 0.368493 0.928125 -0.052892
vn -0.098492 0.899698 -0.425256
vn 0.045095 0.965048 -0.258165
vn -0.843558 -0.091657 0.529158
vn -0.840807 -0.091363 0.533570
vn -0.840807 -0.091363 0.533570
vn 0.508661 0.860729 0.020233
vn -0.254633 0.111407 -0.960599
vn -0.866433 -0.353364 0.352743
vn -0.254633 0.111407 -0.960599
vn -0.253770 0.110742 -0.960904
vn -0.389278 0.904148 0.176007
vn -0.370921 0.909348 0.188425
vn -0.415766 0.906404 -0.074636
vn 0.590075 0.807287 -0.009949
vn 0.194555 0.710541 0.676225
vn -0.328978 0.853292 0.404556
vn 0.122655 0.967082 0.222953
vn 0.906535 0.343441 -0.245443
vn 0.906535 0.343441 -0.245443
vn -0.317033 0.942546 0.105341
vn -0.219798 0.852160 0.474881
vn -0.440101 0.880040 0.178440
vn -0.255496 0.112073 -0.960292
vn -0.866313 -0.353783 0.352618
vn 0.842945 0.173608 0.509219
vn -0.866313 -0.353783 0.352618
vn -0.866194 -0.354200 0.352493
vn 0.843997 0.172136 0.507975
vn 0.306451 -0.941481 -0.140360
vn 0.310680 -0.939615 -0.143532
vn -0.307058 0.941224 0.140756
vn -0.327227 0.933120 0.149031
vn 0.739685 0.160307 0.653581
vn 0.312029 -0.940970 -0.131198
vn 0.866158 0.352850 -0.353931
vn -0.311460 0.939276 0.144059
vn 0.865616 0.354835 -0.353271
vn 0.865888 0.353842 -0.353601
vn 0.865888 0.353842 -0.353601
vn -0.923432 -0.287532 0.254161
vn 0.739685 0.160307 0.653581
vn -0.923432 -0.287532 0.254161
vn -0.850463 -0.178646 -0.494772
vn -0.259418 0.961981 0.085407
vn -0.311636 0.941099 0.131209
vn 0.327285 -0.933115 -0.148935
vn -0.850584 -0.176365 -0.495382
vn -0.850524 -0.177507 -0.495076
vn -0.850524 -0.177507 -0.495076
vn 0.739685 0.160307 0.653581
vn 0.316985 -0.939781 -0.127800
vn 0.259684 -0.961936 -0.085109
vn -0.923432 -0.287532 0.254161
f 23/23/23 28/28/28 26/26/26
f 79/79/79 77/77/77 76/76/76
f 8/8/8 7/7/7 89/89/89
f 88/88/88 4/4/4 91/91/91
f 25/25/25 27/27/27 21/21/21
f 21/21/21 27/27/27 24/24/24
f 29/29/29 12/12/12 22/22/22
f 75/75/75 12/12/12 29/29/29
f 12/12/12 75/75/75 78/78/78
f 78/78/78 75/75/75 73/73/73
f 82/82/82 17/17/17 18/18/18
f 80/80/80 17/17/17 82/82/82
f 81/81/81 80/80/80 82/82/82
f 63/63/63 80/80/80 81/81/81
f 63/63/63 81/81/81 20/20/20
f 11/11/11 52/52/52 16/16/16
f 74/74/74 52/52/52 11/11/11
f 74/74/74 53/53/53 52/52/52
f 52/52/52 53/53/53 54/54/54
f 19/19/19 54/54/54 53/53/53
f 13/13/13 54/54/54 19/19/19
f 30/30/30 15/15/15 43/43/43
f 43/43/43 42/42/42 30/30/30
f 41/41/41 42/42/42 43/43/43
f 42/42/42 41/41/41 14/14/14
f 33/33/33 3/3/3 2/2/2
f 2/2/2 3/3/3 1/1/1
f 47/47/47 2/2/2 1/1/1
f 34/34/34 35/35/35 36/36/36
f 37/37/37 35/35/35 34/34/34
f 38/38/38 39/39/39 40/40/40
f 44/44/44 39/39/39 38/38/38
f 45/45/45 59/59/59 60/60/60
f 72/72/72 60/60/60 59/59/59
f 62/62/62 60/60/60 72/72/72
f 46/46/46 61/61/61 100/100/100
f 101/101/101 100/100/100 61/61/61
f 99/99/99 100/100/100 101/101/101
f 68/68/68 67/67/67 69/69/69
f 69/69/69 71/71/71 68/68/68
f 70/70/70 71/71/71 69/69/69
f 64/64/64 65/65/65 66/66/66
f 83/83/83 65/65/65 64/64/64
f 90/90/90 10/10/10 9/9/9
f 85/85/85 10/10/10 90/90/90
f 6/6/6 5/5/5 84/84/84
f 48/48/48 5/5/5 6/6/6
f 95/95/95 102/102/102 56/56/56
f 56/56/56 102/102/102 32/32/32
f 31/31/31 32/32/32 102/102/102
f 32/32/32 31/31/31 97/97/97
f 97/97/97 31/31/31 96/96/96
f 96/96/96 31/31/31 98/98/98
f 98/98/98 31/31/31 94/94/94
f 94/94/94 31/31/31 87/87/87
f 86/86/86 57/57/57 55/55/55
f 49/49/49 57/57/57 86/86/86
f 92/92/92 57/57/57 49/49/49
f 51/51/51 57/57/57 92/92/92
f 55/55/55 57/57/57 51/51/51
f 58/58/58 49/49/49 86/86/86
f 50/50/50 49/49/49 58/58/58
f 92/92/92 49/49/49 50/50/50
f 93/93/93 92/92/92 50/50/50
f 51/51/51 92/92/92 93/93/93
f 107/107/107 111/111/111 109/109/109
f 119/119/119 118/118/118 117/117/117
f 128/128/128 104/104/104 103/103/103
f 183/183/183 185/185/185 120/120/120
f 277/277/277 286/286/286 269/269/269
f 289/289/289 276/276/276 278/278/278
f 106/106/106 134/134/134 131/131/131
f 134/134/134 130/130/130 131/131/131
f 108/108/108 111/111/111 136/136/136
f 129/129/129 136/136/136 111/111/111
f 105/105/105 127/127/127 115/115/115
f 113/113/113 115/115/115 127/127/127
f 132/132/132 133/133/133 135/135/135
f 135/135/135 133/133/133 112/112/112
f 112/112/112 110/110/110 135/135/135
f 114/114/114 137/137/137 141/141/141
f 141/141/141 137/137/137 116/116/116
f 138/138/138 172/172/172 176/176/176
f 176/176/176 172/172/172 170/170/170
f 139/139/139 151/151/151 140/140/140
f 140/140/140 151/151/151 153/153/153
f 152/152/152 153/153/153 151/151/151
f 145/145/145 208/208/208 142/142/142
f 207/207/207 208/208/208 145/145/145
f 215/215/215 208/208/208 207/207/207
f 143/143/143 144/144/144 171/171/171
f 171/171/171 144/144/144 175/175/175
f 174/174/174 171/171/171 175/175/175
f 149/149/149 173/173/173 156/156/156
f 156/156/156 173/173/173 154/154/154
f 173/173/173 155/155/155 154/154/154
f 177/177/177 200/200/200 201/201/201
f 196/196/196 201/201/201 200/200/200
f 192/192/192 201/201/201 196/196/196
f 146/146/146 150/150/150 147/147/147
f 147/147/147 178/178/178 146/146/146
f 146/146/146 178/178/178 148/148/148
f 159/159/159 182/182/182 179/179/179
f 157/157/157 182/182/182 159/159/159
f 158/158/158 157/157/157 159/159/159
f 180/180/180 181/181/181 186/186/186
f 186/186/186 181/181/181 188/188/188
f 188/188/188 187/187/187 186/186/186
f 189/189/189 184/184/184 164/164/164
f 164/164/164 165/165/165 189/189/189
f 167/167/167 168/168/168 166/166/166
f 166/166/166 168/168/168 169/169/169
f 163/163/163 162/162/162 191/191/191
f 190/190/190 191/191/191 162/162/162
f 161/161/161 191/191/191 190/190/190
f 160/160/160 199/199/199 209/209/209
f 209/209/209 199/199/199 211/211/211
f 206/206/206 209/209/209 211/211/211
f 198/198/198 197/197/197 214/214/214
f 214/214/214 197/197/197 213/213/213
f 213/213/213 212/212/212 214/214/214
f 252/252/252 249/249/249 210/210/210
f 253/253/253 249/249/249 252/252/252
f 204/204/204 249/249/249 253/253/253
f 202/202/202 249/249/249 204/204/204
f 205/205/205 249/249/249 202/202/202
f 251/251/251 253/253/253 252/252/252
f 202/202/202 204/204/204 203/203/203
f 203/203/203 204/204/204 250/250/250
f 204/204/204 253/253/253 250/250/250
f 250/250/250 253/253/253 242/242/242
f 216/216/216 241/241/241 240/240/240
f 240/240/240 241/241/241 239/239/239
f 218/218/218 217/217/217 226/226/226
f 226/226/226 217/217/217 224/224/224
f 226/226/226 224/224/224 223/223/223
f 223/223/223 224/224/224 219/219/219
f 123/123/123 230/230/230 231/231/231
f 231/231/231 230/230/230 225/225/225
f 220/220/220 248/248/248 221/221/221
f 221/221/221 248/248/248 247/247/247
f 248/248/248 258/258/258 247/247/247
f 247/247/247 258/258/258 256/256/256
f 236/236/236 238/238/238 222/222/222
f 233/233/233 238/238/238 236/236/236
f 232/232/232 238/238/238 233/233/233
f 237/237/237 238/238/238 232/232/232
f 234/234/234 238/238/238 237/237/237
f 238/238/238 234/234/234 257/257/257
f 195/195/195 257/257/257 234/234/234
f 194/194/194 257/257/257 195/195/195
f 235/235/235 255/255/255 193/193/193
f 193/193/193 255/255/255 254/254/254
f 246/246/246 245/245/245 243/243/243
f 243/243/243 245/245/245 259/259/259
f 244/244/244 262/262/262 260/260/260
f 260/260/260 262/262/262 263/263/263
f 264/264/264 125/125/125 261/261/261
f 229/229/229 125/125/125 264/264/264
f 125/125/125 229/229/229 228/228/228
f 228/228/228 229/229/229 124/124/124
f 268/268/268 267/267/267 272/272/272
f 281/281/281 267/267/267 268/268/268
f 227/227/227 281/281/281 268/268/268
f 280/280/280 281/281/281 227/227/227
f 271/271/271 274/274/274 275/275/275
f 275/275/275 274/274/274 273/273/273
f 266/266/266 265/265/265 282/282/282
f 282/282/282 265/265/265 270/270/270
f 282/282/282 270/270/270 287/287/287
f 287/287/287 270/270/270 288/288/288
f 122/122/122 121/121/121 123/123/123
f 126/126/126 121/121/121 122/122/122
f 285/285/285 284/284/284 279/279/279
f 283/283/283 284/284/284 285/285/285
