# Exported by s4extract — object_painting_lod01_g01
o object_painting_lod01_g01
v -0.515107 1.463896 0.069828
v -0.484160 0.132332 0.044131
v -0.523836 0.071721 0.069828
v -0.515107 1.463896 0.069828
v -0.612525 1.535616 0.051761
v -0.612525 1.535616 0.000000
v -0.612525 1.535616 0.000000
v -0.515107 1.463896 0.069828
v 0.515107 1.463896 0.069828
v 0.476103 1.411158 0.044131
v -0.476103 1.411158 0.044131
v 0.476103 1.411158 0.044131
v 0.515107 1.463896 0.069828
v 0.515107 1.463896 0.069828
v 0.484160 0.132332 0.044131
v 0.484160 0.132332 0.044131
v 0.622902 0.000000 0.000000
v -0.622902 0.000000 0.000000
v -0.622902 0.000000 0.051761
v 0.612525 1.535616 0.000000
v 0.612525 1.535616 0.000000
v 0.622902 0.000000 0.051761
v 0.622902 0.000000 0.000000
v 0.612525 1.535616 0.051761
v 0.622902 0.000000 0.051761
v 0.000000 0.014405 0.000000
v -0.622902 0.000000 0.051761
v 0.622902 0.000000 0.051761
v -0.476103 1.411158 0.044131
v 0.622902 0.000000 0.000000
v 0.000000 1.516328 0.000000
v 0.000000 0.014405 0.000000
v 0.612525 1.535616 0.000000
v -0.612525 1.535616 0.000000
v 0.612525 1.535616 0.000000
v -0.484160 0.132332 0.044131
v 0.523836 0.071721 0.069828
v 0.523836 0.071721 0.069828
v -0.484160 0.132332 0.044131
v -0.523836 0.071721 0.069828
v -0.612525 1.535616 0.000000
v -0.622902 0.000000 0.000000
v -0.622902 0.000000 0.000000
v -0.612525 1.535616 0.051761
v 0.000000 1.516328 0.000000
v 0.000000 0.014405 0.000000
v 0.484160 0.132332 0.044131
v -0.515107 1.463896 0.069828
v 0.515107 1.463896 0.069828
v -0.612525 1.535616 0.051761
v 0.484160 0.132332 0.044131
v 0.612525 1.535616 0.051761
v 0.000000 1.516328 0.000000
v -0.476103 1.411158 0.044131
v -0.484160 0.132332 0.044131
v 0.476103 1.411158 0.044131
v 0.612525 1.535616 0.051761
v 0.523836 0.071721 0.069828
v -0.622902 0.000000 0.051761
v 0.622902 0.000000 0.051761
v -0.523836 0.071721 0.069828
v -0.622902 0.000000 0.051761
vt 0.084596 0.903301
vt 0.143677 0.155712
vt 0.084871 0.100808
vt 0.084596 0.903301
vt 0.024724 0.964058
vt 0.007774 0.984422
vt 0.007774 0.984422
vt 0.084596 0.903301
vt 0.735120 0.903301
vt 0.687259 0.852360
vt 0.143098 0.852726
vt 0.687259 0.852360
vt 0.735120 0.903301
vt 0.735120 0.903301
vt 0.689149 0.156047
vt 0.689149 0.156047
vt 0.810266 0.020784
vt 0.007774 0.018955
vt 0.024724 0.043008
vt 0.810206 0.985611
vt 0.810206 0.985611
vt 0.793926 0.042612
vt 0.810266 0.020784
vt 0.793500 0.964180
vt 0.793926 0.042612
vt 0.428805 0.018163
vt 0.024724 0.043008
vt 0.793926 0.042612
vt 0.143098 0.852726
vt 0.832155 0.307437
vt 0.998909 0.986129
vt 0.998909 0.307833
vt 0.810206 0.985611
vt 0.007774 0.984422
vt 0.831210 0.985824
vt 0.143677 0.155712
vt 0.741766 0.100869
vt 0.741766 0.100869
vt 0.143677 0.155712
vt 0.084871 0.100808
vt 0.831088 0.985824
vt 0.832033 0.307437
vt 0.007774 0.018955
vt 0.024724 0.964058
vt 0.998909 0.986129
vt 0.998909 0.307833
vt 0.689149 0.156047
vt 0.084596 0.903301
vt 0.735120 0.903301
vt 0.024724 0.964058
vt 0.689149 0.156047
vt 0.793500 0.964180
vt 0.413349 0.985489
vt 0.143098 0.852726
vt 0.143677 0.155712
vt 0.687259 0.852360
vt 0.793500 0.964180
vt 0.741766 0.100869
vt 0.024724 0.043008
vt 0.793926 0.042612
vt 0.084871 0.100808
vt 0.024724 0.043008
vn 0.546912 -0.003446 0.837183
vn 0.547311 -0.003431 0.836923
vn 0.547311 -0.003431 0.836923
vn 0.547311 -0.003431 0.836923
vn -0.999977 0.006757 0.000000
vn -0.999977 0.006757 0.000000
vn -0.999977 0.006757 0.000000
vn 0.000000 -0.438034 0.898958
vn 0.000000 -0.438034 0.898958
vn 0.000000 -0.438034 0.898958
vn 0.000000 -0.438034 0.898958
vn -0.546912 -0.003446 0.837183
vn -0.547311 -0.003431 0.836923
vn -0.546912 -0.003446 0.837183
vn -0.546912 -0.003446 0.837183
vn -0.547311 -0.003431 0.836923
vn 0.999977 0.006757 0.000000
vn -0.999977 0.006757 0.000000
vn -0.999977 0.006757 0.000000
vn 0.999977 0.006757 0.000000
vn 0.999977 0.006757 0.000000
vn 0.999977 0.006757 0.000000
vn -0.023120 -0.999733 0.000000
vn 0.999977 0.006757 0.000000
vn 0.999977 0.006757 0.000000
vn 0.000000 -0.990457 -0.137823
vn 0.007579 -0.983192 -0.182416
vn -0.007579 -0.983192 -0.182416
vn 0.546912 -0.003446 0.837183
vn 0.000000 0.000000 -1.000000
vn 0.000000 0.000000 -1.000000
vn 0.000000 0.000000 -1.000000
vn -0.031474 0.999505 0.000000
vn 0.031474 0.999505 0.000000
vn 0.000000 0.000000 -1.000000
vn 0.546912 -0.003446 0.837183
vn -0.547311 -0.003431 0.836923
vn 0.000000 0.390336 0.920673
vn 0.000000 0.390336 0.920673
vn 0.000000 0.390336 0.920673
vn 0.000000 0.000000 -1.000000
vn 0.000000 0.000000 -1.000000
vn 0.023120 -0.999733 0.000000
vn 0.010186 0.970450 -0.241087
vn 0.000000 0.000000 -1.000000
vn 0.000000 0.000000 -1.000000
vn 0.000000 0.390336 0.920673
vn -0.083332 0.135517 0.987264
vn 0.118386 0.088348 0.989030
vn -0.139254 0.059175 0.988487
vn 0.000000 0.000000 1.000000
vn -0.010186 0.970450 -0.241087
vn 0.000000 0.983082 -0.183168
vn 0.000000 0.000000 1.000000
vn 0.000000 0.000000 1.000000
vn 0.000000 0.000000 1.000000
vn 0.116426 0.090442 0.989073
vn 0.115736 -0.089906 0.989203
vn -0.086767 -0.129002 0.987841
vn 0.114011 -0.091723 0.989236
vn -0.144105 -0.050626 0.988267
vn -0.999977 0.006757 0.000000
f 1/1/1 36/36/36 29/29/29
f 3/3/3 2/2/2 4/4/4
f 15/15/15 14/14/14 12/12/12
f 37/37/37 13/13/13 16/16/16
f 6/6/6 62/62/62 5/5/5
f 18/18/18 19/19/19 7/7/7
f 21/21/21 22/22/22 17/17/17
f 24/24/24 25/25/25 20/20/20
f 44/44/44 53/53/53 34/34/34
f 52/52/52 53/53/53 44/44/44
f 52/52/52 33/33/33 53/53/53
f 31/31/31 30/30/30 32/32/32
f 35/35/35 30/30/30 31/31/31
f 11/11/11 9/9/9 8/8/8
f 10/10/10 9/9/9 11/11/11
f 38/38/38 39/39/39 40/40/40
f 47/47/47 39/39/39 38/38/38
f 26/26/26 23/23/23 28/28/28
f 27/27/27 26/26/26 28/28/28
f 43/43/43 26/26/26 27/27/27
f 41/41/41 46/46/46 42/42/42
f 45/45/45 46/46/46 41/41/41
f 56/56/56 55/55/55 51/51/51
f 54/54/54 55/55/55 56/56/56
f 50/50/50 61/61/61 48/48/48
f 59/59/59 61/61/61 50/50/50
f 61/61/61 59/59/59 58/58/58
f 58/58/58 59/59/59 60/60/60
f 60/60/60 57/57/57 58/58/58
f 58/58/58 57/57/57 49/49/49
f 49/49/49 57/57/57 48/48/48
f 48/48/48 57/57/57 50/50/50
