# Exported by s4extract — object_Food_PlateFork_Multi_lod00_g01
o object_Food_PlateFork_Multi_lod00_g01
v -0.051393 0.051180 -0.052553
v -0.084140 0.019807 -0.047884
v -0.050233 0.042238 -0.034364
v 0.120731 0.034059 0.006653
v 0.126164 0.043031 -0.000763
v 0.147343 0.042451 -0.009400
v 0.027161 0.048891 0.040986
v 0.000427 0.068117 -0.021607
v -0.081393 0.072481 -0.025910
v 0.058412 0.023927 0.030854
v 0.091220 0.025941 -0.007691
v 0.068606 0.025086 0.048463
v 0.104068 0.044008 0.033357
v 0.102817 0.030488 0.052400
v 0.088137 0.039796 0.014740
v -0.098972 0.073824 -0.010681
v -0.098972 0.073824 -0.010681
v 0.064882 0.052553 -0.038118
v -0.009217 0.064547 -0.004089
v 0.048036 0.057558 0.003784
v 0.029176 0.039247 0.028657
v 0.128025 0.037568 0.040254
v 0.127750 0.044801 0.014710
v 0.140507 0.030091 -0.031068
v 0.057100 0.026490 -0.060823
v 0.055300 0.024598 -0.079897
v 0.119327 0.045686 -0.014344
v 0.037996 0.049409 0.031678
v 0.027161 0.048891 0.040986
v 0.037996 0.049409 0.031678
v -0.009217 0.064547 -0.004089
v -0.044160 0.050356 -0.021943
v -0.048799 0.047121 -0.038972
v 0.117679 0.039308 -0.062075
v 0.156621 0.030396 -0.019929
v 0.139256 0.045473 -0.005341
v 0.086306 0.031404 0.041810
v -0.098972 0.073824 -0.010681
v -0.098972 0.073824 -0.010681
v -0.044160 0.050356 -0.021943
v -0.021241 0.046022 -0.049135
v 0.029176 0.039247 0.028657
v 0.122471 0.029359 -0.026276
v 0.116581 0.025483 0.024384
v 0.118625 0.040651 0.023957
v 0.111209 0.045717 0.004120
v 0.054750 0.055422 -0.012940
v -0.084872 0.089236 -0.004578
v 0.171117 0.046663 -0.043336
v 0.073946 0.034242 -0.025056
v 0.042970 0.030213 -0.063997
v 0.064882 0.052553 -0.038118
v 0.048158 0.051057 -0.011597
v -0.021241 0.046022 -0.049135
v -0.048799 0.047121 -0.038972
v 0.048036 0.057558 0.003784
v 0.017090 0.044527 -0.038789
v 0.073946 0.034242 -0.025056
v 0.080081 0.042390 0.013337
v 0.048158 0.051057 -0.011597
v 0.005219 0.062624 -0.039949
v -0.021241 0.046022 -0.049135
v 0.126164 0.043031 -0.000763
v 0.102969 0.039613 -0.020325
v 0.118503 0.044069 -0.038820
v 0.147343 0.042451 -0.009400
v -0.090457 0.054018 -0.007904
v 0.034425 0.049898 0.018281
v 0.032380 0.059572 0.030580
v -0.027802 0.032533 -0.025697
v -0.081393 0.072481 -0.025910
v -0.084872 0.089236 -0.004578
v 0.136235 0.041444 -0.056185
v 0.141575 0.040437 -0.032075
v 0.139988 0.045259 -0.034303
v 0.037996 0.049409 0.031678
v 0.042970 0.030213 -0.063997
v -0.021241 0.046022 -0.049135
v -0.057985 0.040651 0.015412
v -0.050600 0.087527 0.019837
v -0.004578 0.055055 0.030122
v 0.141575 0.040437 -0.032075
v 0.104312 0.028779 0.010834
v 0.115726 0.032991 -0.021058
v 0.101901 0.040925 -0.000519
v 0.170415 0.034303 -0.022401
v 0.151708 0.033509 0.002106
v -0.093936 0.070742 0.013428
v -0.002686 0.046571 0.018860
v -0.093936 0.070742 0.013428
v -0.041749 0.065828 -0.021668
v -0.049623 0.041810 -0.010773
v -0.090457 0.054018 -0.007904
v -0.049623 0.041810 -0.010773
v -0.042238 0.088687 -0.006348
v -0.058473 0.063509 0.030702
v -0.041749 0.065828 -0.021668
v 0.070833 0.030549 -0.026826
v 0.120945 0.040773 -0.027650
v 0.123661 0.033235 0.003113
v 0.103275 0.035249 -0.046297
v 0.120945 0.040773 -0.027650
v 0.143101 0.040407 0.021271
v -0.058473 0.063509 0.030702
v 0.000153 0.064455 0.020569
v -0.004578 0.055055 0.030122
v -0.002686 0.046571 0.018860
v 0.026978 0.027924 -0.054537
v 0.032441 0.042055 -0.002380
v 0.080081 0.042390 0.013337
v -0.027802 0.032533 -0.025697
v 0.034425 0.049898 0.018281
v 0.002045 0.055971 0.009308
v 0.037996 0.049409 0.031678
v -0.002686 0.046571 0.018860
v 0.032380 0.059572 0.030580
v 0.000153 0.064455 0.020569
v 0.002045 0.055971 0.009308
v 0.048036 0.057558 0.003784
v 0.017090 0.044527 -0.038789
v -0.027802 0.032533 -0.025697
v 0.054750 0.055422 -0.012940
v 0.000427 0.051210 -0.067904
v 0.000855 0.043001 -0.062441
v 0.054750 0.055422 -0.012940
v -0.011505 0.036378 -0.073244
v 0.062685 0.021790 0.020203
v 0.073946 0.034242 -0.025056
v 0.051515 0.038179 0.034547
v 0.080081 0.042390 0.013337
v 0.062685 0.021790 0.020203
v 0.067537 0.052370 -0.015015
v 0.068148 0.041810 0.040193
v 0.026978 0.027924 -0.054537
v 0.088900 0.051790 -0.002289
v 0.095218 0.042787 -0.007782
v 0.106723 0.041597 0.005646
v 0.066073 0.058809 0.089785
v 0.046449 0.057466 0.102542
v 0.057833 0.039003 0.085879
v -0.096530 0.038850 -0.092898
v -0.037996 0.053529 -0.080844
v -0.080721 0.050722 -0.092166
v -0.080721 0.050722 -0.092166
v -0.037568 0.046358 -0.097171
v -0.079134 0.041169 -0.090335
v -0.084140 0.019807 -0.047884
v -0.005707 0.034822 -0.081423
v 0.042970 0.030213 -0.063997
v 0.062685 0.021790 0.020203
v 0.042970 0.030213 -0.063997
v 0.066073 0.058809 0.089785
v 0.052614 0.074190 0.081790
v 0.046449 0.057466 0.102542
v 0.067537 0.052370 -0.015015
v 0.078707 0.045381 -0.046815
v 0.066073 0.058809 0.089785
v 0.063967 0.055727 0.065126
v 0.052614 0.074190 0.081790
v 0.064882 0.052553 -0.038118
v 0.097293 0.052431 -0.007935
v 0.078707 0.045381 -0.046815
v -0.088900 0.040132 -0.066256
v -0.058901 0.052004 -0.070772
v -0.088900 0.040132 -0.066256
v 0.095218 0.042787 -0.007782
v 0.064882 0.052553 -0.038118
v -0.005707 0.034822 -0.081423
v -0.037568 0.046358 -0.097171
v -0.079134 0.041169 -0.090335
v 0.067537 0.052370 -0.015015
v 0.073946 0.034242 -0.025056
v 0.088900 0.051790 -0.002289
v 0.106723 0.041597 0.005646
v -0.005707 0.034822 -0.081423
v 0.097293 0.052431 -0.007935
v -0.037996 0.053529 -0.080844
v 0.054750 0.055422 -0.012940
v 0.017090 0.044527 -0.038789
v -0.067171 0.034364 0.028962
v 0.057833 0.039003 0.085879
v 0.063967 0.055727 0.065126
v -0.005768 0.053072 -0.060121
v 0.005219 0.062624 -0.039949
v 0.027955 0.066073 -0.036561
v 0.027955 0.066073 -0.036561
v -0.096530 0.038850 -0.092898
v 0.005219 0.062624 -0.039949
v 0.027955 0.066073 -0.036561
v 0.038209 0.055300 -0.046419
v 0.000427 0.051210 -0.067904
v -0.011505 0.036378 -0.073244
v -0.058626 0.024201 0.033174
v -0.055055 0.033876 0.021180
v -0.065157 0.034883 0.042787
v 0.000427 0.068117 -0.021607
v 0.000855 0.043001 -0.062441
v -0.005707 0.034822 -0.081423
v -0.065157 0.034883 0.042787
v -0.061617 0.044527 0.030824
v -0.067171 0.034364 0.028962
v 0.062685 0.021790 0.020203
v 0.047578 0.029023 -0.092044
v 0.032441 0.042055 -0.002380
v 0.029817 0.040864 -0.066195
v 0.038209 0.055300 -0.046419
v 0.000427 0.051210 -0.067904
v -0.061617 0.044527 0.030824
v -0.067171 0.034364 0.028962
v -0.003174 0.032929 -0.064150
v -0.055055 0.033876 0.021180
v -0.058626 0.024201 0.033174
v -0.067171 0.034364 0.028962
v -0.052675 0.034242 -0.081545
v -0.040590 0.022797 0.006653
v 0.029359 0.024720 -0.000885
v -0.005158 0.012299 0.031343
v -0.058168 0.023133 -0.089633
v -0.059206 0.032014 0.097690
v -0.058901 0.052004 -0.070772
v -0.037996 0.053529 -0.080844
v -0.011475 0.027039 -0.014191
v -0.049501 0.023865 -0.016266
v -0.038514 0.025910 -0.006867
v 0.062716 0.028779 -0.063234
v 0.003113 0.018281 -0.046602
v 0.013092 0.029267 -0.089084
v 0.056368 0.027619 -0.080721
v -0.101901 0.050050 -0.046999
v -0.099490 0.049135 -0.070589
v -0.049013 0.029389 0.057772
v -0.144597 0.042207 -0.076724
v -0.036317 0.027589 -0.049318
v 0.068148 0.041810 0.040193
v -0.054292 0.025483 -0.030091
v -0.121464 0.042238 -0.081301
v -0.038514 0.025910 -0.006867
v -0.025513 0.037721 -0.031129
v 0.042482 0.028657 -0.039766
v 0.042482 0.028657 -0.039766
v -0.159124 0.049806 -0.039796
v -0.070772 0.042024 -0.084964
v 0.057833 0.039003 0.085879
v 0.006928 0.050783 0.092898
v 0.006928 0.050783 0.092898
v 0.016205 0.026795 0.083163
v -0.011475 0.027039 -0.014191
v -0.049501 0.023865 -0.016266
v 0.056368 0.027619 -0.080721
v 0.013092 0.029267 -0.089084
v -0.054292 0.025483 -0.030091
v 0.080081 0.042390 0.013337
v -0.029206 0.032502 0.097720
v -0.052675 0.034242 -0.081545
v 0.029359 0.024720 -0.000885
v -0.040590 0.022797 0.006653
v 0.031556 0.037812 0.028993
v 0.143895 0.048250 -0.068697
v 0.068422 0.031526 -0.094211
v 0.105502 0.028443 -0.046175
v -0.051393 0.051180 -0.052553
v -0.058901 0.052004 -0.070772
v -0.080996 0.050050 -0.082064
v -0.080721 0.050722 -0.092166
v -0.074221 0.035920 0.046876
v -0.020447 0.049409 0.063356
v -0.164983 0.040376 -0.058260
v -0.031251 0.057649 0.043519
v -0.121921 0.045503 0.088870
v -0.065889 0.030274 0.064882
v -0.063845 0.046358 -0.064394
v -0.015503 0.032655 0.077792
v -0.062746 0.029633 0.077700
v -0.165838 0.039460 -0.043489
v -0.162816 0.041627 0.050386
v -0.036317 0.027589 -0.049318
v 0.047578 0.029023 -0.092044
v -0.145604 0.046205 -0.053499
v -0.027619 0.031526 0.047243
v 0.051515 0.038179 0.034547
v 0.062716 0.028779 -0.063234
v 0.026978 0.027924 -0.054537
v -0.091311 0.035768 -0.030793
v -0.052675 0.034242 -0.081545
v -0.003174 0.032929 -0.064150
v -0.050233 0.042238 -0.034364
v 0.063509 0.024415 0.015961
v 0.143101 0.040407 0.021271
v 0.111545 0.031281 0.029084
v 0.095645 0.033357 0.088076
v 0.116916 0.040345 0.088168
v 0.072542 0.025544 0.075167
v 0.118625 0.040651 0.023957
v 0.140996 0.046358 0.060366
v -0.003174 0.032929 -0.064150
v -0.037996 0.022187 0.051973
v 0.016205 0.026795 0.083163
v 0.009278 0.073641 0.077731
v -0.072512 0.018616 0.028657
v -0.037996 0.022187 0.051973
v -0.067721 0.020905 0.043245
v -0.067721 0.020905 0.043245
v 0.063509 0.024415 0.015961
v 0.060701 0.024171 0.050203
v 0.065096 0.022858 0.031037
v 0.065096 0.022858 0.031037
v 0.060701 0.024171 0.050203
v 0.027833 0.024049 0.059664
v -0.088900 0.040132 -0.066256
v 0.027833 0.024049 0.059664
v -0.088900 0.040132 -0.066256
v -0.084140 0.019807 -0.047884
v -0.105197 0.038545 -0.041841
v -0.105197 0.038545 -0.041841
v -0.091311 0.035768 -0.030793
v 0.030213 0.048494 0.043092
v -0.072512 0.018616 0.028657
v -0.068819 0.020417 0.013611
v -0.027619 0.031526 0.047243
v -0.030274 0.049409 0.045167
v -0.033570 0.040925 0.056093
v -0.068819 0.020417 0.013611
v 0.030213 0.048494 0.043092
v 0.027863 0.025636 0.058260
v 0.020936 0.072481 0.052828
v 0.066073 0.058809 0.089785
v -0.024323 0.040010 0.036317
v -0.030274 0.049409 0.045167
v -0.027619 0.031526 0.047243
v -0.024323 0.040010 0.036317
v -0.033570 0.040925 0.056093
v -0.041169 0.034272 0.028962
v 0.029633 0.018097 0.037294
v 0.026399 0.027314 0.049684
v 0.038789 0.026978 0.042543
v 0.046480 0.029633 -0.035401
v 0.035737 0.035371 -0.055544
v 0.057588 0.024171 -0.018769
v 0.048921 0.016053 -0.036103
v -0.084292 0.069582 -0.022156
v 0.038789 0.026978 0.042543
v -0.015229 0.051576 -0.042879
v -0.084292 0.069582 -0.022156
v 0.038789 0.026978 0.042543
v 0.133183 0.042512 -0.033021
v 0.026399 0.027314 0.049684
v 0.094333 0.018799 0.003998
v 0.043550 0.022645 -0.027589
v 0.096866 0.035249 -0.061983
v -0.052156 0.037843 -0.055696
v -0.045595 0.018006 -0.037355
v -0.078646 0.048769 -0.019288
v -0.064394 0.066897 -0.033998
v 0.126743 0.041047 0.017212
v 0.111026 0.036592 0.049898
v 0.034608 0.037782 0.041169
v 0.037873 0.028535 0.028779
v -0.088656 0.042238 -0.081301
v 0.055239 0.032594 -0.032533
v 0.077822 0.043489 -0.018555
v 0.038789 0.026978 0.042543
v -0.084292 0.069582 -0.022156
v 0.035737 0.035371 -0.055544
v -0.013062 0.042848 -0.024659
v -0.067751 0.035249 -0.030915
v 0.071291 0.025666 0.064455
v 0.055696 0.047273 0.031739
v 0.036256 0.024415 -0.045656
v -0.002686 0.054720 -0.071474
v -0.089145 0.045503 0.088870
v -0.002136 0.047517 -0.087802
v 0.036256 0.024415 -0.045656
v -0.015992 0.034455 -0.071780
v -0.023194 0.051790 -0.060915
v -0.002686 0.054720 -0.071474
v -0.052156 0.037843 -0.055696
v -0.084292 0.069582 -0.022156
v -0.013062 0.042848 -0.024659
v -0.015992 0.034455 -0.071780
v 0.070589 0.028535 -0.060121
v 0.097720 0.035646 0.063967
v 0.034608 0.037782 0.041169
v 0.008637 0.038850 0.014557
v -0.046602 0.029603 -0.003815
v -0.026276 0.055452 -0.024842
v 0.044313 0.049135 -0.046510
v 0.055239 0.032594 -0.032533
v 0.064882 0.045106 0.003906
v 0.005554 0.046937 0.025819
v -0.026276 0.055452 -0.024842
v -0.001862 0.037721 0.033692
v 0.001190 0.029633 0.022401
v -0.046602 0.029603 -0.003815
v -0.070040 0.082888 -0.012543
v -0.084262 0.064760 0.002197
v -0.064394 0.066897 -0.033998
v -0.070040 0.082888 -0.012543
v 0.067507 0.044038 0.075289
v -0.024995 0.048738 0.091159
v 0.062654 0.060732 0.054201
v 0.061495 0.025025 0.056581
v 0.056642 0.041719 0.035493
v 0.062654 0.060732 0.054201
v -0.078646 0.048769 -0.019288
v -0.084262 0.064760 0.002197
v -0.023194 0.051790 -0.060915
v -0.015992 0.034455 -0.071780
v 0.030793 0.038331 -0.072726
v -0.045595 0.018006 -0.037355
v -0.053499 0.033509 -0.020173
v -0.013245 0.022187 0.049989
v -0.052156 0.037843 -0.055696
v -0.045595 0.018006 -0.037355
v -0.052156 0.037843 -0.055696
v 0.035737 0.035371 -0.055544
v 0.057588 0.024171 -0.018769
v -0.003388 0.012299 0.012452
v 0.040040 0.024049 0.010590
v 0.048921 0.016053 -0.036103
v -0.043062 0.039430 -0.079958
v 0.048921 0.016053 -0.036103
v 0.040040 0.024049 0.010590
v 0.048921 0.025025 0.014710
v -0.067751 0.035249 -0.030915
v -0.027223 0.079012 -0.007111
v 0.055239 0.032594 -0.032533
v -0.054628 0.052400 0.026826
v -0.001862 0.037721 0.033692
v -0.041383 0.077486 0.018708
v 0.067507 0.044038 0.075289
v 0.031068 0.046846 0.095279
v 0.056642 0.041719 0.035493
v -0.040956 0.020905 0.063906
v 0.029633 0.018097 0.037294
v 0.001190 0.029633 0.022401
v -0.054628 0.052400 0.026826
v 0.005554 0.046937 0.025819
v -0.054384 0.018616 0.056520
v 0.008637 0.038850 0.014557
v 0.037873 0.028535 0.028779
v 0.022462 0.019593 0.068514
v -0.028169 0.039064 0.081240
v 0.049257 0.051576 -0.023927
v -0.027589 0.057222 0.080020
v 0.015473 0.043519 0.038301
v -0.027589 0.057222 0.080020
v -0.015229 0.051576 -0.042879
v -0.013245 0.022187 0.049989
v 0.020692 0.023591 -0.067446
v 0.048921 0.025025 0.014710
v 0.005799 0.022065 -0.056215
v -0.053499 0.033509 -0.020173
v 0.093112 0.025788 0.026673
v 0.083926 0.036134 0.008240
v 0.063478 0.026307 0.001190
v 0.074068 0.022126 0.023713
v 0.049257 0.051576 -0.023927
v 0.079562 0.053072 -0.019959
v 0.044313 0.049135 -0.046510
v 0.057466 0.041353 -0.055757
v 0.104160 0.027131 0.005402
v 0.015961 0.042024 -0.006745
v 0.005799 0.022065 -0.056215
v 0.117710 0.036561 -0.017579
v 0.005799 0.022065 -0.056215
v 0.090640 0.044008 -0.006317
v 0.044313 0.049135 -0.046510
v -0.133061 0.039460 -0.043489
v 0.100345 0.037629 -0.038331
v 0.078951 0.032929 -0.038423
v 0.071810 0.052889 -0.013459
v 0.090640 0.044008 -0.006317
v 0.094119 0.033937 -0.002899
v 0.015961 0.042024 -0.006745
v 0.109500 0.035157 0.008332
v 0.097842 0.038118 -0.015351
v 0.079562 0.053072 -0.019959
v 0.071810 0.052889 -0.013459
v 0.055239 0.032594 -0.032533
v 0.064882 0.045106 0.003906
v -0.002686 0.054720 -0.071474
v 0.030793 0.038331 -0.072726
v 0.030793 0.038331 -0.072726
v -0.023194 0.051790 -0.060915
v 0.030793 0.038331 -0.072726
v -0.043062 0.039430 -0.079958
v -0.060274 0.035890 -0.082156
v -0.045351 0.048830 -0.081820
v -0.045351 0.048830 -0.081820
v 0.020692 0.023591 -0.067446
v 0.020692 0.023591 -0.067446
v 0.020692 0.023591 -0.067446
v 0.077822 0.043489 -0.018555
v 0.078768 0.034455 -0.018311
v 0.044313 0.049135 -0.046510
v 0.038697 0.042665 0.028230
v 0.055696 0.047273 0.031739
v 0.030366 0.050233 -0.018433
v 0.079501 0.021699 0.005280
v 0.066073 0.025178 -0.017853
v 0.048921 0.025025 0.014710
v -0.054384 0.018616 0.056520
v -0.046113 0.022797 0.018647
v -0.061739 0.039674 0.090457
v 0.048921 0.025025 0.014710
v -0.000183 0.024720 -0.034669
v -0.000183 0.024720 -0.034669
v -0.061739 0.039674 0.090457
v 0.038697 0.042665 0.028230
v 0.064882 0.045106 0.003906
v -0.002136 0.047517 -0.087802
v -0.045351 0.048219 -0.071688
v -0.060274 0.035890 -0.082156
v -0.045351 0.048830 -0.081820
v -0.064547 0.049287 0.078280
v -0.061098 0.060274 0.089084
v -0.068575 0.051729 0.091861
v -0.040956 0.020905 0.063906
v 0.030366 0.050233 -0.018433
v 0.064882 0.045106 0.003906
v 0.049257 0.051576 -0.023927
v -0.025391 0.023133 -0.089633
v -0.130039 0.041627 0.050386
v 0.057466 0.041353 -0.055757
v -0.026399 0.032014 0.097690
v -0.068575 0.051729 0.091861
v -0.058260 0.050630 0.101260
v -0.061098 0.060274 0.089084
v -0.003388 0.012299 0.012452
v -0.046113 0.022797 0.018647
v -0.061983 0.020417 0.043031
v 0.074404 0.042238 0.052950
v 0.074404 0.042238 0.052950
v -0.068575 0.051729 0.091861
v -0.031312 0.034272 0.035340
v -0.061983 0.020417 0.043031
v 0.021821 0.037812 -0.014344
v 0.074404 0.042238 0.052950
v 0.074404 0.042238 0.052950
v -0.068575 0.051729 0.091861
v 0.015473 0.043519 0.038301
v 0.020203 0.069918 0.050844
v -0.030763 0.047517 0.070101
v -0.064547 0.049287 0.078280
v 0.061495 0.025025 0.056581
v -0.030763 0.047517 0.070101
v 0.022462 0.019593 0.068514
v -0.028169 0.039064 0.081240
v 0.031068 0.046846 0.095279
v 0.027985 0.071596 0.079318
v -0.024995 0.048738 0.091159
v -0.058260 0.050630 0.101260
vt 0.072238 0.149403
vt 0.026916 0.206735
vt 0.086843 0.156192
vt 0.273866 0.666870
vt 0.297885 0.683436
vt 0.321482 0.763882
vt 0.193571 0.078643
vt 0.072238 0.149403
vt 0.242605 0.336185
vt 0.010229 0.883314
vt 0.016596 0.666508
vt 0.053440 0.916174
vt 0.312581 0.668409
vt 0.274591 0.705736
vt 0.321512 0.576195
vt 0.242183 0.386185
vt 0.242183 0.386185
vt 0.060561 0.114672
vt 0.086843 0.156192
vt 0.083433 0.055650
vt 0.174712 0.078643
vt 0.321512 0.763882
vt 0.365266 0.710714
vt 0.074833 0.452599
vt 0.048249 0.521579
vt 0.074833 0.452599
vt 0.365266 0.632984
vt 0.182256 0.036187
vt 0.193571 0.078643
vt 0.207029 0.036187
vt 0.086843 0.156192
vt 0.088865 0.206192
vt 0.077941 0.227797
vt 0.365266 0.632984
vt 0.120247 0.448646
vt 0.365266 0.710714
vt 0.274591 0.628005
vt 0.208417 0.386185
vt 0.172238 0.386185
vt 0.088865 0.206192
vt 0.051870 0.197170
vt 0.245321 0.078643
vt 0.048249 0.521579
vt 0.098672 0.707727
vt 0.297523 0.680781
vt 0.365266 0.632984
vt 0.111707 0.054111
vt 0.216142 0.336185
vt 0.199998 0.925348
vt 0.050814 0.115668
vt 0.084278 0.055047
vt 0.060561 0.114672
vt 0.072238 0.149403
vt 0.051870 0.197170
vt 0.077941 0.227797
vt 0.090645 0.059241
vt 0.050814 0.115668
vt 0.050814 0.115668
vt 0.051870 0.197170
vt 0.072238 0.149403
vt 0.062643 0.135704
vt 0.051870 0.197170
vt 0.297885 0.683436
vt 0.321482 0.576195
vt 0.365266 0.632984
vt 0.321482 0.763882
vt 0.260107 0.336185
vt 0.232285 0.078643
vt 0.212793 0.078643
vt 0.113880 0.223150
vt 0.242605 0.336185
vt 0.216142 0.336185
vt 0.365266 0.710714
vt 0.321482 0.763882
vt 0.365266 0.710714
vt 0.229540 0.036187
vt 0.084278 0.055047
vt 0.077941 0.248950
vt 0.172268 0.263041
vt 0.207361 0.263041
vt 0.193269 0.162499
vt 0.321482 0.763882
vt 0.010229 0.883314
vt 0.273866 0.666870
vt 0.321482 0.576195
vt 0.157422 0.983977
vt 0.098249 0.997254
vt 0.190131 0.336185
vt 0.173746 0.162499
vt 0.190131 0.336185
vt 0.241881 0.263041
vt 0.154947 0.263041
vt 0.164181 0.336185
vt 0.261163 0.263041
vt 0.224380 0.263041
vt 0.190161 0.263041
vt 0.241881 0.263041
vt 0.016596 0.666508
vt 0.298368 0.681777
vt 0.053440 0.916174
vt 0.321482 0.576195
vt 0.298368 0.681777
vt 0.321482 0.763882
vt 0.190161 0.263041
vt 0.213849 0.162499
vt 0.193269 0.162499
vt 0.173746 0.162499
vt 0.087537 0.067629
vt 0.086843 0.156192
vt 0.051870 0.197170
vt 0.113880 0.223150
vt 0.232285 0.078643
vt 0.234186 0.162499
vt 0.229540 0.036187
vt 0.246769 0.162499
vt 0.212793 0.078643
vt 0.213849 0.162499
vt 0.234186 0.162499
vt 0.083433 0.055650
vt 0.050814 0.115668
vt 0.026916 0.206735
vt 0.055461 0.063133
vt 0.062643 0.135704
vt 0.050814 0.115668
vt 0.055461 0.063133
vt 0.056729 0.125686
vt 0.026916 0.206735
vt 0.050814 0.115668
vt 0.088865 0.206192
vt 0.051870 0.197170
vt 0.113880 0.223150
vt 0.062643 0.135704
vt 0.077941 0.227797
vt 0.087537 0.067629
vt 0.062643 0.135704
vt 0.050814 0.115668
vt 0.056729 0.125686
vt 0.242032 0.386185
vt 0.242454 0.336185
vt 0.259956 0.336185
vt 0.056729 0.125686
vt 0.060561 0.114672
vt 0.062643 0.135704
vt 0.062643 0.135704
vt 0.050814 0.115668
vt 0.050814 0.115668
vt 0.113880 0.223150
vt 0.055461 0.063133
vt 0.084278 0.055047
vt 0.026916 0.206735
vt 0.084278 0.055047
vt 0.208266 0.386185
vt 0.215991 0.336185
vt 0.242454 0.336185
vt 0.062643 0.135704
vt 0.050814 0.115668
vt 0.172087 0.386185
vt 0.189980 0.336185
vt 0.215991 0.336185
vt 0.060561 0.114672
vt 0.062643 0.135704
vt 0.050814 0.115668
vt 0.051870 0.197170
vt 0.062643 0.135704
vt 0.051870 0.197170
vt 0.050814 0.115668
vt 0.060561 0.114672
vt 0.055461 0.063133
vt 0.050814 0.115668
vt 0.050814 0.115668
vt 0.062643 0.135704
vt 0.050814 0.115668
vt 0.062643 0.135704
vt 0.056729 0.125686
vt 0.055461 0.063133
vt 0.062643 0.135704
vt 0.060561 0.114672
vt 0.055461 0.063133
vt 0.050814 0.115668
vt 0.229419 0.036187
vt 0.164030 0.336185
vt 0.189980 0.336185
vt 0.062643 0.135704
vt 0.062643 0.135704
vt 0.060561 0.114672
vt 0.060561 0.114672
vt 0.056729 0.125686
vt 0.062643 0.135704
vt 0.060561 0.114672
vt 0.050814 0.115668
vt 0.062643 0.135704
vt 0.056729 0.125686
vt 0.245200 0.078643
vt 0.193420 0.078643
vt 0.232165 0.078643
vt 0.072238 0.149403
vt 0.050814 0.115668
vt 0.111707 0.054111
vt 0.232165 0.078643
vt 0.212672 0.078643
vt 0.229419 0.036187
vt 0.113880 0.223150
vt 0.186088 0.362135
vt 0.086843 0.156192
vt 0.204494 0.275292
vt 0.050814 0.115668
vt 0.062643 0.135704
vt 0.212672 0.078643
vt 0.206878 0.036187
vt 0.098822 0.063164
vt 0.193420 0.078643
vt 0.174591 0.078643
vt 0.182105 0.036187
vt 0.050814 0.115668
vt 0.172328 0.113435
vt 0.149305 0.261020
vt 0.207995 0.206796
vt 0.936203 0.296445
vt 0.429478 0.298678
vt 0.062643 0.135704
vt 0.060561 0.114672
vt 0.239256 0.112771
vt 0.210198 0.027105
vt 0.226009 0.044998
vt 0.232014 0.350126
vt 0.207059 0.206433
vt 0.162129 0.267688
vt 0.198007 0.381930
vt 0.986685 0.011263
vt 0.986685 0.156736
vt 0.681135 0.156736
vt 0.681135 0.156736
vt 0.179751 0.101033
vt 0.077941 0.227797
vt 0.193722 0.040140
vt 0.930892 0.654318
vt 0.226009 0.044998
vt 0.208387 0.108818
vt 0.245804 0.273904
vt 0.245804 0.273904
vt 0.383129 0.015337
vt 0.688649 0.160809
vt 0.164030 0.336185
vt 0.241760 0.263041
vt 0.241760 0.263041
vt 0.154797 0.263041
vt 0.239256 0.112771
vt 0.206637 0.031842
vt 0.209624 0.378701
vt 0.162129 0.267688
vt 0.193722 0.040140
vt 0.077941 0.248950
vt 0.986685 0.011263
vt 0.050814 0.115668
vt 0.149305 0.261020
vt 0.172328 0.113435
vt 0.204645 0.267749
vt 0.222841 0.807968
vt 0.123204 0.458695
vt 0.099607 0.706792
vt 0.072238 0.149403
vt 0.062643 0.135704
vt 0.062643 0.135704
vt 0.062643 0.135704
vt 0.681135 0.156736
vt 0.986685 0.011263
vt 0.383129 0.160809
vt 0.986685 0.156736
vt 0.435301 0.654318
vt 0.681135 0.011263
vt 0.688649 0.015337
vt 0.986685 0.156736
vt 0.681135 0.011263
vt 0.816680 0.964997
vt 0.546405 0.964997
vt 0.179751 0.101033
vt 0.186088 0.362135
vt 0.681135 0.011263
vt 0.173626 0.162499
vt 0.088865 0.206192
vt 0.232014 0.350126
vt 0.087537 0.067629
vt 0.088865 0.206192
vt 0.050814 0.115668
vt 0.074351 0.061866
vt 0.086843 0.156192
vt 0.180596 0.344664
vt 0.321482 0.763882
vt 0.273866 0.666870
vt 0.160258 0.983193
vt 0.199998 0.925348
vt 0.098249 0.997254
vt 0.297523 0.680781
vt 0.222841 0.807968
vt 0.074351 0.061866
vt 0.250089 0.123815
vt 0.261042 0.263041
vt 0.224229 0.263041
vt 0.212099 0.047986
vt 0.250089 0.123815
vt 0.232768 0.063827
vt 0.232768 0.063827
vt 0.180596 0.344664
vt 0.240614 0.334012
vt 0.196166 0.362196
vt 0.211344 0.359329
vt 0.240614 0.334012
vt 0.258658 0.266511
vt 0.051870 0.197170
vt 0.258658 0.266511
vt 0.077941 0.248950
vt 0.113880 0.223150
vt 0.077941 0.227797
vt 0.077941 0.227797
vt 0.088865 0.206192
vt 0.190011 0.263041
vt 0.207421 0.052150
vt 0.190584 0.059512
vt 0.246618 0.162499
vt 0.213728 0.162499
vt 0.234036 0.162499
vt 0.190584 0.059512
vt 0.190011 0.263041
vt 0.172147 0.263041
vt 0.207210 0.263041
vt 0.242032 0.386185
vt 0.193149 0.162499
vt 0.213728 0.162499
vt 0.173626 0.162499
vt 0.193149 0.162499
vt 0.234036 0.162499
vt 0.209745 0.120345
vt 0.174712 0.078643
vt 0.193571 0.078643
vt 0.182256 0.036187
vt 0.206848 0.338750
vt 0.083433 0.055650
vt 0.240614 0.334012
vt 0.215840 0.379938
vt 0.242183 0.386185
vt 0.207029 0.036187
vt 0.072238 0.149403
vt 0.242183 0.386185
vt 0.229540 0.036187
vt 0.010229 0.883314
vt 0.193571 0.078643
vt 0.098672 0.707727
vt 0.221151 0.867623
vt 0.098249 0.997254
vt 0.051870 0.197170
vt 0.026916 0.206735
vt 0.260107 0.336185
vt 0.242605 0.336185
vt 0.016596 0.666508
vt 0.048249 0.521579
vt 0.212793 0.078643
vt 0.232285 0.078643
vt 0.930892 0.654318
vt 0.050814 0.115668
vt 0.050814 0.115668
vt 0.229540 0.036187
vt 0.172238 0.386185
vt 0.083433 0.055650
vt 0.086843 0.156192
vt 0.077941 0.227797
vt 0.154284 0.454319
vt 0.077941 0.227797
vt 0.180596 0.344664
vt 0.060561 0.114672
vt 0.435301 0.654318
vt 0.050814 0.115668
vt 0.180596 0.344664
vt 0.050814 0.115668
vt 0.062643 0.135704
vt 0.060561 0.114672
vt 0.077941 0.248950
vt 0.208417 0.386185
vt 0.086843 0.156192
vt 0.050814 0.115668
vt 0.157422 0.983977
vt 0.074833 0.452599
vt 0.212793 0.078643
vt 0.234186 0.162499
vt 0.261163 0.263041
vt 0.241881 0.263041
vt 0.060561 0.114672
vt 0.050814 0.115668
vt 0.051870 0.197170
vt 0.213849 0.162499
vt 0.241881 0.263041
vt 0.193269 0.162499
vt 0.173746 0.162499
vt 0.163608 0.263041
vt 0.216142 0.336185
vt 0.190131 0.336185
vt 0.242605 0.336185
vt 0.216142 0.336185
vt 0.242454 0.336185
vt 0.234036 0.162499
vt 0.215991 0.336185
vt 0.164030 0.336185
vt 0.189980 0.336185
vt 0.215991 0.336185
vt 0.164181 0.336185
vt 0.190131 0.336185
vt 0.062643 0.135704
vt 0.050814 0.115668
vt 0.111707 0.054111
vt 0.113880 0.223150
vt 0.088865 0.206192
vt 0.250089 0.123815
vt 0.051870 0.197170
vt 0.113880 0.223150
vt 0.051870 0.197170
vt 0.090645 0.059241
vt 0.240614 0.334012
vt 0.207995 0.206796
vt 0.258658 0.266511
vt 0.196166 0.362196
vt 0.050814 0.115668
vt 0.196166 0.362196
vt 0.258658 0.266511
vt 0.026916 0.206735
vt 0.077941 0.227797
vt 0.224380 0.263041
vt 0.050814 0.115668
vt 0.190161 0.263041
vt 0.193269 0.162499
vt 0.207361 0.263041
vt 0.242454 0.336185
vt 0.241760 0.263041
vt 0.189980 0.336185
vt 0.232768 0.063827
vt 0.245321 0.078643
vt 0.246769 0.162499
vt 0.190161 0.263041
vt 0.213849 0.162499
vt 0.212099 0.047986
vt 0.234186 0.162499
vt 0.232285 0.078643
vt 0.261042 0.263041
vt 0.246618 0.162499
vt 0.062643 0.135704
vt 0.213728 0.162499
vt 0.190011 0.263041
vt 0.213728 0.162499
vt 0.072238 0.149403
vt 0.250089 0.123815
vt 0.084278 0.055047
vt 0.113880 0.223150
vt 0.087537 0.067629
vt 0.088865 0.206192
vt 0.275948 0.705736
vt 0.316262 0.666448
vt 0.321512 0.578911
vt 0.275948 0.628005
vt 0.062643 0.135704
vt 0.062643 0.135704
vt 0.060561 0.114672
vt 0.050814 0.115668
vt 0.275677 0.708662
vt 0.086843 0.156192
vt 0.087537 0.067629
vt 0.320124 0.761619
vt 0.087537 0.067629
vt 0.056729 0.125686
vt 0.060561 0.114672
vt 0.816680 0.964997
vt 0.363908 0.705736
vt 0.363908 0.628005
vt 0.062643 0.135704
vt 0.056729 0.125686
vt 0.296347 0.680359
vt 0.086843 0.156192
vt 0.321512 0.761619
vt 0.363908 0.705736
vt 0.062643 0.135704
vt 0.062643 0.135704
vt 0.050814 0.115668
vt 0.051870 0.197170
vt 0.060561 0.114672
vt 0.055461 0.063133
vt 0.055461 0.063133
vt 0.062643 0.135704
vt 0.055461 0.063133
vt 0.050814 0.115668
vt 0.056729 0.125686
vt 0.062643 0.135704
vt 0.062643 0.135704
vt 0.084278 0.055047
vt 0.084278 0.055047
vt 0.084278 0.055047
vt 0.050814 0.115668
vt 0.363908 0.628005
vt 0.060561 0.114672
vt 0.088865 0.206192
vt 0.077941 0.227797
vt 0.072238 0.149403
vt 0.275677 0.625109
vt 0.320124 0.578911
vt 0.026916 0.206735
vt 0.207421 0.052150
vt 0.172328 0.113435
vt 0.245200 0.078643
vt 0.113880 0.223150
vt 0.149305 0.261020
vt 0.149305 0.261020
vt 0.174591 0.078643
vt 0.088865 0.206192
vt 0.077941 0.248950
vt 0.050814 0.115668
vt 0.062643 0.135704
vt 0.056729 0.125686
vt 0.062643 0.135704
vt 0.193420 0.078643
vt 0.212672 0.078643
vt 0.206878 0.036187
vt 0.232768 0.063827
vt 0.072238 0.149403
vt 0.051870 0.197170
vt 0.062643 0.135704
vt 0.936203 0.296445
vt 0.546405 0.964997
vt 0.050814 0.115668
vt 0.429478 0.298678
vt 0.229419 0.036187
vt 0.232165 0.078643
vt 0.212672 0.078643
vt 0.207995 0.206796
vt 0.172328 0.113435
vt 0.190584 0.059512
vt 0.242032 0.386185
vt 0.208266 0.386185
vt 0.229419 0.036187
vt 0.209745 0.120345
vt 0.190584 0.059512
vt 0.204645 0.267749
vt 0.172087 0.386185
vt 0.242032 0.386185
vt 0.182105 0.036187
vt 0.190011 0.263041
vt 0.207210 0.263041
vt 0.193149 0.162499
vt 0.193420 0.078643
vt 0.259956 0.336185
vt 0.193149 0.162499
vt 0.163457 0.263041
vt 0.173626 0.162499
vt 0.241760 0.263041
vt 0.224229 0.263041
vt 0.234036 0.162499
vt 0.232165 0.078643
vn 0.099518 0.957030 0.272378
vn -0.145933 -0.852480 -0.501977
vn 0.188818 0.885989 0.423523
vn -0.213343 0.695918 0.685699
vn -0.076351 0.994984 0.064635
vn 0.065046 0.993557 0.092808
vn -0.218433 -0.790368 0.572368
vn -0.099946 0.993839 -0.047898
vn -0.207434 -0.511489 -0.833876
vn -0.026231 0.999645 0.004648
vn -0.042182 0.997976 0.047596
vn -0.022906 0.999312 -0.029172
vn -0.125328 0.952158 0.278727
vn -0.099023 0.814460 0.571708
vn -0.368950 0.923287 0.106849
vn -0.463309 0.658663 -0.592880
vn -0.625274 -0.365484 -0.689532
vn -0.064856 0.997776 0.015362
vn -0.204427 -0.463308 0.862297
vn -0.176682 -0.478102 0.860350
vn -0.132930 -0.791102 0.597066
vn 0.120419 0.899002 0.421064
vn 0.103264 0.979523 0.172833
vn -0.042302 0.997014 0.064603
vn -0.006997 0.993972 -0.109409
vn -0.142682 0.984691 0.100127
vn -0.103579 0.986378 0.127785
vn 0.524853 -0.626735 0.575962
vn 0.063530 0.680332 0.730146
vn 0.586156 0.400049 0.704544
vn -0.115130 0.983836 0.137156
vn -0.369419 0.928197 -0.044500
vn -0.447212 -0.861737 -0.239606
vn -0.191507 0.981208 -0.023588
vn -0.298625 0.939891 -0.165615
vn -0.011769 0.987952 0.154313
vn -0.415469 0.832023 0.367591
vn -0.761721 0.603307 0.236225
vn -0.916331 -0.373789 0.143597
vn -0.413737 -0.534890 0.736692
vn 0.094529 -0.874042 -0.476566
vn 0.249612 -0.736034 -0.629243
vn -0.050530 0.996242 0.070344
vn -0.189879 0.976907 -0.097969
vn -0.061345 0.987444 0.145572
vn -0.125284 0.991743 0.027371
vn 0.230210 -0.949389 0.213692
vn -0.090371 0.922272 -0.375829
vn -0.382092 0.801340 0.460283
vn 0.335776 -0.926239 -0.171277
vn -0.426155 0.854288 -0.297631
vn -0.508171 0.816366 -0.274426
vn -0.436950 0.896025 -0.078827
vn -0.250205 0.841631 -0.478597
vn -0.256186 0.897502 -0.358969
vn 0.230210 -0.949389 0.213692
vn 0.263004 0.111114 -0.958375
vn 0.869821 0.435708 -0.231453
vn 0.869821 0.435708 -0.231453
vn 0.082915 0.984985 0.151427
vn 0.263004 0.111114 -0.958375
vn 0.263004 0.111114 -0.958375
vn -0.213343 0.695918 0.685699
vn -0.320216 0.921778 0.218603
vn -0.130848 0.989967 0.053329
vn 0.345194 0.464881 0.815307
vn -0.360944 -0.554239 -0.750026
vn 0.448871 0.737098 -0.505175
vn -0.004651 0.705407 0.708787
vn 0.230210 -0.949389 0.213692
vn -0.017219 0.693565 -0.720189
vn -0.506132 0.716068 0.480705
vn -0.045862 0.998947 -0.001069
vn 0.024065 0.999047 0.036402
vn -0.008202 0.997986 0.062909
vn 0.864623 0.454629 -0.213865
vn 0.222836 -0.963470 -0.148557
vn -0.229001 -0.814588 -0.532921
vn -0.230183 -0.857222 0.460637
vn 0.029427 0.786911 0.616364
vn 0.068453 0.563804 0.823067
vn 0.182271 0.561486 0.807163
vn -0.046892 0.998876 -0.006861
vn -0.323022 0.728415 0.604209
vn -0.338018 0.909714 0.241174
vn -0.198052 0.946745 0.253868
vn -0.052473 0.997139 -0.054413
vn -0.627276 -0.576422 0.523700
vn 0.107057 -0.994204 -0.009844
vn -0.436155 0.634365 0.638240
vn 0.418056 0.511905 -0.750455
vn -0.064731 -0.995798 -0.064775
vn -0.581232 -0.796492 0.166644
vn 0.167376 -0.579700 -0.797454
vn 0.349660 0.835515 -0.423855
vn -0.245334 -0.542604 0.803363
vn 0.263154 -0.468768 -0.843212
vn 0.031317 0.998129 -0.052516
vn -0.126469 0.991956 -0.005329
vn -0.109394 0.992410 -0.056173
vn -0.409216 0.904535 0.119828
vn -0.323022 0.728415 0.604209
vn 0.103273 0.416296 0.903345
vn -0.090981 0.435042 0.895802
vn 0.297384 0.842092 0.449938
vn -0.089050 -0.678865 0.728844
vn -0.173443 -0.797038 0.578487
vn 0.073037 -0.990538 -0.116191
vn -0.482526 0.875291 0.032152
vn 0.120143 0.975326 0.185218
vn -0.304361 -0.647976 0.698206
vn 0.168059 -0.735128 -0.656767
vn 0.365958 -0.616021 -0.697562
vn 0.767942 -0.599133 -0.226504
vn 0.212766 -0.742937 -0.634646
vn 0.382454 0.761146 -0.523818
vn 0.511128 0.725571 -0.460755
vn 0.517062 0.626299 -0.583436
vn 0.167611 0.974245 0.150841
vn 0.204639 -0.962190 -0.179760
vn 0.204639 -0.962190 -0.179760
vn 0.263987 -0.964279 0.021827
vn 0.715850 -0.360619 -0.597924
vn 0.715850 -0.360619 -0.597924
vn 0.463161 0.876674 -0.130098
vn 0.715850 -0.360619 -0.597924
vn 0.766238 -0.642406 0.013918
vn 0.766238 -0.642406 0.013918
vn -0.323058 0.905195 0.276143
vn 0.766238 -0.642406 0.013918
vn 0.073037 -0.990538 -0.116191
vn -0.030591 0.978833 0.202364
vn -0.011359 0.983600 0.180007
vn -0.448877 0.860198 -0.242011
vn -0.190136 0.533453 0.824182
vn -0.585429 -0.680076 0.441327
vn 0.795268 0.601967 -0.071999
vn 0.374940 0.664245 0.646683
vn 0.091059 -0.513300 0.853365
vn 0.252958 -0.557582 0.790642
vn 0.164681 -0.159237 -0.973408
vn 0.372406 0.926756 -0.049369
vn 0.164681 -0.159237 -0.973408
vn 0.046062 0.915039 -0.400728
vn 0.243791 0.890275 -0.384676
vn 0.164681 -0.159237 -0.973408
vn 0.133726 -0.982812 -0.127268
vn 0.492221 0.854662 -0.165141
vn -0.012087 0.761968 -0.647502
vn 0.335776 -0.926239 -0.171277
vn 0.493437 -0.813280 -0.308375
vn 0.780456 0.608699 -0.142735
vn 0.065046 0.767452 0.637798
vn -0.079896 0.694789 0.714762
vn 0.869821 0.435708 -0.231453
vn 0.614284 -0.716466 -0.330654
vn 0.925024 -0.378587 -0.031670
vn 0.510081 0.635479 -0.579641
vn 0.349902 0.892285 -0.285299
vn 0.144608 0.863888 -0.482478
vn 0.283339 0.910701 -0.300569
vn 0.144608 0.863888 -0.482478
vn -0.294758 0.417901 -0.859346
vn -0.294758 0.417901 -0.859346
vn -0.281292 0.959615 -0.003724
vn 0.412238 -0.903346 0.118433
vn -0.004048 0.999957 0.008391
vn 0.011396 -0.795519 -0.605821
vn -0.024087 -0.701271 -0.712488
vn -0.272793 -0.961518 -0.032656
vn -0.424286 0.449953 0.785826
vn 0.362162 -0.931075 -0.044036
vn -0.585429 -0.680076 0.441327
vn -0.585429 -0.680076 0.441327
vn 0.012395 -0.923133 -0.384281
vn 0.496103 0.856662 -0.141464
vn -0.042601 0.997126 0.062650
vn 0.390861 -0.900662 -0.189831
vn 0.114589 -0.993406 -0.003676
vn -0.785415 -0.603599 0.137083
vn 0.748143 -0.606996 -0.268025
vn 0.683339 -0.579108 -0.444614
vn -0.927969 0.171769 0.330711
vn -0.278535 0.897623 -0.341601
vn -0.097490 0.946108 -0.308828
vn -0.086460 0.927436 -0.363850
vn -0.597205 0.054187 0.800256
vn -0.848350 0.491688 0.196329
vn 0.299991 0.945364 -0.127640
vn 0.398817 0.796095 -0.455167
vn 0.248968 0.772050 -0.584769
vn -0.957358 0.123857 0.261008
vn -0.251654 -0.734369 0.630375
vn 0.099028 0.706688 -0.700561
vn -0.333190 -0.735106 0.590427
vn -0.278535 0.897623 -0.341601
vn -0.173569 -0.974105 0.144890
vn 0.133726 -0.982812 -0.127268
vn -0.442308 0.762156 0.472740
vn -0.499406 0.740735 0.449340
vn -0.880487 0.460896 0.110987
vn -0.438071 -0.810496 0.388831
vn 0.103861 0.929328 -0.354347
vn -0.665024 -0.698753 0.263604
vn 0.035286 0.999307 -0.011834
vn 0.423240 -0.846630 -0.322624
vn -0.001207 0.711751 -0.702431
vn 0.040725 0.684305 -0.728058
vn -0.482301 0.405812 -0.776339
vn 0.133726 -0.982812 -0.127268
vn 0.203301 -0.790790 -0.577339
vn 0.288817 -0.790063 -0.540727
vn -0.436566 -0.632307 -0.639999
vn -0.128335 -0.937649 -0.323024
vn -0.032576 -0.947641 -0.317671
vn 0.066101 -0.958873 -0.276031
vn 0.026144 -0.999568 -0.013403
vn 0.283384 0.958003 -0.043849
vn 0.250406 0.967618 -0.031829
vn -0.216460 0.967198 0.132937
vn -0.068135 0.997629 0.009724
vn 0.157467 0.906266 0.392284
vn -0.372085 0.897625 0.236269
vn -0.097759 0.914433 0.392755
vn 0.058217 -0.997289 0.045005
vn 0.014790 -0.999593 -0.024379
vn -0.083626 -0.963630 -0.253818
vn 0.100826 -0.992287 -0.072110
vn -0.080632 0.995641 -0.046881
vn -0.104051 0.988322 -0.111326
vn -0.063666 0.996905 -0.046115
vn -0.126393 0.976671 -0.173607
vn -0.187552 -0.953631 -0.235399
vn 0.500879 -0.676157 0.540307
vn -0.005794 -0.993438 -0.114222
vn 0.144997 0.989030 -0.028223
vn 0.075636 -0.989048 0.126744
vn -0.124601 0.987448 0.097057
vn 0.197493 0.922559 0.331483
vn 0.194259 -0.962584 0.188934
vn -0.074845 0.947877 -0.309720
vn -0.074845 0.947877 -0.309720
vn 0.267160 -0.948673 0.169246
vn -0.507953 0.511909 0.692772
vn -0.369080 -0.468513 0.802668
vn 0.054613 -0.995912 0.071945
vn 0.123328 -0.948154 0.292905
vn -0.057617 -0.997740 0.034574
vn 0.358228 0.916028 -0.180458
vn -0.185384 0.924532 -0.332976
vn -0.392395 0.918264 -0.053081
vn 0.772406 -0.541755 0.331497
vn -0.063666 0.996905 -0.046115
vn -0.294758 0.417901 -0.859346
vn 0.021781 0.915114 -0.402607
vn -0.076020 0.900263 -0.428659
vn 0.036730 0.999284 0.009033
vn -0.279040 0.891905 0.355869
vn -0.280305 0.919563 0.275379
vn -0.138274 0.983797 0.114124
vn -0.216460 0.967198 0.132937
vn -0.466131 0.420476 0.778409
vn -0.524863 0.075329 0.847847
vn -0.233505 0.905803 -0.353549
vn -0.379823 0.817884 0.432204
vn -0.320044 0.800455 0.506798
vn -0.133852 0.899117 -0.416740
vn -0.348001 0.809437 0.472976
vn 0.100884 0.994720 -0.018817
vn -0.348001 0.809437 0.472976
vn -0.016398 0.979487 -0.200838
vn -0.072065 0.996519 -0.041921
vn -0.055267 0.997204 -0.050303
vn -0.079787 0.996602 -0.020436
vn -0.077618 0.996787 -0.019754
vn -0.280777 0.911083 -0.301815
vn -0.016512 -0.993750 -0.110396
vn -0.104051 0.988322 -0.111326
vn -0.105008 -0.994467 -0.002847
vn -0.521712 -0.734863 0.433351
vn 0.336245 0.937440 0.090252
vn -0.663796 -0.701431 0.259556
vn -0.041844 -0.738897 0.672518
vn -0.145933 -0.852480 -0.501977
vn 0.245380 -0.744868 0.620452
vn 0.222301 -0.727348 0.649266
vn 0.280964 0.923638 -0.260675
vn 0.029856 0.982704 0.182760
vn -0.352875 0.640120 0.682441
vn -0.325634 0.923683 -0.201923
vn -0.311235 0.948140 -0.064523
vn -0.131868 0.984511 -0.115537
vn -0.352875 0.640120 0.682441
vn -0.386037 0.893789 -0.228291
vn 0.425653 0.868150 0.255215
vn -0.052961 -0.941310 0.333362
vn -0.269574 -0.579679 0.768962
vn -0.397388 0.836393 0.377531
vn -0.446879 0.894593 0.001827
vn -0.077617 0.894661 0.439952
vn -0.295863 0.907211 0.299054
vn -0.003226 -0.987745 0.156041
vn 0.043993 -0.993266 -0.107174
vn 0.025001 -0.996945 0.073995
vn 0.125736 -0.992036 -0.007455
vn 0.404876 0.913509 0.039712
vn 0.238580 0.932312 0.271798
vn 0.063800 -0.957541 0.281148
vn -0.378972 -0.667825 -0.640617
vn -0.011024 0.912789 0.408282
vn -0.656816 -0.584483 -0.476416
vn 0.005247 -0.844622 0.535337
vn -0.680015 -0.720677 -0.134921
vn -0.207359 0.972550 0.105588
vn -0.117703 0.899360 0.421067
vn 0.208126 0.435867 -0.875616
vn -0.068305 -0.997664 -0.001266
vn 0.057938 -0.992826 -0.104597
vn -0.349243 -0.750002 0.561718
vn -0.504907 0.745875 0.434442
vn -0.401984 -0.636304 0.658427
vn -0.306537 0.912362 -0.271351
vn 0.346281 -0.543151 -0.764903
vn 0.285870 -0.857434 -0.427884
vn 0.053468 0.787958 -0.613403
vn 0.524122 -0.369392 0.767362
vn 0.223036 -0.698711 -0.679748
vn -0.160958 0.836997 -0.522999
vn 0.178446 -0.802502 -0.569339
vn 0.013001 0.529387 -0.848281
vn -0.622252 0.592578 0.511521
vn -0.159920 0.986988 0.016752
vn -0.327991 -0.796979 0.507194
vn -0.406512 -0.785223 0.467090
vn 0.336346 -0.711448 0.617020
vn 0.419473 0.847549 -0.325120
vn 0.294577 -0.711695 0.637742
vn 0.466580 0.880908 0.079405
vn 0.772660 0.170510 -0.611493
vn -0.269577 0.736753 -0.620100
vn 0.483514 0.292020 0.825190
vn -0.280969 0.950127 0.135336
vn -0.519727 -0.253434 -0.815877
vn 0.933299 0.358453 -0.021547
vn -0.445052 0.889588 0.102769
vn -0.001773 0.631854 0.775085
vn -0.232396 0.972542 0.012453
vn 0.061481 0.997852 0.022632
vn -0.302234 0.927582 0.219649
vn -0.345148 -0.696172 -0.629459
vn -0.096659 -0.863170 -0.495575
vn -0.168497 -0.537823 -0.826048
vn -0.084550 -0.587421 -0.804853
vn -0.540240 0.837250 -0.084574
vn -0.447943 0.876405 -0.176808
vn 0.554181 0.734803 -0.391086
vn 0.612879 0.702130 -0.362481
vn 0.144980 0.989032 -0.028226
vn 0.386705 -0.921979 0.020336
vn 0.451200 -0.875368 0.173639
vn 0.726740 -0.675494 -0.124728
vn -0.961993 -0.268101 -0.051877
vn 0.375885 0.892574 0.249042
vn 0.145101 0.898922 0.413383
vn -0.273008 0.956119 0.106320
vn -0.028979 0.991896 -0.123703
vn 0.573365 -0.600899 0.556932
vn -0.163309 -0.839447 -0.518323
vn 0.311119 0.949113 -0.048877
vn 0.100847 0.994724 -0.018799
vn 0.009325 -0.705683 -0.708466
vn -0.016431 0.868024 -0.496250
vn -0.068779 -0.946267 -0.315988
vn -0.280969 0.950127 0.135336
vn -0.110534 0.992025 0.060565
vn -0.624837 -0.631360 -0.459307
vn -0.723305 0.677206 0.134990
vn 0.276125 -0.698827 0.659846
vn -0.096659 -0.863170 -0.495575
vn -0.109076 0.975982 0.188576
vn -0.337305 0.911103 -0.236890
vn -0.061747 0.666206 0.743207
vn 0.700884 0.572932 -0.424865
vn 0.167562 -0.700094 -0.694112
vn 0.185636 -0.703782 -0.685733
vn -0.559325 0.769623 -0.307954
vn 0.346974 -0.932208 -0.102948
vn 0.827440 0.426404 -0.365408
vn 0.602693 0.796500 0.048453
vn 0.604913 0.494194 -0.624382
vn -0.321197 -0.802206 0.503288
vn -0.417814 -0.785152 0.457131
vn -0.446814 -0.771236 0.453378
vn 0.049368 0.945796 -0.320987
vn -0.683804 -0.659617 0.311957
vn 0.165541 0.722384 -0.671385
vn -0.526562 0.745439 0.408722
vn 0.567176 0.620810 0.541208
vn -0.015160 -0.703306 0.710726
vn 0.639111 0.667790 0.381567
vn 0.141332 -0.760115 -0.634232
vn 0.180665 0.546268 -0.817895
vn 0.306528 0.811370 -0.497714
vn -0.759134 -0.601350 0.249186
vn -0.500909 0.648698 0.572958
vn -0.342800 0.392498 -0.853483
vn -0.342800 0.392498 -0.853483
vn 0.158541 -0.964374 -0.211773
vn 0.071028 -0.830486 0.552492
vn 0.024998 -0.736462 0.676016
vn 0.243891 0.894726 0.374143
vn -0.342800 0.392498 -0.853483
vn 0.158541 -0.964374 -0.211773
vn -0.348388 0.937350 -0.000614
vn 0.158541 -0.964374 -0.211773
vn 0.385077 -0.894672 0.226445
vn 0.224522 -0.937901 0.264445
vn 0.271166 0.912703 0.305683
vn 0.291582 -0.932055 0.215065
vn -0.204887 -0.978544 -0.021745
vn -0.173936 -0.933580 -0.313327
vn 0.279873 -0.926336 0.252138
vn 0.346974 -0.932208 -0.102948
vn -0.630946 -0.766892 -0.117406
vn 0.509455 0.809304 -0.292373
vn 0.827440 0.426404 -0.365408
vn -0.209938 0.399601 0.892326
vn -0.007879 0.496639 0.867921
vn -0.001972 0.749233 0.662304
vn 0.379837 -0.706730 0.596872
vn 0.083539 -0.711541 0.697661
vn 0.030809 -0.780196 -0.624776
vn -0.011989 0.907220 0.420485
vn 0.281843 -0.730225 -0.622363
vn 0.197592 -0.718626 -0.666734
vn -0.431133 -0.774329 0.463183
vn 0.083858 0.607394 0.789963
vn -0.325327 0.894453 0.306783
vn 0.290058 -0.736241 -0.611405
vn 0.207792 -0.717702 -0.664625
vn 0.102195 -0.715451 0.691149
vn 0.010394 -0.717484 0.696497
vn 0.827440 0.426404 -0.365408
vn -0.294832 0.724573 -0.622952
vn -0.302127 0.452736 -0.838898
vn -0.102361 0.933469 0.343742
vn 0.049558 0.962096 0.268169
vn 0.189025 -0.941413 0.279304
vn 0.237383 -0.969263 -0.064645
vn -0.371315 -0.770956 0.517448
vn 0.091436 -0.995712 -0.014034
vn -0.171846 0.891308 0.419570
vn -0.086719 0.849686 0.520109
vn -0.220264 0.942389 0.251767
vn -0.479093 0.855290 0.197354
vn -0.389629 0.792476 0.469224
vn -0.358406 0.525553 0.771582
vn 0.221385 0.878132 -0.424114
vn -0.036027 0.994374 -0.099613
vn 0.067030 0.808317 -0.584920
vn 0.047086 0.799639 0.598633
vn -0.613204 -0.678542 0.404427
vn -0.612336 -0.681503 0.400747
vn 0.035162 0.972466 0.230379
vn -0.496908 0.818838 -0.287380
vn 0.764432 0.606892 -0.217543
vn -0.095581 0.991675 -0.086284
vn -0.079734 0.996607 -0.020437
vn -0.135132 0.987658 0.079190
vn -0.288601 0.952602 0.096219
vn -0.517295 -0.639334 0.568909
vn -0.517295 -0.639334 0.568909
vn -0.209746 0.946287 0.246062
vn -0.503878 0.863655 -0.014379
vn 0.035557 0.957859 0.285030
vn -0.063149 0.996917 0.046577
vn 0.450824 0.846521 -0.283125
vn -0.124109 0.617756 0.776514
vn 0.784260 -0.620408 0.005478
vn 0.784260 -0.620408 0.005478
vn -0.138249 0.990378 0.006280
vn 0.068655 -0.921837 -0.381449
vn 0.428285 0.887784 -0.168557
vn -0.476588 0.392427 0.786679
vn 0.053777 -0.796224 -0.602608
vn 0.156423 -0.155097 -0.975437
vn 0.156423 -0.155097 -0.975437
vn 0.156423 -0.155097 -0.975437
vn -0.028191 0.914222 -0.404232
vn -0.480469 0.806837 -0.343748
vn 0.486622 -0.831804 -0.267023
vn -0.101680 0.685164 -0.721257
vn -0.517295 -0.639334 0.568909
vn -0.323710 0.946151 0.003068
vn 0.067030 0.808317 -0.584920
vn -0.322885 0.923428 0.207428
vn -0.026086 0.997064 0.071999
vn -0.470757 0.872501 -0.130882
vn -0.357668 0.775222 0.520676
vn -0.400824 0.886097 0.232750
vn 0.784260 -0.620408 0.005478
vn -0.050790 -0.997660 0.045770
vn -0.240972 -0.947596 -0.209747
vn 0.050062 -0.715107 0.697220
vn 0.091436 -0.995712 -0.014034
vn -0.212675 -0.932308 -0.292524
vn -0.259134 0.915104 -0.308924
vn -0.295312 -0.786568 -0.542311
vn -0.452453 -0.692703 0.561649
vn 0.818544 -0.484952 0.307909
vn 0.171485 0.903501 -0.392784
vn -0.511169 0.045510 0.858275
vn -0.584298 0.018405 0.811330
vn -0.304746 0.884744 -0.352644
vn -0.215328 0.723879 -0.655463
vn -0.280583 0.716309 -0.638885
vn -0.761373 0.560078 -0.326534
vn 0.104236 -0.987696 0.116585
vn 0.065049 0.997303 0.033982
vn 0.105663 0.992309 0.064485
vn -0.042533 0.994394 0.096808
vn 0.283504 0.957966 -0.043893
vn -0.077590 0.996789 -0.019763
vn 0.601385 -0.735727 -0.311515
vn 0.250406 0.967618 -0.031829
vn -0.631845 -0.433165 0.642759
vn 0.132067 0.796643 0.589846
vn 0.070142 0.789888 0.609227
vn -0.228702 -0.944426 -0.236124
vn -0.348489 0.900208 -0.261116
vn -0.409295 0.912332 0.011338
vn 0.830821 0.513276 0.215140
vn 0.623030 0.439592 -0.646987
vn -0.488283 0.625144 0.608912
vn -0.105341 0.986990 0.121464
vn -0.029324 -0.992816 -0.116005
vn 0.015835 0.999863 -0.004887
vn 0.587509 -0.563227 -0.581041
vn 0.794237 -0.534843 0.288324
vn -0.865355 -0.470694 -0.172070
vn -0.272826 -0.783926 -0.557697
vn -0.174083 0.807780 -0.563194
vn -0.436821 0.574713 -0.692021
vn -0.382578 -0.766035 -0.516551
vn 0.466658 -0.690885 0.552186
vn -0.353753 -0.775234 -0.523328
vn -0.255073 -0.787546 -0.560989
vn -0.324263 -0.788380 -0.522791
vn 0.168352 0.548949 0.818726
vn 0.123283 0.868749 0.479663
vn -0.041302 0.658509 0.751438
vn -0.036199 -0.695819 0.717304
f 62/62/62 61/61/61 57/57/57
f 70/70/70 47/47/47 56/56/56
f 124/124/124 126/126/126 123/123/123
f 128/128/128 130/130/130 127/127/127
f 108/108/108 77/77/77 131/131/131
f 59/59/59 58/58/58 155/155/155
f 150/150/150 77/77/77 50/50/50
f 136/136/136 174/174/174 173/173/173
f 147/147/147 198/198/198 210/210/210
f 146/146/146 141/141/141 143/143/143
f 163/163/163 164/164/164 254/254/254
f 4/4/4 66/66/66 63/63/63
f 4/4/4 63/63/63 64/64/64
f 73/73/73 99/99/99 74/74/74
f 34/34/34 99/99/99 73/73/73
f 101/101/101 99/99/99 34/34/34
f 64/64/64 5/5/5 65/65/65
f 65/65/65 5/5/5 75/75/75
f 75/75/75 5/5/5 6/6/6
f 84/84/84 102/102/102 101/101/101
f 84/84/84 82/82/82 102/102/102
f 49/49/49 258/258/258 86/86/86
f 86/86/86 258/258/258 260/260/260
f 87/87/87 86/86/86 260/260/260
f 100/100/100 87/87/87 260/260/260
f 100/100/100 260/260/260 83/83/83
f 83/83/83 260/260/260 98/98/98
f 98/98/98 260/260/260 25/25/25
f 25/25/25 260/260/260 26/26/26
f 258/258/258 259/259/259 260/260/260
f 26/26/26 260/260/260 259/259/259
f 85/85/85 45/45/45 27/27/27
f 27/27/27 45/45/45 36/36/36
f 36/36/36 45/45/45 288/288/288
f 289/289/289 103/103/103 293/293/293
f 289/289/289 293/293/293 85/85/85
f 291/291/291 294/294/294 290/290/290
f 290/290/290 294/294/294 44/44/44
f 292/292/292 290/290/290 44/44/44
f 12/12/12 292/292/292 44/44/44
f 12/12/12 44/44/44 10/10/10
f 10/10/10 44/44/44 11/11/11
f 11/11/11 44/44/44 43/43/43
f 43/43/43 44/44/44 24/24/24
f 294/294/294 35/35/35 44/44/44
f 24/24/24 44/44/44 35/35/35
f 60/60/60 132/132/132 18/18/18
f 60/60/60 110/110/110 132/132/132
f 133/133/133 110/110/110 60/60/60
f 9/9/9 67/67/67 17/17/17
f 67/67/67 9/9/9 94/94/94
f 94/94/94 9/9/9 97/97/97
f 97/97/97 113/113/113 94/94/94
f 94/94/94 113/113/113 115/115/115
f 113/113/113 112/112/112 115/115/115
f 115/115/115 112/112/112 42/42/42
f 42/42/42 112/112/112 114/114/114
f 48/48/48 71/71/71 16/16/16
f 48/48/48 95/95/95 71/71/71
f 71/71/71 95/95/95 91/91/91
f 91/91/91 95/95/95 118/118/118
f 118/118/118 95/95/95 117/117/117
f 117/117/117 116/116/116 118/118/118
f 118/118/118 116/116/116 68/68/68
f 68/68/68 116/116/116 76/76/76
f 48/48/48 80/80/80 95/95/95
f 95/95/95 80/80/80 105/105/105
f 80/80/80 81/81/81 105/105/105
f 105/105/105 81/81/81 69/69/69
f 69/69/69 81/81/81 29/29/29
f 69/69/69 29/29/29 30/30/30
f 104/104/104 81/81/81 80/80/80
f 80/80/80 90/90/90 104/104/104
f 72/72/72 90/90/90 80/80/80
f 90/90/90 72/72/72 38/38/38
f 93/93/93 88/88/88 39/39/39
f 93/93/93 79/79/79 88/88/88
f 88/88/88 79/79/79 96/96/96
f 96/96/96 79/79/79 106/106/106
f 106/106/106 79/79/79 107/107/107
f 106/106/106 107/107/107 7/7/7
f 7/7/7 107/107/107 21/21/21
f 7/7/7 21/21/21 28/28/28
f 93/93/93 92/92/92 79/79/79
f 79/79/79 92/92/92 89/89/89
f 111/111/111 20/20/20 19/19/19
f 40/40/40 111/111/111 19/19/19
f 33/33/33 111/111/111 40/40/40
f 33/33/33 78/78/78 111/111/111
f 120/120/120 121/121/121 41/41/41
f 121/121/121 120/120/120 122/122/122
f 184/184/184 54/54/54 196/196/196
f 196/196/196 185/185/185 184/184/184
f 8/8/8 54/54/54 55/55/55
f 55/55/55 32/32/32 8/8/8
f 8/8/8 32/32/32 31/31/31
f 8/8/8 31/31/31 119/119/119
f 8/8/8 119/119/119 189/189/189
f 189/189/189 119/119/119 125/125/125
f 189/189/189 125/125/125 190/190/190
f 190/190/190 191/191/191 189/189/189
f 264/264/264 169/169/169 170/170/170
f 169/169/169 214/214/214 170/170/170
f 214/214/214 262/262/262 170/170/170
f 170/170/170 262/262/262 263/263/263
f 170/170/170 263/263/263 187/187/187
f 187/187/187 263/263/263 264/264/264
f 262/262/262 264/264/264 263/263/263
f 221/221/221 264/264/264 262/262/262
f 168/168/168 214/214/214 169/169/169
f 53/53/53 129/129/129 133/133/133
f 109/109/109 129/129/129 53/53/53
f 53/53/53 134/134/134 109/109/109
f 51/51/51 134/134/134 53/53/53
f 52/52/52 51/51/51 53/53/53
f 160/160/160 162/162/162 149/149/149
f 161/161/161 162/162/162 160/160/160
f 151/151/151 156/156/156 172/172/172
f 156/156/156 166/166/166 172/172/172
f 172/172/172 166/166/166 171/171/171
f 171/171/171 166/166/166 135/135/135
f 135/135/135 176/176/176 171/171/171
f 171/171/171 176/176/176 167/167/167
f 176/176/176 166/166/166 156/156/156
f 166/166/166 176/176/176 137/137/137
f 137/137/137 176/176/176 135/135/135
f 261/261/261 177/177/177 220/220/220
f 220/220/220 165/165/165 261/261/261
f 178/178/178 179/179/179 206/206/206
f 206/206/206 179/179/179 197/197/197
f 207/207/207 206/206/206 197/197/197
f 179/179/179 188/188/188 197/197/197
f 197/197/197 188/188/188 183/183/183
f 197/197/197 183/183/183 192/192/192
f 192/192/192 183/183/183 207/207/207
f 188/188/188 207/207/207 183/183/183
f 186/186/186 207/207/207 188/188/188
f 145/145/145 144/144/144 142/142/142
f 142/142/142 148/148/148 145/145/145
f 142/142/142 295/295/295 148/148/148
f 1/1/1 295/295/295 142/142/142
f 1/1/1 3/3/3 295/295/295
f 1/1/1 315/315/315 3/3/3
f 314/314/314 315/315/315 1/1/1
f 1/1/1 165/165/165 314/314/314
f 2/2/2 284/284/284 175/175/175
f 284/284/284 2/2/2 309/309/309
f 236/236/236 219/219/219 218/218/218
f 269/269/269 219/219/219 236/236/236
f 236/236/236 275/275/275 269/269/269
f 274/274/274 275/275/275 236/236/236
f 266/266/266 268/268/268 270/270/270
f 270/270/270 268/268/268 265/265/265
f 271/271/271 242/242/242 241/241/241
f 241/241/241 242/242/242 267/267/267
f 273/273/273 253/253/253 231/231/231
f 231/231/231 253/253/253 272/272/272
f 229/229/229 230/230/230 278/278/278
f 278/278/278 230/230/230 232/232/232
f 243/243/243 246/246/246 324/324/324
f 324/324/324 246/246/246 279/279/279
f 234/234/234 202/202/202 252/252/252
f 234/234/234 280/280/280 202/202/202
f 280/280/280 204/204/204 202/202/202
f 202/202/202 204/204/204 282/282/282
f 235/235/235 233/233/233 248/248/248
f 248/248/248 233/233/233 226/226/226
f 247/247/247 248/248/248 226/226/226
f 237/237/237 248/248/248 247/247/247
f 233/233/233 227/227/227 226/226/226
f 226/226/226 227/227/227 228/228/228
f 226/226/226 228/228/228 240/240/240
f 240/240/240 247/247/247 226/226/226
f 228/228/228 227/227/227 277/277/277
f 240/240/240 228/228/228 225/225/225
f 302/302/302 317/317/317 296/296/296
f 296/296/296 317/317/317 217/217/217
f 308/308/308 296/296/296 217/217/217
f 217/217/217 305/305/305 308/308/308
f 308/308/308 305/305/305 304/304/304
f 317/317/317 215/215/215 217/217/217
f 215/215/215 216/216/216 217/217/217
f 217/217/217 216/216/216 305/305/305
f 305/305/305 216/216/216 303/303/303
f 318/318/318 215/215/215 317/317/317
f 312/312/312 285/285/285 286/286/286
f 283/283/283 312/312/312 286/286/286
f 313/313/313 312/312/312 283/283/283
f 313/313/313 311/311/311 312/312/312
f 139/139/139 140/140/140 326/326/326
f 140/140/140 139/139/139 297/297/297
f 297/297/297 139/139/139 245/245/245
f 245/245/245 321/321/321 297/297/297
f 297/297/297 321/321/321 319/319/319
f 319/319/319 321/321/321 193/193/193
f 193/193/193 321/321/321 195/195/195
f 193/193/193 195/195/195 180/180/180
f 153/153/153 154/154/154 138/138/138
f 153/153/153 298/298/298 154/154/154
f 154/154/154 298/298/298 244/244/244
f 244/244/244 298/298/298 331/331/331
f 331/331/331 298/298/298 320/320/320
f 331/331/331 320/320/320 199/199/199
f 199/199/199 320/320/320 200/200/200
f 199/199/199 200/200/200 201/201/201
f 158/158/158 159/159/159 152/152/152
f 159/159/159 158/158/158 325/325/325
f 159/159/159 325/325/325 298/298/298
f 298/298/298 325/325/325 328/328/328
f 325/325/325 330/330/330 328/328/328
f 330/330/330 194/194/194 328/328/328
f 328/328/328 194/194/194 208/208/208
f 208/208/208 194/194/194 209/209/209
f 325/325/325 158/158/158 316/316/316
f 316/316/316 330/330/330 325/325/325
f 181/181/181 182/182/182 157/157/157
f 181/181/181 324/324/324 182/182/182
f 182/182/182 324/324/324 323/323/323
f 323/323/323 324/324/324 327/327/327
f 327/327/327 324/324/324 329/329/329
f 329/329/329 212/212/212 327/327/327
f 327/327/327 212/212/212 211/211/211
f 211/211/211 212/212/212 213/213/213
f 46/46/46 13/13/13 23/23/23
f 15/15/15 13/13/13 46/46/46
f 37/37/37 13/13/13 15/15/15
f 37/37/37 14/14/14 13/13/13
f 22/22/22 13/13/13 14/14/14
f 23/23/23 13/13/13 22/22/22
f 250/250/250 276/276/276 205/205/205
f 205/205/205 276/276/276 238/238/238
f 238/238/238 222/222/222 205/205/205
f 205/205/205 222/222/222 239/239/239
f 281/281/281 205/205/205 239/239/239
f 249/249/249 205/205/205 281/281/281
f 203/203/203 205/205/205 249/249/249
f 250/250/250 205/205/205 203/203/203
f 276/276/276 251/251/251 238/238/238
f 238/238/238 251/251/251 223/223/223
f 223/223/223 224/224/224 238/238/238
f 238/238/238 224/224/224 222/222/222
f 332/332/332 322/322/322 299/299/299
f 256/256/256 322/322/322 332/332/332
f 257/257/257 256/256/256 332/332/332
f 255/255/255 256/256/256 257/257/257
f 255/255/255 257/257/257 287/287/287
f 287/287/287 257/257/257 306/306/306
f 306/306/306 257/257/257 307/307/307
f 299/299/299 301/301/301 332/332/332
f 332/332/332 301/301/301 300/300/300
f 332/332/332 300/300/300 257/257/257
f 257/257/257 300/300/300 310/310/310
f 307/307/307 257/257/257 310/310/310
f 412/412/412 406/406/406 407/407/407
f 413/413/413 408/408/408 415/415/415
f 486/486/486 487/487/487 488/488/488
f 388/388/388 426/426/426 443/443/443
f 423/423/423 449/449/449 387/387/387
f 493/493/493 472/472/472 471/471/471
f 479/479/479 480/480/480 501/501/501
f 451/451/451 449/449/449 505/505/505
f 374/374/374 414/414/414 342/342/342
f 342/342/342 375/375/375 374/374/374
f 447/447/447 414/414/414 365/365/365
f 365/365/365 452/452/452 447/447/447
f 447/447/447 452/452/452 364/364/364
f 447/447/447 364/364/364 363/363/363
f 447/447/447 363/363/363 369/369/369
f 369/369/369 363/363/363 483/483/483
f 369/369/369 483/483/483 511/511/511
f 369/369/369 511/511/511 489/489/489
f 351/351/351 379/379/379 482/482/482
f 379/379/379 351/351/351 350/350/350
f 485/485/485 373/373/373 371/371/371
f 371/371/371 373/373/373 420/420/420
f 514/514/514 371/371/371 420/420/420
f 373/373/373 484/484/484 420/420/420
f 420/420/420 484/484/484 512/512/512
f 420/420/420 512/512/512 513/513/513
f 513/513/513 512/512/512 514/514/514
f 484/484/484 514/514/514 512/512/512
f 481/481/481 514/514/514 484/484/484
f 518/518/518 502/502/502 448/448/448
f 448/448/448 502/502/502 417/417/417
f 422/422/422 448/448/448 417/417/417
f 417/417/417 419/419/419 422/422/422
f 422/422/422 419/419/419 416/416/416
f 421/421/421 506/506/506 368/368/368
f 529/529/529 506/506/506 421/421/421
f 503/503/503 506/506/506 529/529/529
f 502/502/502 503/503/503 529/529/529
f 536/536/536 503/503/503 502/502/502
f 409/409/409 337/337/337 378/378/378
f 410/410/410 409/409/409 378/378/378
f 424/424/424 409/409/409 410/410/410
f 424/424/424 376/376/376 409/409/409
f 382/382/382 346/346/346 341/341/341
f 382/382/382 428/428/428 346/346/346
f 437/437/437 428/428/428 382/382/382
f 429/429/429 428/428/428 437/437/437
f 427/427/427 428/428/428 429/429/429
f 429/429/429 405/405/405 427/427/427
f 397/397/397 405/405/405 429/429/429
f 405/405/405 397/397/397 377/377/377
f 353/353/353 352/352/352 343/343/343
f 352/352/352 353/353/353 384/384/384
f 384/384/384 353/353/353 385/385/385
f 385/385/385 439/439/439 384/384/384
f 384/384/384 439/439/439 435/435/435
f 439/439/439 440/440/440 435/435/435
f 435/435/435 440/440/440 434/434/434
f 434/434/434 440/440/440 361/361/361
f 394/394/394 396/396/396 340/340/340
f 394/394/394 425/425/425 396/396/396
f 396/396/396 425/425/425 390/390/390
f 390/390/390 425/425/425 383/383/383
f 383/383/383 425/425/425 389/389/389
f 389/389/389 356/356/356 383/383/383
f 383/383/383 356/356/356 357/357/357
f 357/357/357 356/356/356 344/344/344
f 394/394/394 429/429/429 425/425/425
f 425/425/425 429/429/429 389/389/389
f 404/404/404 395/395/395 362/362/362
f 404/404/404 393/393/393 395/395/395
f 395/395/395 393/393/393 436/436/436
f 436/436/436 393/393/393 391/391/391
f 391/391/391 393/393/393 392/392/392
f 391/391/391 392/392/392 334/334/334
f 334/334/334 392/392/392 333/333/333
f 334/334/334 333/333/333 335/335/335
f 497/497/497 520/520/520 519/519/519
f 519/519/519 520/520/520 521/521/521
f 519/519/519 521/521/521 467/467/467
f 386/386/386 490/490/490 498/498/498
f 490/490/490 465/465/465 498/498/498
f 498/498/498 465/465/465 474/474/474
f 474/474/474 496/496/496 498/498/498
f 498/498/498 496/496/496 497/497/497
f 495/495/495 460/460/460 492/492/492
f 495/495/495 458/458/458 460/460/460
f 491/491/491 524/524/524 359/359/359
f 524/524/524 360/360/360 359/359/359
f 359/359/359 360/360/360 457/457/457
f 457/457/457 360/360/360 478/478/478
f 478/478/478 477/477/477 457/457/457
f 457/457/457 477/477/477 459/459/459
f 524/524/524 477/477/477 360/360/360
f 360/360/360 477/477/477 466/466/466
f 466/466/466 477/477/477 478/478/478
f 468/468/468 523/523/523 358/358/358
f 358/358/358 523/523/523 370/370/370
f 370/370/370 525/525/525 358/358/358
f 358/358/358 525/525/525 522/522/522
f 450/450/450 462/462/462 463/463/463
f 509/509/509 462/462/462 450/450/450
f 367/367/367 509/509/509 450/450/450
f 367/367/367 450/450/450 510/510/510
f 504/504/504 552/552/552 526/526/526
f 504/504/504 399/399/399 552/552/552
f 442/442/442 399/399/399 504/504/504
f 441/441/441 399/399/399 442/442/442
f 431/431/431 399/399/399 441/441/441
f 441/441/441 430/430/430 431/431/431
f 545/545/545 430/430/430 441/441/441
f 430/430/430 545/545/545 539/539/539
f 400/400/400 398/398/398 532/532/532
f 400/400/400 550/550/550 398/398/398
f 398/398/398 550/550/550 549/549/549
f 549/549/549 550/550/550 551/551/551
f 551/551/551 550/550/550 446/446/446
f 551/551/551 446/446/446 527/527/527
f 527/527/527 446/446/446 528/528/528
f 527/527/527 528/528/528 534/534/534
f 550/550/550 542/542/542 446/446/446
f 403/403/403 542/542/542 550/550/550
f 403/403/403 402/402/402 542/542/542
f 542/542/542 402/402/402 445/445/445
f 445/445/445 543/543/543 542/542/542
f 542/542/542 543/543/543 444/444/444
f 543/543/543 515/515/515 444/444/444
f 444/444/444 515/515/515 516/516/516
f 516/516/516 515/515/515 517/517/517
f 402/402/402 403/403/403 533/533/533
f 401/401/401 432/432/432 538/538/538
f 401/401/401 547/547/547 432/432/432
f 432/432/432 547/547/547 541/541/541
f 541/541/541 547/547/547 546/546/546
f 546/546/546 547/547/547 548/548/548
f 548/548/548 508/508/508 546/546/546
f 546/546/546 508/508/508 544/544/544
f 544/544/544 508/508/508 540/540/540
f 494/494/494 454/454/454 476/476/476
f 455/455/455 454/454/454 494/494/494
f 456/456/456 454/454/454 455/455/455
f 456/456/456 453/453/453 454/454/454
f 475/475/475 454/454/454 453/453/453
f 476/476/476 454/454/454 475/475/475
f 537/537/537 411/411/411 418/418/418
f 535/535/535 411/411/411 537/537/537
f 535/535/535 433/433/433 411/411/411
f 438/438/438 433/433/433 535/535/535
f 535/535/535 531/531/531 438/438/438
f 530/530/530 531/531/531 535/535/535
f 338/338/338 537/537/537 418/418/418
f 336/336/336 537/537/537 338/338/338
f 372/372/372 537/537/537 336/336/336
f 507/507/507 537/537/537 372/372/372
f 507/507/507 530/530/530 537/537/537
f 537/537/537 530/530/530 535/535/535
f 339/339/339 336/336/336 338/338/338
f 339/339/339 372/372/372 336/336/336
f 380/380/380 348/348/348 347/347/347
f 348/348/348 366/366/366 347/347/347
f 381/381/381 347/347/347 366/366/366
f 355/355/355 347/347/347 381/381/381
f 354/354/354 347/347/347 355/355/355
f 345/345/345 347/347/347 354/354/354
f 347/347/347 345/345/345 349/349/349
f 349/349/349 380/380/380 347/347/347
f 500/500/500 473/473/473 470/470/470
f 499/499/499 473/473/473 500/500/500
f 499/499/499 461/461/461 473/473/473
f 461/461/461 464/464/464 473/473/473
f 469/469/469 473/473/473 464/464/464
f 470/470/470 473/473/473 469/469/469
