# Exported by s4extract — object_Food_Chimi_lod00_g01
o object_Food_Chimi_lod00_g01
v 0.093692 0.048830 0.009461
v 0.065920 0.011658 0.002960
v 0.070223 0.022095 0.002655
v -0.006104 0.052248 -0.022126
v 0.005097 0.052248 0.002777
v -0.003021 0.052858 -0.053133
v -0.004822 0.068606 -0.045991
v 0.067843 0.052034 0.012421
v 0.038820 0.042848 0.010956
v 0.001404 0.042756 0.003082
v -0.010437 0.042482 0.023774
v -0.004944 0.022095 -0.052126
v -0.000061 0.028718 -0.052156
v 0.042848 0.025697 -0.029878
v -0.010498 0.068606 0.041932
v 0.063173 0.028718 -0.023133
v 0.063173 0.028718 -0.023133
v 0.072420 0.028718 -0.000092
v -0.008087 0.039979 0.057558
v 0.063417 0.025697 0.010193
v 0.063417 0.025697 0.010193
v 0.045595 0.025697 0.041475
v 0.045595 0.025697 0.041475
v 0.062563 0.022095 0.033082
v 0.062563 0.022095 0.033082
v 0.058535 0.022095 -0.026460
v 0.058535 0.022095 -0.026460
v -0.012299 0.052858 0.049074
v 0.058535 0.022095 -0.026460
v 0.042848 0.025697 -0.029878
v 0.063417 0.025697 0.010193
v 0.038484 0.042573 0.007141
v 0.038484 0.042573 0.007141
v -0.000397 0.042573 0.000641
v -0.008911 0.041627 -0.027863
v 0.058535 0.022095 -0.026460
v -0.000397 0.042573 0.000641
v 0.055239 0.011658 -0.023682
v 0.067843 0.052034 0.012421
v 0.040620 0.052034 0.032228
v -0.004944 0.022095 -0.052126
v -0.006256 0.052248 0.016633
v -0.002777 0.078402 -0.026948
v -0.006104 0.078402 0.024476
v 0.004608 0.081393 0.000824
v 0.004212 0.051576 0.003784
v -0.005493 0.050874 -0.019105
v 0.098849 0.045595 -0.043550
v -0.003601 0.048860 0.059755
v 0.069369 0.047090 0.077517
v 0.031037 0.050111 -0.016114
v -0.034516 0.011841 0.007233
v -0.043001 0.011841 0.004700
v -0.011719 0.022095 0.050691
v 0.067843 0.042756 0.012421
v -0.011292 0.025697 0.041292
v -0.010681 0.011658 0.046510
v 0.045595 0.025697 0.041475
v 0.007935 0.061129 -0.001740
v -0.009033 0.049196 0.054415
v 0.037599 0.040712 0.056337
v 0.016633 0.045595 -0.063570
v 0.042573 0.047334 0.087222
v 0.033845 0.049013 0.043794
v -0.008087 0.039979 0.057558
v 0.044832 0.028718 -0.039888
v -0.006623 0.051668 0.025819
v 0.038484 0.042573 0.007141
v -0.000397 0.042573 0.000641
v 0.055635 0.049562 -0.037355
v 0.067843 0.042756 0.012421
v -0.005829 0.025697 -0.042787
v 0.042848 0.025697 -0.029878
v -0.005982 0.011658 -0.047945
v 0.037599 0.040712 0.056337
v -0.012299 0.052858 0.049074
v 0.037904 0.052858 0.051576
v -0.006256 0.052248 0.016633
v 0.038362 0.042207 0.044862
v -0.003021 0.052858 -0.053133
v -0.008087 0.039979 0.057558
v -0.000061 0.040712 -0.052156
v -0.009033 0.049196 0.054415
v -0.006623 0.051668 0.025819
v 0.037599 0.028718 0.056337
v 0.058351 0.040712 0.045045
v 0.044832 0.040712 -0.039888
v 0.072420 0.040712 -0.000092
v 0.038484 0.042573 0.007141
v 0.070742 0.040712 0.024659
v 0.033845 0.049013 0.043794
v -0.008911 0.041627 -0.027863
v 0.044832 0.040712 -0.039888
v 0.044832 0.028718 -0.039888
v -0.000061 0.028718 -0.052156
v -0.006623 0.051668 0.025819
v -0.000061 0.040712 -0.052156
v -0.012299 0.052858 0.049074
v 0.037904 0.052858 0.051576
v 0.038362 0.042207 0.044862
v -0.008087 0.039979 0.057558
v 0.031861 0.056063 0.014008
v -0.010437 0.042482 0.023774
v 0.033845 0.049013 0.043794
v 0.033845 0.049013 0.043794
v -0.009033 0.049196 0.054415
v 0.037904 0.052858 0.051576
v -0.004822 0.068606 -0.045991
v 0.061983 0.052858 0.031465
v 0.052309 0.068606 -0.023347
v 0.031861 0.056063 0.014008
v 0.038820 0.042848 0.010956
v -0.002777 0.078402 -0.026948
v -0.002960 0.042756 -0.050172
v -0.006897 0.042756 -0.019440
v 0.035157 0.068606 0.044740
v -0.006256 0.052248 0.016633
v -0.001709 0.011658 0.000885
v 0.062288 0.068606 0.001556
v 0.057955 0.052858 -0.028047
v 0.037904 0.052858 0.051576
v 0.069643 0.052858 0.001038
v -0.003021 0.052858 -0.053133
v -0.002960 0.042756 -0.050172
v -0.002960 0.050203 -0.050172
v -0.006897 0.042756 -0.019440
v -0.011811 0.025697 -0.026978
v -0.011811 0.025697 -0.026978
v -0.008911 0.041627 -0.027863
v -0.004944 0.022095 -0.052126
v 0.063417 0.025697 0.010193
v -0.027833 0.011841 0.055635
v -0.002960 0.050203 -0.050172
v -0.003235 0.025697 0.000549
v -0.012513 0.011658 -0.025636
v 0.038484 0.022095 0.053194
v 0.058901 0.011658 0.030793
v -0.003235 0.025697 0.000549
v 0.040620 0.042756 0.032228
v 0.057955 0.052858 -0.028047
v -0.010498 0.068606 0.041932
v 0.055727 0.068606 0.027558
v -0.006104 0.052248 -0.022126
v 0.028230 0.044221 -0.016816
v 0.001404 0.042756 0.003082
v 0.055635 0.049562 -0.037355
v 0.028230 0.044221 -0.016816
v 0.024506 0.039460 -0.049532
v 0.055330 0.040376 -0.036042
v 0.045595 0.025697 0.041475
v 0.037599 0.028718 0.056337
v 0.036866 0.011658 0.049196
v -0.033967 0.015839 0.056887
v -0.031190 0.011841 0.062380
v -0.038820 0.011841 0.061556
v 0.058351 0.040712 0.045045
v 0.063173 0.040712 -0.023133
v 0.070742 0.040712 0.024659
v -0.037904 0.011841 0.013947
v -0.011994 0.028718 0.051546
v -0.011994 0.028718 0.051546
v 0.067843 0.052034 0.012421
v 0.067843 0.042756 0.012421
v 0.055330 0.040376 -0.036042
v 0.070742 0.028718 0.024659
v 0.058351 0.028718 0.045045
v 0.038362 0.042207 0.044862
v -0.009491 0.012055 0.004883
v -0.019288 0.012055 0.014771
v -0.015168 0.012055 -0.007538
v -0.015168 0.012055 -0.007538
v -0.012452 0.017731 0.002838
v -0.028413 0.012055 0.001556
v -0.019288 0.012055 0.014771
v -0.020386 0.019318 0.002564
v 0.063173 0.028718 -0.023133
v 0.072420 0.040712 -0.000092
v 0.063417 0.025697 0.010193
v 0.072420 0.028718 -0.000092
v 0.037599 0.040712 0.056337
v 0.070742 0.028718 0.024659
v 0.058351 0.028718 0.045045
v -0.027833 0.011841 0.055635
v -0.038820 0.011841 0.061556
v 0.042848 0.025697 -0.029878
v -0.027833 0.011841 0.055635
v 0.070742 0.028718 0.024659
v 0.072420 0.028718 -0.000092
v 0.063417 0.025697 0.010193
v 0.004212 0.051576 0.003784
v 0.040620 0.052034 0.032228
v 0.040620 0.042756 0.032228
v 0.023774 0.059816 0.022431
v 0.070223 0.022095 0.002655
v 0.004608 0.081393 0.000824
v -0.000061 0.028718 -0.052156
v 0.037935 0.081393 0.009247
v -0.030763 0.013855 0.057466
v -0.005829 0.025697 -0.042787
v -0.006897 0.042756 -0.019440
v 0.001404 0.042756 0.003082
v -0.005493 0.050874 -0.019105
v -0.031343 0.014985 0.060396
v -0.006104 0.078402 0.024476
v -0.036287 0.011841 0.053102
v -0.031190 0.011841 0.062380
v 0.012665 0.052644 -0.038148
v -0.002960 0.042756 -0.050172
v 0.055635 0.049562 -0.037355
v -0.002960 0.042756 -0.050172
v -0.002960 0.050203 -0.050172
v 0.024506 0.039460 -0.049532
v 0.024751 0.046815 -0.050600
v 0.055330 0.040376 -0.036042
v -0.038820 0.011841 0.061556
v -0.045534 0.011841 0.013153
v -0.012452 0.017731 0.002838
v -0.020386 0.019318 0.002564
v -0.005493 0.050874 -0.019105
v -0.000061 0.040712 -0.052156
v -0.002960 0.050203 -0.050172
v -0.008271 0.041627 0.025605
v -0.011994 0.040712 0.051546
v -0.011719 0.022095 0.050691
v -0.015900 0.015717 -0.001282
v -0.015900 0.015717 -0.001282
v -0.010437 0.042482 0.023774
v -0.006623 0.051668 0.025819
v 0.004212 0.051576 0.003784
v -0.005829 0.025697 -0.042787
v 0.031861 0.056063 0.014008
v -0.008271 0.041627 0.025605
v -0.011994 0.040712 0.051546
v 0.037599 0.040712 0.056337
v -0.036287 0.011841 0.053102
v -0.031343 0.014985 0.060396
v 0.037599 0.028718 0.056337
v -0.030763 0.013855 0.057466
v 0.031037 0.050111 -0.016114
v -0.010681 0.011658 0.046510
v -0.009339 0.025697 0.020417
v -0.011292 0.025697 0.041292
v -0.033967 0.015839 0.056887
v -0.015168 0.012055 -0.007538
v -0.005829 0.025697 -0.042787
v -0.009491 0.012055 0.004883
v -0.019288 0.012055 0.014771
v -0.028413 0.012055 0.001556
v -0.038026 0.014985 0.011963
v -0.040651 0.015839 0.008484
v -0.045534 0.011841 0.013153
v -0.038026 0.014985 0.011963
v -0.043001 0.011841 0.004700
v -0.034516 0.011841 0.007233
v -0.037904 0.011841 0.013947
v -0.045534 0.011841 0.013153
v -0.034516 0.011841 0.007233
v -0.037477 0.013855 0.009064
v -0.037477 0.013855 0.009064
v -0.040651 0.015839 0.008484
v -0.009339 0.025697 0.020417
v -0.008271 0.011658 0.023194
v -0.011292 0.025697 0.041292
v 0.024751 0.046815 -0.050600
v -0.011292 0.025697 0.041292
v -0.011994 0.040712 0.051546
v -0.011994 0.028718 0.051546
v 0.005097 0.052248 0.002777
v 0.069643 0.052858 0.001038
v 0.061983 0.052858 0.031465
v -0.005982 0.011658 -0.047945
v -0.063051 0.051271 -0.080264
v 0.039583 0.049165 -0.053804
v 0.072298 0.047090 0.078219
v -0.097262 0.047090 0.036958
v -0.025086 0.057253 -0.024567
v 0.008942 0.052614 0.034028
v 0.101779 0.045595 -0.042848
v -0.088870 0.054598 0.003876
v -0.044984 0.051241 0.034272
v 0.093692 0.048830 0.009461
v 0.042573 0.047334 0.087222
v 0.002289 0.061129 -0.003113
v -0.067812 0.045595 -0.084109
v 0.023774 0.059816 0.022431
v 0.000610 0.052644 -0.041078
v 0.034730 0.046693 0.013550
v 0.002533 0.053407 0.011658
v 0.002533 0.053407 0.011658
v -0.037080 0.052858 -0.051668
v -0.036622 0.052248 0.007965
v -0.012299 0.052858 0.049074
v -0.057131 0.052858 0.027955
v -0.008393 0.052248 0.027100
v -0.012299 0.052858 0.049074
v -0.057131 0.052858 0.027955
v -0.008393 0.052248 0.027100
v 0.024598 0.052248 0.024140
v -0.012299 0.052858 0.049074
v -0.068819 0.052858 -0.001160
v 0.063417 0.025697 0.010193
v 0.037599 0.028718 0.056337
v 0.045595 0.025697 0.041475
v -0.035249 0.052248 -0.012787
v -0.061159 0.052858 -0.031587
v -0.036622 0.052248 0.007965
v -0.068819 0.052858 -0.001160
v 0.062563 0.022095 0.033082
v -0.056551 0.022095 0.029572
v 0.058535 0.022095 -0.026460
v -0.036622 0.052248 0.007965
v 0.058535 0.022095 -0.026460
v 0.042848 0.025697 -0.029878
v -0.056917 0.025697 -0.025849
v -0.024415 0.025697 -0.047334
v -0.046876 0.049318 0.008118
v -0.050050 0.042360 0.005097
v -0.047639 0.039979 0.038820
v 0.006439 0.056063 0.007813
v -0.068239 0.022095 0.000458
v -0.056917 0.011658 -0.027680
v -0.063936 0.011658 0.000153
v 0.045595 0.025697 0.041475
v -0.056917 0.025697 -0.025849
v -0.011292 0.025697 0.041292
v -0.020966 0.042573 -0.034516
v -0.021241 0.055452 -0.006897
v 0.063417 0.025697 0.010193
v -0.058779 0.025697 0.011231
v 0.057955 0.052858 -0.028047
v 0.069643 0.052858 0.001038
v 0.028596 0.052248 -0.013672
v 0.012482 0.052858 -0.049348
v -0.037080 0.052858 -0.051668
v -0.016663 0.052248 -0.025361
v -0.016663 0.052248 -0.025361
v 0.012482 0.052858 -0.049348
v 0.042848 0.025697 -0.029878
v -0.046083 0.028718 0.040651
v -0.005493 0.028718 0.053102
v -0.011292 0.025697 0.041292
v 0.042848 0.025697 -0.029878
v 0.044832 0.028718 -0.039888
v -0.063356 0.028718 0.025452
v -0.073183 0.028718 0.004913
v -0.056917 0.025697 -0.025849
v -0.072787 0.028718 -0.017426
v -0.072787 0.028718 -0.017426
v -0.061068 0.028718 -0.038057
v 0.063417 0.025697 0.010193
v 0.063417 0.025697 0.010193
v 0.013062 0.022095 -0.047731
v 0.037904 0.052858 0.051576
v 0.058535 0.022095 -0.026460
v 0.042848 0.025697 -0.029878
v -0.061068 0.028718 -0.038057
v -0.056917 0.025697 -0.025849
v -0.016114 0.028718 -0.056093
v -0.056917 0.025697 -0.025849
v -0.056917 0.025697 -0.025849
v 0.024598 0.052248 0.024140
v 0.037904 0.052858 0.051576
v -0.034913 0.011658 -0.046083
v -0.060579 0.022095 -0.029969
v -0.036500 0.022095 -0.050081
v 0.012024 0.011658 -0.043550
v -0.040651 0.028718 -0.052187
v -0.035249 0.052248 -0.012787
v -0.024415 0.025697 -0.047334
v -0.016663 0.052248 -0.025361
v 0.061983 0.052858 0.031465
v -0.008698 0.048860 0.000427
v 0.034730 0.046693 0.013550
v -0.008698 0.048860 0.000427
v 0.031831 0.040498 -0.047273
v -0.061159 0.052858 -0.031587
v -0.068819 0.052858 -0.001160
v -0.054933 0.068606 -0.027650
v 0.034577 0.052248 0.009949
v 0.035157 0.047823 0.019227
v 0.067873 0.049318 0.027192
v 0.067873 0.049318 0.027192
v 0.002441 0.047884 0.011261
v 0.025697 0.047884 -0.013092
v 0.011902 0.048952 0.043580
v 0.044618 0.049318 0.051546
v 0.035157 0.047823 0.019227
v 0.002441 0.047884 0.011261
v 0.011902 0.042146 0.043580
v -0.006104 0.078402 0.024476
v 0.002441 0.042146 0.011261
v 0.002441 0.042146 0.011261
v 0.067873 0.042146 0.027192
v 0.058412 0.049318 -0.005127
v 0.067873 0.042146 0.027192
v 0.044618 0.042146 0.051546
v 0.035157 0.043275 0.019227
v 0.057955 0.052858 -0.028047
v -0.051485 0.068606 0.023225
v -0.012299 0.052858 0.049074
v -0.057131 0.052858 0.027955
v -0.010498 0.068606 0.041932
v -0.037111 0.081393 -0.009339
v 0.006287 0.078402 -0.024751
v 0.052309 0.068606 -0.023347
v 0.037904 0.052858 0.051576
v 0.037935 0.081393 0.009247
v -0.061495 0.068606 -0.001648
v 0.025697 0.047884 -0.013092
v 0.002441 0.042146 0.011261
v 0.011902 0.048952 0.043580
v 0.025697 0.042146 -0.013092
v 0.058412 0.042146 -0.005127
v 0.058412 0.049318 -0.005127
v -0.001862 0.041810 -0.043855
v 0.000824 0.048311 -0.041292
v 0.031831 0.040498 -0.047273
v 0.063173 0.028718 -0.023133
v 0.046785 0.048616 -0.018738
v 0.033082 0.053285 0.009064
v -0.063356 0.028718 0.025452
v 0.010681 0.049806 0.004761
v -0.020844 0.049135 -0.011994
v -0.058779 0.025697 0.011231
v -0.037080 0.052858 -0.051668
v -0.044771 0.046815 0.037751
v 0.050295 0.041292 -0.018128
v -0.046876 0.049318 0.008118
v 0.010681 0.068606 -0.042207
v -0.034333 0.068606 -0.044832
v 0.012482 0.052858 -0.049348
v 0.058412 0.042146 -0.005127
v 0.058412 0.049318 -0.005127
v -0.039430 0.048860 0.014222
v -0.035981 0.047517 -0.019288
v -0.063295 0.048860 -0.039003
v -0.066713 0.048860 -0.005493
v -0.063295 0.048860 -0.039003
v -0.035981 0.047517 -0.019288
v -0.032563 0.048860 -0.052767
v -0.005280 0.048860 -0.033052
v -0.008698 0.041902 0.000427
v -0.008698 0.041902 0.000427
v -0.039430 0.041902 0.014222
v -0.035981 0.043275 -0.019288
v -0.063295 0.041902 -0.039003
v -0.066713 0.041902 -0.005493
v -0.063295 0.041902 -0.039003
v -0.008698 0.041902 0.000427
v -0.066713 0.048860 -0.005493
v -0.039430 0.048860 0.014222
v -0.008698 0.048860 0.000427
v -0.005280 0.041902 -0.033052
v -0.035981 0.043275 -0.019288
v -0.032563 0.041902 -0.052767
v -0.005280 0.048860 -0.033052
v -0.005280 0.041902 -0.033052
v -0.039430 0.041902 0.014222
v 0.008423 0.049013 0.037599
v -0.005280 0.041902 -0.033052
v 0.008423 0.049013 0.037599
v -0.032563 0.041902 -0.052767
v -0.066713 0.041902 -0.005493
v -0.063295 0.048860 -0.039003
v -0.063295 0.041902 -0.039003
v -0.005280 0.048860 -0.033052
v -0.032563 0.048860 -0.052767
v -0.017090 0.047426 0.052461
v -0.019166 0.051454 0.022767
v 0.046785 0.048616 -0.018738
v 0.011902 0.042146 0.043580
v 0.002441 0.047884 0.011261
v 0.002533 0.053407 0.011658
v 0.016907 0.050447 -0.016053
v 0.067873 0.042146 0.027192
v -0.012787 0.054170 -0.013642
v 0.030549 0.048128 -0.044374
v 0.016907 0.050447 -0.016053
v 0.033082 0.053285 0.009064
v 0.046785 0.048616 -0.018738
v 0.000000 0.047212 0.016480
v 0.000000 0.047212 0.016480
v 0.031831 0.040498 -0.047273
v -0.017518 0.047700 -0.012329
v 0.016297 0.043550 -0.015076
v 0.002533 0.053407 0.011658
v 0.067873 0.049318 0.027192
v 0.044618 0.049318 0.051546
v 0.000824 0.048311 -0.041292
v 0.030549 0.048128 -0.044374
v 0.044618 0.042146 0.051546
v 0.033082 0.053285 0.009064
v 0.031831 0.040498 -0.047273
v -0.001862 0.041810 -0.043855
v 0.016297 0.043550 -0.015076
v 0.034730 0.046693 0.013550
v 0.050295 0.041292 -0.018128
v -0.017518 0.047700 -0.012329
v -0.046876 0.049318 0.008118
v 0.000824 0.048311 -0.041292
v 0.031831 0.040498 -0.047273
v 0.030549 0.048128 -0.044374
v 0.000000 0.047212 0.016480
v -0.012787 0.054170 -0.013642
v 0.000824 0.048311 -0.041292
v -0.001862 0.041810 -0.043855
v -0.017518 0.047700 -0.012329
v -0.019166 0.051454 0.022767
v -0.005493 0.028718 0.053102
v 0.070742 0.040712 0.024659
v -0.005493 0.040712 0.053102
v 0.058351 0.040712 0.045045
v 0.072420 0.040712 -0.000092
v 0.037599 0.028718 0.056337
v 0.037599 0.040712 0.056337
v -0.073183 0.028718 0.004913
v -0.073183 0.040712 0.004913
v -0.072787 0.040712 -0.017426
v -0.021241 0.055452 -0.006897
v 0.063173 0.040712 -0.023133
v 0.006439 0.056063 0.007813
v 0.012940 0.042207 0.038667
v 0.058351 0.040712 0.045045
v 0.070742 0.040712 0.024659
v -0.046815 0.042573 0.008637
v 0.012940 0.042207 0.038667
v 0.045381 0.042573 0.011231
v -0.072787 0.040712 -0.017426
v -0.061068 0.028718 -0.038057
v -0.061068 0.040712 -0.038057
v 0.032472 0.042573 0.029572
v 0.037599 0.040712 0.056337
v -0.072787 0.028718 -0.017426
v 0.037599 0.040712 0.056337
v -0.046083 0.028718 0.040651
v -0.046083 0.040712 0.040651
v 0.032472 0.042573 0.029572
v 0.037599 0.040712 0.056337
v 0.037599 0.028718 0.056337
v 0.055239 0.011658 -0.023682
v -0.024415 0.025697 -0.047334
v 0.070223 0.022095 0.002655
v 0.036866 0.011658 0.049196
v -0.010681 0.011658 0.046510
v 0.058901 0.011658 0.030793
v -0.053255 0.011658 0.026795
v -0.061068 0.040712 -0.038057
v -0.040651 0.028718 -0.052187
v -0.040651 0.040712 -0.052187
v -0.016114 0.040712 -0.056093
v -0.040651 0.040712 -0.052187
v -0.020966 0.042573 -0.034516
v -0.016114 0.040712 -0.056093
v -0.020844 0.049135 -0.011994
v -0.040651 0.040712 -0.052187
v 0.037629 0.042573 -0.019410
v 0.044832 0.040712 -0.039888
v 0.044832 0.028718 -0.039888
v 0.044832 0.040712 -0.039888
v -0.046083 0.040712 0.040651
v -0.063356 0.040712 0.025452
v -0.005493 0.040712 0.053102
v -0.040651 0.028718 -0.052187
v -0.009095 0.042573 0.028687
v -0.046815 0.042573 0.008637
v -0.016114 0.028718 -0.056093
v -0.050050 0.042360 0.005097
v -0.018494 0.044557 0.021790
v -0.016144 0.039979 0.055605
v -0.047639 0.039979 0.038820
v -0.018494 0.044557 0.021790
v 0.010681 0.049806 0.004761
v -0.050050 0.042360 0.005097
v -0.020844 0.049135 -0.011994
v 0.006439 0.056063 0.007813
v 0.008423 0.049013 0.037599
v -0.017090 0.047426 0.052461
v 0.010681 0.049806 0.004761
v -0.011292 0.025697 0.041292
v 0.038484 0.022095 0.053194
v 0.045595 0.025697 0.041475
v -0.011719 0.022095 0.050691
v -0.045045 0.042573 -0.018220
v -0.040651 0.040712 -0.052187
v -0.016144 0.039979 0.055605
v -0.056917 0.025697 -0.025849
v -0.058779 0.025697 0.011231
v -0.068239 0.022095 0.000458
v -0.011292 0.025697 0.041292
v -0.056551 0.022095 0.029572
v -0.047639 0.039979 0.038820
v 0.012940 0.042207 0.038667
v 0.008423 0.049013 0.037599
v -0.044771 0.046815 0.037751
v 0.025697 0.042146 -0.013092
v 0.058412 0.042146 -0.005127
v 0.035157 0.043275 0.019227
v -0.017090 0.047426 0.052461
v -0.044771 0.046815 0.037751
v -0.016144 0.039979 0.055605
v -0.046876 0.049318 0.008118
v -0.047639 0.039979 0.038820
v 0.065920 0.011658 0.002960
v -0.024415 0.025697 -0.047334
v -0.036500 0.022095 -0.050081
v -0.060579 0.022095 -0.029969
v -0.056917 0.025697 -0.025849
v -0.068239 0.022095 0.000458
v -0.068239 0.022095 0.000458
v -0.058779 0.025697 0.011231
vt 0.364197 0.313630
vt -0.095497 0.249520
vt -0.036205 0.250474
vt 0.769895 0.657268
vt 0.769895 0.752956
vt 0.766937 0.521654
vt 0.687754 0.553948
vt 0.317784 0.641479
vt 0.173298 0.600790
vt 0.173298 0.515214
vt 0.283964 0.558002
vt -0.212985 0.438416
vt 0.885093 0.523657
vt -0.119920 0.457544
vt 0.698391 0.924680
vt 0.386378 0.405836
vt 0.386378 0.405836
vt 0.434079 0.428494
vt 0.838584 0.950248
vt 0.419674 0.431308
vt 0.419674 0.431308
vt -0.144773 0.039778
vt -0.144773 0.039778
vt -0.097215 0.130601
vt -0.097215 0.130601
vt -0.112002 0.365099
vt -0.112002 0.365099
vt 0.766937 0.986358
vt -0.112002 0.365099
vt -0.119920 0.457544
vt -0.005199 0.220279
vt 1.300569 0.419621
vt 1.300569 0.419621
vt 1.300569 0.419621
vt 1.130372 0.504434
vt -0.112002 0.365099
vt 0.841399 0.753290
vt -0.143628 0.337766
vt 0.317784 0.641479
vt 0.425732 0.599741
vt -0.212985 0.438416
vt 0.769895 0.820119
vt 0.638335 0.632988
vt 0.645013 0.850982
vt 0.616011 0.744036
vt 0.425732 0.516264
vt 0.371782 0.495418
vt 0.581714 0.995755
vt 0.208549 0.662324
vt 0.581714 0.662324
vt 0.317784 0.558002
vt 0.590968 0.368295
vt 0.521802 0.299129
vt -0.310200 0.057714
vt 0.317784 0.641479
vt -0.314779 0.055710
vt -0.297416 0.103125
vt -0.144773 0.039778
vt 0.302138 0.829039
vt 0.774474 0.937702
vt 1.522522 0.631080
vt 0.384327 0.995755
vt 0.375598 0.026946
vt 1.164144 0.583045
vt 1.184703 0.538874
vt 0.319358 0.393863
vt 0.283964 0.558002
vt 1.493901 0.621826
vt 1.300569 0.419621
vt 0.425732 0.599741
vt 0.317784 0.641479
vt -0.193571 0.428208
vt -0.119920 0.457544
vt -0.224624 0.393767
vt 1.522522 0.631080
vt 0.649831 0.045550
vt 0.776478 0.017883
vt 0.832192 0.003096
vt 0.283964 0.643578
vt 0.826182 0.441993
vt 0.173298 0.600790
vt 1.073750 0.558193
vt 0.173298 0.600790
vt 0.283964 0.558002
vt 1.563020 0.631080
vt 1.498337 0.544121
vt 1.165432 0.432835
vt 1.342927 0.403260
vt 1.300569 0.419621
vt 1.433559 0.443854
vt 0.283964 0.643578
vt 1.130372 0.504434
vt 1.165432 0.432835
vt 1.134665 0.391049
vt 1.030199 0.536728
vt 0.283964 0.558002
vt 1.073750 0.558193
vt 0.649831 0.045550
vt 0.776478 0.017883
vt 0.283964 0.643578
vt 1.184703 0.538874
vt 0.173298 0.600790
vt 0.283964 0.558002
vt 0.283964 0.643578
vt 1.164144 0.583045
vt 1.165575 0.529620
vt 0.776478 0.017883
vt 0.804621 0.391335
vt 0.890388 0.112331
vt 0.873358 0.330421
vt 1.208172 0.631509
vt 1.215566 0.611570
vt 0.775046 0.324601
vt 0.317784 0.474525
vt 0.371782 0.495418
vt 0.770515 0.082757
vt 0.832192 0.003096
vt 0.963656 0.752479
vt 0.889052 0.235829
vt 0.920248 0.368963
vt 0.776478 0.017883
vt 0.952781 0.226718
vt 0.826182 0.441993
vt 0.317784 0.474525
vt 0.801425 0.539733
vt 0.371782 0.495418
vt 0.905032 0.649588
vt 0.898783 0.658079
vt 0.845883 0.638474
vt 0.920105 0.540591
vt -0.005199 0.220279
vt 0.495757 0.554329
vt 0.317784 0.474525
vt 0.905032 0.751001
vt 0.963656 0.655217
vt -0.196767 0.055281
vt -0.133134 0.158458
vt 0.898783 0.752813
vt 0.425732 0.599741
vt 0.920248 0.368963
vt 0.674111 0.103268
vt 0.848601 0.146056
vt 0.955070 0.399969
vt 0.317784 0.558002
vt 0.425732 0.516264
vt 0.820553 0.804283
vt 0.317784 0.558002
vt 0.425732 0.516264
vt 0.425732 0.599741
vt 0.399019 0.386565
vt 1.563020 0.631080
vt -0.209360 0.101694
vt 0.522136 0.585907
vt 0.485406 0.602698
vt 0.527955 0.629935
vt 1.498337 0.544121
vt 1.239512 0.402735
vt 1.433559 0.443854
vt 0.638860 0.300130
vt 0.885093 0.988647
vt 0.322221 0.354366
vt 0.820553 0.794313
vt 0.837392 0.794313
vt 0.837392 0.804283
vt 1.460749 0.409795
vt 1.541077 0.522656
vt 1.184703 0.577750
vt 0.121876 0.542642
vt 0.085862 0.489885
vt 0.085862 0.593921
vt 0.085862 0.593921
vt 0.106803 0.549416
vt 0.033820 0.541879
vt 0.085862 0.489885
vt 0.070788 0.543978
vt 1.227729 0.350312
vt 1.342927 0.403260
vt 0.419674 0.431308
vt 1.353946 0.350312
vt 1.522522 0.631080
vt 0.450918 0.417713
vt 0.435415 0.388950
vt 0.495757 0.554329
vt 0.527955 0.629935
vt 0.323031 0.404882
vt 0.495757 0.554329
vt 0.450918 0.417713
vt 0.434079 0.428494
vt 0.419674 0.431308
vt 0.774474 0.768364
vt 0.820553 0.784391
vt 0.837392 0.784391
vt 0.197721 0.166138
vt -0.036205 0.250474
vt 0.737983 0.246610
vt 0.245279 0.394483
vt 0.814543 0.213028
vt 0.503294 0.575842
vt 0.228154 0.405836
vt 0.838584 0.674917
vt 0.838584 0.767696
vt 0.787926 0.675394
vt 0.494278 0.593158
vt 0.703352 0.165757
vt 0.549659 0.575985
vt 0.485406 0.602698
vt 0.019605 0.305330
vt 0.838584 0.539733
vt 0.820553 0.744561
vt 0.837392 0.764500
vt 0.820553 0.764500
vt 0.837392 0.754530
vt 0.820553 0.754530
vt 0.837392 0.744561
vt 0.527955 0.629935
vt 0.590968 0.230010
vt 0.106803 0.549416
vt 0.070788 0.543978
vt 0.371782 0.495418
vt 0.845883 0.523657
vt 0.317784 0.474525
vt 1.430602 0.499902
vt 1.494951 0.532387
vt 0.920105 0.964367
vt 0.087722 0.565062
vt 0.087722 0.565062
vt 0.838584 0.834525
vt 0.774474 0.838437
vt 0.283964 0.643578
vt 0.898783 0.563392
vt 0.173298 0.600790
vt 0.841399 0.870969
vt 0.841399 0.988647
vt 1.522522 0.631080
vt 0.549659 0.575985
vt 0.494278 0.593158
vt 0.389288 0.367103
vt 0.503294 0.575842
vt 0.317784 0.558002
vt 0.963656 0.946909
vt 0.898783 0.847500
vt 0.898783 0.942234
vt 0.522136 0.585907
vt 0.085862 0.593921
vt 0.905032 0.579420
vt 0.121876 0.542642
vt 0.085862 0.489885
vt 0.033820 0.541879
vt 0.618826 0.309098
vt 0.570934 0.301943
vt 0.590968 0.230010
vt 0.618826 0.309098
vt 0.521802 0.299129
vt 0.590968 0.368295
vt 0.638860 0.300130
vt 0.590968 0.230010
vt 0.590968 0.368295
vt 0.593449 0.329943
vt 0.593449 0.329943
vt 0.570934 0.301943
vt 0.905032 0.838103
vt 0.963656 0.849694
vt 0.905032 0.925157
vt 0.425732 0.516264
vt 0.293934 0.364002
vt 1.494951 0.532387
vt 1.533541 0.510826
vt 0.985837 0.145674
vt 0.952781 0.226718
vt 0.890388 0.112331
vt 0.963656 0.558002
vt 0.020130 0.306141
vt 0.367823 0.306284
vt 0.581714 0.662324
vt 0.022563 0.662324
vt 0.194048 0.161654
vt 0.367680 0.017311
vt 0.581714 0.995755
vt 0.020273 0.017025
vt 0.020273 0.017025
vt 0.367823 0.306284
vt 0.367680 0.017311
vt 0.302138 0.829039
vt 0.022563 0.995755
vt 0.194048 0.161654
vt 0.020130 0.306141
vt 1.215566 0.611570
vt 1.164144 0.583045
vt 1.164144 0.583045
vt 0.681743 0.448385
vt 0.498667 0.207304
vt 0.649831 0.045550
vt 0.552473 0.145770
vt 0.633470 0.018742
vt 0.649831 0.045550
vt 0.552473 0.145770
vt 0.633470 0.018742
vt 0.832192 0.003096
vt 0.649831 0.045550
vt 0.532868 0.260634
vt 0.419674 0.431308
vt 0.389288 0.367103
vt 0.399019 0.386565
vt 0.548276 0.432405
vt 0.593115 0.383226
vt 0.498667 0.207304
vt 0.532868 0.260634
vt -0.097215 0.130601
vt -0.400021 0.138519
vt -0.112002 0.365099
vt 0.498667 0.207304
vt -0.112002 0.365099
vt -0.119920 0.457544
vt 0.153407 0.431356
vt 0.228154 0.405836
vt 1.164144 0.583045
vt 1.184703 0.577750
vt 1.215566 0.611570
vt 1.208315 0.484590
vt -0.448437 0.236545
vt -0.392818 0.338864
vt -0.405316 0.242698
vt 0.399019 0.386565
vt 0.153407 0.431356
vt 0.293934 0.364002
vt 1.077662 0.650351
vt 1.165575 0.529620
vt 0.419674 0.431308
vt 0.181646 0.384275
vt 0.920248 0.368963
vt 0.952781 0.226718
vt 0.955070 0.399969
vt 0.826182 0.441993
vt 0.681743 0.448385
vt 0.699679 0.500522
vt 0.699679 0.500522
vt 0.826182 0.441993
vt 0.323031 0.404882
vt 0.250669 0.354843
vt 0.322221 0.354366
vt 0.293934 0.364002
vt 0.323031 0.404882
vt 0.319358 0.393863
vt 0.184603 0.366959
vt 0.139192 0.388377
vt 0.153407 0.431356
vt 0.121208 0.416187
vt 0.121208 0.416187
vt 0.135328 0.430974
vt 0.419674 0.431308
vt 0.419674 0.431308
vt -0.212985 0.438416
vt 0.776478 0.017883
vt -0.112002 0.365099
vt -0.119920 0.457544
vt 0.135328 0.430974
vt 0.153407 0.431356
vt 0.245279 0.394483
vt 0.153407 0.431356
vt 0.153407 0.431356
vt 0.832192 0.003096
vt 0.776478 0.017883
vt -0.320456 0.395437
vt -0.436942 0.368391
vt -0.340204 0.442089
vt -0.224624 0.393767
vt 0.180739 0.407505
vt 0.548276 0.432405
vt 0.228154 0.405836
vt 0.699679 0.500522
vt 0.890388 0.112331
vt 0.317784 0.641479
vt 1.222673 0.500284
vt 0.317784 0.641479
vt 1.184703 0.577750
vt 0.593115 0.383226
vt 0.532868 0.260634
vt 0.634758 0.335668
vt 0.985837 0.145674
vt 0.317784 0.558002
vt 0.317784 0.641479
vt 0.317784 0.641479
vt 0.317784 0.474525
vt 0.425732 0.516264
vt 0.425732 0.516264
vt 0.425732 0.599741
vt 0.317784 0.558002
vt 0.317784 0.474525
vt 0.425732 0.516264
vt 0.703352 0.165757
vt 0.317784 0.474525
vt 0.317784 0.474525
vt 0.317784 0.641479
vt 0.425732 0.599741
vt 0.317784 0.641479
vt 0.425732 0.599741
vt 0.317784 0.558002
vt 0.920248 0.368963
vt 0.604515 0.167998
vt 0.649831 0.045550
vt 0.552473 0.145770
vt 0.674111 0.103268
vt 0.665239 0.274276
vt 0.775046 0.324601
vt 0.873358 0.330421
vt 0.776478 0.017883
vt 0.814543 0.213028
vt 0.590014 0.254862
vt 0.820553 0.754530
vt 0.837392 0.764500
vt 0.820553 0.774422
vt 0.837392 0.754530
vt 0.837392 0.744561
vt 0.820553 0.744561
vt 1.215566 0.611570
vt 1.208172 0.631509
vt 1.184703 0.577750
vt 1.227729 0.350312
vt 1.165575 0.529620
vt 1.208315 0.484590
vt 1.349749 0.351886
vt 1.222673 0.500284
vt 1.184703 0.538874
vt 0.181646 0.384275
vt 0.681743 0.448385
vt 0.173298 0.515214
vt 1.184703 0.538874
vt 0.283964 0.472426
vt 0.804621 0.391335
vt 0.707740 0.386231
vt 0.826182 0.441993
vt 0.837392 0.804283
vt 0.820553 0.804283
vt 0.425732 0.599741
vt 0.317784 0.558002
vt 0.317784 0.474525
vt 0.425732 0.516264
vt 0.317784 0.474525
vt 0.317784 0.558002
vt 0.425732 0.516264
vt 0.425732 0.599741
vt 0.317784 0.641479
vt 0.317784 0.641479
vt 0.425732 0.599741
vt 0.317784 0.558002
vt 0.317784 0.474525
vt 0.425732 0.516264
vt 0.317784 0.474525
vt 0.837392 0.794313
vt 0.820553 0.774422
vt 0.820553 0.784391
vt 0.820553 0.794313
vt 0.425732 0.599741
vt 0.317784 0.558002
vt 0.425732 0.516264
vt 0.820553 0.804283
vt 0.837392 0.804283
vt 0.837392 0.784391
vt 0.283964 0.643578
vt 0.837392 0.744561
vt 0.283964 0.643578
vt 0.837392 0.754530
vt 0.837392 0.774422
vt 0.820553 0.764500
vt 0.837392 0.764500
vt 0.820553 0.744561
vt 0.820553 0.754530
vt 0.173298 0.600790
vt 0.283964 0.558002
vt 1.165575 0.529620
vt 0.837392 0.774422
vt 0.820553 0.764500
vt 0.283964 0.643578
vt 0.283964 0.558002
vt 0.837392 0.794313
vt 0.173298 0.600790
vt 0.283964 0.472426
vt 0.283964 0.558002
vt 0.173298 0.600790
vt 0.173298 0.515214
vt 0.283964 0.643578
vt 0.283964 0.643578
vt 0.283964 0.472426
vt 0.173298 0.600790
vt 0.283964 0.558002
vt 0.283964 0.643578
vt 0.820553 0.794313
vt 0.820553 0.784391
vt 0.173298 0.515214
vt 0.283964 0.472426
vt 0.837392 0.784391
vt 1.208172 0.631509
vt 0.283964 0.472426
vt 0.173298 0.515214
vt 0.283964 0.558002
vt 0.173298 0.600790
vt 0.173298 0.515214
vt 1.184703 0.538874
vt 0.283964 0.472426
vt 1.208172 0.631509
vt 1.184703 0.577750
vt 1.164144 0.583045
vt 1.184703 0.577750
vt 1.165575 0.529620
vt 1.208315 0.484590
vt 1.222673 0.500284
vt 1.184703 0.538874
vt 0.283964 0.558002
vt 1.533541 0.510826
vt 1.433559 0.443854
vt 1.494951 0.532387
vt 1.498337 0.544121
vt 1.342927 0.403260
vt 1.563020 0.631080
vt 1.522522 0.631080
vt 1.230258 0.351123
vt 1.238462 0.395008
vt 1.168819 0.420814
vt 0.173298 0.515214
vt 1.239512 0.402735
vt 0.173298 0.600790
vt 0.283964 0.643578
vt 1.498337 0.544121
vt 1.433559 0.443854
vt 1.292317 0.434075
vt 0.283964 0.643578
vt 1.421873 0.466321
vt 1.168819 0.420814
vt 1.036210 0.524707
vt 1.075086 0.546602
vt 1.493901 0.621826
vt 1.522522 0.631080
vt 1.141867 0.385420
vt 1.522522 0.631080
vt 1.458030 0.408078
vt 1.431890 0.441373
vt 1.483979 0.592872
vt 1.522522 0.631080
vt 1.563020 0.631080
vt -0.143628 0.337766
vt -0.309961 0.479486
vt -0.036205 0.250474
vt -0.209360 0.101694
vt -0.297416 0.103125
vt -0.133134 0.158458
vt -0.368777 0.161750
vt 1.075086 0.546602
vt 1.018990 0.650351
vt 1.059869 0.650351
vt 1.073750 0.558193
vt 1.059869 0.650351
vt 1.107332 0.550322
vt 1.073750 0.558193
vt 1.184703 0.538874
vt 1.059869 0.650351
vt 1.214516 0.448528
vt 1.165432 0.432835
vt 1.134665 0.391049
vt 1.165432 0.432835
vt 1.431890 0.441373
vt 1.343023 0.395389
vt 1.494951 0.532387
vt 1.018990 0.650351
vt 1.444244 0.508584
vt 1.292317 0.434075
vt 1.030199 0.536728
vt 0.283964 0.472426
vt 0.283964 0.558002
vt 0.173298 0.600790
vt 0.173298 0.515214
vt 0.283964 0.558002
vt 0.173298 0.600790
vt 0.283964 0.472426
vt 0.173298 0.515214
vt 1.208172 0.631509
vt 1.164144 0.583045
vt 1.165575 0.529620
vt 1.215566 0.611570
vt -0.326895 0.024084
vt -0.196767 0.055281
vt -0.144773 0.039778
vt -0.310200 0.057714
vt 1.142488 0.515119
vt 1.059869 0.650351
vt 1.184703 0.538874
vt -0.459266 0.376309
vt -0.469235 0.180115
vt -0.448437 0.236545
vt -0.326895 0.024084
vt -0.400021 0.138519
vt 1.222673 0.500284
vt 1.184703 0.577750
vt 1.164144 0.583045
vt 1.208315 0.484590
vt 0.425732 0.516264
vt 0.425732 0.599741
vt 0.317784 0.558002
vt 1.165575 0.529620
vt 1.208172 0.631509
vt 1.184703 0.538874
vt 1.164144 0.583045
vt 1.215566 0.611570
vt -0.095497 0.249520
vt -0.309961 0.479486
vt -0.340204 0.442089
vt -0.436942 0.368391
vt -0.459266 0.376309
vt -0.448437 0.236545
vt -0.448437 0.236545
vt -0.469235 0.180115
vn 0.156064 0.987736 0.004606
vn 0.922094 -0.381936 -0.062197
vn 0.922065 -0.381974 -0.062385
vn -0.979701 0.069277 0.188114
vn -0.999847 -0.017015 -0.003936
vn -0.992649 -0.068143 -0.100020
vn -0.998898 0.037908 -0.027666
vn -0.016941 0.998823 -0.045450
vn 0.003262 -0.999866 -0.016032
vn 0.004677 -0.999933 -0.010597
vn 0.003262 -0.999866 -0.016032
vn 0.092969 0.931916 -0.350556
vn -0.851563 0.000000 -0.524252
vn 0.299466 0.601460 -0.740652
vn -0.979410 0.048934 -0.195859
vn 0.223338 -0.970611 -0.089631
vn 0.187333 -0.973885 -0.128276
vn 0.223338 -0.970611 -0.089631
vn -0.994744 -0.080546 0.063225
vn 0.175641 -0.980317 -0.090162
vn 0.223338 -0.970611 -0.089631
vn 0.404026 0.776384 0.483727
vn 0.279767 0.946743 0.159399
vn 0.802991 -0.262627 0.535007
vn 0.381512 0.910839 0.157548
vn 0.863827 -0.365638 -0.346571
vn 0.340698 0.930170 -0.136779
vn -0.982576 0.029103 -0.183567
vn 0.248219 0.960287 -0.127418
vn 0.248219 0.960287 -0.127418
vn 0.248219 0.960287 -0.127418
vn 0.005837 0.999373 -0.034913
vn 0.015152 0.999181 -0.037507
vn 0.005837 0.999373 -0.034913
vn 0.005837 0.999373 -0.034913
vn 0.373703 -0.078046 -0.924259
vn -0.983802 0.165129 -0.069753
vn 0.456107 -0.376384 -0.806413
vn -0.025267 0.999077 -0.034727
vn -0.001844 0.999223 -0.039376
vn 0.363771 -0.211302 -0.907206
vn -0.930003 0.049321 -0.364227
vn -0.976057 0.152701 0.154902
vn -0.943592 0.100149 -0.315602
vn -0.996160 0.077870 -0.040023
vn 0.022687 0.998820 -0.042946
vn 0.024210 0.998870 -0.040897
vn 0.139964 0.988164 -0.062790
vn -0.022807 0.981231 0.191481
vn 0.116904 0.989528 0.084658
vn 0.011410 0.996961 -0.077068
vn 0.000000 -1.000000 0.000000
vn 0.000000 -1.000000 0.000000
vn -0.052416 0.062004 0.996699
vn -0.018349 -0.999514 -0.025219
vn -0.008030 0.947314 0.320206
vn -0.052259 -0.375823 0.925217
vn -0.000944 0.956047 0.293213
vn 0.101883 0.994794 -0.001993
vn -0.987899 0.154680 0.011368
vn 0.477947 0.000000 0.878389
vn 0.057384 0.970140 -0.235660
vn 0.178361 0.974522 0.135991
vn 0.776294 0.504501 0.377951
vn 0.237754 0.302653 0.922970
vn 0.121479 -0.956656 -0.264673
vn -0.134419 0.988435 -0.070199
vn -0.005538 0.999293 0.037179
vn -0.006015 0.999335 0.035975
vn -0.030845 0.997629 -0.061521
vn -0.089870 -0.993348 0.071995
vn 0.092969 0.931916 -0.350556
vn 0.092969 0.931916 -0.350556
vn 0.341008 -0.378587 -0.860456
vn 0.020774 0.999055 0.038179
vn -0.000929 -0.999826 0.018638
vn -0.000929 -0.999826 0.018638
vn -0.000929 -0.999826 0.018638
vn 0.027112 -0.996760 -0.075720
vn 0.343319 0.400565 -0.849517
vn 0.027112 -0.996760 -0.075720
vn 0.009361 0.999369 -0.034254
vn 0.026118 0.995753 0.088281
vn 0.026118 0.995753 0.088281
vn 0.477947 0.000000 0.878389
vn 0.031243 0.998977 0.032688
vn 0.417138 0.000000 -0.908843
vn 0.055574 0.998447 0.003769
vn 0.041491 0.999050 0.013352
vn 0.049290 0.998666 0.015364
vn 0.026118 0.995753 0.088281
vn 0.008734 0.999275 -0.037049
vn 0.013649 0.999234 -0.036663
vn 0.417138 0.000000 -0.908843
vn 0.263617 0.000000 -0.964627
vn -0.039576 0.971759 0.232632
vn 0.263617 0.000000 -0.964627
vn -0.050600 0.403855 0.913422
vn -0.045822 0.391052 0.919227
vn 0.002525 -0.999819 -0.018864
vn 0.227863 0.335181 0.914184
vn -0.039576 0.971759 0.232632
vn 0.027112 -0.996760 -0.075720
vn -0.039576 0.971759 0.232632
vn 0.227863 0.335181 0.914184
vn 0.227863 0.335181 0.914184
vn 0.585682 0.406584 0.701189
vn 0.267221 0.688536 -0.674175
vn 0.810609 0.422350 0.405628
vn 0.339796 0.768746 -0.541818
vn 0.888381 0.456497 0.048879
vn 0.868592 0.494003 0.038840
vn 0.153337 0.939532 -0.306215
vn -0.121276 -0.980213 0.156445
vn 0.042839 -0.998957 -0.015789
vn 0.093964 0.776979 0.622474
vn 0.008385 -0.999941 0.006870
vn -0.993051 -0.114564 -0.026911
vn 0.753072 0.655980 -0.050727
vn 0.627115 0.420872 -0.655433
vn 0.007291 -0.999944 0.007605
vn 0.903578 0.424035 -0.061165
vn 0.007779 -0.999791 -0.018908
vn 0.041272 -0.999134 0.005287
vn -0.990282 0.091577 -0.104669
vn 0.041272 -0.999134 0.005287
vn -0.996672 0.055540 0.059660
vn -0.981560 0.181901 0.058755
vn -0.985182 0.169180 0.028171
vn -0.992033 0.052805 -0.114379
vn 0.371144 0.926863 0.056370
vn 0.175996 0.789958 -0.587360
vn 0.118765 0.986135 -0.115901
vn -0.983600 -0.036370 0.176658
vn -0.996891 0.026311 0.074272
vn 0.155040 0.600320 0.784588
vn 0.782379 -0.382333 0.491634
vn -0.975266 0.174463 0.135719
vn 0.004351 -0.999511 -0.030954
vn 0.008731 -0.999919 -0.009261
vn -0.043926 0.698479 0.714281
vn 0.577527 0.693927 0.430033
vn 0.008406 -0.999891 -0.012136
vn 0.018325 -0.999617 -0.020728
vn 0.032431 -0.999029 -0.029826
vn 0.969868 -0.065735 -0.234594
vn -0.082979 -0.989792 0.115871
vn -0.077125 -0.985341 0.152167
vn -0.069081 -0.992473 0.101124
vn 0.100129 -0.979990 0.172026
vn -0.096168 0.000000 0.995365
vn 0.208187 -0.385969 0.898714
vn -0.738032 0.637498 -0.221143
vn 0.451933 0.608491 0.652300
vn -0.738032 0.637498 -0.221143
vn 0.690951 0.000000 0.722902
vn 0.466094 0.823620 -0.323121
vn 0.975541 0.000000 0.219816
vn 0.000000 -1.000000 0.000000
vn -0.997665 0.000000 -0.068293
vn -0.027131 -0.959378 0.280817
vn 0.976913 -0.023865 0.212300
vn 0.977565 0.000000 0.210633
vn 0.969620 -0.033251 -0.242344
vn 0.927250 0.000000 0.374442
vn 0.690951 0.000000 0.722902
vn 0.596877 0.495212 0.631271
vn 0.792127 0.607694 0.056943
vn 0.371682 0.737558 0.563792
vn 0.678743 0.665652 -0.310187
vn -0.345943 0.791509 -0.503823
vn 0.802417 0.522389 0.288508
vn -0.584895 0.793840 -0.166480
vn -0.633024 0.638909 0.437123
vn -0.672592 0.739529 0.026779
vn 0.821829 0.000000 -0.569734
vn 0.584315 0.805038 -0.102419
vn 0.189424 -0.975946 0.107926
vn 0.987691 0.000000 -0.156416
vn -0.096168 0.000000 0.995365
vn 0.192332 -0.974864 0.112468
vn 0.177076 -0.966603 0.185264
vn 0.666391 0.667762 0.331688
vn 0.000000 -1.000000 0.000000
vn 0.126774 -0.970557 -0.204810
vn 0.000000 -1.000000 0.000000
vn 0.341767 -0.939499 0.023178
vn 0.341767 -0.939499 0.023178
vn 0.341767 -0.939499 0.023178
vn -0.951796 0.305327 -0.029317
vn 0.588333 0.000000 0.808618
vn 0.588333 0.000000 0.808618
vn 0.156064 0.987736 0.004606
vn 0.441451 0.896788 -0.029868
vn 0.000000 1.000000 0.000000
vn 0.072722 -0.960037 -0.270261
vn 0.184368 0.982420 0.029308
vn 0.980467 0.136785 0.141331
vn 0.070669 -0.961248 -0.266472
vn -0.993651 0.109741 0.024802
vn -0.945767 0.318360 -0.064589
vn -0.960618 0.197423 0.195545
vn 0.980467 0.136785 0.141331
vn 0.010577 0.945740 0.324751
vn 0.000000 -1.000000 0.000000
vn 0.000000 -1.000000 0.000000
vn 0.128352 0.981829 -0.139773
vn -0.991894 0.000000 -0.127065
vn 0.400795 -0.142601 -0.905002
vn -0.004847 -0.071897 -0.997400
vn -0.015417 0.000000 -0.999881
vn 0.227327 -0.147344 -0.962607
vn 0.234810 -0.115878 -0.965110
vn 0.400575 -0.143536 -0.904952
vn -0.210136 0.736887 0.642526
vn 0.000000 -1.000000 0.000000
vn 0.181144 0.949843 0.254921
vn 0.181144 0.949843 0.254921
vn 0.022495 0.999552 -0.019767
vn -0.914352 0.107679 -0.390340
vn 0.022495 0.999552 -0.019767
vn -0.004922 0.999321 0.036503
vn -0.003361 0.999389 0.034790
vn -0.994938 -0.070046 -0.072060
vn -0.251414 0.713314 -0.654197
vn 0.731773 0.498811 -0.464431
vn -0.961572 0.243067 -0.127665
vn -0.876156 0.384796 -0.290314
vn -0.134419 0.988435 -0.070199
vn -0.918268 0.121688 -0.376797
vn -0.134419 0.988435 -0.070199
vn -0.977691 0.103384 -0.182847
vn -0.991626 0.037946 -0.123444
vn -0.004611 0.999317 0.036654
vn -0.237820 0.792436 -0.561682
vn -0.094417 0.827331 0.553722
vn 0.011758 -0.971485 0.236811
vn 0.476728 0.777126 -0.410860
vn 0.008037 0.999352 -0.035098
vn -0.992415 -0.078360 -0.094721
vn -0.962330 0.141047 -0.232435
vn -0.991896 0.060832 -0.111541
vn 0.123882 0.986845 -0.103872
vn 0.000000 -1.000000 0.000000
vn -0.957866 0.068245 -0.278988
vn 0.000000 -1.000000 0.000000
vn 0.000000 -1.000000 0.000000
vn 0.000000 -1.000000 0.000000
vn -0.086146 0.950529 0.298451
vn -0.086146 0.950529 0.298451
vn -0.735384 0.640824 -0.220350
vn 0.279588 0.520143 0.807020
vn -0.237208 0.793641 -0.560238
vn 0.662742 0.670045 0.334384
vn 0.451308 0.608003 0.653187
vn -0.206642 0.737140 0.643369
vn 0.175142 0.790697 -0.586620
vn 0.821006 0.498874 0.277623
vn 0.351395 0.711628 -0.608364
vn -0.442285 0.739845 -0.506966
vn -0.968063 -0.111707 -0.224444
vn -0.981668 -0.101564 -0.161284
vn -0.991984 -0.084523 -0.093936
vn 0.032979 0.994335 -0.101046
vn -0.010763 -0.973043 0.230371
vn -0.096168 0.000000 0.995365
vn -0.096168 0.000000 0.995365
vn 0.008650 -0.999962 0.001476
vn 0.009439 -0.999955 -0.000639
vn 0.008148 -0.999954 0.005117
vn -0.966430 0.097794 -0.237591
vn -0.004520 0.994595 -0.103736
vn 0.092575 0.993243 -0.069983
vn 0.056515 0.990872 0.122385
vn -0.106429 0.990872 0.082734
vn 0.028828 0.999137 -0.029898
vn 0.061565 0.997168 0.043190
vn 0.112019 0.988059 -0.105790
vn -0.036562 0.999268 0.011290
vn -0.110312 0.990903 0.077092
vn 0.153537 0.988099 -0.009321
vn 0.048472 0.983308 0.175372
vn 0.002837 0.999928 -0.011660
vn -0.050894 0.988056 -0.145447
vn 0.023401 0.999158 0.033701
vn -0.002630 0.993787 -0.111266
vn 0.074160 0.583535 0.808695
vn -0.193438 0.643937 0.740221
vn -0.684068 0.587759 0.431961
vn -0.011595 -0.999818 -0.015150
vn -0.016796 -0.999552 0.024779
vn -0.016796 -0.999552 0.024779
vn -0.009695 -0.999741 0.020580
vn -0.016796 -0.999552 0.024779
vn -0.009695 -0.999741 0.020580
vn -0.021386 -0.999734 0.008586
vn 0.002532 -0.999599 0.028217
vn 0.000136 -0.999696 0.024673
vn 0.000136 -0.999696 0.024673
vn -0.020134 -0.999789 0.004165
vn 0.000000 -1.000000 0.000000
vn 0.014890 -0.973473 0.228315
vn 0.100129 -0.979990 0.172026
vn -0.018605 -0.999826 -0.001231
vn -0.016177 -0.999817 -0.010166
vn -0.020134 -0.999789 0.004165
vn -0.019915 -0.999789 -0.005014
vn 0.852884 -0.226227 0.470542
vn -0.713381 -0.008133 0.700729
vn 0.340698 0.930170 -0.136779
vn -0.009695 -0.999741 0.020580
vn 0.248219 0.960287 -0.127418
vn 0.248219 0.960287 -0.127418
vn 0.000000 -1.000000 0.000000
vn 0.000000 -1.000000 0.000000
vn -0.521542 0.515660 -0.679771
vn -0.797029 0.506432 -0.329046
vn -0.920480 0.379657 0.092607
vn 0.366205 0.597439 -0.713415
vn -0.924241 -0.380497 -0.031637
vn -0.834404 -0.379945 -0.399265
vn -0.909938 -0.379590 0.167104
vn 0.000000 -1.000000 0.000000
vn 0.000000 -1.000000 0.000000
vn 0.000000 -1.000000 0.000000
vn -0.040547 0.997380 -0.059909
vn -0.083209 0.622551 -0.778143
vn 0.000000 -1.000000 0.000000
vn 0.000000 -1.000000 0.000000
vn 0.013363 -0.999796 -0.015160
vn 0.017481 -0.999845 -0.002105
vn 0.011347 -0.999833 -0.014354
vn 0.007441 -0.999763 -0.020466
vn 0.001126 -0.999710 -0.024069
vn -0.010291 -0.999831 -0.015211
vn 0.001126 -0.999710 -0.024069
vn 0.001126 -0.999710 -0.024069
vn 0.000000 -1.000000 0.000000
vn -0.098214 -0.978882 0.179289
vn -0.050769 -0.961286 0.270836
vn -0.049192 -0.978271 0.201408
vn 0.116817 -0.969437 -0.215747
vn 0.110972 -0.957300 -0.266950
vn -0.190940 -0.970864 0.144795
vn -0.225844 -0.972896 0.049670
vn -0.191950 -0.981357 -0.009637
vn -0.196229 -0.980530 -0.007458
vn -0.260084 -0.954217 -0.147740
vn -0.134720 -0.971575 -0.194660
vn 0.175641 -0.980317 -0.090162
vn 0.189424 -0.975946 0.107926
vn 0.241599 0.067639 -0.968016
vn 0.013222 -0.999787 0.015830
vn 0.614077 -0.149391 -0.774978
vn 0.145214 0.894554 -0.422712
vn -0.260084 -0.954217 -0.147740
vn -0.260084 -0.954217 -0.147740
vn 0.055218 -0.957395 -0.283452
vn -0.124824 -0.974044 -0.188831
vn -0.134720 -0.971575 -0.194660
vn 0.013665 -0.999815 0.013568
vn -0.001136 -0.999740 0.022792
vn -0.211808 -0.385717 -0.897975
vn -0.729489 -0.380077 -0.568672
vn -0.179226 -0.217665 -0.959427
vn 0.222904 -0.381518 -0.897083
vn -0.115823 -0.966984 -0.226994
vn -0.014522 -0.999827 -0.011585
vn -0.016287 -0.966768 -0.255135
vn 0.005001 -0.999800 -0.019364
vn 0.015610 -0.999828 0.010061
vn -0.018838 0.998941 -0.041969
vn 0.834549 0.436980 0.335524
vn -0.045787 0.998940 -0.004675
vn 0.791283 0.336619 -0.510449
vn -0.717160 0.422123 -0.554522
vn -0.904057 0.423005 0.061220
vn -0.637894 0.694000 -0.333849
vn 0.016766 -0.999855 0.002864
vn -0.008772 0.999190 -0.039262
vn -0.049152 0.998688 0.014388
vn -0.037038 0.998688 -0.035367
vn 0.010665 0.999290 -0.036149
vn -0.023088 0.999696 0.008646
vn 0.005370 0.999137 -0.041198
vn -0.018486 0.998996 -0.040812
vn -0.031784 0.999439 0.010562
vn 0.001514 0.999998 0.001445
vn 0.023148 -0.999438 -0.024236
vn -0.074093 0.951454 0.298741
vn 0.027983 -0.999251 0.026721
vn 0.037136 -0.999251 -0.010871
vn -0.037136 -0.999251 0.010871
vn -0.048397 0.998714 0.015110
vn -0.027983 -0.999251 -0.026721
vn -0.009417 -0.999438 -0.032162
vn 0.006104 -0.999667 -0.025072
vn 0.676300 0.422945 -0.603105
vn -0.431333 0.753421 0.496296
vn -0.219920 0.409988 0.885181
vn -0.602903 0.419927 0.678358
vn -0.171013 0.704630 0.688659
vn -0.144528 0.988831 -0.036402
vn 0.074007 0.951497 -0.298623
vn 0.375035 0.777326 -0.505088
vn -0.045822 0.391052 0.919227
vn 0.143837 0.988938 0.036219
vn -0.661833 0.748308 0.044863
vn -0.248264 0.000000 -0.968692
vn -0.909437 0.000000 -0.415841
vn -0.536086 0.000000 0.844164
vn -0.281005 0.000000 -0.959706
vn 0.236560 0.000000 -0.971617
vn 0.236560 0.000000 -0.971617
vn -0.077618 0.393349 -0.916107
vn -0.077618 0.393349 -0.916107
vn -0.077618 0.393349 -0.916107
vn 0.776229 0.000000 -0.630451
vn 0.795417 0.327430 -0.510001
vn 0.835540 0.433356 0.337750
vn -0.836074 0.000000 0.548617
vn 0.366627 0.596767 -0.713760
vn 0.095135 0.628157 -0.772249
vn -0.151332 -0.984610 0.087413
vn -0.212779 0.420079 -0.882190
vn -0.110665 0.987012 0.116451
vn 0.897322 0.438006 0.054451
vn -0.124951 0.987860 0.092303
vn 0.170784 0.704629 -0.688716
vn -0.147797 0.753026 -0.641177
vn 0.219813 0.409678 -0.885351
vn 0.959725 0.000000 -0.280939
vn 0.959725 0.000000 -0.280939
vn 0.004044 0.999206 -0.039625
vn 0.017957 0.999530 -0.024865
vn 0.045742 0.998942 0.004666
vn 0.036345 0.999206 -0.016297
vn 0.018804 0.998941 0.041987
vn -0.017980 0.999528 0.024896
vn -0.004068 0.999205 0.039662
vn -0.036385 0.999205 0.016324
vn -0.046825 -0.998892 -0.004781
vn -0.019265 -0.998893 -0.042921
vn 0.004136 -0.999170 -0.040524
vn 0.018365 -0.999508 -0.025429
vn 0.019231 -0.998893 0.042939
vn 0.037169 -0.999170 -0.016666
vn 0.046780 -0.998894 0.004772
vn 0.685375 0.000000 0.728190
vn -0.818749 0.000000 0.574152
vn 0.088374 0.000000 0.996087
vn 0.906681 0.000000 0.421816
vn -0.037210 -0.999168 0.016694
vn -0.018388 -0.999507 0.025461
vn -0.004161 -0.999168 0.040562
vn 0.994829 0.000000 0.101569
vn 0.994829 0.000000 0.101569
vn -0.287819 0.000000 0.957685
vn 0.016023 0.990944 0.133315
vn 0.585689 0.000000 -0.810536
vn -0.039051 0.971787 0.232604
vn 0.288134 0.000000 -0.957590
vn -0.973318 0.000000 0.229459
vn -0.906742 0.000000 -0.421685
vn -0.685194 0.000000 -0.728361
vn 0.585689 0.000000 -0.810536
vn -0.087694 0.000000 -0.996147
vn -0.040491 0.989729 0.137099
vn -0.068759 0.990113 0.122268
vn 0.899488 0.421370 -0.115619
vn -0.802820 0.000000 0.596221
vn -0.999634 0.000000 -0.027065
vn 0.120836 0.991729 -0.043264
vn 0.076404 0.992670 -0.093639
vn 0.909437 0.000000 0.415841
vn 0.115894 0.988328 -0.098871
vn 0.056193 0.996927 -0.054578
vn 0.032845 0.994246 -0.101959
vn 0.021081 0.991850 -0.125656
vn 0.052063 0.993786 -0.098384
vn -0.117285 -0.991601 0.054509
vn -0.005349 -0.993631 0.112553
vn -0.030730 -0.996352 0.079615
vn -0.113940 -0.989211 0.092079
vn -0.086242 -0.992381 0.087990
vn -0.005278 0.994036 -0.108929
vn 0.998816 0.000000 0.048639
vn 0.457325 0.000000 0.889300
vn 0.054228 0.991475 -0.118478
vn -0.002446 0.996564 -0.082794
vn 0.100955 0.000000 0.994891
vn 0.071597 0.573352 0.816175
vn -0.060301 -0.996041 0.065318
vn -0.070724 -0.991998 0.104586
vn -0.039454 -0.993498 0.106794
vn -0.028963 -0.991414 0.127515
vn -0.056639 -0.992980 0.103841
vn -0.676127 0.604404 0.421364
vn -0.150688 0.978273 0.142387
vn -0.094942 0.339636 -0.935753
vn 0.404798 0.383452 -0.830122
vn 0.404798 0.383452 -0.830122
vn -0.323204 0.659999 0.678189
vn -0.809796 0.585930 -0.030260
vn -0.748844 0.472951 -0.464274
vn -0.742080 0.487868 -0.459676
vn -0.803452 0.562633 -0.194702
vn -0.095254 0.980463 0.172100
vn -0.184245 0.000000 0.982880
vn 0.975541 0.000000 0.219816
vn -0.184245 0.000000 0.982880
vn 0.690951 0.000000 0.722902
vn 0.432118 0.899217 -0.068432
vn 0.477947 0.000000 0.878389
vn 0.477947 0.000000 0.878389
vn -0.976659 0.000000 0.214795
vn -0.529712 0.841019 0.109964
vn -0.282213 0.959096 -0.022155
vn -0.123454 0.982279 0.141022
vn 0.388606 0.894027 -0.222938
vn -0.067338 0.980101 0.186731
vn 0.046039 -0.974099 -0.221384
vn 0.047144 0.997945 0.043404
vn 0.062870 0.997829 0.019596
vn -0.069780 0.997552 -0.004599
vn -0.002134 -0.990978 -0.134009
vn 0.061369 0.998101 0.005227
vn -0.869507 0.000000 -0.493921
vn -0.784020 0.000000 -0.620736
vn -0.681136 0.000000 -0.732157
vn -0.003560 0.997314 0.073161
vn -0.005285 0.997505 0.070394
vn -0.982137 0.000000 -0.188166
vn 0.034186 0.997439 0.062828
vn -0.431152 0.000000 0.902279
vn -0.431152 0.000000 0.902279
vn 0.042750 0.997905 0.048561
vn -0.074860 0.000000 0.997194
vn -0.074860 0.000000 0.997194
vn 0.606433 -0.386177 -0.695058
vn 0.079546 0.879509 -0.469187
vn 0.911789 -0.380030 -0.155624
vn 0.101446 -0.379603 0.919571
vn -0.222975 -0.381518 0.897065
vn 0.721957 -0.380139 0.578163
vn -0.524318 -0.379722 0.762170
vn -0.054031 0.997289 -0.049951
vn -0.157224 0.000000 -0.987563
vn -0.569082 0.000000 -0.822281
vn 0.191078 0.000000 -0.981575
vn -0.157224 0.000000 -0.987563
vn 0.011242 0.996449 -0.083445
vn 0.015823 0.996409 -0.083184
vn -0.516774 0.528255 -0.673714
vn -0.014188 0.995920 -0.089119
vn 0.036431 0.997060 -0.067409
vn 0.032850 0.996331 -0.079022
vn 0.330854 0.000000 -0.943682
vn 0.453776 0.000000 -0.891116
vn -0.033032 0.997260 0.066192
vn -0.492204 0.760602 0.423343
vn -0.009940 0.997124 0.075130
vn -0.569082 0.000000 -0.822281
vn -0.019674 0.997308 0.070640
vn -0.046253 0.997483 0.053742
vn 0.076062 0.000000 -0.997103
vn 0.110164 -0.990862 -0.077819
vn 0.060801 -0.991258 -0.117093
vn 0.036063 -0.989979 -0.136529
vn 0.092091 -0.989825 -0.108471
vn 0.095111 -0.981099 -0.168519
vn 0.070677 -0.980891 -0.181266
vn 0.143674 -0.979284 -0.142688
vn 0.119707 -0.982677 -0.141481
vn 0.841304 0.535904 0.070809
vn 0.443751 0.395779 0.804017
vn 0.443751 0.395779 0.804017
vn 0.833408 0.548135 0.070561
vn -0.051453 0.943145 0.328374
vn 0.250087 0.477121 0.842503
vn 0.083335 0.937243 0.338572
vn -0.240940 0.047971 0.969354
vn -0.056867 0.997832 -0.033116
vn -0.041007 0.997358 -0.059967
vn 0.434268 0.413793 0.800117
vn -0.338721 0.940733 -0.017006
vn -0.338721 0.940733 -0.017006
vn -0.559455 0.797849 0.224603
vn -0.130569 0.969747 0.206259
vn -0.213095 0.953510 0.213095
vn -0.449497 0.307784 0.838583
vn 0.698401 0.537656 0.472401
vn 0.762635 0.548351 0.343074
vn -0.450201 0.319223 0.833916
vn 0.009417 -0.999438 0.032162
vn -0.023148 -0.999438 0.024236
vn -0.006104 -0.999667 0.025072
vn -0.449497 0.307784 0.838583
vn -0.912041 0.398111 0.098430
vn -0.041799 0.384049 0.922366
vn -0.852466 0.483333 -0.199224
vn -0.912041 0.398111 0.098430
vn 0.923946 -0.380040 0.043507
vn -0.205732 0.927799 -0.311228
vn -0.258342 0.899874 -0.351405
vn -0.476397 0.826761 -0.299186
vn -0.345760 0.886194 -0.308400
vn -0.601239 0.784602 -0.151365
vn -0.338721 0.940733 -0.017006
vn -0.213095 0.953510 0.213095
f 21/21/21 16/16/16 18/18/18
f 30/30/30 31/31/31 29/29/29
f 72/72/72 73/73/73 12/12/12
f 34/34/34 32/32/32 35/35/35
f 83/83/83 91/91/91 84/84/84
f 104/104/104 102/102/102 96/96/96
f 101/101/101 105/105/105 106/106/106
f 79/79/79 81/81/81 103/103/103
f 76/76/76 78/78/78 77/77/77
f 188/188/188 187/187/187 189/189/189
f 154/154/154 198/198/198 203/203/203
f 183/183/183 238/238/238 154/154/154
f 235/235/235 155/155/155 153/153/153
f 144/144/144 126/126/126 124/124/124
f 219/219/219 239/239/239 221/221/221
f 67/67/67 231/231/231 229/229/229
f 19/19/19 60/60/60 227/227/227
f 227/227/227 60/60/60 228/228/228
f 227/227/227 228/228/228 201/201/201
f 201/201/201 228/228/228 190/190/190
f 202/202/202 201/201/201 190/190/190
f 200/200/200 201/201/201 202/202/202
f 202/202/202 125/125/125 200/200/200
f 200/200/200 125/125/125 208/208/208
f 185/185/185 17/17/17 20/20/20
f 66/66/66 17/17/17 185/185/185
f 185/185/185 196/196/196 66/66/66
f 199/199/199 196/196/196 185/185/185
f 38/38/38 26/26/26 2/2/2
f 2/2/2 26/26/26 3/3/3
f 3/3/3 24/24/24 2/2/2
f 2/2/2 24/24/24 137/137/137
f 137/137/137 24/24/24 152/152/152
f 152/152/152 24/24/24 136/136/136
f 136/136/136 54/54/54 152/152/152
f 152/152/152 54/54/54 57/57/57
f 24/24/24 22/22/22 136/136/136
f 136/136/136 56/56/56 54/54/54
f 58/58/58 56/56/56 136/136/136
f 27/27/27 131/131/131 194/194/194
f 131/131/131 25/25/25 194/194/194
f 131/131/131 23/23/23 25/25/25
f 15/15/15 42/42/42 28/28/28
f 44/44/44 42/42/42 15/15/15
f 44/44/44 45/45/45 42/42/42
f 42/42/42 45/45/45 5/5/5
f 45/45/45 4/4/4 5/5/5
f 43/43/43 4/4/4 45/45/45
f 7/7/7 4/4/4 43/43/43
f 6/6/6 4/4/4 7/7/7
f 49/49/49 50/50/50 59/59/59
f 59/59/59 50/50/50 48/48/48
f 62/62/62 59/59/59 48/48/48
f 61/61/61 85/85/85 156/156/156
f 156/156/156 85/85/85 166/166/166
f 165/165/165 156/156/156 166/166/166
f 158/158/158 156/156/156 165/165/165
f 179/179/179 158/158/158 165/165/165
f 177/177/177 158/158/158 179/179/179
f 177/177/177 179/179/179 157/157/157
f 89/89/89 177/177/177 157/157/157
f 157/157/157 179/179/179 176/176/176
f 94/94/94 157/157/157 176/176/176
f 87/87/87 157/157/157 94/94/94
f 94/94/94 97/97/97 87/87/87
f 95/95/95 97/97/97 94/94/94
f 41/41/41 14/14/14 36/36/36
f 38/38/38 41/41/41 36/36/36
f 74/74/74 41/41/41 38/38/38
f 230/230/230 220/220/220 13/13/13
f 230/230/230 129/129/129 220/220/220
f 128/128/128 129/129/129 230/230/230
f 128/128/128 138/138/138 129/129/129
f 129/129/129 138/138/138 37/37/37
f 241/241/241 37/37/37 138/138/138
f 232/232/232 37/37/37 241/241/241
f 241/241/241 242/242/242 232/232/232
f 232/232/232 242/242/242 233/233/233
f 233/233/233 242/242/242 160/160/160
f 89/89/89 75/75/75 86/86/86
f 89/89/89 86/86/86 90/90/90
f 89/89/89 90/90/90 88/88/88
f 33/33/33 157/157/157 93/93/93
f 92/92/92 33/33/33 93/93/93
f 92/92/92 93/93/93 82/82/82
f 9/9/9 100/100/100 11/11/11
f 10/10/10 9/9/9 11/11/11
f 116/116/116 98/98/98 99/99/99
f 141/141/141 98/98/98 116/116/116
f 141/141/141 116/116/116 204/204/204
f 204/204/204 116/116/116 197/197/197
f 197/197/197 195/195/195 204/204/204
f 195/195/195 197/197/197 113/113/113
f 110/110/110 113/113/113 197/197/197
f 108/108/108 113/113/113 110/110/110
f 110/110/110 80/80/80 108/108/108
f 120/120/120 80/80/80 110/110/110
f 116/116/116 142/142/142 197/197/197
f 142/142/142 119/119/119 197/197/197
f 119/119/119 110/110/110 197/197/197
f 119/119/119 120/120/120 110/110/110
f 122/122/122 120/120/120 119/119/119
f 119/119/119 109/109/109 122/122/122
f 142/142/142 109/109/109 119/119/119
f 142/142/142 107/107/107 109/109/109
f 116/116/116 107/107/107 142/142/142
f 117/117/117 268/268/268 121/121/121
f 121/121/121 268/268/268 270/270/270
f 268/268/268 269/269/269 270/270/270
f 268/268/268 140/140/140 269/269/269
f 143/143/143 140/140/140 268/268/268
f 143/143/143 123/123/123 140/140/140
f 64/64/64 112/112/112 111/111/111
f 167/167/167 112/112/112 64/64/64
f 167/167/167 64/64/64 65/65/65
f 193/193/193 63/63/63 1/1/1
f 207/207/207 193/193/193 1/1/1
f 178/178/178 181/181/181 150/150/150
f 150/150/150 181/181/181 182/182/182
f 182/182/182 237/237/237 150/150/150
f 150/150/150 237/237/237 265/265/265
f 265/265/265 237/237/237 161/161/161
f 236/236/236 215/215/215 154/154/154
f 215/215/215 236/236/236 243/243/243
f 236/236/236 238/238/238 243/243/243
f 238/238/238 235/235/235 243/243/243
f 235/235/235 238/238/238 132/132/132
f 206/206/206 205/205/205 186/186/186
f 184/184/184 205/205/205 206/206/206
f 8/8/8 70/70/70 51/51/51
f 70/70/70 264/264/264 51/51/51
f 264/264/264 133/133/133 51/51/51
f 40/40/40 39/39/39 239/239/239
f 46/46/46 40/40/40 239/239/239
f 239/239/239 47/47/47 46/46/46
f 216/216/216 53/53/53 159/159/159
f 159/159/159 53/53/53 52/52/52
f 169/169/169 217/217/217 218/218/218
f 217/217/217 225/225/225 218/218/218
f 173/173/173 225/225/225 171/171/171
f 225/225/225 173/173/173 175/175/175
f 173/173/173 174/174/174 175/175/175
f 170/170/170 226/226/226 168/168/168
f 168/168/168 226/226/226 172/172/172
f 172/172/172 169/169/169 168/168/168
f 246/246/246 248/248/248 244/244/244
f 247/247/247 248/248/248 246/246/246
f 256/256/256 249/249/249 250/250/250
f 249/249/249 259/259/259 250/250/250
f 253/253/253 259/259/259 257/257/257
f 259/259/259 253/253/253 260/260/260
f 253/253/253 251/251/251 260/260/260
f 254/254/254 258/258/258 255/255/255
f 255/255/255 258/258/258 252/252/252
f 252/252/252 256/256/256 255/255/255
f 149/149/149 71/71/71 147/147/147
f 148/148/148 149/149/149 147/147/147
f 114/114/114 148/148/148 147/147/147
f 55/55/55 139/139/139 144/144/144
f 139/139/139 145/145/145 144/144/144
f 115/115/115 144/144/144 145/145/145
f 222/222/222 68/68/68 69/69/69
f 234/234/234 68/68/68 222/222/222
f 234/234/234 222/222/222 223/223/223
f 180/180/180 267/267/267 151/151/151
f 266/266/266 267/267/267 180/180/180
f 271/271/271 245/245/245 130/130/130
f 271/271/271 135/135/135 245/245/245
f 245/245/245 135/135/135 127/127/127
f 135/135/135 134/134/134 127/127/127
f 118/118/118 134/134/134 135/135/135
f 134/134/134 118/118/118 261/261/261
f 261/261/261 118/118/118 262/262/262
f 261/261/261 262/262/262 263/263/263
f 263/263/263 262/262/262 240/240/240
f 263/263/263 240/240/240 224/224/224
f 162/162/162 164/164/164 146/146/146
f 163/163/163 164/164/164 162/162/162
f 162/162/162 192/192/192 163/163/163
f 191/191/191 192/192/192 162/162/162
f 213/213/213 210/210/210 211/211/211
f 212/212/212 210/210/210 213/213/213
f 212/212/212 213/213/213 214/214/214
f 214/214/214 213/213/213 209/209/209
f 279/279/279 276/276/276 272/272/272
f 279/279/279 277/277/277 276/276/276
f 276/276/276 277/277/277 273/273/273
f 272/272/272 276/276/276 273/273/273
f 275/275/275 274/274/274 283/283/283
f 283/283/283 274/274/274 278/278/278
f 284/284/284 283/283/283 278/278/278
f 275/275/275 283/283/283 284/284/284
f 286/286/286 285/285/285 281/281/281
f 280/280/280 285/285/285 286/286/286
f 280/280/280 282/282/282 285/285/285
f 285/285/285 282/282/282 281/281/281
f 587/587/587 586/586/586 609/609/609
f 313/313/313 31/31/31 312/312/312
f 188/188/188 187/187/187 189/189/189
f 21/21/21 16/16/16 18/18/18
f 367/367/367 360/360/360 349/349/349
f 348/348/348 356/356/356 357/357/357
f 311/311/311 295/295/295 293/293/293
f 294/294/294 292/292/292 291/291/291
f 337/337/337 336/336/336 334/334/334
f 415/415/415 416/416/416 417/417/417
f 600/600/600 576/576/576 577/577/577
f 601/601/601 602/602/602 599/599/599
f 604/604/604 605/605/605 607/607/607
f 607/607/607 605/605/605 606/606/606
f 608/608/608 607/607/607 606/606/606
f 610/610/610 588/588/588 590/590/590
f 610/610/610 590/590/590 589/589/589
f 131/131/131 23/23/23 25/25/25
f 131/131/131 25/25/25 194/194/194
f 310/310/310 131/131/131 194/194/194
f 329/329/329 323/323/323 325/325/325
f 329/329/329 328/328/328 323/323/323
f 324/324/324 328/328/328 329/329/329
f 338/338/338 314/314/314 315/315/315
f 301/301/301 314/314/314 338/338/338
f 351/351/351 181/181/181 303/303/303
f 303/303/303 181/181/181 182/182/182
f 182/182/182 302/302/302 303/303/303
f 303/303/303 302/302/302 341/341/341
f 341/341/341 302/302/302 340/340/340
f 340/340/340 339/339/339 341/341/341
f 341/341/341 339/339/339 424/424/424
f 424/424/424 339/339/339 344/344/344
f 344/344/344 345/345/345 424/424/424
f 347/347/347 424/424/424 345/345/345
f 346/346/346 424/424/424 347/347/347
f 342/342/342 17/17/17 350/350/350
f 343/343/343 17/17/17 342/342/342
f 342/342/342 358/358/358 343/343/343
f 369/369/369 358/358/358 342/342/342
f 367/367/367 358/358/358 369/369/369
f 369/369/369 359/359/359 367/367/367
f 361/361/361 371/371/371 353/353/353
f 379/379/379 371/371/371 361/361/361
f 379/379/379 331/331/331 371/371/371
f 379/379/379 332/332/332 331/331/331
f 331/331/331 332/332/332 330/330/330
f 332/332/332 333/333/333 330/330/330
f 332/332/332 370/370/370 333/333/333
f 299/299/299 298/298/298 362/362/362
f 297/297/297 298/298/298 299/299/299
f 306/306/306 296/296/296 300/300/300
f 306/306/306 300/300/300 304/304/304
f 368/368/368 307/307/307 305/305/305
f 290/290/290 368/368/368 305/305/305
f 335/335/335 368/368/368 290/290/290
f 381/381/381 394/394/394 387/387/387
f 394/394/394 384/384/384 387/387/387
f 384/384/384 388/388/388 387/387/387
f 386/386/386 382/382/382 380/380/380
f 385/385/385 386/386/386 380/380/380
f 383/383/383 385/385/385 380/380/380
f 596/596/596 393/393/393 597/597/597
f 595/595/595 596/596/596 597/597/597
f 391/391/391 595/595/595 597/597/597
f 395/395/395 396/396/396 397/397/397
f 396/396/396 389/389/389 397/397/397
f 389/389/389 392/392/392 397/397/397
f 116/116/116 400/400/400 406/406/406
f 402/402/402 400/400/400 116/116/116
f 399/399/399 400/400/400 402/402/402
f 401/401/401 400/400/400 399/399/399
f 399/399/399 377/377/377 401/401/401
f 408/408/408 377/377/377 399/399/399
f 378/378/378 377/377/377 408/408/408
f 376/376/376 377/377/377 378/378/378
f 402/402/402 116/116/116 390/390/390
f 402/402/402 390/390/390 399/399/399
f 399/399/399 390/390/390 403/403/403
f 408/408/408 399/399/399 403/403/403
f 378/378/378 408/408/408 403/403/403
f 430/430/430 378/378/378 403/403/403
f 430/430/430 376/376/376 378/378/378
f 425/425/425 376/376/376 430/430/430
f 425/425/425 430/430/430 431/431/431
f 390/390/390 116/116/116 407/407/407
f 407/407/407 403/403/403 390/390/390
f 403/403/403 407/407/407 404/404/404
f 404/404/404 430/430/430 403/403/403
f 429/429/429 430/430/430 404/404/404
f 431/431/431 430/430/430 429/429/429
f 405/405/405 431/431/431 429/429/429
f 398/398/398 431/431/431 405/405/405
f 119/119/119 398/398/398 405/405/405
f 122/122/122 398/398/398 119/119/119
f 116/116/116 142/142/142 407/407/407
f 142/142/142 119/119/119 407/407/407
f 119/119/119 405/405/405 407/407/407
f 405/405/405 404/404/404 407/407/407
f 429/429/429 404/404/404 405/405/405
f 116/116/116 107/107/107 142/142/142
f 142/142/142 107/107/107 109/109/109
f 142/142/142 109/109/109 119/119/119
f 119/119/119 109/109/109 122/122/122
f 487/487/487 432/432/432 433/433/433
f 475/475/475 432/432/432 487/487/487
f 488/488/488 475/475/475 487/487/487
f 491/491/491 475/475/475 488/488/488
f 411/411/411 491/491/491 488/488/488
f 471/471/471 491/491/491 411/411/411
f 472/472/472 471/471/471 411/411/411
f 410/410/410 471/471/471 472/472/472
f 409/409/409 410/410/410 472/472/472
f 412/412/412 410/410/410 409/409/409
f 412/412/412 409/409/409 413/413/413
f 413/413/413 409/409/409 414/414/414
f 427/427/427 375/375/375 470/470/470
f 420/420/420 427/427/427 470/470/470
f 373/373/373 427/427/427 420/420/420
f 374/374/374 441/441/441 439/439/439
f 441/441/441 440/440/440 439/439/439
f 440/440/440 438/438/438 439/439/439
f 434/434/434 372/372/372 435/435/435
f 437/437/437 434/434/434 435/435/435
f 436/436/436 437/437/437 435/435/435
f 453/453/453 442/442/442 454/454/454
f 455/455/455 453/453/453 454/454/454
f 446/446/446 455/455/455 454/454/454
f 443/443/443 444/444/444 445/445/445
f 444/444/444 447/447/447 445/445/445
f 447/447/447 448/448/448 445/445/445
f 452/452/452 457/457/457 456/456/456
f 449/449/449 457/457/457 452/452/452
f 451/451/451 449/449/449 452/452/452
f 458/458/458 449/449/449 451/451/451
f 450/450/450 458/458/458 451/451/451
f 463/463/463 458/458/458 450/450/450
f 464/464/464 463/463/463 450/450/450
f 465/465/465 463/463/463 464/464/464
f 467/467/467 465/465/465 464/464/464
f 462/462/462 465/465/465 467/467/467
f 466/466/466 462/462/462 467/467/467
f 460/460/460 462/462/462 466/466/466
f 461/461/461 521/521/521 508/508/508
f 521/521/521 519/519/519 508/508/508
f 519/519/519 499/499/499 508/508/508
f 468/468/468 459/459/459 469/469/469
f 426/426/426 468/468/468 469/469/469
f 428/428/428 426/426/426 469/469/469
f 419/419/419 501/501/501 502/502/502
f 501/501/501 500/500/500 502/502/502
f 486/486/486 479/479/479 478/478/478
f 479/479/479 480/480/480 478/478/478
f 480/480/480 477/477/477 478/478/478
f 476/476/476 473/473/473 474/474/474
f 489/489/489 476/476/476 474/474/474
f 490/490/490 489/489/489 474/474/474
f 496/496/496 482/482/482 495/495/495
f 497/497/497 496/496/496 495/495/495
f 493/493/493 497/497/497 495/495/495
f 481/481/481 484/484/484 485/485/485
f 484/484/484 494/494/494 485/485/485
f 494/494/494 483/483/483 485/485/485
f 288/288/288 287/287/287 492/492/492
f 503/503/503 287/287/287 288/288/288
f 503/503/503 288/288/288 498/498/498
f 507/507/507 289/289/289 504/504/504
f 505/505/505 507/507/507 504/504/504
f 506/506/506 507/507/507 505/505/505
f 572/572/572 522/522/522 571/571/571
f 574/574/574 572/572/572 571/571/571
f 573/573/573 574/574/574 571/571/571
f 526/526/526 569/569/569 568/568/568
f 569/569/569 570/570/570 568/568/568
f 570/570/570 567/567/567 568/568/568
f 525/525/525 583/583/583 517/517/517
f 517/517/517 583/583/583 518/518/518
f 533/533/533 517/517/517 518/518/518
f 516/516/516 517/517/517 533/533/533
f 516/516/516 421/421/421 517/517/517
f 517/517/517 421/421/421 561/561/561
f 565/565/565 517/517/517 561/561/561
f 583/583/583 547/547/547 518/518/518
f 583/583/583 584/584/584 547/547/547
f 326/326/326 584/584/584 583/583/583
f 560/560/560 565/565/565 561/561/561
f 564/564/564 565/565/565 560/560/560
f 564/564/564 560/560/560 562/562/562
f 564/564/564 562/562/562 531/531/531
f 531/531/531 562/562/562 532/532/532
f 535/535/535 561/561/561 421/421/421
f 536/536/536 561/561/561 535/535/535
f 535/535/535 511/511/511 536/536/536
f 509/509/509 511/511/511 535/535/535
f 539/539/539 511/511/511 509/509/509
f 538/538/538 511/511/511 539/539/539
f 537/537/537 534/534/534 523/523/523
f 537/537/537 523/523/523 527/527/527
f 527/527/527 523/523/523 524/524/524
f 527/527/527 524/524/524 513/513/513
f 520/520/520 527/527/527 513/513/513
f 556/556/556 527/527/527 520/520/520
f 556/556/556 520/520/520 557/557/557
f 553/553/553 556/556/556 557/557/557
f 552/552/552 556/556/556 553/553/553
f 552/552/552 553/553/553 555/555/555
f 513/513/513 179/179/179 520/520/520
f 520/520/520 179/179/179 418/418/418
f 520/520/520 418/418/418 559/559/559
f 559/559/559 418/418/418 558/558/558
f 559/559/559 558/558/558 550/550/550
f 550/550/550 558/558/558 566/566/566
f 550/550/550 566/566/566 551/551/551
f 513/513/513 510/510/510 179/179/179
f 179/179/179 510/510/510 165/165/165
f 510/510/510 512/512/512 165/165/165
f 165/165/165 512/512/512 166/166/166
f 166/166/166 512/512/512 514/514/514
f 514/514/514 512/512/512 515/515/515
f 551/551/551 566/566/566 548/548/548
f 549/549/549 563/563/563 530/530/530
f 530/530/530 563/563/563 529/529/529
f 529/529/529 528/528/528 530/530/530
f 533/533/533 528/528/528 529/529/529
f 317/317/317 601/601/601 554/554/554
f 317/317/317 318/318/318 601/601/601
f 593/593/593 578/578/578 575/575/575
f 592/592/592 578/578/578 593/593/593
f 592/592/592 593/593/593 585/585/585
f 591/591/591 598/598/598 594/594/594
f 600/600/600 598/598/598 591/591/591
f 423/423/423 316/316/316 327/327/327
f 319/319/319 423/423/423 327/327/327
f 422/422/422 423/423/423 319/319/319
f 322/322/322 320/320/320 321/321/321
f 322/322/322 309/309/309 320/320/320
f 546/546/546 309/309/309 322/322/322
f 309/309/309 546/546/546 582/582/582
f 579/579/579 309/309/309 582/582/582
f 580/580/580 579/579/579 582/582/582
f 581/581/581 579/579/579 580/580/580
f 308/308/308 581/581/581 580/580/580
f 582/582/582 546/546/546 544/544/544
f 543/543/543 582/582/582 544/544/544
f 580/580/580 582/582/582 543/543/543
f 545/545/545 580/580/580 543/543/543
f 308/308/308 580/580/580 545/545/545
f 603/603/603 308/308/308 545/545/545
f 542/542/542 308/308/308 603/603/603
f 540/540/540 542/542/542 603/603/603
f 354/354/354 542/542/542 540/540/540
f 540/540/540 352/352/352 354/354/354
f 355/355/355 354/354/354 352/352/352
f 355/355/355 352/352/352 541/541/541
f 541/541/541 352/352/352 365/365/365
f 365/365/365 352/352/352 363/363/363
f 363/363/363 364/364/364 365/365/365
f 366/366/366 352/352/352 540/540/540
f 363/363/363 352/352/352 366/366/366
f 321/321/321 364/364/364 363/363/363
f 321/321/321 320/320/320 364/364/364
