# Exported by s4extract — Prop_Utensil_Hand_lod00_g00
o Prop_Utensil_Hand_lod00_g00
v 0.071749 -0.003174 0.034577
v -0.055055 0.012574 0.083377
v -0.063265 -0.001831 0.048860
v 0.071749 -0.003174 0.034577
v 0.061098 0.014588 0.037385
v 0.073489 -0.004730 0.090884
v 0.073092 -0.025880 0.049867
v 0.073977 -0.026673 0.078036
v 0.073489 -0.004730 0.090884
v 0.067812 -0.001831 0.041993
v 0.064028 0.028413 0.062380
v 0.067812 -0.001831 0.041993
v 0.069308 -0.001831 0.085788
v -0.063265 -0.001831 0.048860
v -0.062044 -0.001831 0.085116
v 0.069308 -0.001831 0.085788
v 0.068545 -0.001831 0.063906
v 0.073977 -0.026673 0.078036
v 0.073489 -0.004730 0.090884
v 0.071749 -0.003174 0.034577
v 0.072146 0.018006 0.075594
v 0.071291 0.018769 0.047456
v -0.075716 -0.008179 0.049928
v -0.074862 -0.022767 0.059572
v -0.084933 -0.009003 0.067812
v -0.075716 -0.008179 0.049928
v -0.059633 -0.007508 0.044008
v -0.076022 0.005890 0.058046
v -0.074862 -0.022767 0.059572
v -0.074343 -0.023255 0.077303
v -0.057802 -0.026826 0.079684
v -0.074618 -0.009186 0.085421
v -0.058199 -0.008789 0.090274
v -0.075472 0.005402 0.075777
v -0.059297 0.009857 0.077700
v -0.074618 -0.009186 0.085421
v -0.061525 0.019410 0.068300
v -0.061525 0.019410 0.068300
v -0.056093 0.012574 0.052828
v 0.062746 0.014588 0.086032
v 0.064028 0.028413 0.062380
v -0.004486 0.029603 0.063936
v -0.062044 -0.001831 0.085116
v -0.068728 -0.001831 0.068545
v -0.075716 -0.008179 0.049928
v -0.076022 0.005890 0.058046
v -0.060030 0.010498 0.054567
v -0.059633 -0.007508 0.044008
v 0.061098 0.014588 0.037385
v 0.062746 0.014588 0.086032
v 0.072146 0.018006 0.075594
v 0.071291 0.018769 0.047456
v -0.075472 0.005402 0.075777
v -0.058199 -0.008789 0.090274
v -0.058535 -0.026185 0.056551
v -0.074618 -0.009186 0.085421
v -0.074343 -0.023255 0.077303
v 0.073092 -0.025880 0.049867
v 0.082583 -0.003632 0.062410
v -0.059633 -0.007508 0.003143
v -0.062044 -0.001831 0.044252
v 0.072146 0.018006 0.034730
v 0.071749 -0.003174 -0.006287
v 0.061098 0.014588 -0.003510
v 0.071291 0.018769 0.006592
v 0.071749 -0.003174 -0.006287
v 0.061098 0.014588 -0.003510
v 0.073489 -0.004730 0.050020
v 0.073092 -0.025880 0.009003
v 0.073977 -0.026673 0.037141
v 0.073489 -0.004730 0.050020
v 0.067812 -0.001831 0.001129
v 0.064028 0.028413 0.021516
v 0.067812 -0.001831 0.001129
v 0.069308 -0.001831 0.044923
v -0.063265 -0.001831 0.007996
v 0.069308 -0.001831 0.044923
v -0.062044 -0.001831 0.044252
v 0.068545 -0.001831 0.023041
v 0.073092 -0.025880 0.009003
v 0.071749 -0.003174 -0.006287
v -0.061525 0.019410 0.027436
v 0.082583 -0.003632 0.021546
v 0.073977 -0.026673 0.037141
v 0.073489 -0.004730 0.050020
v 0.072146 0.018006 0.034730
v 0.071291 0.018769 0.006592
v -0.075472 0.005402 0.034913
v -0.076022 0.005890 0.017182
v -0.074343 -0.023255 0.036439
v -0.058535 -0.026185 0.015687
v -0.075716 -0.008179 0.009064
v -0.059633 -0.007508 0.003143
v -0.074862 -0.022767 0.018708
v -0.074343 -0.023255 0.036439
v -0.084933 -0.009003 0.026948
v -0.055055 0.012574 0.042512
v -0.057802 -0.026826 0.038820
v -0.074618 -0.009186 0.044557
v 0.062746 0.014588 0.045137
v 0.064028 0.028413 0.021516
v -0.004486 0.029603 0.023072
v -0.061525 0.019410 0.027436
v -0.075472 0.005402 0.034913
v -0.074618 -0.009186 0.044557
v -0.058199 -0.008789 0.049379
v -0.076022 0.005890 0.017182
v -0.068728 -0.001831 0.027680
v 0.062746 0.014588 0.045137
v -0.075716 -0.008179 0.009064
v -0.060030 0.010498 0.013703
v -0.059297 0.009857 0.036836
v -0.058199 -0.008789 0.049379
v -0.074618 -0.009186 0.044557
v -0.074862 -0.022767 0.018708
v -0.075716 -0.008179 0.009064
v -0.063265 -0.001831 0.007996
v -0.056093 0.012574 0.011963
vt 0.942187 0.473175
vt 0.197450 0.288492
vt 0.153203 0.445717
vt 0.942187 0.666544
vt 0.847456 0.415753
vt 0.942187 0.222792
vt 0.942187 0.626669
vt 0.942187 0.580732
vt 0.942187 0.530772
vt 0.911698 0.459359
vt 0.835796 0.343815
vt 0.911698 0.459359
vt 0.913214 0.228854
vt 0.153203 0.445717
vt 0.139445 0.250716
vt 0.913214 0.228854
vt 0.961717 0.344107
vt 0.650763 0.056005
vt 0.582265 0.119898
vt 0.906452 0.124446
vt 0.631584 0.176679
vt 0.832707 0.178428
vt 1.580125 0.111853
vt 1.657252 0.056938
vt 1.746270 0.108123
vt 0.059521 0.666544
vt 0.158450 0.666544
vt 1.655678 0.179536
vt 0.059521 0.637221
vt 0.059521 0.580732
vt 0.158450 0.580732
vt 0.059521 0.530772
vt 0.158450 0.530772
vt 1.853652 0.183733
vt 0.158450 0.298402
vt 0.059521 0.222792
vt 0.167311 0.344107
vt 0.167311 0.344107
vt 0.209284 0.407883
vt 0.850545 0.274093
vt 0.835796 0.343815
vt 0.454479 0.344107
vt 0.139445 0.250716
vt 0.056548 0.344107
vt 0.059521 0.473175
vt 0.059521 0.388878
vt 0.158450 0.388878
vt 0.158450 0.473175
vt 0.847456 0.415753
vt 0.850545 0.274093
vt 0.942187 0.298402
vt 0.942187 0.388878
vt 0.059521 0.298402
vt 0.158450 0.222792
vt 0.158450 0.626669
vt 1.910200 0.118558
vt 1.863096 0.063584
vt 0.853052 0.054840
vt 0.748993 0.112436
vt 0.158450 0.473175
vt 0.139445 0.250716
vt 0.942187 0.298402
vt 0.942187 0.473175
vt 0.847456 0.415753
vt 0.942187 0.388878
vt 0.942187 0.666544
vt 0.847456 0.415753
vt 0.942187 0.222792
vt 0.942187 0.626669
vt 0.942187 0.580732
vt 0.942187 0.530772
vt 0.911698 0.459359
vt 0.835796 0.343815
vt 0.911698 0.459359
vt 0.913214 0.228854
vt 0.153203 0.445717
vt 0.913214 0.228854
vt 0.139445 0.250716
vt 0.961717 0.344107
vt 0.853052 0.054840
vt 0.906452 0.124446
vt 0.167311 0.344107
vt 0.748993 0.112436
vt 0.650763 0.056005
vt 0.582265 0.119898
vt 0.631584 0.176679
vt 0.832707 0.178428
vt 1.853652 0.183733
vt 1.655678 0.179536
vt 1.863096 0.063584
vt 0.158450 0.626669
vt 0.059521 0.666544
vt 0.158450 0.666544
vt 0.059521 0.637221
vt 0.059521 0.580732
vt 1.746270 0.108123
vt 0.197450 0.288492
vt 0.158450 0.580732
vt 0.059521 0.530772
vt 0.850545 0.274093
vt 0.835796 0.343815
vt 0.454479 0.344107
vt 0.167311 0.344107
vt 0.059521 0.298402
vt 0.059521 0.222792
vt 0.158450 0.222792
vt 0.059521 0.388878
vt 0.056548 0.344107
vt 0.850545 0.274093
vt 0.059521 0.473175
vt 0.158450 0.388878
vt 0.158450 0.298402
vt 0.158450 0.530772
vt 1.910200 0.118558
vt 1.657252 0.056938
vt 1.580125 0.111853
vt 0.153203 0.445717
vt 0.209284 0.407883
vn -0.078368 0.503408 -0.860488
vn -0.063748 0.494406 0.866891
vn -0.859132 0.382016 -0.340522
vn -0.040943 -0.559750 -0.827650
vn 0.966834 0.214465 -0.138694
vn -0.021018 0.557059 0.830207
vn -0.028710 -0.799289 -0.600260
vn 0.004944 -0.952524 0.304424
vn 0.011479 -0.505531 0.862732
vn 0.928177 0.370844 -0.031025
vn 0.988722 0.145970 -0.033495
vn -0.089325 -0.019378 -0.995814
vn 0.927944 0.371314 -0.032355
vn -0.050093 0.288308 -0.956227
vn -0.005073 0.122316 0.992478
vn -0.013727 0.048643 0.998722
vn 0.973930 0.224425 -0.033080
vn 0.954475 -0.268782 0.129358
vn 0.950489 0.055661 0.305734
vn 0.931839 0.018009 -0.362426
vn 0.922925 0.356203 0.146047
vn 0.921648 0.341068 -0.185032
vn -0.886146 -0.060327 -0.459462
vn -0.845586 -0.484407 -0.224354
vn -0.998828 -0.038315 0.029564
vn -0.265527 -0.545700 -0.794800
vn -0.053384 -0.559424 -0.827161
vn -0.893137 0.401595 -0.202555
vn -0.262369 -0.850763 -0.455374
vn -0.238930 -0.937559 0.252776
vn -0.017340 -0.767354 0.640989
vn -0.231501 -0.493395 0.838432
vn -0.016559 -0.506520 0.862069
vn -0.866368 0.417349 0.274274
vn -0.091980 0.873825 0.477462
vn -0.247479 0.528375 0.812142
vn -0.746525 0.424103 0.512677
vn -0.511997 0.858216 -0.036386
vn -0.143550 0.427839 -0.892383
vn -0.012455 0.639793 0.768446
vn 0.017356 0.999849 -0.000588
vn -0.064743 0.997900 0.002192
vn -0.833457 0.355362 0.423164
vn -0.946445 0.321287 0.031867
vn -0.318591 0.471769 -0.822152
vn -0.316026 0.918842 -0.236340
vn -0.101102 0.951894 -0.289269
vn -0.091797 0.502425 -0.859734
vn -0.090510 0.550662 -0.829807
vn 0.969207 0.232341 0.081586
vn -0.046669 0.877712 0.476911
vn -0.082649 0.793543 -0.602875
vn -0.285791 0.833145 0.473490
vn -0.033766 0.556847 0.829928
vn -0.043770 -0.946426 -0.319942
vn -0.862866 -0.007089 0.505383
vn -0.849529 -0.463664 0.251625
vn 0.936756 -0.285516 -0.202409
vn 0.998796 0.038989 -0.029779
vn -0.091797 0.502425 -0.859734
vn -0.833457 0.355362 0.423164
vn -0.046720 0.877632 0.477053
vn -0.078368 0.503408 -0.860488
vn -0.090670 0.550640 -0.829804
vn -0.082649 0.793543 -0.602875
vn -0.040943 -0.559750 -0.827650
vn 0.966865 0.214396 -0.138586
vn -0.021210 0.557049 0.830209
vn -0.028721 -0.799132 -0.600469
vn 0.005017 -0.952524 0.304423
vn 0.011479 -0.505531 0.862732
vn 0.928197 0.370794 -0.031026
vn 0.988722 0.145970 -0.033495
vn -0.089437 -0.020362 -0.995784
vn 0.927964 0.371262 -0.032356
vn -0.050093 0.288308 -0.956227
vn -0.013612 0.049628 0.998675
vn -0.005073 0.122316 0.992478
vn 0.973934 0.224405 -0.033080
vn 0.936752 -0.285453 -0.202517
vn 0.931839 0.018009 -0.362426
vn -0.511997 0.858216 -0.036386
vn 0.998795 0.038999 -0.029784
vn 0.954434 -0.268898 0.129418
vn 0.950502 0.055453 0.305730
vn 0.922925 0.356203 0.146047
vn 0.921648 0.341068 -0.185032
vn -0.866368 0.417349 0.274274
vn -0.893137 0.401595 -0.202555
vn -0.849529 -0.463664 0.251625
vn -0.043789 -0.946384 -0.320063
vn -0.265527 -0.545700 -0.794800
vn -0.053384 -0.559424 -0.827161
vn -0.262369 -0.850763 -0.455374
vn -0.238930 -0.937559 0.252776
vn -0.998828 -0.038315 0.029564
vn -0.063608 0.494642 0.866766
vn -0.017282 -0.767332 0.641017
vn -0.230785 -0.492876 0.838935
vn -0.012307 0.639809 0.768435
vn 0.017356 0.999849 -0.000588
vn -0.064743 0.997900 0.002192
vn -0.746525 0.424103 0.512677
vn -0.285791 0.833145 0.473490
vn -0.246758 0.527987 0.812613
vn -0.033759 0.556398 0.830230
vn -0.316026 0.918842 -0.236340
vn -0.946445 0.321287 0.031867
vn 0.969189 0.232392 0.081656
vn -0.318591 0.471769 -0.822152
vn -0.101102 0.951894 -0.289269
vn -0.091910 0.873673 0.477754
vn -0.016615 -0.505435 0.862705
vn -0.862866 -0.007089 0.505383
vn -0.845586 -0.484407 -0.224354
vn -0.886146 -0.060327 -0.459462
vn -0.859132 0.382016 -0.340522
vn -0.143703 0.427575 -0.892485
f 37/37/37 43/43/43 2/2/2
f 7/7/7 27/27/27 4/4/4
f 55/55/55 27/27/27 7/7/7
f 55/55/55 26/26/26 27/27/27
f 29/29/29 26/26/26 55/55/55
f 29/29/29 55/55/55 30/30/30
f 30/30/30 55/55/55 31/31/31
f 30/30/30 31/31/31 32/32/32
f 32/32/32 31/31/31 33/33/33
f 8/8/8 55/55/55 7/7/7
f 31/31/31 55/55/55 8/8/8
f 9/9/9 31/31/31 8/8/8
f 33/33/33 31/31/31 9/9/9
f 51/51/51 54/54/54 6/6/6
f 35/35/35 54/54/54 51/51/51
f 35/35/35 36/36/36 54/54/54
f 53/53/53 36/36/36 35/35/35
f 53/53/53 35/35/35 46/46/46
f 46/46/46 35/35/35 47/47/47
f 46/46/46 47/47/47 45/45/45
f 45/45/45 47/47/47 48/48/48
f 35/35/35 51/51/51 47/47/47
f 47/47/47 51/51/51 52/52/52
f 47/47/47 52/52/52 48/48/48
f 48/48/48 52/52/52 1/1/1
f 10/10/10 5/5/5 17/17/17
f 17/17/17 5/5/5 11/11/11
f 50/50/50 17/17/17 11/11/11
f 13/13/13 17/17/17 50/50/50
f 15/15/15 16/16/16 2/2/2
f 2/2/2 16/16/16 40/40/40
f 40/40/40 42/42/42 2/2/2
f 2/2/2 42/42/42 38/38/38
f 38/38/38 42/42/42 39/39/39
f 3/3/3 38/38/38 39/39/39
f 38/38/38 3/3/3 44/44/44
f 43/43/43 38/38/38 44/44/44
f 40/40/40 41/41/41 42/42/42
f 41/41/41 49/49/49 42/42/42
f 39/39/39 42/42/42 49/49/49
f 49/49/49 12/12/12 39/39/39
f 39/39/39 12/12/12 14/14/14
f 28/28/28 23/23/23 25/25/25
f 23/23/23 24/24/24 25/25/25
f 24/24/24 57/57/57 25/25/25
f 57/57/57 56/56/56 25/25/25
f 56/56/56 34/34/34 25/25/25
f 34/34/34 28/28/28 25/25/25
f 20/20/20 22/22/22 59/59/59
f 22/22/22 21/21/21 59/59/59
f 21/21/21 19/19/19 59/59/59
f 19/19/19 18/18/18 59/59/59
f 18/18/18 58/58/58 59/59/59
f 58/58/58 20/20/20 59/59/59
f 103/103/103 61/61/61 97/97/97
f 69/69/69 93/93/93 66/66/66
f 91/91/91 93/93/93 69/69/69
f 91/91/91 92/92/92 93/93/93
f 94/94/94 92/92/92 91/91/91
f 94/94/94 91/91/91 95/95/95
f 95/95/95 91/91/91 98/98/98
f 95/95/95 98/98/98 99/99/99
f 99/99/99 98/98/98 113/113/113
f 70/70/70 91/91/91 69/69/69
f 98/98/98 91/91/91 70/70/70
f 71/71/71 98/98/98 70/70/70
f 113/113/113 98/98/98 71/71/71
f 62/62/62 106/106/106 68/68/68
f 112/112/112 106/106/106 62/62/62
f 112/112/112 105/105/105 106/106/106
f 104/104/104 105/105/105 112/112/112
f 104/104/104 112/112/112 107/107/107
f 107/107/107 112/112/112 111/111/111
f 107/107/107 111/111/111 110/110/110
f 110/110/110 111/111/111 60/60/60
f 112/112/112 62/62/62 111/111/111
f 111/111/111 62/62/62 65/65/65
f 111/111/111 65/65/65 60/60/60
f 60/60/60 65/65/65 63/63/63
f 72/72/72 67/67/67 79/79/79
f 79/79/79 67/67/67 73/73/73
f 109/109/109 79/79/79 73/73/73
f 75/75/75 79/79/79 109/109/109
f 78/78/78 77/77/77 97/97/97
f 97/97/97 77/77/77 100/100/100
f 100/100/100 102/102/102 97/97/97
f 97/97/97 102/102/102 82/82/82
f 82/82/82 102/102/102 118/118/118
f 117/117/117 82/82/82 118/118/118
f 82/82/82 117/117/117 108/108/108
f 61/61/61 82/82/82 108/108/108
f 100/100/100 101/101/101 102/102/102
f 101/101/101 64/64/64 102/102/102
f 118/118/118 102/102/102 64/64/64
f 64/64/64 74/74/74 118/118/118
f 118/118/118 74/74/74 76/76/76
f 89/89/89 116/116/116 96/96/96
f 116/116/116 115/115/115 96/96/96
f 115/115/115 90/90/90 96/96/96
f 90/90/90 114/114/114 96/96/96
f 114/114/114 88/88/88 96/96/96
f 88/88/88 89/89/89 96/96/96
f 81/81/81 87/87/87 83/83/83
f 87/87/87 86/86/86 83/83/83
f 86/86/86 85/85/85 83/83/83
f 85/85/85 84/84/84 83/83/83
f 84/84/84 80/80/80 83/83/83
f 80/80/80 81/81/81 83/83/83
