# Exported by s4extract — object_Food_PlateFork_Multi_lod00_g02
o object_Food_PlateFork_Multi_lod00_g02
v 0.059359 0.039735 0.114902
v 0.192053 0.039735 0.000000
v 0.182653 0.039735 -0.038057
v 0.082888 0.000000 -0.053163
v -0.155370 0.039735 0.072024
v 0.112888 0.039735 -0.099612
v -0.182653 0.039735 0.038057
v -0.192053 0.039735 0.000000
v 0.059359 0.039735 -0.117100
v -0.112888 0.039735 -0.099612
v -0.111148 0.041963 0.097873
v 0.111148 0.041963 0.098086
v -0.082888 0.000000 -0.053163
v 0.112888 0.039735 0.099612
v 0.152989 0.041963 0.071261
v 0.155370 0.039735 0.072390
v -0.112888 0.039735 -0.099612
v -0.182653 0.039735 -0.038057
v -0.114841 0.000000 0.000000
v -0.155370 0.039735 -0.072390
v 0.192053 0.039735 0.000000
v 0.155370 0.039735 -0.072390
v 0.000000 0.039735 0.123142
v -0.112888 0.039735 0.099551
v 0.082369 0.007538 -0.052797
v -0.152989 0.041963 -0.071261
v -0.082369 0.007538 -0.052797
v -0.114841 0.007538 0.000000
v 0.182653 0.039735 -0.038057
v -0.192053 0.039735 0.000000
v -0.182653 0.039735 0.038057
v -0.189093 0.041963 0.000000
v -0.058443 0.041963 -0.115299
v 0.000000 0.041963 -0.121250
v -0.179846 0.041963 0.037477
v -0.179846 0.041963 -0.037477
v -0.179846 0.041963 0.037477
v -0.189093 0.041963 0.000000
v -0.152989 0.041963 0.070406
v 0.179846 0.041963 0.037477
v -0.082369 0.007538 0.052797
v 0.058443 0.041963 -0.115299
v 0.082369 0.007538 0.052797
v 0.000000 0.041963 -0.121250
v -0.059359 0.039735 -0.117100
v 0.058443 0.041963 0.112278
v 0.111148 0.041963 0.098086
v -0.082888 0.000000 0.053163
v 0.082888 0.000000 0.053163
v 0.152989 0.041963 0.071261
v 0.179846 0.041963 -0.037477
v 0.152989 0.041963 -0.071261
v 0.114841 0.007538 0.000000
v -0.152989 0.041963 0.070406
v -0.155370 0.039735 0.072024
v -0.179846 0.041963 -0.037477
v -0.155370 0.039735 -0.072390
v -0.182653 0.039735 -0.038057
v -0.152989 0.041963 -0.071261
v 0.000000 0.000000 -0.073611
v 0.189093 0.041963 0.000000
v 0.179846 0.041963 -0.037477
v 0.179846 0.041963 0.037477
v 0.058443 0.041963 0.112278
v 0.058443 0.041963 -0.115299
v 0.182653 0.039735 0.038057
v 0.155370 0.039735 0.072390
v 0.112888 0.039735 0.099612
v 0.059359 0.039735 0.114902
v -0.112888 0.039735 0.099551
v -0.059359 0.039735 0.117100
v -0.111148 0.041963 -0.098086
v 0.000000 0.000000 0.073611
v -0.111148 0.041963 -0.098086
v 0.189093 0.041963 0.000000
v 0.000000 0.007538 -0.073611
v 0.182653 0.039735 0.038057
v -0.058443 0.041963 -0.115299
v 0.000000 0.039735 0.123142
v 0.000000 0.041963 0.121250
v -0.058443 0.041963 0.115299
v -0.059359 0.039735 0.117100
v 0.155370 0.039735 -0.072390
v 0.111148 0.041963 -0.098086
v 0.059359 0.039735 -0.117100
v 0.000000 0.039735 -0.123142
v 0.000000 0.007538 0.073611
v 0.000000 0.041963 0.121250
v -0.058443 0.041963 0.115299
v 0.114841 0.000000 0.000000
v 0.000000 0.039735 -0.123142
v -0.059359 0.039735 -0.117100
v 0.111148 0.041963 -0.098086
v -0.111148 0.041963 0.097873
v 0.112888 0.039735 -0.099612
v 0.152989 0.041963 -0.071261
v 0.132511 0.041963 -0.033876
v 0.112735 0.041963 0.064455
v -0.112735 0.041963 0.063692
v -0.060701 0.007538 0.047761
v 0.134587 0.039735 -0.034425
v -0.134587 0.039735 -0.034425
v 0.114505 0.039735 -0.065462
v -0.134587 0.039735 0.034425
v -0.141514 0.039735 0.000000
v 0.061098 0.000000 -0.048067
v -0.083193 0.039735 -0.090121
v -0.081912 0.041963 0.088534
v 0.081912 0.041963 0.088717
v 0.083193 0.039735 -0.090121
v 0.083193 0.039735 0.090121
v 0.112735 0.041963 0.064455
v 0.114505 0.039735 0.065462
v 0.043733 0.039735 -0.105930
v -0.114505 0.039735 -0.065462
v -0.083193 0.039735 -0.090121
v -0.061098 0.000000 -0.048067
v 0.114505 0.039735 0.065462
v 0.141514 0.039735 0.000000
v 0.000000 0.039735 0.111393
v -0.083193 0.039735 0.090060
v -0.084597 0.000000 0.000000
v -0.083193 0.039735 0.090060
v -0.081912 0.041963 -0.088717
v -0.114505 0.039735 0.065157
v 0.134587 0.039735 0.034425
v 0.000000 0.041963 -0.109684
v 0.000000 0.039735 -0.111393
v 0.043062 0.041963 -0.104312
v -0.061098 0.000000 0.048067
v 0.000000 0.000000 0.066591
v 0.084597 0.000000 0.000000
v -0.043733 0.039735 0.105930
v 0.043733 0.039735 -0.105930
v 0.043733 0.039735 0.103916
v 0.083193 0.039735 0.090121
v -0.043733 0.039735 -0.105930
v 0.000000 0.039735 -0.111393
v 0.000000 0.041963 0.109684
v 0.043062 0.041963 0.101535
v 0.043733 0.039735 0.103916
v 0.132511 0.041963 0.033876
v 0.134587 0.039735 0.034425
v 0.139348 0.041963 0.000000
v 0.043062 0.041963 -0.104312
v 0.000000 0.007538 -0.066591
v 0.000000 0.041963 -0.109684
v -0.043062 0.041963 -0.104312
v -0.081912 0.041963 -0.088717
v -0.132511 0.041963 0.033876
v -0.112735 0.041963 0.063692
v -0.114505 0.039735 0.065157
v -0.132511 0.041963 -0.033876
v -0.114505 0.039735 -0.065462
v -0.134587 0.039735 -0.034425
v -0.112735 0.041963 -0.064455
v -0.043733 0.039735 -0.105930
v 0.043062 0.041963 0.101535
v 0.000000 0.000000 -0.066591
v 0.139348 0.041963 0.000000
v 0.112735 0.041963 -0.064455
v 0.132511 0.041963 0.033876
v 0.083193 0.039735 -0.090121
v 0.114505 0.039735 -0.065462
v -0.132511 0.041963 0.033876
v -0.139348 0.041963 0.000000
v -0.132511 0.041963 -0.033876
v -0.084597 0.007538 0.000000
v -0.112735 0.041963 -0.064455
v 0.060701 0.007538 0.047761
v -0.060701 0.007538 -0.047761
v 0.061098 0.000000 0.048067
v -0.043062 0.041963 0.104312
v 0.000000 0.041963 0.109684
v 0.000000 0.007538 0.066591
v 0.081912 0.041963 0.088717
v 0.084597 0.007538 0.000000
v 0.060701 0.007538 -0.047761
v -0.141514 0.039735 0.000000
v 0.112735 0.041963 -0.064455
v 0.000000 0.039735 0.111393
v -0.043062 0.041963 0.104312
v 0.141514 0.039735 0.000000
v 0.134587 0.039735 -0.034425
v 0.132511 0.041963 -0.033876
v 0.081912 0.041963 -0.088717
v -0.043733 0.039735 0.105930
v -0.043062 0.041963 -0.104312
v 0.081912 0.041963 -0.088717
v -0.134587 0.039735 0.034425
v -0.139348 0.041963 0.000000
v -0.081912 0.041963 0.088534
vt 0.658095 0.027490
vt 0.995722 0.500009
vt 0.978777 0.653551
vt 0.720127 0.711140
vt 0.099633 0.207985
vt 0.797338 0.901979
vt 0.028688 0.346468
vt 0.004259 0.500009
vt 0.658095 0.972559
vt 0.210157 0.901979
vt 0.214660 0.104245
vt 0.792806 0.104245
vt 0.287339 0.711201
vt 0.797338 0.098070
vt 0.901596 0.212458
vt 0.907832 0.207985
vt 0.210157 0.901979
vt 0.028688 0.653551
vt 0.204012 0.500040
vt 0.099633 0.792063
vt 0.995722 0.500009
vt 0.907832 0.792063
vt 0.503733 0.003152
vt 0.210157 0.098070
vt 0.717967 0.713087
vt 0.105870 0.787561
vt 0.289529 0.713087
vt 0.205107 0.500009
vt 0.978777 0.653551
vt 0.004259 0.500009
vt 0.028688 0.346468
vt 0.011926 0.500009
vt 0.351773 0.965288
vt 0.503733 0.989231
vt 0.036020 0.348841
vt 0.036020 0.651178
vt 0.036020 0.348841
vt 0.011926 0.500009
vt 0.105870 0.212458
vt 0.971476 0.348841
vt 0.289529 0.286931
vt 0.655723 0.965288
vt 0.717967 0.286931
vt 0.503733 0.989231
vt 0.349400 0.972559
vt 0.655723 0.034761
vt 0.792806 0.104245
vt 0.287369 0.288878
vt 0.720157 0.288818
vt 0.901596 0.212458
vt 0.971476 0.651178
vt 0.901596 0.787561
vt 0.802358 0.500009
vt 0.105870 0.212458
vt 0.099633 0.207985
vt 0.036020 0.651178
vt 0.099633 0.792063
vt 0.028688 0.653551
vt 0.105870 0.787561
vt 0.503733 0.792489
vt 0.988025 0.500009
vt 0.971476 0.651178
vt 0.971476 0.348841
vt 0.655723 0.034761
vt 0.655723 0.965288
vt 0.978777 0.346468
vt 0.907832 0.207985
vt 0.797338 0.098070
vt 0.658095 0.027490
vt 0.210157 0.098070
vt 0.349400 0.027490
vt 0.214660 0.895773
vt 0.503763 0.207529
vt 0.214660 0.895773
vt 0.988025 0.500009
vt 0.503733 0.797053
vt 0.978777 0.346468
vt 0.351773 0.965288
vt 0.503733 0.003152
vt 0.503733 0.010818
vt 0.351773 0.034761
vt 0.349400 0.027490
vt 0.907832 0.792063
vt 0.792806 0.895773
vt 0.658095 0.972559
vt 0.503733 0.996867
vt 0.503733 0.202966
vt 0.503733 0.010818
vt 0.351773 0.034761
vt 0.803484 0.499979
vt 0.503733 0.996867
vt 0.349400 0.972559
vt 0.792806 0.895773
vt 0.214660 0.104245
vt 0.797338 0.901979
vt 0.901596 0.787561
vt 0.971476 0.651178
vt 0.901596 0.212458
vt 0.105870 0.212458
vt 0.289529 0.286931
vt 0.978777 0.653551
vt 0.028688 0.653551
vt 0.907832 0.792063
vt 0.028688 0.346468
vt 0.004259 0.500009
vt 0.717054 0.714669
vt 0.210157 0.901979
vt 0.214660 0.104245
vt 0.792806 0.104245
vt 0.797338 0.901979
vt 0.797338 0.098070
vt 0.901596 0.212458
vt 0.907832 0.207985
vt 0.658095 0.972559
vt 0.099633 0.792063
vt 0.210157 0.901979
vt 0.290381 0.714700
vt 0.907832 0.207985
vt 0.995722 0.500009
vt 0.503733 0.003152
vt 0.210157 0.098070
vt 0.208241 0.500040
vt 0.210157 0.098070
vt 0.214660 0.895773
vt 0.099633 0.207985
vt 0.978777 0.346468
vt 0.503733 0.989231
vt 0.503733 0.996867
vt 0.655723 0.965288
vt 0.290411 0.285380
vt 0.503763 0.202692
vt 0.799225 0.499979
vt 0.349400 0.027490
vt 0.658095 0.972559
vt 0.658095 0.027490
vt 0.797338 0.098070
vt 0.349400 0.972559
vt 0.503733 0.996867
vt 0.503733 0.010818
vt 0.655723 0.034761
vt 0.658095 0.027490
vt 0.971476 0.348841
vt 0.978777 0.346468
vt 0.988025 0.500009
vt 0.655723 0.965288
vt 0.503733 0.797053
vt 0.503733 0.989231
vt 0.351773 0.965288
vt 0.214660 0.895773
vt 0.036020 0.348841
vt 0.105870 0.212458
vt 0.099633 0.207985
vt 0.036020 0.651178
vt 0.099633 0.792063
vt 0.028688 0.653551
vt 0.105870 0.787561
vt 0.349400 0.972559
vt 0.655723 0.034761
vt 0.503733 0.797327
vt 0.988025 0.500009
vt 0.901596 0.787561
vt 0.971476 0.348841
vt 0.797338 0.901979
vt 0.907832 0.792063
vt 0.036020 0.348841
vt 0.011926 0.500009
vt 0.036020 0.651178
vt 0.205107 0.500009
vt 0.105870 0.787561
vt 0.717967 0.286931
vt 0.289529 0.713087
vt 0.717084 0.285349
vt 0.351773 0.034761
vt 0.503733 0.010818
vt 0.503733 0.202966
vt 0.792806 0.104245
vt 0.802358 0.500009
vt 0.717967 0.713087
vt 0.004259 0.500009
vt 0.901596 0.787561
vt 0.503733 0.003152
vt 0.351773 0.034761
vt 0.995722 0.500009
vt 0.978777 0.653551
vt 0.971476 0.651178
vt 0.792806 0.895773
vt 0.349400 0.027490
vt 0.351773 0.965288
vt 0.792806 0.895773
vt 0.028688 0.346468
vt 0.011926 0.500009
vt 0.214660 0.104245
vn 0.148086 0.745286 0.650092
vn 0.601317 0.799010 0.000000
vn 0.572303 0.784364 -0.239254
vn 0.162502 -0.943256 -0.289587
vn -0.372826 -0.866951 0.330751
vn 0.247890 -0.809431 -0.532328
vn -0.405725 -0.890329 0.206645
vn -0.457586 -0.889165 0.000000
vn 0.130408 -0.803715 -0.580548
vn -0.330732 0.696003 -0.637336
vn -0.278135 0.698276 0.659585
vn 0.245285 0.723701 0.645052
vn -0.115651 -0.971673 -0.206096
vn 0.323431 0.694205 0.643018
vn 0.425772 0.726811 0.538947
vn 0.470072 0.743023 0.476392
vn -0.247890 -0.809431 -0.532328
vn -0.406175 -0.890313 -0.205827
vn -0.211990 -0.977272 0.000000
vn -0.372206 -0.867495 -0.330024
vn 0.457586 -0.889165 0.000000
vn 0.372206 -0.867495 -0.330024
vn 0.011581 -0.779972 0.625708
vn -0.317385 0.731784 0.603124
vn -0.145126 0.955104 0.258291
vn 0.340625 0.889741 0.303867
vn 0.102139 0.978020 0.181784
vn 0.186673 0.982422 -0.000000
vn 0.406175 -0.890313 -0.205827
vn -0.601317 0.799010 0.000000
vn -0.572098 0.784295 0.239969
vn -0.601930 0.798549 0.000000
vn 0.122349 0.833769 0.538387
vn 0.000000 0.810529 0.585699
vn -0.530569 0.784010 0.322220
vn 0.372431 0.908676 0.188688
vn 0.371428 0.908716 -0.190464
vn 0.420618 0.907238 0.000000
vn 0.342016 0.888585 -0.305684
vn -0.372431 0.908676 -0.188688
vn 0.102932 0.977920 -0.181875
vn 0.127642 0.654533 -0.745180
vn -0.143120 0.954551 -0.261435
vn -0.000000 0.647345 -0.762197
vn -0.179157 0.661568 -0.728170
vn -0.125167 0.825207 -0.550787
vn -0.216783 0.838634 -0.499698
vn -0.116022 -0.971624 0.206120
vn 0.160864 -0.942765 0.292091
vn -0.340625 0.889741 -0.303867
vn -0.372431 0.908676 0.188688
vn -0.340625 0.889741 0.303867
vn -0.135883 0.990725 -0.000000
vn -0.400129 0.764134 0.505960
vn -0.443025 0.773445 0.453334
vn -0.544679 0.772282 -0.326965
vn -0.470072 0.743023 -0.476392
vn -0.572303 0.784364 -0.239254
vn -0.425772 0.726811 -0.538947
vn 0.000000 -0.858287 -0.513169
vn -0.420618 0.907238 0.000000
vn 0.544679 0.772282 -0.326965
vn 0.544679 0.772282 0.326965
vn 0.121785 0.740226 0.661236
vn -0.122349 0.833769 0.538387
vn 0.406175 -0.890313 0.205827
vn 0.372206 -0.867495 0.330024
vn 0.238184 -0.808645 0.537924
vn 0.132370 -0.797012 0.589279
vn -0.249649 -0.809269 0.531751
vn -0.130597 -0.803658 0.580584
vn 0.229365 0.839587 0.492428
vn 0.003992 -0.856080 0.516828
vn -0.280560 0.682159 -0.675237
vn 0.601930 0.798549 0.000000
vn -0.000000 0.883630 0.468185
vn 0.572303 0.784364 0.239254
vn -0.127642 0.654533 -0.745180
vn 0.016083 0.687402 0.726099
vn 0.019698 0.647220 0.762049
vn -0.128528 0.654674 0.744904
vn -0.178340 0.670672 0.719996
vn 0.470072 0.743023 -0.476392
vn -0.229365 0.839587 0.492428
vn 0.179157 0.661568 -0.728170
vn -0.000000 0.647510 -0.762057
vn -0.005077 0.880942 -0.473197
vn -0.015138 0.810436 -0.585632
vn 0.122977 0.833582 -0.538533
vn 0.155003 -0.987914 0.000000
vn 0.000000 -0.780024 -0.625749
vn -0.130408 -0.803715 -0.580548
vn 0.280560 0.682159 -0.675237
vn 0.233445 0.838920 -0.491647
vn 0.330732 0.696003 -0.637336
vn 0.425772 0.726811 -0.538947
vn -0.476528 0.856861 0.196748
vn -0.437291 0.841410 -0.317498
vn 0.438860 0.839946 -0.319206
vn 0.138586 0.970065 -0.199418
vn 0.514337 -0.830918 -0.212209
vn -0.514337 -0.830918 -0.212209
vn 0.472985 -0.812245 -0.341384
vn -0.513861 -0.831009 0.213005
vn -0.572429 -0.819954 0.000000
vn 0.216146 -0.924600 -0.313682
vn -0.411608 0.642818 -0.646037
vn -0.350155 0.647899 0.676475
vn 0.309935 0.679630 0.664863
vn 0.318589 -0.766851 -0.557171
vn 0.402808 0.641834 0.652529
vn 0.523042 0.660310 0.538904
vn 0.572905 0.669655 0.472591
vn 0.169582 -0.770183 -0.614866
vn -0.472985 -0.812245 -0.341384
vn -0.318589 -0.766851 -0.557171
vn -0.155389 -0.961769 -0.225509
vn 0.472985 -0.812245 0.341384
vn 0.572429 -0.819954 0.000000
vn 0.015279 -0.748053 0.663464
vn -0.398162 0.679258 0.616503
vn -0.282464 -0.959278 -0.000000
vn -0.320628 -0.766461 0.556539
vn -0.351648 0.633286 -0.689414
vn -0.473604 -0.811611 0.342032
vn 0.514337 -0.830918 0.212209
vn 0.000000 0.608660 -0.793431
vn 0.000000 0.607790 -0.794098
vn 0.162804 0.611924 -0.773979
vn -0.155847 -0.961690 0.225531
vn 0.005332 -0.831834 0.554999
vn 0.208275 -0.978070 -0.000000
vn -0.169850 -0.770102 0.614893
vn 0.227299 0.618179 -0.752456
vn 0.171951 -0.762718 0.623454
vn 0.306322 -0.767022 0.563777
vn -0.169582 -0.770183 -0.614866
vn 0.000000 -0.748140 -0.663541
vn 0.059002 0.661988 0.747189
vn 0.165985 0.742917 0.648478
vn 0.180587 0.684897 0.705907
vn 0.653274 0.686436 0.319434
vn 0.683368 0.691953 0.232828
vn 0.715321 0.698796 0.000000
vn -0.160029 0.803439 0.573478
vn 0.000000 0.862905 0.505367
vn 0.000000 0.781300 0.624155
vn 0.160029 0.803439 0.573478
vn 0.297174 0.801139 0.519485
vn -0.639359 0.700899 0.316166
vn -0.496392 0.701726 0.511053
vn -0.544713 0.705318 0.453668
vn -0.653274 0.686436 -0.319434
vn -0.572905 0.669655 -0.472591
vn -0.683368 0.691953 -0.232828
vn -0.523042 0.660310 -0.538904
vn -0.227299 0.618179 -0.752456
vn -0.163499 0.793710 -0.585912
vn 0.000000 -0.834346 -0.551242
vn -0.532288 0.846564 0.000000
vn -0.437291 0.841410 0.317498
vn -0.476528 0.856861 -0.196748
vn 0.411608 0.642818 -0.646037
vn 0.572905 0.669655 -0.472591
vn 0.475362 0.857078 -0.198618
vn 0.532288 0.846564 0.000000
vn 0.476528 0.856861 0.196748
vn 0.249735 0.968314 0.000000
vn 0.437291 0.841410 0.317498
vn -0.191144 0.939446 -0.284437
vn 0.137545 0.970230 0.199337
vn 0.213950 -0.924167 0.316450
vn 0.160795 0.803210 -0.573584
vn -0.020123 0.781142 -0.624029
vn -0.006833 0.859791 -0.510600
vn -0.281022 0.801371 -0.528045
vn -0.182998 0.983113 -0.000000
vn -0.193854 0.939942 0.280944
vn -0.716859 0.697219 0.000000
vn 0.523042 0.660310 -0.538904
vn -0.020413 0.607955 0.793709
vn -0.163868 0.612024 0.773676
vn 0.716859 0.697219 0.000000
vn 0.683368 0.691953 -0.232828
vn 0.653274 0.686436 -0.319434
vn -0.297174 0.801139 0.519485
vn -0.226766 0.626438 0.745756
vn -0.162804 0.611924 -0.773979
vn 0.351648 0.633286 -0.689414
vn -0.683173 0.691926 0.233479
vn -0.715321 0.698796 -0.000000
vn 0.302168 0.800042 -0.518294
f 63/63/63 16/16/16 77/77/77
f 15/15/15 16/16/16 63/63/63
f 15/15/15 14/14/14 16/16/16
f 12/12/12 14/14/14 15/15/15
f 12/12/12 1/1/1 14/14/14
f 64/64/64 1/1/1 12/12/12
f 1/1/1 64/64/64 79/79/79
f 63/63/63 77/77/77 75/75/75
f 75/75/75 77/77/77 2/2/2
f 2/2/2 3/3/3 75/75/75
f 75/75/75 3/3/3 62/62/62
f 83/83/83 62/62/62 3/3/3
f 96/96/96 62/62/62 83/83/83
f 83/83/83 95/95/95 96/96/96
f 96/96/96 95/95/95 93/93/93
f 95/95/95 85/85/85 93/93/93
f 93/93/93 85/85/85 42/42/42
f 85/85/85 86/86/86 42/42/42
f 42/42/42 86/86/86 44/44/44
f 86/86/86 78/78/78 44/44/44
f 45/45/45 78/78/78 86/86/86
f 78/78/78 45/45/45 74/74/74
f 74/74/74 45/45/45 10/10/10
f 74/74/74 10/10/10 59/59/59
f 59/59/59 10/10/10 57/57/57
f 59/59/59 57/57/57 56/56/56
f 56/56/56 57/57/57 58/58/58
f 56/56/56 58/58/58 32/32/32
f 32/32/32 58/58/58 30/30/30
f 31/31/31 32/32/32 30/30/30
f 35/35/35 32/32/32 31/31/31
f 55/55/55 35/35/35 31/31/31
f 54/54/54 35/35/35 55/55/55
f 24/24/24 54/54/54 55/55/55
f 11/11/11 54/54/54 24/24/24
f 24/24/24 82/82/82 11/11/11
f 11/11/11 82/82/82 81/81/81
f 82/82/82 79/79/79 81/81/81
f 81/81/81 79/79/79 80/80/80
f 79/79/79 64/64/64 80/80/80
f 19/19/19 8/8/8 18/18/18
f 19/19/19 7/7/7 8/8/8
f 7/7/7 19/19/19 5/5/5
f 5/5/5 19/19/19 48/48/48
f 48/48/48 70/70/70 5/5/5
f 48/48/48 71/71/71 70/70/70
f 20/20/20 19/19/19 18/18/18
f 13/13/13 19/19/19 20/20/20
f 19/19/19 13/13/13 90/90/90
f 19/19/19 90/90/90 48/48/48
f 48/48/48 90/90/90 49/49/49
f 48/48/48 49/49/49 73/73/73
f 73/73/73 71/71/71 48/48/48
f 73/73/73 23/23/23 71/71/71
f 73/73/73 69/69/69 23/23/23
f 13/13/13 20/20/20 17/17/17
f 92/92/92 13/13/13 17/17/17
f 60/60/60 13/13/13 92/92/92
f 4/4/4 13/13/13 60/60/60
f 90/90/90 13/13/13 4/4/4
f 60/60/60 92/92/92 91/91/91
f 60/60/60 91/91/91 9/9/9
f 60/60/60 9/9/9 4/4/4
f 4/4/4 9/9/9 6/6/6
f 4/4/4 6/6/6 22/22/22
f 22/22/22 90/90/90 4/4/4
f 29/29/29 90/90/90 22/22/22
f 90/90/90 29/29/29 21/21/21
f 90/90/90 21/21/21 66/66/66
f 67/67/67 90/90/90 66/66/66
f 49/49/49 90/90/90 67/67/67
f 49/49/49 67/67/67 68/68/68
f 69/69/69 49/49/49 68/68/68
f 73/73/73 49/49/49 69/69/69
f 39/39/39 94/94/94 41/41/41
f 94/94/94 89/89/89 41/41/41
f 41/41/41 89/89/89 87/87/87
f 43/43/43 41/41/41 87/87/87
f 43/43/43 53/53/53 41/41/41
f 41/41/41 53/53/53 28/28/28
f 28/28/28 39/39/39 41/41/41
f 37/37/37 39/39/39 28/28/28
f 38/38/38 37/37/37 28/28/28
f 36/36/36 38/38/38 28/28/28
f 89/89/89 88/88/88 87/87/87
f 88/88/88 46/46/46 87/87/87
f 46/46/46 43/43/43 87/87/87
f 47/47/47 43/43/43 46/46/46
f 47/47/47 50/50/50 43/43/43
f 43/43/43 50/50/50 53/53/53
f 53/53/53 50/50/50 40/40/40
f 40/40/40 61/61/61 53/53/53
f 61/61/61 51/51/51 53/53/53
f 51/51/51 52/52/52 53/53/53
f 53/53/53 52/52/52 25/25/25
f 25/25/25 27/27/27 53/53/53
f 53/53/53 27/27/27 28/28/28
f 27/27/27 26/26/26 28/28/28
f 28/28/28 26/26/26 36/36/36
f 52/52/52 84/84/84 25/25/25
f 84/84/84 65/65/65 25/25/25
f 25/25/25 65/65/65 76/76/76
f 27/27/27 25/25/25 76/76/76
f 33/33/33 27/27/27 76/76/76
f 72/72/72 27/27/27 33/33/33
f 72/72/72 26/26/26 27/27/27
f 65/65/65 34/34/34 76/76/76
f 34/34/34 33/33/33 76/76/76
f 159/159/159 138/138/138 114/114/114
f 159/159/159 137/137/137 138/138/138
f 159/159/159 117/117/117 137/137/137
f 137/137/137 117/117/117 116/116/116
f 117/117/117 115/115/115 116/116/116
f 117/117/117 122/122/122 115/115/115
f 115/115/115 122/122/122 102/102/102
f 159/159/159 114/114/114 106/106/106
f 106/106/106 117/117/117 159/159/159
f 132/132/132 117/117/117 106/106/106
f 122/122/122 117/117/117 132/132/132
f 122/122/122 132/132/132 130/130/130
f 125/125/125 122/122/122 130/130/130
f 104/104/104 122/122/122 125/125/125
f 122/122/122 104/104/104 105/105/105
f 122/122/122 105/105/105 102/102/102
f 106/106/106 114/114/114 110/110/110
f 106/106/106 110/110/110 103/103/103
f 103/103/103 132/132/132 106/106/106
f 101/101/101 132/132/132 103/103/103
f 132/132/132 101/101/101 119/119/119
f 132/132/132 119/119/119 126/126/126
f 118/118/118 132/132/132 126/126/126
f 172/172/172 132/132/132 118/118/118
f 130/130/130 132/132/132 172/172/172
f 130/130/130 172/172/172 131/131/131
f 131/131/131 133/133/133 130/130/130
f 130/130/130 133/133/133 123/123/123
f 130/130/130 123/123/123 125/125/125
f 172/172/172 118/118/118 136/136/136
f 135/135/135 172/172/172 136/136/136
f 131/131/131 172/172/172 135/135/135
f 131/131/131 135/135/135 120/120/120
f 131/131/131 120/120/120 133/133/133
f 153/153/153 154/154/154 155/155/155
f 156/156/156 154/154/154 153/153/153
f 156/156/156 107/107/107 154/154/154
f 124/124/124 107/107/107 156/156/156
f 124/124/124 157/157/157 107/107/107
f 188/188/188 157/157/157 124/124/124
f 157/157/157 188/188/188 128/128/128
f 153/153/153 155/155/155 191/191/191
f 191/191/191 155/155/155 179/179/179
f 190/190/190 191/191/191 179/179/179
f 150/150/150 191/191/191 190/190/190
f 152/152/152 150/150/150 190/190/190
f 151/151/151 150/150/150 152/152/152
f 121/121/121 151/151/151 152/152/152
f 108/108/108 151/151/151 121/121/121
f 121/121/121 187/187/187 108/108/108
f 108/108/108 187/187/187 182/182/182
f 187/187/187 181/181/181 182/182/182
f 182/182/182 181/181/181 139/139/139
f 181/181/181 141/141/141 139/139/139
f 139/139/139 141/141/141 140/140/140
f 140/140/140 141/141/141 109/109/109
f 109/109/109 141/141/141 111/111/111
f 109/109/109 111/111/111 112/112/112
f 112/112/112 111/111/111 113/113/113
f 112/112/112 113/113/113 142/142/142
f 142/142/142 113/113/113 143/143/143
f 142/142/142 143/143/143 144/144/144
f 144/144/144 143/143/143 183/183/183
f 183/183/183 184/184/184 144/144/144
f 144/144/144 184/184/184 185/185/185
f 164/164/164 185/185/185 184/184/184
f 180/180/180 185/185/185 164/164/164
f 164/164/164 163/163/163 180/180/180
f 180/180/180 163/163/163 189/189/189
f 163/163/163 134/134/134 189/189/189
f 189/189/189 134/134/134 129/129/129
f 134/134/134 128/128/128 129/129/129
f 129/129/129 128/128/128 127/127/127
f 128/128/128 188/188/188 127/127/127
f 99/99/99 192/192/192 100/100/100
f 192/192/192 173/173/173 100/100/100
f 100/100/100 173/173/173 175/175/175
f 170/170/170 100/100/100 175/175/175
f 170/170/170 177/177/177 100/100/100
f 100/100/100 177/177/177 168/168/168
f 168/168/168 99/99/99 100/100/100
f 165/165/165 99/99/99 168/168/168
f 166/166/166 165/165/165 168/168/168
f 167/167/167 166/166/166 168/168/168
f 173/173/173 174/174/174 175/175/175
f 174/174/174 158/158/158 175/175/175
f 158/158/158 170/170/170 175/175/175
f 176/176/176 170/170/170 158/158/158
f 176/176/176 98/98/98 170/170/170
f 170/170/170 98/98/98 177/177/177
f 177/177/177 98/98/98 162/162/162
f 162/162/162 160/160/160 177/177/177
f 160/160/160 97/97/97 177/177/177
f 97/97/97 161/161/161 177/177/177
f 177/177/177 161/161/161 178/178/178
f 178/178/178 171/171/171 177/177/177
f 177/177/177 171/171/171 168/168/168
f 171/171/171 169/169/169 168/168/168
f 168/168/168 169/169/169 167/167/167
f 161/161/161 186/186/186 178/178/178
f 186/186/186 145/145/145 178/178/178
f 178/178/178 145/145/145 146/146/146
f 171/171/171 178/178/178 146/146/146
f 148/148/148 171/171/171 146/146/146
f 149/149/149 171/171/171 148/148/148
f 149/149/149 169/169/169 171/171/171
f 145/145/145 147/147/147 146/146/146
f 147/147/147 148/148/148 146/146/146
