# Exported by s4extract — object_Food_PlateFork_Multi_lod00_g01
o object_Food_PlateFork_Multi_lod00_g01
v 0.076418 0.094363 0.019288
v 0.064180 0.118198 0.014771
v 0.033113 0.084811 -0.105869
v -0.070437 0.072024 -0.117344
v -0.047639 0.070376 -0.113956
v -0.059847 0.055818 -0.107425
v -0.078768 0.058687 -0.100375
v 0.071871 0.099704 0.113804
v -0.002930 0.065706 0.029756
v 0.013886 0.085421 0.020783
v -0.047639 0.070376 -0.113956
v -0.073244 0.090640 -0.106357
v -0.054323 0.087771 -0.113437
v -0.085452 0.076083 -0.099857
v -0.059847 0.055818 -0.107425
v -0.054323 0.087771 -0.113437
v -0.047639 0.070376 -0.113956
v 0.004578 0.109073 0.021577
v -0.021546 0.113041 0.031343
v -0.073244 0.090640 -0.106357
v 0.057649 0.091220 0.032197
v 0.080996 0.101321 0.111087
v 0.078249 0.091037 0.112918
v 0.112278 0.031465 -0.024567
v 0.071871 0.099704 0.113804
v -0.027741 0.024720 0.045686
v 0.112308 0.014283 -0.015198
v -0.092227 0.032594 -0.020661
v -0.116489 0.032594 0.036256
v -0.105228 0.017396 0.031190
v -0.092227 0.032594 -0.020661
v -0.029054 0.069674 0.039491
v -0.093478 0.011078 0.012452
v -0.104343 0.030732 0.007782
v -0.088076 0.017396 -0.009033
v 0.080996 0.101321 0.111087
v 0.059847 0.068331 -0.084292
v 0.028840 0.051454 -0.082156
v 0.036134 0.068178 -0.076296
v -0.094546 0.063082 -0.087313
v -0.109043 0.046236 -0.092746
v -0.027741 0.024720 0.045686
v -0.112918 0.062288 -0.078524
v -0.086001 0.046999 -0.091372
v -0.014191 0.047639 0.039094
v 0.084628 0.036103 -0.058168
v 0.111667 0.022828 -0.053743
v -0.116489 0.032594 0.036256
v 0.112278 0.031465 -0.024567
v 0.119938 0.018952 -0.032624
v 0.073244 0.020814 -0.062716
v 0.100803 0.040498 -0.042390
v 0.092318 0.023591 -0.066225
v 0.111667 0.022828 -0.053743
v -0.110233 0.016175 0.033509
v 0.084628 0.036103 -0.058168
v -0.096072 0.028871 0.028779
v 0.100803 0.040498 -0.042390
v 0.092318 0.023591 -0.066225
v 0.073244 0.020814 -0.062716
v 0.073244 0.020814 -0.062716
v 0.093966 0.018769 -0.039735
v 0.112308 0.014283 -0.015198
v 0.084628 0.036103 -0.058168
v 0.119938 0.018952 -0.032624
v 0.112278 0.031465 -0.024567
v 0.112308 0.014283 -0.015198
v 0.093966 0.018769 -0.039735
v -0.093326 0.013031 0.024140
v 0.031892 0.062502 -0.098697
v 0.060152 0.047090 -0.108036
v 0.114963 0.047517 0.030396
v -0.071169 0.011414 0.030183
v -0.120640 0.017396 0.024628
v -0.096072 0.028871 0.028779
v -0.104343 0.030732 0.007782
v -0.115238 0.011078 0.003143
v -0.116489 0.032594 0.036256
v -0.120640 0.017396 0.024628
v -0.103488 0.017396 -0.015595
v 0.049745 0.030274 -0.104526
v 0.100589 0.024689 0.035249
v 0.060152 0.047090 -0.108036
v 0.114963 0.047517 0.030396
v 0.051210 0.063204 -0.105136
v 0.031892 0.062502 -0.098697
v 0.030396 0.029572 -0.098086
v 0.021485 0.045686 -0.095187
v 0.037416 0.046419 -0.112308
v 0.075930 0.068422 0.043306
v 0.060152 0.047090 -0.108036
v 0.049745 0.030274 -0.104526
v 0.102634 0.069399 0.034394
v 0.061556 0.045595 0.048158
v 0.091433 0.046510 0.048738
v 0.114963 0.047517 0.030396
v 0.073885 0.023713 0.044160
v -0.103488 0.017396 -0.015595
v -0.115238 0.011078 0.003143
v 0.100589 0.024689 0.035249
v -0.105228 0.017396 0.031190
v -0.120640 0.017396 0.024628
v -0.092227 0.032594 -0.020661
v -0.093478 0.011078 0.012452
v -0.103488 0.017396 -0.015595
v 0.061556 0.045595 0.048158
v 0.021485 0.045686 -0.095187
v 0.030396 0.029572 -0.098086
v 0.025788 0.048799 0.037019
v 0.064394 0.113132 0.025178
v 0.026032 0.061373 -0.114383
v 0.037904 0.107608 0.032991
v 0.071871 0.099704 0.113804
v -0.002930 0.065706 0.029756
v 0.051607 0.090152 0.033967
v 0.057649 0.091220 0.032197
v 0.080996 0.101321 0.111087
v 0.055849 0.084414 0.033387
v -0.058504 0.015198 0.067415
v -0.059511 0.028169 0.052767
v -0.088076 0.017396 -0.009033
v -0.075076 0.033845 0.036775
v -0.059511 0.028169 0.052767
v -0.056764 0.012329 0.048128
v 0.002594 0.079379 -0.096835
v -0.014191 0.047639 0.039094
v -0.026032 0.069460 0.044649
v -0.094546 0.063082 -0.087313
v -0.086001 0.046999 -0.091372
v -0.112918 0.062288 -0.078524
v -0.122715 0.045412 -0.073733
v -0.051393 0.068361 0.056825
v -0.064943 0.045473 0.063448
v -0.122715 0.045412 -0.073733
v -0.114170 0.029359 -0.077761
v 0.051210 0.063204 -0.105136
v 0.075930 0.068422 0.043306
v 0.102634 0.069399 0.034394
v -0.064943 0.045473 0.063448
v -0.095798 0.030152 -0.086581
v -0.053133 0.023652 0.057863
v 0.115940 0.042085 0.120762
v 0.120396 0.051790 0.119083
v 0.111240 0.051729 0.122166
v 0.078249 0.091037 0.112918
v 0.013886 0.085421 0.020783
v -0.029054 0.069674 0.039491
v 0.004578 0.109073 0.021577
v -0.021546 0.113041 0.031343
v -0.038362 0.093326 0.040284
v -0.008606 0.090426 0.039766
v 0.057649 0.091220 0.032197
v -0.114170 0.029359 -0.077761
v -0.122715 0.045412 -0.073733
v 0.044679 0.051729 0.118076
v 0.049379 0.042085 0.116642
v 0.053835 0.051790 0.114994
v 0.019715 0.048769 0.039064
v -0.026032 0.069460 0.044649
v -0.086001 0.046999 -0.091372
v -0.095798 0.030152 -0.086581
v -0.014191 0.047639 0.039094
v -0.051393 0.068361 0.056825
v -0.035218 0.046541 0.060244
v -0.053133 0.023652 0.057863
v -0.064943 0.045473 0.063448
v -0.105960 0.068331 -0.056795
v -0.082247 0.051607 -0.077059
v -0.113285 0.051241 -0.062014
v -0.082705 0.068606 -0.068056
v -0.057497 0.073275 0.047792
v -0.021027 0.049043 0.037782
v -0.028871 0.073611 0.033906
v -0.063540 0.048524 0.058382
v -0.037172 0.051454 -0.086459
v -0.031922 0.067568 -0.079897
v 0.034028 0.024689 0.031159
v -0.075076 0.033845 0.036775
v -0.093326 0.013031 0.024140
v -0.071169 0.011414 0.030183
v -0.110233 0.016175 0.033509
v 0.048402 0.047517 0.026307
v 0.007324 0.023713 0.040071
v -0.005219 0.067751 -0.088900
v -0.110233 0.016175 0.033509
v -0.096072 0.028871 0.028779
v -0.058504 0.015198 0.067415
v -0.058504 0.015198 0.067415
v -0.059511 0.028169 0.052767
v 0.002319 0.051881 0.126377
v -0.083407 0.016297 0.048982
v -0.056764 0.012329 0.048128
v -0.006378 0.051790 0.130619
v -0.001862 0.042177 0.128605
v -0.083407 0.016297 0.048982
v -0.006378 0.051790 0.130619
v -0.035310 0.048830 0.052583
v -0.041078 0.048738 0.055361
v -0.038087 0.042390 0.054048
v 0.002319 0.051881 0.126377
v -0.035310 0.048830 0.052583
v -0.038087 0.042390 0.054048
v 0.002319 0.051881 0.126377
v -0.041078 0.048738 0.055361
v -0.011505 0.085604 0.034089
v -0.069399 0.099399 -0.084506
v -0.076235 0.082736 -0.088382
v 0.015442 0.104465 0.110721
v 0.018830 0.094211 0.110752
v -0.013733 0.092410 0.034089
v -0.085452 0.076083 -0.099857
v -0.038362 0.093326 0.040284
v -0.078768 0.058687 -0.100375
v 0.055849 0.084414 0.033387
v -0.038362 0.093326 0.040284
v 0.051607 0.090152 0.033967
v 0.024384 0.102847 0.107395
v -0.038087 0.042390 0.054048
v -0.001862 0.042177 0.128605
v -0.035310 0.048830 0.052583
v -0.001862 0.042177 0.128605
v -0.006378 0.051790 0.130619
v -0.113285 0.051241 -0.062014
v -0.041078 0.048738 0.055361
v -0.063540 0.048524 0.058382
v -0.082247 0.051607 -0.077059
v -0.057497 0.073275 0.047792
v -0.105960 0.068331 -0.056795
v -0.028871 0.073611 0.033906
v -0.021027 0.049043 0.037782
v 0.073885 0.023713 0.044160
v 0.061556 0.045595 0.048158
v -0.082705 0.068606 -0.068056
v 0.027650 0.082705 0.038057
v -0.015351 0.063204 -0.109226
v 0.036073 0.069399 0.030305
v -0.006439 0.047090 -0.112125
v 0.021485 0.045686 -0.095187
v 0.019715 0.048769 0.039064
v -0.045076 0.045686 -0.099277
v -0.005005 0.045595 0.044069
v -0.034669 0.062502 -0.102786
v 0.043886 0.063326 0.035310
v 0.056825 0.089022 0.039827
v -0.045076 0.045686 -0.099277
v 0.080630 0.093753 0.022462
v 0.070376 0.068850 0.027528
v -0.085452 0.076083 -0.099857
v 0.024384 0.102847 0.107395
v 0.015442 0.104465 0.110721
v 0.015442 0.104465 0.110721
v 0.024384 0.102847 0.107395
v 0.018830 0.094211 0.110752
v -0.007813 0.091342 0.031861
v -0.007813 0.091342 0.031861
v -0.013733 0.092410 0.034089
v 0.018830 0.094211 0.110752
v -0.007813 0.091342 0.031861
v -0.011505 0.085604 0.034089
v -0.013733 0.092410 0.034089
v -0.011505 0.085604 0.034089
v 0.025788 0.048799 0.037019
v 0.022797 0.042390 0.038148
v 0.044679 0.051729 0.118076
v 0.053835 0.051790 0.114994
v -0.005005 0.045595 0.044069
v 0.009369 0.068422 0.039216
v 0.030610 0.102664 -0.098453
v 0.033113 0.084811 -0.105869
v 0.076418 0.094363 0.019288
v 0.033418 0.079684 -0.118046
v 0.027985 0.111728 0.025483
v 0.021607 0.093997 -0.116062
v 0.064180 0.118198 0.014771
v 0.022797 0.042390 0.038148
v 0.053835 0.051790 0.114994
v 0.007324 0.023713 0.040071
v 0.025788 0.048799 0.037019
v 0.049379 0.042085 0.116642
v 0.044679 0.051729 0.118076
v -0.001343 0.048677 0.038697
v -0.037172 0.051454 -0.086459
v 0.004395 0.074221 0.030824
v 0.019715 0.048769 0.039064
v 0.049379 0.042085 0.116642
v -0.004486 0.051698 -0.097476
v 0.035127 0.074435 0.020447
v 0.022797 0.042390 0.038148
v -0.031922 0.067568 -0.079897
v -0.016846 0.030274 -0.108615
v -0.036164 0.029572 -0.102176
v 0.034028 0.024689 0.031159
v -0.006439 0.047090 -0.112125
v 0.048402 0.047517 0.026307
v -0.045076 0.045686 -0.099277
v -0.005219 0.067751 -0.088900
v 0.040193 0.048952 0.024689
v 0.006867 0.057344 -0.108737
v -0.004913 0.071657 -0.106754
v 0.002441 0.089969 -0.110416
v 0.011414 0.074801 -0.123234
v 0.000397 0.097262 -0.089511
v 0.028993 0.085879 0.033296
v 0.027985 0.111728 0.025483
v -0.034669 0.062502 -0.102786
v -0.015351 0.063204 -0.109226
v 0.028993 0.085879 0.033296
v -0.036164 0.095279 0.034974
v 0.092349 0.048799 0.041108
v 0.086276 0.048769 0.043153
v 0.089389 0.042390 0.042238
v 0.111240 0.051729 0.122166
v 0.028840 0.051454 -0.082156
v 0.089389 0.042390 0.042238
v 0.092349 0.048799 0.041108
v 0.115940 0.042085 0.120762
v 0.120396 0.051790 0.119083
v 0.002594 0.079379 -0.096835
v 0.030610 0.102664 -0.098453
v 0.000397 0.097262 -0.089511
v 0.080630 0.093753 0.022462
v 0.064394 0.113132 0.025178
v 0.021607 0.093997 -0.116062
v 0.033418 0.079684 -0.118046
v 0.002441 0.089969 -0.110416
v -0.004913 0.071657 -0.106754
v -0.004913 0.071657 -0.106754
v 0.027650 0.082705 0.038057
v 0.037904 0.107608 0.032991
v 0.027650 0.082705 0.038057
v 0.006867 0.057344 -0.108737
v 0.043886 0.063326 0.035310
v 0.026032 0.061373 -0.114383
v 0.033418 0.079684 -0.118046
v 0.070376 0.068850 0.027528
v 0.080630 0.093753 0.022462
v -0.001343 0.048677 0.038697
v 0.111240 0.051729 0.122166
v 0.120396 0.051790 0.119083
v 0.086276 0.048769 0.043153
v -0.016846 0.030274 -0.108615
v -0.029145 0.046419 -0.116398
v -0.036164 0.029572 -0.102176
v 0.040193 0.048952 0.024689
v 0.004395 0.074221 0.030824
v 0.035127 0.074435 0.020447
v -0.004486 0.051698 -0.097476
v 0.036073 0.069399 0.030305
v 0.048402 0.047517 0.026307
v -0.006439 0.047090 -0.112125
v 0.086276 0.048769 0.043153
v 0.092349 0.048799 0.041108
v 0.062563 0.051698 -0.093539
v 0.059847 0.068331 -0.084292
v 0.109897 0.049043 0.025727
v 0.089389 0.042390 0.042238
v 0.115940 0.042085 0.120762
v 0.009369 0.068422 0.039216
v -0.005005 0.045595 0.044069
v 0.024873 0.046510 0.044649
v 0.036134 0.068178 -0.076296
v 0.069613 0.074496 0.035371
v 0.060701 0.048708 0.042329
v 0.103030 0.074709 0.024079
v -0.027589 0.118412 0.021821
v 0.004578 0.112552 0.009766
v -0.041871 0.094394 -0.094790
v 0.004578 0.112552 0.009766
v -0.044404 0.076937 -0.100314
v 0.007385 0.087374 0.018647
v -0.036164 0.095279 0.034974
v 0.055849 0.084414 0.033387
v 0.078249 0.091037 0.112918
v 0.051607 0.090152 0.033967
v -0.069399 0.099399 -0.084506
v -0.044404 0.076937 -0.100314
v -0.076235 0.082736 -0.088382
v -0.041871 0.094394 -0.094790
v 0.060701 0.048708 0.042329
v 0.103030 0.074709 0.024079
v 0.062563 0.051698 -0.093539
v 0.069613 0.074496 0.035371
v 0.109897 0.049043 0.025727
v 0.007385 0.087374 0.018647
v 0.013886 0.085421 0.020783
v -0.027589 0.118412 0.021821
v -0.056581 0.011078 0.006287
v 0.024140 0.042360 0.037904
v 0.026093 0.048860 0.035554
v 0.088839 0.051881 0.089663
v 0.026093 0.048860 0.035554
v 0.021821 0.048677 0.040345
v -0.062044 0.030732 0.016755
v -0.067537 0.011078 0.027253
v -0.046541 0.017396 0.034303
v -0.062044 0.030732 0.016755
v 0.061220 0.085757 0.029237
v 0.083468 0.047243 -0.000214
v 0.061556 0.053591 0.009857
v -0.085330 0.017396 0.014069
v -0.077578 0.017396 -0.000763
v -0.089480 0.032594 0.002441
v -0.034639 0.032594 0.031068
v -0.046541 0.017396 0.034303
v -0.085330 0.017396 0.014069
v -0.038789 0.017396 0.019471
v -0.077578 0.017396 -0.000763
v 0.007141 0.065493 -0.114475
v 0.062716 0.061556 0.016755
v 0.074892 0.081912 0.002991
v -0.038789 0.017396 0.019471
v 0.110294 0.097354 0.086428
v -0.000305 0.013031 0.058657
v -0.044252 0.028169 0.052889
v 0.085910 0.042085 0.093173
v -0.082430 0.030396 -0.070528
v -0.075350 0.047426 -0.078463
v 0.030702 0.024934 0.026032
v -0.102634 0.045198 -0.048250
v 0.011841 0.023408 0.046907
v 0.002808 0.045015 0.056795
v 0.031465 0.069674 0.024964
v 0.002808 0.045015 0.056795
v 0.011841 0.023408 0.046907
v 0.117313 0.096011 0.079897
v -0.034639 0.032594 0.031068
v 0.021821 0.048677 0.040345
v -0.089480 0.032594 0.002441
v 0.088839 0.051881 0.089663
v 0.072207 0.073244 0.007416
v 0.030702 0.024934 0.026032
v 0.040529 0.048067 0.015076
v 0.029084 0.046510 0.042604
v 0.040529 0.048067 0.015076
v -0.096072 0.029267 -0.055422
v -0.096072 0.029267 -0.055422
v -0.095523 0.062227 -0.056185
v -0.081881 0.063356 -0.071291
v -0.102634 0.045198 -0.048250
v 0.024140 0.042360 0.037904
v -0.082430 0.030396 -0.070528
v -0.075350 0.047426 -0.078463
v -0.097201 0.046358 -0.070986
v 0.012604 0.068148 0.045839
v 0.002808 0.045015 0.056795
v 0.113437 0.087161 0.084719
v 0.082400 0.051637 0.096866
v 0.085910 0.042085 0.093173
v -0.102634 0.045198 -0.048250
v 0.008850 0.016175 0.041627
v -0.000519 0.028871 0.053255
v -0.089511 0.051057 -0.040925
v -0.080935 0.068209 -0.038636
v 0.003479 0.073031 0.039857
v -0.034639 0.032594 0.031068
v 0.021821 0.048677 0.040345
v 0.031465 0.069674 0.024964
v -0.075350 0.047426 -0.078463
v 0.040529 0.048067 0.015076
v -0.095523 0.062227 -0.056185
v 0.012604 0.068148 0.045839
v -0.081881 0.063356 -0.071291
v 0.002167 0.048128 0.051637
v 0.087985 0.050966 0.005249
v -0.066500 0.051973 -0.066561
v 0.033692 0.049379 0.016480
v 0.024720 0.073885 0.016144
v -0.063692 0.068880 -0.057863
v 0.024720 0.073885 0.016144
v 0.033692 0.049379 0.016480
v 0.002167 0.048128 0.051637
v 0.003479 0.073031 0.039857
v 0.137791 0.041719 0.062166
v 0.141545 0.051485 0.059511
v 0.134251 0.051271 0.065828
v -0.089511 0.051057 -0.040925
v -0.066500 0.051973 -0.066561
v -0.063692 0.068880 -0.057863
v -0.080935 0.068209 -0.038636
v 0.093570 0.074648 -0.010895
v 0.042207 0.064669 0.035798
v -0.041780 0.056215 -0.089114
v -0.056642 0.058443 -0.075320
v 0.074892 0.081912 0.002991
v 0.074892 0.081912 0.002991
v 0.024140 0.042360 0.037904
v -0.022217 0.011414 0.065554
v -0.022492 0.033845 0.057924
v -0.044252 0.028169 0.052889
v -0.053011 0.015198 0.041078
v -0.000519 0.028871 0.053255
v -0.000305 0.013031 0.058657
v 0.033876 0.088107 0.041078
v -0.022492 0.033845 0.057924
v -0.044038 0.012329 0.058260
v 0.102817 0.053041 -0.020569
v -0.009125 0.044923 -0.121372
v -0.022217 0.011414 0.065554
v -0.062654 0.075686 -0.071535
v 0.033876 0.088107 0.041078
v -0.062654 0.075686 -0.071535
v 0.062716 0.061556 0.016755
v -0.032960 0.071230 -0.099124
v -0.089480 0.032594 0.002441
v 0.064577 0.079592 0.001892
v -0.024567 0.043886 -0.108127
v 0.064577 0.079592 0.001892
v 0.060091 0.050203 0.016022
v -0.046541 0.017396 0.034303
v -0.067537 0.011078 0.027253
v 0.054323 0.087863 0.026002
v 0.113437 0.087161 0.084719
v 0.058962 0.086978 0.021668
v 0.056429 0.081118 0.024873
v 0.056429 0.081118 0.024873
v 0.054323 0.087863 0.026002
v -0.053804 0.090701 -0.081545
v -0.062654 0.075686 -0.071535
v -0.038972 0.088473 -0.095340
v -0.056642 0.058443 -0.075320
v -0.041780 0.056215 -0.089114
v -0.032960 0.071230 -0.099124
v -0.055361 0.072604 -0.093570
v 0.046052 0.108463 0.027314
v -0.038972 0.088473 -0.095340
v -0.032960 0.071230 -0.099124
v -0.053804 0.090701 -0.081545
v 0.066561 0.105350 0.008240
v -0.049776 0.082034 -0.064150
v 0.110294 0.097354 0.086428
v 0.058962 0.086978 0.021668
v 0.117313 0.096011 0.079897
v 0.110294 0.097354 0.086428
v 0.113437 0.087161 0.084719
v 0.056429 0.081118 0.024873
v 0.058962 0.086978 0.021668
v 0.117313 0.096011 0.079897
v 0.033876 0.090335 0.035401
v -0.041993 0.098666 -0.062380
v -0.041993 0.098666 -0.062380
v 0.036866 0.114109 0.020997
v 0.008850 0.016175 0.041627
v -0.022095 0.016297 0.043153
v -0.053011 0.015198 0.041078
v 0.008850 0.016175 0.041627
v -0.000519 0.028871 0.053255
v -0.022095 0.016297 0.043153
v -0.044038 0.012329 0.058260
v -0.053011 0.015198 0.041078
v -0.044252 0.028169 0.052889
v 0.085910 0.042085 0.093173
v 0.054323 0.087863 0.026002
v 0.026093 0.048860 0.035554
v 0.082400 0.051637 0.096866
v 0.088839 0.051881 0.089663
v 0.082400 0.051637 0.096866
v -0.020417 0.094546 -0.082522
v 0.068087 0.083834 0.003540
v -0.024812 0.077273 -0.087405
v 0.062105 0.109287 -0.002503
v -0.018921 0.064699 -0.091922
v 0.007141 0.065493 -0.114475
v 0.010163 0.080966 -0.105380
v 0.141545 0.051485 0.059511
v 0.086001 0.053713 -0.001984
v 0.134251 0.051271 0.065828
v -0.000336 0.061892 -0.127567
v -0.011109 0.080325 -0.086917
v 0.102817 0.053041 -0.020569
v 0.066561 0.105350 0.008240
v 0.036866 0.114109 0.020997
v 0.062105 0.109287 -0.002503
v -0.031251 0.059816 -0.101077
v 0.046052 0.108463 0.027314
v 0.141545 0.051485 0.059511
v 0.083468 0.047243 -0.000214
v 0.081149 0.053560 0.002197
v 0.083468 0.047243 -0.000214
v 0.137791 0.041719 0.062166
v 0.086001 0.053713 -0.001984
v 0.033876 0.090335 0.035401
v -0.024567 0.043886 -0.108127
v -0.020417 0.094546 -0.082522
v -0.049776 0.082034 -0.064150
v 0.069338 0.028565 0.006348
v 0.090701 0.030000 -0.011933
v -0.085330 0.017396 0.014069
v -0.056581 0.011078 0.006287
v -0.024812 0.077273 -0.087405
v 0.033876 0.088107 0.041078
v 0.068087 0.083834 0.003540
v 0.093570 0.074648 -0.010895
v -0.022492 0.076785 -0.107303
v 0.060091 0.050203 0.016022
v -0.007019 0.077792 -0.120548
v -0.031251 0.059816 -0.101077
v -0.018921 0.064699 -0.091922
v 0.081149 0.053560 0.002197
v 0.086001 0.053713 -0.001984
v 0.072207 0.073244 0.007416
v 0.060091 0.050203 0.016022
v 0.102817 0.053041 -0.020569
v -0.007019 0.077792 -0.120548
v -0.000336 0.061892 -0.127567
v -0.022492 0.076785 -0.107303
v 0.090701 0.030000 -0.011933
v -0.000336 0.061892 -0.127567
v 0.042207 0.064669 0.035798
v -0.031251 0.059816 -0.101077
v 0.069338 0.028565 0.006348
v 0.089114 0.080325 -0.019349
v -0.022980 0.061586 -0.122898
v -0.011109 0.080325 -0.086917
v 0.061556 0.053591 0.009857
v 0.081149 0.053560 0.002197
v 0.137791 0.041719 0.062166
v 0.134251 0.051271 0.065828
v -0.009125 0.044923 -0.121372
v 0.094638 0.054598 -0.018830
v 0.089114 0.080325 -0.019349
v 0.094638 0.054598 -0.018830
v 0.010163 0.080966 -0.105380
vt 0.911706 0.459327
vt 0.847464 0.415739
vt 0.153244 0.445700
vt 0.746295 0.108096
vt 0.580155 0.111806
vt 0.657263 0.056964
vt 0.863099 0.063534
vt 0.962412 0.009543
vt 0.942215 0.626655
vt 0.942215 0.666532
vt 0.059527 0.666532
vt 0.853639 0.183714
vt 0.655712 0.179516
vt 0.910185 0.118529
vt 0.059527 0.637240
vt 0.059527 0.388850
vt 0.059527 0.473167
vt 0.942215 0.388850
vt 0.942215 0.298388
vt 0.059527 0.298388
vt 0.988784 0.175714
vt 0.988754 0.009543
vt 0.975583 0.008873
vt 0.099739 0.172976
vt 0.962412 0.009543
vt 0.853031 0.054865
vt 0.030904 0.151562
vt 0.034189 0.101495
vt 0.519167 0.101343
vt 0.448051 0.031991
vt 0.034189 0.101495
vt 0.942215 0.580724
vt 0.276557 0.003307
vt 0.276678 0.101343
vt 0.105123 0.032112
vt 0.988754 0.009543
vt 0.209303 0.407891
vt 0.139465 0.250663
vt 0.197441 0.288502
vt 0.655712 0.179516
vt 0.746295 0.108096
vt 0.942215 0.626655
vt 0.853639 0.183714
vt 0.059527 0.666532
vt 0.942215 0.666532
vt 0.432568 0.172976
vt 0.266123 0.116521
vt 0.519167 0.101343
vt 0.099739 0.172976
vt 0.099739 0.130118
vt 0.501556 0.151501
vt 0.266123 0.186573
vt 0.432568 0.130087
vt 0.276557 0.003307
vt 0.501556 0.151501
vt 0.432568 0.172976
vt 0.432568 0.172976
vt 0.276557 0.003307
vt 0.448051 0.031991
vt 0.519167 0.101343
vt 0.519167 0.101343
vt 0.276678 0.101343
vt 0.034189 0.101495
vt 0.448051 0.031991
vt 0.105123 0.032112
vt 0.105123 0.032112
vt 0.034189 0.101495
vt 0.276678 0.101343
vt 0.432568 0.130087
vt 0.059527 0.298388
vt 0.059527 0.473167
vt 0.942215 0.473167
vt 0.266123 0.116521
vt 0.448051 0.031991
vt 0.432568 0.172976
vt 0.276678 0.101343
vt 0.276557 0.003307
vt 0.501556 0.151501
vt 0.432568 0.172976
vt 0.105123 0.032112
vt 0.059527 0.637240
vt 0.942215 0.626655
vt 0.059527 0.666532
vt 0.942215 0.666532
vt 0.655712 0.179516
vt 0.853639 0.183714
vt 0.863099 0.063534
vt 0.910185 0.118529
vt 0.746295 0.108096
vt 0.631591 0.176626
vt 0.580155 0.111806
vt 0.657263 0.056964
vt 0.832712 0.178421
vt 0.582253 0.119867
vt 0.748972 0.112445
vt 0.906474 0.124430
vt 0.650754 0.055990
vt 0.099739 0.172976
vt 0.266123 0.186573
vt 0.853031 0.054865
vt 0.432568 0.130087
vt 0.432568 0.172976
vt 0.030904 0.151562
vt 0.266123 0.116521
vt 0.099739 0.172976
vt 0.942215 0.222800
vt 0.059527 0.530778
vt 0.059527 0.580724
vt 0.988784 0.175714
vt 0.832712 0.178421
vt 0.657263 0.056964
vt 0.631591 0.176626
vt 0.962412 0.009543
vt 0.853031 0.054865
vt 0.962352 0.175714
vt 0.988784 0.175714
vt 0.988754 0.009543
vt 0.975583 0.175075
vt 0.030904 0.151562
vt 0.099739 0.172976
vt 0.099739 0.130118
vt 0.266123 0.186573
vt 0.099739 0.172976
vt 0.099739 0.130118
vt 0.139465 0.250663
vt 0.942215 0.473167
vt 0.942215 0.388850
vt 0.059527 0.388850
vt 0.059527 0.473167
vt 0.059527 0.298388
vt 0.059527 0.222800
vt 0.942215 0.298388
vt 0.942215 0.222800
vt 0.059527 0.530778
vt 0.863099 0.063534
vt 0.059527 0.388850
vt 0.942215 0.298388
vt 0.942215 0.388850
vt 0.942215 0.530778
vt 0.059527 0.637240
vt 0.942215 0.580724
vt 0.975583 0.008873
vt 0.988754 0.009543
vt 0.962412 0.009543
vt 0.975583 0.008873
vt 0.906474 0.124430
vt 0.650754 0.055990
vt 0.832712 0.178421
vt 0.631591 0.176626
vt 0.582253 0.119867
vt 0.748972 0.112445
vt 0.988784 0.175714
vt 0.059527 0.580724
vt 0.910185 0.118529
vt 0.962412 0.009543
vt 0.975583 0.008873
vt 0.988754 0.009543
vt 0.962352 0.175714
vt 0.832712 0.178421
vt 0.580155 0.111806
vt 0.657263 0.056964
vt 0.906474 0.124430
vt 0.631591 0.176626
vt 0.748972 0.112445
vt 0.650754 0.055990
vt 0.582253 0.119867
vt 0.197441 0.288502
vt 0.153244 0.445700
vt 0.139465 0.250663
vt 0.209303 0.407891
vt 0.850537 0.274084
vt 0.911706 0.459327
vt 0.847464 0.415739
vt 0.913227 0.228853
vt 0.139465 0.250663
vt 0.197441 0.288502
vt 0.853031 0.054865
vt 0.276557 0.003307
vt 0.448051 0.031991
vt 0.276557 0.003307
vt 0.519167 0.101343
vt 0.942215 0.473167
vt 0.650754 0.055990
vt 0.209303 0.407891
vt 0.519167 0.101343
vt 0.448051 0.031991
vt 0.034189 0.101495
vt 0.034189 0.101495
vt 0.105123 0.032112
vt 0.988754 0.009543
vt 0.276678 0.101343
vt 0.105123 0.032112
vt 0.962412 0.009543
vt 0.975583 0.008873
vt 0.276678 0.101343
vt 0.962412 0.009543
vt 0.988784 0.175714
vt 0.962352 0.175714
vt 0.975583 0.175075
vt 0.988754 0.009543
vt 0.988784 0.175714
vt 0.975583 0.175075
vt 0.988754 0.009543
vt 0.962352 0.175714
vt 0.975583 0.175075
vt 0.197441 0.288502
vt 0.139465 0.250663
vt 0.962412 0.009543
vt 0.975583 0.008873
vt 0.962352 0.175714
vt 0.059527 0.530778
vt 0.942215 0.530778
vt 0.059527 0.580724
vt 0.975583 0.175075
vt 0.942215 0.222800
vt 0.962352 0.175714
vt 0.988754 0.009543
vt 0.975583 0.175075
vt 0.975583 0.008873
vt 0.988784 0.175714
vt 0.975583 0.008873
vt 0.962412 0.009543
vt 0.139465 0.250663
vt 0.962352 0.175714
vt 0.913227 0.228853
vt 0.153244 0.445700
vt 0.850537 0.274084
vt 0.197441 0.288502
vt 0.847464 0.415739
vt 0.911706 0.459327
vt 0.942215 0.580724
vt 0.942215 0.530778
vt 0.209303 0.407891
vt 0.582253 0.119867
vt 0.059527 0.388850
vt 0.942215 0.388850
vt 0.059527 0.473167
vt 0.059527 0.222800
vt 0.962352 0.175714
vt 0.059527 0.222800
vt 0.942215 0.222800
vt 0.059527 0.298388
vt 0.650754 0.055990
vt 0.748972 0.112445
vt 0.059527 0.530778
vt 0.906474 0.124430
vt 0.853031 0.054865
vt 0.059527 0.222800
vt 0.988754 0.009543
vt 0.962412 0.009543
vt 0.962412 0.009543
vt 0.988754 0.009543
vt 0.975583 0.008873
vt 0.988784 0.175714
vt 0.988784 0.175714
vt 0.962352 0.175714
vt 0.975583 0.008873
vt 0.988784 0.175714
vt 0.975583 0.175075
vt 0.962352 0.175714
vt 0.975583 0.175075
vt 0.988784 0.175714
vt 0.975583 0.175075
vt 0.962412 0.009543
vt 0.988754 0.009543
vt 0.942215 0.530778
vt 0.942215 0.298388
vt 0.209303 0.407891
vt 0.153244 0.445700
vt 0.911706 0.459327
vt 0.580155 0.111806
vt 0.850537 0.274084
vt 0.655712 0.179516
vt 0.847464 0.415739
vt 0.975583 0.175075
vt 0.988754 0.009543
vt 0.942215 0.580724
vt 0.988784 0.175714
vt 0.975583 0.008873
vt 0.962412 0.009543
vt 0.913227 0.228853
vt 0.139465 0.250663
vt 0.850537 0.274084
vt 0.962352 0.175714
vt 0.975583 0.008873
vt 0.153244 0.445700
vt 0.847464 0.415739
vt 0.975583 0.175075
vt 0.197441 0.288502
vt 0.059527 0.637240
vt 0.059527 0.580724
vt 0.942215 0.626655
vt 0.059527 0.666532
vt 0.942215 0.666532
vt 0.910185 0.118529
vt 0.209303 0.407891
vt 0.911706 0.459327
vt 0.863099 0.063534
vt 0.910185 0.118529
vt 0.853639 0.183714
vt 0.746295 0.108096
vt 0.197441 0.288502
vt 0.913227 0.228853
vt 0.850537 0.274084
vt 0.853639 0.183714
vt 0.655712 0.179516
vt 0.913227 0.228853
vt 0.913227 0.228853
vt 0.988784 0.175714
vt 0.962352 0.175714
vt 0.975583 0.175075
vt 0.962412 0.009543
vt 0.139465 0.250663
vt 0.975583 0.175075
vt 0.988784 0.175714
vt 0.975583 0.008873
vt 0.988754 0.009543
vt 0.139465 0.250663
vt 0.209303 0.407891
vt 0.197441 0.288502
vt 0.942215 0.473167
vt 0.942215 0.388850
vt 0.059527 0.388850
vt 0.059527 0.473167
vt 0.059527 0.298388
vt 0.059527 0.530778
vt 0.059527 0.222800
vt 0.942215 0.222800
vt 0.942215 0.298388
vt 0.942215 0.530778
vt 0.059527 0.580724
vt 0.942215 0.580724
vt 0.059527 0.637240
vt 0.059527 0.666532
vt 0.942215 0.626655
vt 0.942215 0.666532
vt 0.913227 0.228853
vt 0.962412 0.009543
vt 0.988754 0.009543
vt 0.962352 0.175714
vt 0.657263 0.056964
vt 0.746295 0.108096
vt 0.863099 0.063534
vt 0.911706 0.459327
vt 0.850537 0.274084
vt 0.847464 0.415739
vt 0.153244 0.445700
vt 0.832712 0.178421
vt 0.906474 0.124430
vt 0.580155 0.111806
vt 0.962352 0.175714
vt 0.988784 0.175714
vt 0.153244 0.445700
vt 0.209303 0.407891
vt 0.911706 0.459327
vt 0.975583 0.175075
vt 0.975583 0.008873
vt 0.631591 0.176626
vt 0.582253 0.119867
vt 0.748972 0.112445
vt 0.197441 0.288502
vt 0.850537 0.274084
vt 0.913227 0.228853
vt 0.847464 0.415739
vt 0.850537 0.274084
vt 0.847464 0.415739
vt 0.209303 0.407891
vt 0.847464 0.415739
vt 0.153244 0.445700
vt 0.911706 0.459327
vt 0.913227 0.228853
vt 0.975583 0.175075
vt 0.975583 0.008873
vt 0.962352 0.175714
vt 0.197441 0.288502
vt 0.153244 0.445700
vt 0.139465 0.250663
vt 0.209303 0.407891
vt 0.913227 0.228853
vt 0.847464 0.415739
vt 0.153244 0.445700
vt 0.850537 0.274084
vt 0.911706 0.459327
vt 0.911706 0.459327
vt 0.942215 0.473167
vt 0.850537 0.274084
vt 0.276557 0.003307
vt 0.975583 0.175075
vt 0.988784 0.175714
vt 0.988754 0.009543
vt 0.988784 0.175714
vt 0.962352 0.175714
vt 0.276678 0.101343
vt 0.276557 0.003307
vt 0.448051 0.031991
vt 0.276678 0.101343
vt 0.748972 0.112445
vt 0.975583 0.175075
vt 0.913227 0.228853
vt 0.099739 0.172976
vt 0.099739 0.130118
vt 0.030904 0.151562
vt 0.501556 0.151501
vt 0.432568 0.172976
vt 0.105123 0.032112
vt 0.432568 0.130087
vt 0.105123 0.032112
vt 0.153244 0.445700
vt 0.853031 0.054865
vt 0.906474 0.124430
vt 0.448051 0.031991
vt 0.962412 0.009543
vt 0.432568 0.130087
vt 0.099739 0.172976
vt 0.975583 0.008873
vt 0.059527 0.637240
vt 0.059527 0.666532
vt 0.942215 0.626655
vt 0.059527 0.530778
vt 0.942215 0.580724
vt 0.942215 0.530778
vt 0.832712 0.178421
vt 0.582253 0.119867
vt 0.650754 0.055990
vt 0.988754 0.009543
vt 0.519167 0.101343
vt 0.962352 0.175714
vt 0.034189 0.101495
vt 0.988754 0.009543
vt 0.631591 0.176626
vt 0.853031 0.054865
vt 0.906474 0.124430
vt 0.748972 0.112445
vt 0.942215 0.666532
vt 0.059527 0.580724
vt 0.863099 0.063534
vt 0.853639 0.183714
vt 0.655712 0.179516
vt 0.910185 0.118529
vt 0.975583 0.175075
vt 0.657263 0.056964
vt 0.580155 0.111806
vt 0.746295 0.108096
vt 0.631591 0.176626
vt 0.942215 0.222800
vt 0.975583 0.008873
vt 0.962412 0.009543
vt 0.975583 0.008873
vt 0.059527 0.222800
vt 0.501556 0.151501
vt 0.432568 0.172976
vt 0.139465 0.250663
vt 0.197441 0.288502
vt 0.850537 0.274084
vt 0.519167 0.101343
vt 0.962352 0.175714
vt 0.942215 0.388850
vt 0.059527 0.473167
vt 0.942215 0.473167
vt 0.059527 0.298388
vt 0.942215 0.298388
vt 0.059527 0.388850
vt 0.913227 0.228853
vt 0.748972 0.112445
vt 0.153244 0.445700
vt 0.911706 0.459327
vt 0.847464 0.415739
vt 0.209303 0.407891
vt 0.847464 0.415739
vt 0.911706 0.459327
vt 0.913227 0.228853
vt 0.850537 0.274084
vt 0.975583 0.008873
vt 0.988754 0.009543
vt 0.962412 0.009543
vt 0.139465 0.250663
vt 0.153244 0.445700
vt 0.209303 0.407891
vt 0.197441 0.288502
vt 0.832712 0.178421
vt 0.942215 0.580724
vt 0.059527 0.637240
vt 0.059527 0.580724
vt 0.942215 0.666532
vt 0.942215 0.473167
vt 0.975583 0.175075
vt 0.276557 0.003307
vt 0.276557 0.003307
vt 0.099739 0.172976
vt 0.030904 0.151562
vt 0.432568 0.172976
vt 0.448051 0.031991
vt 0.942215 0.530778
vt 0.266123 0.186573
vt 0.099739 0.130118
vt 0.906474 0.124430
vt 0.657263 0.056964
vt 0.266123 0.116521
vt 0.059527 0.222800
vt 0.942215 0.222800
vt 0.059527 0.530778
vt 0.942215 0.626655
vt 0.059527 0.666532
vt 0.034189 0.101495
vt 0.850537 0.274084
vt 0.059527 0.580724
vt 0.850537 0.274084
vt 0.582253 0.119867
vt 0.432568 0.172976
vt 0.266123 0.186573
vt 0.962352 0.175714
vt 0.975583 0.008873
vt 0.988784 0.175714
vt 0.975583 0.175075
vt 0.975583 0.175075
vt 0.962352 0.175714
vt 0.853639 0.183714
vt 0.910185 0.118529
vt 0.655712 0.179516
vt 0.863099 0.063534
vt 0.657263 0.056964
vt 0.580155 0.111806
vt 0.746295 0.108096
vt 0.942215 0.298388
vt 0.059527 0.388850
vt 0.059527 0.473167
vt 0.059527 0.298388
vt 0.942215 0.388850
vt 0.139465 0.250663
vt 0.962412 0.009543
vt 0.988784 0.175714
vt 0.988754 0.009543
vt 0.962412 0.009543
vt 0.975583 0.008873
vt 0.975583 0.175075
vt 0.988784 0.175714
vt 0.988754 0.009543
vt 0.913227 0.228853
vt 0.197441 0.288502
vt 0.197441 0.288502
vt 0.850537 0.274084
vt 0.519167 0.101343
vt 0.276678 0.101343
vt 0.034189 0.101495
vt 0.519167 0.101343
vt 0.448051 0.031991
vt 0.276678 0.101343
vt 0.105123 0.032112
vt 0.034189 0.101495
vt 0.105123 0.032112
vt 0.975583 0.008873
vt 0.962352 0.175714
vt 0.988784 0.175714
vt 0.962412 0.009543
vt 0.988754 0.009543
vt 0.962412 0.009543
vt 0.209303 0.407891
vt 0.911706 0.459327
vt 0.153244 0.445700
vt 0.847464 0.415739
vt 0.139465 0.250663
vt 0.153244 0.445700
vt 0.209303 0.407891
vt 0.988754 0.009543
vt 0.988784 0.175714
vt 0.962412 0.009543
vt 0.059527 0.473167
vt 0.197441 0.288502
vt 0.942215 0.473167
vt 0.832712 0.178421
vt 0.850537 0.274084
vt 0.847464 0.415739
vt 0.059527 0.530778
vt 0.631591 0.176626
vt 0.988754 0.009543
vt 0.975583 0.175075
vt 0.962352 0.175714
vt 0.975583 0.175075
vt 0.975583 0.008873
vt 0.988784 0.175714
vt 0.913227 0.228853
vt 0.863099 0.063534
vt 0.209303 0.407891
vt 0.139465 0.250663
vt 0.650754 0.055990
vt 0.853031 0.054865
vt 0.099739 0.172976
vt 0.266123 0.116521
vt 0.153244 0.445700
vt 0.582253 0.119867
vt 0.911706 0.459327
vt 0.942215 0.388850
vt 0.059527 0.298388
vt 0.942215 0.222800
vt 0.059527 0.388850
vt 0.059527 0.222800
vt 0.139465 0.250663
vt 0.962352 0.175714
vt 0.988784 0.175714
vt 0.942215 0.298388
vt 0.942215 0.530778
vt 0.942215 0.666532
vt 0.655712 0.179516
vt 0.580155 0.111806
vt 0.853639 0.183714
vt 0.942215 0.626655
vt 0.059527 0.666532
vt 0.650754 0.055990
vt 0.910185 0.118529
vt 0.942215 0.580724
vt 0.847464 0.415739
vt 0.746295 0.108096
vt 0.197441 0.288502
vt 0.913227 0.228853
vt 0.962352 0.175714
vt 0.975583 0.008873
vt 0.962412 0.009543
vt 0.059527 0.637240
vt 0.911706 0.459327
vt 0.847464 0.415739
vt 0.911706 0.459327
vt 0.209303 0.407891
vn 0.222826 0.290738 0.930494
vn 0.223148 0.290404 0.930522
vn -0.321119 0.324552 -0.889690
vn -0.362057 -0.111109 -0.925511
vn 0.129353 -0.204911 -0.970196
vn -0.133309 -0.579294 -0.804144
vn -0.576043 -0.481017 -0.660907
vn 0.267699 0.099141 0.958388
vn 0.436499 -0.892026 -0.117296
vn 0.684022 -0.690490 -0.235238
vn 0.686363 -0.687943 -0.235884
vn -0.487084 0.388235 -0.782319
vn -0.053021 0.291201 -0.955191
vn -0.757654 0.008812 -0.652597
vn 0.139104 -0.990183 0.013673
vn 0.326614 0.901258 -0.284705
vn 0.840483 0.340909 -0.421153
vn 0.626487 0.679922 -0.381076
vn -0.354680 0.934789 -0.019279
vn -0.358120 0.933513 -0.017408
vn 0.927517 -0.288747 -0.237356
vn 0.927190 -0.289862 -0.237275
vn 0.927517 -0.288747 -0.237356
vn 0.862960 0.243076 0.442961
vn -0.763687 -0.588999 0.264314
vn 0.562935 -0.316470 0.763512
vn 0.862960 0.243076 0.442961
vn -0.810078 0.496039 -0.312599
vn -0.786390 0.496225 -0.367902
vn 0.801957 0.505500 0.318331
vn 0.786668 0.496038 0.367559
vn -0.422427 -0.879488 0.219220
vn 0.788192 0.515556 0.336088
vn -0.793405 0.506050 -0.338263
vn 0.784869 0.505637 0.358206
vn 0.267699 0.099141 0.958388
vn -0.291658 0.427537 -0.855656
vn -0.291658 0.427537 -0.855656
vn -0.291391 0.427002 -0.856014
vn -0.174531 0.435030 -0.883339
vn -0.432626 -0.004032 -0.901564
vn 0.522276 -0.797542 -0.301918
vn -0.599695 0.444641 -0.665327
vn 0.735090 -0.546451 -0.401291
vn 0.733411 -0.548930 -0.400980
vn 0.425334 0.659830 -0.619448
vn 0.575535 0.662293 -0.479716
vn 0.810013 0.495817 0.313119
vn 0.775567 0.600381 -0.195035
vn 0.839826 0.541312 -0.040908
vn -0.223392 0.426922 -0.876261
vn 0.670622 0.646054 -0.364529
vn 0.152078 0.599465 -0.785821
vn 0.071175 -0.978497 -0.193592
vn -0.451487 0.177789 -0.874386
vn -0.223392 0.426922 -0.876261
vn -0.451487 0.177789 -0.874386
vn -0.715233 0.302029 0.630254
vn 0.094249 -0.978405 -0.183960
vn 0.108271 -0.976842 -0.184548
vn -0.689307 0.319875 0.650028
vn 0.080299 -0.976394 -0.200518
vn 0.069709 -0.970785 -0.229602
vn -0.697828 0.310456 0.645487
vn 0.066284 -0.973916 -0.217014
vn -0.725492 0.315848 0.611474
vn -0.727011 0.327722 0.603369
vn -0.711827 0.313227 0.628642
vn -0.048550 0.272970 -0.960797
vn -0.476603 0.872026 0.111447
vn 0.801369 0.506425 -0.318342
vn 0.799865 0.508841 -0.318272
vn 0.459536 0.322878 -0.827392
vn -0.784558 0.505973 -0.358413
vn 0.271507 0.314166 -0.909716
vn 0.793601 0.505687 0.338346
vn -0.787907 0.516071 -0.335966
vn -0.336349 -0.512565 0.790029
vn -0.336349 -0.512565 0.790029
vn -0.801882 0.505881 -0.317915
vn 0.267286 -0.954062 -0.135363
vn 0.552785 -0.799940 -0.233506
vn 0.777184 -0.550223 -0.305353
vn 0.775232 -0.553031 -0.305241
vn -0.060485 0.433813 -0.898970
vn -0.509557 0.447135 -0.735134
vn -0.487591 -0.435598 -0.756643
vn -0.732380 0.020644 -0.680583
vn -0.315440 -0.003411 -0.948939
vn 0.127321 0.322606 0.937931
vn 0.185377 -0.026454 -0.982311
vn -0.031080 -0.453177 -0.890879
vn 0.443947 0.309686 0.840836
vn -0.020013 0.020020 0.999599
vn 0.315780 0.003693 0.948825
vn 0.615085 -0.013063 0.788352
vn 0.148734 -0.303475 0.941160
vn 0.108829 -0.960632 -0.255622
vn 0.029493 -0.997162 -0.069274
vn 0.461772 -0.318102 0.827996
vn -0.223759 -0.820796 0.525573
vn -0.108992 -0.960701 0.255293
vn 0.336349 -0.512565 -0.790029
vn -0.029493 -0.997162 0.069274
vn 0.336349 -0.512565 -0.790029
vn -0.802346 0.552972 0.224641
vn -0.832800 -0.502392 0.232480
vn -0.637793 -0.752651 0.163516
vn -0.015991 0.999341 -0.032579
vn 0.340946 0.407659 0.847095
vn 0.093142 -0.475247 -0.874909
vn 0.023181 0.365816 0.930399
vn -0.193704 0.978705 -0.067934
vn 0.460438 -0.240308 0.854546
vn -0.193427 0.978752 -0.068046
vn -0.193007 0.978823 -0.068217
vn -0.193427 0.978752 -0.068046
vn -0.263763 -0.098036 -0.959593
vn 0.986213 0.151572 0.066402
vn 0.734317 0.304950 -0.606452
vn 0.173235 -0.897153 -0.406333
vn 0.584884 0.320515 -0.745105
vn 0.986213 0.151572 0.066402
vn 0.838575 0.282399 -0.465879
vn -0.957945 -0.201409 0.204391
vn 0.750800 0.513259 -0.415769
vn 0.506032 0.807825 -0.302242
vn 0.192927 0.970132 -0.147047
vn 0.752624 0.510322 -0.416088
vn -0.462912 0.869675 0.171401
vn -0.771649 0.546463 0.325480
vn -0.459663 0.871788 0.169396
vn -0.770021 0.549607 0.324038
vn -0.794368 -0.506866 0.334762
vn -0.577093 -0.437162 -0.689821
vn 0.214055 0.969185 -0.121906
vn -0.473282 0.874021 0.109961
vn 0.543549 0.805387 -0.236445
vn -0.792113 -0.510618 0.334404
vn 0.251710 -0.953006 -0.168586
vn -0.296631 -0.950410 0.093440
vn 0.318916 0.017476 0.947622
vn 0.318916 0.017476 0.947622
vn 0.318916 0.017476 0.947622
vn 0.267699 0.099141 0.958388
vn 0.648688 0.031115 0.760418
vn 0.157856 -0.168412 0.972995
vn 0.521997 0.377171 0.765024
vn 0.214740 0.446428 0.868671
vn 0.034563 0.178771 0.983283
vn 0.362282 0.111483 0.925377
vn -0.263763 -0.098036 -0.959593
vn -0.608617 -0.755775 0.241639
vn -0.812114 0.017345 -0.583241
vn 0.318949 0.014488 0.947661
vn 0.318949 0.014488 0.947661
vn 0.318949 0.014488 0.947661
vn -0.016847 0.999340 -0.032194
vn 0.544649 0.311525 0.778659
vn 0.060287 -0.024486 -0.997881
vn -0.141180 -0.453561 -0.879972
vn 0.709389 -0.010754 0.704735
vn 0.242691 0.323177 0.914690
vn 0.432474 0.004245 0.901636
vn 0.266987 -0.304067 0.914473
vn 0.106490 0.018929 0.994134
vn -0.399669 0.420348 -0.814599
vn -0.399669 0.420348 -0.814599
vn -0.399855 0.420118 -0.814627
vn -0.399422 0.420655 -0.814562
vn 0.417419 0.269765 0.867749
vn 0.417419 0.269765 0.867749
vn 0.417638 0.270195 0.867510
vn 0.417271 0.269476 0.867910
vn -0.289616 0.440541 -0.849733
vn -0.289539 0.440374 -0.849846
vn 0.461772 -0.318102 0.827996
vn -0.410984 0.644001 0.645255
vn -0.104872 -0.979734 0.170657
vn -0.129808 -0.976985 0.169261
vn -0.090927 -0.982027 0.165391
vn 0.799807 0.508836 -0.318425
vn 0.148734 -0.303475 0.941160
vn -0.289616 0.440541 -0.849733
vn -0.376830 0.661790 0.648100
vn -0.388595 0.653037 0.650028
vn -0.141799 -0.980906 0.133105
vn -0.426607 0.662394 0.615824
vn -0.423974 0.653527 0.627015
vn 0.438145 0.017552 0.898733
vn -0.406376 0.653428 0.638663
vn -0.141048 -0.978956 0.147480
vn -0.024723 0.999270 -0.029123
vn 0.438145 0.017552 0.898733
vn -0.122990 -0.979571 0.159104
vn 0.438145 0.017552 0.898733
vn -0.028709 0.999232 -0.026685
vn -0.026309 0.999257 -0.028153
vn -0.433514 -0.017994 -0.900967
vn -0.026309 0.999257 -0.028153
vn -0.433514 -0.017994 -0.900967
vn 0.808048 -0.438095 -0.393868
vn 0.807875 -0.438453 -0.393823
vn -0.433514 -0.017994 -0.900967
vn -0.879030 -0.287754 0.380136
vn -0.619829 0.779270 0.092474
vn -0.912261 0.312729 0.264539
vn -0.878636 -0.289133 0.380001
vn -0.878793 -0.288583 0.380055
vn -0.878793 -0.288583 0.380055
vn -0.875523 -0.346430 0.336817
vn -0.873457 -0.351077 0.337368
vn -0.716836 -0.627684 0.303576
vn 0.928009 -0.287059 -0.237478
vn -0.715272 0.681087 0.156544
vn -0.263763 -0.098036 -0.959593
vn 0.771716 -0.589271 -0.239194
vn -0.800428 -0.457254 0.387600
vn 0.807944 -0.438310 -0.393841
vn 0.807944 -0.438310 -0.393841
vn -0.800422 -0.457269 0.387595
vn -0.800417 -0.457279 0.387592
vn -0.888559 0.266865 0.373156
vn -0.800422 -0.457269 0.387595
vn -0.867773 0.325445 0.375574
vn 0.854241 0.261099 -0.449555
vn -0.339185 0.933905 0.113029
vn -0.683305 0.675935 0.276052
vn 0.472941 0.831814 -0.290537
vn 0.858972 0.228087 -0.458414
vn -0.310001 -0.949104 0.055695
vn -0.830387 -0.506404 0.232406
vn 0.462377 0.840693 -0.281857
vn -0.069730 0.042783 0.996648
vn 0.214155 0.969158 -0.121942
vn 0.543736 0.805221 -0.236578
vn 0.801606 0.505944 -0.318509
vn -0.803963 0.550169 0.225737
vn -0.318950 -0.018115 -0.947599
vn -0.803963 0.550169 0.225737
vn -0.802346 0.552972 0.224641
vn -0.476603 0.872026 0.111447
vn 0.155758 -0.246565 0.956528
vn 0.264699 0.086393 0.960453
vn -0.832800 -0.502392 0.232480
vn 0.569394 0.120070 0.813249
vn 0.470936 -0.206558 0.857644
vn -0.717226 0.678649 0.158183
vn 0.104145 0.975643 -0.193067
vn 0.104566 0.975557 -0.193273
vn 0.365547 0.123507 0.922563
vn 0.365547 0.123507 0.922563
vn 0.365547 0.123507 0.922563
vn 0.103510 0.975772 -0.192755
vn 0.771664 -0.589348 -0.239174
vn -0.368603 -0.120664 -0.921722
vn 0.771664 -0.589348 -0.239174
vn -0.368603 -0.120664 -0.921722
vn -0.368603 -0.120664 -0.921722
vn 0.104145 0.975643 -0.193067
vn 0.771585 -0.589464 -0.239143
vn -0.318950 -0.018115 -0.947599
vn -0.318950 -0.018115 -0.947599
vn -0.017415 0.999338 -0.031939
vn -0.016847 0.999340 -0.032194
vn -0.830387 -0.506404 0.232406
vn -0.473282 0.874021 0.109961
vn 0.574235 0.767496 -0.284965
vn 0.904737 0.265264 -0.333297
vn 0.885691 0.335489 -0.320935
vn 0.233313 -0.018374 -0.972228
vn -0.656885 0.751348 0.063080
vn -0.095091 0.392310 -0.914905
vn 0.116394 0.978754 -0.168797
vn 0.847129 -0.446178 -0.288613
vn 0.850449 -0.439539 -0.289036
vn -0.310125 -0.949061 0.055732
vn 0.849132 -0.442188 -0.288869
vn 0.849132 -0.442188 -0.288869
vn -0.844649 -0.453854 0.283873
vn -0.926292 0.253091 0.279158
vn -0.941727 0.195235 0.273922
vn -0.356559 0.932284 0.060921
vn -0.845351 -0.452293 0.284276
vn -0.845351 -0.452293 0.284276
vn 0.918018 0.218622 -0.330828
vn 0.530639 0.811304 -0.245375
vn -0.846410 -0.449923 0.284885
vn -0.720467 0.667243 0.188982
vn 0.267394 -0.954019 -0.135457
vn -0.638037 -0.752425 0.163600
vn 0.552746 -0.799936 -0.233612
vn 0.777127 -0.550219 -0.305502
vn 0.775176 -0.553028 -0.305390
vn -0.732380 0.020644 -0.680583
vn 0.491237 0.840725 -0.227746
vn 0.924943 0.164859 -0.342494
vn -0.365782 -0.536347 -0.760615
vn -0.691779 -0.130375 -0.710242
vn -0.546598 0.327834 -0.770555
vn -0.265038 -0.085365 -0.960452
vn -0.667695 0.742378 0.055305
vn -0.973025 -0.068838 0.220191
vn 0.223569 0.289965 0.930557
vn -0.509557 0.447135 -0.735134
vn -0.060529 0.433842 -0.898953
vn 0.223148 0.290404 0.930522
vn -0.879055 0.400657 0.258334
vn -0.318934 -0.019636 -0.947574
vn -0.318934 -0.019636 -0.947574
vn -0.318934 -0.019636 -0.947574
vn -0.845003 -0.453141 0.283958
vn -0.917606 0.315473 0.241817
vn -0.844999 -0.453151 0.283956
vn 0.849593 -0.441331 -0.288823
vn 0.849593 -0.441331 -0.288823
vn 0.850120 -0.440272 -0.288890
vn -0.321226 0.324687 -0.889602
vn -0.321226 0.324687 -0.889602
vn -0.321335 0.324824 -0.889513
vn 0.709443 0.636714 -0.302136
vn 0.401013 0.883643 -0.241586
vn 0.042407 0.988251 -0.146837
vn 0.711525 0.634427 -0.302052
vn -0.630501 0.773809 0.060732
vn -0.739252 -0.638212 0.214924
vn -0.899552 0.401369 0.172365
vn -0.898296 0.404699 0.171124
vn -0.627079 0.776703 0.059204
vn -0.735846 -0.642073 0.215109
vn -0.499165 -0.851017 0.163107
vn -0.136915 -0.987655 0.076105
vn 0.440182 -0.893349 -0.090377
vn 0.876757 -0.408991 -0.253028
vn 0.697473 -0.693154 -0.181851
vn 0.875421 -0.411917 -0.252907
vn 0.310776 0.215544 0.925721
vn -0.017415 0.999338 -0.031939
vn -0.016847 0.999340 -0.032194
vn -0.016847 0.999340 -0.032194
vn -0.031126 -0.453157 -0.890887
vn -0.315670 -0.003252 -0.948863
vn -0.487957 -0.435361 -0.756544
vn 0.310872 0.215697 0.925653
vn 0.310872 0.215697 0.925653
vn 0.311002 0.215903 0.925561
vn -0.289679 0.440678 -0.849641
vn 0.443947 0.309686 0.840836
vn 0.615085 -0.013063 0.788352
vn 0.185622 -0.026636 -0.982260
vn -0.845002 -0.453145 0.283957
vn -0.015991 0.999341 -0.032579
vn 0.878845 0.333309 -0.341374
vn 0.467814 0.853353 -0.230083
vn 0.893944 0.267170 -0.359838
vn 0.848794 -0.442932 -0.288721
vn -0.845002 -0.453145 0.283957
vn 0.127321 0.322606 0.937931
vn -0.020013 0.020020 0.999599
vn 0.315780 0.003693 0.948825
vn -0.712316 0.680936 0.170095
vn -0.349810 0.935379 0.051960
vn -0.903864 0.350872 0.244782
vn 0.476877 0.845628 -0.239796
vn -0.219992 0.971595 -0.087221
vn 0.383840 0.344934 0.856556
vn 0.567568 0.731674 -0.377518
vn 0.592468 0.707093 -0.386006
vn 0.917080 -0.006928 -0.398644
vn 0.916380 -0.025552 -0.399493
vn 0.383750 0.344825 0.856639
vn -0.762622 -0.590531 0.263971
vn -0.763263 -0.589610 0.264177
vn -0.763263 -0.589610 0.264177
vn -0.278686 0.324574 -0.903873
vn -0.279125 0.326281 -0.903122
vn -0.278922 0.325490 -0.903470
vn -0.278922 0.325490 -0.903470
vn 0.315536 0.144034 0.937919
vn 0.315918 0.144728 0.937683
vn -0.291845 0.427914 -0.855404
vn 0.315690 0.144315 0.937824
vn 0.315690 0.144315 0.937824
vn 0.383788 0.344872 0.856604
vn 0.838918 0.344296 -0.421517
vn 0.383788 0.344872 0.856604
vn 0.396450 0.514983 -0.760013
vn -0.745943 -0.016557 -0.665804
vn -0.745943 -0.016557 -0.665804
vn 0.603438 -0.422703 -0.676154
vn 0.603054 -0.423701 -0.675873
vn -0.745943 -0.016557 -0.665804
vn 0.399304 0.504928 -0.765247
vn -0.396084 0.516301 0.759310
vn -0.418400 0.506036 0.754234
vn -0.398936 0.506285 0.764543
vn 0.684849 0.080424 0.724233
vn -0.687544 -0.465215 0.557546
vn 0.644591 0.154474 0.748759
vn -0.761168 -0.512219 -0.397812
vn -0.391362 -0.897220 -0.204531
vn -0.761168 -0.512219 -0.397812
vn 0.761479 -0.511630 0.397975
vn 0.761479 -0.511630 0.397975
vn -0.379294 0.506289 0.774472
vn 0.506147 -0.820877 0.264530
vn 0.418325 0.504683 -0.755181
vn 0.730429 0.234425 -0.641497
vn 0.749207 -0.266453 0.606376
vn 0.887516 0.011630 0.460630
vn 0.380092 0.504940 -0.774962
vn 0.687644 0.091291 0.720286
vn 0.560057 0.274169 0.781772
vn -0.289338 0.303911 0.907701
vn 0.603054 -0.423701 -0.675873
vn 0.179153 -0.947903 -0.263409
vn 0.533602 -0.533357 -0.656353
vn 0.376977 -0.787889 -0.486948
vn -0.603080 -0.520513 0.604450
vn -0.229308 -0.955218 0.187020
vn -0.601232 -0.523966 0.603307
vn 0.795935 0.312876 0.518262
vn 0.474587 0.012919 0.880114
vn 0.596576 -0.307161 0.741451
vn 0.687644 0.091291 0.720286
vn 0.375513 0.495234 -0.783411
vn -0.044625 0.998995 -0.004268
vn 0.428114 0.494727 -0.756282
vn -0.044625 0.998995 -0.004268
vn 0.482399 0.260297 0.836383
vn 0.813383 -0.314761 0.489217
vn 0.923491 -0.006591 0.383562
vn 0.741709 0.003364 0.670713
vn 0.531930 -0.536322 -0.655294
vn -0.464121 -0.765862 0.445025
vn -0.791095 -0.439620 -0.425327
vn -0.811358 0.442291 -0.382199
vn -0.501593 0.438677 -0.745632
vn -0.972692 0.010845 -0.231848
vn -0.589635 -0.470261 0.656647
vn -0.460104 -0.447783 -0.766678
vn -0.322983 -0.016521 -0.946261
vn -0.742055 -0.003149 -0.670332
vn 0.567991 0.319183 0.758623
vn -0.595486 0.535716 0.598669
vn 0.687644 0.091291 0.720286
vn -0.589585 -0.470437 0.656566
vn -0.589605 -0.470367 0.656598
vn -0.596200 0.533269 0.600141
vn 0.852376 0.179056 0.491318
vn 0.264356 0.313890 0.911915
vn -0.683869 0.250486 0.685259
vn -0.534728 0.663961 0.522707
vn -0.280410 0.928242 0.244412
vn -0.428191 0.496104 0.755336
vn -0.589605 -0.470367 0.656598
vn 0.345818 0.816958 -0.461508
vn 0.533873 0.523556 -0.663980
vn 0.532196 0.526615 -0.662906
vn -0.372031 0.862018 0.344264
vn -0.369752 0.864146 0.341373
vn 0.113132 0.973803 -0.197254
vn -0.664224 0.309723 0.680352
vn 0.651603 -0.059679 0.756209
vn 0.617518 0.276301 -0.736430
vn 0.618883 0.242950 -0.746967
vn 0.319049 0.840461 -0.437988
vn 0.312573 0.849127 -0.425771
vn 0.712411 0.269708 0.647864
vn 0.712324 0.269358 0.648105
vn 0.712266 0.269122 0.648268
vn 0.712324 0.269358 0.648105
vn 0.654758 -0.046570 0.754402
vn 0.654758 -0.046570 0.754402
vn 0.654758 -0.046570 0.754402
vn -0.682445 0.420966 -0.597542
vn -0.682521 0.420868 -0.597524
vn -0.682622 0.420738 -0.597500
vn -0.682521 0.420868 -0.597524
vn 0.738342 0.252265 0.625471
vn -0.307294 -0.894975 0.323404
vn 0.135173 -0.987297 -0.083498
vn -0.548215 -0.652112 0.523651
vn 0.545269 -0.668317 -0.505998
vn 0.617685 0.374448 -0.691559
vn 0.602474 -0.425201 -0.675447
vn 0.017611 -0.976925 -0.212858
vn -0.003928 0.643915 -0.765087
vn -0.865859 0.150155 0.477224
vn -0.865859 0.150155 0.477224
vn 0.852376 0.179056 0.491318
vn -0.004221 -0.979701 -0.200421
vn -0.680927 -0.379625 0.626278
vn -0.088317 0.319478 0.943469
vn -0.453453 0.281284 0.845730
vn 0.867469 -0.067192 0.492933
vn -0.380056 -0.392708 -0.837460
vn 0.061574 0.322363 0.944612
vn -0.604767 0.659547 0.446380
vn -0.603742 0.661732 0.444529
vn -0.682775 -0.375604 0.626690
vn 0.360767 -0.878790 -0.312369
vn 0.547136 -0.665779 -0.507327
vn -0.374734 0.496629 0.782901
vn 0.644395 0.154022 0.749021
vn -0.549946 -0.758739 0.349105
vn -0.279839 0.927951 0.246166
vn 0.360987 -0.045447 0.931463
vn 0.245905 -0.960738 0.128508
vn -0.066690 -0.997165 -0.034854
vn -0.689188 -0.094911 -0.718339
vn 0.624733 -0.565807 -0.538119
vn -0.689188 -0.094911 -0.718339
vn 0.625245 -0.564816 -0.538564
vn -0.689188 -0.094911 -0.718339
vn 0.023645 0.984033 -0.176410
vn -0.747044 0.411266 -0.522289
vn -0.948171 0.022248 -0.316980
vn -0.410254 0.328787 -0.850641
vn -0.782478 -0.464141 -0.415092
vn -0.426387 -0.548824 -0.719017
vn -0.246850 -0.162880 -0.955267
vn -0.684884 -0.079847 -0.724264
vn -0.336772 0.928390 0.157090
vn 0.193658 0.917677 -0.346937
vn 0.618907 0.371852 -0.691867
vn -0.339474 0.926879 0.160167
vn 0.435523 0.705442 -0.559170
vn -0.745482 0.284665 0.602679
vn 0.023867 0.983982 -0.176662
vn 0.023309 0.984109 -0.176029
vn 0.023645 0.984033 -0.176410
vn -0.669812 -0.318982 0.670524
vn -0.669612 -0.319842 0.670313
vn -0.669311 -0.321141 0.669994
vn 0.624733 -0.565807 -0.538119
vn 0.624393 -0.566462 -0.537823
vn -0.716685 0.374949 0.588027
vn -0.539652 0.764118 0.353412
vn -0.600105 0.356966 -0.715856
vn -0.237043 0.970478 0.044523
vn -0.013161 -0.982015 -0.188344
vn -0.003883 0.653411 -0.756993
vn 0.047519 -0.980906 -0.188589
vn -0.034350 0.661101 -0.749510
vn -0.025796 0.652630 -0.757238
vn 0.017398 -0.979545 -0.200474
vn 0.039008 -0.978931 -0.200432
vn 0.026646 0.663143 -0.748018
vn 0.018005 0.653878 -0.756385
vn 0.745124 0.016020 0.666734
vn -0.669612 -0.319842 0.670313
vn -0.045802 0.998947 -0.002666
vn -0.043843 0.999024 -0.005333
vn 0.745124 0.016020 0.666734
vn 0.745124 0.016020 0.666734
vn 0.382582 0.755637 -0.531643
vn 0.697536 0.006460 -0.716520
vn 0.698462 0.024484 -0.715229
vn 0.402384 0.731984 -0.549807
vn -0.577393 0.495399 -0.648997
vn -0.577276 0.494602 -0.649708
vn -0.577393 0.495399 -0.648997
vn 0.000599 0.999368 0.035555
vn -0.000130 0.999340 0.036322
vn 0.001083 0.999385 0.035046
vn 0.635242 0.522813 -0.568448
vn -0.577534 0.496371 -0.648128
vn 0.633849 0.525408 -0.567610
vn 0.771776 0.355001 0.527575
vn 0.678010 0.316719 0.663319
vn 0.678050 0.316809 0.663235
vn -0.696371 -0.513866 0.501008
vn 0.526721 0.414688 0.742023
vn 0.664787 -0.422941 -0.615775
vn 0.662600 -0.427638 -0.614888
vn 0.000599 0.999368 0.035555
vn -0.652854 0.048793 -0.755911
vn 0.663916 -0.424818 -0.615423
vn 0.663916 -0.424818 -0.615423
vn 0.677980 0.316654 0.663380
vn -0.751061 -0.382021 -0.538486
vn -0.600037 0.356059 -0.716364
vn -0.600037 0.356059 -0.716364
vn 0.485055 -0.364792 0.794763
vn 0.731545 -0.372955 0.570742
vn -0.245893 -0.960740 -0.128512
vn 0.066690 -0.997165 0.034854
vn -0.599977 0.355274 -0.716804
vn 0.403567 0.139737 0.904216
vn 0.678010 0.316719 0.663319
vn 0.436425 0.816750 -0.377430
vn -0.373042 0.865363 0.334645
vn -0.641248 0.540591 0.544576
vn 0.180168 0.974004 -0.137316
vn -0.642449 0.537631 0.546088
vn -0.761637 0.181569 0.622047
vn -0.652854 0.048793 -0.755911
vn -0.652854 0.048793 -0.755911
vn -0.370563 0.867379 0.332171
vn -0.694656 -0.517152 0.500007
vn 0.585260 -0.535852 -0.608550
vn -0.384181 0.491707 -0.781428
vn -0.202294 0.037494 -0.978607
vn -0.736975 0.495454 -0.459774
vn 0.399871 -0.785394 -0.472503
vn 0.587308 -0.532745 -0.609305
vn 0.514232 -0.204470 0.832921
vn -0.934750 0.067700 -0.348798
vn -0.293358 -0.949227 0.113620
vn 0.644131 0.153413 0.749373
vn -0.651804 0.060380 -0.755980
vn -0.575938 0.656343 0.487350
vn -0.743970 0.238031 0.624380
vn -0.687086 -0.466778 0.556805
vn -0.687086 -0.466778 0.556805
vn -0.686782 -0.467809 0.556314
vn 0.168749 -0.944249 -0.282698
vn 0.644395 0.154022 0.749021
vn 0.421678 0.822889 -0.380844
vn 0.730816 0.181360 -0.658040
vn 0.392845 0.851223 -0.347982
f 145/145/145 36/36/36 8/8/8
f 216/216/216 152/152/152 118/118/118
f 253/253/253 252/252/252 251/251/251
f 256/256/256 258/258/258 259/259/259
f 50/50/50 24/24/24 27/27/27
f 56/56/56 53/53/53 51/51/51
f 57/57/57 69/69/69 55/55/55
f 79/79/79 101/101/101 78/78/78
f 121/121/121 105/105/105 103/103/103
f 124/124/124 123/123/123 119/119/119
f 194/194/194 190/190/190 196/196/196
f 204/204/204 201/201/201 199/199/199
f 156/156/156 157/157/157 155/155/155
f 239/239/239 262/262/262 263/263/263
f 310/310/310 309/309/309 311/311/311
f 142/142/142 143/143/143 144/144/144
f 9/9/9 11/11/11 10/10/10
f 15/15/15 11/11/11 9/9/9
f 32/32/32 15/15/15 9/9/9
f 213/213/213 15/15/15 32/32/32
f 212/212/212 213/213/213 32/32/32
f 211/211/211 213/213/213 212/212/212
f 113/113/113 117/117/117 115/115/115
f 115/115/115 117/117/117 116/116/116
f 19/19/19 248/248/248 215/215/215
f 20/20/20 248/248/248 19/19/19
f 20/20/20 19/19/19 16/16/16
f 16/16/16 19/19/19 18/18/18
f 16/16/16 18/18/18 17/17/17
f 17/17/17 18/18/18 385/385/385
f 214/214/214 21/21/21 23/23/23
f 23/23/23 21/21/21 22/22/22
f 257/257/257 255/255/255 217/217/217
f 261/261/261 255/255/255 257/257/257
f 250/250/250 249/249/249 260/260/260
f 260/260/260 249/249/249 254/254/254
f 205/205/205 209/209/209 210/210/210
f 210/210/210 209/209/209 208/208/208
f 207/207/207 308/308/308 206/206/206
f 206/206/206 308/308/308 365/365/365
f 206/206/206 365/365/365 367/367/367
f 367/367/367 365/365/365 368/368/368
f 368/368/368 370/370/370 367/367/367
f 367/367/367 370/370/370 369/369/369
f 371/371/371 384/384/384 386/386/386
f 386/386/386 384/384/384 366/366/366
f 376/376/376 377/377/377 378/378/378
f 378/378/378 377/377/377 375/375/375
f 374/374/374 373/373/373 25/25/25
f 372/372/372 373/373/373 374/374/374
f 28/28/28 80/80/80 34/34/34
f 80/80/80 77/77/77 34/34/34
f 77/77/77 74/74/74 34/34/34
f 74/74/74 29/29/29 34/34/34
f 35/35/35 31/31/31 76/76/76
f 33/33/33 35/35/35 76/76/76
f 30/30/30 33/33/33 76/76/76
f 48/48/48 30/30/30 76/76/76
f 53/53/53 46/46/46 47/47/47
f 47/47/47 46/46/46 52/52/52
f 47/47/47 52/52/52 50/50/50
f 50/50/50 52/52/52 49/49/49
f 60/60/60 59/59/59 62/62/62
f 59/59/59 54/54/54 62/62/62
f 54/54/54 65/65/65 62/62/62
f 65/65/65 63/63/63 62/62/62
f 64/64/64 61/61/61 68/68/68
f 58/58/58 64/64/64 68/68/68
f 66/66/66 58/58/58 68/68/68
f 67/67/67 66/66/66 68/68/68
f 69/69/69 75/75/75 73/73/73
f 73/73/73 75/75/75 122/122/122
f 73/73/73 122/122/122 124/124/124
f 124/124/124 122/122/122 120/120/120
f 82/82/82 83/83/83 84/84/84
f 81/81/81 83/83/83 82/82/82
f 231/231/231 81/81/81 82/82/82
f 108/108/108 81/81/81 231/231/231
f 232/232/232 108/108/108 231/231/231
f 107/107/107 108/108/108 232/232/232
f 98/98/98 121/121/121 99/99/99
f 99/99/99 121/121/121 104/104/104
f 99/99/99 104/104/104 102/102/102
f 102/102/102 104/104/104 101/101/101
f 125/125/125 303/303/303 302/302/302
f 302/302/302 303/303/303 272/272/272
f 274/274/274 302/302/302 272/272/272
f 268/268/268 302/302/302 274/274/274
f 274/274/274 270/270/270 268/268/268
f 268/268/268 270/270/270 269/269/269
f 129/129/129 127/127/127 126/126/126
f 128/128/128 127/127/127 129/129/129
f 128/128/128 132/132/132 127/127/127
f 130/130/130 132/132/132 128/128/128
f 130/130/130 131/131/131 132/132/132
f 132/132/132 131/131/131 133/133/133
f 134/134/134 153/153/153 139/139/139
f 139/139/139 153/153/153 141/141/141
f 153/153/153 140/140/140 141/141/141
f 141/141/141 140/140/140 42/42/42
f 140/140/140 44/44/44 42/42/42
f 42/42/42 44/44/44 45/45/45
f 167/167/167 168/168/168 169/169/169
f 170/170/170 168/168/168 167/167/167
f 171/171/171 172/172/172 173/173/173
f 174/174/174 172/172/172 171/171/171
f 181/181/181 179/179/179 195/195/195
f 179/179/179 180/180/180 195/195/195
f 180/180/180 192/192/192 195/195/195
f 192/192/192 187/187/187 195/195/195
f 186/186/186 185/185/185 191/191/191
f 178/178/178 186/186/186 191/191/191
f 189/189/189 178/178/178 191/191/191
f 188/188/188 189/189/189 191/191/191
f 193/193/193 200/200/200 198/198/198
f 198/198/198 200/200/200 197/197/197
f 202/202/202 220/220/220 219/219/219
f 219/219/219 220/220/220 203/203/203
f 218/218/218 221/221/221 224/224/224
f 224/224/224 221/221/221 222/222/222
f 223/223/223 225/225/225 228/228/228
f 228/228/228 225/225/225 227/227/227
f 228/228/228 227/227/227 233/233/233
f 233/233/233 227/227/227 229/229/229
f 229/229/229 230/230/230 233/233/233
f 233/233/233 230/230/230 226/226/226
f 137/137/137 238/238/238 106/106/106
f 70/70/70 238/238/238 137/137/137
f 70/70/70 137/137/137 136/136/136
f 136/136/136 137/137/137 138/138/138
f 136/136/136 138/138/138 71/71/71
f 71/71/71 138/138/138 72/72/72
f 158/158/158 265/265/265 109/109/109
f 264/264/264 265/265/265 158/158/158
f 275/275/275 278/278/278 279/279/279
f 279/279/279 278/278/278 276/276/276
f 288/288/288 285/285/285 284/284/284
f 284/284/284 285/285/285 280/280/280
f 282/282/282 281/281/281 289/289/289
f 289/289/289 281/281/281 283/283/283
f 289/289/289 283/283/283 296/296/296
f 296/296/296 283/283/283 287/287/287
f 287/287/287 297/297/297 296/296/296
f 296/296/296 297/297/297 286/286/286
f 304/304/304 307/307/307 2/2/2
f 2/2/2 307/307/307 1/1/1
f 3/3/3 318/318/318 319/319/319
f 319/319/319 318/318/318 320/320/320
f 324/324/324 322/322/322 321/321/321
f 323/323/323 322/322/322 324/324/324
f 323/323/323 329/329/329 322/322/322
f 325/325/325 329/329/329 323/323/323
f 325/325/325 327/327/327 329/329/329
f 329/329/329 327/327/327 328/328/328
f 326/326/326 331/331/331 330/330/330
f 330/330/330 331/331/331 332/332/332
f 331/331/331 333/333/333 332/332/332
f 332/332/332 333/333/333 335/335/335
f 333/333/333 334/334/334 335/335/335
f 335/335/335 334/334/334 336/336/336
f 337/337/337 344/344/344 345/345/345
f 345/345/345 344/344/344 346/346/346
f 347/347/347 175/175/175 184/184/184
f 184/184/184 175/175/175 176/176/176
f 338/338/338 339/339/339 340/340/340
f 340/340/340 339/339/339 352/352/352
f 356/356/356 315/315/315 316/316/316
f 316/316/316 315/315/315 317/317/317
f 314/314/314 357/357/357 351/351/351
f 351/351/351 357/357/357 312/312/312
f 313/313/313 363/363/363 361/361/361
f 361/361/361 363/363/363 362/362/362
f 361/361/361 362/362/362 354/354/354
f 354/354/354 362/362/362 364/364/364
f 364/364/364 355/355/355 354/354/354
f 354/354/354 355/355/355 353/353/353
f 379/379/379 383/383/383 382/382/382
f 382/382/382 383/383/383 380/380/380
f 381/381/381 38/38/38 37/37/37
f 37/37/37 38/38/38 39/39/39
f 237/237/237 236/236/236 182/182/182
f 235/235/235 236/236/236 237/237/237
f 235/235/235 267/267/267 236/236/236
f 242/242/242 267/267/267 235/235/235
f 242/242/242 240/240/240 267/267/267
f 267/267/267 240/240/240 241/241/241
f 245/245/245 291/291/291 266/266/266
f 266/266/266 291/291/291 277/277/277
f 291/291/291 290/290/290 277/277/277
f 277/277/277 290/290/290 292/292/292
f 290/290/290 293/293/293 292/292/292
f 292/292/292 293/293/293 294/294/294
f 13/13/13 5/5/5 4/4/4
f 5/5/5 6/6/6 4/4/4
f 6/6/6 7/7/7 4/4/4
f 7/7/7 14/14/14 4/4/4
f 14/14/14 12/12/12 4/4/4
f 12/12/12 13/13/13 4/4/4
f 146/146/146 148/148/148 151/151/151
f 148/148/148 149/149/149 151/151/151
f 149/149/149 150/150/150 151/151/151
f 150/150/150 147/147/147 151/151/151
f 147/147/147 114/114/114 151/151/151
f 114/114/114 146/146/146 151/151/151
f 165/165/165 26/26/26 164/164/164
f 26/26/26 162/162/162 164/164/164
f 162/162/162 159/159/159 164/164/164
f 159/159/159 163/163/163 164/164/164
f 163/163/163 166/166/166 164/164/164
f 166/166/166 165/165/165 164/164/164
f 85/85/85 91/91/91 89/89/89
f 91/91/91 92/92/92 89/89/89
f 92/92/92 87/87/87 89/89/89
f 87/87/87 88/88/88 89/89/89
f 88/88/88 86/86/86 89/89/89
f 86/86/86 85/85/85 89/89/89
f 96/96/96 93/93/93 95/95/95
f 93/93/93 90/90/90 95/95/95
f 90/90/90 94/94/94 95/95/95
f 94/94/94 97/97/97 95/95/95
f 97/97/97 100/100/100 95/95/95
f 100/100/100 96/96/96 95/95/95
f 40/40/40 160/160/160 41/41/41
f 160/160/160 161/161/161 41/41/41
f 161/161/161 135/135/135 41/41/41
f 135/135/135 154/154/154 41/41/41
f 154/154/154 43/43/43 41/41/41
f 43/43/43 40/40/40 41/41/41
f 111/111/111 298/298/298 301/301/301
f 298/298/298 299/299/299 301/301/301
f 299/299/299 300/300/300 301/301/301
f 300/300/300 273/273/273 301/301/301
f 273/273/273 271/271/271 301/301/301
f 271/271/271 111/111/111 301/301/301
f 246/246/246 110/110/110 244/244/244
f 110/110/110 112/112/112 244/244/244
f 112/112/112 234/234/234 244/244/244
f 234/234/234 243/243/243 244/244/244
f 243/243/243 247/247/247 244/244/244
f 247/247/247 246/246/246 244/244/244
f 177/177/177 349/349/349 360/360/360
f 349/349/349 348/348/348 360/360/360
f 348/348/348 358/358/358 360/360/360
f 358/358/358 359/359/359 360/360/360
f 359/359/359 183/183/183 360/360/360
f 183/183/183 177/177/177 360/360/360
f 306/306/306 350/350/350 342/342/342
f 350/350/350 341/341/341 342/342/342
f 341/341/341 343/343/343 342/342/342
f 343/343/343 295/295/295 342/342/342
f 295/295/295 305/305/305 342/342/342
f 305/305/305 306/306/306 342/342/342
f 446/446/446 425/425/425 412/412/412
f 491/491/491 413/413/413 450/450/450
f 495/495/495 489/489/489 490/490/490
f 551/551/551 555/555/555 556/556/556
f 401/401/401 400/400/400 402/402/402
f 404/404/404 406/406/406 403/403/403
f 392/392/392 389/389/389 388/388/388
f 511/511/511 513/513/513 515/515/515
f 473/473/473 474/474/474 475/475/475
f 598/598/598 599/599/599 578/578/578
f 413/413/413 451/451/451 498/498/498
f 498/498/498 451/451/451 494/494/494
f 498/498/498 494/494/494 495/495/495
f 495/495/495 494/494/494 414/414/414
f 486/486/486 391/391/391 415/415/415
f 415/415/415 391/391/391 390/390/390
f 542/542/542 492/492/492 547/547/547
f 492/492/492 487/487/487 547/547/547
f 487/487/487 548/548/548 547/547/547
f 548/548/548 544/544/544 547/547/547
f 546/546/546 545/545/545 543/543/543
f 488/488/488 546/546/546 543/543/543
f 550/550/550 488/488/488 543/543/543
f 549/549/549 550/550/550 543/543/543
f 554/554/554 429/429/429 427/427/427
f 427/427/427 429/429/429 553/553/553
f 426/426/426 411/411/411 393/393/393
f 411/411/411 387/387/387 393/393/393
f 387/387/387 407/407/407 393/393/393
f 407/407/407 428/428/428 393/393/393
f 395/395/395 455/455/455 396/396/396
f 394/394/394 395/395/395 396/396/396
f 405/405/405 394/394/394 396/396/396
f 504/504/504 405/405/405 396/396/396
f 587/587/587 401/401/401 510/510/510
f 510/510/510 401/401/401 588/588/588
f 510/510/510 588/588/588 509/509/509
f 509/509/509 588/588/588 406/406/406
f 418/418/418 417/417/417 434/434/434
f 416/416/416 417/417/417 418/418/418
f 420/420/420 416/416/416 418/418/418
f 435/435/435 416/416/416 420/420/420
f 421/421/421 435/435/435 420/420/420
f 419/419/419 435/435/435 421/421/421
f 440/440/440 448/448/448 456/456/456
f 456/456/456 448/448/448 447/447/447
f 461/461/461 449/449/449 445/445/445
f 460/460/460 449/449/449 461/461/461
f 460/460/460 461/461/461 462/462/462
f 462/462/462 461/461/461 457/457/457
f 462/462/462 457/457/457 458/458/458
f 458/458/458 457/457/457 459/459/459
f 452/452/452 463/463/463 453/453/453
f 453/453/453 463/463/463 454/454/454
f 453/453/453 454/454/454 468/468/468
f 468/468/468 454/454/454 467/467/467
f 467/467/467 466/466/466 468/468/468
f 468/468/468 466/466/466 465/465/465
f 471/471/471 470/470/470 472/472/472
f 472/472/472 470/470/470 469/469/469
f 478/478/478 477/477/477 479/479/479
f 479/479/479 477/477/477 476/476/476
f 524/524/524 499/499/499 500/500/500
f 527/527/527 499/499/499 524/524/524
f 527/527/527 524/524/524 525/525/525
f 525/525/525 524/524/524 528/528/528
f 525/525/525 528/528/528 526/526/526
f 526/526/526 528/528/528 485/485/485
f 501/501/501 483/483/483 493/493/493
f 493/493/493 483/483/483 481/481/481
f 483/483/483 482/482/482 481/481/481
f 481/481/481 482/482/482 502/502/502
f 482/482/482 503/503/503 502/502/502
f 502/502/502 503/503/503 484/484/484
f 529/529/529 538/538/538 539/539/539
f 539/539/539 538/538/538 541/541/541
f 539/539/539 541/541/541 557/557/557
f 557/557/557 541/541/541 560/560/560
f 560/560/560 558/558/558 557/557/557
f 557/557/557 558/558/558 559/559/559
f 530/530/530 532/532/532 516/516/516
f 516/516/516 532/532/532 531/531/531
f 514/514/514 536/536/536 512/512/512
f 512/512/512 536/536/536 537/537/537
f 535/535/535 534/534/534 552/552/552
f 552/552/552 534/534/534 533/533/533
f 583/583/583 584/584/584 540/540/540
f 589/589/589 584/584/584 583/583/583
f 581/581/581 591/591/591 571/571/571
f 571/571/571 591/591/591 572/572/572
f 573/573/573 506/506/506 601/601/601
f 601/601/601 506/506/506 610/610/610
f 506/506/506 618/618/618 610/610/610
f 610/610/610 618/618/618 606/606/606
f 618/618/618 607/607/607 606/606/606
f 606/606/606 607/607/607 602/602/602
f 563/563/563 561/561/561 568/568/568
f 562/562/562 561/561/561 563/563/563
f 567/567/567 592/592/592 569/569/569
f 595/595/595 592/592/592 567/567/567
f 595/595/595 600/600/600 592/592/592
f 593/593/593 600/600/600 595/595/595
f 593/593/593 596/596/596 600/600/600
f 600/600/600 596/596/596 594/594/594
f 505/505/505 619/619/619 611/611/611
f 399/399/399 619/619/619 505/505/505
f 398/398/398 616/616/616 615/615/615
f 615/615/615 616/616/616 617/617/617
f 622/622/622 621/621/621 408/408/408
f 620/620/620 621/621/621 622/622/622
f 622/622/622 507/507/507 620/620/620
f 613/613/613 507/507/507 622/622/622
f 613/613/613 614/614/614 507/507/507
f 597/597/597 614/614/614 613/613/613
f 566/566/566 564/564/564 577/577/577
f 577/577/577 564/564/564 565/565/565
f 576/576/576 580/580/580 579/579/579
f 579/579/579 580/580/580 575/575/575
f 480/480/480 430/430/430 464/464/464
f 430/430/430 508/508/508 464/464/464
f 508/508/508 585/585/585 464/464/464
f 585/585/585 586/586/586 464/464/464
f 586/586/586 496/496/496 464/464/464
f 496/496/496 480/480/480 464/464/464
f 604/604/604 497/497/497 612/612/612
f 497/497/497 582/582/582 612/612/612
f 582/582/582 609/609/609 612/612/612
f 609/609/609 605/605/605 612/612/612
f 605/605/605 603/603/603 612/612/612
f 603/603/603 604/604/604 612/612/612
f 436/436/436 439/439/439 443/443/443
f 439/439/439 437/437/437 443/443/443
f 437/437/437 438/438/438 443/443/443
f 438/438/438 442/442/442 443/443/443
f 442/442/442 441/441/441 443/443/443
f 441/441/441 436/436/436 443/443/443
f 432/432/432 422/422/422 433/433/433
f 422/422/422 444/444/444 433/433/433
f 444/444/444 423/423/423 433/433/433
f 423/423/423 424/424/424 433/433/433
f 424/424/424 431/431/431 433/433/433
f 431/431/431 432/432/432 433/433/433
f 519/519/519 522/522/522 523/523/523
f 522/522/522 521/521/521 523/523/523
f 521/521/521 520/520/520 523/523/523
f 520/520/520 518/518/518 523/523/523
f 518/518/518 517/517/517 523/523/523
f 517/517/517 519/519/519 523/523/523
f 410/410/410 570/570/570 397/397/397
f 570/570/570 574/574/574 397/397/397
f 574/574/574 590/590/590 397/397/397
f 590/590/590 608/608/608 397/397/397
f 608/608/608 409/409/409 397/397/397
f 409/409/409 410/410/410 397/397/397
