# Exported by s4extract — object_sitBarstoolQA_01_lod00_g02
o object_sitBarstoolQA_01_lod00_g02
v -0.092532 0.247047 -0.223457
v -0.230384 0.247047 0.002411
v -0.187963 0.247047 -0.133457
v 0.027924 0.247047 0.234474
v 0.203375 0.266793 -0.042299
v 0.165105 0.247047 0.075198
v 0.186499 0.266793 0.085910
v 0.043703 0.247047 -0.230293
v 0.023011 0.247047 0.189184
v 0.184332 0.247047 -0.043336
v -0.092532 0.247047 -0.223457
v 0.024812 0.266793 0.210486
v 0.164373 0.663594 0.159062
v 0.071474 0.663350 0.133671
v 0.157598 0.577105 0.149937
v 0.122837 0.583148 0.168157
v 0.082614 0.583056 0.134617
v 0.159398 0.415693 0.090182
v 0.139653 0.663167 0.066164
v 0.154180 0.577380 0.066866
v 0.154180 0.577380 0.066866
v 0.096408 0.415845 0.154546
v 0.091556 0.129887 0.119053
v 0.093539 0.312723 0.140141
v 0.140538 0.582659 0.077273
v 0.151708 -0.000061 0.107578
v 0.144200 0.312113 0.088778
v 0.091556 0.129887 0.119053
v 0.159398 0.415693 0.090182
v 0.072726 0.577624 0.148656
v 0.174230 0.583026 0.118351
v 0.121982 0.129765 0.088260
v 0.121982 0.129765 0.088260
v 0.144200 0.312113 0.088778
v 0.093539 0.312723 0.140141
v -0.071627 0.266793 0.190649
v -0.063906 0.247047 0.168004
v -0.187750 0.247047 0.003204
v -0.208258 0.266793 0.001526
v -0.169774 0.266793 -0.123264
v -0.151250 0.247047 -0.113346
v -0.083316 0.266793 -0.201025
v 0.037935 0.266793 -0.210273
v -0.083316 0.266793 -0.201025
v -0.075900 0.247047 -0.182897
v 0.158025 0.023591 0.154729
v 0.123661 0.663808 0.180761
v 0.184668 0.663625 0.116703
v 0.151708 -0.000061 0.107578
v 0.111484 -0.000214 0.148534
v 0.123142 0.000000 0.155675
v -0.075900 0.247047 -0.182897
v 0.161046 0.007874 0.159368
v 0.032258 0.247047 -0.188849
v 0.123142 0.000000 0.155675
v 0.158025 0.023591 0.154729
v 0.161046 0.007874 0.159368
v 0.151708 -0.000061 0.107578
v 0.111484 -0.000214 0.148534
v 0.158879 0.000305 0.119724
v 0.072726 0.577624 0.148656
v 0.111484 -0.000214 0.148534
v 0.123142 0.000000 0.155675
v 0.096408 0.415845 0.154546
v 0.192022 0.443220 0.128025
v 0.182287 0.447157 0.177435
v 0.166417 0.577685 0.161199
v 0.175359 0.393994 0.170080
v 0.156407 0.551836 0.148900
v 0.041078 0.551836 0.208319
v -0.214698 0.549455 -0.037721
v -0.159764 0.548906 -0.155248
v -0.102969 -0.000641 0.147496
v -0.115085 -0.000366 0.154637
v -0.090548 0.551256 0.186987
v -0.143895 -0.001312 0.107273
v -0.155919 0.006836 0.159703
v -0.149266 -0.002350 -0.103000
v -0.156438 -0.002197 -0.115116
v -0.109043 -0.002777 -0.143925
v -0.120701 -0.002716 -0.151067
v 0.148350 -0.001221 -0.119236
v 0.111240 -0.001953 -0.153783
v -0.158666 0.004852 -0.154851
v 0.151860 0.005860 -0.160253
v 0.185827 0.577960 0.115787
v 0.154180 0.577380 0.066866
v 0.174230 0.583026 0.118351
v 0.140538 0.582659 0.077273
v -0.159764 0.548906 -0.155248
v -0.188269 0.550340 0.093020
v 0.156713 0.661580 0.149358
v 0.152348 0.577074 0.144719
v 0.152348 0.577074 0.144719
v -0.159764 0.548906 -0.155248
v 0.041078 0.551836 0.208319
v 0.041017 0.575884 0.208197
v -0.090548 0.551256 0.186987
v -0.188269 0.550340 0.093020
v 0.156407 0.551836 0.148900
v -0.159764 0.548906 -0.155248
v 0.038972 0.575823 0.198096
v 0.156713 0.661580 0.149358
v 0.152348 0.577074 0.144719
v 0.041017 0.575884 0.208197
v -0.088534 0.575304 0.182318
v 0.108493 0.129276 0.132298
v 0.111881 0.300790 0.152776
v 0.129734 0.395886 0.178503
v 0.134251 0.443464 0.187078
v 0.121097 0.578143 0.179479
v 0.158879 0.000305 0.119724
v 0.135563 0.129154 0.105289
v 0.148473 0.029664 0.145299
v 0.156957 0.299997 0.107700
v 0.131321 0.128636 0.128086
v 0.185827 0.577960 0.115787
v 0.174230 0.583026 0.118351
v 0.157598 0.577105 0.149937
v 0.166417 0.577685 0.161199
v 0.166417 0.577685 0.161199
v 0.082614 0.583056 0.134617
v 0.072726 0.577624 0.148656
v 0.148839 0.289895 0.144719
v 0.183874 0.395703 0.124485
v 0.156407 0.551836 0.148900
v 0.156407 0.551836 0.148900
v 0.141667 -0.001404 -0.106845
v -0.151067 -0.001129 0.118900
v 0.099887 -0.002075 -0.146184
v 0.121097 0.578143 0.179479
v -0.214789 0.573504 -0.037843
v 0.122837 0.583148 0.168157
v -0.214698 0.549455 -0.037721
v -0.204077 0.658803 -0.103427
v -0.040437 0.658162 -0.225318
v -0.158208 0.658223 -0.154057
v -0.220099 0.658742 -0.035524
v 0.211310 0.551286 0.031343
v 0.184881 0.550401 -0.099368
v 0.211249 0.575335 0.031220
v -0.044557 0.572954 -0.214820
v -0.210517 0.670186 -0.106357
v -0.201270 0.683462 -0.101901
v -0.204077 0.658803 -0.103427
v -0.210517 0.670186 -0.106357
v -0.158208 0.658223 -0.154057
v -0.164556 0.683248 -0.160344
v -0.166051 0.659017 -0.162206
v -0.204077 0.658803 -0.103427
v -0.158208 0.658223 -0.154057
v -0.155705 0.574206 -0.151585
v -0.155705 0.574206 -0.151585
v -0.110294 0.669851 -0.209540
v -0.168676 0.669942 -0.165868
v -0.106845 0.658498 -0.203497
v 0.030091 0.658376 -0.226905
v 0.096927 0.658742 -0.205573
v 0.090213 0.658773 -0.196387
v -0.040437 0.658162 -0.225318
v 0.030091 0.658376 -0.226905
v 0.031068 0.670186 -0.233894
v -0.165502 0.672018 0.162786
v -0.041841 0.669942 -0.232643
v -0.105594 0.683157 -0.200140
v -0.038423 0.658254 -0.214484
v -0.110294 0.669851 -0.209540
v -0.040040 0.683248 -0.223090
v -0.041841 0.669942 -0.232643
v -0.200507 0.659688 0.100925
v 0.087191 0.549486 -0.193335
v -0.044465 0.548906 -0.214667
v 0.184881 0.550401 -0.099368
v 0.211310 0.551286 0.031343
v 0.084994 0.573565 -0.188971
v -0.044557 0.572954 -0.214820
v -0.042512 0.573016 -0.204749
v 0.087191 0.549486 -0.193335
v -0.038423 0.658254 -0.214484
v -0.166051 0.659017 -0.162206
v -0.155705 0.574206 -0.151585
v -0.158208 0.658223 -0.154057
v -0.042512 0.573016 -0.204749
v -0.038423 0.658254 -0.214484
v -0.166051 0.659017 -0.162206
v -0.164556 0.683248 -0.160344
v -0.220099 0.658742 -0.035524
v -0.160680 0.660146 0.157872
v -0.160680 0.660146 0.157872
v 0.090213 0.658773 -0.196387
v -0.155705 0.574206 -0.151585
v -0.168676 0.669942 -0.165868
v -0.158208 0.658223 -0.154057
v -0.106845 0.658498 -0.203497
v 0.084994 0.573565 -0.188971
v -0.044465 0.548906 -0.214667
v -0.168676 0.669942 -0.165868
v -0.166051 0.659017 -0.162206
v -0.168676 0.669942 -0.165868
v -0.106845 0.658498 -0.203497
v -0.183905 0.574419 0.090579
v -0.158208 0.658223 -0.154057
v -0.190832 0.659688 0.095828
v 0.164190 0.673055 0.157628
v 0.102969 0.661702 0.195074
v 0.106082 0.673147 0.201270
v 0.035371 0.686239 0.214698
v 0.033876 0.661122 0.206732
v 0.102969 0.661702 0.195074
v 0.156713 0.661580 0.149358
v 0.035920 0.661184 0.217566
v 0.035920 0.661184 0.217566
v 0.156713 0.661580 0.149358
v 0.037233 0.673055 0.224738
v -0.160833 0.685202 0.157811
v -0.165502 0.672018 0.162786
v -0.102237 0.672475 0.205023
v -0.100009 0.685659 0.197668
v -0.099063 0.660634 0.198523
v -0.102237 0.672475 0.205023
v -0.034150 0.660970 0.218909
v -0.035188 0.672842 0.225745
v -0.094333 0.660573 0.188665
v 0.185369 0.686239 0.088198
v 0.128117 0.713126 0.121097
v -0.214789 0.573504 -0.037843
v -0.183905 0.574419 0.090579
v -0.081301 0.712760 0.158452
v -0.161901 0.712149 0.080935
v -0.032411 0.686239 0.206000
v -0.152684 0.685507 0.149297
v -0.164556 0.683248 -0.160344
v -0.105594 0.683157 -0.200140
v -0.157781 0.683432 -0.154576
v -0.204627 0.573534 -0.036225
v -0.220099 0.658742 -0.035524
v -0.190832 0.659688 0.095828
v -0.223762 0.659169 0.034577
v -0.200507 0.659688 0.100925
v -0.223762 0.659169 0.034577
v -0.207007 0.671499 0.104251
v -0.230659 0.670980 0.035676
v -0.220099 0.658742 -0.035524
v -0.222724 0.683798 -0.035798
v -0.232246 0.670522 -0.037111
v -0.232246 0.670522 -0.037111
v -0.207007 0.671499 0.104251
v -0.230659 0.670980 0.035676
v -0.099063 0.660634 0.198523
v -0.094333 0.660573 0.188665
v 0.033876 0.661122 0.206732
v -0.034150 0.660970 0.218909
v -0.064150 0.731468 0.122745
v 0.022431 0.731773 0.134739
v -0.127140 0.731010 0.062166
v 0.186499 0.227302 0.085910
v -0.075900 0.247047 -0.182897
v -0.187750 0.247047 0.003204
v 0.130253 0.266793 0.167791
v 0.130253 0.227302 0.167791
v 0.027924 0.247047 0.234474
v 0.167119 0.247047 -0.160649
v 0.137333 0.247047 -0.130161
v 0.150731 0.227302 -0.145756
v -0.174596 0.227302 0.112766
v 0.150731 0.266793 -0.145756
v 0.203375 0.227302 -0.042299
v 0.023011 0.247047 0.189184
v -0.063906 0.247047 0.168004
v 0.116581 0.247047 0.151402
v 0.144902 0.247047 0.187078
v 0.023011 0.247047 0.189184
v 0.024812 0.266793 0.210486
v -0.079531 0.247047 0.211524
v -0.071627 0.227302 0.190649
v -0.083316 0.227302 -0.201025
v 0.226264 0.247047 -0.045015
v -0.169774 0.227302 -0.123264
v -0.083316 0.227302 -0.201025
v 0.165105 0.247047 0.075198
v 0.024812 0.227302 0.210486
v -0.161779 0.247047 0.098666
v 0.032258 0.247047 -0.188849
v -0.075900 0.247047 -0.182897
v 0.184332 0.247047 -0.043336
v 0.024812 0.227302 0.210486
v -0.199866 0.684744 0.101627
v -0.223243 0.684225 0.034028
v -0.088534 0.575304 0.182318
v 0.038972 0.575823 0.198096
v -0.035188 0.672842 0.225745
v 0.037233 0.673055 0.224738
v 0.176946 0.712760 0.020478
v 0.206000 0.685507 -0.040193
v -0.151250 0.247047 -0.113346
v 0.206793 0.247047 0.095248
v 0.116581 0.247047 0.151402
v 0.023011 0.247047 0.189184
v 0.137333 0.247047 -0.130161
v -0.192816 0.247047 0.126926
v -0.174596 0.266793 0.112766
v -0.161779 0.247047 0.098666
v -0.208258 0.227302 0.001526
v 0.037935 0.227302 -0.210273
v -0.222724 0.683798 -0.035798
v -0.211127 0.684561 0.031922
v -0.223243 0.684225 0.034028
v -0.160833 0.685202 0.157811
v -0.152684 0.685507 0.149297
v -0.100009 0.685659 0.197668
v -0.201270 0.683462 -0.101901
v -0.190802 0.683828 -0.096805
v -0.210456 0.684164 -0.034028
v -0.204627 0.573534 -0.036225
v 0.095340 0.686514 0.181341
v 0.029450 0.713126 0.173803
v -0.027223 0.730247 -0.143712
v -0.104312 0.730247 -0.102542
v 0.147282 0.686453 0.141331
v 0.211249 0.575335 0.031220
v 0.156224 0.686209 0.149937
v 0.217780 0.685659 0.027680
v 0.205512 0.685904 0.025910
v -0.153172 0.664602 0.149602
v 0.196203 0.685995 0.093661
v 0.122349 0.731010 -0.071139
v 0.059359 0.730522 -0.131718
v 0.137700 0.731468 0.014924
v -0.002441 0.743797 -0.004578
v 0.201086 0.575304 0.029572
v 0.101016 0.686300 0.191870
v -0.186926 0.575274 -0.117893
v -0.167516 0.574572 -0.163305
v -0.192419 0.440291 -0.128819
v -0.094607 0.685934 0.186529
v 0.154790 0.684256 -0.165532
v 0.159551 0.671010 -0.170354
v 0.096866 0.683798 -0.205725
v -0.181555 0.711570 -0.029176
v -0.211127 0.684561 0.031922
v -0.038362 0.683615 -0.212745
v -0.157781 0.683432 -0.154576
v -0.210456 0.684164 -0.034028
v -0.188940 0.685049 0.095798
v 0.159551 0.671010 -0.170354
v 0.154790 0.659200 -0.165288
v 0.100040 0.670553 -0.212226
v 0.096927 0.658742 -0.205573
v 0.164190 0.673055 0.157628
v 0.164190 0.673055 0.157628
v 0.156713 0.661580 0.149358
v 0.180364 0.574450 -0.097232
v 0.201086 0.575304 0.029572
v -0.034089 0.686026 0.217658
v 0.205512 0.685904 0.025910
v 0.033631 0.686453 0.204291
v 0.184851 0.685049 -0.103824
v 0.090335 0.684164 -0.194555
v 0.196570 0.659688 -0.108646
v 0.186743 0.659688 -0.103549
v 0.186743 0.659688 -0.103549
v 0.215644 0.660604 0.027772
v -0.151067 -0.001129 0.118900
v -0.115665 0.129032 0.086947
v -0.140965 0.028718 0.144169
v -0.143895 -0.001312 0.107273
v 0.156224 0.686209 0.149937
v 0.101016 0.686300 0.191870
v 0.106082 0.673147 0.201270
v 0.164190 0.673055 0.157628
v 0.156224 0.686209 0.149937
v 0.147282 0.686453 0.141331
v 0.147282 0.686453 0.141331
v -0.157781 0.683432 -0.154576
v 0.156224 0.686209 0.149937
v 0.202979 0.671499 -0.112125
v 0.218299 0.685232 -0.042177
v 0.226569 0.672018 -0.043519
v 0.226569 0.672018 -0.043519
v 0.220038 0.660176 -0.042390
v 0.202979 0.671499 -0.112125
v 0.154790 0.659200 -0.165288
v 0.215644 0.660604 0.027772
v 0.215644 0.660604 0.027772
v -0.123600 0.395184 0.178503
v -0.138524 0.311655 0.088382
v -0.089480 0.417341 0.153966
v -0.127537 0.442885 0.186529
v 0.196570 0.659688 -0.108646
v 0.220038 0.660176 -0.042390
v 0.156713 0.661580 0.149358
v 0.199683 0.661397 0.094974
v -0.094607 0.685934 0.186529
v 0.035371 0.686239 0.214698
v -0.034089 0.686026 0.217658
v 0.033631 0.686453 0.204291
v -0.034089 0.711173 -0.182470
v -0.132725 0.711173 -0.129765
v -0.100497 0.683554 -0.190222
v 0.099551 0.731742 0.093539
v 0.199683 0.661397 0.094974
v 0.215644 0.660604 0.027772
v 0.180364 0.574450 -0.097232
v -0.164556 0.683248 -0.160344
v -0.142491 0.730522 -0.023896
v 0.196265 0.684744 -0.108676
v 0.029847 0.683462 -0.225990
v 0.100040 0.670553 -0.212226
v 0.031068 0.670186 -0.233894
v -0.199866 0.684744 0.101627
v -0.188940 0.685049 0.095798
v -0.158696 0.574175 -0.152013
v -0.167516 0.574572 -0.163305
v -0.175390 0.580370 -0.120487
v -0.148320 0.576373 0.066042
v -0.087161 0.311686 0.139042
v -0.190802 0.683828 -0.096805
v 0.028169 0.683828 -0.214331
v 0.146611 0.684591 -0.157048
v 0.157292 0.712149 -0.089602
v 0.076693 0.711539 -0.167119
v 0.095340 0.686514 0.181341
v -0.032411 0.686239 0.206000
v 0.218299 0.685232 -0.042177
v 0.196265 0.684744 -0.108676
v 0.206000 0.685507 -0.040193
v -0.143895 -0.001312 0.107273
v -0.073855 0.575274 -0.150761
v -0.083743 0.580828 -0.136753
v -0.167516 0.574572 -0.163305
v 0.227424 0.672475 0.029145
v 0.205756 0.672842 0.098086
v -0.141697 0.580767 -0.079440
v -0.122227 0.575091 -0.181585
v -0.123997 0.580248 -0.170324
v -0.186926 0.575274 -0.117893
v -0.155309 0.575518 -0.068972
v -0.175390 0.580370 -0.120487
v -0.150304 0.022584 0.153722
v -0.118015 0.663015 0.178594
v -0.182104 0.662435 0.117618
v -0.067476 0.662893 0.133610
v -0.134983 0.662252 0.065401
v -0.102969 -0.000641 0.147496
v -0.182104 0.662435 0.117618
v -0.155919 0.006836 0.159703
v 0.227424 0.672475 0.029145
v 0.196203 0.685995 0.093661
v 0.217780 0.685659 0.027680
v 0.205756 0.672842 0.098086
v 0.154790 0.684256 -0.165532
v 0.146611 0.684591 -0.157048
v 0.090335 0.684164 -0.194555
v 0.029847 0.683462 -0.225990
v -0.153844 0.416761 0.090976
v -0.089480 0.417341 0.153966
v -0.087161 0.311686 0.139042
v -0.084872 0.129276 0.117374
v -0.105930 0.299417 0.151830
v -0.084872 0.129276 0.117374
v 0.185369 0.686239 0.088198
v -0.150304 0.022584 0.153722
v -0.038362 0.683615 -0.212745
v -0.100497 0.683554 -0.190222
v 0.028169 0.683828 -0.214331
v -0.040040 0.683248 -0.223090
v -0.102969 -0.000641 0.147496
v -0.140965 0.028718 0.144169
v 0.184851 0.685049 -0.103824
v 0.096866 0.683798 -0.205725
v -0.177618 0.394940 0.124332
v -0.151036 0.299631 0.106784
v -0.186590 0.442793 0.128758
v -0.115665 0.129032 0.086947
v -0.155919 0.006836 0.159703
v -0.115085 -0.000366 0.154637
v -0.118015 0.663015 0.178594
v -0.066530 0.577166 0.147496
v -0.153844 0.416761 0.090976
v -0.138524 0.311655 0.088382
v -0.124699 0.127781 0.126713
v -0.169164 0.389019 0.169988
v -0.128910 0.128330 0.103885
v -0.151036 0.299631 0.106784
v -0.142857 0.288919 0.143773
v -0.177618 0.394940 0.124332
v -0.101901 0.128544 0.130955
v -0.176977 0.441908 0.176763
v -0.124699 0.127781 0.126713
v -0.186590 0.442793 0.128758
v -0.142857 0.288919 0.143773
v -0.105930 0.299417 0.151830
v -0.127537 0.442885 0.186529
v -0.123600 0.395184 0.178503
v -0.169164 0.389019 0.169988
v -0.167882 0.581896 0.116153
v -0.118046 0.582385 0.167547
v -0.146367 0.582141 0.143925
v -0.176977 0.441908 0.176763
v -0.134312 0.581988 0.075930
v -0.148320 0.576373 0.066042
v -0.179144 0.576739 0.114414
v -0.155370 0.576586 0.154027
v -0.076968 0.582293 0.133854
v -0.167882 0.581896 0.116153
v -0.115452 0.577349 0.179144
v -0.179144 0.576739 0.114414
v 0.099887 -0.002075 -0.146184
v 0.081057 0.128391 -0.117588
v 0.141667 -0.001404 -0.106845
v 0.134800 0.310984 -0.091708
v 0.082186 0.310953 -0.141057
v 0.082186 0.310953 -0.141057
v 0.084475 0.415906 -0.156774
v 0.100040 0.298837 -0.154241
v 0.100040 0.298837 -0.154241
v 0.162786 0.388104 -0.175085
v 0.121006 0.441939 -0.191046
v 0.148350 -0.001221 -0.119236
v 0.060183 0.575732 -0.150700
v 0.099887 -0.002075 -0.146184
v 0.116855 0.394055 -0.181799
v 0.136967 0.027833 -0.144780
v 0.116855 0.394055 -0.181799
v 0.120457 0.127018 -0.128147
v 0.144749 0.576495 -0.072146
v 0.081057 0.128391 -0.117588
v 0.111240 -0.001953 -0.153783
v 0.120457 0.127018 -0.128147
v 0.097476 0.127598 -0.131474
v -0.118046 0.582385 0.167547
v -0.066530 0.577166 0.147496
v 0.151860 0.005860 -0.160253
v -0.115452 0.577349 0.179144
v 0.151860 0.005860 -0.160253
v 0.146123 0.021638 -0.154485
v 0.146123 0.021638 -0.154485
v 0.143345 0.662893 -0.159520
v 0.110660 0.661489 -0.186712
v 0.174078 0.662099 -0.125065
v 0.181036 0.442030 -0.134281
v 0.112674 0.128666 -0.088015
v 0.149907 0.416456 -0.094913
v 0.084475 0.415906 -0.156774
v 0.121006 0.441939 -0.191046
v 0.174078 0.662099 -0.125065
v 0.060305 0.661641 -0.137608
v 0.131077 0.662282 -0.072817
v 0.110660 0.661489 -0.186712
v 0.149907 0.416456 -0.094913
v 0.134800 0.310984 -0.091708
v 0.173040 0.394299 -0.129917
v 0.146825 0.298624 -0.110935
v 0.141667 -0.001404 -0.106845
v 0.112674 0.128666 -0.088015
v 0.137272 0.288034 -0.147496
v 0.169378 0.440809 -0.183294
v 0.125584 0.127812 -0.105533
v 0.136967 0.027833 -0.144780
v 0.137272 0.288034 -0.147496
v 0.173040 0.394299 -0.129917
v 0.162786 0.388104 -0.175085
v 0.169378 0.440809 -0.183294
v 0.146825 0.298624 -0.110935
v -0.159673 0.413068 -0.090701
v -0.096683 0.413068 -0.155065
v -0.155309 0.575518 -0.068972
v -0.149266 -0.002350 -0.103000
v -0.166051 0.660482 -0.162206
v -0.073153 0.661184 -0.136814
v -0.158696 0.574175 -0.152013
v -0.125340 0.660726 -0.183935
v 0.174444 0.576434 -0.122257
v -0.158666 0.004852 -0.154851
v 0.147801 0.575610 -0.161168
v 0.109500 0.581011 -0.172216
v 0.181036 0.442030 -0.134281
v 0.174444 0.576434 -0.122257
v -0.073855 0.575274 -0.150761
v -0.106906 0.126926 -0.129307
v -0.120701 -0.002716 -0.151067
v -0.111454 0.298135 -0.151921
v -0.109043 -0.002777 -0.143925
v -0.120396 0.127903 -0.085269
v -0.083743 0.580828 -0.136753
v -0.123997 0.580248 -0.170324
v -0.155736 0.020661 -0.150395
v 0.147801 0.575610 -0.161168
v 0.107303 0.575854 -0.183386
v -0.089969 0.127842 -0.116062
v -0.129856 0.392865 -0.178777
v -0.143803 0.310068 -0.088076
v -0.120396 0.127903 -0.085269
v -0.141697 0.580767 -0.079440
v -0.141331 0.661397 -0.069338
v -0.120701 -0.002716 -0.151067
v 0.162786 0.581469 -0.124424
v 0.107303 0.575854 -0.183386
v -0.134648 0.440474 -0.187872
v -0.093142 0.310373 -0.139470
v -0.089969 0.127842 -0.116062
v -0.149266 -0.002350 -0.103000
v -0.175390 0.580370 -0.120487
v -0.186346 0.660939 -0.119846
v -0.155736 0.020661 -0.150395
v 0.138066 0.581225 -0.151799
v 0.060183 0.575732 -0.150700
v -0.159673 0.413068 -0.090701
v -0.096683 0.413068 -0.155065
v -0.156438 -0.002197 -0.115116
v -0.129734 0.126194 -0.125095
v -0.184027 0.392865 -0.124760
v -0.182714 0.444166 -0.178259
v -0.133976 0.126988 -0.102298
v -0.122227 0.575091 -0.181585
v -0.146245 0.026917 -0.141057
v -0.175481 0.390912 -0.170324
v -0.148320 0.287118 -0.143742
v -0.156499 0.297647 -0.106845
v -0.109043 -0.002777 -0.143925
v -0.093142 0.310373 -0.139470
v -0.073855 0.575274 -0.150761
v -0.155309 0.575518 -0.068972
v -0.143803 0.310068 -0.088076
v 0.130711 0.581652 -0.082064
v 0.144749 0.576495 -0.072146
v 0.070589 0.581347 -0.137120
v 0.109500 0.581011 -0.172216
v 0.162786 0.581469 -0.124424
vt 0.097735 0.062744
vt 0.355386 0.062744
vt 0.270264 0.062744
vt 0.622633 0.062744
vt 0.355386 0.083796
vt 0.438802 0.110515
vt 0.438802 0.083796
vt 0.180755 0.062744
vt 0.622633 0.110515
vt 0.355386 0.110515
vt 0.180755 0.062744
vt 0.622633 0.083796
vt 0.756074 0.876917
vt 0.759883 0.992597
vt 0.649352 0.881305
vt 0.651637 0.926790
vt 0.656938 0.984310
vt 0.480540 0.791186
vt 0.751870 0.761208
vt 0.633875 0.771200
vt 0.633875 0.771200
vt 0.458848 0.700184
vt 0.173504 0.911953
vt 0.363368 0.949518
vt 0.649078 0.775618
vt 0.036651 0.847335
vt 0.365744 0.810319
vt 0.169635 0.787469
vt 0.480540 0.791186
vt 0.642497 0.988514
vt 0.648316 0.834356
vt 0.176063 0.832193
vt 0.176063 0.832193
vt 0.365744 0.810319
vt 0.350724 0.736256
vt 0.533155 0.083796
vt 0.533155 0.110515
vt 0.355386 0.110515
vt 0.355386 0.083796
vt 0.270264 0.083796
vt 0.270264 0.110515
vt 0.180755 0.083796
vt 0.180755 0.083796
vt 0.097735 0.083796
vt 0.180755 0.110515
vt 0.047344 0.895654
vt 0.759334 0.920910
vt 0.755557 0.830152
vt 0.036651 0.847335
vt 0.034701 0.789114
vt 0.972992 0.048212
vt 0.097735 0.110515
vt 0.978720 0.072067
vt 0.180755 0.110515
vt 0.044937 0.929745
vt 0.047344 0.895654
vt 0.029339 0.898335
vt 0.954713 0.051228
vt 0.963944 0.043124
vt 0.955749 0.063384
vt 0.607309 0.652657
vt 0.051701 0.941018
vt 0.044937 0.929745
vt 0.479657 0.978034
vt 0.512621 0.837190
vt 0.517983 0.885387
vt 0.633571 0.881152
vt 0.467714 0.884564
vt 0.887809 0.100248
vt 0.897132 0.127546
vt 0.976100 0.127485
vt 0.985392 0.100157
vt 0.932929 0.075753
vt 0.930401 0.067893
vt 0.921566 0.144393
vt 0.899112 0.077398
vt 0.914437 0.049217
vt 0.954713 0.051228
vt 0.955749 0.063384
vt 0.963944 0.043124
vt 0.972992 0.048212
vt 0.930401 0.067893
vt 0.900544 0.069538
vt 0.978720 0.072067
vt 0.914437 0.049217
vt 0.634820 0.831310
vt 0.633875 0.771200
vt 0.648316 0.834356
vt 0.649078 0.775618
vt 0.182583 0.768306
vt 0.951727 0.144393
vt 0.070803 0.126814
vt 0.161653 0.126814
vt 0.161653 0.126814
vt 0.182583 0.768306
vt 0.182491 0.256142
vt 0.161653 0.256142
vt 0.181882 0.385501
vt 0.182583 0.517876
vt 0.887809 0.100248
vt 0.985392 0.100157
vt 0.161653 0.256142
vt 0.070803 0.126814
vt 0.161653 0.126814
vt 0.161653 0.256142
vt 0.161622 0.385501
vt 0.176916 0.897238
vt 0.357914 0.922830
vt 0.464606 0.932183
vt 0.513657 0.932609
vt 0.637897 0.930233
vt 0.035066 0.857968
vt 0.175423 0.855104
vt 0.061937 0.893003
vt 0.358280 0.838043
vt 0.175362 0.879385
vt 0.634820 0.831310
vt 0.648316 0.834356
vt 0.649352 0.881305
vt 0.633571 0.881152
vt 0.633571 0.881152
vt 0.656938 0.984310
vt 0.642497 0.988514
vt 0.352248 0.880391
vt 0.465368 0.837037
vt 0.182430 0.126814
vt 0.182430 0.126814
vt 0.932929 0.075753
vt 0.900544 0.069538
vt 0.899112 0.077398
vt 0.637897 0.930233
vt 0.161744 0.640410
vt 0.651637 0.926790
vt 0.182583 0.640410
vt 0.070803 0.704358
vt 0.070803 0.640410
vt 0.066781 0.768306
vt 0.070803 0.640410
vt 0.182491 0.256142
vt 0.181882 0.385501
vt 0.161653 0.256142
vt 0.161744 0.640410
vt 0.055204 0.704358
vt 0.043627 0.704358
vt 0.070803 0.704358
vt 0.055204 0.704358
vt 0.066781 0.768306
vt 0.043841 0.768306
vt 0.066781 0.768306
vt 0.070803 0.704358
vt 0.066781 0.768306
vt 0.161744 0.768306
vt 0.161744 0.768306
vt 0.055204 0.704358
vt 0.055204 0.768306
vt 0.070803 0.704358
vt 0.070803 0.579143
vt 0.070803 0.517876
vt 0.070803 0.517876
vt 0.070803 0.640410
vt 0.070803 0.579143
vt 0.055204 0.579143
vt 0.055448 0.451673
vt 0.055204 0.640410
vt 0.043627 0.704358
vt 0.070803 0.640410
vt 0.055204 0.704358
vt 0.043627 0.640410
vt 0.055204 0.640410
vt 0.070803 0.517876
vt 0.951727 0.144393
vt 0.976100 0.127485
vt 0.921566 0.144393
vt 0.897132 0.127546
vt 0.161744 0.517876
vt 0.161744 0.640410
vt 0.161653 0.640410
vt 0.182583 0.517876
vt 0.070803 0.640410
vt 0.066781 0.768306
vt 0.161744 0.768306
vt 0.066781 0.768306
vt 0.161653 0.640410
vt 0.070803 0.640410
vt 0.066781 0.768306
vt 0.043841 0.768306
vt 0.070803 0.640410
vt 0.070803 0.451673
vt 0.070803 0.451673
vt 0.070803 0.517876
vt 0.161744 0.768306
vt 0.055204 0.768306
vt 0.066781 0.768306
vt 0.070803 0.704358
vt 0.161744 0.517876
vt 0.182583 0.640410
vt 0.055204 0.768306
vt 0.066781 0.768306
vt 0.055204 0.768306
vt 0.070803 0.704358
vt 0.161744 0.517876
vt 0.066781 0.768306
vt 0.070803 0.517876
vt 0.057367 0.126814
vt 0.070803 0.191494
vt 0.056819 0.191494
vt 0.043444 0.256142
vt 0.070803 0.256142
vt 0.070803 0.191494
vt 0.070803 0.126814
vt 0.070803 0.256142
vt 0.070803 0.256142
vt 0.070803 0.126814
vt 0.056240 0.256142
vt 0.043536 0.451673
vt 0.055448 0.451673
vt 0.055661 0.385501
vt 0.043444 0.385501
vt 0.070803 0.385501
vt 0.055661 0.385501
vt 0.070803 0.320822
vt 0.055966 0.320822
vt 0.070803 0.385501
vt 0.224626 0.321431
vt 0.259479 0.388152
vt 0.161744 0.640410
vt 0.161744 0.517876
vt 0.377260 0.550261
vt 0.482612 0.550261
vt 0.303045 0.562783
vt 0.429936 0.604034
vt 0.043841 0.768306
vt 0.043627 0.704358
vt 0.032507 0.768306
vt 0.161653 0.640410
vt 0.070803 0.640410
vt 0.070803 0.517876
vt 0.070803 0.579143
vt 0.070803 0.517876
vt 0.070803 0.579143
vt 0.055204 0.517876
vt 0.055204 0.579143
vt 0.070803 0.640410
vt 0.043627 0.640410
vt 0.055204 0.640410
vt 0.055204 0.640410
vt 0.055204 0.517876
vt 0.055204 0.579143
vt 0.070803 0.385501
vt 0.070803 0.385501
vt 0.070803 0.256142
vt 0.070803 0.320822
vt 0.389294 0.513184
vt 0.323549 0.465444
vt 0.470547 0.513184
vt 0.438802 0.035660
vt 0.180755 0.021402
vt 0.355386 0.021402
vt 0.533155 0.083796
vt 0.533155 0.035660
vt 0.622633 0.062744
vt 0.270264 0.062744
vt 0.270264 0.021402
vt 0.270264 0.035660
vt 0.438802 0.035660
vt 0.270264 0.083796
vt 0.355386 0.035660
vt 0.622633 0.021402
vt 0.533155 0.021402
vt 0.533155 0.021402
vt 0.533155 0.062744
vt 0.622633 0.110515
vt 0.622633 0.083796
vt 0.533155 0.062744
vt 0.533155 0.035660
vt 0.097735 0.035660
vt 0.355386 0.062744
vt 0.270264 0.035660
vt 0.180755 0.035660
vt 0.438802 0.021402
vt 0.622633 0.035660
vt 0.438802 0.110515
vt 0.180755 0.021402
vt 0.097735 0.021402
vt 0.355386 0.021402
vt 0.622633 0.035660
vt 0.043627 0.517876
vt 0.043627 0.579143
vt 0.161622 0.385501
vt 0.161653 0.256142
vt 0.055966 0.320822
vt 0.056240 0.256142
vt 0.292047 0.287979
vt 0.303045 0.213521
vt 0.270264 0.021402
vt 0.438802 0.062744
vt 0.533155 0.110515
vt 0.622633 0.021402
vt 0.270264 0.110515
vt 0.438802 0.062744
vt 0.438802 0.083796
vt 0.438802 0.021402
vt 0.355386 0.035660
vt 0.180755 0.035660
vt 0.043627 0.640410
vt 0.034091 0.579143
vt 0.043627 0.579143
vt 0.043536 0.451673
vt 0.034427 0.451673
vt 0.043444 0.385501
vt 0.043627 0.704358
vt 0.033482 0.704358
vt 0.034091 0.640410
vt 0.161653 0.640410
vt 0.224626 0.454872
vt 0.292047 0.488324
vt 0.536293 0.310859
vt 0.561397 0.388152
vt 0.035005 0.126814
vt 0.161653 0.256142
vt 0.043719 0.126814
vt 0.043444 0.256142
vt 0.035889 0.256142
vt 0.759608 0.736774
vt 0.043566 0.191494
vt 0.389294 0.263119
vt 0.470547 0.263119
vt 0.323549 0.310859
vt 0.429936 0.388152
vt 0.161653 0.256142
vt 0.043566 0.191494
vt 0.634820 0.831310
vt 0.633571 0.881152
vt 0.512621 0.837190
vt 0.359803 0.604034
vt 0.043536 0.451673
vt 0.055448 0.451673
vt 0.043627 0.517876
vt 0.567825 0.488324
vt 0.556827 0.562783
vt 0.613555 0.254741
vt 0.656908 0.388152
vt 0.613555 0.521562
vt 0.500069 0.604034
vt 0.055448 0.451673
vt 0.070803 0.451673
vt 0.055204 0.517876
vt 0.070803 0.517876
vt 0.057367 0.126814
vt 0.057367 0.126814
vt 0.070803 0.126814
vt 0.161622 0.385501
vt 0.161653 0.256142
vt 0.043444 0.320822
vt 0.246287 0.254741
vt 0.246318 0.521562
vt 0.359803 0.172270
vt 0.500069 0.172270
vt 0.070803 0.385501
vt 0.070803 0.385501
vt 0.070803 0.385501
vt 0.070803 0.256142
vt 0.808872 0.016040
vt 0.827944 0.158651
vt 0.772678 0.041601
vt 0.819109 0.018234
vt 0.043719 0.126814
vt 0.043566 0.191494
vt 0.056819 0.191494
vt 0.057367 0.126814
vt 0.043719 0.126814
vt 0.035005 0.126814
vt 0.202964 0.388152
vt 0.032507 0.768306
vt 0.043719 0.126814
vt 0.055661 0.385501
vt 0.043444 0.320822
vt 0.055966 0.320822
vt 0.055966 0.320822
vt 0.070803 0.320822
vt 0.055661 0.385501
vt 0.070803 0.451673
vt 0.070803 0.256142
vt 0.070803 0.256142
vt 0.715189 0.442990
vt 0.841166 0.349764
vt 0.667814 0.456517
vt 0.712264 0.491645
vt 0.070803 0.385501
vt 0.070803 0.320822
vt 0.070803 0.126814
vt 0.070803 0.191494
vt 0.034731 0.385501
vt 0.043444 0.256142
vt 0.043444 0.320822
vt 0.035889 0.256142
vt 0.567825 0.287979
vt 0.600363 0.388152
vt 0.635246 0.321431
vt 0.298445 0.388152
vt 0.070803 0.191494
vt 0.070803 0.256142
vt 0.161622 0.385501
vt 0.043841 0.768306
vt 0.536293 0.465444
vt 0.043444 0.385501
vt 0.043627 0.579143
vt 0.055204 0.517876
vt 0.055204 0.579143
vt 0.043627 0.517876
vt 0.034091 0.517876
vt 0.649352 0.881305
vt 0.633571 0.881152
vt 0.648316 0.834356
vt 0.866575 0.620942
vt 0.701906 0.340411
vt 0.635246 0.454872
vt 0.556827 0.213521
vt 0.429936 0.172270
vt 0.377260 0.226042
vt 0.482612 0.226042
vt 0.035462 0.191494
vt 0.035310 0.320822
vt 0.043444 0.320822
vt 0.043444 0.385501
vt 0.035310 0.320822
vt 0.819109 0.018234
vt 0.642497 0.988514
vt 0.656938 0.984310
vt 0.633571 0.881152
vt 0.056240 0.256142
vt 0.056819 0.191494
vt 0.649078 0.775618
vt 0.637897 0.930233
vt 0.651637 0.926790
vt 0.634820 0.831310
vt 0.633875 0.771200
vt 0.648316 0.834356
vt 0.770607 0.026855
vt 0.715402 0.738602
vt 0.801195 0.739973
vt 0.646519 0.736500
vt 0.872851 0.737749
vt 0.722866 0.030572
vt 0.801195 0.739973
vt 0.768596 0.008728
vt 0.056240 0.256142
vt 0.043566 0.191494
vt 0.043444 0.256142
vt 0.056819 0.191494
vt 0.043536 0.451673
vt 0.034427 0.451673
vt 0.034091 0.517876
vt 0.043627 0.579143
vt 0.854540 0.464987
vt 0.946639 0.448779
vt 0.915929 0.337852
vt 0.861822 0.154173
vt 0.729447 0.336116
vt 0.741420 0.159108
vt 0.035462 0.191494
vt 0.770607 0.026855
vt 0.034091 0.640410
vt 0.033482 0.704358
vt 0.034091 0.579143
vt 0.043627 0.640410
vt 0.871480 0.019208
vt 0.772678 0.041601
vt 0.034731 0.385501
vt 0.043627 0.517876
vt 0.810334 0.447713
vt 0.814295 0.341051
vt 0.807714 0.495331
vt 0.827944 0.158651
vt 0.768596 0.008728
vt 0.730635 0.024266
vt 0.715402 0.738602
vt 0.986001 0.599342
vt 0.854540 0.464987
vt 0.841166 0.349764
vt 0.780965 0.155757
vt 0.762655 0.447926
vt 0.805307 0.156976
vt 0.814295 0.341051
vt 0.772100 0.332703
vt 0.810334 0.447713
vt 0.756988 0.157494
vt 0.760705 0.497860
vt 0.780965 0.155757
vt 0.807714 0.495331
vt 0.772100 0.332703
vt 0.729447 0.336116
vt 0.712264 0.491645
vt 0.715189 0.442990
vt 0.762655 0.447926
vt 0.804028 0.631575
vt 0.716073 0.630478
vt 0.760949 0.630600
vt 0.760705 0.497860
vt 0.862066 0.635200
vt 0.866575 0.620942
vt 0.807440 0.617957
vt 0.759974 0.614910
vt 0.657334 0.633646
vt 0.804028 0.631575
vt 0.711960 0.616586
vt 0.807440 0.617957
vt 0.819109 0.018234
vt 0.827944 0.158651
vt 0.871480 0.019208
vt 0.915929 0.337852
vt 0.841166 0.349764
vt 0.841166 0.349764
vt 0.854540 0.464987
vt 0.814295 0.341051
vt 0.814295 0.341051
vt 0.762655 0.447926
vt 0.807714 0.495331
vt 0.730635 0.024266
vt 0.866575 0.620942
vt 0.819109 0.018234
vt 0.810334 0.447713
vt 0.772678 0.041601
vt 0.810334 0.447713
vt 0.780965 0.155757
vt 0.986001 0.599342
vt 0.827944 0.158651
vt 0.808872 0.016040
vt 0.780965 0.155757
vt 0.805307 0.156976
vt 0.716073 0.630478
vt 0.652673 0.619449
vt 0.768596 0.008728
vt 0.711960 0.616586
vt 0.768596 0.008728
vt 0.770607 0.026855
vt 0.770607 0.026855
vt 0.759608 0.736774
vt 0.801195 0.739973
vt 0.715402 0.738602
vt 0.712264 0.491645
vt 0.861822 0.154173
vt 0.946639 0.448779
vt 0.854540 0.464987
vt 0.807714 0.495331
vt 0.715402 0.738602
vt 0.872851 0.737749
vt 0.646519 0.736500
vt 0.801195 0.739973
vt 0.667814 0.456517
vt 0.701906 0.340411
vt 0.715189 0.442990
vt 0.729447 0.336116
vt 0.722866 0.030572
vt 0.741420 0.159108
vt 0.772100 0.332703
vt 0.760705 0.497860
vt 0.756988 0.157494
vt 0.772678 0.041601
vt 0.772100 0.332703
vt 0.715189 0.442990
vt 0.762655 0.447926
vt 0.760705 0.497860
vt 0.729447 0.336116
vt 0.480540 0.791186
vt 0.458848 0.700184
vt 0.633875 0.771200
vt 0.036651 0.847335
vt 0.756074 0.876917
vt 0.759883 0.992597
vt 0.649352 0.881305
vt 0.759334 0.920910
vt 0.711960 0.616586
vt 0.029339 0.898335
vt 0.759974 0.614910
vt 0.804028 0.631575
vt 0.712264 0.491645
vt 0.711960 0.616586
vt 0.642497 0.988514
vt 0.176916 0.897238
vt 0.044937 0.929745
vt 0.357914 0.922830
vt 0.034701 0.789114
vt 0.176063 0.832193
vt 0.656938 0.984310
vt 0.651637 0.926790
vt 0.047344 0.895654
vt 0.759974 0.614910
vt 0.807440 0.617957
vt 0.173504 0.911953
vt 0.464606 0.932183
vt 0.365744 0.810319
vt 0.176063 0.832193
vt 0.649078 0.775618
vt 0.751870 0.761208
vt 0.044937 0.929745
vt 0.716073 0.630478
vt 0.807440 0.617957
vt 0.513657 0.932609
vt 0.363368 0.949518
vt 0.169635 0.787469
vt 0.036651 0.847335
vt 0.648316 0.834356
vt 0.755557 0.830152
vt 0.047344 0.895654
vt 0.760949 0.630600
vt 0.866575 0.620942
vt 0.480540 0.791186
vt 0.479657 0.978034
vt 0.035066 0.857968
vt 0.175362 0.879385
vt 0.465368 0.837037
vt 0.517983 0.885387
vt 0.175423 0.855104
vt 0.637897 0.930233
vt 0.061937 0.893003
vt 0.467714 0.884564
vt 0.352248 0.880391
vt 0.358280 0.838043
vt 0.051701 0.941018
vt 0.350724 0.736256
vt 0.607309 0.652657
vt 0.633875 0.771200
vt 0.365744 0.810319
vt 0.657334 0.633646
vt 0.652673 0.619449
vt 0.862066 0.635200
vt 0.804028 0.631575
vt 0.716073 0.630478
vn -0.050116 -0.000000 -0.998743
vn -0.997009 0.000000 0.077291
vn -0.852410 0.000000 -0.522874
vn -0.208865 0.000000 0.977944
vn -0.003725 0.994912 -0.100680
vn -0.645826 0.744491 -0.169238
vn 0.082766 0.995862 -0.037539
vn 0.232607 -0.000000 -0.972571
vn 0.145488 0.745558 -0.650366
vn -0.695897 0.694903 0.181212
vn -0.686097 0.000000 -0.727510
vn -0.064392 0.951291 0.301495
vn 0.704931 -0.130001 0.697261
vn -0.654069 -0.096262 0.750285
vn 0.689942 -0.129191 0.712242
vn -0.225432 -0.134956 0.964867
vn -0.638278 -0.079527 0.765687
vn 0.779926 -0.080505 -0.620673
vn 0.744522 -0.083214 -0.662392
vn 0.808962 -0.039203 -0.586552
vn -0.705755 -0.126006 -0.697160
vn -0.711247 -0.045506 -0.701467
vn -0.611056 -0.039952 0.790578
vn -0.609265 -0.090955 0.787733
vn 0.755440 -0.096111 -0.648130
vn 0.811847 0.091217 -0.576701
vn 0.787551 -0.104051 -0.607402
vn -0.711371 0.013457 -0.702688
vn -0.714386 -0.030871 -0.699070
vn -0.584199 -0.035695 0.810825
vn 0.990799 -0.131119 0.033552
vn 0.788031 -0.046133 -0.613904
vn -0.705703 -0.132515 -0.696005
vn -0.708518 0.100277 -0.698532
vn -0.707883 0.098819 -0.699383
vn -0.082250 0.996025 0.034198
vn 0.337407 0.744140 -0.576552
vn 0.682328 0.724271 0.099295
vn -0.054481 0.994248 -0.092214
vn 0.182168 0.981611 0.057050
vn 0.557366 0.716847 0.418895
vn -0.042668 0.998210 -0.041903
vn 0.000000 1.000000 0.000000
vn -0.001737 0.998478 -0.055118
vn 0.496834 0.680763 0.538255
vn 0.288491 0.911063 0.294511
vn -0.260452 -0.146462 0.954313
vn 0.910954 -0.113730 -0.396521
vn -0.688729 -0.258486 -0.677375
vn -0.688225 -0.258723 -0.677797
vn 0.133305 -0.983266 0.124166
vn 0.040084 0.683876 0.728497
vn 0.183926 -0.967305 0.174621
vn -0.159954 0.731862 0.662414
vn -0.365105 0.569401 0.736533
vn 0.669139 0.325767 0.667929
vn 0.669139 0.325767 0.667929
vn 0.021534 -0.999616 0.017424
vn 0.018334 -0.999758 0.012157
vn 0.104279 -0.989861 0.096439
vn -0.702889 -0.128366 -0.699621
vn -0.577410 0.088431 0.811651
vn -0.063002 0.180990 0.981465
vn -0.620497 -0.074270 0.780684
vn 0.981936 -0.005893 -0.189119
vn 0.713287 0.068445 0.697522
vn 0.702148 0.128374 0.700363
vn 0.681847 -0.269441 0.680064
vn 0.003232 -0.999975 0.006273
vn 0.003320 -0.999975 0.006211
vn 0.003376 -0.999975 0.006165
vn 0.003271 -0.999975 0.006251
vn -0.008018 -0.999659 0.024845
vn -0.082434 -0.991258 0.103018
vn 0.003399 -0.999975 0.006208
vn -0.002699 -0.999763 0.021611
vn -0.150353 -0.973526 0.172165
vn -0.014625 -0.999885 -0.003936
vn -0.097775 -0.991667 -0.083886
vn -0.011902 -0.999929 0.000545
vn -0.126894 -0.985582 -0.111917
vn 0.096030 -0.991904 -0.083099
vn 0.121083 -0.986623 -0.109150
vn -0.177336 -0.970680 -0.162275
vn 0.162860 -0.974512 -0.154284
vn 0.389776 0.919352 -0.053541
vn 0.276263 0.937763 -0.210427
vn 0.318873 0.940823 -0.114773
vn 0.223506 0.955637 -0.191841
vn -0.886809 0.202412 -0.415450
vn 0.003450 -0.999975 0.006107
vn 0.904509 -0.107687 0.412634
vn 0.912218 -0.000460 0.409706
vn -0.006584 0.999933 -0.009516
vn -0.449014 0.198157 -0.871275
vn 0.156028 0.116748 0.980829
vn 0.154179 0.005407 0.988028
vn -0.527329 0.204590 0.824662
vn -0.857697 0.203333 0.472241
vn 0.003292 -0.999975 0.006210
vn 0.003272 -0.999975 0.006251
vn -0.008037 0.999958 -0.004415
vn 0.423920 -0.068776 0.903084
vn 0.445356 -0.001065 0.895353
vn -0.008037 0.999958 -0.004415
vn -0.003406 0.999980 -0.005353
vn -0.088652 0.003215 0.996057
vn -0.246247 -0.145810 0.958176
vn -0.208375 -0.200930 0.957187
vn -0.192642 -0.002892 0.981265
vn -0.132598 0.042923 0.990240
vn 0.973990 0.210433 -0.084031
vn 0.995821 0.000924 -0.091324
vn 0.676693 0.289065 0.677147
vn 0.956107 -0.154735 -0.248828
vn 0.706309 0.000583 0.707903
vn 0.991106 0.033882 -0.128687
vn -0.178739 0.979814 0.089537
vn -0.026996 0.999176 -0.030305
vn 0.427798 0.884065 0.188196
vn 0.045695 0.990465 0.129969
vn -0.195107 0.953097 0.231384
vn -0.214291 0.933927 0.286111
vn 0.685226 -0.238715 0.688099
vn 0.954824 -0.209049 -0.211209
vn 0.886058 0.210887 0.412830
vn 0.447218 0.215718 0.868022
vn 0.019881 -0.999794 -0.004051
vn -0.106922 -0.985902 0.128701
vn 0.017392 -0.999849 0.000428
vn -0.053720 0.916328 0.396808
vn -0.993279 -0.004369 -0.115660
vn -0.072562 0.969343 0.234753
vn -0.987198 0.106419 -0.118810
vn -0.018431 -0.999816 -0.005248
vn 0.000536 -0.999965 0.008351
vn -0.018431 -0.999816 -0.005248
vn -0.018431 -0.999816 -0.005248
vn 0.986604 0.113445 0.117226
vn 0.856398 0.203018 -0.474728
vn 0.993362 0.003105 0.114990
vn -0.153493 -0.006854 -0.988126
vn -0.740929 0.567780 -0.358677
vn -0.715756 0.611665 -0.336986
vn -0.780851 -0.527752 -0.334290
vn -0.754062 -0.559749 -0.343614
vn -0.058097 -0.997460 -0.041210
vn -0.704305 0.531044 -0.471112
vn -0.058097 -0.997460 -0.041210
vn -0.058097 -0.997460 -0.041210
vn -0.899155 -0.099966 -0.426061
vn -0.911906 0.014863 -0.410129
vn -0.003681 0.999984 0.004259
vn -0.397260 -0.522302 -0.754576
vn -0.522724 -0.456210 -0.720161
vn -0.396374 -0.495641 -0.772805
vn 0.003169 -0.999971 0.006962
vn 0.003649 -0.999975 0.005989
vn 0.003455 -0.999974 0.006368
vn -0.098859 -0.526918 -0.844147
vn 0.170567 -0.518160 -0.838103
vn 0.077502 -0.519566 -0.850908
vn -0.597269 -0.501610 0.625825
vn -0.182957 -0.529537 -0.828322
vn -0.412067 0.572826 -0.708570
vn -0.005353 -0.999924 -0.011116
vn -0.335201 0.609813 -0.718171
vn -0.146618 0.580470 -0.800973
vn -0.138458 0.589854 -0.795551
vn 0.003287 -0.999975 0.006239
vn 0.003398 -0.999975 0.006211
vn 0.003340 -0.999975 0.006212
vn 0.003449 -0.999975 0.006108
vn 0.003315 -0.999975 0.006211
vn -0.003650 0.999979 -0.005319
vn 0.001669 0.999978 -0.006399
vn 0.001669 0.999978 -0.006399
vn 0.525920 0.197968 -0.827174
vn 0.002169 -0.999970 0.007468
vn -0.045766 -0.997541 -0.053087
vn -0.444571 0.013516 -0.895642
vn -0.437681 -0.060598 -0.897086
vn -0.260123 -0.082970 -0.962004
vn -0.069834 -0.101403 -0.992391
vn -0.531088 -0.381226 -0.756711
vn -0.496405 0.459464 -0.736529
vn -0.988410 -0.148753 -0.030303
vn -0.592093 -0.514222 0.620485
vn 0.003602 -0.999976 0.005903
vn 0.531990 -0.105743 -0.840122
vn 0.007001 0.999948 -0.007482
vn -0.485622 0.544467 -0.683906
vn -0.005353 -0.999924 -0.011116
vn -0.005353 -0.999924 -0.011116
vn 0.342190 -0.056436 -0.937934
vn -0.156427 0.102948 -0.982310
vn -0.763063 -0.362637 -0.535004
vn -0.740722 -0.448694 -0.500005
vn -0.733069 0.441698 -0.517216
vn -0.024596 -0.999432 -0.023019
vn -0.909078 -0.050924 0.413501
vn -0.045766 -0.997541 -0.053087
vn -0.814621 -0.101380 0.571065
vn 0.491075 -0.615792 0.616154
vn 0.428475 -0.590252 0.684114
vn 0.358387 -0.519520 0.775666
vn 0.102558 0.584897 0.804598
vn 0.006820 -0.999933 0.009373
vn 0.010567 -0.999861 0.012898
vn 0.463903 -0.696675 0.547209
vn 0.006120 -0.999971 0.004479
vn 0.146977 -0.517139 0.843188
vn 0.011029 -0.999817 0.015635
vn 0.146568 -0.523317 0.839438
vn -0.617855 0.459556 0.638015
vn -0.611742 0.476591 0.631373
vn -0.338149 0.507182 0.792730
vn -0.416382 0.485021 0.769013
vn -0.368015 -0.521313 0.769933
vn -0.371100 -0.511024 0.775332
vn -0.163970 -0.508892 0.845069
vn -0.073271 -0.509418 0.857394
vn -0.440024 -0.096387 0.892798
vn 0.570745 0.772099 0.279490
vn 0.389639 0.842009 0.373098
vn -0.002810 0.999995 -0.001209
vn -0.001943 0.999976 -0.006662
vn -0.208251 0.861829 0.462475
vn -0.447602 0.858858 0.249027
vn -0.085626 0.798145 0.596350
vn -0.413948 0.806004 0.423090
vn -0.011083 0.999763 -0.018720
vn -0.014598 0.999470 -0.029092
vn -0.016257 0.999564 -0.024645
vn -0.962109 -0.131350 -0.238941
vn 0.004027 -0.999972 0.006305
vn 0.003813 -0.999975 0.005930
vn 0.003900 -0.999972 0.006373
vn -0.755515 -0.525872 0.390712
vn -0.837899 -0.515163 0.180365
vn -0.761484 -0.514536 0.394201
vn -0.798796 -0.595503 0.085442
vn -0.764880 -0.635512 -0.105278
vn -0.785609 0.594772 -0.170482
vn -0.686847 -0.720779 -0.093377
vn -0.826070 0.557306 -0.083779
vn -0.791793 0.496257 0.356080
vn -0.854750 0.497142 0.149173
vn 0.002863 -0.999967 0.007565
vn 0.003494 -0.999974 0.006243
vn 0.062170 -0.088312 0.994151
vn 0.003243 -0.999975 0.006341
vn -0.109816 0.978703 0.173439
vn 0.015580 0.979208 0.202262
vn -0.194158 0.977990 0.076410
vn 0.082766 -0.995862 -0.037539
vn 0.496834 -0.680763 0.538255
vn 0.682328 -0.724271 0.099295
vn 0.178996 0.956597 0.229963
vn 0.178996 -0.956597 0.229963
vn 0.375422 0.000000 0.926854
vn 0.775314 -0.000000 -0.631576
vn -0.479242 -0.720746 0.500852
vn -0.087181 -0.995648 0.032929
vn -0.070949 -0.994461 -0.077542
vn -0.087181 0.995648 0.032929
vn -0.003725 -0.994912 -0.100680
vn 0.145488 -0.745558 -0.650366
vn 0.337407 -0.744140 -0.576552
vn -0.410752 -0.746799 -0.523043
vn 0.614230 0.000000 0.789127
vn -0.260224 0.718993 -0.644463
vn -0.102028 0.962155 -0.252681
vn -0.372683 -0.000000 0.927959
vn -0.082250 -0.996025 0.034198
vn -0.001737 -0.998478 -0.055118
vn 0.998243 0.000000 -0.059247
vn 0.182168 -0.981611 0.057050
vn -0.042668 -0.998210 -0.041903
vn -0.645826 -0.744491 -0.169238
vn -0.064392 -0.951291 0.301495
vn 0.623630 0.696036 -0.355838
vn -0.159954 -0.731862 0.662414
vn 0.040084 -0.683876 0.728497
vn -0.695897 -0.694903 0.181212
vn -0.102028 -0.962155 -0.252681
vn -0.762829 0.482239 0.430741
vn -0.840606 0.522857 0.141428
vn -0.424275 -0.059624 0.903568
vn 0.251613 -0.084432 0.964138
vn -0.068446 0.556796 0.827825
vn 0.174164 0.617753 0.766843
vn 0.514973 0.852681 0.087970
vn 0.608923 0.785947 -0.107235
vn 0.557366 -0.716847 0.418895
vn 0.915896 0.000000 0.401417
vn -0.410752 0.746799 -0.523043
vn -0.260224 -0.718993 -0.644463
vn -0.479242 0.720746 0.500852
vn -0.749073 0.000000 0.662488
vn -0.070949 0.994461 -0.077542
vn 0.623630 -0.696036 -0.355838
vn -0.054481 -0.994248 -0.092214
vn 0.000000 -1.000000 0.000000
vn -0.028502 0.999554 -0.008957
vn -0.028368 0.999591 -0.003606
vn -0.027728 0.999615 -0.000926
vn -0.022717 0.999643 0.014090
vn -0.021688 0.999680 0.013034
vn -0.016031 0.999717 0.017604
vn -0.024595 0.999573 -0.015763
vn -0.026395 0.999497 -0.017607
vn -0.028268 0.999534 -0.011499
vn -0.002810 0.999995 -0.001209
vn 0.299746 0.779358 0.550231
vn 0.107873 0.857901 0.502363
vn -0.057264 0.976899 -0.205884
vn -0.126925 0.984085 -0.124364
vn 0.012445 0.999819 0.014412
vn -0.001221 0.999939 -0.010988
vn 0.012967 0.999805 0.014890
vn 0.020604 0.999782 -0.003459
vn 0.020690 0.999785 -0.000948
vn -0.696828 -0.115396 0.707895
vn 0.019768 0.999797 0.004013
vn 0.171460 0.977979 -0.118989
vn 0.071225 0.977274 -0.199656
vn 0.205154 0.978716 0.005252
vn -0.002644 0.999984 -0.004978
vn -0.001221 0.999939 -0.010988
vn 0.009182 0.999825 0.016329
vn -0.991323 0.029984 0.127984
vn -0.703129 0.118041 -0.701196
vn -0.981859 -0.009145 0.189394
vn -0.282449 0.756914 0.589325
vn 0.648111 0.468458 -0.600416
vn 0.580271 0.463123 -0.669927
vn 0.425631 0.470593 -0.772904
vn -0.524186 0.849403 -0.061187
vn -0.610970 0.785321 0.099935
vn -0.124916 0.742422 -0.658184
vn -0.443412 0.785920 -0.430947
vn -0.674026 0.730384 -0.110581
vn -0.593530 0.750949 0.289477
vn 0.566911 -0.513330 -0.644286
vn 0.633264 -0.513271 -0.579248
vn 0.342526 -0.522219 -0.781001
vn 0.420843 -0.520812 -0.742729
vn 0.462447 0.639270 0.614392
vn 0.594067 -0.687778 0.417188
vn 0.635011 -0.610512 0.473324
vn 0.875019 -0.061213 -0.480204
vn 0.963758 -0.133301 0.231087
vn -0.158917 0.520044 0.839226
vn 0.670763 0.734402 0.103592
vn 0.122664 0.755215 0.643897
vn 0.584215 0.752992 -0.302813
vn 0.286206 0.745675 -0.601709
vn 0.003231 -0.999975 0.006231
vn 0.868561 -0.100954 -0.485191
vn 0.003404 -0.999975 0.006143
vn 0.989887 -0.139583 0.025312
vn -0.972337 0.213201 -0.095429
vn 0.702103 -0.043182 -0.710765
vn -0.965949 0.224315 0.128939
vn -0.811710 0.078698 -0.578735
vn 0.467352 0.632670 0.617504
vn 0.329328 0.623993 0.708644
vn 0.397233 0.634450 0.663084
vn 0.636579 0.629249 0.445884
vn 0.627838 0.639564 0.443596
vn 0.018443 0.999788 0.009201
vn 0.498491 0.722076 0.479701
vn -0.020709 0.999629 -0.017677
vn 0.018217 0.999793 0.009094
vn 0.768327 0.495814 -0.404773
vn 0.832184 0.522079 -0.186822
vn 0.825693 0.555667 -0.097287
vn 0.860391 -0.488421 -0.145505
vn 0.814591 -0.566679 -0.123762
vn 0.761186 -0.511198 -0.399090
vn 0.003649 -0.999975 0.006028
vn 0.003121 -0.999975 0.006285
vn 0.015270 -0.999764 0.015431
vn 0.616324 -0.095701 0.781656
vn 0.698489 0.102598 -0.708228
vn 0.623390 -0.073107 0.778486
vn 0.590992 -0.037669 0.805797
vn 0.753269 -0.525328 -0.395748
vn 0.003145 -0.999975 0.006271
vn 0.015270 -0.999764 0.015431
vn 0.015270 -0.999764 0.015431
vn -0.013180 0.999762 0.017375
vn 0.000237 0.999811 0.019424
vn -0.007960 0.999806 0.018036
vn 0.003029 0.999811 0.019211
vn -0.077658 0.849876 -0.521229
vn -0.367885 0.858781 -0.356589
vn -0.281546 0.784673 -0.552287
vn 0.166070 0.973481 0.157339
vn 0.771298 -0.512105 0.377953
vn 0.740803 -0.653554 0.155167
vn -0.001962 0.999977 -0.006418
vn -0.015578 0.999788 -0.013441
vn -0.205369 0.977313 -0.051790
vn 0.770862 0.495113 -0.400793
vn 0.158734 0.503565 -0.849250
vn 0.340601 0.491578 -0.801462
vn 0.067178 0.541705 -0.837880
vn -0.025874 0.999645 0.006382
vn -0.026130 0.999652 0.003636
vn 0.020730 0.999606 0.018929
vn -0.433099 0.879171 -0.198704
vn 0.173165 0.979717 -0.100834
vn 0.697463 -0.131425 -0.704466
vn 0.609979 -0.095237 0.786674
vn -0.564945 0.781956 -0.263405
vn 0.082578 0.786919 -0.611505
vn 0.416649 0.795022 -0.440844
vn 0.461584 0.856815 -0.229799
vn 0.238327 0.854722 -0.461141
vn 0.008654 0.999841 0.015621
vn -0.005074 0.999816 0.018522
vn 0.020717 0.999736 -0.009981
vn 0.019467 0.999674 -0.016513
vn 0.020728 0.999735 -0.009995
vn 0.680004 -0.254498 -0.687623
vn 0.208829 0.931300 -0.298446
vn 0.189371 0.951233 -0.243504
vn -0.052130 0.988487 -0.142042
vn 0.756280 -0.647482 0.093849
vn 0.703021 -0.621435 0.345803
vn -0.230442 0.956311 0.179908
vn 0.048036 0.910969 -0.409668
vn 0.066513 0.966649 -0.247316
vn -0.395838 0.917358 0.042024
vn -0.282866 0.938362 0.198653
vn -0.325249 0.939993 0.103084
vn 0.260499 0.434158 0.862350
vn -0.635541 -0.104571 0.764953
vn -0.729426 -0.140979 0.669375
vn 0.662853 -0.075800 0.744903
vn -0.749151 -0.106239 -0.653825
vn 0.575569 0.099175 0.811717
vn -0.737418 -0.118119 -0.665029
vn -0.947087 0.274579 -0.166232
vn 0.795848 0.594761 0.113515
vn 0.676150 0.630651 0.380920
vn 0.799011 0.589190 0.120152
vn 0.724160 0.614559 0.312907
vn 0.015867 0.999589 -0.023858
vn 0.013264 0.999581 -0.025737
vn 0.006351 0.999553 -0.029228
vn 0.001407 0.999517 -0.031029
vn 0.700226 0.002009 -0.713918
vn 0.700467 -0.076425 -0.709581
vn 0.697645 0.103849 -0.708878
vn 0.702030 -0.054752 -0.710040
vn 0.609671 -0.089566 0.787578
vn 0.614413 -0.037824 0.788077
vn 0.019351 0.999791 0.006669
vn -0.873244 0.411452 -0.261058
vn -0.010132 0.999379 -0.033737
vn -0.016799 0.999368 -0.031343
vn -0.001334 0.999473 -0.032429
vn -0.007074 0.999422 -0.033266
vn 0.680351 -0.254332 -0.687341
vn -0.132562 0.235270 0.962847
vn 0.018922 0.999639 -0.019056
vn 0.008636 0.999557 -0.028467
vn -0.782168 -0.098910 -0.615167
vn -0.788323 -0.096425 -0.607658
vn -0.807016 -0.048008 -0.588575
vn -0.790222 -0.049431 -0.610824
vn 0.168952 0.296765 0.939886
vn 0.091340 0.227913 0.969388
vn 0.648796 -0.088957 0.755745
vn 0.700384 -0.128989 -0.702014
vn -0.778609 -0.081628 -0.622177
vn -0.786382 -0.099047 -0.609748
vn -0.983410 -0.006875 0.181266
vn -0.957080 -0.249280 0.147841
vn -0.996026 -0.006583 -0.088824
vn -0.963300 -0.220660 0.152850
vn -0.971006 -0.174023 0.163903
vn -0.955144 -0.259194 0.143243
vn 0.091447 0.004733 0.995799
vn -0.976362 0.088582 0.197154
vn -0.182943 0.000169 0.983124
vn -0.949643 0.057801 0.307956
vn -0.163630 -0.169864 0.971788
vn -0.152422 -0.218170 0.963934
vn -0.314665 0.063247 0.947093
vn -0.144511 -0.253126 0.956579
vn -0.148082 -0.242582 0.958763
vn -0.766298 0.009352 0.642418
vn -0.636866 0.026124 0.770532
vn -0.717142 0.052842 0.694921
vn -0.194716 0.097375 0.976014
vn -0.762890 0.113723 -0.636448
vn -0.809715 0.047732 -0.584880
vn -0.846135 0.159864 0.508427
vn -0.689008 0.225399 0.688813
vn 0.651028 0.004254 0.759042
vn -0.755807 0.042022 -0.653444
vn -0.528605 0.149665 0.835570
vn -0.841354 0.064530 -0.536619
vn -0.661537 -0.250410 0.706869
vn -0.682938 -0.038789 0.729445
vn -0.661005 -0.250112 0.707472
vn -0.680853 0.108109 0.724398
vn -0.680221 0.106921 0.725167
vn -0.640278 -0.099441 -0.761680
vn -0.686198 0.005846 0.727392
vn -0.638180 -0.096795 -0.763778
vn 0.114563 -0.223961 -0.967841
vn 0.110086 -0.252292 -0.961369
vn 0.271233 0.054755 -0.960955
vn 0.972846 0.225277 0.053109
vn -0.677213 -0.127686 0.724623
vn -0.608833 0.078232 -0.789431
vn -0.645400 -0.099363 -0.757354
vn 0.091620 0.221031 -0.970954
vn 0.106226 -0.262251 -0.959135
vn 0.975269 -0.003451 -0.220993
vn -0.674619 -0.125229 0.727466
vn -0.641107 -0.049814 -0.765833
vn -0.132414 0.210418 -0.968603
vn 0.142994 -0.010499 -0.989668
vn -0.127487 -0.009329 -0.991796
vn 0.613554 0.222536 0.757647
vn 0.586879 0.061221 0.807357
vn -0.201977 0.270648 -0.941252
vn 0.541754 0.077035 0.837000
vn 0.946092 0.295775 0.132009
vn -0.294006 0.409030 -0.863860
vn 0.872832 0.432799 0.225497
vn 0.679742 -0.120606 -0.723467
vn 0.636421 -0.145614 -0.757473
vn 0.740584 -0.108986 -0.663066
vn 0.828215 -0.038293 0.559100
vn -0.681997 -0.050346 0.729620
vn -0.682057 -0.072680 0.727679
vn -0.652235 -0.081996 -0.753569
vn -0.619809 -0.048503 -0.783253
vn 0.780020 -0.089443 0.619330
vn -0.682595 -0.106134 -0.723049
vn 0.769751 -0.076182 0.633783
vn -0.693458 -0.118036 -0.710762
vn 0.802161 -0.073621 0.592552
vn 0.809622 -0.095851 0.579072
vn 0.804995 -0.096265 0.585420
vn 0.810207 -0.090131 0.579173
vn 0.833453 0.098216 0.543792
vn 0.810937 -0.038526 0.583864
vn 0.125193 -0.177376 -0.976148
vn 0.159602 0.085745 -0.983451
vn 0.998618 0.001821 0.052523
vn 0.957686 0.231822 -0.170575
vn 0.964032 -0.173543 -0.201309
vn 0.949691 -0.255945 -0.180499
vn 0.951643 -0.245736 -0.184364
vn 0.967961 0.094618 -0.232594
vn 0.956548 -0.221573 -0.189529
vn -0.779785 -0.078274 0.621135
vn 0.711490 -0.034122 0.701868
vn -0.809008 -0.037589 0.586595
vn 0.690064 -0.245628 0.680793
vn -0.704225 -0.143281 -0.695369
vn 0.654867 -0.101317 -0.748922
vn -0.689209 -0.142634 -0.710385
vn 0.261497 -0.156717 -0.952396
vn 0.857830 0.076346 0.508231
vn -0.671144 0.313698 -0.671683
vn 0.321754 0.204782 -0.924413
vn 0.610246 0.005383 -0.792194
vn 0.934364 0.060181 -0.351202
vn 0.814792 0.146300 -0.560991
vn 0.584494 -0.040498 -0.810387
vn 0.088978 -0.008597 -0.995996
vn 0.061788 0.169204 -0.983642
vn 0.246946 -0.156037 -0.956384
vn 0.689699 -0.245798 0.681101
vn -0.787633 -0.043642 0.614597
vn 0.638885 -0.084779 -0.764617
vn 0.226467 -0.145510 -0.963088
vn -0.671144 0.313698 -0.671683
vn 0.892553 0.204706 -0.401801
vn 0.475775 0.156549 -0.865523
vn 0.610762 -0.045918 -0.790482
vn 0.208527 -0.210705 -0.955050
vn -0.786751 -0.101955 0.608792
vn 0.706415 -0.119223 0.697685
vn -0.754605 -0.092862 0.649575
vn -0.743800 -0.079763 0.663626
vn 0.361066 0.562491 -0.743798
vn 0.745790 0.020833 -0.665856
vn -0.568902 0.063948 -0.819915
vn 0.192933 -0.011679 -0.981142
vn 0.608728 -0.096886 -0.787441
vn 0.711306 0.026951 0.702365
vn -0.812222 0.092892 0.575905
vn -0.989924 -0.137959 -0.031917
vn -0.910158 -0.114632 0.398086
vn -0.295085 0.905013 -0.306392
vn 0.666691 0.048077 -0.743782
vn -0.615937 0.047144 -0.786384
vn 0.714556 -0.019358 0.699310
vn 0.620830 -0.078860 -0.779969
vn -0.975357 0.204906 0.081801
vn -0.706264 -0.012939 -0.707831
vn -0.953727 -0.212718 0.212498
vn -0.713723 0.057633 -0.698053
vn -0.995783 -0.004580 0.091624
vn 0.132407 0.034046 -0.990611
vn -0.678591 0.276016 -0.680683
vn -0.679700 -0.280523 -0.677728
vn -0.683580 -0.251420 -0.685205
vn -0.954980 -0.157870 0.251177
vn 0.576911 0.082091 -0.812671
vn 0.707343 0.112087 0.697927
vn 0.703468 -0.117596 0.700931
vn 0.706424 -0.115165 0.698356
vn 0.707839 0.113576 0.697183
vn 0.783739 0.003823 0.621079
vn 0.829902 0.060607 0.554607
vn -0.664904 0.113454 -0.738262
vn -0.682002 0.041950 -0.730146
vn 0.781637 0.221843 0.582949
f 193/193/193 194/194/194 166/166/166
f 135/135/135 137/137/137 138/138/138
f 200/200/200 202/202/202 180/180/180
f 147/147/147 150/150/150 149/149/149
f 384/384/384 392/392/392 391/391/391
f 270/270/270 286/286/286 298/298/298
f 260/260/260 286/286/286 270/270/270
f 260/260/260 261/261/261 286/286/286
f 271/271/271 261/261/261 260/260/260
f 259/259/259 261/261/261 271/271/271
f 273/273/273 261/261/261 259/259/259
f 297/297/297 273/273/273 259/259/259
f 272/272/272 273/273/273 297/297/297
f 260/260/260 270/270/270 256/256/256
f 296/296/296 260/260/260 256/256/256
f 271/271/271 260/260/260 296/296/296
f 296/296/296 259/259/259 271/271/271
f 7/7/7 259/259/259 296/296/296
f 7/7/7 297/297/297 259/259/259
f 6/6/6 297/297/297 7/7/7
f 5/5/5 6/6/6 7/7/7
f 10/10/10 6/6/6 5/5/5
f 256/256/256 270/270/270 280/280/280
f 280/280/280 267/267/267 256/256/256
f 277/277/277 256/256/256 267/267/267
f 296/296/296 256/256/256 277/277/277
f 277/277/277 7/7/7 296/296/296
f 5/5/5 7/7/7 277/277/277
f 262/262/262 5/5/5 277/277/277
f 266/266/266 5/5/5 262/262/262
f 5/5/5 266/266/266 10/10/10
f 10/10/10 266/266/266 299/299/299
f 299/299/299 266/266/266 54/54/54
f 285/285/285 267/267/267 280/280/280
f 267/267/267 285/285/285 264/264/264
f 262/262/262 267/267/267 264/264/264
f 277/277/277 267/267/267 262/262/262
f 264/264/264 285/285/285 263/263/263
f 283/283/283 264/264/264 263/263/263
f 304/304/304 264/264/264 283/283/283
f 8/8/8 264/264/264 304/304/304
f 262/262/262 264/264/264 8/8/8
f 8/8/8 266/266/266 262/262/262
f 43/43/43 266/266/266 8/8/8
f 54/54/54 266/266/266 43/43/43
f 44/44/44 54/54/54 43/43/43
f 52/52/52 54/54/54 44/44/44
f 304/304/304 283/283/283 276/276/276
f 276/276/276 8/8/8 304/304/304
f 1/1/1 8/8/8 276/276/276
f 44/44/44 8/8/8 1/1/1
f 43/43/43 8/8/8 44/44/44
f 276/276/276 283/283/283 284/284/284
f 295/295/295 279/279/279 257/257/257
f 278/278/278 279/279/279 295/295/295
f 3/3/3 279/279/279 278/278/278
f 11/11/11 279/279/279 3/3/3
f 3/3/3 42/42/42 11/11/11
f 40/40/40 42/42/42 3/3/3
f 41/41/41 42/42/42 40/40/40
f 45/45/45 42/42/42 41/41/41
f 258/258/258 278/278/278 295/295/295
f 303/303/303 278/278/278 258/258/258
f 303/303/303 3/3/3 278/278/278
f 2/2/2 3/3/3 303/303/303
f 39/39/39 3/3/3 2/2/2
f 40/40/40 3/3/3 39/39/39
f 38/38/38 40/40/40 39/39/39
f 41/41/41 40/40/40 38/38/38
f 302/302/302 303/303/303 258/258/258
f 265/265/265 303/303/303 302/302/302
f 265/265/265 2/2/2 303/303/303
f 300/300/300 2/2/2 265/265/265
f 301/301/301 2/2/2 300/300/300
f 39/39/39 2/2/2 301/301/301
f 282/282/282 39/39/39 301/301/301
f 38/38/38 39/39/39 282/282/282
f 269/269/269 265/265/265 302/302/302
f 275/275/275 265/265/265 269/269/269
f 275/275/275 300/300/300 265/265/265
f 274/274/274 300/300/300 275/275/275
f 36/36/36 300/300/300 274/274/274
f 301/301/301 300/300/300 36/36/36
f 37/37/37 301/301/301 36/36/36
f 282/282/282 301/301/301 37/37/37
f 268/268/268 275/275/275 269/269/269
f 281/281/281 275/275/275 268/268/268
f 281/281/281 274/274/274 275/275/275
f 4/4/4 274/274/274 281/281/281
f 4/4/4 12/12/12 274/274/274
f 274/274/274 12/12/12 36/36/36
f 9/9/9 36/36/36 12/12/12
f 37/37/37 36/36/36 9/9/9
f 51/51/51 60/60/60 53/53/53
f 59/59/59 60/60/60 51/51/51
f 58/58/58 60/60/60 59/59/59
f 56/56/56 63/63/63 57/57/57
f 112/112/112 56/56/56 57/57/57
f 114/114/114 55/55/55 46/46/46
f 112/112/112 114/114/114 46/46/46
f 113/113/113 114/114/114 112/112/112
f 116/116/116 114/114/114 113/113/113
f 116/116/116 107/107/107 114/114/114
f 114/114/114 107/107/107 63/63/63
f 107/107/107 62/62/62 63/63/63
f 23/23/23 62/62/62 107/107/107
f 108/108/108 23/23/23 107/107/107
f 24/24/24 23/23/23 108/108/108
f 26/26/26 113/113/113 112/112/112
f 32/32/32 113/113/113 26/26/26
f 32/32/32 115/115/115 113/113/113
f 115/115/115 124/124/124 113/113/113
f 113/113/113 124/124/124 116/116/116
f 124/124/124 107/107/107 116/116/116
f 108/108/108 107/107/107 124/124/124
f 124/124/124 109/109/109 108/108/108
f 109/109/109 24/24/24 108/108/108
f 64/64/64 24/24/24 109/109/109
f 110/110/110 64/64/64 109/109/109
f 110/110/110 30/30/30 64/64/64
f 111/111/111 30/30/30 110/110/110
f 27/27/27 115/115/115 32/32/32
f 27/27/27 125/125/125 115/115/115
f 125/125/125 124/124/124 115/115/115
f 68/68/68 124/124/124 125/125/125
f 68/68/68 109/109/109 124/124/124
f 68/68/68 110/110/110 109/109/109
f 66/66/66 110/110/110 68/68/68
f 67/67/67 110/110/110 66/66/66
f 111/111/111 110/110/110 67/67/67
f 18/18/18 125/125/125 27/27/27
f 18/18/18 65/65/65 125/125/125
f 65/65/65 68/68/68 125/125/125
f 66/66/66 68/68/68 65/65/65
f 65/65/65 67/67/67 66/66/66
f 117/117/117 67/67/67 65/65/65
f 117/117/117 65/65/65 20/20/20
f 20/20/20 65/65/65 18/18/18
f 17/17/17 16/16/16 14/14/14
f 14/14/14 16/16/16 47/47/47
f 16/16/16 13/13/13 47/47/47
f 15/15/15 13/13/13 16/16/16
f 15/15/15 31/31/31 13/13/13
f 13/13/13 31/31/31 48/48/48
f 31/31/31 25/25/25 48/48/48
f 48/48/48 25/25/25 19/19/19
f 50/50/50 33/33/33 49/49/49
f 28/28/28 33/33/33 50/50/50
f 28/28/28 34/34/34 33/33/33
f 35/35/35 34/34/34 28/28/28
f 35/35/35 22/22/22 34/34/34
f 34/34/34 22/22/22 29/29/29
f 22/22/22 21/21/21 29/29/29
f 61/61/61 21/21/21 22/22/22
f 121/121/121 118/118/118 119/119/119
f 133/133/133 121/121/121 119/119/119
f 131/131/131 121/121/121 133/133/133
f 131/131/131 133/133/133 123/123/123
f 123/123/123 133/133/133 122/122/122
f 86/86/86 88/88/88 120/120/120
f 86/86/86 87/87/87 88/88/88
f 88/88/88 87/87/87 89/89/89
f 82/82/82 83/83/83 85/85/85
f 82/82/82 130/130/130 83/83/83
f 128/128/128 130/130/130 82/82/82
f 81/81/81 79/79/79 84/84/84
f 80/80/80 79/79/79 81/81/81
f 78/78/78 79/79/79 80/80/80
f 129/129/129 74/74/74 77/77/77
f 76/76/76 74/74/74 129/129/129
f 73/73/73 74/74/74 76/76/76
f 91/91/91 70/70/70 75/75/75
f 71/71/71 70/70/70 91/91/91
f 71/71/71 72/72/72 70/70/70
f 70/70/70 72/72/72 69/69/69
f 90/90/90 134/134/134 152/152/152
f 152/152/152 134/134/134 132/132/132
f 132/132/132 134/134/134 201/201/201
f 201/201/201 134/134/134 99/99/99
f 98/98/98 201/201/201 99/99/99
f 289/289/289 201/201/201 98/98/98
f 201/201/201 289/289/289 203/203/203
f 187/187/187 201/201/201 203/203/203
f 235/235/235 201/201/201 187/187/187
f 151/151/151 235/235/235 187/187/187
f 152/152/152 235/235/235 151/151/151
f 98/98/98 96/96/96 289/289/289
f 289/289/289 96/96/96 97/97/97
f 97/97/97 96/96/96 104/104/104
f 104/104/104 96/96/96 127/127/127
f 203/203/203 289/289/289 223/223/223
f 223/223/223 289/289/289 251/251/251
f 251/251/251 289/289/289 290/290/290
f 251/251/251 290/290/290 103/103/103
f 103/103/103 290/290/290 104/104/104
f 181/181/181 196/196/196 95/95/95
f 142/142/142 196/196/196 181/181/181
f 142/142/142 195/195/195 196/196/196
f 196/196/196 195/195/195 178/178/178
f 352/352/352 178/178/178 195/195/195
f 140/140/140 178/178/178 352/352/352
f 352/352/352 139/139/139 140/140/140
f 141/141/141 139/139/139 352/352/352
f 141/141/141 93/93/93 139/139/139
f 139/139/139 93/93/93 126/126/126
f 195/195/195 190/190/190 352/352/352
f 352/352/352 190/190/190 360/360/360
f 360/360/360 362/362/362 352/352/352
f 352/352/352 362/362/362 353/353/353
f 362/362/362 92/92/92 353/353/353
f 353/353/353 92/92/92 93/93/93
f 190/190/190 195/195/195 184/184/184
f 184/184/184 195/195/195 183/183/183
f 184/184/184 183/183/183 182/182/182
f 182/182/182 183/183/183 181/181/181
f 101/101/101 174/174/174 100/100/100
f 172/172/172 174/174/174 101/101/101
f 174/174/174 172/172/172 173/173/173
f 173/173/173 172/172/172 171/171/171
f 102/102/102 105/105/105 94/94/94
f 106/106/106 105/105/105 102/102/102
f 330/330/330 94/94/94 320/320/320
f 403/403/403 330/330/330 320/320/320
f 177/177/177 175/175/175 176/176/176
f 191/191/191 177/177/177 176/176/176
f 179/179/179 200/200/200 136/136/136
f 157/157/157 179/179/179 136/136/136
f 179/179/179 157/157/157 159/159/159
f 159/159/159 157/157/157 158/158/158
f 382/382/382 159/159/159 158/158/158
f 159/159/159 382/382/382 361/361/361
f 361/361/361 382/382/382 359/359/359
f 390/390/390 361/361/361 359/359/359
f 361/361/361 390/390/390 383/383/383
f 186/186/186 165/165/165 192/192/192
f 192/192/192 165/165/165 167/167/167
f 168/168/168 167/167/167 165/165/165
f 169/169/169 167/167/167 168/168/168
f 168/168/168 409/409/409 169/169/169
f 407/407/407 409/409/409 168/168/168
f 409/409/409 407/407/407 408/408/408
f 408/408/408 407/407/407 338/338/338
f 338/338/338 337/337/337 408/408/408
f 336/336/336 337/337/337 338/338/338
f 336/336/336 376/376/376 337/337/337
f 406/406/406 376/376/376 336/336/336
f 406/406/406 377/377/377 376/376/376
f 376/376/376 377/377/377 378/378/378
f 449/449/449 378/378/378 377/377/377
f 447/447/447 378/378/378 449/449/449
f 449/449/449 450/450/450 447/447/447
f 448/448/448 450/450/450 449/449/449
f 450/450/450 448/448/448 370/370/370
f 370/370/370 448/448/448 371/371/371
f 155/155/155 156/156/156 185/185/185
f 154/154/154 156/156/156 155/155/155
f 154/154/154 164/164/164 156/156/156
f 156/156/156 164/164/164 160/160/160
f 164/164/164 162/162/162 160/160/160
f 160/160/160 162/162/162 161/161/161
f 162/162/162 347/347/347 161/161/161
f 161/161/161 347/347/347 348/348/348
f 347/347/347 345/345/345 348/348/348
f 348/348/348 345/345/345 346/346/346
f 345/345/345 381/381/381 346/346/346
f 346/346/346 381/381/381 389/389/389
f 381/381/381 380/380/380 389/389/389
f 379/379/379 380/380/380 381/381/381
f 379/379/379 431/431/431 380/380/380
f 380/380/380 431/431/431 402/402/402
f 431/431/431 432/432/432 402/402/402
f 402/402/402 432/432/432 401/401/401
f 401/401/401 432/432/432 351/351/351
f 351/351/351 432/432/432 350/350/350
f 153/153/153 226/226/226 314/314/314
f 314/314/314 226/226/226 227/227/227
f 143/143/143 148/148/148 199/199/199
f 144/144/144 148/148/148 143/143/143
f 144/144/144 143/143/143 244/244/244
f 244/244/244 143/143/143 246/246/246
f 244/244/244 246/246/246 288/288/288
f 288/288/288 246/246/246 248/248/248
f 248/248/248 247/247/247 288/288/288
f 288/288/288 247/247/247 287/287/287
f 247/247/247 216/216/216 287/287/287
f 287/287/287 216/216/216 215/215/215
f 215/215/215 216/216/216 218/218/218
f 218/218/218 216/216/216 217/217/217
f 218/218/218 217/217/217 354/354/354
f 354/354/354 217/217/217 291/291/291
f 354/354/354 291/291/291 207/207/207
f 207/207/207 291/291/291 292/292/292
f 207/207/207 292/292/292 368/368/368
f 368/368/368 292/292/292 369/369/369
f 368/368/368 369/369/369 367/367/367
f 367/367/367 369/369/369 349/349/349
f 197/197/197 198/198/198 146/146/146
f 146/146/146 198/198/198 145/145/145
f 145/145/145 243/243/243 146/146/146
f 146/146/146 243/243/243 245/245/245
f 245/245/245 243/243/243 242/242/242
f 242/242/242 243/243/243 240/240/240
f 242/242/242 240/240/240 241/241/241
f 241/241/241 240/240/240 239/239/239
f 239/239/239 188/188/188 241/241/241
f 241/241/241 188/188/188 163/163/163
f 163/163/163 188/188/188 220/220/220
f 220/220/220 188/188/188 219/219/219
f 219/219/219 221/221/221 220/220/220
f 220/220/220 221/221/221 222/222/222
f 221/221/221 212/212/212 222/222/222
f 222/222/222 212/212/212 214/214/214
f 212/212/212 206/206/206 214/214/214
f 205/205/205 206/206/206 212/212/212
f 206/206/206 205/205/205 204/204/204
f 204/204/204 205/205/205 210/210/210
f 237/237/237 238/238/238 236/236/236
f 238/238/238 237/237/237 170/170/170
f 237/237/237 189/189/189 170/170/170
f 189/189/189 237/237/237 250/250/250
f 189/189/189 250/250/250 249/249/249
f 250/250/250 252/252/252 249/249/249
f 252/252/252 250/250/250 208/208/208
f 252/252/252 208/208/208 211/211/211
f 208/208/208 209/209/209 211/211/211
f 209/209/209 208/208/208 213/213/213
f 375/375/375 461/461/461 372/372/372
f 325/325/325 461/461/461 375/375/375
f 325/325/325 323/323/323 461/461/461
f 322/322/322 323/323/323 325/325/325
f 322/322/322 426/426/426 323/323/323
f 424/424/424 426/426/426 322/322/322
f 424/424/424 425/425/425 426/426/426
f 426/426/426 425/425/425 469/469/469
f 425/425/425 451/451/451 469/469/469
f 469/469/469 451/451/451 452/452/452
f 451/451/451 470/470/470 452/452/452
f 452/452/452 470/470/470 453/453/453
f 470/470/470 454/454/454 453/453/453
f 453/453/453 454/454/454 465/465/465
f 454/454/454 466/466/466 465/465/465
f 465/465/465 466/466/466 463/463/463
f 466/466/466 233/233/233 463/463/463
f 463/463/463 233/233/233 464/464/464
f 464/464/464 233/233/233 234/234/234
f 234/234/234 233/233/233 232/232/232
f 404/404/404 311/311/311 374/374/374
f 374/374/374 311/311/311 312/312/312
f 311/311/311 313/313/313 312/312/312
f 305/305/305 313/313/313 311/311/311
f 305/305/305 306/306/306 313/313/313
f 307/307/307 306/306/306 305/305/305
f 307/307/307 411/411/411 306/306/306
f 410/410/410 411/411/411 307/307/307
f 410/410/410 309/309/309 411/411/411
f 308/308/308 309/309/309 410/410/410
f 310/310/310 309/309/309 308/308/308
f 393/393/393 309/309/309 310/310/310
f 395/395/395 393/393/393 310/310/310
f 423/423/423 393/393/393 395/395/395
f 394/394/394 423/423/423 395/395/395
f 396/396/396 423/423/423 394/394/394
f 331/331/331 396/396/396 394/394/394
f 422/422/422 396/396/396 331/331/331
f 331/331/331 319/319/319 422/422/422
f 321/321/321 319/319/319 331/331/331
f 462/462/462 363/363/363 446/446/446
f 365/365/365 363/363/363 462/462/462
f 363/363/363 365/365/365 483/483/483
f 483/483/483 366/366/366 363/363/363
f 474/474/474 366/366/366 483/483/483
f 472/472/472 474/474/474 483/483/483
f 480/480/480 474/474/474 472/472/472
f 471/471/471 480/480/480 472/472/472
f 479/479/479 480/480/480 471/471/471
f 483/483/483 365/365/365 481/481/481
f 485/485/485 483/483/483 481/481/481
f 484/484/484 483/483/483 485/485/485
f 482/482/482 484/484/484 485/485/485
f 486/486/486 484/484/484 482/482/482
f 482/482/482 490/490/490 486/486/486
f 488/488/488 490/490/490 482/482/482
f 503/503/503 490/490/490 488/488/488
f 502/502/502 490/490/490 503/503/503
f 502/502/502 503/503/503 496/496/496
f 496/496/496 503/503/503 498/498/498
f 498/498/498 324/324/324 496/496/496
f 496/496/496 324/324/324 441/441/441
f 503/503/503 497/497/497 498/498/498
f 498/498/498 497/497/497 324/324/324
f 324/324/324 497/497/497 440/440/440
f 506/506/506 497/497/497 503/503/503
f 503/503/503 493/493/493 506/506/506
f 499/499/499 493/493/493 503/503/503
f 499/499/499 495/495/495 493/493/493
f 493/493/493 495/495/495 494/494/494
f 494/494/494 495/495/495 492/492/492
f 492/492/492 495/495/495 491/491/491
f 491/491/491 487/487/487 492/492/492
f 489/489/489 487/487/487 491/491/491
f 489/489/489 468/468/468 487/487/487
f 487/487/487 468/468/468 476/476/476
f 476/476/476 444/444/444 487/487/487
f 487/487/487 444/444/444 460/460/460
f 487/487/487 460/460/460 459/459/459
f 459/459/459 460/460/460 416/416/416
f 416/416/416 385/385/385 459/459/459
f 476/476/476 468/468/468 439/439/439
f 476/476/476 439/439/439 475/475/475
f 387/387/387 385/385/385 416/416/416
f 387/387/387 388/388/388 385/385/385
f 532/532/532 388/388/388 387/387/387
f 534/534/534 388/388/388 532/532/532
f 534/534/534 532/532/532 531/531/531
f 531/531/531 532/532/532 504/504/504
f 531/531/531 504/504/504 477/477/477
f 477/477/477 504/504/504 442/442/442
f 473/473/473 479/479/479 471/471/471
f 479/479/479 473/473/473 501/501/501
f 501/501/501 473/473/473 507/507/507
f 507/507/507 505/505/505 501/501/501
f 501/501/501 505/505/505 500/500/500
f 500/500/500 505/505/505 443/443/443
f 443/443/443 505/505/505 445/445/445
f 364/364/364 467/467/467 427/427/427
f 458/458/458 467/467/467 364/364/364
f 458/458/458 364/364/364 457/457/457
f 457/457/457 364/364/364 386/386/386
f 386/386/386 455/455/455 457/457/457
f 457/457/457 455/455/455 456/456/456
f 415/415/415 456/456/456 455/455/455
f 478/478/478 456/456/456 415/415/415
f 536/536/536 533/533/533 528/528/528
f 523/523/523 536/536/536 528/528/528
f 530/530/530 523/523/523 528/528/528
f 529/529/529 523/523/523 530/530/530
f 530/530/530 556/556/556 529/529/529
f 516/516/516 556/556/556 530/530/530
f 556/556/556 516/516/516 517/517/517
f 521/521/521 530/530/530 528/528/528
f 527/527/527 530/530/530 521/521/521
f 527/527/527 515/515/515 530/530/530
f 513/513/513 515/515/515 527/527/527
f 515/515/515 513/513/513 522/522/522
f 522/522/522 513/513/513 544/544/544
f 545/545/545 522/522/522 544/544/544
f 607/607/607 545/545/545 544/544/544
f 598/598/598 545/545/545 607/607/607
f 607/607/607 628/628/628 598/598/598
f 627/627/627 628/628/628 607/607/607
f 627/627/627 547/547/547 628/628/628
f 628/628/628 547/547/547 549/549/549
f 517/517/517 516/516/516 524/524/524
f 518/518/518 517/517/517 524/524/524
f 557/557/557 517/517/517 518/518/518
f 518/518/518 575/575/575 557/557/557
f 589/589/589 575/575/575 518/518/518
f 589/589/589 576/576/576 575/575/575
f 575/575/575 576/576/576 606/606/606
f 576/576/576 538/538/538 606/606/606
f 606/606/606 538/538/538 597/597/597
f 606/606/606 597/597/597 588/588/588
f 588/588/588 597/597/597 578/578/578
f 578/578/578 577/577/577 588/588/588
f 588/588/588 577/577/577 563/563/563
f 577/577/577 562/562/562 563/563/563
f 539/539/539 538/538/538 576/576/576
f 597/597/597 538/538/538 540/540/540
f 561/561/561 562/562/562 577/577/577
f 561/561/561 564/564/564 562/562/562
f 562/562/562 564/564/564 560/560/560
f 564/564/564 558/558/558 560/560/560
f 560/560/560 558/558/558 525/525/525
f 525/525/525 558/558/558 559/559/559
f 559/559/559 558/558/558 519/519/519
f 519/519/519 537/537/537 559/559/559
f 519/519/519 535/535/535 537/537/537
f 558/558/558 554/554/554 519/519/519
f 555/555/555 554/554/554 558/558/558
f 553/553/553 555/555/555 558/558/558
f 551/551/551 555/555/555 553/553/553
f 552/552/552 551/551/551 553/553/553
f 550/550/550 551/551/551 552/552/552
f 550/550/550 552/552/552 541/541/541
f 541/541/541 626/626/626 550/550/550
f 573/573/573 626/626/626 541/541/541
f 573/573/573 629/629/629 626/626/626
f 626/626/626 629/629/629 625/625/625
f 629/629/629 546/546/546 625/625/625
f 625/625/625 546/546/546 548/548/548
f 510/510/510 509/509/509 508/508/508
f 542/542/542 509/509/509 510/510/510
f 511/511/511 509/509/509 542/542/542
f 512/512/512 509/509/509 511/511/511
f 512/512/512 511/511/511 514/514/514
f 514/514/514 511/511/511 543/543/543
f 543/543/543 520/520/520 514/514/514
f 526/526/526 520/520/520 543/543/543
f 587/587/587 581/581/581 574/574/574
f 610/610/610 587/587/587 574/574/574
f 616/616/616 596/596/596 605/605/605
f 610/610/610 616/616/616 605/605/605
f 614/614/614 616/616/616 610/610/610
f 611/611/611 616/616/616 614/614/614
f 611/611/611 580/580/580 616/616/616
f 616/616/616 580/580/580 581/581/581
f 580/580/580 620/620/620 581/581/581
f 590/590/590 620/620/620 580/580/580
f 582/582/582 590/590/590 580/580/580
f 600/600/600 590/590/590 582/582/582
f 602/602/602 614/614/614 610/610/610
f 584/584/584 614/614/614 602/602/602
f 584/584/584 619/619/619 614/614/614
f 619/619/619 618/618/618 614/614/614
f 614/614/614 618/618/618 611/611/611
f 618/618/618 580/580/580 611/611/611
f 582/582/582 580/580/580 618/618/618
f 618/618/618 591/591/591 582/582/582
f 591/591/591 600/600/600 582/582/582
f 609/609/609 600/600/600 591/591/591
f 599/599/599 609/609/609 591/591/591
f 599/599/599 579/579/579 609/609/609
f 615/615/615 579/579/579 599/599/599
f 592/592/592 619/619/619 584/584/584
f 592/592/592 612/612/612 619/619/619
f 612/612/612 618/618/618 619/619/619
f 617/617/617 618/618/618 612/612/612
f 617/617/617 591/591/591 618/618/618
f 617/617/617 599/599/599 591/591/591
f 613/613/613 599/599/599 617/617/617
f 333/333/333 599/599/599 613/613/613
f 615/615/615 599/599/599 333/333/333
f 565/565/565 612/612/612 592/592/592
f 565/565/565 334/334/334 612/612/612
f 334/334/334 617/617/617 612/612/612
f 613/613/613 617/617/617 334/334/334
f 334/334/334 333/333/333 613/613/613
f 332/332/332 333/333/333 334/334/334
f 332/332/332 334/334/334 567/567/567
f 567/567/567 334/334/334 565/565/565
f 585/585/585 586/586/586 570/570/570
f 570/570/570 586/586/586 572/572/572
f 586/586/586 569/569/569 572/572/572
f 571/571/571 569/569/569 586/586/586
f 571/571/571 603/603/603 569/569/569
f 569/569/569 603/603/603 604/604/604
f 603/603/603 594/594/594 604/604/604
f 604/604/604 594/594/594 595/595/595
f 583/583/583 593/593/593 568/568/568
f 601/601/601 593/593/593 583/583/583
f 601/601/601 624/624/624 593/593/593
f 621/621/621 624/624/624 601/601/601
f 621/621/621 566/566/566 624/624/624
f 624/624/624 566/566/566 608/608/608
f 566/566/566 623/623/623 608/608/608
f 622/622/622 623/623/623 566/566/566
f 430/430/430 414/414/414 412/412/412
f 435/435/435 430/430/430 412/412/412
f 434/434/434 430/430/430 435/435/435
f 434/434/434 435/435/435 428/428/428
f 428/428/428 435/435/435 429/429/429
f 436/436/436 438/438/438 413/413/413
f 436/436/436 437/437/437 438/438/438
f 438/438/438 437/437/437 433/433/433
f 316/316/316 230/230/230 356/356/356
f 228/228/228 230/230/230 316/316/316
f 335/335/335 230/230/230 228/228/228
f 228/228/228 231/231/231 335/335/335
f 229/229/229 231/231/231 228/228/228
f 344/344/344 231/231/231 229/229/229
f 229/229/229 340/340/340 344/344/344
f 356/356/356 315/315/315 316/316/316
f 316/316/316 315/315/315 225/225/225
f 225/225/225 400/400/400 316/316/316
f 316/316/316 400/400/400 254/254/254
f 316/316/316 254/254/254 228/228/228
f 228/228/228 254/254/254 253/253/253
f 228/228/228 253/253/253 229/229/229
f 225/225/225 315/315/315 373/373/373
f 373/373/373 224/224/224 225/225/225
f 225/225/225 224/224/224 293/293/293
f 225/225/225 293/293/293 400/400/400
f 400/400/400 293/293/293 328/328/328
f 400/400/400 328/328/328 329/329/329
f 400/400/400 329/329/329 254/254/254
f 254/254/254 329/329/329 253/253/253
f 253/253/253 329/329/329 255/255/255
f 229/229/229 253/253/253 255/255/255
f 229/229/229 255/255/255 339/339/339
f 339/339/339 340/340/340 229/229/229
f 293/293/293 224/224/224 355/355/355
f 355/355/355 294/294/294 293/293/293
f 293/293/293 294/294/294 420/420/420
f 293/293/293 420/420/420 328/328/328
f 328/328/328 420/420/420 326/326/326
f 328/328/328 326/326/326 329/329/329
f 326/326/326 327/327/327 329/329/329
f 327/327/327 317/317/317 329/329/329
f 317/317/317 318/318/318 329/329/329
f 405/405/405 329/329/329 318/318/318
f 255/255/255 329/329/329 405/405/405
f 420/420/420 294/294/294 357/357/357
f 357/357/357 419/419/419 420/420/420
f 420/420/420 419/419/419 421/421/421
f 420/420/420 421/421/421 326/326/326
f 326/326/326 421/421/421 327/327/327
f 421/421/421 397/397/397 327/327/327
f 327/327/327 397/397/397 317/317/317
f 397/397/397 398/398/398 317/317/317
f 317/317/317 398/398/398 318/318/318
f 398/398/398 405/405/405 318/318/318
f 339/339/339 405/405/405 398/398/398
f 339/339/339 255/255/255 405/405/405
f 421/421/421 419/419/419 358/358/358
f 418/418/418 421/421/421 358/358/358
f 418/418/418 397/397/397 421/421/421
f 418/418/418 341/341/341 397/397/397
f 341/341/341 399/399/399 397/397/397
f 397/397/397 399/399/399 398/398/398
f 398/398/398 399/399/399 342/342/342
f 342/342/342 417/417/417 398/398/398
f 398/398/398 417/417/417 339/339/339
f 339/339/339 417/417/417 343/343/343
f 343/343/343 340/340/340 339/339/339
