# Exported by s4extract — object_GrillFood_lod01_g00
o object_GrillFood_lod01_g00
v 0.220374 0.015625 -0.116916
v 0.192083 0.015595 -0.093905
v 0.192083 0.015595 -0.093905
v 0.207801 0.000855 -0.108188
v 0.195990 0.000793 -0.136052
v 0.176031 0.015534 -0.130894
v 0.217597 0.015564 -0.188757
v 0.195929 0.030366 -0.136082
v 0.235145 0.000793 -0.232917
v 0.203681 0.000763 -0.194464
v 0.185614 0.015503 -0.203772
v 0.235145 0.000793 -0.232917
v 0.208869 0.015625 -0.096103
v 0.208869 0.015625 -0.096103
v 0.208869 0.015625 -0.096103
v 0.241157 0.015595 -0.243446
v 0.207739 0.030396 -0.108219
v 0.195929 0.030366 -0.136082
v 0.243049 0.015595 -0.220466
v 0.203619 0.030335 -0.194494
v 0.226997 0.015534 -0.253182
v 0.203619 0.030335 -0.194494
v 0.241157 0.015595 -0.243446
v 0.241157 0.015595 -0.243446
v 0.195990 0.000793 -0.136052
v 0.211097 0.015595 -0.139256
v 0.235084 0.030366 -0.232917
v 0.217597 0.015564 -0.188757
v 0.185614 0.015503 -0.203772
v 0.235084 0.030366 -0.232917
v 0.220374 0.015625 -0.116916
v 0.241157 0.015595 -0.243446
v 0.207801 0.000855 -0.108188
v 0.208869 0.015625 -0.096103
v 0.176031 0.015534 -0.130894
v 0.243049 0.015595 -0.220466
v 0.207739 0.030396 -0.108219
v 0.211097 0.015595 -0.139256
v 0.203681 0.000763 -0.194464
v 0.226997 0.015534 -0.253182
v 0.040559 0.015442 -0.137913
v 0.030305 0.015473 -0.102939
v 0.030305 0.015473 -0.102939
v 0.034394 0.000671 -0.122410
v -0.003906 0.015412 -0.124332
v 0.008820 0.030183 -0.138707
v -0.017914 0.030122 -0.191198
v -0.003906 0.015412 -0.124332
v 0.000610 0.015351 -0.236091
v -0.017884 0.000580 -0.191198
v -0.013703 0.000549 -0.240669
v -0.037263 0.015320 -0.189825
v 0.042146 0.015473 -0.113071
v -0.014710 0.015320 -0.252785
v 0.042146 0.015473 -0.113071
v 0.042146 0.015473 -0.113071
v 0.034364 0.030244 -0.122440
v 0.008820 0.030183 -0.138707
v -0.002411 0.015381 -0.195532
v -0.013764 0.030122 -0.240699
v -0.017914 0.030122 -0.191198
v -0.031159 0.015320 -0.253975
v -0.014710 0.015320 -0.252785
v -0.014710 0.015320 -0.252785
v 0.008881 0.000641 -0.138676
v 0.020264 0.015412 -0.151067
v 0.000610 0.015351 -0.236091
v -0.017884 0.000580 -0.191198
v -0.037263 0.015320 -0.189825
v -0.013764 0.030122 -0.240699
v 0.040559 0.015442 -0.137913
v -0.014710 0.015320 -0.252785
v 0.034394 0.000671 -0.122410
v 0.042146 0.015473 -0.113071
v 0.008881 0.000641 -0.138676
v -0.002411 0.015381 -0.195532
v 0.034364 0.030244 -0.122440
v 0.020264 0.015412 -0.151067
v -0.013703 0.000549 -0.240669
v -0.031159 0.015320 -0.253975
v -0.195349 0.000244 -0.116977
v -0.209540 0.015320 -0.100284
v -0.209540 0.015320 -0.100284
v -0.195349 0.000244 -0.116977
v -0.208533 0.000732 -0.144230
v -0.227393 0.015961 -0.136448
v -0.188696 0.015412 -0.196265
v -0.207831 0.030274 -0.144047
v -0.174169 0.000488 -0.242866
v -0.221381 0.016236 -0.209693
v -0.203711 0.000946 -0.202948
v -0.174169 0.000488 -0.242866
v -0.193335 0.014924 -0.104862
v -0.193335 0.014924 -0.104862
v -0.193335 0.014924 -0.104862
v -0.168310 0.015198 -0.253578
v -0.194678 0.029817 -0.116794
v -0.192785 0.015198 -0.146519
v -0.164830 0.015046 -0.229194
v -0.203040 0.030488 -0.202765
v -0.203040 0.030488 -0.202765
v -0.182470 0.015625 -0.261086
v -0.168310 0.015198 -0.253578
v -0.168310 0.015198 -0.253578
v -0.192785 0.015198 -0.146519
v -0.207831 0.030274 -0.144047
v -0.173498 0.030030 -0.242683
v -0.188696 0.015412 -0.196265
v -0.221381 0.016236 -0.209693
v -0.173498 0.030030 -0.242683
v -0.194678 0.029817 -0.116794
v -0.168310 0.015198 -0.253578
v -0.182440 0.014832 -0.124638
v -0.193335 0.014924 -0.104862
v -0.227393 0.015961 -0.136448
v -0.164830 0.015046 -0.229194
v -0.182440 0.014832 -0.124638
v -0.208533 0.000732 -0.144230
v -0.203711 0.000946 -0.202948
v -0.182470 0.015625 -0.261086
v 0.233863 0.000702 0.125401
v 0.230659 0.015473 0.145878
v 0.230659 0.015473 0.145878
v 0.233863 0.000702 0.125401
v 0.208228 0.000641 0.109256
v 0.196356 0.015412 0.124699
v 0.181158 0.030122 0.056887
v 0.208197 0.030213 0.109256
v 0.200232 0.015351 0.012879
v 0.181188 0.000580 0.056917
v 0.162603 0.015290 0.059389
v 0.185095 0.000549 0.007416
v 0.241646 0.015503 0.134678
v 0.241646 0.015503 0.134678
v 0.241646 0.015503 0.134678
v 0.184027 0.015320 -0.004700
v 0.233802 0.030244 0.125370
v 0.208197 0.030213 0.109256
v 0.197455 0.015351 0.053468
v 0.185034 0.030091 0.007385
v 0.168371 0.015290 -0.004822
v 0.181158 0.030122 0.056887
v 0.184027 0.015320 -0.004700
v 0.184027 0.015320 -0.004700
v 0.208228 0.000641 0.109256
v 0.220344 0.015442 0.097781
v 0.200232 0.015351 0.012879
v 0.181188 0.000580 0.056917
v 0.162603 0.015290 0.059389
v 0.185034 0.030091 0.007385
v 0.233802 0.030244 0.125370
v 0.184027 0.015320 -0.004700
v 0.240730 0.015473 0.110843
v 0.241646 0.015503 0.134678
v 0.196356 0.015412 0.124699
v 0.197455 0.015351 0.053468
v 0.240730 0.015473 0.110843
v 0.220344 0.015442 0.097781
v 0.185095 0.000549 0.007416
v 0.168371 0.015290 -0.004822
v 0.015748 -0.000732 0.132603
v 0.015748 -0.000732 0.132603
v 0.004669 0.014649 0.150456
v 0.004669 0.014649 0.150456
v -0.001679 0.000641 0.107883
v -0.018830 0.016480 0.117740
v 0.000122 0.030122 0.108249
v 0.009491 0.015564 0.052370
v 0.016022 0.000824 0.004944
v -0.024903 0.017762 0.044496
v -0.006531 0.001648 0.049165
v 0.016022 0.000824 0.004944
v 0.020295 0.013642 0.144353
v 0.020295 0.013642 0.144353
v 0.020295 0.013642 0.144353
v 0.020600 0.015503 -0.006439
v 0.000122 0.030122 0.108249
v 0.017548 0.028779 0.132969
v -0.004730 0.031159 0.049532
v 0.027589 0.014924 0.015961
v 0.005005 0.016633 -0.012604
v -0.004730 0.031159 0.049532
v 0.020600 0.015503 -0.006439
v 0.020600 0.015503 -0.006439
v -0.001679 0.000641 0.107883
v 0.013611 0.014710 0.102084
v 0.017823 0.030335 0.005310
v 0.009491 0.015564 0.052370
v 0.017823 0.030335 0.005310
v -0.024903 0.017762 0.044496
v 0.020600 0.015503 -0.006439
v 0.017548 0.028779 0.132969
v 0.027375 0.013611 0.121952
v 0.020295 0.013642 0.144353
v -0.018830 0.016480 0.117740
v 0.027589 0.014924 0.015961
v 0.027375 0.013611 0.121952
v 0.013611 0.014710 0.102084
v -0.006531 0.001648 0.049165
v 0.005005 0.016633 -0.012604
v -0.213935 -0.000580 0.128025
v -0.231483 0.015137 0.140599
v -0.231483 0.015137 0.140599
v -0.213935 -0.000580 0.128025
v -0.218848 0.000977 0.098178
v -0.238319 0.017243 0.100894
v -0.184362 0.015473 0.054415
v -0.216803 0.030457 0.099399
v -0.158025 0.000336 0.013245
v -0.197607 0.001801 0.043245
v -0.158025 0.000336 0.013245
v -0.211829 0.018281 0.032350
v -0.214728 0.013764 0.140629
v -0.148656 0.014832 0.005066
v -0.214728 0.013764 0.140629
v -0.214728 0.013764 0.140629
v -0.211921 0.028871 0.129246
v -0.202338 0.014771 0.100955
v -0.152196 0.014283 0.029542
v -0.195563 0.031251 0.044465
v -0.160039 0.016297 -0.005982
v -0.195563 0.031251 0.044465
v -0.148656 0.014832 0.005066
v -0.148656 0.014832 0.005066
v -0.202338 0.014771 0.100955
v -0.216803 0.030457 0.099399
v -0.156011 0.029786 0.014466
v -0.184362 0.015473 0.054415
v -0.156011 0.029786 0.014466
v -0.211829 0.018281 0.032350
v -0.148656 0.014832 0.005066
v -0.211921 0.028871 0.129246
v -0.198645 0.013520 0.124851
v -0.214728 0.013764 0.140629
v -0.238319 0.017243 0.100894
v -0.152196 0.014283 0.029542
v -0.198645 0.013520 0.124851
v -0.218848 0.000977 0.098178
v -0.197607 0.001801 0.043245
v -0.160039 0.016297 -0.005982
vt 0.800745 0.097964
vt 0.318705 0.097964
vt 0.318705 0.097964
vt 0.030396 0.097964
vt 0.030396 0.319773
vt 0.318705 0.319773
vt 0.800745 0.605487
vt 0.582904 0.319773
vt 0.999969 0.878750
vt 0.030396 0.605487
vt 0.318705 0.605487
vt 0.030396 0.878750
vt 0.508530 0.024354
vt 0.508530 0.024354
vt 0.508530 0.024354
vt 0.508530 0.959655
vt 0.582904 0.097964
vt 0.582904 0.319773
vt 0.800745 0.878750
vt 0.582904 0.605487
vt 0.318705 0.878750
vt 0.582904 0.605487
vt 0.508530 0.959655
vt 0.508530 0.959655
vt 0.999969 0.319773
vt 0.800745 0.319773
vt 0.582904 0.878750
vt 0.800745 0.605487
vt 0.318705 0.605487
vt 0.582904 0.878750
vt 0.800745 0.097964
vt 0.508530 0.959655
vt 1.000000 0.097964
vt 0.508530 0.024354
vt 0.318705 0.319773
vt 0.800745 0.878750
vt 0.582904 0.097964
vt 0.800745 0.319773
vt 0.999969 0.605487
vt 0.318705 0.878750
vt 0.800745 0.097964
vt 0.318705 0.097964
vt 0.318705 0.097964
vt 0.030396 0.097964
vt 0.318705 0.319773
vt 0.582904 0.319773
vt 0.582904 0.605487
vt 0.318705 0.319773
vt 0.800745 0.878750
vt 0.030396 0.605487
vt 0.030396 0.878750
vt 0.318705 0.605487
vt 0.508530 0.024354
vt 0.508530 0.959655
vt 0.508530 0.024354
vt 0.508530 0.024354
vt 0.582904 0.097964
vt 0.582904 0.319773
vt 0.800745 0.605487
vt 0.582904 0.878750
vt 0.582904 0.605487
vt 0.318705 0.878750
vt 0.508530 0.959655
vt 0.508530 0.959655
vt 0.999969 0.319773
vt 0.800745 0.319773
vt 0.800745 0.878750
vt 0.999969 0.605487
vt 0.318705 0.605487
vt 0.582904 0.878750
vt 0.800745 0.097964
vt 0.508530 0.959655
vt 1.000000 0.097964
vt 0.508530 0.024354
vt 0.030396 0.319773
vt 0.800745 0.605487
vt 0.582904 0.097964
vt 0.800745 0.319773
vt 0.999969 0.878750
vt 0.318705 0.878750
vt 1.000000 0.097964
vt 0.318705 0.097964
vt 0.318705 0.097964
vt 0.030396 0.097964
vt 0.030396 0.319773
vt 0.318705 0.319773
vt 0.800745 0.605487
vt 0.582904 0.319773
vt 0.999969 0.878750
vt 0.318705 0.605487
vt 0.030396 0.605487
vt 0.030396 0.878750
vt 0.508530 0.024354
vt 0.508530 0.024354
vt 0.508530 0.024354
vt 0.508530 0.959655
vt 0.582904 0.097964
vt 0.800745 0.319773
vt 0.800745 0.878750
vt 0.582904 0.605487
vt 0.582904 0.605487
vt 0.318705 0.878750
vt 0.508530 0.959655
vt 0.508530 0.959655
vt 0.800745 0.319773
vt 0.582904 0.319773
vt 0.582904 0.878750
vt 0.800745 0.605487
vt 0.318705 0.605487
vt 0.582904 0.878750
vt 0.582904 0.097964
vt 0.508530 0.959655
vt 0.800745 0.097964
vt 0.508530 0.024354
vt 0.318705 0.319773
vt 0.800745 0.878750
vt 0.800745 0.097964
vt 0.999969 0.319773
vt 0.999969 0.605487
vt 0.318705 0.878750
vt 1.000000 0.097964
vt 0.318705 0.097964
vt 0.318705 0.097964
vt 0.030396 0.097964
vt 0.030396 0.319773
vt 0.318705 0.319773
vt 0.582904 0.605487
vt 0.582904 0.319773
vt 0.800745 0.878750
vt 0.030396 0.605487
vt 0.318705 0.605487
vt 0.030396 0.878750
vt 0.508530 0.024354
vt 0.508530 0.024354
vt 0.508530 0.024354
vt 0.508530 0.959655
vt 0.582904 0.097964
vt 0.582904 0.319773
vt 0.800745 0.605487
vt 0.582904 0.878750
vt 0.318705 0.878750
vt 0.582904 0.605487
vt 0.508530 0.959655
vt 0.508530 0.959655
vt 0.999969 0.319773
vt 0.800745 0.319773
vt 0.800745 0.878750
vt 0.999969 0.605487
vt 0.318705 0.605487
vt 0.582904 0.878750
vt 0.582904 0.097964
vt 0.508530 0.959655
vt 0.800745 0.097964
vt 0.508530 0.024354
vt 0.318705 0.319773
vt 0.800745 0.605487
vt 0.800745 0.097964
vt 0.800745 0.319773
vt 0.999969 0.878750
vt 0.318705 0.878750
vt 1.000000 0.097964
vt 0.030396 0.097964
vt 0.318705 0.097964
vt 0.318705 0.097964
vt 0.030396 0.319773
vt 0.318705 0.319773
vt 0.582904 0.319773
vt 0.800745 0.605487
vt 0.999969 0.878750
vt 0.318705 0.605487
vt 0.030396 0.605487
vt 0.030396 0.878750
vt 0.508530 0.024354
vt 0.508530 0.024354
vt 0.508530 0.024354
vt 0.508530 0.959655
vt 0.582904 0.319773
vt 0.582904 0.097964
vt 0.582904 0.605487
vt 0.800745 0.878750
vt 0.318705 0.878750
vt 0.582904 0.605487
vt 0.508530 0.959655
vt 0.508530 0.959655
vt 0.999969 0.319773
vt 0.800745 0.319773
vt 0.582904 0.878750
vt 0.800745 0.605487
vt 0.582904 0.878750
vt 0.318705 0.605487
vt 0.508530 0.959655
vt 0.582904 0.097964
vt 0.800745 0.097964
vt 0.508530 0.024354
vt 0.318705 0.319773
vt 0.800745 0.878750
vt 0.800745 0.097964
vt 0.800745 0.319773
vt 0.999969 0.605487
vt 0.318705 0.878750
vt 1.000000 0.097964
vt 0.318705 0.097964
vt 0.318705 0.097964
vt 0.030396 0.097964
vt 0.030396 0.319773
vt 0.318705 0.319773
vt 0.800745 0.605487
vt 0.582904 0.319773
vt 0.999969 0.878750
vt 0.030396 0.605487
vt 0.030396 0.878750
vt 0.318705 0.605487
vt 0.508530 0.024354
vt 0.508530 0.959655
vt 0.508530 0.024354
vt 0.508530 0.024354
vt 0.582904 0.097964
vt 0.800745 0.319773
vt 0.800745 0.878750
vt 0.582904 0.605487
vt 0.318705 0.878750
vt 0.582904 0.605487
vt 0.508530 0.959655
vt 0.508530 0.959655
vt 0.800745 0.319773
vt 0.582904 0.319773
vt 0.582904 0.878750
vt 0.800745 0.605487
vt 0.582904 0.878750
vt 0.318705 0.605487
vt 0.508530 0.959655
vt 0.582904 0.097964
vt 0.800745 0.097964
vt 0.508530 0.024354
vt 0.318705 0.319773
vt 0.800745 0.878750
vt 0.800745 0.097964
vt 0.999969 0.319773
vt 0.999969 0.605487
vt 0.318705 0.878750
vn 0.727018 -0.679686 -0.097325
vn -0.417242 0.820068 0.391659
vn -0.413647 -0.821446 0.392586
vn -0.463706 -0.821287 0.332362
vn -0.597266 -0.801796 -0.019897
vn -0.584253 0.807931 0.076783
vn 0.650550 0.715028 0.255966
vn -0.600872 0.799067 -0.021073
vn 0.688071 -0.645806 0.330897
vn -0.545826 -0.808328 -0.220635
vn -0.547000 -0.806347 -0.224933
vn -0.385184 -0.816431 -0.430202
vn 0.101476 -0.634354 0.766353
vn 0.793968 0.420698 0.438894
vn 0.099074 0.635591 0.765643
vn 0.904329 -0.420292 -0.074460
vn -0.467363 0.819612 0.331374
vn 0.687024 0.721607 -0.085330
vn 0.637939 0.671239 0.377455
vn 0.651306 0.712841 0.260113
vn -0.330538 -0.821491 -0.464648
vn -0.549206 0.805641 -0.222071
vn 0.440768 -0.632266 -0.637153
vn 0.902574 0.424072 -0.074316
vn 0.689244 -0.719627 -0.084145
vn 0.700449 0.713232 0.025931
vn 0.685731 0.648453 0.330577
vn 0.652733 -0.712727 0.256825
vn -0.550470 0.803569 -0.226405
vn -0.388674 0.813932 -0.431795
vn 0.725000 0.681676 -0.098450
vn 0.436112 0.634312 -0.638321
vn 0.760313 -0.649544 -0.003952
vn 0.795363 -0.417242 0.439666
vn -0.580497 -0.810528 0.077896
vn 0.640345 -0.668732 0.377829
vn 0.758407 0.651761 -0.005164
vn 0.702646 -0.711027 0.026996
vn 0.653531 -0.710486 0.260972
vn -0.334297 0.819129 -0.466126
vn 0.530668 -0.710421 -0.462270
vn -0.142550 0.803061 0.578595
vn -0.140823 -0.802184 0.580233
vn -0.214031 -0.800878 0.559273
vn -0.488398 -0.786822 0.377329
vn -0.492089 0.786706 0.372748
vn 0.645188 0.737408 -0.199905
vn -0.490392 0.786110 0.376227
vn 0.733768 -0.661029 -0.156923
vn -0.584806 -0.787083 0.196220
vn -0.571083 -0.809603 -0.135674
vn -0.604030 -0.793110 0.078252
vn 0.502768 -0.634021 0.587572
vn 0.658351 -0.450024 -0.603368
vn 0.501633 0.636145 0.586246
vn 0.897912 0.436350 -0.057897
vn -0.215767 0.801435 0.557805
vn 0.495053 0.749162 -0.440090
vn 0.678837 0.730085 -0.078464
vn 0.719563 0.692211 -0.055425
vn -0.586987 0.785686 0.195305
vn -0.542976 -0.816912 -0.194503
vn 0.657138 0.451080 -0.603902
vn 0.055991 -0.630914 -0.773829
vn 0.496794 -0.748705 -0.438903
vn 0.567279 0.740683 -0.359978
vn 0.731846 0.662920 -0.157921
vn 0.647312 -0.735693 -0.199354
vn -0.606226 0.791481 0.077771
vn -0.573174 0.808052 -0.136100
vn 0.529039 0.710604 -0.463852
vn 0.056086 0.629306 -0.775131
vn 0.613240 -0.679201 -0.403265
vn 0.898734 -0.434791 -0.056879
vn -0.490329 -0.787359 0.373689
vn 0.681113 -0.728024 -0.077881
vn 0.611610 0.679539 -0.405167
vn 0.569182 -0.739451 -0.359504
vn 0.721654 -0.690122 -0.054283
vn -0.544899 0.815466 -0.195192
vn 0.702533 -0.698453 -0.136424
vn -0.357728 0.837418 0.413234
vn -0.399486 -0.823060 0.403712
vn -0.457496 -0.819069 0.346155
vn -0.627150 -0.778886 0.004467
vn -0.560196 0.820921 0.110764
vn 0.681101 0.714948 0.157958
vn -0.587195 0.809333 0.013489
vn 0.670780 -0.688730 0.275146
vn -0.595866 -0.775248 -0.209606
vn -0.594455 -0.777512 -0.205178
vn -0.452425 -0.780137 -0.432085
vn 0.194295 -0.640140 0.743284
vn 0.227055 0.621335 0.749926
vn 0.795226 0.421165 0.436161
vn 0.885327 -0.446683 -0.129112
vn -0.416011 0.837129 0.355176
vn 0.692708 0.709671 -0.128541
vn 0.651793 0.682845 0.329983
vn 0.636547 0.719297 0.278244
vn -0.554775 0.808800 -0.195109
vn -0.403245 -0.785725 -0.469074
vn 0.903754 0.408968 -0.126387
vn 0.345393 -0.638456 -0.687807
vn 0.660794 -0.737780 -0.137957
vn 0.705629 0.708361 -0.017672
vn 0.699642 0.657149 0.280457
vn 0.650060 -0.744838 0.150464
vn -0.556223 0.806727 -0.199518
vn -0.412649 0.807661 -0.421194
vn 0.732532 0.668808 -0.126857
vn 0.378409 0.630311 -0.677875
vn 0.750306 -0.661067 0.005535
vn 0.776237 -0.461239 0.429784
vn -0.600627 -0.793012 0.101877
vn 0.622002 -0.712696 0.324312
vn 0.778119 0.627952 0.014401
vn 0.674515 -0.737798 -0.026137
vn 0.605858 -0.747771 0.271615
vn -0.362979 0.811389 -0.458142
vn 0.528833 -0.709033 -0.466485
vn -0.126559 0.814016 0.566887
vn -0.123459 -0.813891 0.567750
vn -0.200792 -0.810883 0.549683
vn -0.525339 -0.779633 0.340867
vn -0.453547 0.790126 0.412306
vn 0.634213 0.746616 -0.200844
vn -0.528607 0.777836 0.339919
vn 0.719392 -0.674546 -0.165718
vn -0.603357 -0.785483 0.137759
vn -0.607426 -0.782829 0.134956
vn -0.592269 -0.794827 -0.132167
vn 0.554468 -0.631360 0.542172
vn 0.891223 0.452228 -0.034813
vn 0.550569 0.635082 0.541798
vn 0.657384 -0.448914 -0.605246
vn -0.203535 0.810648 0.549020
vn 0.525923 0.747582 -0.405618
vn 0.663110 0.744141 -0.080863
vn 0.702376 0.709046 -0.062625
vn -0.567246 -0.801330 -0.190004
vn -0.607136 0.782679 0.137114
vn 0.007266 -0.633863 -0.773411
vn 0.655953 0.450676 -0.605489
vn 0.528219 -0.746322 -0.404955
vn 0.528509 0.746546 -0.404164
vn 0.716806 0.677267 -0.165830
vn 0.635679 -0.745768 -0.199357
vn -0.610722 0.780380 0.134257
vn -0.595736 0.792160 -0.132596
vn 0.526536 0.710282 -0.467182
vn 0.004802 0.633034 -0.774109
vn 0.645935 -0.666722 -0.371819
vn 0.893167 -0.448458 -0.033734
vn -0.450695 -0.791267 0.413244
vn 0.664629 -0.742945 -0.079376
vn 0.643653 0.668429 -0.372711
vn 0.530372 -0.745870 -0.402968
vn 0.704245 -0.707247 -0.061970
vn -0.570369 0.799043 -0.190286
vn 0.645176 -0.718990 -0.258458
vn -0.435239 -0.799497 0.413970
vn -0.372671 -0.804741 0.462068
vn -0.265755 0.836115 0.479882
vn -0.643965 -0.758654 0.098758
vn -0.501964 0.839203 0.209212
vn -0.540789 0.832939 0.117304
vn 0.722765 0.680773 0.118991
vn 0.695401 -0.699417 0.165025
vn -0.640935 -0.758897 -0.115229
vn -0.639162 -0.760982 -0.111260
vn -0.528971 -0.771606 -0.353289
vn 0.236556 -0.658683 0.714267
vn 0.323117 0.605544 0.727264
vn 0.885661 0.370841 0.279431
vn 0.837398 -0.473241 -0.273509
vn 0.707098 0.686571 -0.169213
vn -0.329216 0.840036 0.431227
vn 0.724200 0.678544 0.122933
vn 0.734651 0.636594 0.234599
vn -0.484178 -0.779214 -0.397991
vn -0.535247 0.839856 -0.090295
vn 0.241733 -0.640583 -0.728848
vn 0.886737 0.377454 -0.266882
vn 0.625294 -0.757266 -0.188563
vn 0.709260 0.684932 -0.166790
vn 0.771000 0.611487 0.177883
vn 0.640610 -0.761050 0.102081
vn -0.424463 0.842808 -0.330916
vn -0.537469 0.837976 -0.094460
vn 0.325980 0.623783 -0.710375
vn 0.724820 0.646744 -0.237401
vn 0.720250 -0.681213 -0.131103
vn 0.835824 -0.480894 0.264839
vn -0.605891 -0.772172 0.191430
vn 0.656546 -0.721289 0.220658
vn 0.795465 0.595798 -0.110725
vn 0.627222 -0.756303 -0.186008
vn 0.642565 -0.758849 0.106109
vn -0.378779 0.845720 -0.375879
vn 0.679937 -0.731824 0.046036
vn -0.413000 0.852713 0.319860
vn -0.540198 -0.803430 0.250370
vn -0.579499 -0.794885 0.179828
vn -0.644609 -0.738829 -0.196497
vn -0.525801 0.850173 -0.027186
vn 0.637400 0.680380 0.361670
vn -0.524932 0.841485 -0.127866
vn 0.531494 -0.728049 0.432965
vn -0.553266 -0.735718 -0.390661
vn -0.353093 -0.742185 -0.569637
vn -0.553366 -0.733224 -0.395182
vn -0.055527 -0.660800 0.748505
vn 0.862421 -0.493264 0.113668
vn 0.047351 0.595502 0.801957
vn 0.652019 0.375264 0.658824
vn -0.453717 0.855981 0.247867
vn 0.728794 0.678486 0.092277
vn 0.561468 0.647487 0.515281
vn 0.561522 0.685235 0.463838
vn -0.296382 -0.749880 -0.591470
vn -0.434922 0.842461 -0.317966
vn 0.487022 -0.646250 -0.587512
vn 0.920628 0.363965 0.141327
vn 0.639154 -0.768375 0.032898
vn 0.709953 0.674841 0.201387
vn 0.620483 0.619846 0.480407
vn 0.546014 -0.779728 0.306420
vn -0.236088 0.836107 -0.495163
vn -0.435985 0.839943 -0.323129
vn 0.587210 0.617652 -0.523155
vn 0.764886 0.635340 0.106268
vn 0.686428 -0.700116 0.196605
vn 0.598471 -0.509889 0.617937
vn -0.647081 -0.756498 -0.094851
vn 0.470040 -0.749628 0.465962
vn 0.766350 0.589943 0.254313
vn 0.620347 -0.771004 0.143952
vn 0.468700 -0.782507 0.409882
vn -0.177701 0.837169 -0.517272
f 34/34/34 33/33/33 1/1/1
f 25/25/25 1/1/1 33/33/33
f 38/38/38 1/1/1 25/25/25
f 39/39/39 38/38/38 25/25/25
f 28/28/28 38/38/38 39/39/39
f 39/39/39 36/36/36 28/28/28
f 9/9/9 36/36/36 39/39/39
f 9/9/9 16/16/16 36/36/36
f 13/13/13 3/3/3 4/4/4
f 35/35/35 4/4/4 3/3/3
f 5/5/5 4/4/4 35/35/35
f 11/11/11 5/5/5 35/35/35
f 10/10/10 5/5/5 11/11/11
f 11/11/11 12/12/12 10/10/10
f 21/21/21 12/12/12 11/11/11
f 21/21/21 23/23/23 12/12/12
f 15/15/15 17/17/17 2/2/2
f 17/17/17 6/6/6 2/2/2
f 8/8/8 6/6/6 17/17/17
f 8/8/8 29/29/29 6/6/6
f 22/22/22 29/29/29 8/8/8
f 30/30/30 29/29/29 22/22/22
f 40/40/40 29/29/29 30/30/30
f 30/30/30 32/32/32 40/40/40
f 37/37/37 14/14/14 31/31/31
f 31/31/31 18/18/18 37/37/37
f 26/26/26 18/18/18 31/31/31
f 26/26/26 20/20/20 18/18/18
f 7/7/7 20/20/20 26/26/26
f 19/19/19 20/20/20 7/7/7
f 27/27/27 20/20/20 19/19/19
f 24/24/24 27/27/27 19/19/19
f 74/74/74 73/73/73 41/41/41
f 65/65/65 41/41/41 73/73/73
f 78/78/78 41/41/41 65/65/65
f 68/68/68 78/78/78 65/65/65
f 76/76/76 78/78/78 68/68/68
f 79/79/79 76/76/76 68/68/68
f 49/49/49 76/76/76 79/79/79
f 79/79/79 54/54/54 49/49/49
f 53/53/53 43/43/43 44/44/44
f 45/45/45 44/44/44 43/43/43
f 75/75/75 44/44/44 45/45/45
f 45/45/45 50/50/50 75/75/75
f 52/52/52 50/50/50 45/45/45
f 52/52/52 51/51/51 50/50/50
f 62/62/62 51/51/51 52/52/52
f 62/62/62 64/64/64 51/51/51
f 55/55/55 57/57/57 42/42/42
f 57/57/57 48/48/48 42/42/42
f 46/46/46 48/48/48 57/57/57
f 61/61/61 48/48/48 46/46/46
f 69/69/69 48/48/48 61/61/61
f 70/70/70 69/69/69 61/61/61
f 80/80/80 69/69/69 70/70/70
f 70/70/70 72/72/72 80/80/80
f 77/77/77 56/56/56 71/71/71
f 71/71/71 58/58/58 77/77/77
f 66/66/66 58/58/58 71/71/71
f 66/66/66 47/47/47 58/58/58
f 59/59/59 47/47/47 66/66/66
f 59/59/59 60/60/60 47/47/47
f 67/67/67 60/60/60 59/59/59
f 63/63/63 60/60/60 67/67/67
f 114/114/114 81/81/81 113/113/113
f 81/81/81 105/105/105 113/113/113
f 118/118/118 105/105/105 81/81/81
f 118/118/118 108/108/108 105/105/105
f 119/119/119 108/108/108 118/118/118
f 119/119/119 116/116/116 108/108/108
f 89/89/89 116/116/116 119/119/119
f 89/89/89 96/96/96 116/116/116
f 93/93/93 83/83/83 84/84/84
f 115/115/115 84/84/84 83/83/83
f 85/85/85 84/84/84 115/115/115
f 90/90/90 85/85/85 115/115/115
f 91/91/91 85/85/85 90/90/90
f 90/90/90 92/92/92 91/91/91
f 102/102/102 92/92/92 90/90/90
f 102/102/102 104/104/104 92/92/92
f 94/94/94 97/97/97 82/82/82
f 97/97/97 86/86/86 82/82/82
f 88/88/88 86/86/86 97/97/97
f 88/88/88 109/109/109 86/86/86
f 101/101/101 109/109/109 88/88/88
f 110/110/110 109/109/109 101/101/101
f 120/120/120 109/109/109 110/110/110
f 110/110/110 112/112/112 120/120/120
f 111/111/111 95/95/95 117/117/117
f 98/98/98 111/111/111 117/117/117
f 106/106/106 111/111/111 98/98/98
f 87/87/87 106/106/106 98/98/98
f 100/100/100 106/106/106 87/87/87
f 99/99/99 100/100/100 87/87/87
f 107/107/107 100/100/100 99/99/99
f 103/103/103 107/107/107 99/99/99
f 154/154/154 121/121/121 153/153/153
f 121/121/121 158/158/158 153/153/153
f 145/145/145 158/158/158 121/121/121
f 148/148/148 158/158/158 145/145/145
f 156/156/156 158/158/158 148/148/148
f 159/159/159 156/156/156 148/148/148
f 129/129/129 156/156/156 159/159/159
f 159/159/159 136/136/136 129/129/129
f 133/133/133 123/123/123 124/124/124
f 155/155/155 124/124/124 123/123/123
f 125/125/125 124/124/124 155/155/155
f 131/131/131 125/125/125 155/155/155
f 130/130/130 125/125/125 131/131/131
f 131/131/131 132/132/132 130/130/130
f 141/141/141 132/132/132 131/131/131
f 141/141/141 143/143/143 132/132/132
f 135/135/135 137/137/137 122/122/122
f 137/137/137 126/126/126 122/122/122
f 128/128/128 126/126/126 137/137/137
f 128/128/128 149/149/149 126/126/126
f 142/142/142 149/149/149 128/128/128
f 150/150/150 149/149/149 142/142/142
f 160/160/160 149/149/149 150/150/150
f 150/150/150 152/152/152 160/160/160
f 151/151/151 134/134/134 157/157/157
f 146/146/146 151/151/151 157/157/157
f 138/138/138 151/151/151 146/146/146
f 146/146/146 127/127/127 138/138/138
f 139/139/139 127/127/127 146/146/146
f 139/139/139 140/140/140 127/127/127
f 147/147/147 140/140/140 139/139/139
f 144/144/144 140/140/140 147/147/147
f 194/194/194 161/161/161 193/193/193
f 161/161/161 198/198/198 193/193/193
f 185/185/185 198/198/198 161/161/161
f 199/199/199 198/198/198 185/185/185
f 188/188/188 198/198/198 199/199/199
f 199/199/199 196/196/196 188/188/188
f 169/169/169 196/196/196 199/199/199
f 169/169/169 176/176/176 196/196/196
f 173/173/173 163/163/163 162/162/162
f 195/195/195 162/162/162 163/163/163
f 165/165/165 162/162/162 195/195/195
f 170/170/170 165/165/165 195/195/195
f 171/171/171 165/165/165 170/170/170
f 170/170/170 172/172/172 171/171/171
f 181/181/181 172/172/172 170/170/170
f 181/181/181 183/183/183 172/172/172
f 174/174/174 178/178/178 164/164/164
f 178/178/178 166/166/166 164/164/164
f 167/167/167 166/166/166 178/178/178
f 167/167/167 190/190/190 166/166/166
f 182/182/182 190/190/190 167/167/167
f 189/189/189 190/190/190 182/182/182
f 200/200/200 190/190/190 189/189/189
f 189/189/189 191/191/191 200/200/200
f 192/192/192 175/175/175 197/197/197
f 186/186/186 192/192/192 197/197/197
f 177/177/177 192/192/192 186/186/186
f 186/186/186 179/179/179 177/177/177
f 168/168/168 179/179/179 186/186/186
f 180/180/180 179/179/179 168/168/168
f 187/187/187 179/179/179 180/180/180
f 184/184/184 187/187/187 180/180/180
f 234/234/234 201/201/201 233/233/233
f 201/201/201 225/225/225 233/233/233
f 238/238/238 225/225/225 201/201/201
f 238/238/238 228/228/228 225/225/225
f 239/239/239 228/228/228 238/238/238
f 239/239/239 236/236/236 228/228/228
f 209/209/209 236/236/236 239/239/239
f 209/209/209 214/214/214 236/236/236
f 213/213/213 203/203/203 204/204/204
f 235/235/235 204/204/204 203/203/203
f 205/205/205 204/204/204 235/235/235
f 212/212/212 205/205/205 235/235/235
f 210/210/210 205/205/205 212/212/212
f 212/212/212 211/211/211 210/210/210
f 221/221/221 211/211/211 212/212/212
f 221/221/221 223/223/223 211/211/211
f 215/215/215 217/217/217 202/202/202
f 217/217/217 206/206/206 202/202/202
f 208/208/208 206/206/206 217/217/217
f 208/208/208 230/230/230 206/206/206
f 222/222/222 230/230/230 208/208/208
f 229/229/229 230/230/230 222/222/222
f 240/240/240 230/230/230 229/229/229
f 229/229/229 231/231/231 240/240/240
f 232/232/232 216/216/216 237/237/237
f 218/218/218 232/232/232 237/237/237
f 226/226/226 232/232/232 218/218/218
f 207/207/207 226/226/226 218/218/218
f 220/220/220 226/226/226 207/207/207
f 219/219/219 220/220/220 207/207/207
f 227/227/227 220/220/220 219/219/219
f 224/224/224 227/227/227 219/219/219
