# Exported by s4extract — object_Food_Elote_lod00_g02
o object_Food_Elote_lod00_g02
v -0.063814 0.011841 0.004364
v -0.021271 0.011841 0.014496
v -0.065767 0.026307 0.012543
v -0.000366 0.011994 -0.042512
v -0.048433 0.041322 -0.016327
v -0.064638 0.027009 -0.016175
v -0.064638 0.027009 -0.016175
v -0.048250 0.014069 -0.014496
v -0.052553 0.027467 -0.007904
v -0.016449 0.011444 0.033479
v -0.060823 0.040071 -0.023957
v -0.064364 0.027192 -0.034455
v -0.064638 0.027009 -0.016175
v -0.052828 0.014863 -0.036103
v -0.060640 0.014405 -0.022248
v -0.049013 0.027924 -0.043886
v 0.071200 0.032411 0.012818
v -0.052828 0.014863 -0.036103
v -0.049013 0.027924 -0.043886
v -0.053011 0.040529 -0.037812
v -0.039796 0.014527 -0.029481
v -0.060640 0.014405 -0.022248
v -0.035646 0.028413 -0.037873
v 0.066591 0.032014 0.039186
v -0.046175 0.012391 0.012391
v -0.021271 0.011841 0.014496
v -0.016449 0.011444 0.033479
v 0.065126 0.012055 0.025178
v 0.064852 0.052065 0.022462
v 0.052461 0.051393 0.044465
v 0.046388 0.031007 0.056795
v 0.002503 0.013611 0.015778
v 0.052736 0.011353 0.047151
v -0.076632 0.011444 0.019166
v -0.043611 0.032472 0.013977
v -0.040864 0.011994 0.002441
v 0.007782 0.011841 -0.020966
v -0.023194 0.026307 0.022645
v -0.063814 0.011841 0.004364
v 0.016175 0.026307 -0.021332
v 0.011505 0.032472 -0.043031
v 0.063295 0.033509 -0.014771
v 0.036409 0.018311 -0.060976
v 0.064058 0.018311 -0.027100
v 0.011505 0.032472 -0.043031
v 0.011505 0.032472 -0.043031
v 0.025513 0.011444 -0.012665
v 0.022797 0.011444 -0.074465
v 0.016175 0.026307 -0.021332
v 0.014252 0.026307 -0.065035
v 0.025513 0.011444 -0.012665
v 0.009430 0.012391 -0.043519
v 0.023438 0.018311 -0.050417
v 0.022797 0.011444 -0.074465
v 0.007782 0.011841 -0.020966
v 0.009430 0.012391 -0.043519
v 0.005860 0.011841 -0.064669
v 0.011505 0.032472 -0.043031
v 0.014252 0.026307 -0.065035
v -0.053011 0.040529 -0.037812
v -0.039979 0.041810 -0.031312
v -0.049013 0.027924 -0.043886
v 0.034577 0.011994 -0.031251
v 0.052919 0.011994 -0.046236
v 0.051088 0.018311 -0.016511
v 0.024201 0.033509 -0.062716
v 0.052919 0.011994 -0.046236
v 0.024201 0.033509 -0.062716
v 0.023438 0.018311 -0.050417
v 0.023438 0.018311 -0.050417
v 0.063295 0.033509 -0.014771
v 0.036409 0.018311 -0.060976
v 0.043764 0.031648 -0.038759
v 0.034577 0.011994 -0.031251
v 0.051088 0.018311 -0.016511
v 0.024201 0.033509 -0.062716
v 0.051088 0.018311 -0.016511
v 0.064058 0.018311 -0.027100
v 0.022797 0.011444 -0.074465
v 0.043764 0.031648 -0.038759
v -0.023194 0.026307 0.022645
v -0.002533 0.029267 0.023469
v 0.046388 0.031007 0.056795
v -0.035646 0.028413 -0.037873
v -0.060823 0.040071 -0.023957
v 0.017212 0.030366 -0.011536
v 0.017212 0.030366 -0.011536
v 0.071200 0.032411 0.012818
v 0.064852 0.052065 0.022462
v 0.071200 0.032411 0.012818
v 0.012177 0.046052 -0.003876
v 0.012391 0.014161 -0.001709
v 0.016175 0.026307 -0.021332
v 0.025513 0.011444 -0.012665
v 0.046388 0.031007 0.056795
v 0.002289 0.045473 0.013642
v 0.014252 0.026307 -0.065035
v -0.000366 0.011994 -0.042512
v 0.005860 0.011841 -0.064669
v 0.009430 0.012391 -0.043519
v -0.023194 0.026307 0.022645
v -0.043611 0.032472 0.013977
v -0.016449 0.011444 0.033479
v -0.076632 0.011444 0.019166
v -0.043611 0.032472 0.013977
v 0.063295 0.033509 -0.014771
v 0.052736 0.011353 0.047151
v 0.065126 0.012055 0.025178
v -0.052553 0.027467 -0.007904
v -0.002533 0.029267 0.023469
v -0.040864 0.011994 0.002441
v 0.052461 0.051393 0.044465
v -0.046175 0.012391 0.012391
v -0.065767 0.026307 0.012543
v -0.076632 0.011444 0.019166
v -0.046175 0.012391 0.012391
v 0.079440 0.034791 0.014313
v 0.011505 0.032472 -0.043031
v -0.059114 0.043855 -0.042177
v 0.022797 0.011444 -0.074465
v 0.025513 0.011444 -0.012665
v -0.065767 0.026307 0.012543
v 0.025513 0.011444 -0.012665
v -0.043611 0.032472 0.013977
v 0.050813 0.036134 0.056825
v -0.023194 0.026307 0.022645
v 0.022797 0.011444 -0.074465
v 0.072207 0.036134 0.018616
v -0.065767 0.026307 0.012543
v -0.065767 0.026307 0.012543
v -0.076632 0.011444 0.019166
v 0.045076 0.052553 0.053652
v -0.001007 0.067568 -0.000061
v 0.061525 0.036134 0.037721
v -0.076632 0.011444 0.019166
v -0.063814 0.011841 0.004364
v -0.043611 0.032472 0.013977
v -0.040864 0.011994 0.002441
v 0.068880 0.052553 0.011170
v -0.039369 0.050539 -0.036317
v 0.058412 0.066347 0.034089
v 0.050813 0.036134 0.056825
v 0.072207 0.036134 0.018616
v 0.014252 0.026307 -0.065035
v -0.052034 0.057375 -0.025880
v 0.072359 0.056734 0.025056
v -0.037843 0.030427 -0.045717
v 0.072359 0.056734 0.025056
v -0.043458 0.036134 -0.043428
v -0.016449 0.011444 0.033479
v -0.067843 0.043336 -0.026734
v -0.054659 0.029786 -0.048952
v -0.023194 0.026307 0.022645
v 0.014252 0.026307 -0.065035
v -0.021271 0.011841 0.014496
v 0.058412 0.066347 0.034089
v -0.000366 0.011994 -0.042512
v 0.022523 0.012391 -0.043519
v 0.011505 0.032472 -0.043031
v -0.016449 0.011444 0.033479
v -0.046175 0.012391 0.024751
v 0.005860 0.011841 -0.064669
v 0.022523 0.012391 -0.043519
v 0.016175 0.026307 -0.021332
v 0.007782 0.011841 -0.020966
v 0.016175 0.026307 -0.021332
v -0.061190 0.036134 -0.011780
v 0.068880 0.052553 0.011170
v 0.045076 0.052553 0.053652
v -0.058321 0.036134 -0.029420
v -0.060579 0.029145 -0.005402
v 0.051759 0.033235 0.063356
v 0.058809 0.011292 0.052614
v -0.043458 0.036134 -0.043428
v -0.054323 0.050539 -0.009644
v 0.074282 0.034333 0.043703
v 0.058809 0.011292 0.052614
v 0.051759 0.033235 0.063356
v -0.046175 0.012391 0.024751
v -0.058931 0.015198 -0.040284
v 0.079440 0.034791 0.014313
v -0.054659 0.029786 -0.048952
v 0.058535 0.055940 0.049593
v -0.071810 0.028962 -0.038423
v 0.051759 0.033235 0.063356
v -0.072115 0.028779 -0.018036
v -0.061190 0.036134 -0.011780
v -0.052034 0.057375 -0.025880
v 0.079440 0.034791 0.014313
v -0.037843 0.030427 -0.045717
v -0.054781 0.011139 -0.014222
v -0.059114 0.043855 -0.042177
v -0.072115 0.028779 -0.018036
v -0.060579 0.029145 -0.005402
v -0.072115 0.028779 -0.018036
v -0.067843 0.043336 -0.026734
v 0.072665 0.012085 0.028077
v -0.054659 0.029786 -0.048952
v -0.043641 0.048463 -0.036866
v -0.067660 0.014710 -0.024812
v -0.067660 0.014710 -0.024812
v -0.043397 0.011780 -0.034394
v -0.058931 0.015198 -0.040284
v 0.072665 0.012085 0.028077
v -0.055025 0.047823 -0.016724
v 0.058535 0.055940 0.049593
vt 0.432560 0.130100
vt 0.099745 0.130159
vt 0.432560 0.173006
vt 0.266123 0.116517
vt 0.158450 0.791357
vt 0.059521 0.726765
vt 0.059521 0.726765
vt 0.158450 0.791357
vt 0.158450 0.726765
vt 0.034162 0.101535
vt 1.853652 0.183733
vt 1.746270 0.108123
vt 1.910200 0.118558
vt 0.059521 0.882649
vt 0.059521 0.791357
vt 0.059521 0.967762
vt 0.813935 0.033795
vt 1.657252 0.056938
vt 1.580125 0.111853
vt 1.655678 0.179536
vt 0.158450 0.882649
vt 1.863096 0.063584
vt 0.158450 0.967762
vt 0.736809 0.114477
vt 0.276675 0.026216
vt 0.105109 0.032104
vt 0.034162 0.101535
vt 0.942187 0.882649
vt 0.909483 0.091391
vt 0.856666 0.166710
vt 0.942187 0.726765
vt 0.550319 0.791357
vt 0.942187 0.791357
vt 0.519130 0.101360
vt 0.276558 0.003364
vt 0.276558 0.003364
vt 0.432560 0.130100
vt 0.105109 0.032104
vt 0.448008 0.031987
vt 0.432560 0.173006
vt 0.266123 0.186590
vt 0.501524 0.151553
vt 0.099745 0.130159
vt 0.432560 0.130100
vt 0.276558 0.003364
vt 0.276558 0.003364
vt 0.519130 0.101360
vt 0.034162 0.101535
vt 0.448008 0.031987
vt 0.105109 0.032104
vt 0.519130 0.101360
vt 0.276675 0.040499
vt 0.099745 0.173006
vt 0.034162 0.101535
vt 0.448008 0.031987
vt 0.276675 0.040499
vt 0.099745 0.130159
vt 0.266123 0.186590
vt 0.099745 0.173006
vt 0.059521 0.882649
vt 0.158450 0.882649
vt 0.059521 0.967762
vt 0.266123 0.186590
vt 0.266123 0.116517
vt 0.432560 0.173006
vt 0.030897 0.151553
vt 0.276558 0.003364
vt 0.034162 0.101535
vt 0.105109 0.032104
vt 0.099745 0.173006
vt 0.519130 0.101360
vt 0.105109 0.032104
vt 0.276675 0.101360
vt 0.276558 0.003364
vt 0.432560 0.173006
vt 0.034162 0.101535
vt 0.448008 0.031987
vt 0.448008 0.031987
vt 0.030897 0.151553
vt 0.276675 0.101360
vt 0.099745 0.173006
vt 0.550319 0.726765
vt 0.736692 0.188105
vt 0.158450 0.967762
vt 0.059521 0.791357
vt 0.550319 0.967762
vt 0.550319 0.967762
vt 0.942187 0.967762
vt 0.942187 0.882649
vt 0.942187 0.967762
vt 0.550319 0.882649
vt 0.550319 0.882649
vt 0.432560 0.173006
vt 0.501524 0.151553
vt 0.942187 0.726765
vt 0.550319 0.791357
vt 0.099745 0.173006
vt 0.276558 0.003364
vt 0.105109 0.032104
vt 0.276675 0.040499
vt 0.099745 0.173006
vt 0.266123 0.186590
vt 0.030897 0.151553
vt 0.501524 0.151553
vt 0.276558 0.003364
vt 0.519130 0.101360
vt 0.622198 0.160298
vt 0.625638 0.063584
vt 0.158450 0.726765
vt 0.550319 0.726765
vt 0.266123 0.116517
vt 0.942187 0.791357
vt 0.276675 0.026216
vt 0.448008 0.031987
vt 0.519130 0.101360
vt 0.276675 0.026216
vt 0.942187 0.666544
vt 0.266123 0.186590
vt 0.059521 0.388878
vt 0.034162 0.101535
vt 0.519130 0.101360
vt 0.432560 0.173006
vt 0.519130 0.101360
vt 0.266123 0.186590
vt 0.913214 0.228854
vt 0.099745 0.173006
vt 0.034162 0.101535
vt 0.911698 0.459359
vt 0.432560 0.173006
vt 0.448008 0.031987
vt 0.519130 0.101360
vt 0.850545 0.274093
vt 0.454479 0.344107
vt 0.961717 0.344107
vt 0.519130 0.101360
vt 0.448008 0.031987
vt 0.276558 0.003364
vt 0.276558 0.003364
vt 0.847456 0.415753
vt 0.209284 0.407883
vt 0.835796 0.343815
vt 0.913214 0.228854
vt 0.911698 0.459359
vt 0.099745 0.173006
vt 0.167311 0.344107
vt 0.942187 0.388878
vt 0.158450 0.473175
vt 0.832707 0.178428
vt 0.153203 0.445717
vt 0.034162 0.101535
vt 0.059521 0.298402
vt 0.059521 0.473175
vt 0.105109 0.032104
vt 0.105109 0.032104
vt 0.105109 0.032104
vt 0.835796 0.343815
vt 0.276558 0.003364
vt 0.276675 0.101360
vt 0.276558 0.003364
vt 0.034162 0.101535
vt 0.276675 0.101360
vt 0.105109 0.032104
vt 0.276675 0.101360
vt 0.448008 0.031987
vt 0.448008 0.031987
vt 0.432560 0.173006
vt 0.139445 0.250716
vt 0.847456 0.415753
vt 0.850545 0.274093
vt 0.056548 0.344107
vt 0.158450 0.222792
vt 0.942187 0.530772
vt 0.942187 0.580732
vt 0.153203 0.445717
vt 0.197450 0.288492
vt 0.748993 0.112436
vt 0.650763 0.056005
vt 0.582265 0.119898
vt 0.276675 0.101360
vt 1.657252 0.056938
vt 0.906452 0.124446
vt 1.580125 0.111853
vt 0.942187 0.298402
vt 1.746270 0.108123
vt 0.942187 0.222792
vt 0.059521 0.222792
vt 0.139445 0.250716
vt 0.167311 0.344107
vt 0.942187 0.473175
vt 0.158450 0.666544
vt 0.158450 0.580732
vt 1.655678 0.179536
vt 0.059521 0.530772
vt 0.158450 0.530772
vt 1.910200 0.118558
vt 1.853652 0.183733
vt 0.942187 0.626669
vt 0.059521 0.666544
vt 0.158450 0.388878
vt 0.059521 0.580732
vt 1.863096 0.063584
vt 0.158450 0.626669
vt 0.059521 0.637221
vt 0.853052 0.054840
vt 0.158450 0.298402
vt 0.631584 0.176679
vn -0.391055 0.412409 -0.822797
vn 0.609083 0.449358 -0.653525
vn -0.249757 0.450184 -0.857296
vn -0.858319 0.500550 0.112864
vn -0.302986 0.875846 0.375624
vn -0.481046 0.551901 0.681176
vn -0.471528 -0.503260 0.724149
vn -0.335901 -0.770814 0.541309
vn -0.450787 -0.506451 0.735050
vn -0.541188 0.320975 0.777232
vn -0.883265 0.417209 -0.213964
vn -0.869850 -0.038952 -0.491775
vn -0.999853 -0.008139 -0.015104
vn 0.200684 -0.875647 -0.439282
vn -0.167424 -0.960050 0.224219
vn 0.361427 -0.556065 -0.748440
vn 0.984854 0.018465 0.172399
vn -0.607697 -0.484477 -0.629275
vn -0.520384 -0.060431 -0.851791
vn -0.659507 0.401438 -0.635530
vn 0.151800 -0.938514 -0.310077
vn -0.856749 -0.464129 -0.224867
vn 0.383288 -0.559283 -0.735046
vn 0.869832 0.039155 0.491792
vn -0.485161 0.168986 0.857941
vn -0.022022 -0.999757 -0.000372
vn -0.020730 -0.999663 -0.015627
vn 0.188051 -0.879105 -0.437963
vn 0.884109 0.342153 0.318249
vn 0.714018 0.356442 0.602601
vn -0.473063 -0.506431 0.720930
vn -0.228534 -0.917220 0.326312
vn -0.271738 -0.887909 0.371182
vn 0.031073 -0.999517 0.000118
vn -0.396276 -0.021948 0.917869
vn -0.008421 -0.999339 0.035357
vn -0.684537 0.412366 0.601135
vn -0.485161 0.168986 0.857941
vn 0.023348 -0.999581 0.017101
vn -0.818145 0.482380 0.312967
vn -0.818177 0.482255 0.313075
vn 0.543118 -0.512377 0.665202
vn -0.278904 -0.897268 -0.342233
vn 0.361115 -0.820961 0.442288
vn 0.967423 -0.094264 -0.234961
vn 0.982735 -0.105259 0.152162
vn -0.010605 -0.999628 -0.025123
vn -0.007650 -0.999599 0.027255
vn 0.929411 0.110793 -0.352024
vn 0.955657 0.098134 0.277649
vn 0.854253 0.282125 -0.436643
vn 0.929411 0.110793 -0.352024
vn -0.175017 -0.960809 -0.214978
vn 0.886411 0.271976 0.374573
vn 0.006329 -0.999695 -0.023887
vn 0.955657 0.098134 0.277649
vn -0.794643 0.450552 -0.406873
vn -0.842373 0.482420 -0.240165
vn -0.842245 0.482560 -0.240332
vn 0.050402 0.955726 -0.289910
vn 0.090685 0.940042 -0.328782
vn 0.344151 0.497267 -0.796420
vn -0.047454 -0.997171 -0.058289
vn 0.047593 -0.997165 0.058291
vn 0.175597 -0.960700 0.214990
vn -0.542362 -0.511884 -0.666197
vn 0.663879 0.515406 -0.541869
vn 0.691414 0.495136 -0.526106
vn -0.654350 0.506100 0.561862
vn -0.542362 -0.511884 -0.666197
vn -0.691921 0.495678 0.524928
vn 0.681967 0.505097 -0.528958
vn -0.668370 0.506197 0.545019
vn -0.663477 0.516779 0.541053
vn 0.543118 -0.512377 0.665202
vn -0.653419 0.495750 0.572080
vn -0.682077 0.506051 0.527905
vn 0.654896 0.505585 -0.561690
vn -0.479354 0.256861 -0.839192
vn 0.668579 0.505455 -0.545451
vn 0.461644 0.481145 -0.745241
vn -0.455003 -0.506309 0.732545
vn 0.654494 0.055067 0.754059
vn 0.367534 0.501486 -0.783218
vn -0.318024 0.871385 0.373563
vn 0.366865 -0.559973 -0.742860
vn 0.350087 0.500132 -0.792027
vn 0.358126 -0.560329 -0.746845
vn 0.198414 0.791475 -0.578100
vn 0.340168 0.500503 -0.796104
vn 0.124207 0.900556 -0.416620
vn 0.242714 -0.833025 -0.497150
vn -0.405006 0.257185 0.877397
vn -0.405006 0.257185 0.877397
vn -0.482047 0.554074 0.678699
vn -0.306021 0.875978 0.372844
vn -0.479354 0.256861 -0.839192
vn 0.040283 -0.999187 -0.001772
vn 0.009823 -0.999656 0.024307
vn 0.008038 -0.999968 -0.000352
vn 0.938203 0.255929 -0.232973
vn 0.272332 0.499614 -0.822327
vn 0.938203 0.255929 -0.232973
vn -0.734063 0.256416 -0.628810
vn -0.044162 -0.073101 0.996346
vn 0.654046 0.496102 -0.571058
vn 0.749168 -0.269047 0.605277
vn 0.906103 -0.285569 0.312133
vn -0.458594 0.556891 0.692506
vn -0.474020 0.555143 0.683463
vn 0.126549 0.500054 -0.856698
vn -0.324860 0.873946 0.361504
vn -0.001762 -0.999971 0.007433
vn 0.085683 0.109775 0.990257
vn 0.200851 0.272459 0.940970
vn 0.085683 0.109775 0.990257
vn 0.394022 -0.559561 -0.729136
vn -0.864903 0.500576 -0.036979
vn -0.148685 0.918596 -0.366162
vn -0.005768 -0.999518 0.030506
vn 0.862186 0.501982 -0.068183
vn -0.076961 0.482051 -0.872756
vn -0.008397 -0.999520 -0.029834
vn 0.272332 0.499614 -0.822327
vn -0.529070 0.047902 0.847225
vn 0.461644 0.481145 -0.745241
vn 0.864788 0.502078 -0.007674
vn 0.810922 0.369922 0.453391
vn -0.734063 0.256416 -0.628810
vn -0.180183 0.492973 0.851182
vn 0.031032 -0.999518 0.000082
vn 0.786429 0.232757 0.572149
vn -0.056385 0.997909 -0.031591
vn 0.850094 0.224836 0.476223
vn -0.171003 0.502608 0.847433
vn 0.019900 -0.999755 0.009721
vn -0.202164 0.482896 0.852022
vn -0.004008 -0.999850 0.016827
vn 0.352321 0.551078 -0.756428
vn 0.339413 0.427874 -0.837689
vn 0.862897 0.147025 0.483520
vn 0.810043 0.370863 0.454193
vn 0.439466 -0.020658 -0.898022
vn -0.842245 0.482560 -0.240332
vn -0.419106 0.858221 -0.296323
vn 0.241582 0.793544 -0.558503
vn 0.366910 0.502029 -0.783163
vn 0.884042 0.341518 0.319115
vn 0.452662 0.288062 -0.843871
vn -0.228614 0.503583 0.833151
vn -0.491085 0.832767 0.255606
vn 0.153164 0.471574 -0.868423
vn -0.221782 0.493488 0.841001
vn 0.870462 0.491962 -0.016398
vn -0.022161 -0.999754 -0.000262
vn 0.015537 0.999841 0.008706
vn 0.017297 -0.999850 -0.000761
vn 0.004859 -0.999988 -0.000213
vn 0.875676 0.481361 -0.038525
vn -0.027748 -0.999519 -0.013842
vn -0.001122 -0.999988 0.004733
vn 0.005804 -0.999754 0.021395
vn 0.869723 0.492056 -0.038245
vn 0.868570 0.491916 -0.060043
vn 0.003913 -0.999755 -0.021794
vn -0.818145 0.482380 0.312967
vn -0.518456 0.121618 0.846412
vn 0.898900 0.214846 0.381864
vn -0.408706 0.639517 0.651136
vn -0.826051 0.321628 -0.462812
vn -0.458851 0.556547 0.692612
vn -0.437160 -0.505026 0.744204
vn -0.153400 -0.952535 0.262955
vn -0.558581 0.382513 -0.735983
vn -0.503765 0.493819 0.708776
vn 0.869716 0.038942 0.492014
vn 0.749209 -0.269034 0.605233
vn 0.654971 0.055028 0.753648
vn -0.201030 0.493344 0.846285
vn -0.607992 -0.483747 -0.629552
vn 0.984731 0.018445 0.173101
vn -0.520157 -0.059579 -0.851990
vn -0.287099 0.877517 0.384106
vn -0.869595 -0.038343 -0.492274
vn -0.448090 0.557394 0.698947
vn -0.632219 0.528323 0.566722
vn -0.932162 0.355161 -0.070252
vn -0.904424 0.423593 0.050851
vn 0.378983 0.502671 -0.776977
vn 0.382697 -0.559925 -0.734865
vn -0.346820 -0.767372 0.539311
vn -0.659044 0.401515 -0.635961
vn -0.632836 -0.492717 0.597285
vn -0.460974 -0.505660 0.729254
vn -0.999860 -0.007405 -0.015034
vn -0.882792 0.417991 -0.214389
vn 0.286332 -0.799525 -0.527990
vn 0.183702 -0.545969 -0.817417
vn 0.063348 0.951933 -0.299683
vn -0.335309 -0.937626 0.091795
vn -0.856900 -0.464003 -0.224554
vn 0.127983 -0.946616 -0.295869
vn 0.011847 -0.850974 -0.525075
vn 0.905896 -0.285530 0.312771
vn -0.326224 0.873477 0.361408
vn 0.714123 0.356187 0.602627
f 43/43/43 70/70/70 66/66/66
f 75/75/75 44/44/44 42/42/42
f 57/57/57 97/97/97 79/79/79
f 93/93/93 37/37/37 94/94/94
f 2/2/2 101/101/101 103/103/103
f 87/87/87 89/89/89 90/90/90
f 91/91/91 89/89/89 87/87/87
f 91/91/91 112/112/112 89/89/89
f 96/96/96 112/112/112 91/91/91
f 96/96/96 110/110/110 112/112/112
f 112/112/112 110/110/110 95/95/95
f 84/84/84 91/91/91 87/87/87
f 61/61/61 91/91/91 84/84/84
f 61/61/61 96/96/96 91/91/91
f 5/5/5 96/96/96 61/61/61
f 5/5/5 109/109/109 96/96/96
f 96/96/96 109/109/109 110/110/110
f 62/62/62 61/61/61 84/84/84
f 60/60/60 61/61/61 62/62/62
f 60/60/60 5/5/5 61/61/61
f 85/85/85 5/5/5 60/60/60
f 85/85/85 6/6/6 5/5/5
f 5/5/5 6/6/6 109/109/109
f 28/28/28 86/86/86 88/88/88
f 92/92/92 86/86/86 28/28/28
f 92/92/92 23/23/23 86/86/86
f 21/21/21 23/23/23 92/92/92
f 21/21/21 16/16/16 23/23/23
f 14/14/14 16/16/16 21/21/21
f 14/14/14 21/21/21 15/15/15
f 92/92/92 28/28/28 32/32/32
f 32/32/32 21/21/21 92/92/92
f 8/8/8 21/21/21 32/32/32
f 15/15/15 21/21/21 8/8/8
f 15/15/15 8/8/8 7/7/7
f 7/7/7 8/8/8 9/9/9
f 9/9/9 8/8/8 82/82/82
f 82/82/82 8/8/8 32/32/32
f 82/82/82 32/32/32 31/31/31
f 31/31/31 32/32/32 33/33/33
f 32/32/32 28/28/28 33/33/33
f 45/45/45 49/49/49 52/52/52
f 49/49/49 51/51/51 52/52/52
f 50/50/50 46/46/46 56/56/56
f 54/54/54 50/50/50 56/56/56
f 47/47/47 55/55/55 100/100/100
f 55/55/55 98/98/98 100/100/100
f 98/98/98 99/99/99 100/100/100
f 99/99/99 48/48/48 100/100/100
f 53/53/53 43/43/43 63/63/63
f 63/63/63 43/43/43 64/64/64
f 63/63/63 64/64/64 65/65/65
f 65/65/65 64/64/64 44/44/44
f 76/76/76 69/69/69 73/73/73
f 69/69/69 74/74/74 73/73/73
f 74/74/74 77/77/77 73/73/73
f 77/77/77 71/71/71 73/73/73
f 72/72/72 68/68/68 80/80/80
f 67/67/67 72/72/72 80/80/80
f 78/78/78 67/67/67 80/80/80
f 106/106/106 78/78/78 80/80/80
f 2/2/2 102/102/102 81/81/81
f 111/111/111 102/102/102 2/2/2
f 111/111/111 3/3/3 102/102/102
f 1/1/1 3/3/3 111/111/111
f 3/3/3 1/1/1 104/104/104
f 105/105/105 114/114/114 116/116/116
f 114/114/114 115/115/115 116/116/116
f 38/38/38 35/35/35 25/25/25
f 10/10/10 38/38/38 25/25/25
f 34/34/34 39/39/39 113/113/113
f 39/39/39 36/36/36 113/113/113
f 36/36/36 26/26/26 113/113/113
f 26/26/26 27/27/27 113/113/113
f 37/37/37 40/40/40 4/4/4
f 4/4/4 40/40/40 41/41/41
f 4/4/4 58/58/58 57/57/57
f 57/57/57 58/58/58 59/59/59
f 108/108/108 17/17/17 24/24/24
f 17/17/17 29/29/29 24/24/24
f 29/29/29 30/30/30 24/24/24
f 30/30/30 83/83/83 24/24/24
f 83/83/83 107/107/107 24/24/24
f 107/107/107 108/108/108 24/24/24
f 20/20/20 19/19/19 12/12/12
f 19/19/19 18/18/18 12/12/12
f 18/18/18 22/22/22 12/12/12
f 22/22/22 13/13/13 12/12/12
f 13/13/13 11/11/11 12/12/12
f 11/11/11 20/20/20 12/12/12
f 129/129/129 1/1/1 104/104/104
f 2/2/2 101/101/101 103/103/103
f 43/43/43 70/70/70 66/66/66
f 75/75/75 44/44/44 42/42/42
f 93/93/93 37/37/37 94/94/94
f 57/57/57 97/97/97 79/79/79
f 188/188/188 187/187/187 175/175/175
f 123/123/123 165/165/165 158/158/158
f 165/165/165 157/157/157 158/158/158
f 157/157/157 162/162/162 158/158/158
f 162/162/162 120/120/120 158/158/158
f 164/164/164 121/121/121 163/163/163
f 159/159/159 164/164/164 163/163/163
f 154/154/154 159/159/159 163/163/163
f 127/127/127 154/154/154 163/163/163
f 1/1/1 122/122/122 111/111/111
f 111/111/111 122/122/122 124/124/124
f 111/111/111 124/124/124 2/2/2
f 2/2/2 124/124/124 126/126/126
f 131/131/131 136/136/136 161/161/161
f 136/136/136 138/138/138 161/161/161
f 138/138/138 155/155/155 161/161/161
f 155/155/155 160/160/160 161/161/161
f 130/130/130 135/135/135 179/179/179
f 137/137/137 130/130/130 179/179/179
f 153/153/153 137/137/137 179/179/179
f 150/150/150 153/153/153 179/179/179
f 53/53/53 43/43/43 63/63/63
f 63/63/63 43/43/43 64/64/64
f 63/63/63 64/64/64 65/65/65
f 65/65/65 64/64/64 44/44/44
f 76/76/76 69/69/69 73/73/73
f 69/69/69 74/74/74 73/73/73
f 74/74/74 77/77/77 73/73/73
f 77/77/77 71/71/71 73/73/73
f 72/72/72 68/68/68 80/80/80
f 67/67/67 72/72/72 80/80/80
f 78/78/78 67/67/67 80/80/80
f 106/106/106 78/78/78 80/80/80
f 37/37/37 166/166/166 4/4/4
f 4/4/4 166/166/166 118/118/118
f 4/4/4 118/118/118 57/57/57
f 57/57/57 118/118/118 144/144/144
f 197/197/197 190/190/190 117/117/117
f 202/202/202 190/190/190 197/197/197
f 202/202/202 198/198/198 190/190/190
f 203/203/203 198/198/198 202/202/202
f 203/203/203 202/202/202 200/200/200
f 200/200/200 202/202/202 191/191/191
f 200/200/200 191/191/191 193/193/193
f 193/193/193 191/191/191 194/194/194
f 173/173/173 202/202/202 197/197/197
f 191/191/191 202/202/202 173/173/173
f 172/172/172 191/191/191 173/173/173
f 194/194/194 191/191/191 172/172/172
f 183/183/183 171/171/171 185/185/185
f 205/205/205 171/171/171 183/183/183
f 205/205/205 186/186/186 171/171/171
f 151/151/151 186/186/186 205/205/205
f 151/151/151 205/205/205 119/119/119
f 119/119/119 205/205/205 199/199/199
f 119/119/119 199/199/199 152/152/152
f 152/152/152 199/199/199 147/147/147
f 205/205/205 183/183/183 199/199/199
f 199/199/199 183/183/183 146/146/146
f 199/199/199 146/146/146 147/147/147
f 147/147/147 146/146/146 189/189/189
f 128/128/128 168/168/168 134/134/134
f 134/134/134 168/168/168 141/141/141
f 132/132/132 134/134/134 141/141/141
f 142/142/142 134/134/134 132/132/132
f 167/167/167 125/125/125 175/175/175
f 175/175/175 125/125/125 169/169/169
f 169/169/169 133/133/133 175/175/175
f 175/175/175 133/133/133 145/145/145
f 145/145/145 133/133/133 140/140/140
f 174/174/174 145/145/145 140/140/140
f 145/145/145 174/174/174 170/170/170
f 187/187/187 145/145/145 170/170/170
f 169/169/169 156/156/156 133/133/133
f 156/156/156 139/139/139 133/133/133
f 140/140/140 133/133/133 139/139/139
f 139/139/139 143/143/143 140/140/140
f 140/140/140 143/143/143 149/149/149
f 180/180/180 201/201/201 184/184/184
f 201/201/201 195/195/195 184/184/184
f 195/195/195 196/196/196 184/184/184
f 196/196/196 192/192/192 184/184/184
f 192/192/192 182/182/182 184/184/184
f 182/182/182 180/180/180 184/184/184
f 177/177/177 204/204/204 176/176/176
f 204/204/204 181/181/181 176/176/176
f 181/181/181 148/148/148 176/176/176
f 148/148/148 206/206/206 176/176/176
f 206/206/206 178/178/178 176/176/176
f 178/178/178 177/177/177 176/176/176
