# Exported by s4extract — object_Food_PlateFork_Multi_lod00_g01
o object_Food_PlateFork_Multi_lod00_g01
v 0.154302 0.027131 -0.024598
v 0.142491 0.019623 0.007630
v 0.140721 0.035737 0.012055
v -0.104953 0.025849 -0.033448
v -0.067904 0.007538 0.031465
v -0.066439 0.025849 -0.033265
v -0.104953 0.025849 -0.033448
v -0.085849 0.033021 0.000000
v -0.047334 0.025849 0.000183
v -0.066439 0.025849 -0.033265
v -0.066774 0.025849 0.033448
v -0.085849 0.033021 0.000000
v -0.066774 0.025849 0.033448
v -0.124363 0.025849 -0.000183
v -0.105289 0.025849 0.033265
v -0.061708 0.040834 -0.041353
v -0.037965 0.040834 0.000244
v -0.047334 0.025849 0.000183
v -0.049623 0.007538 0.000183
v -0.103793 0.007538 -0.031465
v -0.122074 0.007538 -0.000183
v -0.067598 0.007538 -0.031281
v -0.104129 0.007538 0.031281
v -0.037965 0.040834 0.000244
v -0.062105 0.040834 0.041597
v -0.067598 0.007538 -0.031281
v -0.049623 0.007538 0.000183
v -0.062105 0.040834 0.041597
v -0.110019 0.040834 0.041353
v -0.067904 0.007538 0.031465
v -0.067904 0.007538 0.031465
v -0.110019 0.040834 0.041353
v -0.133732 0.040834 -0.000244
v -0.104129 0.007538 0.031281
v -0.104129 0.007538 0.031281
v -0.133732 0.040834 -0.000244
v -0.109592 0.040834 -0.041597
v -0.122074 0.007538 -0.000183
v -0.122074 0.007538 -0.000183
v -0.109592 0.040834 -0.041597
v -0.103793 0.007538 -0.031465
v -0.103793 0.007538 -0.031465
v -0.061708 0.040834 -0.041353
v 0.101474 0.036744 0.028260
v 0.140263 0.040773 0.018311
v 0.114017 0.032899 0.062044
v -0.061708 0.040834 -0.041353
v -0.067598 0.007538 -0.031281
v -0.049623 0.007538 0.000183
v -0.037965 0.040834 0.000244
v 0.083926 0.049409 0.020814
v 0.073916 0.050111 -0.005860
v -0.061708 0.040834 -0.041353
v 0.079470 0.031861 0.006714
v 0.116733 0.048372 0.013398
v 0.104343 0.052583 -0.019227
v 0.110080 0.033998 -0.006165
v -0.109592 0.040834 -0.041597
v 0.101474 0.036744 0.028260
v 0.083651 0.035890 0.075594
v 0.148534 0.046022 0.052065
v 0.102908 0.020936 0.033174
v 0.114017 0.032899 0.062044
v 0.081179 0.051607 0.067843
v 0.072176 0.019807 0.046022
v 0.114017 0.032899 0.062044
v 0.112583 0.048708 0.057161
v 0.069704 0.035554 0.038270
v 0.083651 0.035890 0.075594
v 0.083651 0.035890 0.075594
v 0.081179 0.051607 0.067843
v 0.112583 0.048708 0.057161
v 0.072176 0.019807 0.046022
v 0.102908 0.020936 0.033174
v 0.115024 0.046937 0.055086
v 0.081545 0.041597 -0.042421
v 0.111881 0.020600 -0.005524
v 0.121677 0.024049 -0.032075
v 0.116184 0.029542 0.059236
v 0.148534 0.046022 0.052065
v 0.140690 0.024018 0.019562
v 0.109622 0.022614 0.032380
v 0.150456 0.024201 0.001923
v 0.108493 0.040010 0.028230
v 0.140263 0.040773 0.018311
v 0.039918 0.018647 -0.025025
v 0.083316 0.027558 -0.046937
v 0.052095 0.042482 -0.058626
v 0.140690 0.024018 0.019562
v 0.116184 0.029542 0.059236
v 0.108493 0.040010 0.028230
v 0.140690 0.024018 0.019562
v 0.148961 0.029267 0.053316
v 0.115024 0.046937 0.055086
v 0.109622 0.022614 0.032380
v 0.148961 0.029267 0.053316
v 0.148534 0.046022 0.052065
v 0.109622 0.022614 0.032380
v 0.116184 0.029542 0.059236
v 0.115024 0.046937 0.055086
v 0.108493 0.040010 0.028230
v 0.081881 0.050630 0.023560
v 0.073916 0.050111 -0.005860
v 0.116733 0.048372 0.013398
v 0.047243 0.043947 0.039308
v 0.003235 0.047792 0.017212
v 0.010468 0.028565 0.034150
v 0.035524 0.039460 0.042787
v 0.069216 0.025636 0.040223
v 0.069002 0.040468 0.039796
v 0.076662 0.029420 0.070467
v 0.076449 0.044282 0.070040
v 0.035524 0.039460 0.042787
v 0.053163 0.024506 -0.061159
v 0.038881 0.036622 -0.022523
v 0.052095 0.042482 -0.058626
v 0.140263 0.040773 0.018311
v 0.140080 0.023072 -0.036714
v 0.148961 0.029267 0.053316
v 0.102908 0.020936 0.033174
v 0.072176 0.019807 0.046022
v 0.112583 0.048708 0.057161
v 0.069704 0.035554 0.038270
v 0.101474 0.036744 0.028260
v 0.081545 0.041597 -0.042421
v 0.071108 0.033998 -0.013825
v 0.083316 0.027558 -0.046937
v 0.069704 0.035554 0.038270
v 0.076449 0.044282 0.070040
v 0.081179 0.051607 0.067843
v 0.030183 0.020661 0.049196
v 0.028871 0.038362 0.044404
v 0.043489 0.031800 0.077639
v 0.040040 0.048280 0.074221
v 0.002136 0.021973 0.061708
v 0.030183 0.020661 0.049196
v 0.017792 0.029725 0.090121
v 0.043489 0.031800 0.077639
v 0.000824 0.039674 0.056948
v 0.002136 0.021973 0.061708
v 0.014344 0.046236 0.086703
v 0.017792 0.029725 0.090121
v 0.028871 0.038362 0.044404
v 0.030183 0.020661 0.049196
v 0.000824 0.039674 0.056948
v 0.002136 0.021973 0.061708
v 0.014344 0.046236 0.086703
v 0.017792 0.029725 0.090121
v 0.040040 0.048280 0.074221
v 0.043489 0.031800 0.077639
v 0.045625 0.030000 0.083438
v 0.036561 0.021699 0.046510
v 0.076662 0.029420 0.070467
v 0.069216 0.025636 0.040223
v 0.044588 0.047761 0.079714
v 0.045625 0.030000 0.083438
v 0.076449 0.044282 0.070040
v 0.069002 0.040468 0.039796
v 0.036561 0.021699 0.046510
v 0.044588 0.047761 0.079714
v 0.052126 0.051454 0.038545
v 0.046632 0.030549 0.026002
v 0.081881 0.050630 0.023560
v 0.045625 0.030000 0.083438
v 0.044588 0.047761 0.079714
v 0.036561 0.021699 0.046510
v 0.035524 0.039460 0.042787
v 0.076662 0.029420 0.070467
v 0.069216 0.025636 0.040223
v -0.069613 0.017640 -0.032289
v 0.069002 0.040468 0.039796
v -0.062075 0.021149 -0.073672
v -0.080752 0.025025 -0.020661
v -0.066958 0.024049 -0.065279
v 0.132542 0.019593 0.004639
v 0.136662 0.025178 0.046541
v 0.046632 0.030549 0.026002
v 0.016968 0.045625 0.053560
v 0.028871 0.038362 0.044404
v 0.041047 0.031861 0.021332
v 0.036134 0.048616 0.010346
v 0.003235 0.047792 0.017212
v 0.016968 0.045625 0.053560
v 0.047243 0.043947 0.039308
v 0.041047 0.031861 0.021332
v 0.052126 0.051454 0.038545
v 0.036348 0.044252 0.007538
v 0.075320 0.032319 0.009247
v 0.010468 0.028565 0.034150
v 0.003235 0.047792 0.017212
v 0.036134 0.048616 0.010346
v 0.016968 0.045625 0.053560
v 0.047243 0.043947 0.039308
v 0.036134 0.048616 0.010346
v 0.010468 0.028565 0.034150
v 0.041047 0.031861 0.021332
v 0.081881 0.050630 0.023560
v 0.052126 0.051454 0.038545
v 0.036348 0.044252 0.007538
v 0.066774 0.047182 -0.005799
v 0.036348 0.044252 0.007538
v 0.075320 0.032319 0.009247
v 0.066774 0.047182 -0.005799
v 0.133244 0.023957 0.011841
v 0.075320 0.032319 0.009247
v 0.046632 0.030549 0.026002
v 0.111026 0.038392 -0.003479
v 0.111881 0.020600 -0.005524
v 0.121677 0.024049 -0.032075
v 0.066774 0.047182 -0.005799
v 0.004120 0.018647 -0.043275
v -0.026460 0.019654 -0.056398
v -0.027345 0.037416 -0.054384
v 0.107669 0.039552 -0.002594
v 0.083529 0.037477 -0.044862
v 0.072878 0.019990 -0.018342
v 0.083407 0.019868 -0.042817
v 0.115329 0.039369 -0.034883
v 0.075320 0.041231 -0.010468
v 0.104343 0.052583 -0.019227
v 0.079470 0.031861 0.006714
v 0.083926 0.049409 0.020814
v 0.104343 0.052583 -0.019227
v 0.115818 0.022767 -0.035676
v 0.083529 0.037477 -0.044862
v 0.115329 0.039369 -0.034883
v 0.083407 0.019868 -0.042817
v 0.115818 0.022767 -0.035676
v 0.075198 0.023621 -0.008454
v 0.110080 0.033998 -0.006165
v 0.079470 0.031861 0.006714
v 0.073916 0.050111 -0.005860
v 0.116733 0.048372 0.013398
v 0.083926 0.049409 0.020814
v 0.006104 0.029481 0.033296
v 0.110080 0.033998 -0.006165
v 0.011872 0.047731 0.049013
v -0.012299 0.043123 0.063692
v -0.029511 0.045198 0.035249
v -0.019135 0.026551 0.048585
v -0.003235 0.046480 0.019318
v 0.108158 0.022950 -0.003388
v 0.075320 0.041231 -0.010468
v 0.108158 0.022950 -0.003388
v 0.006104 0.029481 0.033296
v -0.113285 0.018281 0.080050
v -0.019135 0.026551 0.048585
v -0.116642 0.015503 0.028779
v -0.099399 0.029359 0.080813
v 0.125370 0.040925 -0.011689
v 0.136631 0.026734 0.063112
v -0.102573 0.029359 0.072390
v 0.083529 0.037477 -0.044862
v 0.107669 0.039552 -0.002594
v 0.075198 0.023621 -0.008454
v 0.127506 0.040956 -0.006012
v 0.126255 0.045747 -0.008789
v 0.127506 0.040956 -0.006012
v 0.125370 0.040925 -0.011689
v -0.063967 0.043825 0.045869
v -0.027833 0.027680 0.045564
v -0.058443 0.025544 0.058443
v -0.101260 0.036500 0.076693
v 0.126255 0.045747 -0.008789
v -0.102573 0.029359 0.072390
v 0.125370 0.040925 -0.011689
v 0.126255 0.045747 -0.008789
v -0.101260 0.036500 0.076693
v 0.127506 0.040956 -0.006012
v -0.099399 0.029359 0.080813
v -0.099399 0.029359 0.080813
v -0.102573 0.029359 0.072390
v -0.101260 0.036500 0.076693
v -0.063967 0.043825 0.045869
v -0.053957 0.043092 0.072542
v -0.033570 0.046266 0.032502
v -0.021180 0.042055 0.065126
v -0.058443 0.025544 0.058443
v -0.063967 0.043825 0.045869
v -0.027833 0.027680 0.045564
v -0.033570 0.046266 0.032502
v -0.058443 0.025544 0.058443
v 0.075320 0.041231 -0.010468
v 0.083407 0.019868 -0.042817
v 0.075198 0.023621 -0.008454
v 0.108158 0.022950 -0.003388
v 0.115818 0.022767 -0.035676
v 0.107669 0.039552 -0.002594
v -0.027833 0.027680 0.045564
v -0.053957 0.043092 0.072542
v -0.021180 0.042055 0.065126
v -0.053957 0.043092 0.072542
v -0.021180 0.042055 0.065126
v -0.104953 0.025849 -0.033448
v 0.037965 0.039430 -0.029023
v -0.133732 0.040834 -0.000244
v -0.003235 0.046480 0.019318
v -0.012299 0.043123 0.063692
v -0.033570 0.046266 0.032502
v -0.029511 0.045198 0.035249
v 0.140721 0.035737 0.012055
v 0.120792 0.041810 -0.030030
v 0.115329 0.039369 -0.034883
v 0.121677 0.024049 -0.032075
v 0.152562 0.043245 -0.020142
v 0.111026 0.038392 -0.003479
v 0.011872 0.047731 0.049013
v -0.003235 0.046480 0.019318
v 0.011872 0.047731 0.049013
v 0.006104 0.029481 0.033296
v -0.019135 0.026551 0.048585
v -0.029511 0.045198 0.035249
v -0.012299 0.043123 0.063692
v 0.014344 0.046236 0.086703
v 0.040040 0.048280 0.074221
v -0.002411 0.023011 0.054842
v 0.000824 0.039674 0.056948
v -0.124363 0.025849 -0.000183
v 0.015961 0.026154 -0.075472
v 0.002380 0.034761 -0.038820
v -0.067202 0.026185 -0.078951
v 0.159215 0.029633 -0.003662
v -0.006226 0.012513 0.037782
v -0.110019 0.040834 0.041353
v -0.066774 0.025849 0.033448
v -0.124363 0.025849 -0.000183
v 0.014222 0.042268 -0.071047
v -0.017548 0.040834 -0.080935
v -0.016663 0.023072 -0.082949
v -0.027345 0.037416 -0.054384
v -0.026460 0.019654 -0.056398
v -0.016663 0.023072 -0.082949
v -0.017548 0.040834 -0.080935
v 0.015961 0.026154 -0.075472
v 0.004120 0.018647 -0.043275
v 0.002380 0.034761 -0.038820
v 0.014222 0.042268 -0.071047
v 0.010041 0.035340 -0.034059
v 0.015503 0.040742 -0.066500
v 0.045808 0.041444 -0.061342
v 0.037965 0.039430 -0.029023
v 0.045808 0.041444 -0.061342
v 0.046510 0.023164 -0.062899
v 0.041047 0.022553 -0.030030
v 0.016205 0.022431 -0.068056
v 0.041047 0.022553 -0.030030
v 0.046510 0.023164 -0.062899
v 0.052095 0.042482 -0.058626
v 0.013123 0.018464 -0.035096
v 0.013123 0.018464 -0.035096
v 0.016205 0.022431 -0.068056
v 0.015503 0.040742 -0.066500
v 0.010041 0.035340 -0.034059
v 0.016205 0.022431 -0.068056
v 0.046510 0.023164 -0.062899
v 0.045808 0.041444 -0.061342
v 0.015503 0.040742 -0.066500
v 0.041047 0.022553 -0.030030
v 0.013123 0.018464 -0.035096
v 0.010041 0.035340 -0.034059
v 0.037965 0.039430 -0.029023
v 0.083316 0.027558 -0.046937
v 0.053163 0.024506 -0.061159
v 0.039918 0.018647 -0.025025
v 0.072878 0.019990 -0.018342
v 0.004120 0.018647 -0.043275
v -0.016663 0.023072 -0.082949
v 0.038881 0.036622 -0.022523
v -0.026460 0.019654 -0.056398
v 0.015961 0.026154 -0.075472
v 0.002380 0.034761 -0.038820
v -0.105289 0.025849 0.033265
v -0.110019 0.040834 0.041353
v -0.133732 0.040834 -0.000244
v 0.071108 0.033998 -0.013825
v 0.038881 0.036622 -0.022523
v 0.081545 0.041597 -0.042421
v -0.062105 0.040834 0.041597
v -0.062105 0.040834 0.041597
v -0.047334 0.025849 0.000183
v -0.105289 0.025849 0.033265
v -0.037965 0.040834 0.000244
v -0.024567 0.007630 0.012268
v -0.022492 0.011750 -0.035798
v -0.066774 0.025849 0.033448
v 0.000580 0.011170 -0.011719
v 0.001862 0.009827 -0.024598
v 0.019440 0.011200 0.020386
v -0.047639 0.008179 -0.011811
v -0.011322 0.008606 0.007752
v 0.011170 0.009919 0.009430
v -0.036042 0.011292 0.019593
v 0.032624 0.012452 -0.011963
v -0.018647 0.008667 -0.008759
v 0.157140 0.029084 0.002014
v 0.157994 0.034150 -0.000397
v 0.157140 0.029084 0.002014
v -0.064150 0.027039 -0.087344
v 0.159215 0.029633 -0.003662
v -0.002869 0.039766 0.053591
v 0.005402 0.045015 0.087344
v -0.073794 0.032075 0.096713
v 0.159215 0.029633 -0.003662
v 0.157994 0.034150 -0.000397
v -0.065950 0.033723 -0.082553
v -0.064150 0.027039 -0.087344
v -0.067202 0.026185 -0.078951
v -0.065950 0.033723 -0.082553
v 0.157994 0.034150 -0.000397
v 0.157140 0.029084 0.002014
v -0.067202 0.026185 -0.078951
v -0.064150 0.027039 -0.087344
v -0.065950 0.033723 -0.082553
v 0.014222 0.042268 -0.071047
v -0.017548 0.040834 -0.080935
v 0.072878 0.019990 -0.018342
v -0.027345 0.037416 -0.054384
v 0.039918 0.018647 -0.025025
v 0.071108 0.033998 -0.013825
v 0.005829 0.028260 0.088595
v 0.120792 0.041810 -0.030030
v 0.154302 0.027131 -0.024598
v 0.120792 0.041810 -0.030030
v 0.152562 0.043245 -0.020142
v 0.152562 0.043245 -0.020142
v -0.066439 0.025849 -0.033265
v -0.109592 0.040834 -0.041597
v -0.104953 0.025849 -0.033448
v -0.073794 0.032075 0.096713
v -0.075869 0.029664 0.088321
v 0.161901 0.034455 0.036714
v 0.160497 0.032807 0.031037
v -0.002869 0.039766 0.053591
v -0.033479 0.021607 0.067629
v -0.028108 0.045930 0.090365
v 0.161901 0.034455 0.036714
v 0.160497 0.032807 0.031037
v -0.075320 0.037751 0.090670
v 0.160863 0.038270 0.032624
v 0.160497 0.032807 0.031037
v -0.075869 0.029664 0.088321
v 0.161901 0.034455 0.036714
v 0.160863 0.038270 0.032624
v -0.075320 0.037751 0.090670
v -0.075320 0.037751 0.090670
v -0.073794 0.032075 0.096713
v 0.160863 0.038270 0.032624
v -0.075869 0.029664 0.088321
v -0.034639 0.039003 0.063509
v 0.005402 0.045015 0.087344
v 0.053163 0.024506 -0.061159
v -0.002869 0.039766 0.053591
v -0.002411 0.023011 0.054842
v -0.034639 0.039003 0.063509
v -0.002411 0.023011 0.054842
v 0.005829 0.028260 0.088595
v -0.033479 0.021607 0.067629
v 0.111881 0.020600 -0.005524
v 0.154302 0.027131 -0.024598
v 0.142491 0.019623 0.007630
v -0.026948 0.028535 0.094516
v -0.028108 0.045930 0.090365
v -0.034639 0.039003 0.063509
v 0.142491 0.019623 0.007630
v -0.028108 0.045930 0.090365
v 0.005829 0.028260 0.088595
v -0.026948 0.028535 0.094516
v -0.033479 0.021607 0.067629
v 0.005402 0.045015 0.087344
v -0.026948 0.028535 0.094516
v 0.140721 0.035737 0.012055
v 0.111026 0.038392 -0.003479
v -0.034272 0.035463 0.085299
v -0.001923 0.050905 0.076083
v -0.017762 0.038697 0.041414
v -0.016419 0.055208 0.044374
v 0.012848 0.053987 0.029084
v -0.003265 0.034394 0.073153
v -0.012238 0.035615 0.046815
v 0.138615 0.042787 -0.010865
v -0.017975 0.007538 -0.012909
v 0.139897 0.047609 -0.008087
v -0.081149 0.048769 0.093387
v 0.141148 0.042787 -0.005341
v -0.079257 0.041627 0.097476
v -0.081149 0.048769 0.093387
v -0.083010 0.041627 0.089297
v -0.045869 0.054140 0.059877
v -0.079257 0.041627 0.097476
v -0.001923 0.050905 0.076083
v -0.003265 0.034394 0.073153
v -0.034028 0.053377 0.085788
v -0.046113 0.036225 0.059359
v -0.016419 0.055208 0.044374
v -0.046113 0.036225 0.059359
v -0.034028 0.053377 0.085788
v -0.016419 0.055208 0.044374
v -0.017762 0.038697 0.041414
v -0.034272 0.035463 0.085299
v -0.045869 0.054140 0.059877
v -0.017762 0.038697 0.041414
v -0.003265 0.034394 0.073153
v -0.020936 0.051424 -0.001160
v -0.051363 0.052614 0.011658
v -0.040651 0.031831 0.041383
v -0.001923 0.050905 0.076083
v -0.046113 0.036225 0.059359
v -0.034272 0.035463 0.085299
v -0.034028 0.053377 0.085788
v -0.045869 0.054140 0.059877
v 0.006867 0.051607 0.074007
v 0.018677 0.047395 -0.012482
v 0.020295 0.030061 -0.009278
v 0.034364 0.054384 0.018647
v 0.034364 0.054384 0.018647
v 0.036012 0.037019 0.021851
v 0.064211 0.052126 0.004028
v 0.086154 0.036134 -0.041566
v 0.097964 0.031831 -0.008759
v 0.066256 0.050783 0.001312
v -0.012238 0.035615 0.046815
v -0.012238 0.053987 0.046815
v 0.006867 0.051607 0.074007
v 0.030091 0.054994 0.057588
v 0.012848 0.035615 0.029084
v -0.012238 0.053987 0.046815
v -0.083010 0.041627 0.089297
v -0.081149 0.048769 0.093387
v 0.141148 0.042787 -0.005341
v 0.139897 0.047609 -0.008087
v 0.139897 0.047609 -0.008087
v 0.138615 0.042787 -0.010865
v 0.099094 0.048311 -0.005707
v 0.138615 0.042787 -0.010865
v 0.049654 0.032319 -0.024873
v 0.064516 0.035524 0.004608
v 0.036012 0.037019 0.021851
v 0.066073 0.032868 0.000793
v 0.056612 0.051576 -0.025483
v 0.066256 0.050783 0.001312
v 0.097964 0.031831 -0.008759
v 0.099094 0.048311 -0.005707
v 0.056429 0.033662 -0.026002
v 0.049654 0.032319 -0.024873
v 0.064516 0.035524 0.004608
v 0.064211 0.052126 0.004028
v 0.049348 0.048921 -0.025452
v 0.066256 0.050783 0.001312
v 0.056612 0.051576 -0.025483
v 0.087252 0.052614 -0.038514
v 0.056429 0.033662 -0.026002
v -0.083010 0.041627 0.089297
v -0.079257 0.041627 0.097476
v 0.141148 0.042787 -0.005341
v 0.066073 0.032868 0.000793
v 0.056429 0.033662 -0.026002
v 0.066073 0.032868 0.000793
v 0.099094 0.048311 -0.005707
v 0.008881 0.034577 0.072604
v 0.006867 0.051607 0.074007
v 0.012848 0.053987 0.029084
v 0.130741 0.034394 0.011689
v 0.099734 0.035463 0.023835
v 0.099979 0.053377 0.024354
v 0.117588 0.055208 -0.017060
v 0.088137 0.054140 -0.001556
v 0.087893 0.036225 -0.002075
v 0.099979 0.053377 0.024354
v 0.099734 0.035463 0.023835
v 0.116245 0.038697 -0.020020
v 0.116245 0.038697 -0.020020
v 0.087893 0.036225 -0.002075
v 0.012848 0.053987 0.029084
v 0.087252 0.052614 -0.038514
v 0.030091 0.054994 0.057588
v 0.097964 0.031831 -0.008759
v 0.086154 0.036134 -0.041566
v 0.032105 0.037996 0.056185
v 0.012848 0.035615 0.029084
v 0.008881 0.034577 0.072604
v 0.032105 0.037996 0.056185
v 0.049348 0.048921 -0.025452
v 0.081240 0.034883 -0.000366
v 0.069613 0.056948 0.044252
v -0.012238 0.053987 0.046815
v 0.098514 0.038118 0.027772
v 0.098148 0.054720 0.027223
v 0.051393 0.049989 0.014557
v 0.071505 0.039613 0.047334
v 0.071505 0.039613 0.047334
v 0.069613 0.056948 0.044252
v 0.098148 0.054720 0.027223
v 0.053285 0.032655 0.017609
v 0.081240 0.034883 -0.000366
v 0.080905 0.051485 -0.000946
v 0.088137 0.054140 -0.001556
v 0.098514 0.038118 0.027772
v 0.132084 0.050905 0.014649
v -0.082003 0.051576 0.024659
v -0.039552 0.048311 0.044435
v -0.072542 0.032868 0.050935
v 0.117588 0.055208 -0.017060
v -0.006104 0.052431 0.028657
v -0.047426 0.051424 0.014435
v -0.030610 0.049013 0.043092
v 0.130741 0.034394 0.011689
v 0.019196 0.054994 0.026490
v 0.050081 0.039949 0.014100
v 0.051546 0.054384 0.017304
v 0.132084 0.050905 0.014649
v 0.099979 0.053377 0.024354
v 0.099734 0.035463 0.023835
v 0.087893 0.036225 -0.002075
v 0.088137 0.054140 -0.001556
v 0.116245 0.038697 -0.020020
v 0.130741 0.034394 0.011689
v 0.132084 0.050905 0.014649
v 0.117588 0.055208 -0.017060
v 0.053285 0.032655 0.017609
v 0.071505 0.039613 0.047334
v 0.098514 0.038118 0.027772
v 0.080905 0.051485 -0.000946
v 0.051393 0.049989 0.014557
v 0.053285 0.032655 0.017609
v 0.081240 0.034883 -0.000366
v 0.063021 0.035218 0.042268
v -0.012238 0.035615 0.046815
v 0.012848 0.035615 0.029084
v 0.008881 0.034577 0.072604
v 0.030091 0.054994 0.057588
v 0.032105 0.037996 0.056185
v 0.034974 0.034577 0.060823
v 0.018769 0.036836 0.025544
v 0.063021 0.035218 0.042268
v 0.050081 0.039949 0.014100
v 0.064516 0.049654 0.045503
v 0.035401 0.052736 0.061800
v 0.019196 0.054994 0.026490
v 0.034974 0.034577 0.060823
v 0.098148 0.054720 0.027223
v 0.035401 0.052736 0.061800
v 0.051546 0.054384 0.017304
v 0.064516 0.049654 0.045503
v 0.018769 0.036836 0.025544
v 0.034974 0.034577 0.060823
v -0.017975 0.007538 -0.012909
v -0.012787 0.007538 -0.044404
v -0.067354 0.007538 -0.053377
v -0.049501 0.036897 0.008515
v -0.119938 0.046175 0.055116
v -0.010010 0.036897 -0.006378
v 0.027955 0.032655 0.016114
v -0.001526 0.032014 0.032289
v -0.001160 0.050172 0.033296
v 0.036012 0.037019 0.021851
v 0.056612 0.051576 -0.025483
v 0.086154 0.036134 -0.041566
v 0.035401 0.052736 0.061800
v 0.018769 0.036836 0.025544
v 0.019196 0.054994 0.026490
v 0.050081 0.039949 0.014100
v 0.051546 0.054384 0.017304
v 0.063021 0.035218 0.042268
v 0.064516 0.049654 0.045503
v 0.080905 0.051485 -0.000946
v 0.051393 0.049989 0.014557
v 0.064516 0.035524 0.004608
v 0.069613 0.056948 0.044252
v 0.020295 0.030061 -0.009278
v 0.018677 0.047395 -0.012482
v 0.020295 0.030061 -0.009278
v 0.049654 0.032319 -0.024873
v 0.087252 0.052614 -0.038514
v -0.010010 0.036897 -0.006378
v -0.082156 0.036897 -0.018250
v -0.049501 0.036897 0.008515
v -0.074404 0.023652 -0.021149
v -0.037172 0.023652 -0.066622
v -0.035829 0.036897 -0.074770
v -0.003174 0.036897 -0.048036
v -0.010926 0.023652 -0.045106
v -0.068911 0.023652 -0.054628
v -0.075320 0.036897 -0.059877
v -0.035829 0.036897 -0.074770
v -0.037172 0.023652 -0.066622
v -0.074404 0.023652 -0.021149
v -0.082156 0.036897 -0.018250
v -0.075320 0.036897 -0.059877
v -0.068911 0.023652 -0.054628
v -0.082156 0.036897 -0.018250
v -0.047853 0.007538 -0.001648
v -0.047853 0.007538 -0.001648
v -0.048158 0.023652 0.000366
v 0.064211 0.052126 0.004028
v 0.007019 0.007630 -0.026765
v 0.009125 0.011750 -0.074862
v -0.016419 0.023652 -0.011628
v -0.072542 0.007538 -0.021882
v -0.072542 0.007538 -0.021882
v -0.049501 0.036897 0.008515
v -0.016022 0.008179 -0.050874
v 0.033479 0.009827 -0.063631
v 0.032197 0.011170 -0.050783
v 0.051057 0.011200 -0.018677
v 0.064241 0.012452 -0.050996
v 0.042787 0.009919 -0.029633
v 0.020295 0.008606 -0.031312
v -0.004425 0.011292 -0.019471
v 0.025391 0.012513 -0.001282
v 0.106113 0.029878 0.025391
v 0.012970 0.008667 -0.047823
v -0.122166 0.028504 0.027284
v 0.096957 0.029633 0.071200
v -0.118412 0.039064 0.059359
v -0.112980 0.028779 -0.018525
v -0.010926 0.023652 -0.045106
v -0.016419 0.023652 -0.011628
v -0.048158 0.023652 0.000366
v -0.003174 0.036897 -0.048036
v 0.105350 0.040193 -0.023286
v 0.103275 0.040193 -0.028993
v -0.048158 0.023652 0.000366
v 0.104312 0.045015 -0.026124
v -0.003174 0.036897 -0.048036
v -0.010010 0.036897 -0.006378
v -0.012787 0.007538 -0.044404
v -0.012787 0.007538 -0.044404
v -0.035829 0.036897 -0.074770
v -0.003174 0.036897 -0.048036
v -0.037477 0.007538 -0.064638
v -0.037477 0.007538 -0.064638
v -0.075320 0.036897 -0.059877
v -0.035829 0.036897 -0.074770
v -0.067354 0.007538 -0.053377
v -0.067354 0.007538 -0.053377
v -0.082156 0.036897 -0.018250
v -0.075320 0.036897 -0.059877
v -0.010010 0.036897 -0.006378
v -0.049501 0.036897 0.008515
v -0.051363 0.052614 0.011658
v -0.082217 0.033662 0.024140
v -0.072359 0.050783 0.051454
v -0.001526 0.032014 0.032289
v -0.014405 0.052431 -0.003235
v 0.017396 0.037385 -0.013062
v -0.037477 0.007538 -0.064638
v -0.047853 0.007538 -0.001648
v -0.072542 0.007538 -0.021882
v -0.017975 0.007538 -0.012909
v -0.042665 0.030000 -0.033143
v -0.037172 0.023652 -0.066622
v -0.016419 0.023652 -0.011628
v -0.010926 0.023652 -0.045106
v -0.042665 0.030000 -0.033143
v -0.074404 0.023652 -0.021149
v -0.037172 0.023652 -0.066622
v -0.068911 0.023652 -0.054628
v -0.121464 0.039064 0.050905
v 0.105350 0.040193 -0.023286
v 0.103275 0.040193 -0.028993
v -0.048158 0.023652 0.000366
v 0.029176 0.047060 0.019440
v 0.018616 0.051790 -0.009705
v -0.014405 0.052431 -0.003235
v 0.027955 0.032655 0.016114
v 0.103275 0.040193 -0.028993
v -0.121464 0.039064 0.050905
v -0.003998 0.035432 0.027406
v -0.020936 0.051424 -0.001160
v -0.047426 0.033021 0.014435
v -0.028504 0.032014 0.041871
v -0.020936 0.033021 -0.001160
v -0.030610 0.049013 0.043092
v -0.003998 0.035432 0.027406
v -0.047426 0.051424 0.014435
v -0.028504 0.032014 0.041871
v -0.001526 0.032014 0.032289
v 0.017396 0.037385 -0.013062
v -0.006104 0.052431 0.028657
v -0.014740 0.034272 -0.004212
v 0.029176 0.047060 0.019440
v 0.104312 0.045015 -0.026124
v -0.014740 0.034272 -0.004212
v -0.039552 0.048311 0.044435
v -0.072542 0.032868 0.050935
v -0.040651 0.031831 0.041383
v -0.052492 0.036134 0.008576
v -0.040651 0.031831 0.041383
v -0.039552 0.048311 0.044435
v -0.001160 0.050172 0.033296
v 0.017396 0.037385 -0.013062
v 0.029176 0.047060 0.019440
v -0.014740 0.034272 -0.004212
v 0.018616 0.051790 -0.009705
v 0.049348 0.048921 -0.025452
v 0.034364 0.054384 0.018647
v 0.027955 0.032655 0.016114
v 0.018677 0.047395 -0.012482
v -0.047426 0.033021 0.014435
v -0.047426 0.051424 0.014435
v -0.030610 0.049013 0.043092
v 0.018616 0.051790 -0.009705
v -0.014405 0.052431 -0.003235
v -0.028504 0.032014 0.041871
v -0.001160 0.050172 0.033296
v -0.020936 0.033021 -0.001160
v -0.072359 0.050783 0.051454
v -0.006104 0.052431 0.028657
v -0.047426 0.033021 0.014435
v 0.104312 0.045015 -0.026124
v -0.119938 0.046175 0.055116
v 0.105350 0.040193 -0.023286
v -0.118412 0.039064 0.059359
v -0.119938 0.046175 0.055116
v -0.121464 0.039064 0.050905
v -0.082003 0.051576 0.024659
v -0.118412 0.039064 0.059359
v -0.082217 0.033662 0.024140
v -0.020936 0.033021 -0.001160
v -0.020936 0.051424 -0.001160
v -0.003998 0.035432 0.027406
v -0.082003 0.051576 0.024659
v -0.052492 0.036134 0.008576
v -0.051363 0.052614 0.011658
v -0.072542 0.032868 0.050935
v -0.082217 0.033662 0.024140
v -0.072359 0.050783 0.051454
v -0.052492 0.036134 0.008576
vt 0.251002 0.508616
vt 0.005585 0.508616
vt 0.005585 0.632453
vt 0.615924 0.010243
vt 0.562428 0.002308
vt 0.356866 0.196732
vt 0.615924 0.010243
vt 0.793045 0.010243
vt 0.895246 0.157090
vt 0.690691 0.156816
vt 0.970349 0.010243
vt 0.793045 0.010243
vt 0.970349 0.010243
vt 0.690782 0.156785
vt 0.895246 0.156938
vt 0.356835 0.101763
vt 0.469016 0.101763
vt 0.469016 0.196732
vt 0.484305 0.002308
vt 0.249934 0.002308
vt 0.328058 0.002308
vt 0.328058 0.002308
vt 0.484305 0.002308
vt 0.469016 0.101763
vt 0.576924 0.101763
vt 0.356499 0.006123
vt 0.469016 0.006123
vt 0.576924 0.101763
vt 0.469016 0.101763
vt 0.576924 0.006123
vt 0.576924 0.006123
vt 0.469016 0.101763
vt 0.356835 0.101763
vt 0.469016 0.006123
vt 0.469016 0.006123
vt 0.356835 0.101763
vt 0.243281 0.101763
vt 0.356499 0.006123
vt 0.356499 0.006123
vt 0.243281 0.101763
vt 0.243281 0.006123
vt 0.243281 0.006123
vt 0.356835 0.101763
vt 0.995830 0.633033
vt 0.245723 0.870150
vt 0.760636 0.508616
vt 0.356835 0.101763
vt 0.356499 0.006123
vt 0.469016 0.006123
vt 0.469016 0.101763
vt 0.005585 0.508616
vt 0.251002 0.508616
vt 0.356835 0.101763
vt 0.128293 0.632453
vt 0.005585 0.632453
vt 0.251002 0.632453
vt 0.128293 0.508616
vt 0.243281 0.101763
vt 0.995830 0.508616
vt 0.760636 0.870516
vt 0.245723 0.648811
vt 0.995830 0.638282
vt 0.995830 0.851413
vt 0.760636 0.633033
vt 0.760636 0.641364
vt 0.995830 0.508616
vt 0.995830 0.633033
vt 0.995830 0.508616
vt 0.760636 0.508616
vt 0.760636 0.633033
vt 0.760636 0.508616
vt 0.760636 0.633033
vt 0.995830 0.633033
vt 0.995830 0.508616
vt 0.009216 0.659156
vt 0.757798 0.508616
vt 0.009216 0.876772
vt 0.009216 0.659156
vt 0.005585 0.632453
vt 0.005585 0.632453
vt 0.251002 0.508616
vt 0.005585 0.631691
vt 0.000031 0.250198
vt 0.009216 0.876772
vt 0.249354 0.508616
vt 0.757798 0.508616
vt 0.757798 0.634284
vt 0.499227 0.508616
vt 0.249354 0.631691
vt 0.009216 0.876772
vt 0.005585 0.508616
vt 0.245723 0.648811
vt 0.245723 0.870150
vt 0.005585 0.631691
vt 0.009216 0.659156
vt 0.249354 0.508616
vt 0.249354 0.631691
vt 0.251002 0.632453
vt 0.005585 0.508616
vt 0.005585 0.508616
vt 0.251002 0.508616
vt 0.760636 0.633033
vt 0.009216 0.876772
vt 0.245723 0.648811
vt 0.757798 0.634284
vt 0.499227 0.905764
vt 0.499227 0.508616
vt 0.499227 0.508616
vt 0.757798 0.634284
vt 0.757798 0.508616
vt 0.757798 0.508616
vt 0.757798 0.634284
vt 0.499227 0.905764
vt 0.499227 0.508616
vt 0.757798 0.634284
vt 0.499227 0.634284
vt 0.251002 0.632453
vt 0.000031 0.250198
vt 0.005585 0.508616
vt 0.995830 0.633033
vt 0.760636 0.633033
vt 0.995830 0.638282
vt 0.760636 0.508616
vt 0.995830 0.851382
vt 0.499227 0.508616
vt 0.757798 0.508616
vt 0.499227 0.634284
vt 0.760636 0.870547
vt 0.757798 0.508616
vt 0.760636 0.641395
vt 0.245418 0.631507
vt 0.245418 0.508616
vt 0.499533 0.631507
vt 0.499533 0.508616
vt 0.478537 0.897036
vt 0.258174 0.897036
vt 0.458823 0.631660
vt 0.254908 0.631660
vt 0.245418 0.631507
vt 0.245418 0.508616
vt 0.499533 0.631507
vt 0.499533 0.508616
vt 0.499533 0.508616
vt 0.499533 0.631507
vt 0.245418 0.508616
vt 0.245418 0.631507
vt 0.245418 0.631507
vt 0.245418 0.508616
vt 0.499533 0.631507
vt 0.499533 0.508616
vt 0.499227 0.905825
vt 0.499227 0.639015
vt 0.757798 0.871920
vt 0.757798 0.651740
vt 0.499227 0.634284
vt 0.499227 0.508616
vt 0.757798 0.651801
vt 0.757798 0.871981
vt 0.499227 0.634284
vt 0.499227 0.638954
vt 0.760636 0.633033
vt 0.760636 0.508616
vt 0.995830 0.633033
vt 0.757798 0.508616
vt 0.757798 0.634284
vt 0.499227 0.508616
vt 0.499227 0.634284
vt 0.757798 0.634284
vt 0.499227 0.634284
vt 0.999920 0.448985
vt 0.499227 0.508616
vt 0.999950 0.250198
vt 0.999920 0.448985
vt 0.999950 0.250198
vt 0.000061 0.448985
vt 0.000061 0.448985
vt 0.760636 0.633033
vt 0.499227 0.634284
vt 0.478506 0.897036
vt 0.757798 0.508616
vt 0.757798 0.871981
vt 0.499227 0.508616
vt 0.499227 0.638954
vt 0.757798 0.651801
vt 0.757798 0.634284
vt 0.760636 0.508616
vt 0.995830 0.508616
vt 0.878248 0.508616
vt 0.499227 0.634284
vt 0.499227 0.634284
vt 0.757798 0.508616
vt 0.757798 0.634284
vt 0.757798 0.508616
vt 0.499227 0.508616
vt 0.628528 0.508616
vt 0.628528 0.634284
vt 0.995830 0.638282
vt 0.760636 0.641395
vt 0.760636 0.870547
vt 0.995830 0.851382
vt 0.760636 0.508616
vt 0.995830 0.633033
vt 0.995830 0.508616
vt 0.000031 0.250198
vt 0.995830 0.508616
vt 0.878248 0.633033
vt 0.005585 0.508616
vt 0.005585 0.632453
vt 0.251002 0.632453
vt 0.995830 0.633033
vt 0.249354 0.508616
vt 0.005585 0.508616
vt 0.005585 0.631691
vt 0.995830 0.638282
vt 0.760636 0.870547
vt 0.757798 0.634284
vt 0.760636 0.633033
vt 0.995830 0.851382
vt 0.760636 0.641395
vt 0.245723 0.870150
vt 0.005585 0.631691
vt 0.009216 0.659156
vt 0.249354 0.508616
vt 0.995830 0.633033
vt 0.760636 0.508616
vt 0.995830 0.508616
vt 0.760636 0.641364
vt 0.995830 0.638282
vt 0.760636 0.870516
vt 0.249354 0.631691
vt 0.005585 0.508616
vt 0.005585 0.508616
vt 0.249354 0.631691
vt 0.005585 0.631691
vt 0.499533 0.508616
vt 0.249354 0.508616
vt 0.499533 0.631507
vt 0.245418 0.631507
vt 0.245418 0.508616
vt 0.245418 0.508616
vt 0.499533 0.508616
vt 0.995830 0.508616
vt 0.760636 0.633033
vt 0.995830 0.851413
vt 0.499533 0.631507
vt 0.999920 0.448985
vt 0.245418 0.631507
vt 0.999950 0.250198
vt 0.859847 0.919130
vt 0.034210 0.943330
vt 0.000061 0.448985
vt 0.859877 0.943330
vt 0.995830 0.508616
vt 0.995830 0.633033
vt 0.760636 0.508616
vt 0.034179 0.919130
vt 0.034179 0.968171
vt 0.034179 0.919130
vt 0.034210 0.943330
vt 0.251002 0.508616
vt 0.128293 0.508616
vt 0.128293 0.632453
vt 0.859847 0.968171
vt 0.034179 0.968171
vt 0.859877 0.943330
vt 0.034210 0.943330
vt 0.034179 0.968171
vt 0.859847 0.968171
vt 0.034179 0.991425
vt 0.859847 0.991425
vt 0.957501 0.979981
vt 0.979534 0.934358
vt 0.934918 0.933870
vt 0.009216 0.876772
vt 0.009216 0.659156
vt 0.245723 0.870150
vt 0.245723 0.648811
vt 0.005585 0.631691
vt 0.005585 0.508616
vt 0.249354 0.631691
vt 0.249354 0.508616
vt 0.005585 0.508616
vt 0.760636 0.508616
vt 0.995830 0.633033
vt 0.760636 0.633033
vt 0.760636 0.508616
vt 0.995830 0.508616
vt 0.760636 0.633033
vt 0.249354 0.508616
vt 0.005585 0.631691
vt 0.249354 0.631691
vt 0.005585 0.508616
vt 0.005585 0.632453
vt 0.243281 0.196732
vt 0.499533 0.508616
vt 0.356835 0.101763
vt 0.478506 0.897036
vt 0.254939 0.631660
vt 0.251002 0.632453
vt 0.258143 0.897036
vt 0.245723 0.648811
vt 0.009216 0.876772
vt 0.995830 0.633033
vt 0.005585 0.631691
vt 0.245723 0.870150
vt 0.009216 0.659156
vt 0.499533 0.508616
vt 0.245418 0.508616
vt 0.458853 0.631660
vt 0.372460 0.631507
vt 0.372460 0.508616
vt 0.245418 0.631507
vt 0.499533 0.631507
vt 0.254939 0.631660
vt 0.458853 0.631660
vt 0.251002 0.508616
vt 0.258143 0.897036
vt 0.356866 0.196732
vt 0.245723 0.648811
vt 0.249354 0.631691
vt 0.859847 0.919130
vt 0.034210 0.943330
vt 0.004059 0.198105
vt 0.469016 0.101763
vt 0.576924 0.196732
vt 0.356866 0.196732
vt 0.249354 0.508616
vt 0.005585 0.508616
vt 0.005585 0.631691
vt 0.005585 0.508616
vt 0.005585 0.632453
vt 0.251002 0.632453
vt 0.251002 0.508616
vt 0.251002 0.508616
vt 0.005585 0.508616
vt 0.005585 0.632453
vt 0.251002 0.632453
vt 0.254939 0.631660
vt 0.258143 0.897036
vt 0.478506 0.897036
vt 0.458853 0.631660
vt 0.245418 0.508616
vt 0.245418 0.631507
vt 0.499533 0.631507
vt 0.478537 0.897036
vt 0.254908 0.631660
vt 0.258174 0.897036
vt 0.499227 0.905764
vt 0.458823 0.631660
vt 0.499533 0.508616
vt 0.245418 0.508616
vt 0.245418 0.631507
vt 0.499533 0.631507
vt 0.245418 0.631507
vt 0.499533 0.631507
vt 0.499533 0.508616
vt 0.245418 0.508616
vt 0.499533 0.508616
vt 0.245418 0.508616
vt 0.245418 0.631507
vt 0.499533 0.631507
vt 0.757798 0.651740
vt 0.499227 0.639015
vt 0.499227 0.905825
vt 0.757798 0.871920
vt 0.245723 0.870150
vt 0.009216 0.659156
vt 0.499227 0.634284
vt 0.009216 0.876772
vt 0.249354 0.631691
vt 0.245723 0.648811
vt 0.469016 0.196732
vt 0.469016 0.101763
vt 0.356835 0.101763
vt 0.757798 0.634284
vt 0.499227 0.638954
vt 0.757798 0.871981
vt 0.576924 0.101763
vt 0.576924 0.101763
vt 0.469016 0.196732
vt 0.469016 0.196732
vt 0.469016 0.101763
vt 0.004059 0.003590
vt 0.226558 0.198105
vt 0.576924 0.196732
vt 0.226558 0.003590
vt 0.004059 0.003590
vt 0.226558 0.198105
vt 0.004059 0.198105
vt 0.226558 0.003590
vt 0.004059 0.003590
vt 0.226558 0.198105
vt 0.004059 0.198105
vt 0.226558 0.003590
vt 0.034179 0.919130
vt 0.034179 0.968171
vt 0.034179 0.919130
vt 0.859877 0.943330
vt 0.034210 0.943330
vt 0.251002 0.632453
vt 0.005585 0.632453
vt 0.859847 0.991425
vt 0.034210 0.943330
vt 0.034179 0.968171
vt 0.859847 0.968171
vt 0.859877 0.943330
vt 0.859847 0.991425
vt 0.859847 0.968171
vt 0.034179 0.968171
vt 0.034179 0.991425
vt 0.957501 0.979981
vt 0.979534 0.934358
vt 0.934918 0.933870
vt 0.245723 0.870150
vt 0.009216 0.876772
vt 0.757798 0.508616
vt 0.009216 0.659156
vt 0.499227 0.508616
vt 0.757798 0.651801
vt 0.005585 0.508616
vt 0.251002 0.508616
vt 0.249354 0.631691
vt 0.005585 0.508616
vt 0.249354 0.508616
vt 0.251002 0.632453
vt 0.356866 0.196732
vt 0.243281 0.101763
vt 0.243281 0.196732
vt 0.859847 0.919130
vt 0.859877 0.943330
vt 0.034179 0.919130
vt 0.034210 0.943330
vt 0.245723 0.870150
vt 0.005585 0.631691
vt 0.009216 0.659156
vt 0.034179 0.919130
vt 0.034210 0.943330
vt 0.859847 0.968171
vt 0.034179 0.968171
vt 0.034210 0.943330
vt 0.859877 0.943330
vt 0.034179 0.991425
vt 0.034179 0.968171
vt 0.859847 0.968171
vt 0.934918 0.933870
vt 0.957501 0.979981
vt 0.034179 0.968171
vt 0.979534 0.934358
vt 0.009216 0.876772
vt 0.245723 0.648811
vt 0.499227 0.634284
vt 0.249354 0.508616
vt 0.249354 0.631691
vt 0.005585 0.508616
vt 0.245723 0.648811
vt 0.245723 0.870150
vt 0.009216 0.659156
vt 0.005585 0.508616
vt 0.245723 0.648811
vt 0.245723 0.870150
vt 0.005585 0.632453
vt 0.005585 0.508616
vt 0.251002 0.508616
vt 0.249354 0.508616
vt 0.005585 0.631691
vt 0.249354 0.508616
vt 0.005585 0.508616
vt 0.251002 0.632453
vt 0.249354 0.631691
vt 0.009216 0.876772
vt 0.249354 0.631691
vt 0.005585 0.631691
vt 0.005585 0.632453
vt 0.005585 0.632453
vt 0.251002 0.508616
vt 0.251002 0.632453
vt 0.478506 0.897036
vt 0.005585 0.508616
vt 0.478537 0.897036
vt 0.034210 0.943330
vt 0.469016 0.006123
vt 0.034179 0.968171
vt 0.859847 0.968171
vt 0.034179 0.991425
vt 0.859847 0.991425
vt 0.934918 0.933870
vt 0.979534 0.934358
vt 0.009216 0.876772
vt 0.957501 0.979981
vt 0.245723 0.648811
vt 0.245723 0.870150
vt 0.005585 0.631691
vt 0.009216 0.659156
vt 0.245723 0.870150
vt 0.005585 0.631691
vt 0.009216 0.659156
vt 0.249354 0.508616
vt 0.249354 0.631691
vt 0.009216 0.876772
vt 0.005585 0.508616
vt 0.245723 0.648811
vt 0.249354 0.508616
vt 0.478506 0.897036
vt 0.251002 0.632453
vt 0.005585 0.508616
vt 0.249354 0.631691
vt 0.251002 0.632453
vt 0.005585 0.508616
vt 0.005585 0.508616
vt 0.251002 0.508616
vt 0.254939 0.631660
vt 0.995830 0.508616
vt 0.995830 0.633033
vt 0.760636 0.508616
vt 0.760636 0.633033
vt 0.760636 0.508616
vt 0.995830 0.633033
vt 0.245723 0.648811
vt 0.245723 0.870150
vt 0.005585 0.631691
vt 0.245418 0.631507
vt 0.245418 0.508616
vt 0.245418 0.631507
vt 0.458853 0.631660
vt 0.245418 0.631507
vt 0.258143 0.897036
vt 0.859877 0.943330
vt 0.859847 0.968171
vt 0.034179 0.919130
vt 0.034179 0.968171
vt 0.034179 0.968171
vt 0.034210 0.943330
vt 0.245723 0.648811
vt 0.034210 0.943330
vt 0.995830 0.638282
vt 0.995830 0.508616
vt 0.760636 0.633033
vt 0.005585 0.632453
vt 0.251002 0.508616
vt 0.005585 0.508616
vt 0.249354 0.508616
vt 0.249354 0.631691
vt 0.251002 0.632453
vt 0.995830 0.508616
vt 0.760636 0.508616
vt 0.760636 0.633033
vt 0.995830 0.633033
vt 0.009216 0.659156
vt 0.009216 0.876772
vt 0.245723 0.870150
vt 0.005585 0.631691
vt 0.859877 0.943330
vt 0.859847 0.919130
vt 0.034179 0.919130
vt 0.009216 0.876772
vt 0.009216 0.659156
vt 0.005585 0.508616
vt 0.005585 0.632453
vt 0.499533 0.508616
vt 0.499533 0.631507
vt 0.499533 0.508616
vt 0.249354 0.508616
vt 0.005585 0.508616
vt 0.005585 0.631691
vt 0.245723 0.870150
vt 0.005585 0.508616
vt 0.005585 0.631691
vt 0.009216 0.659156
vt 0.009216 0.876772
vt 0.249354 0.631691
vt 0.245723 0.648811
vt 0.009216 0.659156
vt 0.245418 0.508616
vt 0.251002 0.632453
vt 0.499533 0.508616
vt 0.005585 0.508616
vt 0.251002 0.508616
vt 0.499533 0.631507
vt 0.258174 0.897036
vt 0.458823 0.631660
vt 0.254908 0.631660
vt 0.995830 0.508616
vt 0.995830 0.638282
vt 0.760636 0.633033
vt 0.245418 0.631507
vt 0.995830 0.508616
vt 0.995830 0.633033
vt 0.995830 0.508616
vt 0.760636 0.508616
vt 0.760636 0.633033
vt 0.760636 0.508616
vt 0.760636 0.633033
vt 0.995830 0.633033
vt 0.995830 0.508616
vt 0.995830 0.633033
vt 0.009216 0.876772
vt 0.760636 0.508616
vt 0.245723 0.648811
vt 0.251002 0.508616
vt 0.005585 0.632453
vt 0.005585 0.632453
vt 0.249354 0.508616
vt 0.458853 0.631660
vt 0.258143 0.897036
vt 0.254939 0.631660
vt 0.245723 0.870150
vt 0.499227 0.508616
vt 0.757798 0.634284
vt 0.757798 0.508616
vt 0.249354 0.631691
vt 0.005585 0.508616
vt 0.005585 0.632453
vt 0.251002 0.632453
vt 0.251002 0.508616
vt 0.251002 0.508616
vt 0.005585 0.508616
vt 0.005585 0.632453
vt 0.251002 0.632453
vt 0.760636 0.641364
vt 0.760636 0.870516
vt 0.995830 0.851413
vt 0.995830 0.508616
vt 0.760636 0.508616
vt 0.760636 0.633033
vt 0.995830 0.633033
vt 0.757798 0.508616
vt 0.245418 0.508616
vt 0.499533 0.631507
vt 0.245418 0.508616
vt 0.499533 0.631507
vt 0.499533 0.508616
vt 0.499227 0.905825
vt 0.499227 0.639015
vt 0.757798 0.871920
vt 0.757798 0.651740
vt 0.757798 0.634284
vt 0.499227 0.634284
vt 0.499227 0.905764
vt 0.499227 0.508616
vt 0.995830 0.638282
vt 0.499227 0.638954
vt 0.757798 0.871981
vt 0.757798 0.651801
vt 0.499227 0.634284
vt 0.757798 0.508616
vt 0.469016 0.006123
vt 0.328058 0.002308
vt 0.328058 0.002308
vt 0.576924 0.101763
vt 0.859847 0.968171
vt 0.469016 0.101763
vt 0.757798 0.871920
vt 0.499227 0.508616
vt 0.499227 0.634284
vt 0.760636 0.870516
vt 0.005585 0.508616
vt 0.249354 0.631691
vt 0.757798 0.634284
vt 0.499227 0.508616
vt 0.499227 0.634284
vt 0.499227 0.634284
vt 0.499227 0.508616
vt 0.757798 0.634284
vt 0.757798 0.508616
vt 0.995830 0.851382
vt 0.760636 0.870547
vt 0.995830 0.851413
vt 0.760636 0.641395
vt 0.760636 0.641364
vt 0.760636 0.508616
vt 0.760636 0.633033
vt 0.995830 0.633033
vt 0.249354 0.508616
vt 0.469016 0.101763
vt 0.469016 0.101763
vt 0.576924 0.101763
vt 0.469016 0.196732
vt 0.243281 0.196732
vt 0.243281 0.101763
vt 0.356835 0.101763
vt 0.356866 0.196732
vt 0.356866 0.196732
vt 0.356835 0.101763
vt 0.243281 0.101763
vt 0.243281 0.196732
vt 0.469016 0.196732
vt 0.469016 0.101763
vt 0.356835 0.101763
vt 0.356866 0.196732
vt 0.469016 0.101763
vt 0.576924 0.006123
vt 0.576924 0.006123
vt 0.576924 0.196732
vt 0.995830 0.638282
vt 0.004059 0.003590
vt 0.226558 0.198105
vt 0.469016 0.196732
vt 0.469016 0.006123
vt 0.469016 0.006123
vt 0.576924 0.101763
vt 0.004059 0.198105
vt 0.004059 0.003590
vt 0.226558 0.003590
vt 0.226558 0.198105
vt 0.004059 0.198105
vt 0.004059 0.003590
vt 0.226558 0.003590
vt 0.226558 0.198105
vt 0.004059 0.198105
vt 0.000031 0.250198
vt 0.226558 0.003590
vt 0.999920 0.448985
vt 0.000061 0.448985
vt 0.859847 0.919130
vt 0.999920 0.250198
vt 0.356866 0.196732
vt 0.469016 0.196732
vt 0.970349 0.010243
vt 0.356835 0.101763
vt 0.034179 0.919130
vt 0.034210 0.943330
vt 0.970349 0.010243
vt 0.034179 0.968171
vt 0.356835 0.101763
vt 0.469016 0.101763
vt 0.356499 0.006123
vt 0.356499 0.006123
vt 0.243281 0.101763
vt 0.356835 0.101763
vt 0.243281 0.006123
vt 0.243281 0.006123
vt 0.356835 0.101763
vt 0.243281 0.101763
vt 0.356499 0.006123
vt 0.356499 0.006123
vt 0.469016 0.101763
vt 0.356835 0.101763
vt 0.469016 0.101763
vt 0.576924 0.101763
vt 0.245723 0.870150
vt 0.251002 0.632453
vt 0.009216 0.659156
vt 0.757798 0.508616
vt 0.499227 0.634284
vt 0.757798 0.634284
vt 0.249934 0.002308
vt 0.562428 0.002308
vt 0.484305 0.002308
vt 0.484305 0.002308
vt 0.793045 0.010243
vt 0.615924 0.010243
vt 0.895246 0.157090
vt 0.690691 0.156816
vt 0.793045 0.010243
vt 0.895246 0.156938
vt 0.615924 0.010243
vt 0.690782 0.156785
vt 0.859877 0.943330
vt 0.034179 0.919130
vt 0.034210 0.943330
vt 0.576924 0.196732
vt 0.757798 0.651801
vt 0.757798 0.508616
vt 0.499227 0.508616
vt 0.757798 0.508616
vt 0.034210 0.943330
vt 0.859877 0.943330
vt 0.254908 0.631660
vt 0.499533 0.508616
vt 0.245418 0.631507
vt 0.499533 0.508616
vt 0.499533 0.631507
vt 0.245418 0.631507
vt 0.499533 0.508616
vt 0.245418 0.508616
vt 0.245418 0.508616
vt 0.499227 0.905825
vt 0.757798 0.651740
vt 0.499533 0.631507
vt 0.499227 0.639015
vt 0.757798 0.634284
vt 0.034179 0.968171
vt 0.499227 0.634284
vt 0.249354 0.631691
vt 0.005585 0.508616
vt 0.249354 0.508616
vt 0.245723 0.648811
vt 0.245723 0.870150
vt 0.245723 0.648811
vt 0.757798 0.634284
vt 0.499227 0.634284
vt 0.757798 0.508616
vt 0.499227 0.508616
vt 0.499227 0.508616
vt 0.995830 0.851382
vt 0.760636 0.641395
vt 0.757798 0.634284
vt 0.760636 0.870547
vt 0.245418 0.508616
vt 0.245418 0.631507
vt 0.499533 0.631507
vt 0.757798 0.871981
vt 0.499227 0.905764
vt 0.458823 0.631660
vt 0.499227 0.638954
vt 0.258174 0.897036
vt 0.005585 0.631691
vt 0.499533 0.508616
vt 0.478537 0.897036
vt 0.034179 0.968171
vt 0.859847 0.968171
vt 0.034179 0.991425
vt 0.859847 0.991425
vt 0.934918 0.933870
vt 0.979534 0.934358
vt 0.009216 0.876772
vt 0.957501 0.979981
vt 0.005585 0.631691
vt 0.245418 0.631507
vt 0.245418 0.508616
vt 0.499533 0.631507
vt 0.005585 0.508616
vt 0.249354 0.631691
vt 0.249354 0.508616
vt 0.009216 0.876772
vt 0.009216 0.659156
vt 0.005585 0.508616
vt 0.251002 0.508616
vn 0.938478 0.005835 0.345290
vn 0.938200 0.006818 0.346025
vn 0.937921 0.007801 0.346761
vn -0.181549 0.977660 -0.105931
vn 0.000000 -1.000000 0.000000
vn -0.763482 0.476375 0.436076
vn 0.000999 0.977659 -0.210197
vn 0.123220 0.989885 -0.070323
vn 0.183061 0.983101 0.000921
vn 0.092284 0.983100 -0.158106
vn 0.181545 0.977643 0.106095
vn -0.123220 0.989885 0.070323
vn -0.000999 0.977659 0.210196
vn -0.183061 0.983101 -0.000921
vn -0.092285 0.983113 0.158024
vn -0.763691 0.476073 0.436040
vn -0.763859 0.475830 0.436010
vn -0.763691 0.476073 0.436040
vn 0.000000 -1.000000 0.000000
vn 0.000000 -1.000000 0.000000
vn 0.000000 -1.000000 0.000000
vn 0.000000 -1.000000 0.000000
vn 0.000000 -1.000000 0.000000
vn 0.826439 -0.290252 0.482445
vn 0.826283 -0.290474 0.482577
vn 0.004841 -0.290301 -0.956923
vn 0.826283 -0.290474 0.482577
vn -0.004876 -0.290346 0.956909
vn -0.004859 -0.290327 0.956915
vn 0.826078 -0.290768 0.482752
vn -0.004859 -0.290327 0.956915
vn -0.831313 -0.290405 0.473903
vn -0.831298 -0.290313 0.473986
vn -0.004837 -0.290301 0.956923
vn -0.831298 -0.290313 0.473986
vn -0.826439 -0.290252 -0.482445
vn -0.826283 -0.290474 -0.482577
vn -0.831278 -0.290192 0.474094
vn -0.826283 -0.290474 -0.482577
vn 0.004879 -0.290345 -0.956909
vn 0.004863 -0.290327 -0.956915
vn -0.826078 -0.290768 -0.482752
vn 0.004863 -0.290327 -0.956915
vn 0.936333 -0.023588 -0.350321
vn -0.035092 0.981426 -0.188605
vn 0.936333 -0.023588 -0.350321
vn 0.831028 -0.290490 -0.474351
vn 0.830999 -0.290313 -0.474509
vn 0.830960 -0.290080 -0.474719
vn 0.830999 -0.290313 -0.474509
vn -0.935726 -0.043638 0.350017
vn -0.935726 -0.043638 0.350017
vn -0.004484 0.476046 0.879409
vn -0.935726 -0.043638 0.350017
vn 0.935813 0.043006 -0.349864
vn 0.935813 0.043006 -0.349864
vn 0.935813 0.043006 -0.349864
vn 0.759424 0.476171 0.443324
vn -0.275389 -0.308026 -0.910649
vn 0.109443 -0.890416 0.441794
vn 0.012851 0.987558 -0.156729
vn 0.168559 -0.931861 0.321283
vn 0.138337 -0.912685 0.384537
vn 0.323785 0.458976 0.827348
vn 0.138337 -0.912685 0.384537
vn 0.413084 0.302774 0.858889
vn 0.368645 0.384807 0.846182
vn -0.936509 0.025149 0.349741
vn 0.368645 0.384807 0.846182
vn -0.936522 0.025178 0.349704
vn -0.936515 0.025164 0.349723
vn 0.936354 -0.023238 -0.350288
vn -0.936515 0.025164 0.349723
vn 0.936312 -0.023938 -0.350353
vn -0.035092 0.981426 -0.188605
vn 0.463570 0.323812 -0.824772
vn 0.020480 -0.992400 -0.121341
vn 0.082753 -0.984735 -0.153131
vn -0.971115 -0.006981 0.238510
vn 0.970996 0.006913 -0.238995
vn 0.970996 0.006913 -0.238995
vn -0.361150 -0.238534 -0.901483
vn 0.005533 0.999781 -0.020172
vn -0.094188 0.969299 -0.227130
vn -0.295370 -0.078639 -0.952141
vn -0.938570 -0.006144 -0.345033
vn 0.435809 0.230240 -0.870092
vn 0.435809 0.230240 -0.870092
vn -0.330789 -0.162129 -0.929673
vn 0.035493 -0.969756 0.241481
vn -0.330789 -0.162129 -0.929673
vn 0.097991 -0.986733 0.129442
vn 0.070169 -0.981170 0.179952
vn 0.093662 0.236965 0.966993
vn 0.070169 -0.981170 0.179952
vn 0.177849 0.077796 0.980978
vn 0.134783 0.160916 0.977722
vn -0.971048 -0.006055 0.238807
vn 0.134783 0.160916 0.977722
vn -0.971181 -0.007908 0.238213
vn -0.971115 -0.006981 0.238510
vn 0.886320 0.042819 -0.461089
vn -0.059643 0.997035 0.048621
vn 0.055592 0.992700 0.107037
vn 0.260257 -0.802349 0.537124
vn -0.011658 0.997889 0.063893
vn 0.260257 -0.802349 0.537124
vn -0.128198 -0.130120 -0.983175
vn -0.128198 -0.130120 -0.983175
vn -0.088046 -0.029950 -0.995666
vn 0.385893 0.032051 0.921987
vn 0.343295 0.131480 0.929979
vn -0.047958 0.976985 -0.207848
vn -0.938621 -0.006671 -0.344886
vn -0.938621 -0.006671 -0.344886
vn -0.938671 -0.007199 -0.344739
vn 0.970996 0.006913 -0.238995
vn -0.024006 0.996548 0.079466
vn 0.970996 0.006913 -0.238995
vn -0.304005 -0.387018 -0.870516
vn -0.328478 -0.458140 -0.825960
vn -0.039805 0.928551 -0.369063
vn -0.304005 -0.387018 -0.870516
vn -0.105152 0.912049 -0.396372
vn 0.938715 0.007492 0.344613
vn 0.938713 0.007499 0.344618
vn 0.938717 0.007486 0.344608
vn -0.165766 0.892249 -0.420015
vn 0.970770 0.007057 -0.239909
vn -0.105152 0.912049 -0.396372
vn 0.911333 -0.043254 -0.409392
vn 0.917226 0.032394 -0.397049
vn 0.917226 0.032394 -0.397049
vn 0.917534 0.112921 -0.381287
vn 0.058386 -0.970798 0.232686
vn 0.130795 -0.958857 0.251964
vn 0.130795 -0.958857 0.251964
vn 0.207552 -0.939933 0.271012
vn -0.913058 0.041432 0.405720
vn -0.892141 -0.016219 0.451466
vn -0.892141 -0.016219 0.451466
vn -0.864109 -0.077536 0.497296
vn -0.403833 -0.266809 -0.875061
vn -0.403489 -0.266128 -0.875427
vn -0.403489 -0.266128 -0.875427
vn -0.403144 -0.265446 -0.875793
vn 0.404052 0.265609 0.875325
vn 0.403884 0.265822 0.875338
vn 0.403884 0.265822 0.875338
vn 0.403715 0.266035 0.875351
vn 0.066677 -0.976859 0.203225
vn 0.098039 -0.983378 0.152830
vn 0.098039 -0.983378 0.152830
vn 0.136252 -0.986587 0.089900
vn 0.305075 0.212422 0.928335
vn 0.343295 0.131480 0.929979
vn 0.065167 0.987912 -0.140656
vn 0.002696 0.984000 -0.178149
vn -0.160132 -0.211468 -0.964178
vn 0.002696 0.984000 -0.178149
vn 0.364179 -0.547666 0.753283
vn 0.389652 -0.598903 0.699633
vn 0.389652 -0.598903 0.699633
vn -0.970815 -0.006459 0.239743
vn -0.970815 -0.006459 0.239743
vn -0.970815 -0.006459 0.239743
vn -0.970815 -0.006459 0.239743
vn 0.970770 0.007064 -0.239907
vn 0.970771 0.007071 -0.239904
vn -0.024258 0.996492 0.080092
vn 0.970770 0.007064 -0.239907
vn -0.024132 0.996520 0.079779
vn 0.005533 0.999781 -0.020172
vn 0.005533 0.999781 -0.020172
vn -0.024132 0.996520 0.079779
vn 0.005533 0.999781 -0.020172
vn -0.235222 -0.838602 -0.491343
vn 0.237616 -0.767677 0.595156
vn -0.083373 0.954510 -0.286286
vn 0.285281 -0.838028 0.465106
vn 0.042839 0.995210 0.087877
vn -0.132839 -0.682840 -0.718389
vn 0.042839 0.995210 0.087877
vn 0.109811 0.987041 0.117014
vn -0.260325 -0.581679 -0.770637
vn -0.886242 -0.043807 0.461147
vn -0.886242 -0.043807 0.461147
vn 0.886320 0.042819 -0.461089
vn -0.189048 -0.641084 -0.743822
vn -0.935439 -0.042786 0.350890
vn -0.189048 -0.641084 -0.743822
vn -0.935439 -0.042786 0.350890
vn 0.935118 0.043651 -0.351638
vn 0.935118 0.043651 -0.351638
vn -0.935439 -0.042786 0.350890
vn 0.935118 0.043651 -0.351638
vn -0.024843 0.994266 -0.104007
vn -0.093935 0.987549 -0.126184
vn -0.158170 0.976507 -0.146340
vn -0.093935 0.987549 -0.126184
vn -0.220470 -0.799977 -0.558059
vn -0.220470 -0.799977 -0.558059
vn -0.202662 -0.751767 -0.627515
vn -0.037259 0.997973 -0.051595
vn 0.413505 -0.648078 0.639538
vn -0.886242 -0.043807 0.461147
vn -0.938292 -0.005323 -0.345804
vn -0.938081 -0.006058 -0.346364
vn -0.937869 -0.006794 -0.346924
vn 0.886320 0.042819 -0.461089
vn -0.385977 -0.284337 0.877596
vn -0.430724 -0.201391 0.879727
vn -0.468944 -0.122558 0.874684
vn 0.050294 0.998715 0.006268
vn -0.023332 0.993210 -0.113967
vn 0.938715 0.007492 0.344613
vn 0.223487 -0.113954 -0.968023
vn 0.012267 0.998354 -0.056022
vn 0.012267 0.998354 -0.056022
vn 0.004035 0.996701 0.081064
vn -0.274032 -0.600792 -0.750970
vn 0.004035 0.996701 0.081064
vn -0.277306 -0.608277 -0.743708
vn 0.259763 -0.032518 -0.965125
vn 0.259763 -0.032518 -0.965125
vn 0.296038 0.054285 -0.953632
vn 0.022018 -0.997696 0.064172
vn 0.083503 -0.996182 0.025460
vn -0.035641 -0.994339 0.100103
vn -0.275694 -0.604591 -0.747303
vn 0.335411 -0.640351 0.690978
vn -0.275694 -0.604591 -0.747303
vn 0.102129 -0.817888 0.566242
vn 0.215612 -0.743076 0.633522
vn 0.443349 -0.661259 0.605127
vn 0.215612 -0.743076 0.633522
vn 0.454444 -0.676974 0.578953
vn 0.466013 -0.693321 0.549670
vn -0.362139 -0.667125 -0.650998
vn 0.454444 -0.676974 0.578953
vn -0.336938 -0.682968 -0.648095
vn -0.152745 -0.051661 0.986914
vn -0.229500 0.112181 0.966822
vn 0.022018 -0.997696 0.064172
vn -0.309092 -0.699561 -0.644265
vn -0.037256 0.997972 -0.051617
vn -0.336938 -0.682968 -0.648095
vn -0.037257 0.997972 -0.051606
vn 0.044618 -0.998863 -0.016813
vn 0.046246 -0.998858 -0.012034
vn -0.037257 0.997972 -0.051606
vn 0.045274 -0.998864 -0.014889
vn -0.972972 -0.019969 -0.230056
vn -0.193107 0.032924 0.980625
vn -0.193107 0.032924 0.980625
vn 0.935091 0.040094 -0.352132
vn 0.935091 0.040094 -0.352132
vn 0.045274 -0.998864 -0.014889
vn 0.935091 0.040094 -0.352132
vn -0.935794 -0.042009 0.350037
vn 0.935813 0.043006 -0.349864
vn -0.935794 -0.042009 0.350037
vn -0.316757 0.531560 -0.785563
vn -0.316803 0.531246 -0.785757
vn -0.316803 0.531246 -0.785757
vn -0.316872 0.530781 -0.786043
vn 0.278003 0.535015 0.797793
vn 0.278229 0.534041 0.798366
vn 0.278229 0.534041 0.798366
vn 0.278380 0.533387 0.798751
vn -0.935004 -0.040479 0.352320
vn -0.935004 -0.040479 0.352320
vn -0.935004 -0.040479 0.352320
vn -0.058407 0.997075 0.049299
vn 0.004616 0.996674 0.081355
vn 0.004616 0.996674 0.081355
vn 0.055640 0.992699 0.107018
vn -0.274360 -0.599860 -0.751595
vn -0.276238 -0.604142 -0.747466
vn -0.276238 -0.604142 -0.747466
vn -0.278061 -0.608299 -0.743408
vn 0.335320 -0.640692 0.690705
vn -0.972949 -0.019783 -0.230173
vn -0.972949 -0.019783 -0.230173
vn -0.972925 -0.019597 -0.230290
vn 0.972865 0.017587 0.230703
vn 0.972865 0.017587 0.230703
vn 0.972865 0.017587 0.230703
vn 0.215676 -0.743168 0.633392
vn 0.215676 -0.743168 0.633392
vn 0.102218 -0.817894 0.566216
vn -0.935794 -0.042009 0.350037
vn 0.935813 0.043006 -0.349864
vn 0.759380 0.476352 0.443205
vn 0.956888 0.160312 0.242210
vn 0.759380 0.476352 0.443205
vn -0.056710 0.998303 -0.013216
vn -0.105424 0.985129 0.135673
vn 0.935813 0.043006 -0.349864
vn -0.080474 0.995019 0.058839
vn -0.026646 0.975652 0.217698
vn -0.075860 0.992110 0.099817
vn 0.972865 0.017587 0.230703
vn 0.210742 0.122154 -0.969880
vn -0.048784 0.985044 0.165250
vn -0.048784 0.985044 0.165250
vn 0.883774 0.111946 -0.454325
vn 0.883774 0.111946 -0.454325
vn -0.080474 0.995019 0.058839
vn 0.883774 0.111946 -0.454325
vn -0.853798 -0.111383 0.508549
vn -0.853798 -0.111383 0.508549
vn -0.853798 -0.111383 0.508549
vn -0.149518 0.977672 -0.147654
vn -0.115654 0.968614 -0.220024
vn 0.971120 0.008727 -0.238430
vn -0.115654 0.968614 -0.220024
vn 0.759326 0.476577 0.443056
vn 0.133002 -0.974925 -0.178414
vn -0.430724 -0.201391 0.879727
vn 0.043705 -0.995383 -0.085455
vn 0.041927 -0.995828 -0.081042
vn 0.010650 0.996310 -0.085160
vn 0.004481 0.476045 -0.879410
vn 0.004179 0.476714 -0.879049
vn 0.763958 0.476073 -0.435571
vn 0.273478 0.282063 -0.919592
vn 0.242093 0.199261 -0.949572
vn 0.210934 0.120515 -0.970043
vn -0.937843 -0.007383 -0.346982
vn -0.937843 -0.007383 -0.346982
vn -0.937843 -0.007383 -0.346982
vn -0.937843 -0.007383 -0.346982
vn 0.938059 0.006133 0.346422
vn 0.938134 0.005868 0.346224
vn 0.938208 0.005603 0.346026
vn 0.938134 0.005868 0.346224
vn -0.167282 0.976697 0.134461
vn -0.097871 0.990811 0.093353
vn -0.032365 0.997998 0.054344
vn -0.097871 0.990811 0.093353
vn 0.975087 0.090180 0.202665
vn 0.986115 0.023872 0.164338
vn 0.975087 0.090180 0.202665
vn 0.043620 -0.992364 -0.115372
vn 0.143916 -0.989574 0.005543
vn 0.092352 -0.994085 -0.057142
vn -0.048758 0.988579 0.142599
vn 0.092352 -0.994085 -0.057142
vn -0.978711 -0.171853 -0.112214
vn -0.985196 -0.095456 -0.142398
vn -0.985205 -0.023334 -0.169785
vn -0.985196 -0.095456 -0.142398
vn 0.164991 0.089811 -0.982197
vn 0.165032 0.089887 -0.982184
vn 0.165073 0.089962 -0.982170
vn 0.165032 0.089887 -0.982184
vn -0.165199 -0.088788 0.982256
vn -0.164556 -0.089560 0.982293
vn -0.163912 -0.090333 0.982330
vn -0.164556 -0.089560 0.982293
vn 0.186007 -0.964513 -0.187390
vn 0.120906 -0.979842 -0.159032
vn 0.067739 -0.988464 -0.135461
vn 0.120906 -0.979842 -0.159032
vn 0.082167 -0.984822 -0.152888
vn 0.082167 -0.984822 -0.152888
vn -0.268912 -0.148021 0.951723
vn 0.019117 -0.992503 -0.120717
vn 0.242093 0.199261 -0.949572
vn -0.026721 0.975700 0.217476
vn 0.763851 0.476229 -0.435590
vn 0.763958 0.476073 -0.435571
vn 0.764045 0.475948 -0.435556
vn -0.227853 -0.227766 0.946681
vn -0.023142 0.980433 0.195489
vn -0.023142 0.980433 0.195489
vn 0.004347 0.476343 -0.879249
vn -0.758864 0.477366 -0.442998
vn -0.759090 0.476432 -0.443615
vn 0.004347 0.476343 -0.879249
vn -0.758965 0.476950 -0.443273
vn -0.061853 0.994714 0.081959
vn -0.061849 0.994611 0.083214
vn -0.758965 0.476950 -0.443273
vn -0.061851 0.994663 0.082586
vn -0.086040 0.996288 0.002530
vn -0.085528 0.996329 0.003681
vn -0.061851 0.994663 0.082586
vn -0.085784 0.996309 0.003106
vn 0.010041 0.996330 -0.085000
vn 0.011259 0.996290 -0.085321
vn -0.085784 0.996309 0.003106
vn 0.010650 0.996310 -0.085160
vn 0.939026 0.005229 0.343806
vn 0.939026 0.005229 0.343806
vn 0.042988 -0.995565 -0.083675
vn 0.042988 -0.995565 -0.083675
vn 0.939026 0.005229 0.343806
vn 0.971059 0.007820 -0.238713
vn 0.970996 0.006913 -0.238995
vn 0.159098 0.739297 0.654315
vn 0.271496 0.610996 -0.743622
vn 0.272046 0.609214 -0.744882
vn 0.272418 0.608004 -0.745734
vn 0.272046 0.609214 -0.744882
vn -0.308097 0.451254 0.837524
vn -0.308141 0.451028 0.837629
vn -0.308208 0.450692 0.837786
vn -0.308141 0.451028 0.837629
vn -0.939516 -0.007633 -0.342419
vn -0.939516 -0.007633 -0.342419
vn -0.939516 -0.007633 -0.342419
vn -0.048795 0.985063 0.165138
vn -0.075836 0.992119 0.099740
vn -0.175516 -0.322138 0.930280
vn -0.048795 0.985063 0.165138
vn -0.227853 -0.227766 0.946681
vn 0.008544 0.965643 0.259730
vn 0.971059 0.007820 -0.238713
vn -0.938081 -0.006058 -0.346364
vn 0.241898 0.200900 -0.949276
vn 0.241898 0.200900 -0.949276
vn 0.273272 0.283663 -0.919161
vn 0.938200 0.006818 0.346025
vn -0.004348 0.476347 0.879247
vn -0.004348 0.476347 0.879247
vn -0.004179 0.476720 0.879045
vn 0.075418 -0.963184 0.258048
vn 0.075638 -0.962887 0.259091
vn 0.075638 -0.962887 0.259091
vn 0.075964 -0.962445 0.260633
vn -0.035092 0.981426 -0.188605
vn -0.360505 -0.237659 -0.901973
vn -0.035092 0.981426 -0.188605
vn 0.970395 0.005093 -0.241469
vn 0.970395 0.005093 -0.241469
vn -0.229295 0.285922 -0.930415
vn 0.970395 0.005093 -0.241469
vn -0.229303 0.285681 -0.930487
vn -0.229298 0.285825 -0.930444
vn 0.158872 0.740279 0.653258
vn -0.229298 0.285825 -0.930444
vn 0.158872 0.740279 0.653258
vn -0.970475 -0.004156 0.241166
vn -0.970475 -0.004156 0.241166
vn 0.158535 0.741733 0.651689
vn -0.970475 -0.004156 0.241166
vn -0.094188 0.969299 -0.227130
vn 0.012851 0.987558 -0.156729
vn 0.409138 0.151119 -0.899872
vn -0.295345 -0.079174 -0.952104
vn -0.330409 -0.161899 -0.929849
vn -0.330409 -0.161899 -0.929849
vn 0.097908 -0.986727 0.129550
vn 0.070084 -0.981175 0.179954
vn 0.070084 -0.981175 0.179954
vn -0.430648 -0.201219 0.879803
vn 0.132994 -0.974933 -0.178376
vn 0.082753 -0.984735 -0.153131
vn -0.971197 -0.008136 0.238141
vn -0.971181 -0.007908 0.238213
vn -0.971197 -0.008136 0.238141
vn -0.386228 -0.283479 0.877763
vn 0.093662 0.236965 0.966993
vn 0.177849 0.077796 0.980978
vn 0.134783 0.160916 0.977722
vn -0.971212 -0.008363 0.238068
vn 0.134783 0.160916 0.977722
vn 0.035455 -0.969810 0.241271
vn -0.430648 -0.201219 0.879803
vn -0.468624 -0.123040 0.874787
vn -0.909605 0.000718 0.415473
vn 0.909456 -0.000183 -0.415801
vn 0.909642 0.000497 -0.415394
vn 0.909549 0.000157 -0.415597
vn -0.017485 0.999541 -0.024738
vn 0.909549 0.000157 -0.415597
vn -0.018004 -0.999513 -0.025473
vn -0.350096 0.535650 -0.768447
vn 0.944081 -0.290734 0.155517
vn 0.355937 0.530567 0.769290
vn 0.355512 0.532397 0.768222
vn 0.355512 0.532397 0.768222
vn 0.355224 0.533628 0.767500
vn -0.908849 -0.001942 0.417121
vn -0.908849 -0.001942 0.417121
vn -0.016727 0.999173 0.037066
vn -0.908849 -0.001942 0.417121
vn 0.102740 0.990853 0.087496
vn -0.016894 -0.996666 -0.079824
vn 0.287103 -0.030010 0.957430
vn -0.016894 -0.996666 -0.079824
vn 0.049374 0.996659 0.065061
vn -0.536519 0.031734 -0.843292
vn 0.049374 0.996659 0.065061
vn -0.462550 0.192780 -0.865381
vn -0.502857 0.109830 -0.857364
vn -0.038965 -0.999173 -0.011601
vn -0.502857 0.109830 -0.857364
vn 0.001060 -0.990869 -0.134823
vn 0.352296 -0.191222 0.916145
vn -0.015374 0.999541 -0.026114
vn 0.940679 -0.000436 -0.339297
vn 0.940679 -0.000436 -0.339297
vn 0.319827 -0.108204 0.941277
vn -0.909701 0.000372 0.415263
vn 0.319827 -0.108204 0.941277
vn -0.909508 0.001065 0.415684
vn -0.909605 0.000718 0.415473
vn -0.055572 0.990504 0.125754
vn -0.893010 -0.000133 0.450037
vn -0.892773 -0.000809 0.450506
vn -0.892773 -0.000809 0.450506
vn 0.443034 0.203177 0.873178
vn 0.481669 0.124344 0.867487
vn 0.481669 0.124344 0.867487
vn 0.012075 -0.990866 -0.134312
vn -0.010062 -0.996615 -0.081598
vn 0.206744 -0.030435 0.977922
vn -0.577190 0.000000 -0.816610
vn -0.577190 0.000000 -0.816610
vn 0.577180 0.000949 0.816616
vn -0.035991 0.998194 0.048101
vn 0.815158 0.000000 -0.579239
vn -0.035991 0.998194 0.048101
vn -0.350523 0.533801 -0.769539
vn -0.350811 0.532548 -0.770275
vn 0.908984 -0.001557 -0.416827
vn -0.350523 0.533801 -0.769539
vn 0.908984 -0.001557 -0.416827
vn 0.004334 -0.999989 -0.001988
vn 0.095039 0.990866 0.095662
vn 0.908984 -0.001557 -0.416827
vn 0.105464 -0.992914 0.054757
vn 0.518701 0.039364 0.854049
vn -0.892535 -0.001484 0.450975
vn -0.940917 -0.000190 0.338639
vn -0.940917 -0.000190 0.338639
vn -0.940917 -0.000190 0.338639
vn 0.275742 -0.193264 0.941602
vn 0.240960 -0.109309 0.964360
vn -0.940917 -0.000190 0.338639
vn 0.892913 0.000689 -0.450229
vn 0.892913 0.000689 -0.450229
vn 0.892913 0.000689 -0.450229
vn 0.892913 0.000689 -0.450229
vn 0.044384 0.996614 0.069221
vn -0.018431 0.999174 0.036222
vn 0.044384 0.996614 0.069221
vn -0.465638 0.030374 -0.884454
vn 0.004334 -0.999989 -0.001988
vn 0.004334 -0.999989 -0.001989
vn 0.004334 -0.999989 -0.001988
vn -0.037345 -0.999172 -0.016147
vn -0.010062 -0.996615 -0.081598
vn 0.240960 -0.109309 0.964360
vn 0.940543 -0.001542 -0.339673
vn -0.768595 -0.142325 0.623703
vn -0.796700 -0.069139 0.600407
vn -0.577190 0.000000 -0.816610
vn 0.352131 -0.192852 0.915867
vn 0.319685 -0.109852 0.941134
vn 0.286973 -0.031639 0.957416
vn 0.049374 0.996659 0.065061
vn -0.502857 0.109830 -0.857364
vn -0.536519 0.031734 -0.843292
vn 0.049374 0.996659 0.065061
vn -0.038969 -0.999173 -0.011613
vn -0.502857 0.109830 -0.857364
vn 0.000996 -0.990856 -0.134922
vn -0.016929 -0.996660 -0.079892
vn 0.832037 0.069225 -0.550384
vn 0.940715 -0.000771 -0.339196
vn 0.844632 0.142694 -0.515980
vn 0.940715 -0.000771 -0.339196
vn 0.940887 -0.000000 -0.338719
vn 0.832037 0.069225 -0.550384
vn 0.057505 -0.998173 -0.018557
vn 0.057505 -0.998173 -0.018557
vn 0.137956 -0.990377 -0.011037
vn -0.387531 -0.039292 -0.921019
vn 0.109360 -0.992890 0.047016
vn 0.513375 0.204248 0.833504
vn -0.818238 0.000000 0.574879
vn 0.587571 0.039703 0.808198
vn 0.551654 0.124961 0.824659
vn -0.852252 -0.000927 0.523130
vn 0.551654 0.124961 0.824659
vn -0.852575 -0.000135 0.522605
vn -0.852414 -0.000531 0.522868
vn 0.852814 0.001533 -0.522213
vn -0.852414 -0.000531 0.522868
vn 0.852282 -0.001036 -0.523082
vn 0.852549 0.000249 -0.522648
vn -0.016727 0.999173 0.037066
vn 0.852549 0.000249 -0.522648
vn 0.102740 0.990853 0.087496
vn -0.940738 0.000595 0.339133
vn 0.940789 0.000057 -0.338992
vn -0.940738 0.000595 0.339133
vn -0.462550 0.192780 -0.865381
vn -0.040032 0.998156 0.045631
vn -0.040032 0.998156 0.045631
vn -0.066175 0.990303 0.122147
vn -0.016929 -0.996660 -0.079892
vn -0.310239 0.137789 -0.940620
vn -0.310239 0.137789 -0.940620
vn -0.261458 0.234385 -0.936324
vn 0.319685 -0.109852 0.941134
vn -0.909517 0.000357 0.415667
vn -0.909517 0.000357 0.415667
vn -0.909517 0.000357 0.415667
vn -0.909517 0.000357 0.415667
vn 0.909494 0.000567 -0.415717
vn 0.909494 0.000567 -0.415717
vn 0.909494 0.000567 -0.415717
vn 0.909494 0.000567 -0.415717
vn 0.093121 -0.988750 0.117058
vn 0.077513 -0.980248 0.181952
vn 0.093121 -0.988750 0.117058
vn -0.463089 -0.040288 -0.885396
vn -0.493433 -0.124513 -0.860825
vn -0.518119 -0.202842 -0.830908
vn -0.493433 -0.124513 -0.860825
vn 0.539813 -0.236940 0.807751
vn -0.796700 -0.069139 0.600407
vn -0.577190 0.000000 -0.816610
vn 0.577180 0.000950 0.816617
vn 0.577180 0.000950 0.816617
vn 0.577179 0.000951 0.816617
vn -0.014929 -0.998260 -0.057045
vn 0.006105 -0.993661 -0.112255
vn 0.006105 -0.993661 -0.112255
vn 0.032021 -0.983179 -0.179815
vn 0.511118 -0.139733 0.848076
vn 0.482893 -0.058353 0.873733
vn 0.032704 0.998271 0.048839
vn 0.511118 -0.139733 0.848076
vn 0.006936 0.992956 -0.118280
vn 0.088234 0.993720 0.068818
vn 0.088234 0.993720 0.068818
vn 0.156217 0.983325 0.093099
vn -0.347718 0.056941 -0.935869
vn -0.908742 -0.001064 0.417356
vn 0.337542 -0.290839 0.895253
vn 0.000000 -1.000000 0.000000
vn 0.000000 -1.000000 0.000000
vn -0.310507 0.475053 -0.823353
vn -0.285758 0.533007 -0.796396
vn -0.310640 0.475633 -0.822968
vn 0.015336 -0.993670 -0.111290
vn 0.439674 -0.139507 0.887257
vn 0.409745 -0.058751 0.910306
vn 0.062142 -0.980251 0.187739
vn -0.430724 0.109057 -0.895870
vn -0.430724 0.109057 -0.895870
vn -0.908802 -0.000705 0.417226
vn -0.908802 -0.000705 0.417226
vn -0.908862 -0.000346 0.417096
vn 0.908735 0.000433 -0.417374
vn 0.908606 -0.000010 -0.417655
vn 0.908606 -0.000010 -0.417655
vn 0.908476 -0.000453 -0.417936
vn -0.063377 0.988770 -0.135340
vn -0.128807 0.980160 -0.150646
vn 0.083283 -0.988809 0.123778
vn -0.063377 0.988770 -0.135340
vn 0.083283 -0.988809 0.123778
vn -0.419979 -0.124044 -0.899017
vn -0.447155 -0.202768 -0.871170
vn -0.419979 -0.124044 -0.899017
vn -0.389555 0.192750 -0.900608
vn -0.867688 0.476280 -0.142390
vn 0.557710 0.475347 -0.680444
vn 0.557761 0.475273 -0.680454
vn 0.557761 0.475273 -0.680454
vn -0.557824 0.475182 0.680466
vn -0.557342 0.475880 0.680374
vn -0.556955 0.476440 0.680298
vn -0.557342 0.475880 0.680374
vn 0.310806 0.476353 0.822489
vn 0.310640 0.475633 0.822968
vn 0.310507 0.475053 0.823353
vn 0.310640 0.475633 0.822968
vn 0.867536 0.476569 0.142349
vn 0.867604 0.476423 0.142427
vn 0.867658 0.476305 0.142489
vn 0.867604 0.476423 0.142427
vn -0.606605 -0.290218 0.740137
vn 0.337435 -0.290955 0.895256
vn -0.606605 -0.290218 0.740137
vn 0.557824 0.475182 -0.680466
vn 0.017861 0.992979 -0.116937
vn -0.061854 0.994729 0.081778
vn -0.061849 0.994611 0.083214
vn -0.310806 0.476353 -0.822489
vn -0.944261 -0.290276 -0.155275
vn -0.606588 -0.290182 0.740166
vn -0.606618 -0.290245 0.740116
vn -0.061851 0.994670 0.082495
vn -0.086041 0.996288 0.002532
vn -0.061851 0.994670 0.082495
vn -0.085529 0.996329 0.003684
vn -0.085785 0.996309 0.003108
vn 0.010041 0.996330 -0.085000
vn -0.085785 0.996309 0.003108
vn 0.011259 0.996290 -0.085321
vn 0.010650 0.996310 -0.085160
vn -0.005848 0.999974 0.004161
vn 0.010650 0.996310 -0.085160
vn -0.006109 0.999970 0.004771
vn -0.005979 0.999972 0.004466
vn 0.004453 -0.999989 -0.001607
vn -0.005979 0.999972 0.004466
vn -0.867672 0.476316 -0.142371
vn -0.867681 0.476296 -0.142381
vn 0.074594 0.977481 0.197398
vn -0.867681 0.476296 -0.142381
vn 0.939793 0.001081 -0.341743
vn 0.939793 0.001081 -0.341743
vn -0.133812 0.977471 0.163231
vn 0.939793 0.001081 -0.341743
vn 0.944377 -0.290059 0.154975
vn 0.944250 -0.290350 0.155208
vn 0.606588 -0.290182 -0.740166
vn 0.944250 -0.290350 0.155208
vn 0.606323 -0.289627 -0.740600
vn 0.606437 -0.289866 -0.740413
vn -0.337527 -0.290103 -0.895498
vn 0.606437 -0.289866 -0.740413
vn -0.337713 -0.289899 -0.895493
vn -0.337633 -0.289987 -0.895495
vn -0.944125 -0.290586 -0.155524
vn -0.337633 -0.289987 -0.895495
vn -0.944365 -0.290041 -0.155086
vn -0.944261 -0.290276 -0.155275
vn 0.337622 -0.290752 0.895251
vn 0.337542 -0.290839 0.895253
vn 0.044390 0.996609 0.069277
vn -0.940559 0.001380 0.339628
vn 0.044390 0.996609 0.069277
vn -0.940273 0.000083 0.340422
vn -0.940132 -0.000949 0.340808
vn -0.231660 0.139204 -0.962786
vn 0.000000 -1.000000 0.000000
vn 0.000000 -1.000000 0.000000
vn 0.000000 -1.000000 0.000000
vn 0.000000 -1.000000 0.000000
vn 0.140698 0.989784 0.023076
vn 0.133914 0.977436 -0.163357
vn 0.142254 0.982953 0.116476
vn 0.172107 0.982935 -0.064946
vn -0.140713 0.989781 -0.023078
vn -0.172054 0.982945 0.064926
vn -0.074663 0.977439 -0.197581
vn -0.142332 0.982934 -0.116541
vn 0.004451 -0.999989 -0.001612
vn 0.004451 -0.999989 -0.001612
vn 0.004449 -0.999989 -0.001618
vn -0.310640 0.475633 -0.822968
vn 0.149099 0.983172 0.105553
vn -0.182316 0.237793 -0.954052
vn -0.231660 0.139204 -0.962786
vn 0.471346 -0.236176 0.849737
vn -0.285463 0.534644 -0.795404
vn -0.285639 0.533669 -0.795995
vn 0.138861 -0.990311 0.001246
vn -0.507324 0.000000 -0.861756
vn -0.507324 0.000000 -0.861756
vn -0.817364 -0.141362 0.558510
vn -0.507324 0.000000 -0.861756
vn 0.507434 0.000979 0.861690
vn 0.508374 -0.000411 0.861136
vn -0.507324 0.000000 -0.861756
vn 0.507905 0.000284 0.861413
vn -0.010167 -0.998260 -0.058084
vn 0.046685 -0.983227 -0.176311
vn 0.507905 0.000284 0.861413
vn 0.015336 -0.993670 -0.111290
vn 0.439674 -0.139507 0.887257
vn -0.285639 0.533669 -0.795995
vn -0.270191 0.056687 -0.961136
vn 0.241084 -0.109099 0.964353
vn 0.241084 -0.109099 0.964353
vn 0.275785 -0.192773 0.941691
vn 0.012070 -0.990864 -0.134321
vn -0.010058 -0.996615 -0.081589
vn 0.095155 0.990843 0.095795
vn -0.940203 -0.000433 0.340615
vn 0.940290 -0.000361 -0.340373
vn 0.940144 -0.000977 -0.340776
vn -0.940203 -0.000433 0.340615
vn 0.940217 -0.000669 -0.340574
vn -0.051912 0.988772 -0.140124
vn -0.051912 0.988772 -0.140124
vn 0.940217 -0.000669 -0.340574
vn -0.116889 0.979989 -0.161114
vn -0.843282 -0.068543 0.533083
vn -0.862477 0.000000 0.506097
vn -0.843282 -0.068543 0.533083
vn 0.083129 0.993666 0.075608
vn 0.029379 0.998263 0.051062
vn 0.059277 -0.998158 -0.012935
vn 0.083129 0.993666 0.075608
vn 0.059277 -0.998158 -0.012935
vn 0.206928 -0.030435 0.977883
vn 0.884308 0.142280 -0.444697
vn -0.015363 -0.999541 -0.026096
vn 0.291043 0.531041 0.795795
vn 0.290562 0.533668 0.794212
vn 0.290562 0.533668 0.794212
vn 0.290235 0.535441 0.793137
vn -0.940584 0.000729 0.339561
vn -0.940584 0.000729 0.339561
vn -0.018463 0.999173 0.036233
vn -0.940584 0.000729 0.339561
vn -0.465679 0.031166 -0.884405
vn 0.860157 0.000000 -0.510029
vn 0.874575 0.068986 -0.479958
vn 0.874575 0.068986 -0.479958
vn -0.430355 0.110601 -0.895858
vn -0.430355 0.110601 -0.895858
vn -0.388685 0.195057 -0.900487
vn -0.037334 -0.999173 -0.016109
vn -0.010058 -0.996615 -0.081589
vn -0.940917 -0.000190 0.338639
vn 0.940569 -0.000928 -0.339602
f 52/52/52 54/54/54 51/51/51
f 56/56/56 55/55/55 57/57/57
f 195/195/195 192/192/192 190/190/190
f 196/196/196 194/194/194 193/193/193
f 187/187/187 206/206/206 186/186/186
f 210/210/210 102/102/102 188/188/188
f 259/259/259 257/257/257 256/256/256
f 272/272/272 271/271/271 273/273/273
f 260/260/260 262/262/262 292/292/292
f 299/299/299 293/293/293 261/261/261
f 310/310/310 308/308/308 307/307/307
f 312/312/312 311/311/311 313/313/313
f 399/399/399 396/396/396 395/395/395
f 412/412/412 411/411/411 413/413/413
f 437/437/437 439/439/439 436/436/436
f 448/448/448 446/446/446 445/445/445
f 18/18/18 16/16/16 6/6/6
f 17/17/17 16/16/16 18/18/18
f 4/4/4 14/14/14 12/12/12
f 14/14/14 15/15/15 12/12/12
f 15/15/15 13/13/13 12/12/12
f 10/10/10 7/7/7 8/8/8
f 9/9/9 10/10/10 8/8/8
f 11/11/11 9/9/9 8/8/8
f 22/22/22 19/19/19 20/20/20
f 19/19/19 5/5/5 20/20/20
f 5/5/5 23/23/23 20/20/20
f 23/23/23 21/21/21 20/20/20
f 26/26/26 41/41/41 43/43/43
f 43/43/43 41/41/41 40/40/40
f 25/25/25 27/27/27 24/24/24
f 30/30/30 27/27/27 25/25/25
f 29/29/29 31/31/31 28/28/28
f 34/34/34 31/31/31 29/29/29
f 33/33/33 35/35/35 32/32/32
f 38/38/38 35/35/35 33/33/33
f 37/37/37 39/39/39 36/36/36
f 42/42/42 39/39/39 37/37/37
f 50/50/50 48/48/48 47/47/47
f 49/49/49 48/48/48 50/50/50
f 53/53/53 427/427/427 426/426/426
f 426/426/426 427/427/427 428/428/428
f 58/58/58 296/296/296 294/294/294
f 294/294/294 296/296/296 318/318/318
f 45/45/45 75/75/75 61/61/61
f 84/84/84 75/75/75 45/45/45
f 120/120/120 123/123/123 59/59/59
f 121/121/121 123/123/123 120/120/120
f 60/60/60 65/65/65 63/63/63
f 63/63/63 65/65/65 62/62/62
f 64/64/64 69/69/69 67/67/67
f 67/67/67 69/69/69 66/66/66
f 68/68/68 73/73/73 71/71/71
f 71/71/71 73/73/73 70/70/70
f 72/72/72 46/46/46 44/44/44
f 44/44/44 46/46/46 74/74/74
f 82/82/82 91/91/91 89/89/89
f 89/89/89 91/91/91 85/85/85
f 83/83/83 174/174/174 176/176/176
f 176/176/176 174/174/174 173/173/173
f 90/90/90 95/95/95 93/93/93
f 93/93/93 95/95/95 92/92/92
f 94/94/94 99/99/99 97/97/97
f 97/97/97 99/99/99 96/96/96
f 98/98/98 79/79/79 101/101/101
f 101/101/101 79/79/79 100/100/100
f 80/80/80 119/119/119 117/117/117
f 117/117/117 119/119/119 81/81/81
f 118/118/118 172/172/172 175/175/175
f 175/175/175 172/172/172 170/170/170
f 124/124/124 130/130/130 122/122/122
f 128/128/128 130/130/130 124/124/124
f 168/168/168 171/171/171 129/129/129
f 169/169/169 171/171/171 168/168/168
f 131/131/131 132/132/132 133/133/133
f 133/133/133 132/132/132 134/134/134
f 135/135/135 136/136/136 137/137/137
f 137/137/137 136/136/136 138/138/138
f 139/139/139 140/140/140 141/141/141
f 141/141/141 140/140/140 142/142/142
f 143/143/143 144/144/144 145/145/145
f 145/145/145 144/144/144 146/146/146
f 147/147/147 148/148/148 149/149/149
f 149/149/149 148/148/148 150/150/150
f 151/151/151 152/152/152 153/153/153
f 153/153/153 152/152/152 154/154/154
f 155/155/155 156/156/156 112/112/112
f 112/112/112 156/156/156 111/111/111
f 113/113/113 160/160/160 158/158/158
f 158/158/158 160/160/160 157/157/157
f 159/159/159 108/108/108 109/109/109
f 109/109/109 108/108/108 110/110/110
f 164/164/164 165/165/165 166/166/166
f 166/166/166 165/165/165 167/167/167
f 179/179/179 317/317/317 315/315/315
f 315/315/315 317/317/317 314/314/314
f 177/177/177 201/201/201 202/202/202
f 202/202/202 201/201/201 203/203/203
f 178/178/178 107/107/107 105/105/105
f 105/105/105 107/107/107 180/180/180
f 106/106/106 183/183/183 181/181/181
f 181/181/181 183/183/183 184/184/184
f 182/182/182 191/191/191 189/189/189
f 189/189/189 191/191/191 185/185/185
f 199/199/199 198/198/198 200/200/200
f 200/200/200 198/198/198 197/197/197
f 204/204/204 248/248/248 251/251/251
f 251/251/251 248/248/248 246/246/246
f 161/161/161 162/162/162 163/163/163
f 163/163/163 162/162/162 205/205/205
f 103/103/103 222/222/222 220/220/220
f 220/220/220 222/222/222 104/104/104
f 221/221/221 232/232/232 230/230/230
f 230/230/230 232/232/232 223/223/223
f 231/231/231 236/236/236 234/234/234
f 234/234/234 236/236/236 233/233/233
f 237/237/237 240/240/240 235/235/235
f 238/238/238 240/240/240 237/237/237
f 241/241/241 247/247/247 239/239/239
f 245/245/245 247/247/247 241/241/241
f 249/249/249 252/252/252 258/258/258
f 258/258/258 252/252/252 250/250/250
f 263/263/263 264/264/264 265/265/265
f 265/265/265 264/264/264 266/266/266
f 267/267/267 268/268/268 269/269/269
f 269/269/269 268/268/268 270/270/270
f 274/274/274 275/275/275 276/276/276
f 276/276/276 275/275/275 277/277/277
f 278/278/278 279/279/279 280/280/280
f 280/280/280 279/279/279 281/281/281
f 282/282/282 289/289/289 290/290/290
f 290/290/290 289/289/289 291/291/291
f 297/297/297 300/300/300 309/309/309
f 309/309/309 300/300/300 298/298/298
f 400/400/400 420/420/420 316/316/316
f 401/401/401 420/420/420 400/400/400
f 344/344/344 342/342/342 295/295/295
f 343/343/343 342/342/342 344/344/344
f 366/366/366 367/367/367 319/319/319
f 369/369/369 367/367/367 366/366/366
f 213/213/213 212/212/212 320/320/320
f 320/320/320 212/212/212 211/211/211
f 332/332/332 331/331/331 333/333/333
f 333/333/333 331/331/331 330/330/330
f 336/336/336 335/335/335 337/337/337
f 337/337/337 335/335/335 334/334/334
f 340/340/340 339/339/339 341/341/341
f 341/341/341 339/339/339 338/338/338
f 345/345/345 347/347/347 349/349/349
f 349/349/349 347/347/347 346/346/346
f 348/348/348 376/376/376 377/377/377
f 377/377/377 376/376/376 419/419/419
f 352/352/352 351/351/351 353/353/353
f 353/353/353 351/351/351 350/350/350
f 356/356/356 355/355/355 357/357/357
f 357/357/357 355/355/355 354/354/354
f 360/360/360 359/359/359 361/361/361
f 361/361/361 359/359/359 358/358/358
f 364/364/364 363/363/363 365/365/365
f 365/365/365 363/363/363 362/362/362
f 368/368/368 418/418/418 375/375/375
f 375/375/375 418/418/418 416/416/416
f 370/370/370 328/328/328 327/327/327
f 329/329/329 328/328/328 370/370/370
f 414/414/414 417/417/417 371/371/371
f 415/415/415 417/417/417 414/414/414
f 374/374/374 373/373/373 326/326/326
f 326/326/326 373/373/373 372/372/372
f 324/324/324 378/378/378 381/381/381
f 381/381/381 378/378/378 325/325/325
f 379/379/379 382/382/382 385/385/385
f 385/385/385 382/382/382 380/380/380
f 383/383/383 386/386/386 389/389/389
f 389/389/389 386/386/386 384/384/384
f 387/387/387 390/390/390 393/393/393
f 393/393/393 390/390/390 388/388/388
f 391/391/391 394/394/394 323/323/323
f 323/323/323 394/394/394 392/392/392
f 321/321/321 398/398/398 397/397/397
f 397/397/397 398/398/398 322/322/322
f 405/405/405 404/404/404 406/406/406
f 406/406/406 404/404/404 403/403/403
f 409/409/409 408/408/408 410/410/410
f 410/410/410 408/408/408 407/407/407
f 442/442/442 444/444/444 402/402/402
f 447/447/447 444/444/444 442/442/442
f 209/209/209 208/208/208 421/421/421
f 421/421/421 208/208/208 207/207/207
f 3/3/3 2/2/2 425/425/425
f 425/425/425 2/2/2 1/1/1
f 429/429/429 430/430/430 431/431/431
f 431/431/431 430/430/430 432/432/432
f 438/438/438 443/443/443 441/441/441
f 441/441/441 443/443/443 440/440/440
f 451/451/451 88/88/88 87/87/87
f 87/87/87 88/88/88 76/76/76
f 449/449/449 435/435/435 433/433/433
f 433/433/433 435/435/435 450/450/450
f 434/434/434 454/454/454 453/453/453
f 453/453/453 454/454/454 452/452/452
f 470/470/470 457/457/457 456/456/456
f 456/456/456 457/457/457 455/455/455
f 465/465/465 467/467/467 469/469/469
f 469/469/469 467/467/467 466/466/466
f 468/468/468 461/461/461 463/463/463
f 463/463/463 461/461/461 462/462/462
f 471/471/471 458/458/458 464/464/464
f 472/472/472 458/458/458 471/471/471
f 460/460/460 78/78/78 459/459/459
f 77/77/77 78/78/78 460/460/460
f 86/86/86 115/115/115 114/114/114
f 114/114/114 115/115/115 116/116/116
f 127/127/127 125/125/125 216/216/216
f 216/216/216 125/125/125 126/126/126
f 215/215/215 219/219/219 218/218/218
f 218/218/218 219/219/219 214/214/214
f 217/217/217 225/225/225 224/224/224
f 224/224/224 225/225/225 226/226/226
f 229/229/229 227/227/227 244/244/244
f 244/244/244 227/227/227 228/228/228
f 243/243/243 255/255/255 254/254/254
f 254/254/254 255/255/255 242/242/242
f 253/253/253 284/284/284 283/283/283
f 283/283/283 284/284/284 285/285/285
f 288/288/288 286/286/286 303/303/303
f 303/303/303 286/286/286 287/287/287
f 302/302/302 306/306/306 305/305/305
f 305/305/305 306/306/306 301/301/301
f 304/304/304 423/423/423 422/422/422
f 422/422/422 423/423/423 424/424/424
f 487/487/487 489/489/489 486/486/486
f 534/534/534 531/531/531 529/529/529
f 721/721/721 723/723/723 720/720/720
f 815/815/815 817/817/817 814/814/814
f 481/481/481 727/727/727 725/725/725
f 725/725/725 727/727/727 724/724/724
f 479/479/479 579/579/579 580/580/580
f 580/580/580 579/579/579 581/581/581
f 527/527/527 530/530/530 480/480/480
f 528/528/528 530/530/530 527/527/527
f 482/482/482 483/483/483 484/484/484
f 484/484/484 483/483/483 485/485/485
f 488/488/488 496/496/496 494/494/494
f 494/494/494 496/496/496 490/490/490
f 495/495/495 500/500/500 498/498/498
f 498/498/498 500/500/500 497/497/497
f 499/499/499 493/493/493 491/491/491
f 491/491/491 493/493/493 501/501/501
f 492/492/492 508/508/508 506/506/506
f 506/506/506 508/508/508 502/502/502
f 507/507/507 473/473/473 510/510/510
f 510/510/510 473/473/473 509/509/509
f 474/474/474 478/478/478 476/476/476
f 476/476/476 478/478/478 475/475/475
f 477/477/477 526/526/526 524/524/524
f 524/524/524 526/526/526 511/511/511
f 525/525/525 573/573/573 578/578/578
f 578/578/578 573/573/573 575/575/575
f 554/554/554 552/552/552 532/532/532
f 553/553/553 552/552/552 554/554/554
f 550/550/550 548/548/548 533/533/533
f 549/549/549 548/548/548 550/550/550
f 667/667/667 669/669/669 535/535/535
f 655/655/655 669/669/669 667/667/667
f 515/515/515 516/516/516 517/517/517
f 517/517/517 516/516/516 536/536/536
f 512/512/512 513/513/513 514/514/514
f 514/514/514 513/513/513 537/537/537
f 546/546/546 545/545/545 547/547/547
f 547/547/547 545/545/545 544/544/544
f 551/551/551 656/656/656 657/657/657
f 657/657/657 656/656/656 673/673/673
f 555/555/555 556/556/556 519/519/519
f 519/519/519 556/556/556 518/518/518
f 520/520/520 557/557/557 542/542/542
f 542/542/542 557/557/557 541/541/541
f 543/543/543 538/538/538 539/539/539
f 539/539/539 538/538/538 540/540/540
f 558/558/558 576/576/576 574/574/574
f 574/574/574 576/576/576 577/577/577
f 672/672/672 670/670/670 582/582/582
f 671/671/671 670/670/670 672/672/672
f 585/585/585 627/627/627 560/560/560
f 560/560/560 627/627/627 559/559/559
f 621/621/621 619/619/619 583/583/583
f 620/620/620 619/619/619 621/621/621
f 584/584/584 589/589/589 587/587/587
f 587/587/587 589/589/589 586/586/586
f 588/588/588 593/593/593 591/591/591
f 591/591/591 593/593/593 590/590/590
f 592/592/592 597/597/597 595/595/595
f 595/595/595 597/597/597 594/594/594
f 596/596/596 568/568/568 565/565/565
f 565/565/565 568/568/568 598/598/598
f 567/567/567 566/566/566 570/570/570
f 570/570/570 566/566/566 602/602/602
f 569/569/569 572/572/572 606/606/606
f 606/606/606 572/572/572 571/571/571
f 564/564/564 563/563/563 610/610/610
f 610/610/610 563/563/563 562/562/562
f 613/613/613 612/612/612 614/614/614
f 614/614/614 612/612/612 611/611/611
f 617/617/617 616/616/616 618/618/618
f 618/618/618 616/616/616 615/615/615
f 625/625/625 623/623/623 622/622/622
f 624/624/624 623/623/623 625/625/625
f 636/636/636 639/639/639 626/626/626
f 637/637/637 639/639/639 636/636/636
f 561/561/561 628/628/628 522/522/522
f 522/522/522 628/628/628 521/521/521
f 523/523/523 629/629/629 630/630/630
f 630/630/630 629/629/629 631/631/631
f 632/632/632 633/633/633 634/634/634
f 634/634/634 633/633/633 635/635/635
f 638/638/638 641/641/641 642/642/642
f 642/642/642 641/641/641 643/643/643
f 665/665/665 668/668/668 640/640/640
f 666/666/666 668/668/668 665/665/665
f 644/644/644 607/607/607 608/608/608
f 608/608/608 607/607/607 609/609/609
f 645/645/645 658/658/658 659/659/659
f 659/659/659 658/658/658 660/660/660
f 661/661/661 662/662/662 663/663/663
f 663/663/663 662/662/662 664/664/664
f 674/674/674 719/719/719 717/717/717
f 717/717/717 719/719/719 716/716/716
f 680/680/680 679/679/679 681/681/681
f 681/681/681 679/679/679 678/678/678
f 684/684/684 683/683/683 685/685/685
f 685/685/685 683/683/683 682/682/682
f 688/688/688 687/687/687 689/689/689
f 689/689/689 687/687/687 686/686/686
f 675/675/675 676/676/676 677/677/677
f 677/677/677 676/676/676 693/693/693
f 795/795/795 796/796/796 694/694/694
f 798/798/798 796/796/796 795/795/795
f 761/761/761 651/651/651 697/697/697
f 649/649/649 651/651/651 761/761/761
f 695/695/695 703/703/703 701/701/701
f 701/701/701 703/703/703 696/696/696
f 702/702/702 707/707/707 705/705/705
f 705/705/705 707/707/707 704/704/704
f 706/706/706 711/711/711 709/709/709
f 709/709/709 711/711/711 708/708/708
f 710/710/710 715/715/715 713/713/713
f 713/713/713 715/715/715 712/712/712
f 714/714/714 758/758/758 759/759/759
f 759/759/759 758/758/758 760/760/760
f 718/718/718 752/752/752 750/750/750
f 752/752/752 753/753/753 750/750/750
f 753/753/753 751/751/751 750/750/750
f 755/755/755 722/722/722 754/754/754
f 757/757/757 755/755/755 754/754/754
f 756/756/756 757/757/757 754/754/754
f 726/726/726 731/731/731 729/729/729
f 729/729/729 731/731/731 728/728/728
f 730/730/730 735/735/735 733/733/733
f 733/733/733 735/735/735 732/732/732
f 734/734/734 698/698/698 737/737/737
f 737/737/737 698/698/698 736/736/736
f 699/699/699 692/692/692 690/690/690
f 690/690/690 692/692/692 700/700/700
f 691/691/691 646/646/646 739/739/739
f 739/739/739 646/646/646 738/738/738
f 647/647/647 749/749/749 746/746/746
f 749/749/749 747/747/747 746/746/746
f 747/747/747 748/748/748 746/746/746
f 748/748/748 648/648/648 746/746/746
f 650/650/650 782/782/782 767/767/767
f 767/767/767 782/782/782 766/766/766
f 781/781/781 653/653/653 765/765/765
f 654/654/654 653/653/653 781/781/781
f 801/801/801 799/799/799 771/771/771
f 800/800/800 799/799/799 801/801/801
f 769/769/769 772/772/772 775/775/775
f 775/775/775 772/772/772 770/770/770
f 773/773/773 776/776/776 779/779/779
f 779/779/779 776/776/776 774/774/774
f 777/777/777 780/780/780 652/652/652
f 652/652/652 780/780/780 778/778/778
f 804/804/804 806/806/806 768/768/768
f 809/809/809 806/806/806 804/804/804
f 802/802/802 805/805/805 762/762/762
f 803/803/803 805/805/805 802/802/802
f 783/783/783 764/764/764 745/745/745
f 745/745/745 764/764/764 763/763/763
f 743/743/743 790/790/790 793/793/793
f 793/793/793 790/790/790 744/744/744
f 791/791/791 794/794/794 797/797/797
f 797/797/797 794/794/794 792/792/792
f 807/807/807 785/785/785 784/784/784
f 784/784/784 785/785/785 786/786/786
f 821/821/821 820/820/820 808/808/808
f 819/819/819 820/820/820 821/821/821
f 810/810/810 811/811/811 812/812/812
f 812/812/812 811/811/811 813/813/813
f 816/816/816 742/742/742 740/740/740
f 740/740/740 742/742/742 789/789/789
f 818/818/818 822/822/822 823/823/823
f 823/823/823 822/822/822 824/824/824
f 825/825/825 826/826/826 788/788/788
f 788/788/788 826/826/826 787/787/787
f 741/741/741 601/601/601 599/599/599
f 599/599/599 601/601/601 827/827/827
f 600/600/600 505/505/505 504/504/504
f 504/504/504 505/505/505 828/828/828
f 503/503/503 604/604/604 603/603/603
f 603/603/603 604/604/604 605/605/605
