# Exported by s4extract — object_painting_lod01_g01
o object_painting_lod01_g01
v 0.456205 1.373985 0.069828
v 0.000000 1.534517 0.063358
v 0.000000 1.370079 0.069828
v 0.622902 1.535616 0.052738
v -0.622902 0.000000 0.000000
v 0.000000 1.534517 0.000000
v 0.000000 -0.001953 0.000000
v -0.622902 1.535616 0.000000
v -0.456205 0.161631 0.069828
v -0.622902 1.535616 0.052738
v -0.622902 1.535616 0.000000
v -0.456205 1.373985 0.069828
v 0.622902 0.000000 0.000000
v -0.622902 0.000000 0.052738
v 0.622902 1.535616 0.000000
v -0.456205 1.373985 0.069828
v -0.456205 0.161631 0.069828
v -0.622902 1.535616 0.052738
v 0.000000 1.370079 0.069828
v 0.622902 1.535616 0.052738
v 0.456205 1.373985 0.069828
v 0.456205 1.373985 0.069828
v 0.622902 0.000000 0.052738
v 0.000000 0.162669 0.069828
v -0.456205 0.161631 0.069828
v 0.456205 0.161631 0.069828
v 0.000000 -0.001953 0.000000
v 0.000000 1.534517 0.000000
v -0.622902 1.535616 0.052738
v -0.622902 0.000000 0.052738
v -0.622902 0.000000 0.000000
v -0.622902 1.535616 0.000000
v -0.622902 0.000000 0.052738
v 0.000000 -0.001953 0.000000
v 0.622902 0.000000 0.000000
v 0.622902 1.535616 0.000000
v 0.622902 0.000000 0.052738
v -0.622902 0.000000 0.000000
v 0.622902 1.535616 0.052738
v 0.622902 0.000000 0.000000
v 0.000000 -0.001953 0.063358
v 0.622902 0.000000 0.052738
v 0.000000 1.534517 0.000000
v 0.622902 1.535616 0.000000
v 0.000000 0.162669 0.069828
v 0.456205 0.161631 0.069828
vt 0.646138 0.810020
vt 0.383355 0.926681
vt 0.408845 0.795987
vt 0.711486 0.936077
vt 0.837300 0.305942
vt 0.983453 0.986149
vt 0.958811 0.308943
vt 0.831087 0.985815
vt 0.172643 0.180249
vt 0.059467 0.924378
vt 0.059043 0.974298
vt 0.171916 0.811263
vt 0.837452 0.305942
vt 0.056467 0.116053
vt 0.831239 0.985845
vt 0.148335 0.840148
vt 0.143091 0.205345
vt 0.059467 0.924378
vt 0.385689 0.841663
vt 0.768316 0.875822
vt 0.682267 0.786348
vt 0.621285 0.850756
vt 0.764436 0.067891
vt 0.439518 0.149879
vt 0.204498 0.141725
vt 0.676145 0.152394
vt 0.958811 0.308943
vt 0.983453 0.986149
vt 0.059467 0.924378
vt 0.056467 0.116053
vt 0.006941 0.117205
vt 0.009669 0.924438
vt 0.115025 0.056465
vt 0.442671 0.016183
vt 0.814205 0.067800
vt 0.817721 0.874246
vt 0.764436 0.067891
vt 0.117055 0.006848
vt 0.768316 0.875822
vt 0.764376 0.018032
vt 0.441913 0.064921
vt 0.764436 0.067891
vt 0.382597 0.975540
vt 0.710031 0.985724
vt 0.409845 0.192433
vt 0.646805 0.178794
vn 0.000000 0.000000 1.000000
vn 0.000000 0.280511 0.959851
vn 0.000000 0.000000 1.000000
vn 0.012154 0.628390 0.777804
vn 0.000000 0.000000 -1.000000
vn 0.000000 0.000000 -1.000000
vn 0.000000 0.000000 -1.000000
vn 0.000000 0.000000 -1.000000
vn 0.000000 0.000000 1.000000
vn -0.012154 0.628390 0.777804
vn 0.001764 0.999998 0.000000
vn 0.000000 0.000000 1.000000
vn 0.000000 0.000000 -1.000000
vn -0.101992 0.000000 0.994785
vn 0.000000 0.000000 -1.000000
vn -0.059168 0.031251 0.997759
vn -0.101992 0.000000 0.994785
vn -0.101992 0.000000 0.994785
vn 0.000000 0.039316 0.999227
vn 0.101992 0.000000 0.994785
vn 0.101992 0.000000 0.994785
vn 0.009508 0.067230 0.997692
vn 0.101992 0.000000 0.994785
vn 0.000000 -0.039273 0.999229
vn -0.009876 -0.067005 0.997704
vn 0.059262 -0.031202 0.997755
vn 0.000000 0.000000 -1.000000
vn 0.000000 0.000000 -1.000000
vn -1.000000 0.000000 0.000000
vn -1.000000 0.000000 0.000000
vn -1.000000 0.000000 0.000000
vn -1.000000 0.000000 0.000000
vn -0.015252 -0.626442 0.779318
vn 0.000000 -1.000000 0.000000
vn 1.000000 0.000000 0.000000
vn 1.000000 0.000000 0.000000
vn 1.000000 0.000000 0.000000
vn -0.003136 -0.999995 0.000000
vn 1.000000 0.000000 0.000000
vn 0.003136 -0.999995 0.000000
vn 0.000000 -0.279642 0.960104
vn 0.015252 -0.626442 0.779318
vn -0.000000 1.000000 0.000000
vn -0.001764 0.999998 0.000000
vn 0.000000 0.000000 1.000000
vn 0.000000 0.000000 1.000000
f 12/12/12 9/9/9 3/3/3
f 3/3/3 9/9/9 45/45/45
f 45/45/45 46/46/46 3/3/3
f 3/3/3 46/46/46 1/1/1
f 11/11/11 10/10/10 43/43/43
f 43/43/43 10/10/10 2/2/2
f 2/2/2 4/4/4 43/43/43
f 43/43/43 4/4/4 44/44/44
f 16/16/16 2/2/2 10/10/10
f 19/19/19 2/2/2 16/16/16
f 22/22/22 2/2/2 19/19/19
f 4/4/4 2/2/2 22/22/22
f 28/28/28 13/13/13 27/27/27
f 15/15/15 13/13/13 28/28/28
f 18/18/18 17/17/17 16/16/16
f 14/14/14 17/17/17 18/18/18
f 21/21/21 23/23/23 20/20/20
f 26/26/26 23/23/23 21/21/21
f 32/32/32 30/30/30 29/29/29
f 31/31/31 30/30/30 32/32/32
f 36/36/36 37/37/37 35/35/35
f 39/39/39 37/37/37 36/36/36
f 34/34/34 40/40/40 42/42/42
f 41/41/41 34/34/34 42/42/42
f 33/33/33 34/34/34 41/41/41
f 38/38/38 34/34/34 33/33/33
f 26/26/26 41/41/41 42/42/42
f 24/24/24 41/41/41 26/26/26
f 25/25/25 41/41/41 24/24/24
f 33/33/33 41/41/41 25/25/25
f 6/6/6 5/5/5 8/8/8
f 7/7/7 5/5/5 6/6/6
