# Exported by s4extract — object_Food_PlateFork_Multi_lod00_g01
o object_Food_PlateFork_Multi_lod00_g01
v 0.052828 0.021455 -0.060488
v 0.090518 0.016175 0.031404
v 0.062990 0.008179 -0.065126
v -0.043123 0.031831 -0.043794
v -0.055147 0.008759 -0.018708
v -0.065737 0.040712 -0.033998
v -0.043123 0.031831 -0.043794
v -0.055147 0.008759 -0.018708
v -0.076968 0.020844 -0.014557
v -0.076968 0.020844 -0.014557
v -0.093570 0.032685 -0.067415
v -0.065737 0.040712 -0.033998
v -0.088015 0.036195 -0.089419
v -0.088015 0.036195 -0.089419
v -0.078738 0.024537 -0.088260
v -0.093570 0.032685 -0.067415
v -0.072085 0.022919 0.012665
v 0.091800 0.040803 0.002503
v 0.079653 0.052431 0.006897
v 0.055269 0.011750 0.025544
v 0.048799 0.052644 -0.089267
v 0.074679 0.029176 0.025727
v 0.074679 0.029176 0.025727
v -0.082888 0.049806 -0.074648
v -0.069338 0.044221 -0.093722
v -0.088015 0.036195 -0.089419
v -0.082888 0.049806 -0.074648
v -0.057833 0.025452 0.025513
v -0.073916 0.005005 -0.017212
v -0.087344 0.006378 0.042940
v -0.033876 0.033967 -0.021363
v 0.094577 0.012543 -0.057222
v 0.105533 0.026521 -0.081088
v 0.086612 0.027253 -0.052522
v 0.097568 0.041231 -0.076388
v -0.079104 0.043092 -0.006684
v -0.117710 0.055818 -0.058596
v -0.072085 0.022919 0.012665
v -0.069338 0.044221 -0.093722
v -0.088015 0.036195 -0.089419
v -0.078738 0.024537 -0.088260
v -0.079104 0.043092 -0.006684
v -0.072817 0.034394 -0.027558
v -0.122074 0.043306 -0.074068
v -0.122074 0.043306 -0.074068
v -0.066958 0.013520 -0.009827
v -0.100528 0.044862 -0.066286
v -0.104099 0.026215 -0.010254
v -0.122806 0.029298 -0.069216
v -0.117710 0.055818 -0.058596
v -0.066958 0.013520 -0.009827
v -0.122074 0.043306 -0.074068
v -0.122074 0.043306 -0.074068
v -0.117710 0.055818 -0.058596
v -0.072085 0.022919 0.012665
v 0.011200 0.007355 0.041444
v 0.013123 0.044404 0.045778
v -0.001679 0.027345 0.043336
v 0.003906 0.034852 0.049104
v -0.072817 0.034394 -0.027558
v 0.020631 0.007294 0.021607
v -0.122806 0.029298 -0.069216
v -0.072817 0.034394 -0.027558
v -0.066958 0.013520 -0.009827
v -0.100528 0.044862 -0.066286
v -0.079104 0.043092 -0.006684
v -0.137577 0.043245 -0.060213
v 0.060945 0.041017 -0.093631
v 0.030824 0.034059 -0.089358
v 0.079653 0.052431 0.006897
v 0.091800 0.040803 0.002503
v 0.048799 0.052644 -0.089267
v 0.079653 0.052431 0.006897
v -0.137577 0.043245 -0.060213
v 0.036103 0.031251 0.044343
v -0.104099 0.026215 -0.010254
v -0.043123 0.031831 -0.043794
v 0.116703 0.012177 0.020936
v 0.042940 0.022431 -0.093753
v 0.091800 0.040803 0.002503
v 0.060945 0.041017 -0.093631
v 0.158483 0.051302 0.011902
v 0.119541 0.054262 -0.080355
v 0.127506 0.039552 -0.085025
v 0.166448 0.036622 0.007233
v 0.127506 0.039552 -0.085025
v -0.072604 0.046480 0.098483
v -0.063570 0.018067 0.025269
v -0.072604 0.046480 0.098483
v 0.011200 0.007355 0.041444
v 0.036103 0.031251 0.044343
v 0.013123 0.044404 0.045778
v -0.049287 0.005860 0.050600
v 0.131291 0.035218 0.076632
v 0.131291 0.035218 0.076632
v 0.138798 0.028230 0.049257
v 0.027619 0.029969 0.100681
v -0.087344 0.006378 0.042940
v -0.011689 0.045351 0.093661
v 0.069155 0.047823 0.072390
v -0.022034 0.046785 0.045961
v 0.020631 0.007294 0.021607
v 0.003906 0.034852 0.049104
v -0.044527 0.036683 0.081545
v -0.029878 0.021302 0.093356
v -0.030915 0.054811 0.084567
v -0.022034 0.046785 0.045961
v -0.036042 0.029939 0.038118
v -0.036042 0.029939 0.038118
v -0.020020 0.006958 0.037202
v 0.003906 0.034852 0.049104
v -0.020020 0.006958 0.037202
v -0.030915 0.054811 0.084567
v -0.031983 0.039064 0.098727
v -0.011689 0.045351 0.093661
v -0.031983 0.039064 0.098727
v -0.031983 0.039064 0.098727
v 0.074587 0.042451 0.045228
v -0.011628 -0.001190 0.059145
v -0.035890 0.028260 0.057711
v -0.020020 0.006958 0.037202
v 0.150456 0.031434 0.033418
v -0.022034 0.046785 0.045961
v -0.072604 0.046480 0.098483
v -0.079012 0.016022 0.009430
v -0.001679 0.027345 0.043336
v 0.011200 0.007355 0.041444
v 0.166448 0.036622 0.007233
v 0.127445 0.019868 0.037355
v 0.150456 0.031434 0.033418
v 0.105533 0.026521 -0.081088
v 0.094577 0.012543 -0.057222
v 0.127445 0.019868 0.037355
v 0.086612 0.027253 -0.052522
v 0.045076 0.006165 0.013947
v -0.030793 0.006867 -0.041444
v 0.011261 0.006958 0.072970
v 0.005768 0.031465 0.032929
v 0.002777 0.005646 -0.030244
v 0.045076 0.006165 0.013947
v 0.033357 0.048372 0.101932
v 0.014771 0.057863 0.096469
v 0.001404 0.040101 0.098636
v -0.031983 0.039064 0.098727
v -0.029878 0.021302 0.093356
v -0.044527 0.036683 0.081545
v -0.036042 0.029939 0.038118
v -0.072604 0.046480 0.098483
v -0.045381 0.039003 0.039308
v 0.036103 0.031251 0.044343
v 0.013123 0.044404 0.045778
v -0.001679 0.027345 0.043336
v 0.016511 0.043886 0.111972
v 0.033265 0.003845 -0.067995
v 0.074679 0.029176 0.025727
v 0.055269 0.011750 0.025544
v 0.055666 0.031617 -0.010437
v 0.021363 0.009369 0.019684
v -0.025544 0.023133 -0.066561
v -0.153874 0.037416 -0.021790
v -0.153874 0.037416 -0.021790
v -0.015320 0.035981 -0.091372
v -0.141118 0.051698 -0.013794
v -0.091739 0.032533 -0.006531
v -0.105106 0.027528 0.037263
v -0.105258 0.044465 0.012513
v -0.153874 0.037416 -0.021790
v 0.016511 0.043886 0.111972
v 0.016358 0.031281 0.108371
v 0.014771 0.057863 0.096469
v 0.016511 0.043886 0.111972
v -0.035890 0.028260 0.057711
v -0.045381 0.039003 0.039308
v -0.066286 0.058412 0.080142
v -0.035890 0.028260 0.057711
v -0.079012 0.016022 0.009430
v -0.049287 0.005860 0.050600
v -0.115635 0.026856 0.071871
v -0.125797 0.043672 0.054384
v -0.093387 0.042695 0.074831
v 0.016358 0.031281 0.108371
v 0.033357 0.048372 0.101932
v 0.001404 0.040101 0.098636
v 0.016511 0.043886 0.111972
v -0.050813 0.042726 0.091678
v -0.050813 0.042726 0.091678
v -0.074190 0.029298 0.097018
v -0.073458 0.005493 0.038148
v -0.069338 0.039033 0.028382
v -0.116520 0.044252 0.073428
v 0.158483 0.051302 0.011902
v 0.097568 0.041231 -0.076388
v 0.166448 0.036622 0.007233
v 0.158483 0.051302 0.011902
v 0.006745 0.048341 -0.096744
v -0.018128 0.008087 -0.071078
v -0.007935 0.020936 -0.095889
v 0.014161 0.033296 -0.101260
v -0.105380 0.056734 0.058412
v -0.116520 0.044252 0.073428
v -0.105380 0.056734 0.058412
v -0.079012 0.016022 0.009430
v -0.116520 0.044252 0.073428
v -0.069338 0.039033 0.028382
v -0.073458 0.005493 0.038148
v -0.065920 0.029450 0.048982
v -0.093387 0.042695 0.074831
v -0.066286 0.058412 0.080142
v -0.063570 0.018067 0.025269
v -0.045381 0.039003 0.039308
v -0.065920 0.029450 0.048982
v -0.069338 0.039033 0.028382
v -0.116520 0.044252 0.073428
v -0.125797 0.043672 0.054384
v -0.115635 0.026856 0.071871
v -0.073458 0.005493 0.038148
v -0.065920 0.029450 0.048982
v -0.074190 0.029298 0.097018
v -0.088046 0.047639 0.083804
v -0.088046 0.047639 0.083804
v -0.049287 0.005860 0.050600
v -0.063570 0.018067 0.025269
v 0.119541 0.054262 -0.080355
v 0.150456 0.031434 0.033418
v -0.153874 0.037416 -0.021790
v -0.089358 0.013031 0.023804
v 0.013916 0.024415 0.024201
v 0.006745 0.048341 -0.096744
v -0.091739 0.032533 -0.006531
v -0.141118 0.051698 -0.013794
v -0.140110 0.043153 -0.036256
v -0.030580 0.040742 -0.098056
v -0.045625 0.047700 -0.098483
v -0.052431 0.027314 -0.099460
v -0.020020 0.013398 -0.005707
v -0.004334 0.031251 -0.019807
v -0.045625 0.047700 -0.098483
v -0.042299 0.027070 -0.020722
v -0.027284 0.044618 -0.032746
v -0.020020 0.013398 -0.005707
v -0.027284 0.044618 -0.032746
v -0.042299 0.027070 -0.020722
v -0.052431 0.027314 -0.099460
v -0.030213 0.009583 -0.043703
v 0.048219 0.046663 -0.005921
v 0.048219 0.046663 -0.005921
v 0.048219 0.046663 -0.005921
v 0.006745 0.048341 -0.096744
v 0.014161 0.033296 -0.101260
v 0.055666 0.031617 -0.010437
v -0.146916 0.036378 0.000092
v -0.105258 0.044465 0.012513
v 0.014161 0.033296 -0.101260
v -0.105106 0.027528 0.037263
v -0.145848 0.025025 -0.024232
v -0.089358 0.013031 0.023804
v -0.105106 0.027528 0.037263
v -0.140110 0.043153 -0.036256
v -0.146916 0.036378 0.000092
v -0.004334 0.031251 -0.019807
v -0.030213 0.009583 -0.043703
v 0.086612 0.027253 -0.052522
v -0.007935 0.020936 -0.095889
v 0.021363 0.009369 0.019684
v -0.020020 0.013398 -0.005707
v -0.027284 0.044618 -0.032746
v -0.004334 0.031251 -0.019807
v -0.060915 0.041932 -0.082217
v -0.041902 0.056673 -0.077670
v -0.030580 0.040742 -0.098056
v 0.093753 0.040498 -0.089572
v 0.093753 0.040498 -0.089572
v 0.073519 0.024506 -0.087649
v -0.045625 0.047700 -0.098483
v -0.060915 0.041932 -0.082217
v -0.045625 0.047700 -0.098483
v -0.041902 0.056673 -0.077670
v -0.105258 0.044465 0.012513
v -0.042299 0.027070 -0.020722
v -0.091739 0.032533 -0.006531
v 0.083590 0.053804 -0.084933
v -0.145848 0.025025 -0.024232
v 0.055666 0.031617 -0.010437
v -0.089358 0.013031 0.023804
v 0.044435 0.020234 0.014344
v -0.018128 0.008087 -0.071078
v 0.094577 0.012543 -0.057222
v 0.127445 0.019868 0.037355
v 0.063356 0.037812 -0.083010
v 0.111972 0.030824 0.029542
v 0.083590 0.053804 -0.084933
v 0.128819 0.039216 0.004761
v 0.118656 0.052522 0.009369
v 0.118656 0.052522 0.009369
v 0.128819 0.039216 0.004761
v 0.083590 0.053804 -0.084933
v -0.015320 0.035981 -0.091372
v 0.118656 0.052522 0.009369
v 0.062990 0.008179 -0.065126
v 0.062990 0.008179 -0.065126
v 0.111972 0.030824 0.029542
v 0.090518 0.016175 0.031404
v 0.090518 0.016175 0.031404
v 0.052828 0.021455 -0.060488
v 0.111972 0.030824 0.029542
v 0.073519 0.024506 -0.087649
v -0.055147 0.008759 -0.018708
v -0.065737 0.040712 -0.033998
v -0.076968 0.020844 -0.014557
v 0.093753 0.040498 -0.089572
v 0.073519 0.024506 -0.087649
v 0.128819 0.039216 0.004761
v 0.052828 0.021455 -0.060488
v 0.127506 0.039552 -0.085025
v 0.097568 0.041231 -0.076388
v 0.063356 0.037812 -0.083010
v 0.063356 0.037812 -0.083010
v 0.119541 0.054262 -0.080355
v 0.021119 0.015473 -0.068239
v 0.105533 0.026521 -0.081088
v 0.055269 0.011750 0.025544
v -0.025544 0.023133 -0.066561
v 0.013916 0.024415 0.024201
v 0.037019 0.035279 0.018860
v 0.044435 0.020234 0.014344
v 0.013916 0.024415 0.024201
v 0.021363 0.009369 0.019684
v 0.030824 0.034059 -0.089358
v 0.048799 0.052644 -0.089267
v 0.042940 0.022431 -0.093753
v 0.021119 0.015473 -0.068239
v 0.033265 0.003845 -0.067995
v 0.042940 0.022431 -0.093753
v -0.007935 0.020936 -0.095889
v -0.018128 0.008087 -0.071078
v -0.025544 0.023133 -0.066561
v -0.015320 0.035981 -0.091372
v 0.037019 0.035279 0.018860
v 0.060945 0.041017 -0.093631
v 0.033265 0.003845 -0.067995
v 0.021119 0.015473 -0.068239
v -0.011414 0.000885 0.055391
v -0.077090 0.008423 0.038728
v 0.003571 0.036439 0.048585
v 0.093753 0.040498 -0.073824
v 0.073519 0.024506 -0.071932
v 0.123051 0.039430 0.004975
v -0.104160 0.067934 0.043184
v -0.125187 0.055788 0.039460
v -0.116672 0.057680 0.058779
v -0.116672 0.057680 0.058779
v 0.062990 0.008179 -0.049409
v -0.021271 0.008118 0.040162
v 0.003571 0.036439 0.048585
v -0.022126 0.048677 0.044679
v 0.101382 0.035829 0.069216
v 0.014069 0.002503 0.025788
v 0.052339 0.042665 0.065859
v 0.014069 0.002503 0.025788
v 0.089877 0.016755 0.025269
v -0.089785 0.048952 -0.013672
v 0.107303 0.030305 0.047609
v 0.101382 0.035829 0.069216
v 0.019562 0.026765 0.088198
v 0.056642 0.038423 0.044435
v 0.084750 0.016388 0.031648
v -0.021271 0.008118 0.040162
v 0.044435 0.020234 0.021424
v -0.015320 0.035981 -0.084292
v -0.025544 0.023133 -0.059481
v -0.036714 0.031465 0.038942
v 0.062990 0.008179 -0.049409
v 0.112888 0.052736 0.009613
v 0.034852 0.008209 0.014252
v -0.022126 0.048677 0.044679
v -0.010773 0.052034 0.092044
v 0.021363 0.009369 0.026795
v 0.037019 0.035279 0.025941
v 0.013916 0.024415 0.031281
v -0.036714 0.031465 0.038942
v 0.106235 0.031037 0.029786
v 0.084750 0.016388 0.031648
v -0.065737 0.007233 -0.012116
v -0.052156 0.024537 0.024018
v 0.073519 0.024506 -0.071932
v 0.063356 0.037812 -0.067263
v 0.052828 0.021455 -0.044771
v 0.013916 0.024415 0.031281
v 0.037019 0.035279 0.025941
v -0.025544 0.023133 -0.059481
v 0.083590 0.053804 -0.069185
v -0.063570 0.022553 0.013276
v -0.045381 0.043458 0.027314
v -0.029969 0.060976 0.082369
v -0.031098 0.046846 0.098117
v 0.034852 0.008209 0.014252
v 0.052828 0.021455 -0.044771
v 0.006256 0.010163 0.064119
v -0.077090 0.008423 0.038728
v 0.001587 0.029603 0.030274
v -0.045381 0.043458 0.027314
v -0.044069 0.043001 0.081545
v -0.029572 0.028596 0.094638
v -0.010773 0.052034 0.092044
v 0.123051 0.039430 0.004975
v -0.116825 0.040193 0.058901
v -0.074801 0.013153 0.029359
v -0.125187 0.055788 0.039460
v -0.049287 0.010315 0.038606
v -0.049287 0.010315 0.038606
v -0.063570 0.022553 0.013276
v -0.035890 0.032746 0.045717
v -0.088046 0.052095 0.071810
v -0.066286 0.062868 0.068117
v -0.074190 0.033753 0.084994
v -0.072604 0.050935 0.086489
v -0.050813 0.047182 0.079653
v -0.072604 0.050935 0.086489
v 0.048219 0.046663 0.001160
v 0.055666 0.031617 -0.003357
v 0.006745 0.048341 -0.089663
v -0.093783 0.054903 0.061403
v -0.078524 0.021149 -0.000427
v -0.035890 0.032746 0.045717
v -0.050813 0.047182 0.079653
v -0.066286 0.062868 0.068117
v -0.072604 0.050935 0.086489
v -0.072604 0.050935 0.086489
v -0.088046 0.052095 0.071810
v -0.074190 0.033753 0.084994
v -0.063570 0.022553 0.013276
v -0.018128 0.008087 -0.063967
v -0.021271 0.008118 0.040162
v -0.022126 0.048677 0.044679
v -0.078524 0.021149 -0.000427
v -0.068148 0.045289 0.016663
v -0.116825 0.040193 0.058901
v -0.066164 0.037568 0.038209
v -0.093783 0.054903 0.061403
v -0.045381 0.043458 0.027314
v -0.049287 0.010315 0.038606
v -0.035890 0.032746 0.045717
v -0.066164 0.037568 0.038209
v -0.074801 0.013153 0.029359
v -0.116672 0.057680 0.058779
v -0.068148 0.045289 0.016663
v -0.044069 0.043001 0.081545
v -0.031098 0.046846 0.098117
v -0.029572 0.028596 0.094638
v -0.029969 0.060976 0.082369
v -0.031098 0.046846 0.098117
v -0.066164 0.037568 0.038209
v -0.036714 0.031465 0.038942
v 0.003571 0.036439 0.048585
v -0.031098 0.046846 0.098117
v -0.074801 0.013153 0.029359
v -0.078524 0.021149 -0.000427
v -0.116672 0.057680 0.058779
v 0.060945 0.041017 -0.081851
v 0.042940 0.022431 -0.081942
v 0.048799 0.052644 -0.077456
v -0.068148 0.045289 0.016663
v -0.104160 0.067934 0.043184
v -0.098544 0.034913 -0.054659
v -0.076724 0.021912 -0.063417
v -0.063204 0.039583 -0.066591
v 0.084750 0.016388 0.031648
v 0.083590 0.053804 -0.069185
v 0.052828 0.021455 -0.044771
v -0.048128 0.014771 -0.036164
v 0.048219 0.046663 0.001160
v -0.067751 0.034852 -0.022340
v 0.112888 0.052736 0.009613
v 0.123051 0.039430 0.004975
v -0.058016 0.019684 0.001770
v -0.031892 0.031709 -0.015625
v 0.083590 0.053804 -0.069185
v 0.093753 0.040498 -0.073824
v -0.000916 0.007782 -0.023133
v -0.029298 0.008820 -0.032594
v -0.067751 0.034852 -0.022340
v -0.046602 0.049837 -0.024995
v -0.058016 0.019684 0.001770
v -0.028840 0.051057 -0.090976
v 0.063356 0.037812 -0.067263
v 0.055666 0.031617 -0.003357
v 0.112888 0.052736 0.009613
v -0.035218 0.034730 -0.002289
v 0.106235 0.031037 0.029786
v 0.106235 0.031037 0.029786
v -0.058016 0.019684 0.001770
v -0.034974 0.060762 -0.071078
v -0.028840 0.051057 -0.090976
v -0.028840 0.051057 -0.090976
v -0.028840 0.051057 -0.090976
v 0.077273 0.052461 0.011261
v 0.089419 0.040834 0.006867
v 0.033265 0.003845 -0.056215
v 0.072298 0.029176 0.030122
v 0.089419 0.040834 0.006867
v 0.042940 0.022431 -0.081942
v 0.060945 0.041017 -0.081851
v 0.077273 0.052461 0.011261
v 0.060945 0.041017 -0.081851
v -0.035218 0.034730 -0.002289
v -0.018128 0.008087 -0.063967
v -0.025544 0.023133 -0.059481
v 0.013916 0.024415 0.031281
v -0.015320 0.035981 -0.084292
v -0.007935 0.020936 -0.088809
v 0.014161 0.033296 -0.094180
v 0.006745 0.048341 -0.089663
v -0.017090 0.042482 -0.083041
v -0.034974 0.060762 -0.071078
v -0.046602 0.049837 -0.024995
v -0.017090 0.042482 -0.083041
v -0.092624 0.020661 0.010010
v -0.036805 0.031587 -0.095370
v -0.111728 0.034181 0.000427
v -0.092624 0.020661 0.010010
v -0.111728 0.034181 0.000427
v -0.063204 0.039583 -0.066591
v -0.082522 0.033387 -0.071047
v -0.083377 0.049684 -0.058260
v 0.021363 0.009369 0.026795
v -0.067751 0.034852 -0.022340
v -0.035218 0.034730 -0.002289
v -0.048128 0.014771 -0.036164
v -0.066744 0.037324 -0.008972
v -0.066744 0.037324 -0.008972
v -0.089785 0.048952 -0.013672
v -0.098544 0.034913 -0.054659
v -0.083377 0.049684 -0.058260
v -0.082522 0.033387 -0.071047
v 0.021119 0.015473 -0.056429
v 0.052889 0.011750 0.029939
v 0.048219 0.046663 0.001160
v 0.089419 0.040834 0.006867
v 0.073519 0.024506 -0.071932
v 0.062990 0.008179 -0.049409
v 0.072298 0.029176 0.030122
v 0.033265 0.003845 -0.056215
v 0.077273 0.052461 0.011261
v -0.082522 0.033387 -0.071047
v 0.030824 0.034059 -0.077548
v 0.021119 0.015473 -0.056429
v -0.076724 0.021912 -0.063417
v -0.050813 0.048067 -0.084719
v 0.052889 0.011750 0.029939
v 0.048799 0.052644 -0.077456
v -0.066744 0.037324 -0.008972
v -0.111728 0.034181 0.000427
v -0.082522 0.033387 -0.071047
v -0.089785 0.048952 -0.013672
v -0.092624 0.020661 0.010010
v -0.050813 0.048067 -0.084719
v -0.036805 0.031587 -0.095370
v -0.046602 0.049837 -0.024995
v 0.048799 0.052644 -0.077456
v 0.042940 0.022431 -0.081942
v 0.072298 0.029176 0.030122
v 0.021119 0.015473 -0.056429
v 0.033265 0.003845 -0.056215
v 0.063356 0.037812 -0.067263
v 0.006745 0.048341 -0.089663
v 0.093753 0.040498 -0.073824
v 0.014161 0.033296 -0.094180
v 0.044435 0.020234 0.021424
v 0.052889 0.011750 0.029939
v -0.015320 0.035981 -0.084292
v 0.014161 0.033296 -0.094180
v 0.030824 0.034059 -0.077548
v 0.055666 0.031617 -0.003357
v -0.007935 0.020936 -0.088809
v 0.021363 0.009369 0.026795
v -0.018128 0.008087 -0.063967
v -0.007935 0.020936 -0.088809
vt 0.239891 0.993948
vt 0.011171 0.951612
vt 0.239891 0.909307
vt 0.932584 0.841950
vt 0.986632 0.783656
vt 0.871821 0.853452
vt 0.932584 0.841950
vt 0.763694 0.784409
vt 0.817441 0.803408
vt 0.817441 0.803408
vt 0.817441 0.943001
vt 0.871821 0.853452
vt 0.889827 0.979224
vt 0.889827 0.979224
vt 0.763694 0.943001
vt 0.817441 0.943001
vt 0.422150 0.684201
vt 0.239891 0.908223
vt 0.239891 0.992864
vt 0.011171 0.951612
vt 0.032519 0.561982
vt 0.116618 0.871910
vt 0.127127 0.950528
vt 0.871821 0.943001
vt 0.931771 0.943001
vt 0.889827 0.979224
vt 0.871821 0.943001
vt 0.275511 0.146216
vt 0.073108 0.125199
vt 0.276234 0.026165
vt 0.138508 0.277407
vt 0.239891 0.909307
vt 0.127127 0.909518
vt 0.031225 0.847580
vt 0.127127 0.993767
vt 0.870737 0.723435
vt 0.870737 0.558820
vt 0.916354 0.807383
vt 0.931771 0.943001
vt 0.889827 0.979224
vt 0.986632 0.943001
vt 0.424167 0.573514
vt 0.318539 0.573243
vt 0.889827 0.519014
vt 0.889827 0.519014
vt 0.320647 0.683237
vt 0.814821 0.558820
vt 0.916354 0.699075
vt 0.986632 0.558820
vt 0.870737 0.558820
vt 0.986632 0.751709
vt 0.889827 0.519014
vt 0.889827 0.519014
vt 0.870737 0.558820
vt 0.916354 0.807383
vt 0.409202 0.815151
vt 0.320466 0.901237
vt 0.410888 0.901508
vt 0.591130 0.774773
vt 0.814821 0.729547
vt 0.694680 0.051157
vt 0.763694 0.558820
vt 0.814821 0.729547
vt 0.805156 0.778507
vt 0.814821 0.558820
vt 0.870737 0.723435
vt 0.916354 0.558820
vt 0.011171 0.908223
vt 0.117913 0.532534
vt 0.031225 0.847580
vt 0.239891 0.908223
vt 0.011171 0.992864
vt 0.239891 0.992864
vt 0.916354 0.558820
vt 0.320557 0.815182
vt 0.916354 0.699075
vt 0.422150 0.684201
vt 0.549547 0.339315
vt 0.117913 0.532534
vt 0.197375 0.847580
vt 0.198639 0.556893
vt 0.239891 0.992864
vt 0.011171 0.992864
vt 0.011171 0.908223
vt 0.239891 0.908223
vt 0.198639 0.556893
vt 0.626510 0.546987
vt 0.320557 0.815182
vt 0.626510 0.546987
vt 0.591251 0.747734
vt 0.591130 0.774773
vt 0.621602 0.814640
vt 0.320466 0.901237
vt 0.727862 0.478184
vt 0.727862 0.478184
vt 0.625215 0.457920
vt 0.946284 0.207822
vt 0.276234 0.026165
vt 0.571107 0.903526
vt 0.797508 0.289933
vt 0.621602 0.814640
vt 0.694680 0.051157
vt 0.320557 0.815182
vt 0.670772 0.903526
vt 0.513595 0.903526
vt 0.621602 0.903526
vt 0.621602 0.814640
vt 0.670772 0.799644
vt 0.670772 0.799644
vt 0.735450 0.746981
vt 0.591130 0.774773
vt 0.591251 0.747734
vt 0.621602 0.903526
vt 0.626510 0.943332
vt 0.571107 0.903526
vt 0.626510 0.943332
vt 0.626510 0.943332
vt 0.716932 0.268615
vt 0.852369 0.043358
vt 0.410888 0.901508
vt 0.412002 0.816898
vt 0.117913 0.532534
vt 0.320466 0.901237
vt 0.626510 0.546987
vt 0.595376 0.792749
vt 0.670772 0.799644
vt 0.735450 0.746981
vt 0.197375 0.847580
vt 0.031225 0.847580
vt 0.116618 0.871910
vt 0.117913 0.532534
vt 0.032519 0.561982
vt 0.032519 0.561982
vt 0.239891 0.993948
vt 0.321671 0.478696
vt 0.017825 0.317545
vt 0.482220 0.276564
vt 0.346633 0.333985
vt 0.096625 0.425160
vt 0.321671 0.478696
vt 0.571107 0.903526
vt 0.621602 0.903526
vt 0.670772 0.903526
vt 0.626510 0.943332
vt 0.735450 0.903526
vt 0.670772 0.903526
vt 0.410888 0.901508
vt 0.626510 0.546987
vt 0.412002 0.816898
vt 0.591130 0.774773
vt 0.621602 0.814640
vt 0.670772 0.799644
vt 0.626510 0.943332
vt 0.032519 0.561982
vt 0.116618 0.871910
vt 0.031225 0.847580
vt 0.239891 0.908223
vt 0.011171 0.909307
vt 0.239891 0.993948
vt 0.889827 0.979224
vt 0.889827 0.979224
vt 0.127127 0.993767
vt 0.871821 0.943001
vt 0.422150 0.684201
vt 0.318539 0.573243
vt 0.320647 0.683237
vt 0.889827 0.979224
vt 0.626510 0.943332
vt 0.513595 0.903526
vt 0.621602 0.903526
vt 0.626510 0.943332
vt 0.670772 0.749541
vt 0.621602 0.748336
vt 0.621602 0.583210
vt 0.670772 0.749541
vt 0.595376 0.792749
vt 0.735450 0.746981
vt 0.513595 0.583210
vt 0.571107 0.583210
vt 0.670772 0.583210
vt 0.735450 0.903526
vt 0.571107 0.903526
vt 0.670772 0.903526
vt 0.626510 0.943332
vt 0.670772 0.583210
vt 0.670772 0.583210
vt 0.735450 0.583210
vt 0.592696 0.770166
vt 0.621602 0.748336
vt 0.626510 0.546987
vt 0.198639 0.556893
vt 0.116618 0.871910
vt 0.239891 0.908223
vt 0.239891 0.992864
vt 0.009906 0.993617
vt 0.239891 0.909307
vt 0.127127 0.909518
vt 0.009906 0.909729
vt 0.621602 0.583210
vt 0.626510 0.546987
vt 0.621602 0.583210
vt 0.320557 0.815182
vt 0.626510 0.546987
vt 0.412002 0.816898
vt 0.735450 0.746981
vt 0.670772 0.749541
vt 0.670772 0.583210
vt 0.621602 0.583210
vt 0.595376 0.792749
vt 0.621602 0.748336
vt 0.670772 0.749541
vt 0.621602 0.748336
vt 0.626510 0.546987
vt 0.571107 0.583210
vt 0.735450 0.583210
vt 0.320466 0.901237
vt 0.410888 0.901508
vt 0.513595 0.583210
vt 0.571107 0.583210
vt 0.571107 0.583210
vt 0.592696 0.770166
vt 0.595376 0.792749
vt 0.197375 0.847580
vt 0.127127 0.950528
vt 0.889827 0.979224
vt 0.424167 0.573514
vt 0.011171 0.993948
vt 0.197375 0.847580
vt 0.932584 0.841950
vt 0.871821 0.943001
vt 0.931771 0.943001
vt 0.763694 0.558820
vt 0.889827 0.519014
vt 0.916354 0.558820
vt 0.916354 0.807383
vt 0.986632 0.751709
vt 0.889827 0.519014
vt 0.870737 0.723435
vt 0.814821 0.729547
vt 0.916354 0.807383
vt 0.814821 0.729547
vt 0.870737 0.723435
vt 0.916354 0.558820
vt 0.916354 0.699075
vt 0.239891 0.992864
vt 0.198639 0.556893
vt 0.239891 0.992864
vt 0.011171 0.992864
vt 0.011171 0.908223
vt 0.239891 0.908223
vt 0.817441 0.943001
vt 0.871821 0.853452
vt 0.198639 0.556893
vt 0.817441 0.803408
vt 0.763694 0.943001
vt 0.763694 0.784409
vt 0.817441 0.803408
vt 0.931771 0.943001
vt 0.817441 0.943001
vt 0.805156 0.778507
vt 0.916354 0.699075
vt 0.239891 0.993948
vt 0.117913 0.532534
vt 0.031225 0.847580
vt 0.422150 0.684201
vt 0.318539 0.573243
vt 0.320647 0.683237
vt 0.870737 0.558820
vt 0.814821 0.558820
vt 0.986632 0.558820
vt 0.009906 0.909729
vt 0.198639 0.556893
vt 0.127127 0.909518
vt 0.889827 0.519014
vt 0.870737 0.558820
vt 0.889827 0.519014
vt 0.814821 0.558820
vt 0.871821 0.853452
vt 0.424167 0.573514
vt 0.932584 0.841950
vt 0.009906 0.993617
vt 0.986632 0.943001
vt 0.197375 0.847580
vt 0.986632 0.783656
vt 0.116618 0.871910
vt 0.032519 0.561982
vt 0.239891 0.909307
vt 0.011171 0.951612
vt 0.127127 0.993767
vt 0.127127 0.950528
vt 0.197375 0.847580
vt 0.239891 0.908223
vt 0.239891 0.992864
vt 0.198639 0.556893
vt 0.239891 0.908223
vt 0.011171 0.992864
vt 0.127127 0.993767
vt 0.239891 0.992864
vt 0.239891 0.909307
vt 0.032519 0.561982
vt 0.116618 0.871910
vt 0.031225 0.847580
vt 0.032519 0.561982
vt 0.239891 0.993948
vt 0.117913 0.532534
vt 0.127127 0.909518
vt 0.424167 0.573514
vt 0.320647 0.683237
vt 0.318539 0.573243
vt 0.011171 0.908223
vt 0.117913 0.532534
vt 0.197375 0.847580
vt 0.031225 0.847580
vt 0.009906 0.909729
vt 0.127127 0.993767
vt 0.127127 0.993767
vt 0.116618 0.871910
vt 0.009906 0.993617
vt 0.198639 0.556893
vt 0.127127 0.909518
vt 0.197375 0.847580
vt 0.239891 0.993948
vt 0.032519 0.561982
vt 0.117913 0.532534
vt 0.127127 0.908223
vt 0.009906 0.992864
vt 0.009906 0.908223
vt 0.127127 0.993767
vt 0.009906 0.993617
vt 0.127127 0.909518
vt 0.239891 0.993948
vt 0.239891 0.909307
vt 0.127127 0.909518
vt 0.127127 0.909518
vt 0.239891 0.909307
vt 0.031225 0.847580
vt 0.116618 0.871910
vt 0.127127 0.992864
vt 0.009906 0.909729
vt 0.239891 0.909307
vt 0.239891 0.993948
vt 0.852369 0.043358
vt 0.276234 0.026165
vt 0.591130 0.774773
vt 0.198639 0.556893
vt 0.117913 0.532534
vt 0.197375 0.847580
vt 0.621602 0.583210
vt 0.571107 0.583210
vt 0.626510 0.546987
vt 0.626510 0.546987
vt 0.032519 0.561982
vt 0.591251 0.747734
vt 0.591130 0.774773
vt 0.621602 0.814640
vt 0.727862 0.478184
vt 0.694680 0.051157
vt 0.797508 0.289933
vt 0.694680 0.051157
vt 0.549547 0.339315
vt 0.871821 0.853452
vt 0.625215 0.457920
vt 0.727862 0.478184
vt 0.946284 0.207822
vt 0.716932 0.268615
vt 0.032519 0.561982
vt 0.735450 0.746981
vt 0.127127 0.908223
vt 0.116618 0.871910
vt 0.239891 0.993948
vt 0.670772 0.799644
vt 0.239891 0.909307
vt 0.239891 0.992864
vt 0.321671 0.478696
vt 0.621602 0.814640
vt 0.571107 0.903526
vt 0.009906 0.908223
vt 0.127127 0.992864
vt 0.009906 0.992864
vt 0.670772 0.799644
vt 0.116618 0.871910
vt 0.031225 0.847580
vt 0.073108 0.125199
vt 0.275511 0.146216
vt 0.127127 0.909518
vt 0.127127 0.993767
vt 0.239891 0.993948
vt 0.032519 0.561982
vt 0.117913 0.532534
vt 0.031225 0.847580
vt 0.197375 0.847580
vt 0.595376 0.792749
vt 0.621602 0.748336
vt 0.621602 0.903526
vt 0.626510 0.943332
vt 0.321671 0.478696
vt 0.031225 0.847580
vt 0.482220 0.276564
vt 0.276234 0.026165
vt 0.346633 0.333985
vt 0.621602 0.748336
vt 0.670772 0.903526
vt 0.735450 0.903526
vt 0.571107 0.903526
vt 0.239891 0.908223
vt 0.513595 0.583210
vt 0.735450 0.746981
vt 0.571107 0.583210
vt 0.592696 0.770166
vt 0.735450 0.746981
vt 0.595376 0.792749
vt 0.670772 0.749541
vt 0.571107 0.583210
vt 0.621602 0.583210
vt 0.513595 0.583210
vt 0.626510 0.546987
vt 0.670772 0.583210
vt 0.626510 0.546987
vt 0.239891 0.992864
vt 0.239891 0.908223
vt 0.011171 0.992864
vt 0.670772 0.583210
vt 0.320557 0.815182
vt 0.670772 0.749541
vt 0.670772 0.583210
vt 0.621602 0.583210
vt 0.626510 0.546987
vt 0.626510 0.546987
vt 0.571107 0.583210
vt 0.735450 0.583210
vt 0.320557 0.815182
vt 0.239891 0.909307
vt 0.412002 0.816898
vt 0.320466 0.901237
vt 0.595376 0.792749
vt 0.621602 0.748336
vt 0.735450 0.583210
vt 0.670772 0.749541
vt 0.670772 0.583210
vt 0.412002 0.816898
vt 0.320466 0.901237
vt 0.410888 0.901508
vt 0.410888 0.901508
vt 0.320466 0.901237
vt 0.626510 0.546987
vt 0.412002 0.816898
vt 0.670772 0.903526
vt 0.626510 0.943332
vt 0.513595 0.903526
vt 0.621602 0.903526
vt 0.626510 0.943332
vt 0.670772 0.749541
vt 0.410888 0.901508
vt 0.320557 0.815182
vt 0.626510 0.943332
vt 0.592696 0.770166
vt 0.595376 0.792749
vt 0.626510 0.546987
vt 0.009906 0.909729
vt 0.127127 0.909518
vt 0.009906 0.993617
vt 0.621602 0.748336
vt 0.621602 0.583210
vt 0.817441 0.943001
vt 0.986632 0.943001
vt 0.931771 0.943001
vt 0.011171 0.951612
vt 0.009906 0.993617
vt 0.239891 0.993948
vt 0.916354 0.699075
vt 0.239891 0.992864
vt 0.870737 0.723435
vt 0.239891 0.992864
vt 0.239891 0.908223
vt 0.916354 0.807383
vt 0.138508 0.277407
vt 0.011171 0.992864
vt 0.011171 0.908223
vt 0.096625 0.425160
vt 0.017825 0.317545
vt 0.424167 0.573514
vt 0.318539 0.573243
vt 0.422150 0.684201
vt 0.889827 0.519014
vt 0.116618 0.871910
vt 0.239891 0.908223
vt 0.198639 0.556893
vt 0.805156 0.778507
vt 0.117913 0.532534
vt 0.127127 0.950528
vt 0.916354 0.807383
vt 0.814821 0.558820
vt 0.889827 0.519014
vt 0.889827 0.519014
vt 0.889827 0.519014
vt 0.239891 0.992864
vt 0.197375 0.847580
vt 0.032519 0.561982
vt 0.127127 0.950528
vt 0.239891 0.908223
vt 0.127127 0.909518
vt 0.011171 0.908223
vt 0.239891 0.992864
vt 0.198639 0.556893
vt 0.320647 0.683237
vt 0.239891 0.909307
vt 0.239891 0.993948
vt 0.011171 0.993948
vt 0.127127 0.993767
vt 0.127127 0.909518
vt 0.009906 0.909729
vt 0.009906 0.993617
vt 0.763694 0.558820
vt 0.814821 0.558820
vt 0.814821 0.729547
vt 0.986632 0.558820
vt 0.986632 0.783656
vt 0.916354 0.558820
vt 0.817441 0.803408
vt 0.763694 0.784409
vt 0.817441 0.803408
vt 0.931771 0.943001
vt 0.889827 0.979224
vt 0.871821 0.943001
vt 0.011171 0.909307
vt 0.870737 0.723435
vt 0.986632 0.751709
vt 0.916354 0.699075
vt 0.932584 0.841950
vt 0.932584 0.841950
vt 0.871821 0.853452
vt 0.817441 0.943001
vt 0.871821 0.943001
vt 0.889827 0.979224
vt 0.198639 0.556893
vt 0.197375 0.847580
vt 0.198639 0.556893
vt 0.239891 0.908223
vt 0.127127 0.909518
vt 0.239891 0.909307
vt 0.116618 0.871910
vt 0.239891 0.909307
vt 0.031225 0.847580
vt 0.889827 0.979224
vt 0.117913 0.532534
vt 0.239891 0.993948
vt 0.763694 0.943001
vt 0.870737 0.558820
vt 0.031225 0.847580
vt 0.032519 0.561982
vt 0.422150 0.684201
vt 0.318539 0.573243
vt 0.889827 0.979224
vt 0.320647 0.683237
vt 0.424167 0.573514
vt 0.870737 0.558820
vt 0.916354 0.558820
vt 0.814821 0.729547
vt 0.011171 0.992864
vt 0.117913 0.532534
vt 0.116618 0.871910
vt 0.239891 0.993948
vt 0.239891 0.909307
vt 0.127127 0.993767
vt 0.197375 0.847580
vt 0.009906 0.909729
vt 0.011171 0.908223
vt 0.116618 0.871910
vt 0.011171 0.951612
vt 0.127127 0.993767
vt 0.198639 0.556893
vt 0.127127 0.993767
vt 0.197375 0.847580
vt 0.117913 0.532534
vt 0.031225 0.847580
vt 0.032519 0.561982
vt 0.127127 0.909518
vn -0.721189 -0.642545 0.258887
vn -0.721189 -0.642545 0.258887
vn -0.721189 -0.642545 0.258887
vn 0.392040 0.919446 0.030391
vn 0.601466 -0.710542 -0.365197
vn 0.382096 0.923012 0.045285
vn 0.654146 -0.628470 -0.420854
vn -0.499371 -0.865819 -0.031387
vn -0.490066 -0.870715 -0.041133
vn -0.624072 0.697459 0.352257
vn -0.697737 0.646616 0.308302
vn -0.648128 0.659074 0.381512
vn -0.865652 0.480105 -0.141937
vn -0.736328 -0.614213 -0.283837
vn -0.550848 -0.831933 -0.066744
vn -0.526756 -0.848138 -0.056476
vn 0.925661 0.374402 0.054539
vn 0.627730 0.404330 0.665186
vn 0.627730 0.404330 0.665186
vn -0.677069 -0.702688 0.218650
vn -0.700716 0.676589 0.226328
vn -0.730254 0.613538 0.300498
vn 0.627730 0.404330 0.665186
vn -0.766073 0.587800 0.260044
vn 0.221695 0.966988 -0.125642
vn -0.435342 0.732283 -0.523679
vn 0.293664 0.954520 -0.051507
vn -0.304535 0.918071 0.253780
vn -0.578335 0.745668 -0.330920
vn -0.598096 0.786978 -0.151485
vn -0.050849 0.942826 -0.329383
vn -0.806307 -0.268164 -0.527216
vn -0.806307 -0.268164 -0.527216
vn -0.424898 0.862880 0.273676
vn -0.806307 -0.268164 -0.527216
vn 0.525611 0.829815 -0.187458
vn 0.525611 0.829815 -0.187458
vn -0.458145 0.527088 0.715739
vn 0.607093 -0.468100 -0.642122
vn -0.135556 -0.204317 -0.969474
vn 0.614016 -0.619636 -0.488913
vn 0.924641 0.370340 0.088814
vn 0.922319 0.365488 0.125488
vn 0.342029 -0.323500 -0.882250
vn -0.649826 -0.218233 -0.728080
vn 0.924641 0.370340 0.088814
vn 0.422618 0.861128 -0.282583
vn -0.417543 -0.898157 0.137736
vn -0.478308 -0.877595 0.032389
vn -0.523912 0.717397 0.459192
vn -0.322155 -0.938200 0.126477
vn 0.180935 0.739158 -0.648774
vn -0.438358 0.755319 -0.487171
vn 0.422618 0.861128 -0.282583
vn -0.311159 -0.900019 0.305198
vn 0.014541 0.115420 -0.993210
vn 0.014541 0.115420 -0.993210
vn 0.031823 0.114489 -0.992915
vn 0.423489 0.903589 -0.064679
vn 0.512711 0.843665 -0.159237
vn -0.035836 0.594643 -0.803191
vn 0.556746 -0.499497 -0.663729
vn 0.578498 -0.516954 -0.630951
vn 0.608818 -0.407340 -0.680746
vn 0.495673 -0.589422 -0.637879
vn -0.502678 0.616191 0.606320
vn -0.686903 -0.726748 -0.001144
vn 0.638029 0.742737 -0.203127
vn -0.745236 0.600969 0.288895
vn -0.778917 0.556621 0.288897
vn 0.637913 0.742856 -0.203057
vn 0.637913 0.742856 -0.203057
vn 0.637797 0.742975 -0.202987
vn -0.520462 0.776760 0.354633
vn 0.004373 0.115952 -0.993245
vn -0.494417 0.639754 0.588444
vn 0.502240 0.503022 0.703366
vn 0.054542 0.669971 -0.740381
vn 0.654055 -0.740437 -0.154808
vn 0.587882 -0.795559 -0.146567
vn 0.700335 -0.677000 -0.226279
vn 0.788248 0.528161 -0.315770
vn 0.788437 0.527772 -0.315949
vn 0.788625 0.527383 -0.316129
vn 0.788437 0.527772 -0.315949
vn 0.467056 -0.855305 -0.224304
vn -0.688902 0.001829 0.724852
vn 0.769465 -0.285365 -0.571393
vn 0.279539 -0.107166 0.954135
vn 0.665042 -0.717995 0.205434
vn 0.472528 0.850675 -0.230366
vn 0.482529 0.844179 -0.233511
vn 0.771564 -0.284751 -0.568863
vn 0.215221 0.962180 -0.167000
vn 0.110278 0.759438 0.641165
vn 0.221214 0.879329 -0.421717
vn -0.265122 0.942108 0.205288
vn -0.179065 0.800100 0.572517
vn 0.672872 -0.515655 0.530417
vn -0.247798 0.968777 0.008183
vn 0.442254 0.894229 -0.069031
vn -0.468282 0.858664 -0.208346
vn 0.216514 0.220128 -0.951139
vn -0.751263 0.644629 -0.141624
vn 0.673528 -0.618019 0.405479
vn -0.793289 0.605789 -0.060930
vn -0.713993 0.646982 -0.267634
vn -0.779487 -0.626323 -0.010935
vn -0.688242 0.684373 -0.240743
vn -0.820264 -0.571981 0.002112
vn 0.692661 -0.639851 0.332884
vn 0.660546 -0.691434 0.292571
vn 0.354560 0.913286 0.200490
vn -0.021948 0.669308 0.742661
vn 0.394412 0.916836 0.062052
vn 0.304981 -0.242359 0.921004
vn -0.740151 0.476690 0.474281
vn -0.117227 0.884029 -0.452495
vn -0.476188 0.853145 -0.213045
vn 0.774583 -0.283857 -0.565196
vn 0.233410 0.220103 -0.947140
vn -0.510871 0.800904 0.312351
vn 0.233410 0.220103 -0.947140
vn 0.312735 0.743333 0.591314
vn -0.261370 0.676744 -0.688262
vn -0.820717 -0.544998 0.171469
vn -0.729946 -0.639549 0.241154
vn 0.343090 -0.930230 -0.130236
vn 0.436319 -0.896026 -0.082242
vn 0.420087 -0.900689 -0.110845
vn 0.429898 -0.889655 -0.153956
vn 0.517360 -0.843717 -0.143106
vn -0.399380 0.880943 0.253840
vn -0.806307 -0.268164 -0.527216
vn 0.372112 0.852898 -0.366193
vn -0.141285 0.578962 -0.803021
vn 0.058819 0.844466 0.532369
vn 0.265999 0.962433 0.054470
vn 0.426281 0.795441 -0.430764
vn 0.620195 0.704094 0.345848
vn 0.468776 0.873537 -0.131079
vn 0.458583 0.888498 -0.016505
vn -0.774480 0.632078 -0.025656
vn -0.759760 -0.269073 0.591916
vn -0.799328 -0.596946 0.068777
vn -0.769740 -0.621640 0.145139
vn 0.261715 0.219911 -0.939758
vn -0.342625 0.837051 0.426561
vn 0.771564 -0.284751 -0.568863
vn 0.692255 -0.689251 0.213812
vn -0.771372 0.624941 -0.120144
vn -0.742759 0.660307 -0.110922
vn 0.187969 0.739870 0.645957
vn 0.721615 -0.678931 -0.135369
vn 0.642335 -0.757550 -0.116296
vn 0.665592 -0.740372 -0.094008
vn 0.828411 0.261268 0.495454
vn -0.792987 -0.497316 0.351922
vn -0.792987 -0.497316 0.351922
vn -0.788469 0.549285 0.276773
vn -0.620154 0.723570 -0.303077
vn -0.304457 0.133672 -0.943100
vn -0.485624 0.680803 0.548340
vn 0.819614 0.509027 0.262916
vn 0.778700 0.519991 0.351050
vn 0.801862 0.514650 0.303567
vn -0.796457 -0.560598 0.226683
vn -0.628627 0.541222 0.558487
vn 0.694855 -0.671777 0.256695
vn -0.795513 0.604229 0.045447
vn 0.543168 -0.236735 0.805559
vn 0.712965 0.700785 0.024133
vn 0.717181 0.695937 0.036362
vn 0.663220 0.736194 0.134752
vn 0.562257 -0.604958 0.563820
vn -0.614066 -0.771972 -0.164262
vn 0.593975 -0.543526 0.593104
vn -0.738754 -0.646068 -0.191934
vn -0.673444 -0.717599 -0.177552
vn 0.250588 -0.506210 0.825201
vn -0.642765 -0.659397 0.389935
vn 0.728993 -0.603061 0.323863
vn -0.733848 -0.613395 0.291913
vn -0.617193 -0.209237 0.758480
vn 0.613216 0.760890 0.212161
vn 0.476220 -0.559133 0.678664
vn 0.538959 -0.552489 0.635830
vn -0.619246 -0.749800 -0.233097
vn -0.266205 0.665991 -0.696843
vn -0.894737 -0.084754 0.438478
vn -0.572060 0.760197 0.307973
vn -0.530155 0.791998 0.302780
vn 0.799643 0.262046 0.540281
vn 0.799643 0.262046 0.540281
vn -0.304191 0.133526 -0.943207
vn -0.793255 -0.496716 0.352163
vn -0.304191 0.133526 -0.943207
vn -0.303925 0.133380 -0.943313
vn 0.502316 0.798566 0.331618
vn 0.012314 0.764421 0.644599
vn -0.393776 0.770229 -0.501684
vn 0.948523 -0.190242 -0.253204
vn -0.066501 -0.092276 0.993510
vn 0.949534 -0.189433 -0.250000
vn 0.387734 -0.478333 0.787947
vn 0.374765 -0.541381 0.752634
vn 0.426300 0.817391 0.387479
vn -0.463112 0.827442 -0.317596
vn -0.418830 0.727914 -0.542883
vn -0.427378 0.718153 -0.549185
vn 0.590313 0.769097 0.244990
vn 0.590416 0.764814 0.257815
vn -0.556326 0.793446 0.246871
vn -0.319981 0.721840 -0.613644
vn 0.322802 -0.492995 0.807932
vn 0.949534 -0.189433 -0.250000
vn 0.950974 -0.188261 -0.245368
vn -0.821846 -0.564275 0.078496
vn -0.441083 0.776276 -0.450379
vn -0.762665 -0.643151 0.068549
vn -0.734049 -0.679092 -0.002358
vn -0.707684 -0.703998 0.059756
vn -0.466777 0.855413 0.224473
vn 0.799643 0.262046 0.540281
vn -0.640383 -0.273401 -0.717747
vn 0.801862 0.514650 0.303567
vn -0.792718 -0.497915 0.351680
vn -0.436751 0.873368 0.215585
vn 0.383165 0.874507 -0.297358
vn 0.257577 0.912150 -0.318806
vn 0.157433 0.925319 -0.344965
vn 0.615452 0.779270 -0.118144
vn 0.043725 0.033235 -0.998491
vn 0.449233 -0.669136 -0.591985
vn -0.620558 -0.746083 0.241387
vn 0.751016 -0.604794 -0.264953
vn -0.747138 0.278333 -0.603586
vn -0.577716 0.736060 0.352788
vn 0.638022 0.766092 -0.077664
vn 0.698650 -0.705906 -0.116555
vn -0.596642 0.713741 0.366866
vn -0.723757 -0.676836 0.134421
vn -0.892451 -0.447132 -0.060045
vn -0.746681 -0.652241 0.130571
vn 0.828865 0.260807 0.494937
vn -0.432852 0.876099 0.212344
vn 0.792277 0.497971 -0.352593
vn 0.792536 0.497373 -0.352855
vn 0.792794 0.496775 -0.353117
vn 0.792536 0.497373 -0.352855
vn -0.400018 0.736276 0.545786
vn -0.318454 0.750038 0.579681
vn 0.436297 -0.873609 -0.215528
vn -0.312380 0.783061 0.537806
vn -0.532528 -0.775702 0.338674
vn -0.471430 -0.811468 0.345360
vn -0.468921 -0.818213 0.332627
vn 0.151205 -0.579190 -0.801047
vn -0.507306 -0.793361 0.336480
vn 0.533836 0.842083 -0.076915
vn 0.679688 -0.659216 -0.321648
vn -0.788807 -0.527780 0.315009
vn 0.451105 -0.864766 -0.220644
vn 0.390714 -0.906991 -0.157193
vn -0.091137 0.665282 0.741009
vn -0.086392 0.612383 0.785826
vn -0.088905 0.640186 0.763058
vn -0.833992 -0.551602 0.013874
vn -0.629934 0.747491 0.210811
vn 0.649797 -0.616691 -0.444360
vn -0.222039 0.165410 -0.960905
vn 0.589936 -0.774056 -0.229811
vn -0.222039 0.165410 -0.960905
vn -0.557526 0.793944 -0.242524
vn -0.605586 0.743922 0.282570
vn 0.390316 0.818033 -0.422464
vn 0.695308 0.700410 -0.161160
vn 0.382874 0.880395 -0.279842
vn -0.088905 0.640186 0.763058
vn 0.303096 -0.724250 -0.619351
vn -0.222039 0.165410 -0.960905
vn 0.233090 -0.717387 -0.656525
vn 0.432346 -0.876373 -0.212243
vn 0.285134 -0.795926 -0.534042
vn 0.437648 -0.875928 -0.203015
vn 0.442326 -0.874354 -0.199634
vn -0.788807 -0.527780 0.315009
vn -0.788807 -0.527780 0.315009
vn -0.222039 0.165410 -0.960905
vn 0.719982 0.340452 0.604747
vn -0.589921 0.774046 0.229880
vn 0.719982 0.340452 0.604747
vn 0.719982 0.340452 0.604747
vn -0.682681 0.665041 0.302765
vn 0.721826 0.641523 -0.259645
vn 0.721826 0.641523 -0.259645
vn -0.835233 -0.265414 -0.481602
vn 0.721948 0.641350 -0.259735
vn -0.726175 -0.348900 -0.592401
vn 0.629952 -0.763287 -0.143363
vn 0.539366 -0.833803 -0.117715
vn 0.556236 -0.826116 -0.090194
vn -0.528345 0.807240 0.263088
vn -0.726291 -0.348570 -0.592452
vn -0.627455 0.713932 0.310806
vn -0.726291 -0.348570 -0.592452
vn 0.465796 0.502808 0.728161
vn 0.465796 0.502808 0.728161
vn 0.421385 0.501287 0.755742
vn 0.721704 0.641697 -0.259556
vn 0.550259 -0.819586 -0.159667
vn 0.470070 -0.871026 -0.142646
vn -0.549990 0.787046 0.279410
vn -0.264544 0.158696 -0.951227
vn -0.266256 0.159545 -0.950607
vn -0.726407 -0.348241 -0.592504
vn -0.644623 0.703083 0.300224
vn -0.265400 0.159121 -0.950917
vn -0.662587 0.696221 0.276141
vn -0.265400 0.159121 -0.950917
vn -0.645805 0.716551 0.263611
vn -0.835067 -0.266228 -0.481441
vn -0.390360 0.907193 0.156904
vn -0.437609 0.875982 0.202863
vn 0.715069 0.147986 0.683210
vn 0.286185 -0.142793 0.947475
vn 0.286422 -0.142939 0.947381
vn -0.461687 -0.150689 -0.874150
vn -0.178443 0.178290 -0.967663
vn -0.178443 0.178290 -0.967663
vn -0.586948 -0.498507 -0.637952
vn -0.537829 -0.574777 -0.616743
vn -0.586948 -0.498507 -0.637952
vn -0.835067 -0.266228 -0.481441
vn -0.834900 -0.267041 -0.481280
vn -0.441965 0.874604 0.199334
vn -0.451328 0.864658 0.220613
vn 0.524414 0.003075 0.851458
vn -0.177274 0.178101 -0.967912
vn -0.677069 -0.702688 0.218650
vn -0.677069 -0.702688 0.218650
vn -0.506341 0.817352 -0.274872
vn -0.188229 0.804941 0.562708
vn 0.444610 0.879653 -0.168916
vn 0.590133 -0.773878 -0.229904
vn 0.557135 -0.816222 -0.152913
vn 0.474075 -0.869834 -0.136538
vn 0.538340 0.795936 0.276904
vn -0.248321 0.676266 -0.693542
vn 0.034582 0.822093 0.568301
vn -0.513958 0.845694 0.143699
vn 0.637238 -0.759854 -0.128646
vn 0.649118 -0.674168 0.352340
vn 0.683296 -0.619625 0.386227
vn 0.462488 0.869684 -0.172494
vn 0.063193 0.766947 0.638591
vn -0.492782 0.782080 -0.381467
vn -0.296296 0.955090 0.003379
vn -0.110527 0.557959 -0.822475
vn -0.015510 0.648996 -0.760633
vn 0.436528 0.896349 0.077470
vn 0.169061 0.887186 -0.429324
vn 0.157527 0.970445 -0.182816
vn -0.312342 0.928169 0.202350
vn -0.178218 0.846179 -0.502214
vn -0.525677 0.805687 0.273004
vn -0.833360 -0.547102 0.078673
vn 0.715216 0.148112 0.683030
vn -0.451328 0.864658 0.220613
vn -0.834971 -0.266697 -0.481349
vn -0.794447 -0.603193 0.070795
vn -0.726175 -0.348900 -0.592401
vn 0.721676 0.641700 -0.259624
vn 0.372288 0.852935 -0.365929
vn -0.703743 0.633650 -0.321301
vn 0.418037 0.907383 -0.043603
vn 0.286593 -0.141923 0.947482
vn 0.524483 0.003790 0.851412
vn 0.285575 -0.141295 0.947883
vn -0.676492 0.673012 -0.299021
vn 0.547074 -0.830477 -0.104967
vn 0.558191 -0.827077 -0.066079
vn -0.578299 0.745613 -0.331107
vn -0.306382 0.920383 0.242951
vn -0.726489 -0.348010 -0.592540
vn -0.726801 -0.347122 -0.592678
vn -0.726489 -0.348010 -0.592540
vn -0.390360 0.907193 0.156904
vn -0.437609 0.875982 0.202863
vn -0.441965 0.874604 0.199334
vn -0.589931 0.774053 0.229832
vn -0.418404 0.728394 -0.542568
vn -0.427317 0.718224 -0.549140
vn 0.380421 0.919880 0.095395
vn 0.009771 0.743914 0.668204
vn 0.617428 0.715888 0.326018
vn -0.543914 0.788048 0.288335
vn 0.054304 0.855825 0.514407
vn -0.598166 0.786828 -0.151983
vn 0.265012 0.963321 0.042203
vn 0.716637 0.696525 0.035831
vn -0.781563 -0.581696 0.225365
vn -0.811883 -0.564949 0.147237
vn 0.670883 -0.475085 0.569394
vn 0.721676 0.641700 -0.259624
vn -0.770262 -0.616486 -0.163222
vn 0.324054 -0.421630 0.846887
vn -0.710314 -0.689954 -0.139347
vn -0.734180 -0.678950 -0.002689
vn 0.594205 -0.543003 0.593354
vn -0.707953 -0.703777 0.059165
vn 0.562447 -0.604645 0.563966
vn -0.440973 0.776429 -0.450223
vn -0.463458 0.827198 -0.317725
vn -0.821804 -0.564328 0.078561
vn -0.688953 0.000551 0.724805
vn 0.476297 -0.559365 0.678419
vn 0.280432 -0.108903 0.953676
vn 0.792277 0.497971 -0.352593
vn 0.792536 0.497373 -0.352855
vn 0.792536 0.497373 -0.352855
vn 0.183999 -0.437921 0.879983
vn 0.943617 -0.270657 -0.190608
vn 0.712584 0.701174 0.024080
vn 0.613013 0.760954 0.212520
vn 0.662848 0.736526 0.134767
vn 0.313406 0.743541 0.590697
vn -0.342255 0.837387 0.426199
vn -0.762749 -0.643084 0.068249
vn 0.539140 -0.552322 0.635821
vn 0.769254 -0.285427 -0.571647
vn -0.834707 -0.267978 -0.481094
vn 0.218170 0.112551 -0.969399
vn 0.218170 0.112551 -0.969399
vn -0.655126 -0.746182 -0.118416
vn -0.194952 0.609493 -0.768448
vn 0.257552 -0.430573 0.865028
vn 0.627648 0.752936 0.197851
vn 0.461534 0.824662 0.326983
vn 0.771564 -0.284751 -0.568863
vn 0.771564 -0.284751 -0.568863
vn 0.774884 -0.283768 -0.564828
vn 0.945795 -0.268173 -0.183179
vn 0.944516 -0.269642 -0.187569
vn -0.112968 0.007922 0.993567
vn 0.944516 -0.269642 -0.187569
vn -0.738352 0.645599 -0.195033
vn -0.717777 0.543033 0.435788
vn 0.666294 -0.589770 0.456315
vn -0.779623 0.616553 -0.109775
vn 0.318341 -0.151770 0.935748
vn 0.308524 -0.486916 0.817145
vn 0.246029 0.112394 -0.962724
vn 0.201538 0.112600 -0.972987
vn -0.753005 -0.183429 0.631932
vn -0.656106 -0.730605 -0.189051
vn -0.189953 0.620377 -0.760954
vn -0.915396 0.010797 0.402411
vn -0.179247 0.178421 -0.967490
vn -0.179430 0.178450 -0.967451
vn -0.179430 0.178450 -0.967451
vn 0.626965 0.749925 0.211017
vn -0.323030 0.740041 -0.589908
vn -0.545798 -0.819980 -0.172447
vn 0.680304 -0.732927 0.002059
vn 0.770608 -0.617747 -0.156694
vn -0.721264 -0.642536 0.258699
vn -0.222087 0.166410 -0.960721
vn -0.721264 -0.642536 0.258699
vn -0.788028 -0.553444 -0.269651
vn 0.828865 0.260807 0.494937
vn -0.576661 0.816818 0.016456
vn 0.720979 0.340190 0.603705
vn 0.720979 0.340190 0.603705
vn -0.747687 -0.654865 -0.110070
vn -0.050851 0.942823 -0.329392
vn 0.721676 0.641700 -0.259624
vn 0.721676 0.641700 -0.259624
vn 0.426294 0.795589 -0.430478
vn -0.141364 0.579165 -0.802860
vn -0.377618 0.690536 0.616899
vn -0.390470 0.664086 0.637591
vn -0.365200 0.714384 0.596896
vn 0.650598 0.742080 -0.161367
vn -0.638945 0.705446 0.306751
vn 0.828411 0.261268 0.495454
vn -0.679495 0.665629 0.308586
vn 0.603497 0.769395 0.209336
vn -0.621236 0.715347 0.319913
vn 0.720979 0.340190 0.603705
vn 0.563970 -0.787364 0.248988
vn -0.548082 0.825902 -0.132261
vn -0.252249 0.836819 -0.485906
vn -0.299631 0.325030 -0.896982
vn 0.542870 -0.032676 -0.839181
vn 0.627823 0.404499 0.664996
vn 0.589515 -0.794850 -0.143827
vn 0.724717 -0.676851 -0.129066
vn 0.627823 0.404499 0.664996
vn 0.627823 0.404499 0.664996
vn -0.587263 -0.497976 -0.638076
vn 0.637741 0.742978 -0.203149
vn 0.637741 0.742978 -0.203149
vn 0.700176 -0.677218 -0.226119
vn -0.377618 0.690536 0.616899
vn -0.793541 -0.496178 0.352280
vn -0.793272 -0.496778 0.352038
vn -0.793004 -0.497377 0.351797
vn -0.304457 0.133672 -0.943100
vn -0.304191 0.133526 -0.943207
vn -0.303925 0.133380 -0.943313
vn -0.304191 0.133526 -0.943207
vn 0.685530 0.695727 0.214505
vn 0.765013 0.606299 0.217155
vn 0.682848 0.682464 0.260694
vn 0.699157 -0.712585 -0.058324
vn 0.596276 -0.794415 0.115581
vn 0.594754 -0.750673 -0.287676
vn -0.525527 -0.839683 -0.136942
vn -0.536983 -0.832821 -0.134381
vn -0.611921 0.779122 -0.136095
vn 0.389752 0.907504 -0.156622
vn -0.609057 0.469586 -0.639170
vn -0.704092 0.657769 -0.267572
vn -0.793272 -0.496778 0.352038
vn -0.773451 -0.580362 -0.254859
vn 0.697051 -0.701631 0.147761
vn 0.657545 -0.750834 0.062312
vn 0.680428 -0.728276 0.081435
vn 0.452822 0.888842 0.070089
vn -0.652132 0.748994 -0.117182
vn -0.660836 0.722805 -0.202111
vn 0.413068 0.909044 -0.054891
vn -0.016242 0.616692 -0.787037
vn -0.660342 0.696746 0.280167
vn -0.645000 0.715606 0.268109
vn -0.432852 0.876099 0.212344
vn 0.637741 0.742978 -0.203149
vn -0.222087 0.166410 -0.960721
vn -0.721264 -0.642536 0.258699
vn -0.728009 0.614209 0.304548
vn -0.676783 -0.702964 0.218647
vn -0.777774 0.556918 0.291392
vn 0.326514 -0.403360 -0.854804
vn -0.743154 0.602153 0.291777
vn -0.676783 -0.702964 0.218647
vn -0.558811 -0.805764 -0.196148
vn -0.564002 0.823731 -0.058038
vn 0.666150 -0.741102 -0.083737
vn -0.700722 0.676595 0.226293
vn 0.159035 0.624292 0.764831
vn 0.065142 0.636677 0.768374
vn -0.582052 -0.633272 -0.510081
vn 0.116264 0.630654 0.767306
vn 0.116264 0.630654 0.767306
vn -0.791028 -0.450591 -0.413814
vn -0.790468 -0.344657 -0.506332
vn -0.602631 0.797797 0.018851
vn 0.637741 0.742978 -0.203149
vn 0.656912 -0.738549 -0.151695
vn 0.645558 -0.755633 -0.110787
vn -0.587263 -0.497976 -0.638076
vn -0.538480 -0.573843 -0.617044
vn -0.223020 0.166706 -0.960454
vn -0.436751 0.873368 0.215585
vn -0.221154 0.166114 -0.960987
vn 0.792794 0.496775 -0.353117
vn 0.437520 -0.876006 -0.202954
vn -0.676783 -0.702964 0.218647
vn -0.835233 -0.265414 -0.481602
vn 0.436297 -0.873609 -0.215528
vn -0.461687 -0.150689 -0.874150
vn 0.432346 -0.876373 -0.212243
vn 0.451028 -0.864815 -0.220608
vn 0.390559 -0.907070 -0.157124
vn 0.442128 -0.874475 -0.199543
vn -0.834971 -0.266697 -0.481349
f 60/60/60 37/37/37 36/36/36
f 224/224/224 193/193/193 194/194/194
f 288/288/288 262/262/262 287/287/287
f 2/2/2 1/1/1 3/3/3
f 290/290/290 292/292/292 293/293/293
f 20/20/20 341/341/341 340/340/340
f 23/23/23 18/18/18 19/19/19
f 6/6/6 4/4/4 27/27/27
f 27/27/27 4/4/4 25/25/25
f 26/26/26 27/27/27 25/25/25
f 5/5/5 41/41/41 7/7/7
f 7/7/7 41/41/41 39/39/39
f 40/40/40 39/39/39 41/41/41
f 9/9/9 16/16/16 8/8/8
f 8/8/8 16/16/16 15/15/15
f 14/14/14 15/15/15 16/16/16
f 10/10/10 12/12/12 11/11/11
f 11/11/11 12/12/12 24/24/24
f 24/24/24 13/13/13 11/11/11
f 43/43/43 42/42/42 46/46/46
f 46/46/46 42/42/42 17/17/17
f 47/47/47 54/54/54 60/60/60
f 52/52/52 54/54/54 47/47/47
f 62/62/62 44/44/44 65/65/65
f 65/65/65 63/63/63 62/62/62
f 62/62/62 63/63/63 64/64/64
f 67/67/67 45/45/45 49/49/49
f 67/67/67 49/49/49 48/48/48
f 48/48/48 49/49/49 51/51/51
f 48/48/48 51/51/51 55/55/55
f 50/50/50 53/53/53 74/74/74
f 74/74/74 76/76/76 50/50/50
f 50/50/50 76/76/76 66/66/66
f 66/66/66 76/76/76 38/38/38
f 75/75/75 56/56/56 57/57/57
f 57/57/57 56/56/56 58/58/58
f 77/77/77 308/308/308 307/307/307
f 307/307/307 308/308/308 309/309/309
f 101/101/101 115/115/115 59/59/59
f 113/113/113 115/115/115 101/101/101
f 113/113/113 114/114/114 115/115/115
f 61/61/61 118/118/118 78/78/78
f 78/78/78 118/118/118 96/96/96
f 96/96/96 118/118/118 94/94/94
f 94/94/94 118/118/118 100/100/100
f 118/118/118 119/119/119 100/100/100
f 97/97/97 100/100/100 119/119/119
f 95/95/95 100/100/100 97/97/97
f 119/119/119 118/118/118 102/102/102
f 103/103/103 121/121/121 123/123/123
f 123/123/123 121/121/121 147/147/147
f 111/111/111 105/105/105 112/112/112
f 99/99/99 105/105/105 111/111/111
f 99/99/99 116/116/116 105/105/105
f 145/145/145 108/108/108 110/110/110
f 146/146/146 108/108/108 145/145/145
f 145/145/145 144/144/144 146/146/146
f 104/104/104 107/107/107 109/109/109
f 106/106/106 107/107/107 104/104/104
f 117/117/117 106/106/106 104/104/104
f 137/137/137 28/28/28 98/98/98
f 138/138/138 28/28/28 137/137/137
f 31/31/31 28/28/28 138/138/138
f 29/29/29 28/28/28 31/31/31
f 30/30/30 28/28/28 29/29/29
f 140/140/140 138/138/138 137/137/137
f 29/29/29 31/31/31 136/136/136
f 136/136/136 31/31/31 139/139/139
f 31/31/31 138/138/138 139/139/139
f 139/139/139 138/138/138 135/135/135
f 84/84/84 83/83/83 85/85/85
f 85/85/85 83/83/83 82/82/82
f 86/86/86 128/128/128 131/131/131
f 131/131/131 128/128/128 130/130/130
f 131/131/131 130/130/130 132/132/132
f 132/132/132 130/130/130 129/129/129
f 35/35/35 33/33/33 134/134/134
f 134/134/134 33/33/33 32/32/32
f 133/133/133 122/122/122 34/34/34
f 34/34/34 122/122/122 192/192/192
f 122/122/122 191/191/191 192/192/192
f 192/192/192 191/191/191 223/223/223
f 174/174/174 124/124/124 185/185/185
f 172/172/172 174/174/174 185/185/185
f 173/173/173 174/174/174 172/172/172
f 148/148/148 208/208/208 219/219/219
f 210/210/210 219/219/219 208/208/208
f 209/209/209 219/219/219 210/210/210
f 87/87/87 220/220/220 218/218/218
f 218/218/218 220/220/220 221/221/221
f 221/221/221 220/220/220 222/222/222
f 89/89/89 187/187/187 186/186/186
f 187/187/187 175/175/175 186/186/186
f 177/177/177 175/175/175 187/187/187
f 88/88/88 149/149/149 93/93/93
f 93/93/93 149/149/149 120/120/120
f 92/92/92 141/141/141 91/91/91
f 142/142/142 141/141/141 92/92/92
f 142/142/142 153/153/153 141/141/141
f 150/150/150 169/169/169 90/90/90
f 182/182/182 169/169/169 150/150/150
f 182/182/182 171/171/171 169/169/169
f 125/125/125 214/214/214 189/189/189
f 189/189/189 214/214/214 201/201/201
f 213/213/213 201/201/201 214/214/214
f 127/127/127 183/183/183 126/126/126
f 181/181/181 183/183/183 127/127/127
f 181/181/181 184/184/184 183/183/183
f 143/143/143 151/151/151 152/152/152
f 170/170/170 151/151/151 143/143/143
f 168/168/168 170/170/170 143/143/143
f 188/188/188 179/179/179 176/176/176
f 178/178/178 179/179/179 188/188/188
f 190/190/190 179/179/179 178/178/178
f 205/205/205 206/206/206 215/215/215
f 215/215/215 206/206/206 180/180/180
f 203/203/203 215/215/215 180/180/180
f 212/212/212 199/199/199 211/211/211
f 211/211/211 199/199/199 207/207/207
f 199/199/199 200/200/200 207/207/207
f 202/202/202 204/204/204 216/216/216
f 216/216/216 204/204/204 217/217/217
f 195/195/195 197/197/197 162/162/162
f 198/198/198 197/197/197 195/195/195
f 163/163/163 160/160/160 251/251/251
f 251/251/251 252/252/252 163/163/163
f 254/254/254 252/252/252 251/251/251
f 161/161/161 230/230/230 231/231/231
f 230/230/230 229/229/229 231/231/231
f 278/278/278 229/229/229 230/230/230
f 225/225/225 258/258/258 282/282/282
f 280/280/280 282/282/282 258/258/258
f 284/284/284 282/282/282 280/280/280
f 167/167/167 255/255/255 259/259/259
f 256/256/256 259/259/259 255/255/255
f 257/257/257 259/259/259 256/256/256
f 164/164/164 166/166/166 226/226/226
f 226/226/226 166/166/166 165/165/165
f 227/227/227 159/159/159 158/158/158
f 158/158/158 159/159/159 196/196/196
f 245/245/245 325/325/325 157/157/157
f 338/338/338 325/325/325 245/245/245
f 325/325/325 338/338/338 327/327/327
f 327/327/327 338/338/338 326/326/326
f 337/337/337 246/246/246 228/228/228
f 324/324/324 246/246/246 337/337/337
f 336/336/336 324/324/324 337/337/337
f 323/323/323 324/324/324 336/336/336
f 249/249/249 248/248/248 250/250/250
f 250/250/250 248/248/248 247/247/247
f 253/253/253 283/283/283 263/263/263
f 263/263/263 283/283/283 285/285/285
f 263/263/263 285/285/285 286/286/286
f 286/286/286 285/285/285 264/264/264
f 232/232/232 239/239/239 260/260/260
f 277/277/277 239/239/239 232/232/232
f 232/232/232 276/276/276 277/277/277
f 241/241/241 275/275/275 238/238/238
f 269/269/269 275/275/275 241/241/241
f 274/274/274 275/275/275 269/269/269
f 242/242/242 244/244/244 235/235/235
f 268/268/268 244/244/244 242/242/242
f 243/243/243 244/244/244 268/268/268
f 268/268/268 237/237/237 243/243/243
f 261/261/261 236/236/236 240/240/240
f 261/261/261 270/270/270 236/236/236
f 234/234/234 270/270/270 261/261/261
f 234/234/234 233/233/233 270/270/270
f 266/266/266 279/279/279 267/267/267
f 267/267/267 279/279/279 265/265/265
f 272/272/272 312/312/312 311/311/311
f 311/311/311 312/312/312 301/301/301
f 311/311/311 301/301/301 300/300/300
f 300/300/300 301/301/301 302/302/302
f 271/271/271 273/273/273 281/281/281
f 281/281/281 273/273/273 289/289/289
f 317/317/317 294/294/294 291/291/291
f 305/305/305 294/294/294 317/317/317
f 313/313/313 305/305/305 317/317/317
f 303/303/303 305/305/305 313/313/313
f 310/310/310 296/296/296 295/295/295
f 295/295/295 296/296/296 298/298/298
f 297/297/297 334/334/334 322/322/322
f 322/322/322 334/334/334 335/335/335
f 316/316/316 306/306/306 304/304/304
f 304/304/304 306/306/306 299/299/299
f 314/314/314 320/320/320 318/318/318
f 318/318/318 320/320/320 315/315/315
f 321/321/321 22/22/22 319/319/319
f 319/319/319 22/22/22 69/69/69
f 22/22/22 70/70/70 69/69/69
f 69/69/69 70/70/70 21/21/21
f 331/331/331 333/333/333 332/332/332
f 328/328/328 333/333/333 331/331/331
f 339/339/339 330/330/330 329/329/329
f 329/329/329 330/330/330 328/328/328
f 68/68/68 72/72/72 71/71/71
f 71/71/71 72/72/72 73/73/73
f 81/81/81 80/80/80 79/79/79
f 79/79/79 80/80/80 155/155/155
f 79/79/79 155/155/155 154/154/154
f 154/154/154 155/155/155 156/156/156
f 490/490/490 474/474/474 473/473/473
f 499/499/499 500/500/500 496/496/496
f 467/467/467 469/469/469 540/540/540
f 569/569/569 546/546/546 542/542/542
f 361/361/361 530/530/530 533/533/533
f 533/533/533 530/530/530 522/522/522
f 534/534/534 533/533/533 522/522/522
f 359/359/359 365/365/365 360/360/360
f 360/360/360 365/365/365 362/362/362
f 362/362/362 365/365/365 363/363/363
f 363/363/363 365/365/365 358/358/358
f 365/365/365 342/342/342 358/358/358
f 364/364/364 358/358/358 342/342/342
f 356/356/356 358/358/358 364/364/364
f 342/342/342 365/365/365 357/357/357
f 398/398/398 384/384/384 343/343/343
f 400/400/400 384/384/384 398/398/398
f 476/476/476 384/384/384 400/400/400
f 383/383/383 384/384/384 476/476/476
f 399/399/399 384/384/384 383/383/383
f 396/396/396 400/400/400 398/398/398
f 383/383/383 476/476/476 480/480/480
f 480/480/480 476/476/476 479/479/479
f 476/476/476 400/400/400 479/479/479
f 479/479/479 400/400/400 374/374/374
f 355/355/355 376/376/376 344/344/344
f 394/394/394 376/376/376 355/355/355
f 394/394/394 395/395/395 376/376/376
f 354/354/354 449/449/449 353/353/353
f 404/404/404 449/449/449 354/354/354
f 404/404/404 451/451/451 449/449/449
f 403/403/403 371/371/371 367/367/367
f 402/402/402 371/371/371 403/403/403
f 403/403/403 455/455/455 402/402/402
f 447/447/447 375/375/375 380/380/380
f 450/450/450 375/375/375 447/447/447
f 448/448/448 450/450/450 447/447/447
f 387/387/387 385/385/385 372/372/372
f 386/386/386 385/385/385 387/387/387
f 405/405/405 477/477/477 373/373/373
f 478/478/478 477/477/477 405/405/405
f 345/345/345 347/347/347 346/346/346
f 346/346/346 347/347/347 381/381/381
f 346/346/346 381/381/381 352/352/352
f 352/352/352 381/381/381 382/382/382
f 366/366/366 489/489/489 397/397/397
f 397/397/397 489/489/489 485/485/485
f 489/489/489 487/487/487 485/485/485
f 485/485/485 487/487/487 391/391/391
f 401/401/401 426/426/426 424/424/424
f 424/424/424 426/426/426 425/425/425
f 426/426/426 427/427/427 425/425/425
f 392/392/392 413/413/413 393/393/393
f 393/393/393 413/413/413 414/414/414
f 428/428/428 414/414/414 413/413/413
f 409/409/409 429/429/429 411/411/411
f 415/415/415 429/429/429 409/409/409
f 416/416/416 429/429/429 415/415/415
f 410/410/410 412/412/412 430/430/430
f 430/430/430 412/412/412 417/417/417
f 418/418/418 430/430/430 417/417/417
f 423/423/423 446/446/446 444/444/444
f 444/444/444 446/446/446 443/443/443
f 431/431/431 440/440/440 441/441/441
f 441/441/441 440/440/440 442/442/442
f 445/445/445 437/437/437 422/422/422
f 437/437/437 452/452/452 422/422/422
f 407/407/407 452/452/452 437/437/437
f 454/454/454 433/433/433 434/434/434
f 434/434/434 433/433/433 453/453/453
f 457/457/457 349/349/349 436/436/436
f 436/436/436 349/349/349 463/463/463
f 351/351/351 463/463/463 349/349/349
f 456/456/456 408/408/408 435/435/435
f 406/406/406 408/408/408 456/456/456
f 458/458/458 408/408/408 406/406/406
f 462/462/462 348/348/348 438/438/438
f 438/438/438 348/348/348 439/439/439
f 348/348/348 350/350/350 439/439/439
f 471/471/471 368/368/368 486/486/486
f 378/378/378 368/368/368 471/471/471
f 368/368/368 378/378/378 377/377/377
f 377/377/377 378/378/378 379/379/379
f 513/513/513 515/515/515 488/488/488
f 514/514/514 515/515/515 513/513/513
f 513/513/513 484/484/484 514/514/514
f 526/526/526 470/470/470 475/475/475
f 556/556/556 470/470/470 526/526/526
f 557/557/557 470/470/470 556/556/556
f 556/556/556 494/494/494 557/557/557
f 528/528/528 527/527/527 491/491/491
f 528/528/528 516/516/516 527/527/527
f 518/518/518 516/516/516 528/528/528
f 518/518/518 495/495/495 516/516/516
f 493/493/493 548/548/548 492/492/492
f 492/492/492 548/548/548 558/558/558
f 558/558/558 548/548/548 472/472/472
f 482/482/482 481/481/481 505/505/505
f 505/505/505 481/481/481 483/483/483
f 511/511/511 510/510/510 512/512/512
f 512/512/512 510/510/510 509/509/509
f 508/508/508 507/507/507 525/525/525
f 525/525/525 507/507/507 506/506/506
f 517/517/517 465/465/465 529/529/529
f 529/529/529 465/465/465 466/466/466
f 544/544/544 466/466/466 465/465/465
f 519/519/519 464/464/464 520/520/520
f 520/520/520 464/464/464 547/547/547
f 553/553/553 547/547/547 464/464/464
f 521/521/521 531/531/531 532/532/532
f 532/532/532 531/531/531 524/524/524
f 524/524/524 523/523/523 532/532/532
f 551/551/551 554/554/554 555/555/555
f 555/555/555 554/554/554 552/552/552
f 498/498/498 561/561/561 549/549/549
f 560/560/560 561/561/561 498/498/498
f 560/560/560 497/497/497 561/561/561
f 504/504/504 497/497/497 560/560/560
f 545/545/545 543/543/543 550/550/550
f 541/541/541 543/543/543 545/545/545
f 535/535/535 541/541/541 545/545/545
f 536/536/536 541/541/541 535/535/535
f 502/502/502 559/559/559 538/538/538
f 538/538/538 559/559/559 503/503/503
f 572/572/572 501/501/501 562/562/562
f 562/562/562 501/501/501 563/563/563
f 369/369/369 537/537/537 565/565/565
f 389/389/389 537/537/537 369/369/369
f 390/390/390 389/389/389 369/369/369
f 388/388/388 389/389/389 390/390/390
f 468/468/468 539/539/539 564/564/564
f 566/566/566 539/539/539 468/468/468
f 570/570/570 577/577/577 370/370/370
f 370/370/370 577/577/577 432/432/432
f 461/461/461 460/460/460 572/572/572
f 459/459/459 460/460/460 461/461/461
f 567/567/567 421/421/421 420/420/420
f 420/420/420 421/421/421 419/419/419
f 571/571/571 573/573/573 574/574/574
f 574/574/574 573/573/573 568/568/568
f 574/574/574 568/568/568 576/576/576
f 576/576/576 568/568/568 575/575/575
