# Exported by s4extract — object_Food_PlateFork_Multi_lod00_g02
o object_Food_PlateFork_Multi_lod00_g02
v -0.058443 0.041963 -0.115299
v 0.059359 0.039735 0.114902
v 0.112888 0.039735 0.099612
v 0.000000 0.039735 0.123142
v 0.152989 0.041963 0.071261
v -0.112888 0.039735 0.099551
v 0.155370 0.039735 0.072390
v 0.152989 0.041963 0.071261
v -0.111148 0.041963 0.097873
v 0.179846 0.041963 0.037477
v -0.155370 0.039735 0.072024
v -0.111148 0.041963 0.097873
v -0.058443 0.041963 0.115299
v -0.152989 0.041963 0.070406
v -0.179846 0.041963 -0.037477
v -0.182653 0.039735 -0.038057
v 0.058443 0.041963 0.112278
v 0.111148 0.041963 0.098086
v 0.112888 0.039735 0.099612
v 0.111148 0.041963 0.098086
v -0.112888 0.039735 -0.099612
v 0.179846 0.041963 -0.037477
v -0.152989 0.041963 0.070406
v -0.179846 0.041963 0.037477
v -0.189093 0.041963 0.000000
v -0.058443 0.041963 -0.115299
v 0.000000 0.007538 -0.073611
v 0.000000 0.041963 -0.121250
v 0.152989 0.041963 -0.071261
v -0.179846 0.041963 0.037477
v -0.059359 0.039735 0.117100
v 0.114841 0.007538 0.000000
v 0.082888 0.000000 -0.053163
v 0.155370 0.039735 -0.072390
v 0.059359 0.039735 -0.117100
v 0.000000 0.041963 -0.121250
v 0.182653 0.039735 -0.038057
v 0.111148 0.041963 -0.098086
v 0.058443 0.041963 -0.115299
v 0.059359 0.039735 -0.117100
v 0.189093 0.041963 0.000000
v 0.179846 0.041963 -0.037477
v -0.111148 0.041963 0.097873
v 0.000000 0.041963 0.121250
v 0.189093 0.041963 0.000000
v 0.192053 0.039735 0.000000
v 0.112888 0.039735 -0.099612
v 0.179846 0.041963 0.037477
v 0.182653 0.039735 0.038057
v 0.058443 0.041963 0.112278
v 0.082888 0.000000 0.053163
v 0.059359 0.039735 0.114902
v 0.000000 0.041963 0.121250
v 0.000000 0.000000 -0.073611
v 0.000000 0.039735 0.123142
v -0.058443 0.041963 0.115299
v -0.189093 0.041963 0.000000
v -0.111148 0.041963 -0.098086
v -0.152989 0.041963 -0.071261
v -0.179846 0.041963 -0.037477
v -0.155370 0.039735 -0.072390
v -0.152989 0.041963 -0.071261
v 0.000000 0.041963 -0.121250
v 0.058443 0.041963 -0.115299
v -0.059359 0.039735 -0.117100
v 0.000000 0.039735 -0.123142
v 0.000000 0.039735 -0.123142
v 0.155370 0.039735 0.072390
v 0.000000 0.000000 0.073611
v -0.111148 0.041963 -0.098086
v 0.192053 0.039735 0.000000
v -0.192053 0.039735 0.000000
v -0.182653 0.039735 0.038057
v -0.155370 0.039735 0.072024
v -0.182653 0.039735 -0.038057
v -0.114841 0.000000 0.000000
v -0.155370 0.039735 -0.072390
v 0.112888 0.039735 -0.099612
v -0.112888 0.039735 -0.099612
v -0.082888 0.000000 -0.053163
v -0.112888 0.039735 0.099551
v 0.182653 0.039735 -0.038057
v -0.059359 0.039735 0.117100
v -0.058443 0.041963 -0.115299
v -0.179846 0.041963 0.037477
v 0.058443 0.041963 -0.115299
v 0.111148 0.041963 -0.098086
v -0.111148 0.041963 -0.098086
v 0.152989 0.041963 0.071261
v -0.059359 0.039735 -0.117100
v -0.192053 0.039735 0.000000
v 0.182653 0.039735 0.038057
v -0.082369 0.007538 -0.052797
v 0.111148 0.041963 -0.098086
v -0.182653 0.039735 0.038057
v 0.152989 0.041963 -0.071261
v 0.155370 0.039735 -0.072390
v 0.179846 0.041963 0.037477
v 0.189093 0.041963 0.000000
v -0.082369 0.007538 0.052797
v 0.114841 0.000000 0.000000
v -0.058443 0.041963 0.115299
v -0.082888 0.000000 0.053163
v -0.152989 0.041963 0.070406
v -0.189093 0.041963 0.000000
v -0.114841 0.007538 0.000000
v -0.179846 0.041963 -0.037477
v -0.152989 0.041963 -0.071261
v 0.082369 0.007538 -0.052797
v 0.058443 0.041963 0.112278
v 0.152989 0.041963 -0.071261
v 0.179846 0.041963 -0.037477
v 0.082369 0.007538 0.052797
v 0.000000 0.007538 0.073611
v 0.111148 0.041963 0.098086
v 0.000000 0.041963 0.121250
v 0.043733 0.039735 0.103916
v -0.043733 0.039735 0.105930
v -0.061098 0.000000 -0.048067
v -0.083193 0.039735 -0.090121
v 0.000000 0.039735 0.111393
v 0.112735 0.041963 0.064455
v -0.083193 0.039735 0.090060
v 0.114505 0.039735 0.065462
v 0.112735 0.041963 0.064455
v -0.081912 0.041963 0.088534
v 0.132511 0.041963 0.033876
v -0.114505 0.039735 0.065157
v -0.081912 0.041963 0.088534
v -0.043062 0.041963 0.104312
v -0.112735 0.041963 0.063692
v -0.132511 0.041963 -0.033876
v -0.134587 0.039735 -0.034425
v 0.043062 0.041963 0.101535
v 0.081912 0.041963 0.088717
v 0.083193 0.039735 0.090121
v 0.081912 0.041963 0.088717
v -0.083193 0.039735 -0.090121
v 0.132511 0.041963 -0.033876
v -0.112735 0.041963 0.063692
v -0.132511 0.041963 0.033876
v -0.134587 0.039735 0.034425
v -0.043733 0.039735 -0.105930
v 0.043062 0.041963 -0.104312
v 0.000000 0.007538 -0.066591
v 0.112735 0.041963 -0.064455
v -0.060701 0.007538 -0.047761
v 0.000000 0.041963 -0.109684
v 0.081912 0.041963 0.088717
v 0.000000 0.041963 -0.109684
v -0.132511 0.041963 0.033876
v -0.043062 0.041963 -0.104312
v 0.043062 0.041963 -0.104312
v 0.141514 0.039735 0.000000
v 0.132511 0.041963 -0.033876
v 0.081912 0.041963 -0.088717
v 0.000000 0.039735 -0.111393
v 0.134587 0.039735 -0.034425
v 0.139348 0.041963 0.000000
v 0.081912 0.041963 -0.088717
v 0.132511 0.041963 0.033876
v 0.134587 0.039735 0.034425
v 0.139348 0.041963 0.000000
v 0.114505 0.039735 -0.065462
v 0.000000 0.041963 0.109684
v 0.043062 0.041963 0.101535
v 0.043733 0.039735 0.103916
v -0.139348 0.041963 0.000000
v 0.000000 0.041963 0.109684
v -0.043062 0.041963 0.104312
v -0.141514 0.039735 0.000000
v -0.043733 0.039735 0.105930
v 0.000000 0.039735 0.111393
v -0.139348 0.041963 0.000000
v -0.081912 0.041963 -0.088717
v -0.112735 0.041963 -0.064455
v -0.132511 0.041963 -0.033876
v -0.114505 0.039735 -0.065462
v -0.112735 0.041963 -0.064455
v -0.043062 0.041963 -0.104312
v -0.081912 0.041963 -0.088717
v 0.000000 0.039735 -0.111393
v 0.043733 0.039735 -0.105930
v -0.043733 0.039735 -0.105930
v -0.134587 0.039735 -0.034425
v 0.083193 0.039735 0.090121
v -0.114505 0.039735 -0.065462
v -0.134587 0.039735 0.034425
v 0.043062 0.041963 -0.104312
v 0.043733 0.039735 -0.105930
v 0.083193 0.039735 -0.090121
v 0.061098 0.000000 -0.048067
v 0.114505 0.039735 -0.065462
v 0.134587 0.039735 -0.034425
v -0.114505 0.039735 0.065157
v 0.141514 0.039735 0.000000
v -0.081912 0.041963 -0.088717
v -0.084597 0.000000 0.000000
v 0.081912 0.041963 -0.088717
v -0.043062 0.041963 -0.104312
v -0.083193 0.039735 0.090060
v 0.000000 0.041963 -0.109684
v 0.114505 0.039735 0.065462
v 0.134587 0.039735 0.034425
v 0.000000 0.041963 0.109684
v 0.000000 0.000000 -0.066591
v -0.139348 0.041963 0.000000
v -0.141514 0.039735 0.000000
v 0.112735 0.041963 0.064455
v 0.112735 0.041963 -0.064455
v -0.081912 0.041963 0.088534
v 0.083193 0.039735 -0.090121
v 0.139348 0.041963 0.000000
v -0.060701 0.007538 0.047761
v 0.132511 0.041963 0.033876
v -0.112735 0.041963 0.063692
v -0.132511 0.041963 -0.033876
v -0.132511 0.041963 0.033876
v -0.084597 0.007538 0.000000
v -0.112735 0.041963 -0.064455
v 0.060701 0.007538 -0.047761
v 0.112735 0.041963 -0.064455
v 0.084597 0.007538 0.000000
v 0.132511 0.041963 -0.033876
v 0.060701 0.007538 0.047761
v 0.061098 0.000000 0.048067
v 0.043062 0.041963 0.101535
v 0.000000 0.007538 0.066591
v -0.043062 0.041963 0.104312
v 0.084597 0.000000 0.000000
v 0.000000 0.000000 0.066591
v -0.061098 0.000000 0.048067
vt 0.351773 0.965288
vt 0.658095 0.027490
vt 0.797338 0.098070
vt 0.503733 0.003152
vt 0.901596 0.212458
vt 0.210157 0.098070
vt 0.907832 0.207985
vt 0.901596 0.212458
vt 0.214660 0.104245
vt 0.971476 0.348841
vt 0.099633 0.207985
vt 0.214660 0.104245
vt 0.351773 0.034761
vt 0.105870 0.212458
vt 0.036020 0.651178
vt 0.028688 0.653551
vt 0.655723 0.034761
vt 0.792806 0.104245
vt 0.797338 0.098070
vt 0.792806 0.104245
vt 0.210157 0.901979
vt 0.971476 0.651178
vt 0.105870 0.212458
vt 0.036020 0.348841
vt 0.011926 0.500009
vt 0.351773 0.965288
vt 0.503733 0.797053
vt 0.503733 0.989231
vt 0.901596 0.787561
vt 0.036020 0.348841
vt 0.349400 0.027490
vt 0.802358 0.500009
vt 0.720127 0.711140
vt 0.907832 0.792063
vt 0.658095 0.972559
vt 0.503733 0.989231
vt 0.978777 0.653551
vt 0.792806 0.895773
vt 0.655723 0.965288
vt 0.658095 0.972559
vt 0.988025 0.500009
vt 0.971476 0.651178
vt 0.214660 0.104245
vt 0.503733 0.010818
vt 0.988025 0.500009
vt 0.995722 0.500009
vt 0.797338 0.901979
vt 0.971476 0.348841
vt 0.978777 0.346468
vt 0.655723 0.034761
vt 0.720157 0.288818
vt 0.658095 0.027490
vt 0.503733 0.010818
vt 0.503733 0.792489
vt 0.503733 0.003152
vt 0.351773 0.034761
vt 0.011926 0.500009
vt 0.214660 0.895773
vt 0.105870 0.787561
vt 0.036020 0.651178
vt 0.099633 0.792063
vt 0.105870 0.787561
vt 0.503733 0.989231
vt 0.655723 0.965288
vt 0.349400 0.972559
vt 0.503733 0.996867
vt 0.503733 0.996867
vt 0.907832 0.207985
vt 0.503763 0.207529
vt 0.214660 0.895773
vt 0.995722 0.500009
vt 0.004259 0.500009
vt 0.028688 0.346468
vt 0.099633 0.207985
vt 0.028688 0.653551
vt 0.204012 0.500040
vt 0.099633 0.792063
vt 0.797338 0.901979
vt 0.210157 0.901979
vt 0.287339 0.711201
vt 0.210157 0.098070
vt 0.978777 0.653551
vt 0.349400 0.027490
vt 0.351773 0.965288
vt 0.036020 0.348841
vt 0.655723 0.965288
vt 0.792806 0.895773
vt 0.214660 0.895773
vt 0.901596 0.212458
vt 0.349400 0.972559
vt 0.004259 0.500009
vt 0.978777 0.346468
vt 0.289529 0.713087
vt 0.792806 0.895773
vt 0.028688 0.346468
vt 0.901596 0.787561
vt 0.907832 0.792063
vt 0.971476 0.348841
vt 0.988025 0.500009
vt 0.289529 0.286931
vt 0.803484 0.499979
vt 0.351773 0.034761
vt 0.287369 0.288878
vt 0.105870 0.212458
vt 0.011926 0.500009
vt 0.205107 0.500009
vt 0.036020 0.651178
vt 0.105870 0.787561
vt 0.717967 0.713087
vt 0.655723 0.034761
vt 0.901596 0.787561
vt 0.971476 0.651178
vt 0.717967 0.286931
vt 0.503733 0.202966
vt 0.792806 0.104245
vt 0.503733 0.010818
vt 0.658095 0.027490
vt 0.349400 0.027490
vt 0.290381 0.714700
vt 0.210157 0.901979
vt 0.503733 0.003152
vt 0.901596 0.212458
vt 0.210157 0.098070
vt 0.907832 0.207985
vt 0.901596 0.212458
vt 0.214660 0.104245
vt 0.971476 0.348841
vt 0.099633 0.207985
vt 0.214660 0.104245
vt 0.351773 0.034761
vt 0.105870 0.212458
vt 0.036020 0.651178
vt 0.028688 0.653551
vt 0.655723 0.034761
vt 0.792806 0.104245
vt 0.797338 0.098070
vt 0.792806 0.104245
vt 0.210157 0.901979
vt 0.971476 0.651178
vt 0.105870 0.212458
vt 0.036020 0.348841
vt 0.028688 0.346468
vt 0.349400 0.972559
vt 0.655723 0.965288
vt 0.503733 0.797053
vt 0.901596 0.787561
vt 0.289529 0.713087
vt 0.503733 0.989231
vt 0.792806 0.104245
vt 0.503733 0.989231
vt 0.036020 0.348841
vt 0.351773 0.965288
vt 0.655723 0.965288
vt 0.995722 0.500009
vt 0.971476 0.651178
vt 0.792806 0.895773
vt 0.503733 0.996867
vt 0.978777 0.653551
vt 0.988025 0.500009
vt 0.792806 0.895773
vt 0.971476 0.348841
vt 0.978777 0.346468
vt 0.988025 0.500009
vt 0.907832 0.792063
vt 0.503733 0.010818
vt 0.655723 0.034761
vt 0.658095 0.027490
vt 0.011926 0.500009
vt 0.503733 0.010818
vt 0.351773 0.034761
vt 0.004259 0.500009
vt 0.349400 0.027490
vt 0.503733 0.003152
vt 0.011926 0.500009
vt 0.214660 0.895773
vt 0.105870 0.787561
vt 0.036020 0.651178
vt 0.099633 0.792063
vt 0.105870 0.787561
vt 0.351773 0.965288
vt 0.214660 0.895773
vt 0.503733 0.996867
vt 0.658095 0.972559
vt 0.349400 0.972559
vt 0.028688 0.653551
vt 0.797338 0.098070
vt 0.099633 0.792063
vt 0.028688 0.346468
vt 0.655723 0.965288
vt 0.658095 0.972559
vt 0.797338 0.901979
vt 0.717054 0.714669
vt 0.907832 0.792063
vt 0.978777 0.653551
vt 0.099633 0.207985
vt 0.995722 0.500009
vt 0.214660 0.895773
vt 0.208241 0.500040
vt 0.792806 0.895773
vt 0.351773 0.965288
vt 0.210157 0.098070
vt 0.503733 0.989231
vt 0.907832 0.207985
vt 0.978777 0.346468
vt 0.503733 0.010818
vt 0.503733 0.797327
vt 0.011926 0.500009
vt 0.004259 0.500009
vt 0.901596 0.212458
vt 0.901596 0.787561
vt 0.214660 0.104245
vt 0.797338 0.901979
vt 0.988025 0.500009
vt 0.289529 0.286931
vt 0.971476 0.348841
vt 0.105870 0.212458
vt 0.036020 0.651178
vt 0.036020 0.348841
vt 0.205107 0.500009
vt 0.105870 0.787561
vt 0.717967 0.713087
vt 0.901596 0.787561
vt 0.802358 0.500009
vt 0.971476 0.651178
vt 0.717967 0.286931
vt 0.717084 0.285349
vt 0.655723 0.034761
vt 0.503733 0.202966
vt 0.351773 0.034761
vt 0.799225 0.499979
vt 0.503763 0.202692
vt 0.290411 0.285380
vn -0.231225 0.667262 -0.708023
vn 0.132370 -0.797012 0.589279
vn 0.238184 -0.808645 0.537924
vn 0.011581 -0.779972 0.625708
vn 0.381453 0.707339 0.595118
vn -0.317385 0.731784 0.603124
vn 0.470072 0.743023 0.476392
vn 0.513193 0.755117 0.407959
vn -0.229214 0.680227 0.696242
vn 0.513640 0.754660 0.408243
vn -0.443025 0.773445 0.453334
vn -0.376894 0.726855 0.574136
vn -0.233755 0.667470 0.706995
vn -0.362978 0.747326 0.556552
vn -0.596002 0.789402 -0.147059
vn -0.572303 0.784364 -0.239254
vn 0.162860 0.779502 0.604858
vn 0.382024 0.706411 0.595853
vn 0.323431 0.694205 0.643018
vn 0.183778 0.726399 0.662247
vn -0.330732 0.696003 -0.637336
vn 0.513640 0.754660 -0.408243
vn -0.475500 0.789625 0.387804
vn -0.493896 0.772203 0.399713
vn -0.595392 0.789876 0.146984
vn -0.077355 0.645570 -0.759773
vn -0.000000 0.883630 0.468185
vn 0.000000 0.810529 0.585699
vn 0.513193 0.755117 -0.407959
vn 0.371428 0.908716 -0.190464
vn -0.178340 0.670672 0.719996
vn -0.135883 0.990725 -0.000000
vn 0.162502 -0.943256 -0.289587
vn 0.372206 -0.867495 -0.330024
vn 0.130408 -0.803715 -0.580548
vn 0.077380 0.645404 -0.759912
vn 0.572303 0.784364 -0.239254
vn -0.229365 0.839587 0.492428
vn -0.122349 0.833769 0.538387
vn 0.179157 0.661568 -0.728170
vn 0.595392 0.789876 -0.146984
vn 0.596002 0.789402 -0.147059
vn 0.233445 0.838920 -0.491647
vn 0.116223 0.642958 0.757032
vn 0.595392 0.789876 0.146984
vn 0.601317 0.799010 0.000000
vn 0.330732 0.696003 -0.637336
vn 0.596002 0.789402 0.147059
vn 0.572303 0.784364 0.239254
vn 0.100572 0.718408 0.688313
vn 0.160864 -0.942765 0.292091
vn 0.148086 0.745286 0.650092
vn -0.077380 0.645404 0.759912
vn 0.000000 -0.858287 -0.513169
vn 0.016083 0.687402 0.726099
vn -0.077355 0.645570 0.759773
vn -0.595392 0.789876 -0.146984
vn -0.382024 0.706411 -0.595853
vn -0.381453 0.707339 -0.595118
vn -0.513640 0.754660 -0.408243
vn -0.470072 0.743023 -0.476392
vn -0.513193 0.755117 -0.407959
vn -0.077380 0.645404 -0.759912
vn 0.077355 0.645570 -0.759773
vn -0.179157 0.661568 -0.728170
vn 0.000000 0.647510 -0.762057
vn 0.000000 -0.780024 -0.625749
vn 0.372206 -0.867495 0.330024
vn 0.003992 -0.856080 0.516828
vn -0.231393 0.666777 -0.708425
vn 0.457586 -0.889165 0.000000
vn -0.457586 -0.889165 0.000000
vn -0.405725 -0.890329 0.206645
vn -0.372826 -0.866951 0.330751
vn -0.406175 -0.890313 -0.205827
vn -0.211990 -0.977272 0.000000
vn -0.372206 -0.867495 -0.330024
vn 0.247890 -0.809431 -0.532328
vn -0.247890 -0.809431 -0.532328
vn -0.115651 -0.971673 -0.206096
vn -0.249649 -0.809269 0.531751
vn 0.406175 -0.890313 -0.205827
vn -0.130597 -0.803658 0.580584
vn 0.122349 0.833769 0.538387
vn -0.596002 0.789402 0.147059
vn 0.231225 0.667262 -0.708023
vn 0.231393 0.666777 -0.708425
vn 0.229365 0.839587 0.492428
vn -0.340625 0.889741 -0.303867
vn -0.130408 -0.803715 -0.580548
vn -0.601317 0.799010 0.000000
vn 0.406175 -0.890313 0.205827
vn 0.102139 0.978020 0.181784
vn 0.382024 0.706411 -0.595853
vn -0.572098 0.784295 0.239969
vn 0.381453 0.707339 -0.595118
vn 0.470072 0.743023 -0.476392
vn -0.372431 0.908676 -0.188688
vn -0.420618 0.907238 0.000000
vn 0.102932 0.977920 -0.181875
vn 0.155003 -0.987914 0.000000
vn 0.122977 0.833582 -0.538533
vn -0.116022 -0.971624 0.206120
vn 0.342016 0.888585 -0.305684
vn 0.420618 0.907238 0.000000
vn 0.186673 0.982422 -0.000000
vn 0.372431 0.908676 0.188688
vn 0.340625 0.889741 0.303867
vn -0.145126 0.955104 0.258291
vn -0.125167 0.825207 -0.550787
vn -0.340625 0.889741 0.303867
vn -0.372431 0.908676 0.188688
vn -0.143120 0.954551 -0.261435
vn -0.005077 0.880942 -0.473197
vn -0.216783 0.838634 -0.499698
vn -0.015138 0.810436 -0.585632
vn 0.171951 -0.762718 0.623454
vn -0.169850 -0.770102 0.614893
vn -0.155389 -0.961769 -0.225509
vn -0.318589 -0.766851 -0.557171
vn 0.015279 -0.748053 0.663464
vn 0.471609 0.647136 0.598999
vn -0.398162 0.679258 0.616503
vn 0.572905 0.669655 0.472591
vn 0.620232 0.674110 0.401108
vn -0.289973 0.633308 0.717521
vn 0.619664 0.674796 0.400833
vn -0.544713 0.705318 0.453668
vn -0.467743 0.666625 0.580369
vn -0.295825 0.617994 0.728404
vn -0.452641 0.689533 0.565385
vn -0.706470 0.693235 -0.142567
vn -0.683368 0.691953 -0.232828
vn 0.209806 0.742696 0.635912
vn 0.471033 0.648091 0.598419
vn 0.402808 0.641834 0.652529
vn 0.233834 0.686912 0.688094
vn -0.411608 0.642818 -0.646037
vn 0.619664 0.674796 -0.400833
vn -0.581792 0.715973 0.385877
vn -0.599731 0.696039 0.394782
vn -0.683173 0.691926 0.233479
vn -0.227299 0.618179 -0.752456
vn -0.160029 0.803439 0.573478
vn 0.000000 0.862905 0.505367
vn 0.620232 0.674110 -0.401108
vn 0.137545 0.970230 0.199337
vn -0.098487 0.605701 -0.789574
vn -0.281022 0.801371 -0.528045
vn 0.000000 0.781300 0.624155
vn -0.706470 0.693235 0.142567
vn 0.160029 0.803439 0.573478
vn 0.098639 0.604826 -0.790225
vn 0.716859 0.697219 0.000000
vn 0.706470 0.693235 -0.142567
vn -0.297174 0.801139 0.519485
vn 0.000000 -0.748140 -0.663541
vn 0.683368 0.691953 -0.232828
vn 0.708002 0.691647 -0.142676
vn 0.471033 0.648091 -0.598419
vn 0.706470 0.693235 0.142567
vn 0.683368 0.691953 0.232828
vn 0.708002 0.691647 0.142676
vn 0.572905 0.669655 -0.472591
vn 0.129745 0.681007 0.720691
vn 0.124702 0.741727 0.659008
vn 0.180587 0.684897 0.705907
vn 0.532288 0.846564 0.000000
vn -0.098487 0.605701 0.789574
vn -0.098639 0.604826 0.790225
vn -0.716859 0.697219 0.000000
vn -0.226766 0.626438 0.745756
vn -0.020413 0.607955 0.793709
vn -0.708002 0.691647 -0.142676
vn -0.471033 0.648091 -0.598419
vn -0.471609 0.647136 -0.598999
vn -0.619664 0.674796 -0.400833
vn -0.572905 0.669655 -0.472591
vn -0.620232 0.674110 -0.401108
vn -0.098639 0.604826 -0.790225
vn -0.291702 0.621114 -0.727412
vn 0.000000 0.607790 -0.794098
vn 0.227299 0.618179 -0.752456
vn -0.169582 -0.770183 -0.614866
vn -0.514337 -0.830918 -0.212209
vn 0.306322 -0.767022 0.563777
vn -0.472985 -0.812245 -0.341384
vn -0.513861 -0.831009 0.213005
vn 0.292875 0.617979 -0.729607
vn 0.169582 -0.770183 -0.614866
vn 0.318589 -0.766851 -0.557171
vn 0.216146 -0.924600 -0.313682
vn 0.472985 -0.812245 -0.341384
vn 0.514337 -0.830918 -0.212209
vn -0.473604 -0.811611 0.342032
vn 0.572429 -0.819954 0.000000
vn 0.297174 0.801139 0.519485
vn -0.282464 -0.959278 -0.000000
vn 0.291702 0.621114 -0.727412
vn -0.292875 0.617979 -0.729607
vn -0.320628 -0.766461 0.556539
vn 0.098487 0.605701 -0.789574
vn 0.472985 -0.812245 0.341384
vn 0.514337 -0.830918 0.212209
vn -0.020123 0.781142 -0.624029
vn 0.000000 -0.834346 -0.551242
vn -0.708002 0.691647 0.142676
vn -0.572429 -0.819954 0.000000
vn -0.437291 0.841410 -0.317498
vn 0.471609 0.647136 -0.598999
vn 0.302168 0.800042 -0.518294
vn 0.411608 0.642818 -0.646037
vn -0.532288 0.846564 0.000000
vn 0.138586 0.970065 -0.199418
vn -0.476528 0.856861 -0.196748
vn 0.438860 0.839946 -0.319206
vn 0.476528 0.856861 0.196748
vn 0.475362 0.857078 -0.198618
vn 0.249735 0.968314 0.000000
vn 0.437291 0.841410 0.317498
vn -0.193854 0.939942 0.280944
vn -0.437291 0.841410 0.317498
vn -0.182998 0.983113 -0.000000
vn -0.476528 0.856861 0.196748
vn -0.191144 0.939446 -0.284437
vn 0.213950 -0.924167 0.316450
vn -0.163499 0.793710 -0.585912
vn -0.006833 0.859791 -0.510600
vn 0.160795 0.803210 -0.573584
vn 0.208275 -0.978070 -0.000000
vn 0.005332 -0.831834 0.554999
vn -0.155847 -0.961690 0.225531
f 10/10/10 7/7/7 49/49/49
f 8/8/8 7/7/7 10/10/10
f 60/60/60 61/61/61 16/16/16
f 62/62/62 61/61/61 60/60/60
f 59/59/59 21/21/21 61/61/61
f 58/58/58 21/21/21 59/59/59
f 57/57/57 16/16/16 91/91/91
f 15/15/15 16/16/16 57/57/57
f 6/6/6 14/14/14 11/11/11
f 12/12/12 14/14/14 6/6/6
f 11/11/11 24/24/24 95/95/95
f 23/23/23 24/24/24 11/11/11
f 5/5/5 19/19/19 7/7/7
f 18/18/18 19/19/19 5/5/5
f 20/20/20 52/52/52 19/19/19
f 17/17/17 52/52/52 20/20/20
f 9/9/9 31/31/31 13/13/13
f 6/6/6 31/31/31 9/9/9
f 97/97/97 22/22/22 37/37/37
f 29/29/29 22/22/22 97/97/97
f 70/70/70 65/65/65 21/21/21
f 1/1/1 65/65/65 70/70/70
f 87/87/87 40/40/40 86/86/86
f 47/47/47 40/40/40 87/87/87
f 85/85/85 25/25/25 95/95/95
f 95/95/95 25/25/25 91/91/91
f 41/41/41 37/37/37 42/42/42
f 46/46/46 37/37/37 41/41/41
f 45/45/45 49/49/49 46/46/46
f 48/48/48 49/49/49 45/45/45
f 55/55/55 50/50/50 44/44/44
f 52/52/52 50/50/50 55/55/55
f 56/56/56 55/55/55 53/53/53
f 31/31/31 55/55/55 56/56/56
f 66/66/66 26/26/26 63/63/63
f 65/65/65 26/26/26 66/66/66
f 64/64/64 66/66/66 36/36/36
f 40/40/40 66/66/66 64/64/64
f 96/96/96 47/47/47 94/94/94
f 97/97/97 47/47/47 96/96/96
f 76/76/76 72/72/72 75/75/75
f 76/76/76 73/73/73 72/72/72
f 73/73/73 76/76/76 74/74/74
f 74/74/74 76/76/76 103/103/103
f 103/103/103 81/81/81 74/74/74
f 103/103/103 83/83/83 81/81/81
f 77/77/77 76/76/76 75/75/75
f 80/80/80 76/76/76 77/77/77
f 76/76/76 80/80/80 101/101/101
f 76/76/76 101/101/101 103/103/103
f 103/103/103 101/101/101 51/51/51
f 103/103/103 51/51/51 69/69/69
f 69/69/69 83/83/83 103/103/103
f 69/69/69 4/4/4 83/83/83
f 69/69/69 2/2/2 4/4/4
f 80/80/80 77/77/77 79/79/79
f 90/90/90 80/80/80 79/79/79
f 54/54/54 80/80/80 90/90/90
f 33/33/33 80/80/80 54/54/54
f 101/101/101 80/80/80 33/33/33
f 54/54/54 90/90/90 67/67/67
f 54/54/54 67/67/67 35/35/35
f 54/54/54 35/35/35 33/33/33
f 33/33/33 35/35/35 78/78/78
f 33/33/33 78/78/78 34/34/34
f 34/34/34 101/101/101 33/33/33
f 82/82/82 101/101/101 34/34/34
f 101/101/101 82/82/82 71/71/71
f 101/101/101 71/71/71 92/92/92
f 68/68/68 101/101/101 92/92/92
f 51/51/51 101/101/101 68/68/68
f 51/51/51 68/68/68 3/3/3
f 2/2/2 51/51/51 3/3/3
f 69/69/69 51/51/51 2/2/2
f 104/104/104 43/43/43 100/100/100
f 43/43/43 102/102/102 100/100/100
f 100/100/100 102/102/102 114/114/114
f 113/113/113 100/100/100 114/114/114
f 113/113/113 32/32/32 100/100/100
f 100/100/100 32/32/32 106/106/106
f 106/106/106 104/104/104 100/100/100
f 30/30/30 104/104/104 106/106/106
f 105/105/105 30/30/30 106/106/106
f 107/107/107 105/105/105 106/106/106
f 102/102/102 116/116/116 114/114/114
f 116/116/116 110/110/110 114/114/114
f 110/110/110 113/113/113 114/114/114
f 115/115/115 113/113/113 110/110/110
f 115/115/115 89/89/89 113/113/113
f 113/113/113 89/89/89 32/32/32
f 32/32/32 89/89/89 98/98/98
f 98/98/98 99/99/99 32/32/32
f 99/99/99 112/112/112 32/32/32
f 112/112/112 111/111/111 32/32/32
f 32/32/32 111/111/111 109/109/109
f 109/109/109 93/93/93 32/32/32
f 32/32/32 93/93/93 106/106/106
f 93/93/93 108/108/108 106/106/106
f 106/106/106 108/108/108 107/107/107
f 111/111/111 38/38/38 109/109/109
f 38/38/38 39/39/39 109/109/109
f 109/109/109 39/39/39 27/27/27
f 93/93/93 109/109/109 27/27/27
f 84/84/84 93/93/93 27/27/27
f 88/88/88 93/93/93 84/84/84
f 88/88/88 108/108/108 93/93/93
f 39/39/39 28/28/28 27/27/27
f 28/28/28 84/84/84 27/27/27
f 177/177/177 178/178/178 133/133/133
f 179/179/179 178/178/178 177/177/177
f 176/176/176 138/138/138 178/178/178
f 175/175/175 138/138/138 176/176/176
f 174/174/174 133/133/133 171/171/171
f 132/132/132 133/133/133 174/174/174
f 123/123/123 131/131/131 128/128/128
f 129/129/129 131/131/131 123/123/123
f 128/128/128 141/141/141 142/142/142
f 140/140/140 141/141/141 128/128/128
f 127/127/127 124/124/124 162/162/162
f 125/125/125 124/124/124 127/127/127
f 122/122/122 136/136/136 124/124/124
f 135/135/135 136/136/136 122/122/122
f 137/137/137 167/167/167 136/136/136
f 134/134/134 167/167/167 137/137/137
f 126/126/126 172/172/172 130/130/130
f 123/123/123 172/172/172 126/126/126
f 164/164/164 139/139/139 158/158/158
f 146/146/146 139/139/139 164/164/164
f 181/181/181 143/143/143 138/138/138
f 200/200/200 143/143/143 181/181/181
f 199/199/199 183/183/183 189/189/189
f 212/212/212 183/183/183 199/199/199
f 151/151/151 207/207/207 142/142/142
f 142/142/142 207/207/207 171/171/171
f 159/159/159 158/158/158 155/155/155
f 154/154/154 158/158/158 159/159/159
f 163/163/163 162/162/162 154/154/154
f 161/161/161 162/162/162 163/163/163
f 165/165/165 167/167/167 166/166/166
f 173/173/173 167/167/167 165/165/165
f 170/170/170 173/173/173 169/169/169
f 172/172/172 173/173/173 170/170/170
f 182/182/182 180/180/180 148/148/148
f 143/143/143 180/180/180 182/182/182
f 153/153/153 182/182/182 202/202/202
f 183/183/183 182/182/182 153/153/153
f 210/210/210 212/212/212 160/160/160
f 164/164/164 212/212/212 210/210/210
f 206/206/206 157/157/157 190/190/190
f 206/206/206 184/184/184 157/157/157
f 206/206/206 119/119/119 184/184/184
f 184/184/184 119/119/119 120/120/120
f 119/119/119 187/187/187 120/120/120
f 119/119/119 198/198/198 187/187/187
f 187/187/187 198/198/198 185/185/185
f 206/206/206 190/190/190 192/192/192
f 192/192/192 119/119/119 206/206/206
f 230/230/230 119/119/119 192/192/192
f 198/198/198 119/119/119 230/230/230
f 198/198/198 230/230/230 232/232/232
f 195/195/195 198/198/198 232/232/232
f 188/188/188 198/198/198 195/195/195
f 198/198/198 188/188/188 208/208/208
f 198/198/198 208/208/208 185/185/185
f 192/192/192 190/190/190 191/191/191
f 192/192/192 191/191/191 193/193/193
f 193/193/193 230/230/230 192/192/192
f 194/194/194 230/230/230 193/193/193
f 230/230/230 194/194/194 196/196/196
f 230/230/230 196/196/196 204/204/204
f 203/203/203 230/230/230 204/204/204
f 226/226/226 230/230/230 203/203/203
f 232/232/232 230/230/230 226/226/226
f 232/232/232 226/226/226 231/231/231
f 231/231/231 118/118/118 232/232/232
f 232/232/232 118/118/118 201/201/201
f 232/232/232 201/201/201 195/195/195
f 226/226/226 203/203/203 186/186/186
f 117/117/117 226/226/226 186/186/186
f 231/231/231 226/226/226 117/117/117
f 231/231/231 117/117/117 121/121/121
f 231/231/231 121/121/121 118/118/118
f 216/216/216 211/211/211 214/214/214
f 211/211/211 229/229/229 214/214/214
f 214/214/214 229/229/229 228/228/228
f 225/225/225 214/214/214 228/228/228
f 225/225/225 223/223/223 214/214/214
f 214/214/214 223/223/223 219/219/219
f 219/219/219 216/216/216 214/214/214
f 218/218/218 216/216/216 219/219/219
f 168/168/168 218/218/218 219/219/219
f 217/217/217 168/168/168 219/219/219
f 229/229/229 205/205/205 228/228/228
f 205/205/205 227/227/227 228/228/228
f 227/227/227 225/225/225 228/228/228
f 149/149/149 225/225/225 227/227/227
f 149/149/149 209/209/209 225/225/225
f 225/225/225 209/209/209 223/223/223
f 223/223/223 209/209/209 215/215/215
f 215/215/215 213/213/213 223/223/223
f 213/213/213 224/224/224 223/223/223
f 224/224/224 222/222/222 223/223/223
f 223/223/223 222/222/222 221/221/221
f 221/221/221 147/147/147 223/223/223
f 223/223/223 147/147/147 219/219/219
f 147/147/147 220/220/220 219/219/219
f 219/219/219 220/220/220 217/217/217
f 222/222/222 156/156/156 221/221/221
f 156/156/156 144/144/144 221/221/221
f 221/221/221 144/144/144 145/145/145
f 147/147/147 221/221/221 145/145/145
f 152/152/152 147/147/147 145/145/145
f 197/197/197 147/147/147 152/152/152
f 197/197/197 220/220/220 147/147/147
f 144/144/144 150/150/150 145/145/145
f 150/150/150 152/152/152 145/145/145
