# Exported by s4extract — object_mirror_wall_lod01_g01
o object_mirror_wall_lod01_g01
v 0.393426 1.275224 0.055576
v 0.414301 1.270280 0.080388
v 0.419062 1.275224 0.000000
v 0.264970 1.270280 0.080388
v 0.385827 1.849387 0.000000
v 0.259934 1.120125 0.000000
v -0.000916 1.948544 0.000000
v 0.385827 2.047610 0.000000
v -0.261307 1.147500 0.000000
v -0.418147 1.120216 0.000000
v -0.392327 1.147409 0.000000
v -0.418147 1.275224 0.000000
v 0.385461 2.459348 0.000000
v 0.258103 2.586431 0.000000
v 0.385552 2.586523 0.000000
v -0.385827 1.849387 0.000000
v -0.385644 2.586523 0.000000
v -0.258103 2.586523 0.000000
v -0.258194 2.614356 0.000000
v -0.385644 2.459257 0.000000
v -0.258103 2.586523 0.000000
v -0.411463 2.459257 0.000000
v -0.385644 2.586523 0.000000
v -0.385644 2.459257 0.000000
v -0.411463 2.614356 0.000000
v 0.258103 2.586431 0.000000
v 0.411463 2.614356 0.000000
v 0.258194 2.614356 0.000000
v 0.411463 2.459257 0.000000
v 0.385461 2.459348 0.000000
v -0.261399 1.120125 0.000000
v 0.385552 2.586523 0.000000
v 0.259934 1.247299 0.055576
v 0.264970 1.125160 0.080388
v 0.259843 1.147500 0.000000
v 0.393884 1.147409 0.000000
v -0.392327 1.275224 0.000000
v -0.261307 1.147500 0.000000
v -0.392327 1.275224 0.000000
v -0.392327 1.147409 0.000000
v 0.393701 1.275224 0.000000
v 0.393884 1.147409 0.000000
v 0.259843 1.147500 0.000000
v -0.385827 2.047610 0.000000
v -0.263139 2.609412 0.080388
v -0.406611 2.609412 0.080388
v 0.259934 1.275224 0.018861
v -0.263139 2.464292 0.080388
v 0.414301 1.270280 0.080388
v 0.264970 1.125160 0.080388
v -0.413294 1.125160 0.080388
v 0.264970 1.270280 0.080388
v 0.419062 1.275224 0.000000
v 0.393701 1.275224 0.000000
v 0.419062 1.120216 0.000000
v 0.414301 1.125160 0.080388
v -0.266343 1.270280 0.080388
v -0.266343 1.125160 0.080388
v -0.413294 1.270280 0.080388
v 0.406611 2.464292 0.080388
v 0.263139 2.609412 0.080388
v 0.263139 2.464292 0.080388
v 0.406611 2.609412 0.080388
v -0.406611 2.464292 0.080388
v 0.259843 1.247299 0.018861
v 0.287951 1.275224 0.018861
v 0.259934 1.275224 0.018861
v 0.287859 1.275224 0.055576
v 0.393701 1.275224 0.000000
v 0.264970 1.270280 0.080388
v 0.414301 1.125160 0.080388
v 0.414301 1.270280 0.080388
v 0.419062 1.275224 0.000000
v 0.259843 1.147500 0.000000
v 0.259934 1.120125 0.000000
v 0.419062 1.120216 0.000000
v -0.261307 1.275224 0.018861
v -0.289141 1.275224 0.018861
v 0.414301 1.125160 0.080388
v 0.264970 1.125160 0.080388
v 0.259934 1.147500 0.055576
v 0.259934 1.120125 0.000000
v 0.419062 1.120216 0.000000
v 0.264970 1.125160 0.080388
v -0.392419 1.275224 0.055484
v -0.261307 1.247299 0.018861
v -0.266343 1.270280 0.080388
v -0.261307 1.275224 0.018861
v -0.266343 1.125160 0.080388
v -0.392327 1.275224 0.000000
v -0.261399 1.247299 0.055484
v -0.418147 1.275224 0.000000
v -0.413294 1.270280 0.080388
v -0.266343 1.270280 0.080388
v -0.413294 1.270280 0.080388
v -0.289050 1.275224 0.055484
v -0.413294 1.125160 0.080388
v -0.418147 1.275224 0.000000
v -0.418147 1.120216 0.000000
v -0.261399 1.147500 0.055484
v -0.261399 1.120125 0.000000
v -0.261307 1.147500 0.000000
v 0.285296 2.459257 0.018861
v 0.258103 2.459257 0.018861
v 0.258103 2.486175 0.018861
v -0.413294 1.125160 0.080388
v -0.266343 1.125160 0.080388
v -0.266343 1.125160 0.080388
v -0.418147 1.120216 0.000000
v -0.261399 1.120125 0.000000
v 0.406611 2.464292 0.080388
v 0.285296 2.459257 0.055576
v 0.263139 2.464292 0.080388
v 0.258103 2.459257 0.018861
v 0.385461 2.459348 0.000000
v 0.263139 2.464292 0.080388
v 0.258194 2.586431 0.055484
v 0.263139 2.464292 0.080388
v 0.411463 2.459257 0.000000
v 0.258194 2.486266 0.055484
v 0.411463 2.459257 0.000000
v 0.385186 2.459348 0.055484
v 0.406611 2.609412 0.080388
v 0.406611 2.464292 0.080388
v 0.411463 2.614356 0.000000
v 0.258194 2.586431 0.055484
v 0.258194 2.614356 0.000000
v 0.258103 2.586431 0.000000
v -0.258103 2.486175 0.018861
v -0.258103 2.459257 0.018861
v -0.285845 2.459257 0.018861
v 0.406611 2.609412 0.080388
v 0.263139 2.609412 0.080388
v 0.263139 2.609412 0.080388
v 0.411463 2.614356 0.000000
v 0.258194 2.614356 0.000000
v -0.263139 2.464292 0.080388
v -0.258103 2.459257 0.018861
v -0.285845 2.459348 0.055484
v -0.411463 2.459257 0.000000
v -0.406611 2.464292 0.080388
v -0.263139 2.464292 0.080388
v -0.263139 2.464292 0.080388
v -0.406611 2.464292 0.080388
v -0.258194 2.586431 0.055484
v -0.385644 2.459257 0.055484
v -0.385644 2.459257 0.000000
v -0.406611 2.609412 0.080388
v -0.258194 2.486266 0.055484
v -0.411463 2.459257 0.000000
v -0.258103 2.586523 0.000000
v -0.258194 2.614356 0.000000
v -0.411463 2.614356 0.000000
v 0.393701 1.275224 0.000000
v 0.393426 1.275224 0.055576
v -0.406611 2.609412 0.080388
v -0.263139 2.609412 0.080388
v -0.258194 2.586431 0.055484
v -0.258194 2.614356 0.000000
v -0.411463 2.614356 0.000000
v -0.263139 2.609412 0.080388
v -0.385644 2.459257 0.055484
v -0.258194 2.586431 0.055484
v -0.258194 2.486266 0.055484
v 0.259934 1.147500 0.055576
v -0.289050 1.275224 0.055484
v -0.392419 1.275224 0.055484
v -0.285845 2.459348 0.055484
v -0.261399 1.147500 0.055484
v 0.259934 1.247299 0.055576
v 0.258194 2.486266 0.055484
v 0.258194 2.586431 0.055484
v 0.393426 1.275224 0.055576
v -0.261399 1.247299 0.055484
v 0.287859 1.275224 0.055576
v 0.285296 2.459257 0.055576
v 0.287859 1.275224 0.055576
v 0.385186 2.459348 0.055484
v 0.287951 1.275224 0.018861
v 0.385827 1.849387 0.051181
v 0.286394 2.047610 0.051181
v 0.286394 1.849387 0.051181
v 0.385918 2.047610 0.051181
v -0.286852 2.047610 0.051090
v -0.385827 1.849387 0.051090
v -0.286852 1.849387 0.051090
v -0.385827 2.047610 0.051090
v -0.385827 2.047610 0.051090
v -0.385644 2.459257 0.000000
v -0.385827 2.047610 0.000000
v -0.286852 2.047610 0.051090
v -0.286761 2.047610 0.020509
v -0.285845 2.459348 0.055484
v -0.385644 2.459257 0.055484
v 0.286394 1.849387 0.051181
v -0.285845 2.459257 0.018861
v -0.392419 1.275224 0.055484
v 0.385827 2.047610 0.000000
v -0.286761 1.849387 0.020509
v -0.385827 1.849387 0.051090
v 0.258194 2.586431 0.055484
v -0.392327 1.275224 0.000000
v 0.286486 2.047610 0.020509
v 0.286394 2.047610 0.051181
v -0.289141 1.275224 0.018861
v -0.385827 1.849387 0.000000
v -0.286852 1.849387 0.051090
v 0.285296 2.459257 0.018861
v 0.285296 2.459257 0.055576
v -0.289050 1.275224 0.055484
v 0.286486 1.849387 0.020509
v -0.261399 1.247299 0.055484
v 0.385827 1.849387 0.000000
v 0.385827 1.849387 0.051181
v -0.261307 1.247299 0.018861
v 0.259934 1.247299 0.055576
v 0.259843 1.247299 0.018861
v 0.259843 1.147500 0.000000
v 0.259934 1.147500 0.055576
v -0.261399 1.147500 0.055484
v -0.258194 2.486266 0.055484
v -0.261307 1.147500 0.000000
v 0.258103 2.486175 0.018861
v -0.258194 2.586431 0.055484
v 0.258194 2.486266 0.055484
v -0.258103 2.486175 0.018861
v 0.258103 2.586431 0.000000
v -0.258103 2.586523 0.000000
v 0.385918 2.047610 0.051181
v 0.385461 2.459348 0.000000
v 0.385186 2.459348 0.055484
vt 0.166883 0.202550
vt 0.158668 0.261349
vt 0.126264 0.128350
vt 0.256515 0.261349
vt 0.524959 0.749585
vt 0.497266 0.224475
vt 0.277745 0.780087
vt 0.524959 0.810619
vt 0.497447 0.251293
vt 0.418143 0.224445
vt 0.446259 0.251262
vt 0.418143 0.351374
vt 0.524838 0.937427
vt 0.443571 0.976595
vt 0.524778 0.976595
vt 0.039320 0.749585
vt 0.039441 0.976595
vt 0.113943 0.976595
vt 0.457795 0.395646
vt 0.039410 0.937396
vt 0.457795 0.369584
vt 0.539304 0.306165
vt 0.513211 0.369614
vt 0.513272 0.306105
vt 0.539304 0.395646
vt 0.457584 0.369765
vt 0.539153 0.395858
vt 0.457584 0.395858
vt 0.539153 0.306195
vt 0.513091 0.306135
vt 0.497447 0.224445
vt 0.513060 0.369796
vt 0.330776 0.266876
vt 0.256787 0.362850
vt 0.497266 0.250779
vt 0.446198 0.250749
vt 0.446229 0.351434
vt 0.113943 0.533387
vt 0.039803 0.573310
vt 0.039078 0.533387
vt 0.525352 0.572284
vt 0.526288 0.533387
vt 0.443571 0.533387
vt 0.039320 0.810619
vt 0.159454 0.362850
vt 0.256787 0.362850
vt 0.293268 0.167791
vt 0.158668 0.261349
vt 0.159454 0.362850
vt 0.256515 0.261349
vt 0.256515 0.261349
vt 0.256787 0.362850
vt 0.417871 0.351374
vt 0.446712 0.351464
vt 0.417871 0.224475
vt 0.158668 0.261349
vt 0.159454 0.362850
vt 0.158668 0.261349
vt 0.256787 0.362850
vt 0.158668 0.261349
vt 0.256787 0.362850
vt 0.256515 0.261349
vt 0.159454 0.362850
vt 0.256515 0.261349
vt 0.367015 0.265547
vt 0.251260 0.167398
vt 0.367076 0.240783
vt 0.250022 0.202641
vt 0.165161 0.127656
vt 0.256515 0.261349
vt 0.159454 0.362850
vt 0.158668 0.261349
vt 0.026878 0.239303
vt 0.403043 0.374869
vt 0.393621 0.408904
vt 0.025186 0.390120
vt 0.293268 0.167791
vt 0.251260 0.167398
vt 0.159454 0.362850
vt 0.256787 0.362850
vt 0.327122 0.361249
vt 0.279316 0.497963
vt 0.142180 0.498053
vt 0.256787 0.362850
vt 0.166883 0.202550
vt 0.367015 0.265547
vt 0.256515 0.261349
vt 0.367076 0.240783
vt 0.256787 0.362850
vt 0.165161 0.127656
vt 0.330776 0.266876
vt 0.126264 0.128350
vt 0.158668 0.261349
vt 0.256515 0.261349
vt 0.158668 0.261349
vt 0.250022 0.202641
vt 0.159454 0.362850
vt 0.026878 0.239303
vt 0.025186 0.390120
vt 0.327122 0.361249
vt 0.393621 0.408904
vt 0.403043 0.374869
vt 0.251260 0.167398
vt 0.293268 0.167791
vt 0.367015 0.265547
vt 0.159454 0.362850
vt 0.256787 0.362850
vt 0.256787 0.362850
vt 0.142180 0.498053
vt 0.279316 0.497963
vt 0.158668 0.261349
vt 0.250022 0.202641
vt 0.256515 0.261349
vt 0.367076 0.240783
vt 0.165161 0.127656
vt 0.256515 0.261349
vt 0.327122 0.361249
vt 0.256515 0.261349
vt 0.026878 0.239303
vt 0.330776 0.266876
vt 0.126264 0.128350
vt 0.166883 0.202550
vt 0.159454 0.362850
vt 0.158668 0.261349
vt 0.025186 0.390120
vt 0.327122 0.361249
vt 0.393621 0.408904
vt 0.403043 0.374869
vt 0.367015 0.265547
vt 0.293268 0.167791
vt 0.251260 0.167398
vt 0.159454 0.362850
vt 0.256787 0.362850
vt 0.256787 0.362850
vt 0.142180 0.498053
vt 0.279316 0.497963
vt 0.256515 0.261349
vt 0.367076 0.240783
vt 0.250022 0.202641
vt 0.126264 0.128350
vt 0.158668 0.261349
vt 0.256515 0.261349
vt 0.256515 0.261349
vt 0.158668 0.261349
vt 0.327122 0.361249
vt 0.166883 0.202550
vt 0.165161 0.127656
vt 0.159454 0.362850
vt 0.330776 0.266876
vt 0.026878 0.238095
vt 0.403043 0.374869
vt 0.393621 0.408904
vt 0.025186 0.388912
vt 0.572282 0.248816
vt 0.639083 0.247820
vt 0.159454 0.362850
vt 0.256787 0.362850
vt 0.327122 0.361249
vt 0.279316 0.497963
vt 0.142180 0.498053
vt 0.256787 0.362850
vt 0.922868 0.978226
vt 0.327907 0.130826
vt 0.328028 0.063965
vt 0.985744 0.058559
vt 0.847218 0.250719
vt 0.928002 0.250507
vt 0.844863 0.978045
vt 0.669313 0.058559
vt 0.985744 0.126327
vt 0.647660 0.064599
vt 0.647539 0.131461
vt 0.639083 0.247820
vt 0.669313 0.126327
vt 0.728715 0.247971
vt 0.731373 0.983602
vt 0.728715 0.247971
vt 0.646391 0.983783
vt 0.775223 0.248303
vt 0.644066 0.604597
vt 0.729259 0.727781
vt 0.728715 0.604597
vt 0.644579 0.727932
vt 0.846524 0.725124
vt 0.924408 0.603299
vt 0.846947 0.603329
vt 0.924016 0.725244
vt 0.924016 0.725244
vt 0.984324 0.977683
vt 0.980338 0.725063
vt 0.846524 0.725124
vt 0.810768 0.724822
vt 0.844863 0.978045
vt 0.922868 0.978226
vt 0.728715 0.604597
vt 0.802130 0.977381
vt 0.928002 0.250507
vt 0.583274 0.727781
vt 0.811190 0.603419
vt 0.924408 0.603299
vt 0.647539 0.131461
vt 0.989489 0.251413
vt 0.768216 0.727449
vt 0.729259 0.727781
vt 0.804486 0.251021
vt 0.980761 0.603782
vt 0.846947 0.603329
vt 0.777880 0.982877
vt 0.731373 0.983602
vt 0.847218 0.250719
vt 0.767673 0.604688
vt 0.669313 0.126327
vt 0.582700 0.605141
vt 0.644066 0.604597
vt 0.669343 0.179267
vt 0.985744 0.126327
vt 0.985714 0.179327
vt 0.985714 0.010451
vt 0.985744 0.058559
vt 0.669313 0.058559
vt 0.328028 0.063965
vt 0.669313 0.010542
vt 0.647690 0.011538
vt 0.327907 0.130826
vt 0.647660 0.064599
vt 0.328118 0.010934
vt 0.647448 0.181320
vt 0.327846 0.180626
vt 0.644579 0.727932
vt 0.579530 0.983300
vt 0.646391 0.983783
vn 0.046830 0.992766 0.110555
vn 0.033334 0.985178 0.168264
vn 0.085334 0.995575 0.039363
vn -0.985298 0.035459 0.167126
vn 0.000000 0.000000 -1.000000
vn 0.000000 0.000000 -1.000000
vn 0.000000 0.000000 -1.000000
vn 0.000000 0.000000 -1.000000
vn 0.000000 0.000000 -1.000000
vn 0.000000 0.000000 -1.000000
vn 0.000000 0.000000 -1.000000
vn 0.000000 0.000000 -1.000000
vn 0.000000 0.000000 -1.000000
vn 0.000000 0.000000 -1.000000
vn 0.000000 0.000000 -1.000000
vn 0.000000 0.000000 -1.000000
vn 0.000000 0.000000 -1.000000
vn 0.000000 0.000000 -1.000000
vn 0.000000 0.000000 -1.000000
vn 0.000000 0.000000 -1.000000
vn 0.000000 0.000000 -1.000000
vn 0.000000 0.000000 -1.000000
vn 0.000000 0.000000 -1.000000
vn 0.000000 0.000000 -1.000000
vn 0.000000 0.000000 -1.000000
vn 0.000000 0.000000 -1.000000
vn 0.000000 0.000000 -1.000000
vn 0.000000 0.000000 -1.000000
vn 0.000000 0.000000 -1.000000
vn 0.000000 0.000000 -1.000000
vn 0.000000 0.000000 -1.000000
vn 0.000000 0.000000 -1.000000
vn -0.987314 0.021514 0.157318
vn -0.980020 0.000000 0.198897
vn 0.000000 0.000000 -1.000000
vn 0.000000 0.000000 -1.000000
vn 0.000000 0.000000 -1.000000
vn 0.000000 0.000000 -1.000000
vn 0.000000 0.000000 -1.000000
vn 0.000000 0.000000 -1.000000
vn 0.000000 0.000000 -1.000000
vn 0.000000 0.000000 -1.000000
vn 0.000000 0.000000 -1.000000
vn 0.000000 0.000000 -1.000000
vn 0.000000 0.000000 1.000000
vn 0.000000 0.000000 1.000000
vn -0.070576 0.996061 0.053680
vn 0.000000 0.000000 1.000000
vn 0.000000 0.000000 1.000000
vn 0.000000 0.000000 1.000000
vn 0.000000 0.000000 1.000000
vn 0.000000 0.000000 1.000000
vn 0.000000 0.000000 -1.000000
vn 0.000000 0.000000 -1.000000
vn 0.000000 0.000000 -1.000000
vn 0.000000 0.000000 1.000000
vn 0.000000 0.000000 1.000000
vn 0.000000 0.000000 1.000000
vn 0.000000 0.000000 1.000000
vn 0.000000 0.000000 1.000000
vn 0.000000 0.000000 1.000000
vn 0.000000 0.000000 1.000000
vn 0.000000 0.000000 1.000000
vn 0.000000 0.000000 1.000000
vn -0.999992 0.003279 0.002494
vn 0.000000 1.000000 0.000000
vn -0.995766 0.073168 0.055651
vn -0.020174 0.987644 0.155409
vn 0.000000 1.000000 0.000000
vn -0.034157 0.985718 0.164906
vn 0.998251 0.000000 0.059122
vn 0.998251 0.000000 0.059122
vn 0.998251 0.000000 0.059122
vn -0.999993 -0.003344 0.001647
vn -0.995769 -0.082430 0.040604
vn 0.998251 0.000000 0.059122
vn 0.070954 0.996031 0.053747
vn 0.000000 1.000000 0.000000
vn 0.000000 -0.998114 0.061387
vn 0.000296 -0.998079 0.061953
vn -0.993015 -0.047810 0.107870
vn 0.000574 -0.998046 0.062484
vn 0.000296 -0.998079 0.061953
vn -0.987603 -0.062859 0.143840
vn -0.046915 0.992917 0.109158
vn 0.999997 0.000000 0.002500
vn 0.034446 0.985808 0.164306
vn 0.996030 0.069568 0.055536
vn 0.980857 0.000000 0.194729
vn 0.000000 1.000000 0.000000
vn 0.987795 0.020395 0.154416
vn -0.084520 0.995651 0.039191
vn -0.998183 0.000000 0.060255
vn 0.985843 0.034218 0.164143
vn -0.033648 0.985313 0.167408
vn 0.020380 0.987746 0.154737
vn -0.998183 0.000000 0.060255
vn -0.998183 0.000000 0.060255
vn -0.998183 0.000000 0.060255
vn 0.993282 -0.046835 0.105818
vn 0.995924 -0.080885 0.039909
vn 0.999993 -0.003344 0.001650
vn 0.000000 -1.000000 0.000000
vn -0.074037 -0.995747 0.054835
vn -0.999997 0.000000 0.002500
vn 0.000000 -0.998114 0.061387
vn 0.988099 -0.061511 0.140988
vn -0.000301 -0.998079 0.061953
vn -0.000301 -0.998079 0.061953
vn -0.000583 -0.998046 0.062484
vn 0.034298 -0.985182 0.168046
vn -0.021072 -0.987481 0.156326
vn -0.036082 -0.985174 0.167722
vn -0.995822 -0.072280 0.055796
vn -0.003521 -0.999994 -0.000017
vn -0.980857 0.000000 0.194729
vn -0.980857 0.000000 0.194729
vn -0.986649 -0.044413 0.156691
vn 0.998183 0.000000 0.060255
vn -0.991307 -0.035750 0.126619
vn 0.080914 -0.995920 0.039964
vn 0.046377 -0.993149 0.107262
vn 0.998183 0.000000 0.060255
vn 0.998183 0.000000 0.060255
vn 0.998183 0.000000 0.060255
vn -0.992094 0.038855 0.119335
vn -0.996075 0.079065 0.039794
vn -0.999993 0.003279 0.001650
vn 0.999997 0.000000 0.002500
vn 0.070149 -0.995984 0.055628
vn 0.000000 -0.999997 0.002500
vn 0.000000 0.998114 0.061387
vn -0.987304 0.048498 0.151255
vn 0.000000 0.998114 0.061387
vn 0.000000 0.998114 0.061387
vn 0.000000 0.998114 0.061387
vn 0.034591 -0.985824 0.164176
vn 0.995822 -0.072280 0.055796
vn 0.020801 -0.987581 0.155728
vn -0.085877 -0.995504 0.039962
vn -0.034712 -0.985120 0.168327
vn 0.980857 0.000000 0.194729
vn 0.986649 -0.044413 0.156691
vn -0.998183 0.000000 0.060255
vn 0.980857 0.000000 0.194729
vn -0.048062 -0.992764 0.110041
vn 0.000000 -1.000000 0.000000
vn -0.998183 0.000000 0.060255
vn 0.991307 -0.035750 0.126619
vn -0.998183 0.000000 0.060255
vn 0.999993 0.003289 0.001656
vn 0.996064 0.079179 0.039851
vn -0.998183 0.000000 0.060255
vn 0.999906 0.013483 0.002573
vn 0.999900 0.013272 0.004942
vn 0.000000 0.998114 0.061387
vn 0.000000 0.998114 0.061387
vn 0.992082 0.038883 0.119418
vn 0.000000 0.998114 0.061387
vn 0.000000 0.998114 0.061387
vn 0.987304 0.048498 0.151255
vn 0.000005 -0.010674 0.999943
vn 0.000000 0.000000 1.000000
vn 0.000000 0.000000 1.000000
vn -0.000176 0.000000 1.000000
vn 0.000000 0.007654 0.999971
vn 0.000000 0.007654 0.999971
vn 0.000010 -0.010673 0.999943
vn -0.000176 0.000000 1.000000
vn -0.000176 0.000000 1.000000
vn 0.000000 0.000000 1.000000
vn 0.000000 0.000000 1.000000
vn 0.000000 0.007654 0.999971
vn -0.000176 0.000000 1.000000
vn 0.000000 0.007654 0.999971
vn 0.000926 -0.010673 0.999943
vn -0.999994 -0.002570 -0.002494
vn 0.000464 -0.010562 0.999944
vn -0.999993 -0.002558 -0.002717
vn 0.000000 0.005733 0.999984
vn 0.000313 -0.007135 0.999974
vn 0.000000 0.005690 0.999984
vn 0.000000 -0.007055 0.999975
vn 0.000003 -0.007215 0.999974
vn 0.000000 0.005722 0.999984
vn 0.000000 0.005690 0.999984
vn 0.000000 -0.007206 0.999974
vn -1.000000 0.000304 0.000000
vn -1.000000 0.000445 0.000000
vn -1.000000 0.000300 0.000000
vn 0.999997 -0.001919 0.001658
vn 0.999995 -0.001127 0.002994
vn 0.999997 -0.002446 0.000006
vn -1.000000 0.000445 0.000000
vn -0.999994 -0.002211 -0.002754
vn 0.999996 -0.002340 0.001366
vn -0.999933 0.011468 -0.001650
vn 0.999999 0.000340 -0.001350
vn 0.999991 -0.003088 0.002994
vn -0.999952 0.009779 -0.000737
vn 0.000000 1.000000 0.000000
vn -0.999935 0.011398 -0.000859
vn -0.999994 -0.001960 -0.002985
vn -0.999996 -0.001930 -0.001854
vn 0.999992 -0.003987 0.000000
vn -0.999978 0.006697 0.000000
vn 0.999995 -0.003033 0.000716
vn -0.999995 -0.002776 -0.001359
vn -0.999996 -0.002669 0.000000
vn 0.999989 -0.003846 -0.002500
vn -0.999994 -0.001504 -0.002985
vn 0.000000 1.000000 0.000000
vn 0.999948 0.010194 0.000000
vn 0.999948 0.010073 0.001710
vn 0.000000 1.000000 0.000000
vn 0.000000 1.000000 0.000000
vn 0.000000 1.000000 0.000000
vn 0.000000 -1.000000 0.000000
vn 0.000000 -1.000000 0.000000
vn 0.000000 -1.000000 0.000000
vn 0.000000 -0.999997 0.002500
vn 0.000000 -1.000000 0.000000
vn 0.000000 -0.999997 0.002500
vn 0.000089 1.000000 0.000825
vn 0.000000 -0.999997 0.002500
vn 0.000000 -0.999997 0.002500
vn 0.000089 1.000000 0.000825
vn 0.000177 0.999999 0.001650
vn 0.999999 0.000990 0.001059
vn 0.999998 0.001325 0.001717
vn 0.999986 0.001727 0.004950
f 17/17/17 18/18/18 20/20/20
f 18/18/18 7/7/7 20/20/20
f 7/7/7 44/44/44 20/20/20
f 44/44/44 7/7/7 16/16/16
f 39/39/39 16/16/16 7/7/7
f 39/39/39 7/7/7 38/38/38
f 40/40/40 39/39/39 38/38/38
f 7/7/7 18/18/18 14/14/14
f 7/7/7 14/14/14 13/13/13
f 8/8/8 7/7/7 13/13/13
f 5/5/5 7/7/7 8/8/8
f 5/5/5 41/41/41 7/7/7
f 7/7/7 41/41/41 43/43/43
f 43/43/43 38/38/38 7/7/7
f 14/14/14 15/15/15 13/13/13
f 41/41/41 42/42/42 43/43/43
f 21/21/21 23/23/23 19/19/19
f 19/19/19 23/23/23 25/25/25
f 25/25/25 23/23/23 22/22/22
f 22/22/22 23/23/23 24/24/24
f 26/26/26 28/28/28 32/32/32
f 32/32/32 28/28/28 27/27/27
f 29/29/29 32/32/32 27/27/27
f 30/30/30 32/32/32 29/29/29
f 9/9/9 31/31/31 11/11/11
f 11/11/11 31/31/31 10/10/10
f 12/12/12 11/11/11 10/10/10
f 37/37/37 11/11/11 12/12/12
f 35/35/35 36/36/36 6/6/6
f 6/6/6 36/36/36 55/55/55
f 55/55/55 36/36/36 53/53/53
f 53/53/53 36/36/36 54/54/54
f 49/49/49 50/50/50 56/56/56
f 52/52/52 50/50/50 49/49/49
f 57/57/57 51/51/51 58/58/58
f 59/59/59 51/51/51 57/57/57
f 60/60/60 61/61/61 62/62/62
f 63/63/63 61/61/61 60/60/60
f 48/48/48 46/46/46 64/64/64
f 45/45/45 46/46/46 48/48/48
f 66/66/66 47/47/47 68/68/68
f 68/68/68 47/47/47 70/70/70
f 2/2/2 68/68/68 70/70/70
f 1/1/1 68/68/68 2/2/2
f 2/2/2 3/3/3 1/1/1
f 1/1/1 3/3/3 69/69/69
f 33/33/33 67/67/67 65/65/65
f 4/4/4 67/67/67 33/33/33
f 33/33/33 34/34/34 4/4/4
f 81/81/81 84/84/84 33/33/33
f 84/84/84 81/81/81 75/75/75
f 75/75/75 81/81/81 74/74/74
f 71/71/71 73/73/73 72/72/72
f 76/76/76 73/73/73 71/71/71
f 83/83/83 80/80/80 82/82/82
f 79/79/79 80/80/80 83/83/83
f 78/78/78 96/96/96 77/77/77
f 77/77/77 96/96/96 87/87/87
f 96/96/96 95/95/95 87/87/87
f 85/85/85 95/95/95 96/96/96
f 85/85/85 92/92/92 95/95/95
f 90/90/90 92/92/92 85/85/85
f 86/86/86 88/88/88 91/91/91
f 91/91/91 88/88/88 94/94/94
f 94/94/94 89/89/89 91/91/91
f 91/91/91 107/107/107 100/100/100
f 107/107/107 101/101/101 100/100/100
f 100/100/100 101/101/101 102/102/102
f 98/98/98 97/97/97 93/93/93
f 99/99/99 97/97/97 98/98/98
f 108/108/108 109/109/109 110/110/110
f 106/106/106 109/109/109 108/108/108
f 103/103/103 112/112/112 104/104/104
f 104/104/104 112/112/112 113/113/113
f 112/112/112 111/111/111 113/113/113
f 122/122/122 111/111/111 112/112/112
f 122/122/122 121/121/121 111/111/111
f 115/115/115 121/121/121 122/122/122
f 105/105/105 114/114/114 120/120/120
f 120/120/120 114/114/114 118/118/118
f 120/120/120 118/118/118 117/117/117
f 126/126/126 116/116/116 133/133/133
f 133/133/133 127/127/127 126/126/126
f 126/126/126 127/127/127 128/128/128
f 119/119/119 123/123/123 124/124/124
f 125/125/125 123/123/123 119/119/119
f 134/134/134 135/135/135 136/136/136
f 132/132/132 135/135/135 134/134/134
f 131/131/131 130/130/130 139/139/139
f 139/139/139 130/130/130 137/137/137
f 141/141/141 139/139/139 137/137/137
f 146/146/146 139/139/139 141/141/141
f 141/141/141 140/140/140 146/146/146
f 146/146/146 140/140/140 147/147/147
f 149/149/149 138/138/138 129/129/129
f 143/143/143 138/138/138 149/149/149
f 149/149/149 145/145/145 143/143/143
f 142/142/142 158/158/158 161/161/161
f 161/161/161 158/158/158 152/152/152
f 152/152/152 158/158/158 151/151/151
f 148/148/148 150/150/150 144/144/144
f 153/153/153 150/150/150 148/148/148
f 160/160/160 157/157/157 159/159/159
f 156/156/156 157/157/157 160/160/160
f 155/155/155 154/154/154 214/214/214
f 214/214/214 154/154/154 213/213/213
f 198/198/198 214/214/214 213/213/213
f 229/229/229 214/214/214 198/198/198
f 230/230/230 229/229/229 198/198/198
f 231/231/231 229/229/229 230/230/230
f 164/164/164 172/172/172 163/163/163
f 171/171/171 172/172/172 164/164/164
f 168/168/168 162/162/162 184/184/184
f 184/184/184 162/162/162 187/187/187
f 187/187/187 185/185/185 184/184/184
f 184/184/184 185/185/185 186/186/186
f 185/185/185 166/166/166 186/186/186
f 167/167/167 166/166/166 185/185/185
f 170/170/170 169/169/169 165/165/165
f 174/174/174 169/169/169 170/170/170
f 180/180/180 175/175/175 173/173/173
f 182/182/182 175/175/175 180/180/180
f 180/180/180 181/181/181 182/182/182
f 183/183/183 181/181/181 180/180/180
f 178/178/178 181/181/181 183/183/183
f 176/176/176 181/181/181 178/178/178
f 195/195/195 179/179/179 177/177/177
f 211/211/211 179/179/179 195/195/195
f 204/204/204 211/211/211 195/195/195
f 203/203/203 211/211/211 204/204/204
f 203/203/203 204/204/204 208/208/208
f 208/208/208 204/204/204 209/209/209
f 194/194/194 189/189/189 188/188/188
f 188/188/188 189/189/189 190/190/190
f 206/206/206 188/188/188 190/190/190
f 200/200/200 188/188/188 206/206/206
f 202/202/202 200/200/200 206/206/206
f 197/197/197 200/200/200 202/202/202
f 191/191/191 196/196/196 193/193/193
f 192/192/192 196/196/196 191/191/191
f 207/207/207 192/192/192 191/191/191
f 199/199/199 192/192/192 207/207/207
f 207/207/207 205/205/205 199/199/199
f 210/210/210 205/205/205 207/207/207
f 216/216/216 215/215/215 212/212/212
f 217/217/217 215/215/215 216/216/216
f 220/220/220 218/218/218 219/219/219
f 222/222/222 218/218/218 220/220/220
f 226/226/226 225/225/225 221/221/221
f 223/223/223 225/225/225 226/226/226
f 224/224/224 227/227/227 228/228/228
f 201/201/201 227/227/227 224/224/224
