# Exported by s4extract — object_sitDiningQA_01_lod00_g01
o object_sitDiningQA_01_lod00_g01
v -0.062260 0.984557 -0.230300
v -0.139840 1.013306 -0.287310
v 0.106086 1.005555 -0.286700
v -0.162913 0.954648 -0.283770
v -0.180309 1.012635 -0.287493
v -0.046451 1.073064 -0.250504
v -0.062199 0.983520 -0.245010
v -0.062199 0.983520 -0.245010
v -0.078557 1.043887 -0.248978
v -0.100287 1.009766 -0.246170
v -0.099371 1.006653 -0.287249
v -0.100287 1.009766 -0.246170
v -0.047793 0.963071 -0.228041
v -0.100287 1.010804 -0.231459
v -0.099371 1.006653 -0.287249
v -0.100287 1.009766 -0.246170
v -0.222304 0.441922 0.211805
v -0.062260 0.984557 -0.230300
v -0.139840 1.013306 -0.287310
v -0.180431 1.016786 -0.231643
v -0.047793 0.961973 -0.242752
v -0.062199 0.983520 -0.245010
v -0.222304 0.441922 -0.174205
v 0.106696 1.008668 -0.245620
v -0.163096 0.958677 -0.227980
v -0.140328 1.017396 -0.231520
v -0.125862 0.961973 -0.228102
v 0.219679 0.441922 0.211805
v 0.172618 0.436550 -0.173717
v 0.219679 0.441922 -0.174205
v -0.098028 0.475920 -0.158213
v -0.001282 0.484771 -0.103949
v 0.095404 0.475920 -0.158213
v -0.180309 1.012635 -0.287493
v -0.162913 0.954648 -0.283770
v -0.175243 0.460966 -0.173717
v -0.222304 0.441922 -0.174205
v 0.202832 0.475981 0.104438
v 0.142282 0.484893 0.018739
v 0.219679 0.441922 0.211805
v 0.217787 0.461027 0.171641
v 0.095404 0.475920 0.195691
v 0.053897 1.070256 -0.291339
v 0.053653 0.962522 -0.227736
v 0.053714 0.961484 -0.242446
v 0.085271 1.039980 -0.289568
v 0.068425 0.982787 -0.244644
v 0.068364 0.983886 -0.229933
v 0.106696 1.008668 -0.245620
v 0.106696 1.009705 -0.230910
v 0.146554 1.011781 -0.286578
v 0.106086 1.005555 -0.286700
v 0.068364 0.983886 -0.229933
v 0.131844 0.956601 -0.283220
v 0.106696 1.009705 -0.230910
v 0.146799 1.015931 -0.230727
v 0.106086 1.005555 -0.286700
v 0.146554 1.011781 -0.286578
v 0.106696 1.008668 -0.245620
v 0.131722 0.960569 -0.227431
v 0.131844 0.956601 -0.283220
v 0.131722 0.960569 -0.227431
v 0.120369 0.928401 -0.225539
v 0.131722 0.960569 -0.227431
v 0.068425 0.982787 -0.244644
v 0.131844 0.956601 -0.283220
v 0.085393 1.043032 -0.248489
v 0.053836 1.073186 -0.250259
v 0.053714 0.961484 -0.242446
v 0.007203 1.088323 -0.251663
v -0.047793 0.961973 -0.242752
v 0.053653 0.962522 -0.227736
v 0.053714 0.961484 -0.242446
v 0.053714 0.958555 -0.283526
v 0.146799 1.015931 -0.230727
v 0.053653 0.962522 -0.227736
v 0.088873 0.920833 -0.225050
v 0.120369 0.928401 -0.225539
v -0.078008 0.465971 -0.216200
v -0.047061 0.811390 -0.274370
v -0.069218 0.852164 -0.227980
v 0.051639 0.810841 -0.274126
v -0.222304 0.441922 -0.174205
v -0.222304 0.441922 -0.174205
v -0.264970 0.441922 0.235732
v -0.264970 0.441922 -0.243606
v 0.190563 0.648782 -0.261185
v 0.162363 0.731185 -0.267106
v 0.190380 0.647867 -0.205396
v 0.148141 0.663859 -0.262345
v -0.268998 0.894952 -0.279802
v -0.180675 0.796191 -0.272478
v -0.222182 0.780870 -0.271501
v -0.199719 0.715376 -0.266740
v 0.243850 0.994445 -0.229567
v 0.187023 1.010682 -0.286455
v -0.158457 0.732711 -0.267900
v -0.190319 0.585851 -0.256791
v 0.263322 0.441922 0.235732
v -0.222304 0.441922 0.211805
v 0.243972 0.990478 -0.285418
v 0.271562 0.947934 -0.282305
v 0.039553 0.919307 -0.280779
v -0.033999 0.919490 -0.239944
v -0.044558 0.882988 -0.237319
v 0.039492 0.919062 -0.239700
v -0.033877 0.919673 -0.280962
v 0.049747 0.882744 -0.278154
v 0.226515 0.778612 -0.270341
v 0.225966 0.782580 -0.214491
v 0.185192 0.794360 -0.271562
v 0.193249 0.583227 -0.255814
v 0.060978 0.937191 -0.225905
v 0.053714 0.961484 -0.242446
v -0.100287 1.010804 -0.231459
v 0.053714 0.958555 -0.283526
v -0.083440 0.921748 -0.225539
v -0.055240 0.933834 -0.282061
v -0.083318 0.917781 -0.281328
v -0.114692 0.925655 -0.282000
v 0.147958 0.662943 -0.206556
v 0.078557 0.465177 -0.215772
v 0.203382 0.713422 -0.265763
v 0.078679 0.465299 -0.248428
v -0.125862 0.961973 -0.228102
v -0.114875 0.929622 -0.226149
v -0.180431 1.016786 -0.231643
v -0.237624 0.997009 -0.230910
v -0.163096 0.958677 -0.227980
v -0.198559 0.929378 -0.225966
v -0.265641 0.954770 -0.227919
v -0.269181 0.898981 -0.223952
v -0.203687 0.872307 -0.221876
v -0.245559 0.839163 -0.219618
v -0.180492 0.800159 -0.216688
v -0.221937 0.784838 -0.215650
v -0.187817 0.649576 -0.206250
v -0.199231 0.719343 -0.210950
v -0.145211 0.664225 -0.207227
v -0.158091 0.736678 -0.212049
v -0.180248 0.505463 -0.194653
v -0.190747 0.587194 -0.201001
v -0.144540 0.609168 -0.202344
v 0.221205 0.518953 -0.250565
v 0.221266 0.522432 -0.194104
v 0.050296 0.505402 -0.251846
v 0.262711 0.478667 -0.245681
v 0.262589 0.478423 -0.189892
v 0.184032 0.498260 -0.249283
v 0.213209 0.478850 -0.245804
v 0.184582 0.501740 -0.193737
v 0.212782 0.478301 -0.189892
v 0.212782 0.478301 -0.189892
v 0.051639 0.810841 -0.274126
v 0.051517 0.810657 -0.233291
v -0.047183 0.811146 -0.233535
v 0.051517 0.810657 -0.233291
v 0.035769 0.727400 -0.231948
v 0.035830 0.727583 -0.266862
v 0.204175 0.923274 -0.280657
v 0.120491 0.924434 -0.281328
v 0.120369 0.928401 -0.225539
v -0.220228 0.538485 -0.195202
v -0.198376 0.925410 -0.281755
v -0.265519 0.950742 -0.283770
v 0.169017 0.952939 -0.282854
v 0.168895 0.956907 -0.227065
v 0.204053 0.927303 -0.224867
v 0.186901 1.014832 -0.230666
v 0.226515 0.778612 -0.270341
v 0.162363 0.731185 -0.267106
v 0.203382 0.713422 -0.265763
v 0.148141 0.663859 -0.262345
v 0.262650 0.439175 -0.187389
v -0.046329 1.070134 -0.291583
v -0.046451 1.073064 -0.250504
v -0.044558 0.882988 -0.237319
v -0.263322 0.438076 -0.243179
v -0.208387 0.438198 -0.243179
v -0.208387 0.438198 -0.187389
v -0.211683 0.478301 -0.189892
v 0.193249 0.583227 -0.255814
v 0.184032 0.498260 -0.249283
v 0.155405 0.545077 -0.253189
v 0.221205 0.518953 -0.250565
v -0.069218 0.852164 -0.227980
v -0.078862 0.439968 -0.243179
v -0.077886 0.466154 -0.248856
v -0.078008 0.465971 -0.216200
v -0.156870 0.550082 -0.198193
v -0.187634 0.650491 -0.262040
v -0.144296 0.608741 -0.258133
v -0.264970 0.441922 0.235732
v 0.219679 0.441922 0.211805
v -0.179576 0.501984 -0.250198
v -0.145028 0.665202 -0.263017
v -0.047549 0.959043 -0.283831
v -0.055362 0.937801 -0.226210
v 0.208936 0.440029 -0.187389
v 0.155405 0.545077 -0.253189
v 0.155588 0.547336 -0.197400
v 0.145456 0.595068 -0.257401
v 0.193432 0.584508 -0.200024
v 0.190380 0.647867 -0.205396
v 0.161631 0.735152 -0.211256
v 0.145456 0.595434 -0.201611
v 0.147958 0.662943 -0.206556
v 0.169017 0.952939 -0.282854
v 0.262711 0.478667 -0.245681
v 0.208936 0.440029 -0.243179
v 0.204175 0.923274 -0.280657
v 0.271562 0.947934 -0.282305
v 0.274431 0.892083 -0.278276
v 0.208692 0.866142 -0.276567
v 0.262650 0.439907 -0.243179
v 0.262589 0.478423 -0.189892
v 0.250198 0.832570 -0.274065
v 0.185192 0.794360 -0.271562
v 0.190563 0.648782 -0.261185
v 0.145456 0.595068 -0.257401
v -0.044436 0.883233 -0.278398
v -0.033999 0.919490 -0.239944
v -0.069035 0.852408 -0.284014
v -0.033877 0.919673 -0.280962
v -0.047793 0.961973 -0.242752
v -0.078862 0.439968 -0.210706
v -0.078557 1.043887 -0.248978
v -0.125862 0.961973 -0.228102
v 0.208936 0.440029 -0.187389
v -0.078252 1.040835 -0.290057
v 0.073918 0.851370 -0.227614
v 0.073918 0.851370 -0.227614
v -0.172130 0.305255 0.216810
v 0.155954 0.311054 -0.222670
v -0.094671 0.278459 0.216749
v 0.000000 0.265397 0.216810
v -0.244888 0.311054 0.148447
v -0.242874 0.289813 0.085210
v -0.263322 0.438198 -0.187389
v 0.231398 0.281023 0.269609
v 0.203321 0.276323 0.236953
v 0.266557 0.275468 0.180736
v -0.244888 0.311054 -0.161326
v -0.094610 0.284624 -0.222670
v 0.244888 0.311054 0.148447
v 0.242874 0.289813 0.085210
v 0.244888 0.311054 -0.161326
v 0.172130 0.311054 0.216810
v -0.290118 0.281023 0.220289
v -0.203321 0.276323 0.236953
v -0.266557 0.275468 0.180736
v 0.203321 0.276323 0.236953
v -0.237624 0.997009 -0.230910
v -0.237441 0.992981 -0.286700
v -0.265519 0.950742 -0.283770
v -0.047793 0.963071 -0.228041
v -0.241897 0.271257 -0.002014
v 0.094732 0.284319 0.216688
v 0.078679 0.465299 -0.248428
v -0.220411 0.461027 -0.134102
v -0.220411 0.461027 0.171641
v 0.172618 0.460966 0.211256
v -0.212171 0.481047 -0.246963
v -0.179576 0.501984 -0.250198
v -0.180248 0.505463 -0.194653
v -0.263383 0.481414 -0.247146
v -0.219984 0.535006 -0.251724
v -0.220228 0.538485 -0.195202
v -0.263322 0.478423 -0.189892
v -0.049075 0.505890 -0.252152
v -0.049197 0.505707 -0.218885
v -0.077886 0.466154 -0.248856
v -0.078008 0.465971 -0.216200
v -0.145211 0.664225 -0.207227
v -0.145028 0.665202 -0.263017
v -0.158457 0.732711 -0.267900
v -0.199719 0.715376 -0.266740
v -0.187634 0.650491 -0.262040
v -0.187817 0.649576 -0.206250
v -0.199231 0.719343 -0.210950
v -0.125740 0.957944 -0.283953
v 0.266007 0.207471 0.191723
v 0.266252 0.117683 0.217909
v 0.266007 0.207471 0.191723
v 0.215589 0.207471 0.234023
v 0.247940 0.117866 0.184704
v 0.209424 0.117866 0.217054
v 0.209424 0.117866 0.217054
v 0.239700 0.115058 0.240371
v 0.237624 0.200696 0.259598
v 0.215589 0.207471 0.234023
v 0.244888 0.311054 0.148447
v 0.266557 0.275468 0.180736
v 0.203321 0.276323 0.236953
v 0.239700 0.115058 0.240371
v 0.237624 0.200696 0.259598
v 0.281450 0.200696 0.222853
v 0.172130 0.311054 0.216810
v -0.212171 0.481047 -0.246963
v -0.140328 1.017396 -0.231520
v -0.099371 1.006653 -0.287249
v -0.158091 0.736678 -0.212049
v -0.155954 0.311054 -0.222670
v 0.241897 0.271257 -0.002014
v 0.253800 0.376793 0.224684
v 0.271318 0.200818 0.255265
v -0.211683 0.478301 -0.189892
v 0.250687 0.064213 0.199109
v 0.250687 0.064213 0.199109
v 0.263322 0.373192 -0.243606
v 0.263322 0.373192 0.235732
v -0.264970 0.373192 0.235732
v 0.263322 0.373192 -0.243606
v 0.088873 0.920833 -0.225050
v 0.061100 0.933223 -0.281755
v 0.060978 0.937191 -0.225905
v 0.120491 0.924434 -0.281328
v -0.202344 0.371727 0.162424
v -0.242874 0.289813 0.085210
v -0.202344 0.371727 0.162424
v -0.244888 0.311054 0.148447
v 0.263322 0.373192 0.235732
v -0.264970 0.373192 -0.243606
v -0.264970 0.441922 -0.243606
v -0.264970 0.441922 0.235732
v 0.168895 0.956907 -0.227065
v 0.243850 0.994445 -0.229567
v 0.204053 0.927303 -0.224867
v 0.271440 0.951901 -0.226454
v -0.244888 0.311054 -0.161326
v -0.242874 0.289507 -0.084966
v 0.242874 0.289507 -0.084966
v -0.253800 0.376793 0.157724
v 0.217787 0.436672 -0.134102
v 0.217787 0.461027 0.171641
v 0.219679 0.441922 -0.174205
v -0.264970 0.373192 0.235732
v 0.078557 0.465177 -0.215772
v -0.078862 0.439968 -0.243179
v 0.078557 0.439968 -0.243179
v 0.078557 0.439968 -0.210706
v 0.263322 0.373192 0.235732
v -0.264970 0.441922 0.235732
v 0.263322 0.441922 0.235732
v -0.264970 0.441922 -0.243606
v 0.078679 0.465299 -0.248428
v 0.089056 0.916865 -0.280901
v 0.263322 0.441922 -0.243606
v -0.264970 0.373192 -0.243606
v -0.264970 0.373192 -0.243606
v -0.264970 0.373192 0.235732
v 0.089056 0.916865 -0.280901
v 0.053714 0.958555 -0.283526
v 0.061100 0.933223 -0.281755
v 0.186901 1.014832 -0.230666
v 0.274309 0.896112 -0.222487
v 0.208570 0.870109 -0.220778
v -0.172130 0.305255 0.216810
v -0.155954 0.376854 -0.229689
v -0.253800 0.376793 -0.161326
v -0.094671 0.278459 0.216749
v 0.155954 0.311054 -0.222670
v 0.250076 0.836599 -0.218275
v 0.184704 0.798328 -0.215711
v 0.202588 0.717451 -0.209913
v 0.262711 0.478667 -0.245681
v 0.262650 0.439907 -0.243179
v 0.213209 0.478850 -0.245804
v 0.208936 0.440029 -0.243179
v -0.049197 0.505707 -0.218885
v 0.078557 0.465177 -0.215772
v 0.049625 0.882500 -0.237075
v 0.007264 1.085393 -0.292742
v 0.007203 1.088323 -0.251663
v 0.053897 1.070256 -0.291339
v -0.244888 0.311054 0.148447
v -0.242874 0.289507 -0.084966
v -0.241897 0.271257 -0.002014
v -0.202344 0.377403 -0.176891
v 0.250198 0.832570 -0.274065
v 0.274309 0.896112 -0.222487
v 0.274431 0.892083 -0.278276
v 0.208570 0.870109 -0.220778
v -0.243057 0.438198 -0.187389
v -0.263322 0.478423 -0.189892
v -0.156321 0.547885 -0.253983
v -0.219984 0.535006 -0.251724
v 0.271440 0.951901 -0.226454
v 0.208692 0.866142 -0.276567
v -0.094610 0.284624 -0.222670
v -0.155954 0.311054 -0.222670
v 0.053836 1.073186 -0.250259
v -0.222304 0.441922 0.211805
v 0.094610 0.283587 -0.222670
v 0.244888 0.311054 -0.161326
v 0.202405 0.377770 -0.176891
v 0.000000 0.271257 -0.222670
v 0.215223 0.333333 0.258744
v 0.202344 0.371910 0.162424
v 0.244888 0.311054 0.148447
v 0.244888 0.311054 0.148447
v 0.188915 0.000427 0.194836
v 0.228713 0.000427 0.161448
v 0.228713 0.000427 0.161448
v 0.172130 0.311054 0.216810
v 0.242874 0.289813 0.085210
v 0.000000 0.265397 0.216810
v 0.282183 0.333333 0.202527
v 0.244888 0.311054 0.148447
v 0.244644 0.038088 0.192883
v 0.221083 0.038577 0.161875
v 0.221083 0.038577 0.161875
v 0.000000 0.271257 -0.222670
v 0.094732 0.284319 0.216688
v 0.155954 0.376854 -0.229689
v 0.202344 0.371910 0.162424
v 0.194043 0.038577 0.184582
v 0.227065 0.014283 0.155344
v -0.263383 0.481414 -0.247146
v -0.208387 0.438198 -0.187389
v -0.156870 0.550082 -0.198193
v -0.208387 0.438198 -0.243179
v 0.274980 0.285113 0.261918
v 0.194043 0.038577 0.184582
v 0.234267 0.064152 0.219313
v 0.226271 0.038638 0.214857
v 0.242874 0.289507 -0.084966
v 0.172130 0.311054 0.216810
v 0.228896 0.014832 0.230666
v 0.183178 0.014283 0.192150
v -0.263322 0.478423 -0.189892
v -0.263322 0.438076 -0.243179
v 0.244644 0.038088 0.192883
v 0.226271 0.038638 0.214857
v 0.250809 -0.000061 0.202344
v 0.274980 0.285113 0.261918
v 0.172130 0.376793 0.226210
v -0.172130 0.376854 0.226210
v 0.188915 0.000427 0.194836
v 0.227675 -0.000061 0.222731
v 0.183178 0.014283 0.192150
v 0.228896 0.014832 0.230666
v 0.257340 0.014588 0.205213
v -0.190747 0.587194 -0.201001
v 0.282183 0.333333 0.202527
v 0.265458 0.338155 0.250626
v 0.241897 0.271257 -0.002014
v 0.227065 0.014283 0.155344
v 0.227675 -0.000061 0.222731
v 0.257340 0.014588 0.205213
v 0.250809 -0.000061 0.202344
v -0.144296 0.608741 -0.258133
v -0.190319 0.585851 -0.256791
v -0.144540 0.609168 -0.202344
v -0.156321 0.547885 -0.253983
v 0.231398 0.281023 0.269609
v 0.215223 0.333333 0.258744
v 0.290118 0.281023 0.220289
v 0.094610 0.283587 -0.222670
v 0.253800 0.376793 0.156198
v 0.253800 0.376793 -0.161326
v 0.265458 0.338155 0.250626
v 0.203565 0.338583 -0.260575
v 0.289019 -0.000061 -0.253128
v 0.266984 0.000427 -0.214308
v 0.266984 0.000427 -0.214308
v 0.218397 0.014710 -0.246963
v 0.258805 -0.000061 -0.278520
v 0.289019 -0.000061 -0.253128
v 0.289019 0.014710 -0.253128
v 0.289019 0.014710 -0.253128
v 0.258805 0.014710 -0.278520
v 0.258805 0.014710 -0.278520
v 0.223280 0.000427 -0.254410
v 0.223280 0.000427 -0.254410
v 0.262223 0.014710 -0.210157
v 0.262223 0.014710 -0.210157
v 0.279558 0.235976 -0.229201
v 0.218397 0.014710 -0.246963
v 0.249710 0.033327 -0.203015
v 0.269609 0.038088 -0.236892
v 0.243850 0.071232 -0.243179
v 0.261307 0.071232 -0.228530
v 0.243850 0.071232 -0.243179
v 0.262650 0.118049 -0.224562
v 0.266801 0.297809 -0.266252
v 0.266801 0.297809 -0.266252
v 0.222609 0.293719 -0.274431
v 0.258805 -0.000061 -0.278520
v 0.222059 0.033327 -0.226210
v 0.211500 0.071171 -0.218763
v 0.243362 0.117866 -0.191296
v 0.204846 0.117866 -0.223585
v 0.268449 0.233596 -0.266252
v 0.229995 0.231765 -0.270768
v 0.244888 0.311054 -0.161326
v 0.271806 0.338583 -0.203321
v 0.222059 0.033327 -0.226210
v 0.249710 0.033327 -0.203015
v 0.243362 0.117866 -0.191296
v 0.204846 0.117866 -0.223585
v 0.196667 0.239089 -0.239944
v 0.256180 0.239089 -0.193798
v 0.155954 0.311054 -0.222670
v 0.202405 0.377770 -0.176891
v 0.250381 0.038088 -0.253006
v 0.269609 0.038088 -0.236892
v 0.236709 0.118049 -0.246353
v 0.262650 0.118049 -0.224562
v 0.244888 0.311054 -0.161326
v 0.196667 0.239089 -0.239944
v 0.250809 -0.000061 0.202344
v 0.227675 -0.000061 0.222731
v 0.250381 0.038088 -0.253006
v 0.261307 0.071232 -0.228530
v 0.274431 0.175609 -0.240371
v 0.236709 0.118049 -0.246353
v 0.155954 0.311054 -0.222670
v 0.244888 0.311054 -0.161326
v 0.228713 0.000427 0.161448
v 0.188915 0.000427 0.194836
v 0.240066 0.071171 -0.194531
v 0.211500 0.071171 -0.218763
v 0.257645 0.171397 -0.198498
v 0.257645 0.171397 -0.198498
v 0.256180 0.239089 -0.193798
v 0.282488 0.293719 -0.224196
v 0.253800 0.376793 0.224684
v 0.253800 0.376793 0.156198
v 0.240066 0.071171 -0.194531
v 0.211500 0.071171 -0.218763
v 0.207227 0.171397 -0.240798
v 0.207227 0.171397 -0.240798
v 0.244827 0.175609 -0.265153
v 0.244827 0.175609 -0.265153
v 0.282488 0.293719 -0.224196
v -0.001282 0.492218 0.018739
v -0.222304 0.441922 -0.174205
v -0.222304 0.441922 0.211805
v 0.155954 0.311054 -0.222670
v 0.155954 0.376854 -0.229689
v 0.240310 0.376854 -0.229689
v 0.222609 0.293719 -0.274431
v 0.203565 0.338583 -0.260575
v 0.254410 0.343405 -0.251907
v 0.240310 0.376854 -0.229689
v 0.254410 0.343405 -0.251907
v -0.266801 0.297809 -0.266252
v -0.282488 0.293719 -0.224196
v -0.236404 0.118049 -0.246597
v -0.244888 0.311054 -0.161326
v -0.155954 0.311054 -0.222670
v -0.202344 0.377403 -0.176891
v -0.285296 -0.000061 -0.256302
v -0.218397 0.014710 -0.246963
v -0.262589 0.014710 -0.275346
v -0.218397 0.014710 -0.246963
v -0.262589 0.014710 -0.275346
v -0.256180 0.239089 -0.193798
v -0.196667 0.239089 -0.239944
v -0.271806 0.338583 -0.203321
v -0.244888 0.311054 -0.161326
v -0.229995 0.231765 -0.270768
v -0.244888 0.311054 -0.161326
v -0.269792 0.038088 -0.236709
v -0.285296 0.014710 -0.256302
v 0.266984 0.000427 -0.214308
v 0.253800 0.376793 -0.161326
v 0.289019 -0.000061 -0.253128
v 0.271806 0.338583 -0.203321
v -0.266801 0.297809 -0.266252
v -0.268449 0.233596 -0.266252
v -0.279558 0.235976 -0.229201
v -0.285296 -0.000061 -0.256302
v -0.249710 0.033327 -0.203015
v -0.249710 0.033327 -0.203015
v 0.223280 0.000427 -0.254410
v 0.258805 -0.000061 -0.278520
v -0.196667 0.239089 -0.239944
v -0.155954 0.311054 -0.222670
v -0.266984 0.000427 -0.214308
v -0.266984 0.000427 -0.214308
v -0.250198 0.038088 -0.253189
v -0.222059 0.033327 -0.226210
v -0.262589 -0.000061 -0.275346
v -0.223280 0.000427 -0.254410
v -0.274736 0.175609 -0.240066
v -0.256180 0.239089 -0.193798
v -0.262589 -0.000061 -0.275346
v -0.223280 0.000427 -0.254410
v -0.250198 0.038088 -0.253189
v -0.222059 0.033327 -0.226210
v -0.243667 0.071232 -0.243362
v -0.266984 0.000427 -0.214308
v -0.207227 0.171397 -0.240798
v -0.244461 0.175609 -0.265458
v -0.262589 -0.000061 -0.275346
v -0.223280 0.000427 -0.254410
v -0.261491 0.071232 -0.228407
v -0.269792 0.038088 -0.236709
v -0.261491 0.071232 -0.228407
v -0.243362 0.117866 -0.191296
v -0.214979 0.071171 -0.215589
v -0.207227 0.171397 -0.240798
v -0.257645 0.171397 -0.198498
v -0.262223 0.014710 -0.210157
v -0.285296 -0.000061 -0.256302
v -0.240066 0.071171 -0.194531
v -0.240066 0.071171 -0.194531
v -0.243362 0.117866 -0.191296
v -0.262956 0.118049 -0.224318
v -0.257645 0.171397 -0.198498
v -0.274736 0.175609 -0.240066
v -0.262223 0.014710 -0.210157
v -0.285296 0.014710 -0.256302
v -0.243667 0.071232 -0.243362
v -0.214979 0.071171 -0.215589
v -0.204846 0.117866 -0.223585
v -0.204846 0.117866 -0.223585
v -0.262956 0.118049 -0.224318
v -0.236404 0.118049 -0.246597
v -0.222609 0.293719 -0.274431
v -0.222304 0.441922 0.211805
v -0.098028 0.475920 0.195691
v -0.001282 0.484771 0.141488
v -0.282488 0.293719 -0.224196
v -0.203565 0.338583 -0.260575
v -0.155954 0.311054 -0.222670
v -0.222609 0.293719 -0.274431
v -0.032167 0.727950 -0.267045
v -0.029238 0.637551 -0.260819
v -0.036257 0.555698 -0.255204
v -0.029299 0.637368 -0.227797
v -0.241287 0.376854 -0.224257
v -0.049075 0.505890 -0.252152
v -0.254410 0.343405 -0.251907
v 0.031801 0.637063 -0.227614
v -0.036379 0.555576 -0.222365
v -0.047549 0.959043 -0.283831
v -0.046329 1.070134 -0.291583
v -0.099371 1.006653 -0.287249
v -0.078252 1.040835 -0.290057
v -0.250687 0.064213 0.199109
v -0.266252 0.117683 0.217909
v -0.234206 0.064152 0.219313
v 0.031923 0.637246 -0.260636
v -0.029238 0.637551 -0.260819
v 0.037966 0.555149 -0.222182
v 0.038027 0.555332 -0.255020
v -0.250687 0.064213 0.199109
v -0.247940 0.117866 0.184704
v -0.180675 0.796191 -0.272478
v -0.269181 0.898981 -0.223952
v -0.245559 0.839163 -0.219618
v -0.245437 0.835195 -0.275468
v -0.239700 0.115058 0.240371
v -0.237624 0.200696 0.259598
v -0.266007 0.207471 0.191723
v -0.215589 0.207471 0.234023
v 0.031801 0.637063 -0.227614
v 0.031923 0.637246 -0.260636
v -0.266252 0.117683 0.217909
v -0.266007 0.207471 0.191723
v -0.222182 0.780870 -0.271501
v -0.180492 0.800159 -0.216688
v -0.247940 0.117866 0.184704
v -0.209424 0.117866 0.217054
v -0.244888 0.311054 0.148447
v -0.266557 0.275468 0.180736
v -0.274980 0.285113 0.261918
v -0.274980 0.285113 0.261918
v -0.290118 0.281023 0.220289
v -0.228713 0.000427 0.161448
v -0.228713 0.000427 0.161448
v -0.227736 -0.000061 0.222731
v -0.188915 0.000427 0.194836
v -0.032290 0.727767 -0.232131
v 0.035769 0.727400 -0.231948
v -0.250870 -0.000061 0.202344
v -0.175243 0.460966 0.211256
v -0.227736 -0.000061 0.222731
v -0.172130 0.305255 0.216810
v -0.203321 0.276323 0.236953
v -0.203321 0.276323 0.236953
v -0.205396 0.475981 -0.066960
v -0.144906 0.484893 0.018739
v -0.281450 0.200696 0.222853
v -0.271318 0.200818 0.255265
v -0.237624 0.200696 0.259598
v -0.183178 0.014283 0.192150
v -0.227065 0.014283 0.155344
v -0.194043 0.038577 0.184582
v -0.250870 -0.000061 0.202344
v -0.253800 0.376793 0.226210
v -0.188915 0.000427 0.194836
v -0.188915 0.000427 0.194836
v -0.265458 0.332601 0.250626
v -0.231398 0.281023 0.269609
v -0.244644 0.038088 0.192883
v -0.234206 0.064152 0.219313
v -0.257340 0.014588 0.205213
v -0.032290 0.727767 -0.232131
v -0.244644 0.038088 0.192883
v -0.227065 0.014283 0.155344
v -0.221083 0.038577 0.161875
v -0.265458 0.332601 0.250626
v -0.253800 0.376793 0.226210
v -0.215223 0.327779 0.258744
v -0.221083 0.038577 0.161875
v -0.282183 0.333333 0.202527
v -0.228713 0.000427 0.161448
v -0.253800 0.376793 0.157724
v -0.228896 0.014832 0.230666
v -0.183178 0.014283 0.192150
v -0.228896 0.014832 0.230666
v -0.226271 0.038638 0.214857
v -0.226271 0.038638 0.214857
v -0.194043 0.038577 0.184582
v -0.172130 0.305255 0.216810
v -0.172130 0.376854 0.226210
v -0.227736 -0.000061 0.222731
v -0.257340 0.014588 0.205213
v -0.250870 -0.000061 0.202344
v -0.032167 0.727950 -0.267045
v 0.035830 0.727583 -0.266862
v -0.231398 0.281023 0.269609
v 0.007264 1.085393 -0.292742
v 0.085271 1.039980 -0.289568
v -0.029299 0.637368 -0.227797
v 0.085393 1.043032 -0.248489
v 0.050296 0.505402 -0.251846
v -0.047549 0.959043 -0.283831
v -0.263322 0.438198 -0.187389
v -0.203565 0.868278 -0.277727
v -0.036379 0.555576 -0.222365
v -0.254410 0.343405 -0.251907
v -0.271806 0.338583 -0.203321
v -0.241287 0.376854 -0.224257
v -0.253800 0.376793 -0.161326
v -0.268998 0.894952 -0.279802
v -0.198376 0.925410 -0.281755
v -0.198559 0.929378 -0.225966
v -0.203687 0.872307 -0.221876
v -0.239700 0.115058 0.240371
v -0.282183 0.333333 0.202527
v -0.209424 0.117866 0.217054
v 0.038027 0.555332 -0.255020
v 0.037966 0.555149 -0.222182
v -0.036257 0.555698 -0.255204
v -0.215589 0.207471 0.234023
v -0.221937 0.784838 -0.215650
v 0.172130 0.311054 0.216810
v 0.172130 0.376793 0.226210
v -0.265641 0.954770 -0.227919
v -0.203565 0.338583 -0.260575
v -0.155954 0.376854 -0.229689
v -0.244888 0.311054 0.148447
v -0.263383 0.481414 -0.247146
v -0.237441 0.992981 -0.286700
v -0.047183 0.811146 -0.233535
v 0.074040 0.851676 -0.283648
v 0.049625 0.882500 -0.237075
v -0.047061 0.811390 -0.274370
v -0.203565 0.868278 -0.277727
v -0.245437 0.835195 -0.275468
v -0.055362 0.937801 -0.226210
v -0.047793 0.963071 -0.228041
v -0.083440 0.921748 -0.225539
v -0.114875 0.929622 -0.226149
v -0.125740 0.957944 -0.283953
v -0.047549 0.959043 -0.283831
v -0.055240 0.933834 -0.282061
v -0.083318 0.917781 -0.281328
v -0.264970 0.441922 -0.243606
v 0.219679 0.441922 -0.174205
v 0.263322 0.441922 -0.243606
v 0.219679 0.441922 -0.174205
v 0.219679 0.441922 0.211805
v 0.263322 0.441922 0.235732
v -0.114875 0.929622 -0.226149
v 0.145456 0.595434 -0.201611
v -0.220411 0.461027 0.171641
v -0.205396 0.475981 0.104438
v -0.220411 0.461027 -0.134102
v 0.193432 0.584508 -0.200024
v -0.078862 0.439968 -0.210706
v 0.050235 0.505219 -0.218641
v 0.202588 0.717451 -0.209913
v 0.184704 0.798328 -0.215711
v -0.125740 0.957944 -0.283953
v -0.114692 0.925655 -0.282000
v 0.242630 0.440029 -0.187389
v 0.161631 0.735152 -0.211256
v 0.050235 0.505219 -0.218641
v 0.250076 0.836599 -0.218275
v 0.221266 0.522432 -0.194104
v 0.184582 0.501740 -0.193737
v 0.155588 0.547336 -0.197400
v 0.187023 1.010682 -0.286455
v 0.243972 0.990478 -0.285418
v 0.262589 0.478423 -0.189892
v 0.262650 0.439175 -0.187389
v -0.044436 0.883233 -0.278398
v 0.225966 0.782580 -0.214491
v -0.077886 0.466154 -0.248856
v 0.078557 0.439968 -0.210706
v 0.078557 0.439968 -0.243179
v 0.247940 0.117866 0.184704
v 0.234267 0.064152 0.219313
v 0.219679 0.441922 -0.174205
v 0.219679 0.441922 0.211805
v 0.217787 0.436672 -0.134102
v 0.219679 0.441922 -0.174205
v 0.266252 0.117683 0.217909
v 0.074040 0.851676 -0.283648
v -0.069035 0.852408 -0.284014
v -0.047793 0.961973 -0.242752
v 0.263322 0.441922 -0.243606
v 0.263322 0.373192 -0.243606
v 0.263322 0.441922 0.235732
v -0.175243 0.460966 -0.173717
v 0.217787 0.436672 -0.134102
v 0.219679 0.441922 -0.174205
v 0.049747 0.882744 -0.278154
v 0.039553 0.919307 -0.280779
v 0.039492 0.919062 -0.239700
v 0.263322 0.441922 -0.243606
v 0.202832 0.475981 -0.066960
v 0.172618 0.436550 -0.173717
vt 0.820234 0.959560
vt 0.768339 0.962962
vt 0.788939 0.986753
vt 0.815463 0.809435
vt 0.747769 0.939172
vt 0.615783 0.778322
vt 0.818259 0.976119
vt 0.608521 0.706677
vt 0.602627 0.754410
vt 0.800849 0.947619
vt 0.788939 0.986753
vt 0.597036 0.726093
vt 0.838008 0.960744
vt 0.804252 0.932062
vt 0.573884 0.802750
vt 0.576254 0.768052
vt 0.275001 0.469321
vt 0.820234 0.959560
vt 0.873526 0.759849
vt 0.769432 0.891288
vt 0.844844 0.970346
vt 0.818259 0.976119
vt 0.272419 0.958435
vt 0.675942 0.727490
vt 0.794711 0.841398
vt 0.786842 0.911675
vt 0.808384 0.876582
vt 0.060220 0.471752
vt 0.089783 0.921398
vt 0.060220 0.956035
vt 0.213353 0.889586
vt 0.165043 0.836932
vt 0.116733 0.889617
vt 0.853443 0.764832
vt 0.862224 0.707650
vt 0.250543 0.923980
vt 0.282719 0.918815
vt 0.063836 0.634729
vt 0.093794 0.718254
vt 0.045758 0.507483
vt 0.046061 0.576788
vt 0.116673 0.546860
vt 0.919649 0.823289
vt 0.838008 0.960744
vt 0.844844 0.970346
vt 0.903971 0.793544
vt 0.818259 0.976119
vt 0.820234 0.959560
vt 0.800849 0.947619
vt 0.804252 0.932062
vt 0.873496 0.760122
vt 0.893579 0.749002
vt 0.820234 0.959560
vt 0.880636 0.711387
vt 0.804252 0.932062
vt 0.786842 0.911675
vt 0.698061 0.807125
vt 0.768339 0.962962
vt 0.696238 0.771881
vt 0.808384 0.876582
vt 0.828316 0.831037
vt 0.808384 0.876582
vt 0.824366 0.877980
vt 0.808384 0.876582
vt 0.664245 0.707164
vt 0.828316 0.831037
vt 0.669379 0.756020
vt 0.655980 0.779841
vt 0.655889 0.686533
vt 0.637173 0.788318
vt 0.616907 0.686533
vt 0.838008 0.960744
vt 0.844844 0.970346
vt 0.861920 0.953422
vt 0.786842 0.911675
vt 0.838008 0.960744
vt 0.837218 0.901709
vt 0.824366 0.877980
vt 0.601563 0.213097
vt 0.968991 0.566974
vt 0.607184 0.586693
vt 0.920165 0.566974
vt 0.313892 0.136379
vt 0.314591 0.163238
vt 0.604693 0.109793
vt 0.313892 0.109793
vt 0.720697 0.466587
vt 0.794165 0.555337
vt 0.751628 0.461087
vt 0.794651 0.480077
vt 0.809721 0.648128
vt 0.858000 0.550992
vt 0.838342 0.535649
vt 0.853929 0.471114
vt 0.748498 0.854250
vt 0.747769 0.939172
vt 0.872311 0.488433
vt 0.858699 0.331319
vt 0.926667 0.109793
vt 0.604693 0.136379
vt 0.723097 0.884907
vt 0.709729 0.829518
vt 0.926333 0.674046
vt 0.619064 0.648432
vt 0.614689 0.613491
vt 0.654127 0.648554
vt 0.962793 0.674046
vt 0.921198 0.637950
vt 0.715380 0.620601
vt 0.746797 0.627802
vt 0.791309 0.629048
vt 0.718661 0.379568
vt 0.842687 0.934584
vt 0.655889 0.686533
vt 0.804252 0.932062
vt 0.672114 0.686533
vt 0.837218 0.901709
vt 0.861950 0.921519
vt 0.858851 0.885181
vt 0.886227 0.679241
vt 0.772805 0.474912
vt 0.671263 0.213219
vt 0.718813 0.541178
vt 0.682049 0.218505
vt 0.808384 0.876582
vt 0.824366 0.877980
vt 0.769432 0.891288
vt 0.748498 0.854250
vt 0.794711 0.841398
vt 0.779580 0.791812
vt 0.739049 0.810285
vt 0.738350 0.758086
vt 0.770496 0.721839
vt 0.742452 0.696043
vt 0.769918 0.629412
vt 0.746797 0.627802
vt 0.751628 0.461087
vt 0.749622 0.545402
vt 0.772805 0.474912
vt 0.772349 0.553514
vt 0.764389 0.265357
vt 0.749410 0.370848
vt 0.771316 0.403146
vt 0.712372 0.286686
vt 0.743181 0.274138
vt 0.672539 0.261772
vt 0.700735 0.203557
vt 0.730845 0.192224
vt 0.786660 0.258277
vt 0.782224 0.207355
vt 0.764389 0.265357
vt 0.759315 0.209178
vt 0.759315 0.209178
vt 0.677978 0.547134
vt 0.659322 0.552299
vt 0.614233 0.552572
vt 0.659322 0.552299
vt 0.651939 0.475003
vt 0.666949 0.473241
vt 0.797568 0.767262
vt 0.845725 0.855283
vt 0.824366 0.877980
vt 0.743181 0.274138
vt 0.844692 0.678573
vt 0.811301 0.703244
vt 0.815463 0.809435
vt 0.794711 0.841398
vt 0.779580 0.791812
vt 0.769432 0.891288
vt 0.838342 0.535952
vt 0.872311 0.488706
vt 0.853929 0.471387
vt 0.881669 0.422105
vt 0.731666 0.156614
vt 0.613322 0.812989
vt 0.615783 0.778322
vt 0.614689 0.613491
vt 0.813762 0.167491
vt 0.841046 0.167491
vt 0.761047 0.171563
vt 0.759315 0.209178
vt 0.858669 0.331289
vt 0.858578 0.236189
vt 0.872068 0.293917
vt 0.841320 0.256789
vt 0.607184 0.586693
vt 0.589744 0.161445
vt 0.590777 0.218110
vt 0.601563 0.213097
vt 0.769706 0.337001
vt 0.863439 0.407126
vt 0.879876 0.354168
vt 0.604693 0.109793
vt 0.926667 0.136379
vt 0.858578 0.236189
vt 0.881669 0.421802
vt 0.600743 0.686533
vt 0.842687 0.934584
vt 0.761047 0.171563
vt 0.791369 0.332687
vt 0.769706 0.337001
vt 0.793435 0.403237
vt 0.749410 0.370848
vt 0.751628 0.461087
vt 0.772349 0.553514
vt 0.771316 0.403146
vt 0.772805 0.474912
vt 0.862193 0.707954
vt 0.700735 0.203557
vt 0.781798 0.171684
vt 0.844662 0.678846
vt 0.811270 0.703548
vt 0.809691 0.648402
vt 0.842262 0.622394
vt 0.699611 0.166398
vt 0.730845 0.192224
vt 0.821570 0.589458
vt 0.857970 0.551296
vt 0.863409 0.407400
vt 0.879846 0.354107
vt 0.596459 0.622090
vt 0.619064 0.648432
vt 0.588559 0.590096
vt 0.600348 0.654327
vt 0.616907 0.686533
vt 0.601867 0.160017
vt 0.597401 0.773552
vt 0.808384 0.876582
vt 0.761047 0.171563
vt 0.594970 0.808250
vt 0.666523 0.586055
vt 0.666523 0.586055
vt 0.252457 0.374798
vt 0.402946 0.209208
vt 0.297455 0.418247
vt 0.283812 0.200792
vt 0.699854 0.893506
vt 0.661389 0.866525
vt 0.731666 0.156614
vt 0.493216 0.444012
vt 0.462376 0.460723
vt 0.579292 0.453613
vt 0.498928 0.881626
vt 0.533899 0.182197
vt 0.699854 0.893506
vt 0.661389 0.866525
vt 0.498928 0.881626
vt 0.448825 0.400776
vt 0.546053 0.440214
vt 0.049981 0.210241
vt 0.579232 0.453552
vt 0.049981 0.210241
vt 0.748498 0.854250
vt 0.723097 0.884907
vt 0.709729 0.829518
vt 0.838008 0.960744
vt 0.602991 0.843008
vt 0.405255 0.420222
vt 0.905824 0.225646
vt 0.283995 0.864824
vt 0.283995 0.566518
vt 0.079514 0.506693
vt 0.782224 0.207355
vt 0.786660 0.258277
vt 0.764389 0.265357
vt 0.700735 0.203557
vt 0.712372 0.286686
vt 0.743181 0.274138
vt 0.730845 0.192224
vt 0.600166 0.261620
vt 0.612805 0.252292
vt 0.590777 0.218110
vt 0.601563 0.213097
vt 0.772805 0.474912
vt 0.794651 0.480077
vt 0.794165 0.555337
vt 0.718813 0.541178
vt 0.720697 0.466587
vt 0.751628 0.461087
vt 0.749622 0.545402
vt 0.880666 0.711113
vt 0.073498 0.276143
vt 0.535388 0.588759
vt 0.570420 0.520670
vt 0.072161 0.218232
vt 0.105097 0.264688
vt 0.103972 0.220511
vt 0.494644 0.611273
vt 0.513877 0.592739
vt 0.500812 0.518573
vt 0.473801 0.527324
vt 0.028834 0.291395
vt 0.051925 0.284711
vt 0.049981 0.210241
vt 0.513877 0.592739
vt 0.500812 0.518573
vt 0.542680 0.515747
vt 0.027740 0.203496
vt 0.841077 0.199637
vt 0.786842 0.911675
vt 0.893610 0.748698
vt 0.772349 0.553514
vt 0.565954 0.209725
vt 0.602991 0.843008
vt 0.520379 0.310750
vt 0.521655 0.513256
vt 0.759315 0.209178
vt 0.535449 0.665295
vt 0.535449 0.665295
vt 0.382225 0.481931
vt 0.382225 0.584050
vt 0.337379 0.584050
vt 0.012214 0.031343
vt 0.837218 0.901709
vt 0.861950 0.921519
vt 0.842687 0.934584
vt 0.886196 0.679545
vt 0.212168 0.284316
vt 0.661389 0.866525
vt 0.705141 0.974842
vt 0.699854 0.893506
vt 0.604693 0.031343
vt 0.313892 0.031343
vt 0.313892 0.109793
vt 0.604693 0.109793
vt 0.794711 0.841398
vt 0.748498 0.854250
vt 0.779580 0.791812
vt 0.739049 0.810285
vt 0.498928 0.881626
vt 0.542255 0.863001
vt 0.542255 0.863001
vt 0.705141 0.974842
vt 0.044785 0.854524
vt 0.046061 0.576788
vt 0.016498 0.875093
vt 0.604693 0.031343
vt 0.671263 0.213219
vt 0.983332 0.167795
vt 0.683477 0.161263
vt 0.671294 0.159926
vt 0.926667 0.031343
vt 0.604693 0.109793
vt 0.926667 0.109793
vt 0.313892 0.109793
vt 0.682049 0.218505
vt 0.858851 0.885181
vt 0.012214 0.109793
vt 0.313892 0.031343
vt 0.337379 0.481931
vt 0.604693 0.031343
vt 0.901783 0.671888
vt 0.921380 0.709777
vt 0.915699 0.687900
vt 0.769432 0.891288
vt 0.738350 0.758086
vt 0.770496 0.721839
vt 0.222316 0.223519
vt 0.565863 0.278604
vt 0.492335 0.974842
vt 0.250239 0.208479
vt 0.345187 0.224369
vt 0.742452 0.696043
vt 0.769918 0.629412
vt 0.749622 0.545402
vt 0.813762 0.199698
vt 0.813762 0.167491
vt 0.841077 0.199637
vt 0.841046 0.167491
vt 0.612805 0.252292
vt 0.671263 0.213219
vt 0.658867 0.613613
vt 0.636869 0.819795
vt 0.637173 0.788318
vt 0.657925 0.815025
vt 0.189684 0.250043
vt 0.542255 0.863001
vt 0.602991 0.843008
vt 0.492335 0.974842
vt 0.710245 0.689967
vt 0.738350 0.758086
vt 0.706326 0.762948
vt 0.770496 0.721839
vt 0.741875 0.161810
vt 0.730845 0.192224
vt 0.872068 0.293917
vt 0.841320 0.256789
vt 0.739049 0.810285
vt 0.790762 0.709534
vt 0.250239 0.208479
vt 0.222316 0.223519
vt 0.655980 0.779841
vt 0.604693 0.136379
vt 0.317326 0.208965
vt 0.498928 0.881626
vt 0.492335 0.974842
vt 0.283812 0.200792
vt 0.487139 0.371912
vt 0.705141 0.974842
vt 0.377758 0.251320
vt 0.699854 0.893506
vt 0.158663 0.216105
vt 0.159726 0.257974
vt 0.557781 0.737031
vt 0.345187 0.224369
vt 0.661389 0.866525
vt 0.351659 0.433773
vt 0.547572 0.369755
vt 0.593086 0.391540
vt 0.535783 0.696772
vt 0.141921 0.256667
vt 0.547693 0.692336
vt 0.484465 0.168160
vt 0.317326 0.208965
vt 0.402916 0.278604
vt 0.355123 0.285410
vt 0.141101 0.224977
vt 0.153103 0.263473
vt 0.700735 0.203557
vt 0.761047 0.171563
vt 0.769706 0.337001
vt 0.781798 0.171684
vt 0.519467 0.438330
vt 0.504154 0.691729
vt 0.520682 0.665234
vt 0.518920 0.695709
vt 0.542255 0.863001
vt 0.345187 0.224369
vt 0.516307 0.739309
vt 0.151766 0.212003
vt 0.730845 0.192224
vt 0.699611 0.166398
vt 0.535783 0.696772
vt 0.518920 0.695709
vt 0.535996 0.757388
vt 0.519467 0.438330
vt 0.448825 0.310750
vt 0.252457 0.310750
vt 0.493732 0.738702
vt 0.516307 0.758876
vt 0.495464 0.719651
vt 0.516307 0.739309
vt 0.534872 0.739917
vt 0.749410 0.370848
vt 0.547572 0.369755
vt 0.517279 0.374008
vt 0.602991 0.843008
vt 0.555867 0.718254
vt 0.516307 0.758876
vt 0.534872 0.739917
vt 0.535996 0.757388
vt 0.793435 0.403237
vt 0.718661 0.379568
vt 0.771316 0.403146
vt 0.791369 0.332687
vt 0.493216 0.444012
vt 0.487139 0.371912
vt 0.546083 0.440275
vt 0.435031 0.180799
vt 0.705141 0.974842
vt 0.492335 0.974842
vt 0.517279 0.374008
vt 0.398936 0.920608
vt 0.447245 0.494752
vt 0.465141 0.530331
vt 0.044481 0.401232
vt 0.410755 0.535740
vt 0.427557 0.489435
vt 0.447245 0.494752
vt 0.444268 0.511585
vt 0.444268 0.511585
vt 0.428013 0.508091
vt 0.428013 0.508091
vt 0.042658 0.348121
vt 0.407291 0.514289
vt 0.458609 0.546647
vt 0.052077 0.401566
vt 0.452259 0.799864
vt 0.050740 0.346329
vt 0.457637 0.578611
vt 0.441321 0.567825
vt 0.424762 0.611091
vt 0.438525 0.612762
vt 0.424762 0.611091
vt 0.440591 0.675261
vt 0.427010 0.852610
vt 0.427010 0.852610
vt 0.398055 0.851789
vt 0.427557 0.489435
vt 0.064292 0.359728
vt 0.083099 0.359303
vt 0.462407 0.669549
vt 0.105036 0.344931
vt 0.427192 0.799195
vt 0.402399 0.794364
vt 0.377758 0.251320
vt 0.459885 0.918329
vt 0.410117 0.571076
vt 0.065112 0.393758
vt 0.106160 0.392360
vt 0.396778 0.662773
vt 0.366182 0.789351
vt 0.154956 0.395398
vt 0.345187 0.224369
vt 0.355123 0.285410
vt 0.426129 0.565333
vt 0.441321 0.567825
vt 0.418290 0.673104
vt 0.440591 0.675261
vt 0.184398 0.403298
vt 0.153406 0.324422
vt 0.170178 0.249223
vt 0.169388 0.227924
vt 0.426129 0.565333
vt 0.438525 0.612762
vt 0.440835 0.750004
vt 0.418290 0.673104
vt 0.183790 0.301331
vt 0.498928 0.881626
vt 0.159726 0.257974
vt 0.158663 0.216105
vt 0.457454 0.618960
vt 0.406592 0.611577
vt 0.132594 0.395732
vt 0.473132 0.733202
vt 0.487139 0.793635
vt 0.456148 0.850452
vt 0.520379 0.310750
vt 0.572638 0.310750
vt 0.083950 0.390112
vt 0.084132 0.357844
vt 0.382589 0.727581
vt 0.131075 0.333720
vt 0.414401 0.749123
vt 0.414401 0.749123
vt 0.456148 0.850452
vt 0.165013 0.718223
vt 0.307147 0.905963
vt 0.309730 0.535649
vt 0.350444 0.885819
vt 0.368643 0.974842
vt 0.436642 0.974842
vt 0.398055 0.851789
vt 0.398936 0.920608
vt 0.428985 0.910308
vt 0.436642 0.974842
vt 0.428985 0.910308
vt 0.427010 0.852610
vt 0.456148 0.850452
vt 0.418290 0.673104
vt 0.498928 0.881626
vt 0.222316 0.223519
vt 0.212168 0.284316
vt 0.030627 0.387255
vt 0.050740 0.346329
vt 0.428013 0.508091
vt 0.410755 0.535740
vt 0.428013 0.508091
vt 0.154956 0.395398
vt 0.153406 0.324422
vt 0.459885 0.918329
vt 0.189684 0.250043
vt 0.402399 0.794364
vt 0.184398 0.403298
vt 0.441321 0.567825
vt 0.444268 0.511585
vt 0.044481 0.401232
vt 0.492335 0.974842
vt 0.030627 0.387255
vt 0.459885 0.918329
vt 0.427010 0.852610
vt 0.427192 0.799195
vt 0.452259 0.799864
vt 0.447245 0.494752
vt 0.457637 0.578611
vt 0.065112 0.393758
vt 0.042658 0.348121
vt 0.030323 0.363435
vt 0.366182 0.789351
vt 0.183790 0.301331
vt 0.465141 0.530331
vt 0.044481 0.401232
vt 0.426129 0.565333
vt 0.064292 0.359728
vt 0.030323 0.363435
vt 0.042658 0.348121
vt 0.440835 0.750004
vt 0.487139 0.793635
vt 0.427557 0.489435
vt 0.042658 0.348121
vt 0.426129 0.565333
vt 0.410117 0.571076
vt 0.424762 0.611091
vt 0.044481 0.401232
vt 0.382589 0.727581
vt 0.414401 0.749123
vt 0.427557 0.489435
vt 0.407291 0.514289
vt 0.438525 0.612762
vt 0.441321 0.567825
vt 0.438525 0.612762
vt 0.462407 0.669549
vt 0.406592 0.611577
vt 0.131075 0.333720
vt 0.132594 0.395732
vt 0.458609 0.546647
vt 0.447245 0.494752
vt 0.083950 0.390112
vt 0.457454 0.618960
vt 0.106160 0.392360
vt 0.440591 0.675261
vt 0.473132 0.733202
vt 0.440835 0.750004
vt 0.052077 0.401566
vt 0.444268 0.511585
vt 0.424762 0.611091
vt 0.083220 0.359211
vt 0.396778 0.662773
vt 0.105036 0.344931
vt 0.440591 0.675261
vt 0.418290 0.673104
vt 0.398055 0.851789
vt 0.284602 0.506693
vt 0.213323 0.546799
vt 0.165013 0.599515
vt 0.456148 0.850452
vt 0.398936 0.920608
vt 0.350444 0.885819
vt 0.398055 0.851789
vt 0.961183 0.484604
vt 0.606972 0.390780
vt 0.604419 0.309291
vt 0.621343 0.390780
vt 0.436642 0.974842
vt 0.968961 0.265083
vt 0.428985 0.910308
vt 0.651544 0.390780
vt 0.618092 0.303853
vt 0.967776 0.709777
vt 0.969386 0.822682
vt 0.995577 0.749002
vt 0.985155 0.793544
vt 0.535388 0.665234
vt 0.535358 0.588729
vt 0.520622 0.665174
vt 0.929857 0.395307
vt 0.959299 0.395307
vt 0.654674 0.303853
vt 0.668316 0.309231
vt 0.535388 0.665234
vt 0.554651 0.607354
vt 0.791309 0.629048
vt 0.738350 0.758086
vt 0.742452 0.696043
vt 0.710245 0.689967
vt 0.513816 0.592678
vt 0.500751 0.518543
vt 0.073498 0.276143
vt 0.072161 0.218232
vt 0.651544 0.390780
vt 0.665916 0.390780
vt 0.535358 0.588729
vt 0.570360 0.520609
vt 0.715380 0.620601
vt 0.769918 0.629412
vt 0.105097 0.264688
vt 0.103972 0.220511
vt 0.028834 0.291395
vt 0.051925 0.284711
vt 0.519406 0.438269
vt 0.519406 0.438269
vt 0.546053 0.440214
vt 0.159726 0.257974
vt 0.557720 0.736970
vt 0.516246 0.758846
vt 0.158663 0.216105
vt 0.621130 0.474183
vt 0.651939 0.475003
vt 0.535965 0.757327
vt 0.247990 0.506693
vt 0.516246 0.758846
vt 0.027740 0.203466
vt 0.049981 0.210241
vt 0.462316 0.460662
vt 0.266190 0.801717
vt 0.236232 0.718193
vt 0.542619 0.515687
vt 0.521594 0.513195
vt 0.500751 0.518543
vt 0.151766 0.212003
vt 0.153103 0.263473
vt 0.141101 0.224977
vt 0.535965 0.757327
vt 0.520318 0.310719
vt 0.493671 0.738641
vt 0.158663 0.216105
vt 0.517219 0.373978
vt 0.493155 0.443982
vt 0.535722 0.696742
vt 0.520622 0.665174
vt 0.534811 0.739887
vt 0.621130 0.474183
vt 0.535722 0.696742
vt 0.555806 0.718193
vt 0.547663 0.692276
vt 0.517219 0.373978
vt 0.520318 0.310719
vt 0.487078 0.371881
vt 0.141921 0.256667
vt 0.547511 0.369724
vt 0.159726 0.257974
vt 0.572578 0.310719
vt 0.516246 0.739249
vt 0.495403 0.719621
vt 0.516246 0.739249
vt 0.518859 0.695679
vt 0.518859 0.695679
vt 0.504093 0.691698
vt 0.448825 0.400746
vt 0.448825 0.310719
vt 0.169388 0.227924
vt 0.534811 0.739887
vt 0.170178 0.249223
vt 0.606242 0.473757
vt 0.927974 0.484604
vt 0.493155 0.443982
vt 0.942831 0.838025
vt 0.676671 0.811349
vt 0.621343 0.390780
vt 0.674757 0.776134
vt 0.920165 0.265083
vt 0.861920 0.953422
vt 0.731666 0.156614
vt 0.790762 0.709534
vt 0.618092 0.303853
vt 0.428985 0.910308
vt 0.459885 0.918329
vt 0.436642 0.974842
vt 0.492335 0.974842
vt 0.706326 0.762948
vt 0.797568 0.767262
vt 0.779580 0.791812
vt 0.770496 0.721839
vt 0.513816 0.592678
vt 0.547511 0.369724
vt 0.494583 0.611212
vt 0.926454 0.314396
vt 0.654674 0.303853
vt 0.962672 0.314396
vt 0.473740 0.527263
vt 0.746797 0.627802
vt 0.448825 0.400776
vt 0.448825 0.310750
vt 0.739049 0.810285
vt 0.398936 0.920608
vt 0.368643 0.974842
vt 0.593026 0.391509
vt 0.813762 0.199698
vt 0.825125 0.745143
vt 0.614233 0.552572
vt 0.685209 0.590035
vt 0.658867 0.613613
vt 0.595639 0.547620
vt 0.842262 0.622090
vt 0.821601 0.589184
vt 0.842687 0.934584
vt 0.838008 0.960744
vt 0.837218 0.901709
vt 0.824366 0.877980
vt 0.828316 0.831037
vt 0.921411 0.709503
vt 0.915729 0.687597
vt 0.901813 0.671584
vt 0.313892 0.109793
vt 0.012214 0.161415
vt 0.012214 0.109793
vt 0.313892 0.135832
vt 0.604693 0.136379
vt 0.604693 0.109793
vt 0.824366 0.877980
vt 0.771316 0.403146
vt 0.283995 0.566518
vt 0.266190 0.634608
vt 0.283995 0.864824
vt 0.749410 0.370848
vt 0.601867 0.160017
vt 0.659930 0.252383
vt 0.749622 0.545402
vt 0.769918 0.629412
vt 0.828316 0.831037
vt 0.845725 0.855283
vt 0.742604 0.162205
vt 0.772349 0.553514
vt 0.659930 0.252383
vt 0.742452 0.696043
vt 0.743181 0.274138
vt 0.764389 0.265357
vt 0.769706 0.337001
vt 0.853412 0.765135
vt 0.825095 0.745447
vt 0.730845 0.192224
vt 0.731666 0.156614
vt 0.967958 0.637950
vt 0.746797 0.627802
vt 0.983332 0.225646
vt 0.671294 0.159926
vt 0.905824 0.167795
vt 0.554712 0.607384
vt 0.520682 0.665234
vt 0.060220 0.956035
vt 0.019050 0.543366
vt 0.044785 0.854524
vt 0.016498 0.875093
vt 0.535388 0.588759
vt 0.909045 0.607384
vt 0.980081 0.607384
vt 0.844844 0.970346
vt 0.313892 0.109793
vt 0.313892 0.031343
vt 0.604693 0.109793
vt 0.250543 0.923980
vt 0.044785 0.854524
vt 0.053779 0.911098
vt 0.677188 0.622424
vt 0.672843 0.654843
vt 0.654127 0.648554
vt 0.313892 0.109793
vt 0.063866 0.801808
vt 0.089783 0.921398
vn 0.003478 0.071508 0.997434
vn 0.097301 0.992649 -0.071981
vn -0.151444 0.985807 -0.072454
vn 0.409539 -0.909826 0.067043
vn -0.204376 0.976217 -0.072318
vn -0.000518 0.061325 0.998118
vn 0.567694 0.821361 -0.055583
vn -0.000363 0.068563 0.997647
vn 0.002441 0.066240 0.997801
vn 0.259961 0.963178 -0.068624
vn 0.161922 0.984248 -0.070977
vn 0.018200 0.070481 0.997347
vn 0.830804 0.555019 -0.041454
vn 0.387780 0.919467 -0.064859
vn -0.847876 0.527620 -0.052190
vn -0.844196 0.532757 -0.059188
vn 0.000000 0.028834 0.999584
vn 0.673954 0.737010 -0.051011
vn -0.000742 -0.061894 -0.998082
vn -0.204974 0.976043 -0.072985
vn 0.831665 0.553941 -0.038499
vn 0.832517 0.552858 -0.035544
vn 0.000000 0.025633 -0.999671
vn -0.021739 0.069782 0.997325
vn 0.409609 -0.909815 0.066758
vn 0.053450 0.995920 -0.072710
vn 0.088186 -0.993509 0.071856
vn 0.000000 0.028834 0.999584
vn 0.197459 0.729952 -0.654355
vn 0.000000 0.025633 -0.999671
vn -0.056724 0.987421 -0.147589
vn 0.000000 0.997166 -0.075228
vn 0.088300 0.934403 -0.345099
vn 0.006687 -0.062079 -0.998049
vn 0.004252 -0.064673 -0.997897
vn -0.066733 0.654541 -0.753076
vn -0.341766 0.854583 -0.391004
vn 0.168190 0.982522 0.079760
vn 0.061956 0.998079 -0.000000
vn 0.341400 0.854920 0.390587
vn 0.849855 0.524997 0.046104
vn 0.056729 0.987420 0.147593
vn -0.001976 -0.073100 -0.997323
vn -0.824931 0.563582 -0.043178
vn -0.824570 0.564017 -0.044377
vn -0.057111 -0.117152 -0.991471
vn -0.665872 0.743783 -0.058315
vn -0.665680 0.744130 -0.056041
vn -0.249921 0.965672 -0.070832
vn -0.377973 0.923522 -0.065145
vn 0.005841 -0.062842 -0.998006
vn 0.002595 -0.071087 -0.997467
vn -0.007406 0.071568 0.997408
vn 0.004709 -0.064575 -0.997902
vn -0.015539 0.062745 0.997909
vn -0.042426 0.996386 -0.073584
vn 0.853651 0.518762 -0.046537
vn -0.086690 0.993526 -0.073417
vn 0.850730 0.522998 -0.052274
vn 0.943153 -0.331370 0.025629
vn 0.943153 -0.331370 0.025629
vn -0.098491 -0.992646 0.070377
vn 0.943153 -0.331370 0.025629
vn -0.012880 0.062603 0.997955
vn -0.003939 0.072597 0.997354
vn 0.278623 -0.957938 0.068734
vn -0.008838 0.063126 0.997966
vn -0.016717 0.041151 0.999013
vn -0.002620 0.078536 0.996908
vn -0.001861 0.063152 0.998002
vn -0.002607 0.080638 0.996740
vn -0.960829 -0.276707 0.015532
vn -0.960762 -0.276784 0.018097
vn -0.960209 -0.278576 0.019869
vn -0.005829 0.061942 0.998063
vn 0.008856 0.079269 0.996814
vn 0.003840 0.067518 0.997711
vn -0.001428 0.073644 0.997284
vn -0.001496 0.144825 0.989456
vn 0.001702 -0.134596 -0.990899
vn -0.002260 0.050587 0.998717
vn 0.001731 -0.146906 -0.989149
vn 0.000000 1.000000 0.000000
vn 0.000000 1.000000 0.000000
vn 0.000000 1.000000 0.000000
vn 0.000000 1.000000 0.000000
vn 0.993810 -0.110584 0.010594
vn -0.955188 0.294257 -0.032068
vn 0.999471 -0.032510 0.000046
vn -0.989427 0.144690 -0.009913
vn 0.002849 -0.071001 -0.997472
vn 0.002848 -0.071446 -0.997440
vn 0.002580 -0.071445 -0.997441
vn 0.002061 -0.071796 -0.997417
vn 0.597465 0.799907 -0.056422
vn 0.215144 0.973994 -0.071054
vn 0.002313 -0.071500 -0.997438
vn -0.000354 -0.080329 -0.996768
vn 0.000000 1.000000 0.000000
vn 0.000000 1.000000 0.000000
vn 0.596841 0.800434 -0.055557
vn 0.924995 0.379162 -0.024913
vn 0.002354 -0.071191 -0.997460
vn -0.002916 0.068498 0.997647
vn -0.002014 0.145092 0.989416
vn -0.002665 0.068180 0.997670
vn 0.002164 -0.071235 -0.997457
vn 0.002618 0.009790 -0.999949
vn 0.925686 -0.376779 0.033814
vn 0.934052 -0.355319 0.036000
vn -0.947128 0.319559 -0.028836
vn 0.985158 0.171593 -0.004444
vn 0.014117 0.076154 0.996996
vn 0.944759 -0.327568 0.011410
vn 0.010862 0.062921 0.997959
vn 0.940909 -0.337802 0.024093
vn 0.266677 -0.961318 0.068924
vn 0.738729 -0.672140 0.050079
vn 0.002825 -0.997485 0.070822
vn 0.003418 -0.061614 -0.998094
vn -0.995942 0.089993 -0.001007
vn 0.816229 0.577706 0.005211
vn 0.956807 -0.288856 0.032908
vn 0.816137 0.577838 0.004947
vn -0.947058 -0.320372 0.021039
vn -0.947058 -0.320372 0.021039
vn -0.006512 0.060964 0.998119
vn -0.004180 0.067867 0.997686
vn -0.004478 0.064179 0.997928
vn -0.002209 0.071526 0.997436
vn -0.001999 0.071446 0.997442
vn -0.002370 0.071340 0.997449
vn -0.002452 0.071305 0.997452
vn -0.002262 0.071369 0.997447
vn -0.001982 0.071699 0.997424
vn -0.002200 0.071598 0.997431
vn -0.006003 0.078987 0.996858
vn -0.001504 0.067935 0.997689
vn -0.002576 0.072530 0.997363
vn -0.002014 0.069583 0.997574
vn 0.049937 0.077026 0.995778
vn 0.004346 0.086080 0.996279
vn -0.007992 0.081290 0.996658
vn 0.864096 0.502596 -0.027100
vn 0.799018 0.600889 -0.022415
vn 0.935113 0.354329 0.003685
vn 0.714204 0.699658 -0.019776
vn 0.728774 0.684739 0.004591
vn -0.791339 -0.610108 0.039378
vn -0.839187 -0.543681 0.013307
vn -0.716742 -0.696657 0.030819
vn -0.980439 -0.196702 -0.006943
vn -0.010462 0.083064 0.996489
vn 0.933842 -0.357686 0.000799
vn 0.966689 -0.255952 0.001254
vn -0.002629 -0.018088 0.999833
vn -0.002855 -0.067306 0.997728
vn 0.995948 -0.089908 0.001905
vn 0.990250 -0.139296 0.001494
vn -0.956198 -0.292106 0.018968
vn 0.681073 -0.730264 0.053424
vn 0.537674 -0.840940 0.061047
vn 0.029671 0.086564 0.995804
vn 0.002851 -0.071125 -0.997463
vn 0.003073 -0.071172 -0.997459
vn -0.506314 -0.860233 0.060376
vn -0.320443 -0.944931 0.066498
vn -0.841944 -0.538311 0.036752
vn 0.216409 0.973647 -0.071964
vn 0.002352 -0.070698 -0.997495
vn 0.002092 -0.070966 -0.997477
vn 0.001989 -0.070915 -0.997480
vn 0.001906 -0.071247 -0.997457
vn 0.999999 0.001557 0.000020
vn -0.461704 0.884612 -0.065514
vn -0.460693 0.885213 -0.064505
vn -0.846503 0.532383 0.000140
vn 0.001512 -0.089515 -0.995984
vn 0.000195 -0.087960 -0.996124
vn 0.000000 0.062284 0.998058
vn 0.016418 0.079981 0.996661
vn 0.011399 -0.079769 -0.996748
vn 0.018485 -0.094865 -0.995319
vn 0.010069 -0.078666 -0.996850
vn 0.011272 -0.093349 -0.995570
vn -0.991391 -0.130875 -0.003983
vn -0.999397 0.034686 -0.001776
vn -0.999327 0.036505 -0.003531
vn -0.999397 0.034686 -0.001776
vn 0.020420 0.078208 0.996728
vn 0.006726 -0.079388 -0.996821
vn 0.008037 -0.078885 -0.996851
vn 0.000000 1.000000 0.000000
vn 0.000000 1.000000 0.000000
vn -0.028454 -0.080859 -0.996319
vn 0.003430 -0.075926 -0.997108
vn -0.944906 -0.326864 0.017697
vn 0.787265 -0.614950 0.045286
vn -0.994990 0.099975 0.000000
vn -0.948093 -0.317738 0.012700
vn -0.901341 -0.432301 0.026475
vn -0.999671 -0.025639 -0.000713
vn -0.015005 0.085382 0.996235
vn -0.006419 0.074019 0.997236
vn -0.002927 0.069208 0.997598
vn -0.009338 0.080120 0.996741
vn -0.003254 0.067967 0.997682
vn 0.000394 -0.064780 -0.997900
vn 0.999997 -0.001434 0.002182
vn -0.994519 0.104509 -0.003290
vn 0.001943 -0.071639 -0.997429
vn 0.001885 -0.071810 -0.997417
vn 0.002114 -0.071531 -0.997436
vn 0.002520 -0.071085 -0.997467
vn 0.999999 0.000070 0.001095
vn 0.999999 0.000070 0.001095
vn 0.002726 -0.070750 -0.997490
vn 0.002755 -0.070621 -0.997499
vn 0.005722 -0.074758 -0.997185
vn 0.008990 -0.077874 -0.996923
vn -0.915095 0.403239 -0.000462
vn -0.997994 0.063253 -0.002551
vn -0.976848 0.213928 -0.001895
vn -0.989908 -0.141649 0.004117
vn -0.948159 -0.317730 0.006401
vn -0.999460 0.032846 0.000000
vn -0.765287 0.641315 -0.055232
vn 0.008045 0.062804 0.997993
vn 0.000000 0.065251 0.997869
vn -0.768072 0.638157 -0.053118
vn -0.002264 0.052544 0.998616
vn 0.990088 -0.140435 0.001780
vn -0.044207 -0.130043 0.990522
vn 0.047444 -0.105958 -0.993238
vn -0.027033 -0.116742 0.992794
vn 0.004934 -0.494321 -0.869265
vn -0.990567 -0.136291 0.014228
vn -0.990214 -0.138520 0.016955
vn 0.000000 0.062095 0.998070
vn -0.751193 -0.133369 0.646468
vn -0.710611 -0.138047 0.689909
vn 0.849118 -0.046891 -0.526117
vn 0.808466 -0.560506 -0.179487
vn -0.023288 -0.091260 -0.995555
vn 0.990615 -0.135954 0.014114
vn 0.990268 -0.138148 0.016856
vn 0.990868 -0.134324 -0.011765
vn 0.047281 -0.141392 0.988824
vn -0.868102 -0.081473 -0.489654
vn 0.662576 -0.086406 -0.743994
vn -0.849118 -0.046891 -0.526117
vn -0.662576 -0.086406 -0.743994
vn -0.588708 0.806088 -0.060377
vn -0.588344 0.806370 -0.060159
vn -0.920794 0.388863 -0.030380
vn 0.958159 -0.285440 0.021319
vn -0.992825 -0.119580 0.000079
vn 0.034782 -0.131129 0.990755
vn 0.001994 -0.130469 -0.991450
vn -0.995131 0.098559 0.000000
vn -0.995131 0.098559 0.000000
vn 0.092891 0.784326 0.613355
vn 0.835057 -0.550156 0.002811
vn 0.816313 -0.576135 0.041257
vn 0.727724 -0.685593 0.019466
vn -0.795932 0.605374 -0.003879
vn -0.831824 0.554078 -0.032661
vn -0.814354 0.580226 -0.012865
vn -0.810787 0.584499 0.031398
vn -0.931327 0.364180 -0.001580
vn -0.878608 0.477544 -0.000594
vn -0.809586 0.587001 0.000263
vn -0.809587 0.587000 0.000265
vn 0.996961 0.077746 0.004866
vn 0.990664 0.136277 -0.003711
vn 0.958421 0.284219 -0.025460
vn -0.960006 -0.278693 0.026806
vn -0.994595 -0.103745 0.004203
vn -0.999538 -0.029829 -0.005754
vn -0.974470 -0.223982 0.015530
vn -0.000224 -0.063716 -0.997968
vn -0.641707 0.056547 -0.764863
vn 0.871757 -0.123051 -0.474235
vn 0.871120 -0.117311 -0.476853
vn -0.648497 0.045186 -0.759875
vn -0.617932 0.276508 -0.736005
vn -0.614978 0.292789 -0.732172
vn -0.589406 -0.183590 0.786699
vn -0.670709 -0.159650 0.724335
vn -0.768304 -0.148131 0.622709
vn -0.720004 -0.139639 0.679775
vn -0.466506 -0.726698 -0.504263
vn -0.627447 -0.307209 -0.715495
vn -0.466506 -0.726698 -0.504263
vn 0.458322 -0.314257 0.831374
vn 0.126394 -0.165969 0.977997
vn 0.985006 -0.142506 -0.097242
vn -0.475174 -0.720039 -0.505721
vn -0.006434 -0.089725 -0.995946
vn 0.000807 0.062193 0.998064
vn -0.001581 -0.066663 -0.997774
vn 0.972616 0.231993 -0.014027
vn -0.045655 -0.105967 -0.993321
vn -0.915209 -0.402954 -0.004537
vn 0.036864 0.595949 0.802176
vn 0.634283 -0.178891 0.752119
vn 0.975423 -0.219660 -0.017301
vn 0.832267 -0.090198 -0.546988
vn 0.718871 -0.378482 0.583075
vn 0.000000 -1.000000 0.000000
vn 0.000000 -1.000000 0.000000
vn 0.000000 -1.000000 0.000000
vn 0.000000 0.000000 -1.000000
vn -0.276913 -0.958530 0.067381
vn -0.746071 -0.664290 0.045797
vn -0.793939 -0.606604 0.041126
vn 0.001984 -0.060401 -0.998172
vn 0.030410 -0.487669 -0.872499
vn 0.814248 -0.557012 0.163517
vn 0.912744 -0.407142 0.033673
vn 0.772948 -0.593606 0.224018
vn 1.000000 0.000000 0.000000
vn -1.000000 0.000000 0.000000
vn -1.000000 0.000000 0.000000
vn -1.000000 0.000000 0.000000
vn -0.000548 0.064283 0.997932
vn -0.000713 0.067853 0.997695
vn -0.002367 0.071125 0.997465
vn -0.002450 0.071064 0.997469
vn -0.990868 -0.134324 -0.011765
vn -0.990331 -0.137818 -0.015836
vn 0.990331 -0.137818 -0.015836
vn -0.992976 -0.118248 0.003953
vn -0.975651 0.218638 -0.017416
vn -0.975651 0.218638 -0.017416
vn -0.975651 0.218638 -0.017416
vn 0.000000 0.000000 1.000000
vn 0.999996 -0.002034 0.001871
vn 0.000000 -0.211862 -0.977300
vn 0.999996 -0.002034 0.001871
vn 1.000000 0.000000 0.000000
vn 0.000000 0.000000 1.000000
vn 0.000000 0.000000 1.000000
vn 0.000000 0.000000 1.000000
vn 0.000000 0.000000 -1.000000
vn 0.999985 -0.004048 0.003723
vn -0.013445 -0.997404 0.070746
vn 0.000000 0.000000 -1.000000
vn 0.000000 0.000000 -1.000000
vn 0.000000 -1.000000 0.000000
vn -1.000000 0.000000 0.000000
vn -0.002423 -0.064878 -0.997890
vn 0.002029 -0.068433 -0.997654
vn -0.012411 -0.073305 -0.997232
vn 0.001694 0.061526 0.998104
vn -0.002310 0.071154 0.997463
vn -0.002395 0.071310 0.997451
vn 0.246599 -0.544075 -0.801980
vn -0.006208 -0.072981 -0.997314
vn -0.992961 -0.118380 -0.003874
vn -0.142626 -0.615933 -0.774780
vn 0.301435 -0.673205 0.675228
vn 0.918996 -0.392926 0.032498
vn -0.943445 0.329883 -0.032998
vn 0.971848 -0.234597 0.021797
vn 0.002116 -0.091931 -0.995763
vn 0.000985 -0.066001 -0.997819
vn 0.007498 -0.090957 -0.995827
vn -0.000153 -0.067439 -0.997723
vn -0.002215 0.069688 0.997566
vn -0.002105 0.105653 0.994401
vn -0.001310 0.223621 0.974675
vn -0.001042 0.997466 -0.071143
vn -0.001041 0.997458 -0.071256
vn 0.503088 0.862009 -0.061996
vn 0.643496 -0.287819 -0.709277
vn 0.828635 -0.539244 -0.150265
vn 0.914655 -0.404212 -0.004302
vn 0.913078 -0.405588 -0.042272
vn 0.923274 -0.382994 0.029676
vn 0.967779 -0.250985 0.020241
vn 0.994244 -0.106680 0.009898
vn -0.989171 0.146067 -0.014332
vn 0.000071 0.062192 0.998064
vn 0.000159 0.075521 0.997144
vn -0.011363 -0.077087 -0.996960
vn -0.016791 -0.084990 -0.996240
vn 0.977525 0.210428 -0.012832
vn -0.989381 0.144811 -0.012463
vn -0.144960 -0.568057 0.810122
vn -0.289735 -0.672479 0.681048
vn 0.502142 0.862646 -0.060780
vn 0.000000 1.000000 0.000000
vn 0.142958 -0.560210 0.815921
vn -0.810485 -0.557810 -0.178779
vn -0.913717 -0.404132 -0.042403
vn -0.000480 -0.424747 0.905312
vn -0.682310 -0.117329 0.721586
vn -0.913239 -0.406057 0.033336
vn -0.653804 -0.297247 -0.695834
vn -0.773949 -0.592437 0.223657
vn -0.593709 -0.383023 -0.707675
vn -0.593719 -0.382744 -0.707817
vn 0.848318 -0.200919 -0.489885
vn 0.246629 -0.710979 -0.658546
vn -0.815056 -0.555909 0.163242
vn 0.001131 -0.093145 0.995652
vn 0.837336 -0.033707 -0.545649
vn 0.828750 -0.030972 -0.558761
vn 0.810561 0.164910 -0.561958
vn -0.607597 0.327538 -0.723564
vn 0.810316 -0.005249 -0.585969
vn -0.000149 -0.071735 -0.997424
vn 0.176658 -0.666011 -0.724721
vn 0.006186 -0.072721 -0.997333
vn -0.025127 -0.499297 -0.866066
vn -0.608578 0.322964 -0.724794
vn -0.641053 -0.072122 -0.764100
vn -0.999999 -0.001317 0.000997
vn 0.996639 0.081916 0.000000
vn 0.930750 -0.364620 0.027500
vn 0.996389 0.084878 -0.002245
vn 0.169955 0.040510 0.984619
vn -0.614864 -0.018030 0.788427
vn -0.596174 -0.179139 0.782615
vn -0.631508 0.335521 0.699016
vn -0.830450 -0.536619 -0.149643
vn -0.653804 -0.297247 -0.695834
vn -0.629954 0.083756 0.772103
vn -0.631036 -0.189054 -0.752364
vn -1.000000 -0.000690 0.000522
vn -1.000000 -0.000690 0.000522
vn 0.771645 0.011328 0.635953
vn 0.694873 0.314095 0.646912
vn 0.841736 -0.285543 -0.458198
vn 0.940161 0.051490 0.336818
vn 0.008517 -0.095629 0.995381
vn -0.007203 -0.092771 0.995661
vn -0.600765 -0.233964 0.764423
vn -0.548447 -0.357727 0.755803
vn -0.625813 0.312341 0.714704
vn 0.657606 0.173044 0.733219
vn 0.680423 0.212809 0.701240
vn -0.933909 0.356881 -0.021195
vn 0.889310 0.425414 0.167780
vn 0.909124 0.297837 0.291180
vn 0.992826 -0.119565 0.000079
vn 0.828295 0.156699 -0.537934
vn 0.605229 -0.408644 0.683160
vn 0.860317 -0.016193 -0.509503
vn 0.604795 -0.404034 0.686279
vn 0.998116 -0.061183 0.004589
vn -0.980976 0.193872 -0.010028
vn 0.991007 -0.133483 0.009397
vn 0.961349 -0.274857 0.016162
vn 0.151977 0.053057 0.986959
vn 0.065560 0.501527 0.862654
vn 0.999672 0.002359 -0.025517
vn 0.022980 -0.090050 -0.995672
vn 0.992981 -0.118211 0.003963
vn 0.992958 -0.118402 -0.003888
vn 0.121590 0.347962 0.929590
vn -0.602462 -0.054487 -0.796286
vn 0.869670 0.000000 0.493633
vn 0.856847 0.067387 0.511148
vn -0.583738 -0.466788 0.664349
vn -0.568505 0.508584 -0.646641
vn 0.643373 0.000000 -0.765553
vn 0.643373 0.000000 -0.765553
vn 0.838806 0.188439 0.510779
vn 0.509674 0.609810 -0.606931
vn -0.567587 0.335112 -0.752027
vn 0.581933 0.426469 -0.692444
vn -0.575827 -0.524042 0.627538
vn -0.587417 0.106879 -0.802196
vn 0.813148 0.275740 0.512600
vn -0.543072 -0.535414 0.646842
vn 0.991943 -0.051669 0.115666
vn -0.558961 -0.518045 0.647450
vn 0.840378 0.146862 0.521725
vn 0.826694 0.232263 0.512475
vn -0.628585 -0.039915 -0.776716
vn 0.633293 0.171481 -0.754675
vn 0.634641 0.159416 -0.756186
vn 0.879292 -0.104770 0.464617
vn 0.942063 0.105568 -0.318392
vn 0.151755 0.086421 -0.984633
vn 0.155392 0.201732 -0.967036
vn -0.561571 0.000000 -0.827429
vn -0.579703 -0.435859 0.688456
vn -0.614204 -0.313857 0.724049
vn 0.857978 -0.130821 0.496750
vn -0.630567 0.192364 0.751918
vn 0.645351 -0.074953 -0.760200
vn -0.295234 -0.100731 -0.950100
vn -0.559813 -0.167131 0.811589
vn 0.862313 -0.080556 0.499926
vn -0.657889 0.206793 -0.724168
vn -0.582923 -0.421078 0.694906
vn -0.640230 0.102161 0.761359
vn -0.568921 -0.199651 -0.797790
vn -0.661653 -0.142484 -0.736148
vn -0.607277 -0.214696 0.764931
vn -0.559813 -0.167131 0.811589
vn -0.034563 -0.412345 0.910372
vn -0.619106 0.423873 -0.661090
vn 0.563907 0.479261 -0.672546
vn -0.559834 -0.187136 -0.807197
vn 0.638661 -0.117353 -0.760487
vn -0.526273 -0.441360 0.726800
vn -0.554365 -0.358656 0.751030
vn -0.007128 -0.999942 -0.008088
vn -0.006908 -0.999943 -0.008085
vn 0.498616 0.631028 -0.594294
vn 0.850325 0.027888 0.525519
vn 0.926309 -0.225558 -0.301787
vn 0.625695 -0.228454 -0.745865
vn -0.504006 -0.460522 0.730683
vn 0.852667 -0.092746 0.514156
vn -0.006908 -0.999943 -0.008085
vn -0.006781 -0.999944 -0.008082
vn 0.853778 -0.029720 0.519788
vn -0.591040 -0.113141 -0.798668
vn -0.637137 0.130863 0.759560
vn 0.890828 -0.100500 0.443087
vn 0.835594 -0.078826 0.543663
vn 0.840929 -0.084115 0.534568
vn 0.855877 0.507060 0.101808
vn 0.912347 0.251227 -0.323278
vn -0.632187 -0.202950 0.747764
vn -0.644317 -0.010167 0.764691
vn -0.578865 -0.181818 -0.794895
vn -0.631129 0.010056 0.775613
vn 0.473922 -0.231038 -0.849717
vn -0.515061 -0.208900 -0.831308
vn 0.922696 0.217901 -0.318042
vn 0.000000 1.000000 0.000000
vn -0.995131 0.098559 0.000000
vn -0.995131 0.098559 0.000000
vn -0.616360 -0.106747 -0.780195
vn -0.322456 0.318289 -0.891468
vn 0.028943 0.610780 -0.791271
vn -0.642934 -0.118140 -0.756755
vn 0.057562 0.538969 -0.840357
vn 0.875492 0.394672 -0.278833
vn 0.818808 0.540410 -0.193677
vn 0.119020 0.415096 -0.901959
vn -0.151755 0.086421 -0.984633
vn -0.840929 -0.084115 0.534568
vn 0.585054 -0.209791 -0.783390
vn -0.852667 -0.092746 0.514156
vn 0.559678 -0.168528 0.811393
vn 0.034852 -0.413828 0.909688
vn 0.007140 -0.999938 0.008514
vn 0.558961 -0.518045 0.647450
vn -0.537877 0.547178 -0.641315
vn 0.534741 0.480543 -0.695076
vn 0.499648 0.296545 -0.813888
vn 0.607277 -0.214696 0.764931
vn 0.554365 -0.358656 0.751030
vn -0.862313 -0.080556 0.499926
vn 0.559678 -0.168528 0.811393
vn 0.296927 -0.098930 -0.949762
vn 0.526273 -0.441360 0.726800
vn -0.849196 0.191911 0.491971
vn -0.542447 0.536759 -0.646251
vn -0.007595 -0.999934 0.008571
vn 0.951132 0.251827 0.178692
vn -0.007157 -0.999938 0.008516
vn 0.847989 0.479964 -0.224830
vn -0.942063 0.105568 -0.318392
vn -0.645522 -0.074298 -0.760119
vn -0.991852 -0.050036 0.117156
vn -0.916646 0.000000 0.399700
vn -0.837548 0.144844 0.526814
vn 0.582923 -0.421078 0.694906
vn -0.007901 -0.999932 0.008610
vn -0.007595 -0.999934 0.008571
vn 0.661653 -0.142484 -0.736148
vn 0.504006 -0.460522 0.730683
vn -0.901913 0.087365 0.422990
vn 0.583738 -0.466788 0.664349
vn 0.608901 0.389420 -0.691080
vn 0.576841 -0.441404 0.687326
vn 0.007613 -0.999934 0.008548
vn 0.007860 -0.999932 0.008565
vn -0.726586 -0.242752 -0.642763
vn -0.835594 -0.078826 0.543663
vn 0.470090 0.000000 -0.882618
vn 0.575827 -0.524042 0.627538
vn -0.506184 0.617208 -0.602356
vn 0.691821 0.237693 -0.681825
vn -0.634735 0.159353 -0.756120
vn 0.007613 -0.999934 0.008548
vn 0.584960 -0.179385 -0.790976
vn -0.048089 -0.253154 -0.966230
vn -0.642612 0.000000 -0.766192
vn 0.503379 0.134174 -0.853585
vn -0.847366 0.025407 0.530401
vn -0.564626 0.479383 -0.671856
vn -0.633283 0.171104 -0.754769
vn -0.853068 -0.129616 0.505445
vn 0.653910 -0.128307 -0.745613
vn 0.631129 0.010056 0.775613
vn 0.637137 0.130863 0.759560
vn -0.853851 0.236843 0.463512
vn -0.642612 0.000000 -0.766192
vn 0.628590 -0.209429 0.749008
vn -0.850026 -0.031705 0.525785
vn 0.638864 0.107143 0.761822
vn -0.875206 -0.104294 0.472374
vn -0.887962 -0.097869 0.449384
vn -0.922805 -0.114689 0.367800
vn 0.543072 -0.535414 0.646842
vn -0.890718 0.146284 0.430375
vn 0.696264 -0.018221 -0.717554
vn 0.640276 -0.086946 0.763208
vn 0.570834 -0.241530 -0.784737
vn 0.630429 0.193457 0.751754
vn -0.638374 -0.116825 -0.760810
vn -0.625774 -0.228082 -0.745913
vn -0.155392 0.201732 -0.967036
vn -0.341400 0.854920 0.390587
vn -0.051141 0.975304 0.214862
vn 0.000000 0.997166 0.075228
vn -0.922696 0.217901 -0.318042
vn 0.602462 -0.054487 -0.796286
vn 0.616360 -0.106747 -0.780195
vn 0.642934 -0.118140 -0.756755
vn 0.002149 -0.081509 -0.996670
vn -0.999992 0.003322 -0.002415
vn -0.992169 0.124877 -0.002451
vn -0.999052 0.043472 -0.002255
vn -0.054388 0.658607 -0.750519
vn 0.002710 -0.071969 -0.997403
vn -0.113431 0.446976 -0.887325
vn -0.002607 0.053339 0.998573
vn -0.984116 0.177504 -0.002860
vn 0.002537 -0.070214 -0.997529
vn 0.007358 -0.074227 -0.997214
vn 0.002799 -0.071462 -0.997439
vn 0.063131 -0.120386 -0.990718
vn -0.832267 -0.090198 -0.546988
vn -0.754734 -0.321587 0.571803
vn -0.683377 -0.362895 0.633485
vn 0.002453 -0.068578 -0.997643
vn 0.002523 -0.068723 -0.997633
vn 0.985962 0.166950 0.002754
vn 0.993456 0.114168 0.003184
vn -0.717776 -0.378587 0.584353
vn -0.851137 -0.115693 -0.512035
vn 0.950201 0.310749 -0.023519
vn -0.970543 -0.240498 0.014385
vn -0.922845 -0.384207 0.027228
vn -0.927192 -0.373796 0.024316
vn 0.670717 -0.159484 0.724364
vn 0.768304 -0.148131 0.622709
vn 0.641707 0.056547 -0.764863
vn 0.648497 0.045186 -0.759875
vn 0.999458 0.032762 0.003287
vn 0.999969 -0.007269 0.002966
vn -0.871757 -0.123051 -0.474235
vn -0.871120 -0.117311 -0.476853
vn -0.929395 -0.368001 0.028304
vn 0.946852 0.320545 -0.026885
vn 0.617932 0.276508 -0.736005
vn 0.614978 0.292789 -0.732172
vn 0.428017 -0.754725 -0.497185
vn 0.627447 -0.307209 -0.715495
vn -0.940121 0.053651 0.336592
vn -0.169788 0.042208 0.984576
vn -0.943137 0.065585 0.325871
vn 0.593719 -0.382744 -0.707817
vn -0.848380 -0.199182 -0.490488
vn 0.547409 -0.359905 0.755521
vn 0.006775 -0.999944 -0.008076
vn -0.002590 0.037614 0.999289
vn -0.002463 0.026177 0.999654
vn -0.605410 -0.401922 0.686977
vn -0.087440 0.648916 0.755819
vn -0.605854 -0.406557 0.683852
vn 0.400135 -0.773531 -0.491469
vn 0.428017 -0.754725 -0.497185
vn 0.708956 -0.148273 0.689490
vn -0.168267 0.982509 -0.079760
vn -0.061954 0.998079 0.000000
vn -0.985006 -0.142506 -0.097242
vn -0.634283 -0.178891 0.752119
vn -0.126394 -0.165969 0.977997
vn 0.631036 -0.189054 -0.752364
vn 0.641053 -0.072122 -0.764100
vn 0.608578 0.322964 -0.724794
vn -0.842162 -0.281942 -0.459643
vn -0.032666 0.534754 0.844376
vn 0.600317 -0.235165 0.764406
vn 0.593709 -0.383023 -0.707675
vn -0.121013 0.349656 0.929030
vn -0.151287 0.055592 0.986925
vn -0.771273 0.011783 0.636395
vn 0.596528 -0.179010 0.782374
vn -0.680272 0.213814 0.701080
vn -0.996825 -0.079551 -0.003364
vn -0.810561 0.164910 -0.561958
vn -0.828295 0.156699 -0.537934
vn -0.810316 -0.005249 -0.585969
vn -0.900728 0.300771 0.313410
vn -0.860695 0.493138 0.126570
vn 0.331559 0.217618 0.917993
vn 0.607597 0.327538 -0.723564
vn -0.887301 0.420040 0.190430
vn 0.006902 -0.999944 -0.008078
vn -0.909612 0.260005 -0.324041
vn 0.629849 0.083010 0.772269
vn 0.625813 0.312341 0.714704
vn -0.657493 0.174050 0.733083
vn -0.694759 0.314594 0.646792
vn 0.631609 0.335095 0.699129
vn 0.615284 -0.018019 0.788099
vn 0.657717 -0.124680 0.742875
vn 0.350988 0.283433 0.892453
vn 0.006902 -0.999944 -0.008078
vn -0.860197 -0.015260 -0.509733
vn 0.007122 -0.999942 -0.008081
vn -0.991634 -0.129018 -0.004010
vn 0.002387 -0.074829 -0.997194
vn 0.750770 -0.137367 0.646122
vn 0.002378 -0.070912 -0.997480
vn 0.779135 0.624958 -0.048746
vn -0.002478 0.060111 0.998189
vn 0.776758 0.627793 -0.050229
vn 0.002452 -0.073964 -0.997258
vn 0.956660 -0.290011 0.026370
vn -1.000000 0.000000 0.000000
vn 0.990792 0.135180 -0.007585
vn -0.002080 0.068639 0.997639
vn -0.873842 0.399048 -0.277780
vn -0.847017 0.480844 -0.226607
vn -0.816058 0.544066 -0.195043
vn -0.952237 0.236665 0.192961
vn -0.995391 -0.095813 0.004002
vn 0.905359 -0.423364 0.032981
vn 0.905439 -0.423187 0.033067
vn 0.990605 0.136465 -0.008880
vn -0.458304 -0.314422 0.831322
vn -0.836443 -0.027978 -0.547339
vn 0.589687 -0.183299 0.786556
vn 0.002133 -0.066223 -0.997803
vn -0.002268 0.067235 0.997735
vn 0.002420 -0.065751 -0.997833
vn 0.720004 -0.139639 0.679775
vn -0.937773 -0.345939 0.030134
vn -0.658022 -0.124883 0.742571
vn -0.343186 0.320608 0.882856
vn -0.975143 0.220806 -0.018445
vn -0.075273 0.579279 -0.811646
vn 0.290596 0.355432 -0.888382
vn -0.827454 -0.023240 -0.561052
vn 0.002924 -0.089117 -0.996017
vn 0.004318 -0.068164 -0.997665
vn -0.969265 -0.245977 -0.004501
vn 0.978953 0.204054 0.003523
vn 0.852110 0.523336 0.005255
vn -0.937378 -0.348282 -0.004712
vn 0.002772 -0.071205 -0.997458
vn 0.002786 -0.071550 -0.997433
vn -0.021067 0.078534 0.996689
vn -0.012867 0.079304 0.996767
vn -0.008260 0.067546 0.997682
vn -0.002305 0.073404 0.997300
vn -0.947058 -0.320372 0.021039
vn 0.003956 -0.065790 -0.997826
vn 0.016979 -0.075189 -0.997025
vn 0.008289 -0.067695 -0.997672
vn 0.000000 1.000000 0.000000
vn 0.000000 1.000000 0.000000
vn 0.000000 1.000000 0.000000
vn 0.000000 1.000000 0.000000
vn 0.000000 1.000000 0.000000
vn 0.000000 1.000000 0.000000
vn -0.546208 -0.835660 0.057698
vn -0.994430 -0.105335 0.003700
vn -0.500663 0.855778 0.130306
vn -0.247490 0.966333 0.070356
vn -0.553061 0.827066 -0.100425
vn 0.955191 0.295628 -0.014673
vn 0.000000 0.206705 0.978403
vn -0.002090 0.070114 0.997537
vn -0.003475 0.067335 0.997724
vn -0.002470 0.071162 0.997462
vn -0.288655 -0.955030 0.067798
vn -0.688284 -0.723774 0.049159
vn 0.000459 0.064874 0.997893
vn -0.969915 0.242546 -0.020874
vn 0.883659 0.468111 0.004379
vn -0.002478 0.071281 0.997453
vn -0.020115 0.086063 0.996087
vn -0.034871 0.079454 0.996228
vn -0.018599 0.079706 0.996645
vn -0.001620 -0.061744 -0.998091
vn 0.000023 -0.068153 -0.997675
vn 0.000269 0.078352 0.996926
vn 0.002716 0.063638 0.997969
vn 0.003075 0.099116 -0.995071
vn -0.002272 0.071009 0.997473
vn 0.001681 -0.139292 -0.990250
vn -0.000822 0.201962 0.979393
vn 0.000766 -0.207486 -0.978238
vn 0.851137 -0.115693 -0.512035
vn 0.683865 -0.362838 0.632990
vn 0.003945 0.056203 0.998412
vn 0.995131 0.098559 0.000000
vn 0.815362 0.560151 -0.146339
vn 0.995131 0.098559 0.000000
vn 0.754946 -0.321403 0.571626
vn 0.002549 -0.004000 -0.999989
vn 0.001951 -0.105708 -0.994395
vn 0.957696 -0.286806 0.023682
vn 0.000000 1.000000 0.000000
vn 1.000000 0.000000 0.000000
vn 1.000000 0.000000 0.000000
vn 0.003945 0.056203 0.998412
vn -0.111260 0.986047 0.123822
vn -0.111260 0.986047 0.123822
vn 0.919263 0.393616 0.004592
vn 0.988371 -0.151780 0.009211
vn 0.998597 0.052910 0.002268
vn 1.000000 0.000000 0.000000
vn 0.411885 0.899142 -0.147970
vn 0.003945 0.056203 0.998412
f 63/63/63 61/61/61 60/60/60
f 400/400/400 428/428/428 416/416/416
f 496/496/496 505/505/505 504/504/504
f 562/562/562 552/552/552 553/553/553
f 770/770/770 126/126/126 125/125/125
f 336/336/336 334/334/334 335/335/335
f 811/811/811 813/813/813 41/41/41
f 29/29/29 822/822/822 823/823/823
f 810/810/810 821/821/821 829/829/829
f 23/23/23 36/36/36 30/30/30
f 2/2/2 10/10/10 11/11/11
f 2/2/2 26/26/26 10/10/10
f 10/10/10 26/26/26 14/14/14
f 18/18/18 10/10/10 14/14/14
f 10/10/10 18/18/18 7/7/7
f 2/2/2 5/5/5 26/26/26
f 26/26/26 5/5/5 20/20/20
f 5/5/5 253/253/253 20/20/20
f 254/254/254 253/253/253 5/5/5
f 254/254/254 255/255/255 253/253/253
f 253/253/253 255/255/255 754/754/754
f 255/255/255 740/740/740 754/754/754
f 754/754/754 740/740/740 653/653/653
f 740/740/740 655/655/655 653/653/653
f 653/653/653 655/655/655 654/654/654
f 655/655/655 664/664/664 654/654/654
f 654/654/654 664/664/664 751/751/751
f 664/664/664 277/277/277 751/751/751
f 751/751/751 277/277/277 280/280/280
f 278/278/278 280/280/280 277/277/277
f 279/279/279 280/280/280 278/278/278
f 278/278/278 453/453/453 279/279/279
f 279/279/279 453/453/453 444/444/444
f 453/453/453 267/267/267 444/444/444
f 444/444/444 267/267/267 268/268/268
f 266/266/266 268/268/268 267/267/267
f 269/269/269 268/268/268 266/266/266
f 8/8/8 9/9/9 12/12/12
f 8/8/8 6/6/6 9/9/9
f 70/70/70 6/6/6 8/8/8
f 65/65/65 70/70/70 8/8/8
f 67/67/67 70/70/70 65/65/65
f 68/68/68 70/70/70 67/67/67
f 8/8/8 71/71/71 65/65/65
f 65/65/65 71/71/71 69/69/69
f 71/71/71 106/106/106 69/69/69
f 104/104/104 106/106/106 71/71/71
f 105/105/105 106/106/106 104/104/104
f 372/372/372 106/106/106 105/105/105
f 81/81/81 372/372/372 105/105/105
f 231/231/231 372/372/372 81/81/81
f 81/81/81 157/157/157 231/231/231
f 156/156/156 157/157/157 81/81/81
f 156/156/156 678/678/678 157/157/157
f 677/677/677 678/678/678 156/156/156
f 678/678/678 677/677/677 637/637/637
f 637/637/637 677/677/677 729/729/729
f 729/729/729 748/748/748 637/637/637
f 735/735/735 748/748/748 729/729/729
f 735/735/735 787/787/787 748/748/748
f 370/370/370 787/787/787 735/735/735
f 370/370/370 371/371/371 787/787/787
f 79/79/79 371/371/371 370/370/370
f 79/79/79 806/806/806 371/371/371
f 786/786/786 806/806/806 79/79/79
f 67/67/67 65/65/65 24/24/24
f 21/21/21 18/18/18 13/13/13
f 22/22/22 18/18/18 21/21/21
f 227/227/227 15/15/15 16/16/16
f 230/230/230 15/15/15 227/227/227
f 230/230/230 227/227/227 175/175/175
f 175/175/175 227/227/227 176/176/176
f 176/176/176 374/374/374 175/175/175
f 175/175/175 374/374/374 373/373/373
f 374/374/374 375/375/375 373/373/373
f 392/392/392 375/375/375 374/374/374
f 730/730/730 375/375/375 392/392/392
f 728/728/728 375/375/375 730/730/730
f 730/730/730 57/57/57 728/728/728
f 59/59/59 57/57/57 730/730/730
f 25/25/25 790/790/790 27/27/27
f 4/4/4 790/790/790 25/25/25
f 25/25/25 741/741/741 4/4/4
f 742/742/742 741/741/741 25/25/25
f 743/743/743 741/741/741 742/742/742
f 734/734/734 741/741/741 743/743/743
f 734/734/734 743/743/743 652/652/652
f 652/652/652 743/743/743 665/665/665
f 652/652/652 665/665/665 276/276/276
f 276/276/276 665/665/665 302/302/302
f 276/276/276 302/302/302 275/275/275
f 275/275/275 302/302/302 274/274/274
f 275/275/275 274/274/274 452/452/452
f 452/452/452 274/274/274 454/454/454
f 452/452/452 454/454/454 455/455/455
f 455/455/455 454/454/454 421/421/421
f 455/455/455 421/421/421 264/264/264
f 264/264/264 421/421/421 265/265/265
f 264/264/264 265/265/265 263/263/263
f 263/263/263 265/265/265 307/307/307
f 263/263/263 307/307/307 422/422/422
f 422/422/422 307/307/307 420/420/420
f 49/49/49 58/58/58 3/3/3
f 49/49/49 56/56/56 58/58/58
f 56/56/56 96/96/96 58/58/58
f 169/169/169 96/96/96 56/56/56
f 169/169/169 95/95/95 96/96/96
f 96/96/96 95/95/95 101/101/101
f 101/101/101 95/95/95 102/102/102
f 50/50/50 56/56/56 49/49/49
f 49/49/49 48/48/48 50/50/50
f 48/48/48 49/49/49 47/47/47
f 47/47/47 45/45/45 48/48/48
f 48/48/48 45/45/45 44/44/44
f 102/102/102 95/95/95 388/388/388
f 102/102/102 388/388/388 382/382/382
f 382/382/382 388/388/388 381/381/381
f 382/382/382 381/381/381 380/380/380
f 380/380/380 381/381/381 363/363/363
f 380/380/380 363/363/363 109/109/109
f 109/109/109 363/363/363 110/110/110
f 109/109/109 110/110/110 123/123/123
f 123/123/123 110/110/110 365/365/365
f 123/123/123 365/365/365 87/87/87
f 87/87/87 365/365/365 89/89/89
f 87/87/87 89/89/89 112/112/112
f 112/112/112 89/89/89 785/785/785
f 112/112/112 785/785/785 144/144/144
f 144/144/144 785/785/785 145/145/145
f 144/144/144 145/145/145 147/147/147
f 147/147/147 145/145/145 148/148/148
f 46/46/46 52/52/52 43/43/43
f 43/43/43 52/52/52 727/727/727
f 52/52/52 641/641/641 727/727/727
f 727/727/727 641/641/641 640/640/640
f 640/640/640 641/641/641 642/642/642
f 52/52/52 353/353/353 641/641/641
f 641/641/641 353/353/353 639/639/639
f 353/353/353 103/103/103 639/639/639
f 639/639/639 103/103/103 107/107/107
f 103/103/103 108/108/108 107/107/107
f 107/107/107 108/108/108 803/803/803
f 52/52/52 54/54/54 353/353/353
f 353/353/353 54/54/54 317/317/317
f 317/317/317 352/352/352 353/353/353
f 353/353/353 352/352/352 354/354/354
f 51/51/51 54/54/54 52/52/52
f 51/51/51 208/208/208 54/54/54
f 799/799/799 208/208/208 51/51/51
f 799/799/799 800/800/800 208/208/208
f 208/208/208 800/800/800 211/211/211
f 211/211/211 800/800/800 212/212/212
f 212/212/212 213/213/213 211/211/211
f 211/211/211 213/213/213 214/214/214
f 214/214/214 213/213/213 217/217/217
f 214/214/214 217/217/217 218/218/218
f 218/218/218 217/217/217 170/170/170
f 218/218/218 170/170/170 171/171/171
f 171/171/171 170/170/170 172/172/172
f 171/171/171 172/172/172 173/173/173
f 173/173/173 172/172/172 219/219/219
f 173/173/173 219/219/219 220/220/220
f 220/220/220 219/219/219 182/182/182
f 184/184/184 220/220/220 182/182/182
f 185/185/185 184/184/184 182/182/182
f 183/183/183 184/184/184 185/185/185
f 183/183/183 185/185/185 368/368/368
f 368/368/368 185/185/185 366/366/366
f 366/366/366 367/367/367 368/368/368
f 368/368/368 367/367/367 369/369/369
f 108/108/108 815/815/815 803/803/803
f 803/803/803 815/815/815 816/816/816
f 815/815/815 82/82/82 816/816/816
f 816/816/816 82/82/82 80/80/80
f 80/80/80 82/82/82 630/630/630
f 630/630/630 82/82/82 725/725/725
f 630/630/630 725/725/725 647/647/647
f 647/647/647 725/725/725 646/646/646
f 646/646/646 749/749/749 647/647/647
f 747/747/747 749/749/749 646/646/646
f 747/747/747 731/731/731 749/749/749
f 749/749/749 731/731/731 635/635/635
f 731/731/731 805/805/805 635/635/635
f 259/259/259 805/805/805 731/731/731
f 259/259/259 807/807/807 805/805/805
f 805/805/805 807/807/807 339/339/339
f 62/62/62 66/66/66 167/167/167
f 167/167/167 66/66/66 166/166/166
f 166/166/166 168/168/168 167/167/167
f 160/160/160 168/168/168 166/166/166
f 160/160/160 383/383/383 168/168/168
f 389/389/389 383/383/383 160/160/160
f 111/111/111 383/383/383 389/389/389
f 364/364/364 383/383/383 111/111/111
f 88/88/88 364/364/364 111/111/111
f 793/793/793 364/364/364 88/88/88
f 88/88/88 90/90/90 793/793/793
f 793/793/793 90/90/90 121/121/121
f 202/202/202 121/121/121 90/90/90
f 781/781/781 121/121/121 202/202/202
f 200/200/200 781/781/781 202/202/202
f 201/201/201 781/781/781 200/200/200
f 149/149/149 201/201/201 200/200/200
f 151/151/151 201/201/201 149/149/149
f 149/149/149 150/150/150 151/151/151
f 151/151/151 150/150/150 152/152/152
f 210/210/210 152/152/152 150/150/150
f 199/199/199 152/152/152 210/210/210
f 161/161/161 66/66/66 162/162/162
f 161/161/161 162/162/162 347/347/347
f 347/347/347 162/162/162 314/314/314
f 347/347/347 314/314/314 315/315/315
f 315/315/315 314/314/314 316/316/316
f 316/316/316 73/73/73 315/315/315
f 315/315/315 73/73/73 74/74/74
f 73/73/73 316/316/316 72/72/72
f 113/113/113 77/77/77 76/76/76
f 76/76/76 77/77/77 78/78/78
f 76/76/76 78/78/78 53/53/53
f 64/64/64 53/53/53 78/78/78
f 55/55/55 53/53/53 64/64/64
f 55/55/55 64/64/64 75/75/75
f 75/75/75 64/64/64 326/326/326
f 75/75/75 326/326/326 355/355/355
f 355/355/355 326/326/326 327/327/327
f 327/327/327 326/326/326 328/328/328
f 327/327/327 328/328/328 329/329/329
f 329/329/329 328/328/328 356/356/356
f 356/356/356 328/328/328 357/357/357
f 356/356/356 357/357/357 795/795/795
f 357/357/357 789/789/789 795/795/795
f 795/795/795 789/789/789 804/804/804
f 205/205/205 804/804/804 789/789/789
f 788/788/788 804/804/804 205/205/205
f 207/207/207 788/788/788 205/205/205
f 204/204/204 788/788/788 207/207/207
f 206/206/206 204/204/204 207/207/207
f 203/203/203 204/204/204 206/206/206
f 798/798/798 203/203/203 206/206/206
f 798/798/798 796/796/796 203/203/203
f 797/797/797 796/796/796 798/798/798
f 153/153/153 796/796/796 797/797/797
f 801/801/801 796/796/796 153/153/153
f 801/801/801 153/153/153 792/792/792
f 801/801/801 792/792/792 802/802/802
f 792/792/792 153/153/153 229/229/229
f 114/114/114 825/825/825 116/116/116
f 826/826/826 825/825/825 114/114/114
f 825/825/825 826/826/826 824/824/824
f 824/824/824 826/826/826 762/762/762
f 824/824/824 762/762/762 761/761/761
f 761/761/761 762/762/762 232/232/232
f 761/761/761 232/232/232 154/154/154
f 154/154/154 232/232/232 155/155/155
f 155/155/155 159/159/159 154/154/154
f 158/158/158 159/159/159 155/155/155
f 159/159/159 158/158/158 661/661/661
f 661/661/661 158/158/158 660/660/660
f 660/660/660 649/649/649 661/661/661
f 648/648/648 649/649/649 660/660/660
f 648/648/648 146/146/146 649/649/649
f 794/794/794 146/146/146 648/648/648
f 794/794/794 124/124/124 146/146/146
f 122/122/122 124/124/124 794/794/794
f 385/385/385 239/239/239 384/384/384
f 385/385/385 384/384/384 181/181/181
f 181/181/181 163/163/163 385/385/385
f 141/141/141 163/163/163 181/181/181
f 141/141/141 190/190/190 163/163/163
f 163/163/163 190/190/190 142/142/142
f 190/190/190 143/143/143 142/142/142
f 143/143/143 137/137/137 142/142/142
f 181/181/181 384/384/384 180/180/180
f 139/139/139 137/137/137 143/143/143
f 139/139/139 138/138/138 137/137/137
f 140/140/140 138/138/138 139/139/139
f 140/140/140 136/136/136 138/138/138
f 135/135/135 136/136/136 140/140/140
f 136/136/136 135/135/135 134/134/134
f 134/134/134 135/135/135 133/133/133
f 132/132/132 134/134/134 133/133/133
f 130/130/130 132/132/132 133/133/133
f 131/131/131 132/132/132 130/130/130
f 128/128/128 131/131/131 130/130/130
f 129/129/129 128/128/128 130/130/130
f 127/127/127 128/128/128 129/129/129
f 300/300/300 127/127/127 129/129/129
f 228/228/228 300/300/300 129/129/129
f 115/115/115 300/300/300 228/228/228
f 228/228/228 1/1/1 115/115/115
f 769/769/769 1/1/1 228/228/228
f 767/767/767 1/1/1 769/769/769
f 768/768/768 767/767/767 769/769/769
f 766/766/766 767/767/767 768/768/768
f 252/252/252 293/293/293 285/285/285
f 285/285/285 293/293/293 282/282/282
f 286/286/286 285/285/285 282/282/282
f 287/287/287 285/285/285 286/286/286
f 287/287/287 286/286/286 417/417/417
f 417/417/417 286/286/286 411/411/411
f 418/418/418 417/417/417 411/411/411
f 430/430/430 417/417/417 418/418/418
f 403/403/403 430/430/430 418/418/418
f 402/402/402 430/430/430 403/403/403
f 250/250/250 659/659/659 669/669/669
f 669/669/669 659/659/659 658/658/658
f 658/658/658 659/659/659 666/666/666
f 666/666/666 659/659/659 667/667/667
f 692/692/692 666/666/666 667/667/667
f 709/709/709 666/666/666 692/692/692
f 692/692/692 691/691/691 709/709/709
f 690/690/690 691/691/691 692/692/692
f 690/690/690 673/673/673 691/691/691
f 696/696/696 673/673/673 690/690/690
f 294/294/294 292/292/292 293/293/293
f 298/298/298 292/292/292 294/294/294
f 753/753/753 457/457/457 305/305/305
f 305/305/305 457/457/457 462/462/462
f 457/457/457 456/456/456 462/462/462
f 462/462/462 456/456/456 423/423/423
f 423/423/423 456/456/456 306/306/306
f 306/306/306 456/456/456 296/296/296
f 296/296/296 295/295/295 306/306/306
f 295/295/295 814/814/814 306/306/306
f 306/306/306 814/814/814 297/297/297
f 458/458/458 306/306/306 297/297/297
f 436/436/436 306/306/306 458/458/458
f 458/458/458 446/446/446 436/436/436
f 445/445/445 446/446/446 458/458/458
f 445/445/445 528/528/528 446/446/446
f 295/295/295 809/809/809 814/814/814
f 814/814/814 809/809/809 309/309/309
f 309/309/309 809/809/809 433/433/433
f 433/433/433 809/809/809 434/434/434
f 433/433/433 434/434/434 443/443/443
f 443/443/443 434/434/434 442/442/442
f 442/442/442 449/449/449 443/443/443
f 443/443/443 449/449/449 451/451/451
f 529/529/529 528/528/528 445/445/445
f 303/303/303 359/359/359 244/244/244
f 244/244/244 359/359/359 413/413/413
f 413/413/413 359/359/359 415/415/415
f 459/459/459 413/413/413 415/415/415
f 234/234/234 459/459/459 415/415/415
f 377/377/377 243/243/243 379/379/379
f 378/378/378 377/377/377 379/379/379
f 379/379/379 320/320/320 378/378/378
f 378/378/378 320/320/320 319/319/319
f 319/319/319 320/320/320 321/321/321
f 233/233/233 235/235/235 438/438/438
f 235/235/235 407/407/407 438/438/438
f 407/407/407 437/437/437 438/438/438
f 258/258/258 437/437/437 407/407/407
f 248/248/248 437/437/437 258/258/258
f 333/333/333 238/238/238 237/237/237
f 238/238/238 333/333/333 257/257/257
f 257/257/257 333/333/333 360/360/360
f 331/331/331 257/257/257 360/360/360
f 360/360/360 330/330/330 331/331/331
f 390/390/390 553/553/553 391/391/391
f 397/397/397 553/553/553 390/390/390
f 505/505/505 553/553/553 397/397/397
f 505/505/505 397/397/397 394/394/394
f 394/394/394 362/362/362 505/505/505
f 376/376/376 318/318/318 358/358/358
f 361/361/361 358/358/358 318/318/318
f 236/236/236 361/361/361 318/318/318
f 318/318/318 416/416/416 236/236/236
f 236/236/236 416/416/416 414/414/414
f 414/414/414 416/416/416 405/405/405
f 460/460/460 245/245/245 246/246/246
f 246/246/246 447/447/447 460/460/460
f 447/447/447 461/461/461 460/460/460
f 332/332/332 461/461/461 447/447/447
f 461/461/461 332/332/332 247/247/247
f 427/427/427 396/396/396 395/395/395
f 304/304/304 396/396/396 427/427/427
f 399/399/399 396/396/396 304/304/304
f 304/304/304 406/406/406 399/399/399
f 406/406/406 401/401/401 399/399/399
f 409/409/409 529/529/529 408/408/408
f 409/409/409 408/408/408 242/242/242
f 242/242/242 408/408/408 458/458/458
f 242/242/242 458/458/458 284/284/284
f 284/284/284 458/458/458 297/297/297
f 297/297/297 283/283/283 284/284/284
f 284/284/284 283/283/283 808/808/808
f 283/283/283 308/308/308 808/808/808
f 808/808/808 308/308/308 412/412/412
f 412/412/412 308/308/308 410/410/410
f 412/412/412 410/410/410 448/448/448
f 448/448/448 410/410/410 450/450/450
f 448/448/448 450/450/450 404/404/404
f 404/404/404 450/450/450 435/435/435
f 429/429/429 439/439/439 440/440/440
f 441/441/441 439/439/439 429/429/429
f 426/426/426 441/441/441 429/429/429
f 424/424/424 441/441/441 426/426/426
f 425/425/425 424/424/424 426/426/426
f 425/425/425 288/288/288 424/424/424
f 289/289/289 288/288/288 425/425/425
f 289/289/289 291/291/291 288/288/288
f 290/290/290 291/291/291 289/289/289
f 240/240/240 291/291/291 290/290/290
f 241/241/241 291/291/291 240/240/240
f 240/240/240 398/398/398 241/241/241
f 241/241/241 398/398/398 752/752/752
f 398/398/398 753/753/753 752/752/752
f 520/520/520 513/513/513 521/521/521
f 512/512/512 513/513/513 520/520/520
f 519/519/519 497/497/497 568/568/568
f 527/527/527 497/497/497 519/519/519
f 519/519/519 526/526/526 527/527/527
f 527/527/527 526/526/526 478/478/478
f 526/526/526 525/525/525 478/478/478
f 478/478/478 525/525/525 516/516/516
f 478/478/478 516/516/516 494/494/494
f 486/486/486 478/478/478 494/494/494
f 536/536/536 478/478/478 486/486/486
f 545/545/545 536/536/536 486/486/486
f 570/570/570 536/536/536 545/545/545
f 525/525/525 485/485/485 516/516/516
f 492/492/492 485/485/485 525/525/525
f 492/492/492 522/522/522 485/485/485
f 485/485/485 522/522/522 515/515/515
f 522/522/522 480/480/480 515/515/515
f 515/515/515 480/480/480 481/481/481
f 480/480/480 476/476/476 481/481/481
f 481/481/481 476/476/476 470/470/470
f 476/476/476 465/465/465 470/470/470
f 470/470/470 465/465/465 464/464/464
f 546/546/546 570/570/570 545/545/545
f 568/568/568 570/570/570 546/546/546
f 474/474/474 466/466/466 479/479/479
f 479/479/479 466/466/466 477/477/477
f 479/479/479 477/477/477 490/490/490
f 490/490/490 477/477/477 499/499/499
f 499/499/499 530/530/530 490/490/490
f 490/490/490 530/530/530 491/491/491
f 489/489/489 475/475/475 472/472/472
f 472/472/472 475/475/475 467/467/467
f 472/472/472 467/467/467 506/506/506
f 506/506/506 467/467/467 498/498/498
f 506/506/506 498/498/498 482/482/482
f 482/482/482 498/498/498 523/523/523
f 482/482/482 523/523/523 508/508/508
f 508/508/508 523/523/523 501/501/501
f 532/532/532 508/508/508 501/501/501
f 535/535/535 508/508/508 532/532/532
f 535/535/535 532/532/532 495/495/495
f 495/495/495 532/532/532 502/502/502
f 495/495/495 502/502/502 543/543/543
f 543/543/543 502/502/502 540/540/540
f 543/543/543 540/540/540 463/463/463
f 463/463/463 540/540/540 541/541/541
f 468/468/468 473/473/473 469/469/469
f 469/469/469 473/473/473 471/471/471
f 473/473/473 514/514/514 471/471/471
f 471/471/471 514/514/514 507/507/507
f 514/514/514 484/484/484 507/507/507
f 507/507/507 484/484/484 483/483/483
f 484/484/484 509/509/509 483/483/483
f 517/517/517 509/509/509 484/484/484
f 517/517/517 516/516/516 509/509/509
f 534/534/534 516/516/516 517/517/517
f 534/534/534 494/494/494 516/516/516
f 494/494/494 534/534/534 495/495/495
f 494/494/494 495/495/495 487/487/487
f 487/487/487 495/495/495 488/488/488
f 487/487/487 488/488/488 547/547/547
f 547/547/547 488/488/488 544/544/544
f 547/547/547 544/544/544 542/542/542
f 542/542/542 544/544/544 541/541/541
f 530/530/530 500/500/500 531/531/531
f 531/531/531 500/500/500 493/493/493
f 500/500/500 524/524/524 493/493/493
f 493/493/493 524/524/524 533/533/533
f 524/524/524 503/503/503 533/533/533
f 533/533/533 503/503/503 511/511/511
f 503/503/503 510/510/510 511/511/511
f 511/511/511 510/510/510 518/518/518
f 567/567/567 578/578/578 569/569/569
f 577/577/577 578/578/578 567/567/567
f 594/594/594 585/585/585 586/586/586
f 554/554/554 585/585/585 594/594/594
f 739/739/739 561/561/561 551/551/551
f 551/551/551 561/561/561 549/549/549
f 551/551/551 549/549/549 588/588/588
f 588/588/588 549/549/549 573/573/573
f 588/588/588 573/573/573 612/612/612
f 612/612/612 573/573/573 613/613/613
f 613/613/613 611/611/611 612/612/612
f 612/612/612 611/611/611 602/602/602
f 602/602/602 611/611/611 609/609/609
f 609/609/609 611/611/611 599/599/599
f 609/609/609 599/599/599 575/575/575
f 575/575/575 599/599/599 565/565/565
f 575/575/575 565/565/565 606/606/606
f 606/606/606 565/565/565 615/615/615
f 606/606/606 615/615/615 581/581/581
f 581/581/581 615/615/615 574/574/574
f 590/590/590 555/555/555 582/582/582
f 582/582/582 555/555/555 614/614/614
f 555/555/555 584/584/584 614/614/614
f 614/614/614 584/584/584 576/576/576
f 584/584/584 608/608/608 576/576/576
f 617/617/617 608/608/608 584/584/584
f 617/617/617 610/610/610 608/608/608
f 619/619/619 610/610/610 617/617/617
f 619/619/619 605/605/605 610/610/610
f 604/604/604 605/605/605 619/619/619
f 604/604/604 559/559/559 605/605/605
f 560/560/560 559/559/559 604/604/604
f 560/560/560 564/564/564 559/559/559
f 580/580/580 564/564/564 560/560/560
f 558/558/558 598/598/598 589/589/589
f 557/557/557 598/598/598 558/558/558
f 583/583/583 557/557/557 558/558/558
f 592/592/592 557/557/557 583/583/583
f 616/616/616 592/592/592 583/583/583
f 603/603/603 592/592/592 616/616/616
f 550/550/550 603/603/603 616/616/616
f 618/618/618 603/603/603 550/550/550
f 550/550/550 595/595/595 618/618/618
f 596/596/596 595/595/595 550/550/550
f 563/563/563 595/595/595 596/596/596
f 579/579/579 595/595/595 563/563/563
f 629/629/629 579/579/579 563/563/563
f 628/628/628 579/579/579 629/629/629
f 627/627/627 628/628/628 629/629/629
f 756/756/756 628/628/628 627/627/627
f 572/572/572 563/563/563 596/596/596
f 548/548/548 563/563/563 572/572/572
f 622/622/622 563/563/563 548/548/548
f 636/636/636 622/622/622 548/548/548
f 755/755/755 622/622/622 636/636/636
f 634/634/634 755/755/755 636/636/636
f 756/756/756 755/755/755 634/634/634
f 587/587/587 572/572/572 596/596/596
f 573/573/573 572/572/572 587/587/587
f 573/573/573 571/571/571 572/572/572
f 626/626/626 571/571/571 573/573/573
f 626/626/626 736/736/736 571/571/571
f 737/737/737 736/736/736 626/626/626
f 737/737/737 738/738/738 736/736/736
f 621/621/621 587/587/587 596/596/596
f 620/620/620 587/587/587 621/621/621
f 593/593/593 620/620/620 621/621/621
f 601/601/601 620/620/620 593/593/593
f 601/601/601 593/593/593 600/600/600
f 600/600/600 593/593/593 591/591/591
f 600/600/600 591/591/591 566/566/566
f 566/566/566 591/591/591 556/556/556
f 597/597/597 566/566/566 556/556/556
f 607/607/607 566/566/566 597/597/597
f 739/739/739 738/738/738 737/737/737
f 757/757/757 745/745/745 712/712/712
f 757/757/757 251/251/251 745/745/745
f 745/745/745 251/251/251 249/249/249
f 663/663/663 249/249/249 251/251/251
f 687/687/687 249/249/249 663/663/663
f 663/663/663 662/662/662 687/687/687
f 651/651/651 662/662/662 663/663/663
f 651/651/651 643/643/643 662/662/662
f 705/705/705 643/643/643 651/651/651
f 705/705/705 703/703/703 643/643/643
f 705/705/705 704/704/704 703/703/703
f 703/703/703 704/704/704 722/722/722
f 704/704/704 674/674/674 722/722/722
f 722/722/722 674/674/674 693/693/693
f 668/668/668 683/683/683 669/669/669
f 682/682/682 683/683/683 668/668/668
f 675/675/675 695/695/695 713/713/713
f 713/713/713 695/695/695 714/714/714
f 713/713/713 714/714/714 717/717/717
f 717/717/717 714/714/714 718/718/718
f 700/700/700 717/717/717 718/718/718
f 718/718/718 746/746/746 700/700/700
f 700/700/700 746/746/746 656/656/656
f 746/746/746 750/750/750 656/656/656
f 656/656/656 750/750/750 657/657/657
f 657/657/657 750/750/750 726/726/726
f 726/726/726 750/750/750 684/684/684
f 726/726/726 684/684/684 708/708/708
f 708/708/708 684/684/684 719/719/719
f 708/708/708 719/719/719 720/720/720
f 694/694/694 708/708/708 720/720/720
f 697/697/697 708/708/708 694/694/694
f 697/697/697 698/698/698 708/708/708
f 671/671/671 698/698/698 697/697/697
f 688/688/688 698/698/698 671/671/671
f 689/689/689 698/698/698 688/688/688
f 689/689/689 688/688/688 744/744/744
f 744/744/744 688/688/688 644/644/644
f 644/644/644 645/645/645 744/744/744
f 650/650/650 645/645/645 644/644/644
f 650/650/650 699/699/699 645/645/645
f 645/645/645 699/699/699 716/716/716
f 699/699/699 701/701/701 716/716/716
f 716/716/716 701/701/701 715/715/715
f 688/688/688 687/687/687 644/644/644
f 687/687/687 688/688/688 672/672/672
f 672/672/672 688/688/688 670/670/670
f 706/706/706 672/672/672 670/670/670
f 710/710/710 672/672/672 706/706/706
f 707/707/707 710/710/710 706/706/706
f 712/712/712 710/710/710 707/707/707
f 701/701/701 681/681/681 715/715/715
f 679/679/679 681/681/681 701/701/701
f 711/711/711 721/721/721 723/723/723
f 676/676/676 721/721/721 711/711/711
f 732/732/732 817/817/817 118/118/118
f 118/118/118 817/817/817 198/198/198
f 198/198/198 117/117/117 118/118/118
f 118/118/118 117/117/117 119/119/119
f 780/780/780 119/119/119 117/117/117
f 791/791/791 119/119/119 780/780/780
f 791/791/791 780/780/780 790/790/790
f 817/817/817 256/256/256 198/198/198
f 431/431/431 432/432/432 733/733/733
f 419/419/419 432/432/432 431/431/431
f 273/273/273 271/271/271 272/272/272
f 272/272/272 271/271/271 270/270/270
f 638/638/638 270/270/270 271/271/271
f 632/632/632 270/270/270 638/638/638
f 638/638/638 633/633/633 632/632/632
f 632/632/632 633/633/633 631/631/631
f 633/633/633 702/702/702 631/631/631
f 631/631/631 702/702/702 724/724/724
f 702/702/702 760/760/760 724/724/724
f 724/724/724 760/760/760 763/763/763
f 760/760/760 186/186/186 763/763/763
f 763/763/763 186/186/186 223/223/223
f 177/177/177 223/223/223 186/186/186
f 221/221/221 223/223/223 177/177/177
f 177/177/177 222/222/222 221/221/221
f 221/221/221 222/222/222 224/224/224
f 222/222/222 225/225/225 224/224/224
f 224/224/224 225/225/225 197/197/197
f 179/179/179 178/178/178 299/299/299
f 299/299/299 178/178/178 758/758/758
f 758/758/758 387/387/387 299/299/299
f 299/299/299 387/387/387 195/195/195
f 195/195/195 387/387/387 386/386/386
f 386/386/386 387/387/387 98/98/98
f 386/386/386 98/98/98 192/192/192
f 98/98/98 191/191/191 192/192/192
f 192/192/192 191/191/191 196/196/196
f 191/191/191 94/94/94 196/196/196
f 196/196/196 94/94/94 97/97/97
f 94/94/94 93/93/93 97/97/97
f 97/97/97 93/93/93 92/92/92
f 765/765/765 92/92/92 93/93/93
f 764/764/764 92/92/92 765/765/765
f 764/764/764 765/765/765 91/91/91
f 764/764/764 91/91/91 164/164/164
f 164/164/164 91/91/91 165/165/165
f 164/164/164 165/165/165 759/759/759
f 164/164/164 759/759/759 35/35/35
f 35/35/35 759/759/759 34/34/34
f 34/34/34 19/19/19 35/35/35
f 35/35/35 19/19/19 281/281/281
f 281/281/281 19/19/19 301/301/301
f 301/301/301 771/771/771 281/281/281
f 281/281/281 771/771/771 120/120/120
f 120/120/120 771/771/771 773/773/773
f 773/773/773 771/771/771 772/772/772
f 189/189/189 187/187/187 226/226/226
f 188/188/188 187/187/187 189/189/189
f 215/215/215 216/216/216 174/174/174
f 209/209/209 216/216/216 215/215/215
f 338/338/338 340/340/340 346/346/346
f 341/341/341 340/340/340 338/338/338
f 193/193/193 194/194/194 393/393/393
f 99/99/99 194/194/194 193/193/193
f 83/83/83 85/85/85 100/100/100
f 86/86/86 85/85/85 83/83/83
f 775/775/775 774/774/774 84/84/84
f 776/776/776 774/774/774 775/775/775
f 779/779/779 777/777/777 778/778/778
f 818/818/818 777/777/777 779/779/779
f 820/820/820 819/819/819 827/827/827
f 322/322/322 819/819/819 820/820/820
f 323/323/323 325/325/325 324/324/324
f 351/351/351 325/325/325 323/323/323
f 310/310/310 312/312/312 350/350/350
f 311/311/311 312/312/312 310/310/310
f 349/349/349 348/348/348 313/313/313
f 345/345/345 348/348/348 349/349/349
f 343/343/343 342/342/342 344/344/344
f 337/337/337 342/342/342 343/343/343
f 36/36/36 37/37/37 784/784/784
f 685/685/685 36/36/36 784/784/784
f 31/31/31 36/36/36 685/685/685
f 31/31/31 33/33/33 36/36/36
f 36/36/36 33/33/33 29/29/29
f 33/33/33 828/828/828 29/29/29
f 29/29/29 828/828/828 812/812/812
f 812/812/812 828/828/828 41/41/41
f 784/784/784 783/783/783 685/685/685
f 783/783/783 686/686/686 685/685/685
f 686/686/686 31/31/31 685/685/685
f 32/32/32 31/31/31 686/686/686
f 31/31/31 32/32/32 33/33/33
f 32/32/32 39/39/39 33/33/33
f 33/33/33 39/39/39 828/828/828
f 38/38/38 828/828/828 39/39/39
f 41/41/41 828/828/828 38/38/38
f 38/38/38 262/262/262 41/41/41
f 262/262/262 40/40/40 41/41/41
f 782/782/782 783/783/783 784/784/784
f 680/680/680 783/783/783 782/782/782
f 624/624/624 783/783/783 680/680/680
f 624/624/624 686/686/686 783/783/783
f 625/625/625 686/686/686 624/624/624
f 625/625/625 537/537/537 686/686/686
f 32/32/32 686/686/686 537/537/537
f 32/32/32 537/537/537 39/39/39
f 625/625/625 39/39/39 537/537/537
f 625/625/625 42/42/42 39/39/39
f 39/39/39 42/42/42 38/38/38
f 42/42/42 262/262/262 38/38/38
f 680/680/680 782/782/782 623/623/623
f 624/624/624 42/42/42 625/625/625
f 624/624/624 262/262/262 42/42/42
f 680/680/680 262/262/262 624/624/624
f 680/680/680 28/28/28 262/262/262
f 17/17/17 28/28/28 680/680/680
f 260/260/260 539/539/539 261/261/261
f 538/538/538 539/539/539 260/260/260
