# Exported by s4extract — object_GrillFood_lod01_g00
o object_GrillFood_lod01_g00
v 0.220374 0.015625 -0.116916
v 0.209540 0.000855 -0.108188
v 0.220374 0.015625 -0.116916
v 0.192114 0.006470 -0.093905
v 0.211097 0.015595 -0.139256
v 0.176031 0.006409 -0.130894
v 0.197729 0.000793 -0.136052
v 0.211097 0.015595 -0.139256
v 0.243049 0.015595 -0.220466
v 0.236824 0.030366 -0.232917
v 0.205359 0.030335 -0.194494
v 0.217597 0.015564 -0.188757
v 0.227027 0.006409 -0.253182
v 0.185614 0.024628 -0.203772
v 0.185644 0.006378 -0.203772
v 0.227027 0.006409 -0.253182
v 0.210639 0.015625 -0.096103
v 0.210639 0.015625 -0.096103
v 0.210639 0.015625 -0.096103
v 0.210639 0.015625 -0.096103
v 0.192114 0.006470 -0.093905
v 0.209540 0.000855 -0.108188
v 0.176031 0.006409 -0.130894
v 0.197729 0.000793 -0.136052
v 0.243049 0.015595 -0.220466
v 0.205420 0.000763 -0.194464
v 0.205359 0.030335 -0.194494
v 0.226997 0.024689 -0.253182
v 0.242897 0.015595 -0.243446
v 0.242897 0.015595 -0.243446
v 0.192083 0.024720 -0.093905
v 0.192083 0.024720 -0.093905
v 0.176000 0.024659 -0.130894
v 0.176000 0.024659 -0.130894
v 0.205420 0.000763 -0.194464
v 0.236885 0.000793 -0.232917
v 0.185614 0.024628 -0.203772
v 0.236824 0.030366 -0.232917
v 0.242897 0.015595 -0.243446
v 0.242897 0.015595 -0.243446
v 0.209479 0.030396 -0.108219
v 0.210639 0.015625 -0.096103
v 0.197668 0.030366 -0.136082
v 0.217597 0.015564 -0.188757
v 0.236885 0.000793 -0.232917
v 0.242897 0.015595 -0.243446
v 0.209479 0.030396 -0.108219
v 0.197668 0.030366 -0.136082
v 0.185644 0.006378 -0.203772
v 0.226997 0.024689 -0.253182
v 0.002838 0.038606 -0.234840
v 0.003601 0.000305 -0.234321
v -0.011017 0.019166 -0.233314
v 0.003601 0.000305 -0.234321
v -0.010041 0.019745 -0.211524
v 0.005585 0.000427 -0.211249
v -0.010041 0.019745 -0.211524
v 0.031220 0.007477 -0.210639
v -0.021668 0.019807 -0.172216
v -0.032105 0.038972 -0.133885
v -0.007691 0.000458 -0.164678
v -0.042879 0.020447 -0.144230
v -0.033631 0.000702 -0.134465
v 0.015503 0.031190 -0.152196
v 0.015290 0.007508 -0.152287
v -0.016388 0.030702 -0.117618
v 0.005524 0.019318 -0.244636
v 0.005524 0.019318 -0.244636
v 0.005524 0.019318 -0.244636
v 0.005524 0.019318 -0.244636
v 0.026429 0.008087 -0.236702
v 0.025941 0.031770 -0.237007
v 0.005585 0.000427 -0.211249
v 0.031220 0.007477 -0.210639
v -0.033631 0.000702 -0.134465
v -0.021668 0.019807 -0.172216
v -0.017335 0.007050 -0.117954
v 0.015503 0.031190 -0.152196
v -0.037660 0.019929 -0.125004
v -0.037660 0.019929 -0.125004
v 0.002838 0.038606 -0.234840
v 0.026429 0.008087 -0.236702
v 0.031434 0.031159 -0.210517
v 0.031434 0.031159 -0.210517
v -0.042879 0.020447 -0.144230
v 0.015290 0.007508 -0.152287
v -0.007355 0.038789 -0.164495
v -0.016388 0.030702 -0.117618
v -0.037660 0.019929 -0.125004
v -0.037660 0.019929 -0.125004
v -0.011017 0.019166 -0.233314
v 0.005524 0.019318 -0.244636
v 0.005921 0.038759 -0.211066
v -0.007355 0.038789 -0.164495
v -0.007691 0.000458 -0.164678
v -0.037660 0.019929 -0.125004
v 0.025941 0.031770 -0.237007
v 0.005921 0.038759 -0.211066
v -0.017335 0.007050 -0.117954
v -0.032105 0.038972 -0.133885
v -0.276040 0.026551 -0.152318
v -0.124821 0.001740 -0.234169
v -0.169042 0.027223 -0.259804
v -0.239875 0.026643 -0.095187
v -0.191107 0.000763 -0.086642
v -0.263680 0.028718 -0.196692
v -0.200842 -0.000488 -0.223243
v -0.263680 0.028718 -0.196692
v -0.191107 0.000763 -0.086642
v -0.239875 0.026643 -0.095187
v -0.239875 0.002747 -0.095187
v -0.169042 0.002136 -0.259804
v -0.141301 0.001801 -0.258736
v -0.200842 -0.000488 -0.223243
v -0.263680 0.000641 -0.196692
v -0.191107 0.028993 -0.086642
v -0.124821 0.027650 -0.234169
v -0.124821 0.001740 -0.234169
v -0.145238 -0.000641 -0.125156
v -0.141301 0.027589 -0.258736
v -0.191107 0.028993 -0.086642
v -0.276040 0.026551 -0.152318
v -0.141301 0.001801 -0.258736
v -0.276040 0.002808 -0.152318
v -0.239875 0.002747 -0.095187
v -0.276040 0.002808 -0.152318
v -0.239875 0.026643 -0.095187
v -0.263680 0.000641 -0.196692
v -0.191107 0.000763 -0.086642
v -0.263680 0.000641 -0.196692
v -0.239875 0.002747 -0.095187
v -0.145238 0.030030 -0.125156
v -0.200842 0.029847 -0.223243
v -0.169042 0.027223 -0.259804
v -0.145238 -0.000641 -0.125156
v -0.200842 -0.000488 -0.223243
v -0.124821 0.001740 -0.234169
v -0.124821 0.027650 -0.234169
v -0.169042 0.002136 -0.259804
v -0.141301 0.001801 -0.258736
v -0.145238 -0.000641 -0.125156
v -0.141301 0.027589 -0.258736
v -0.200842 0.029847 -0.223243
v -0.145238 0.030030 -0.125156
v -0.191107 0.028993 -0.086642
v -0.124821 0.027650 -0.234169
v -0.276040 0.026551 -0.152318
v -0.263680 0.028718 -0.196692
v -0.145238 0.030030 -0.125156
v -0.141301 0.027589 -0.258736
v -0.276040 0.002808 -0.152318
v -0.200842 0.029847 -0.223243
v -0.169042 0.027223 -0.259804
v -0.169042 0.002136 -0.259804
v 0.237922 0.003876 -0.005463
v 0.130772 0.027314 0.129246
v 0.113315 0.002258 0.080996
v 0.287820 0.003388 0.040162
v 0.287637 0.028809 0.089938
v 0.192083 0.001617 -0.001099
v 0.154881 0.030244 0.056368
v 0.192083 0.001617 -0.001099
v 0.287637 0.028809 0.089938
v 0.287820 0.003388 0.040162
v 0.287820 0.027284 0.040407
v 0.113315 0.027375 0.081210
v 0.109470 0.027436 0.108707
v 0.154881 0.030244 0.056368
v 0.192053 0.029695 -0.000824
v 0.287667 0.000580 0.089663
v 0.130802 0.001434 0.129002
v 0.130772 0.027314 0.129246
v 0.241676 0.029817 0.128330
v 0.109500 0.001679 0.108463
v 0.287667 0.000580 0.089663
v 0.237922 0.003876 -0.005463
v 0.109470 0.027436 0.108707
v 0.237892 0.027619 -0.005249
v 0.287820 0.027284 0.040407
v 0.237892 0.027619 -0.005249
v 0.287820 0.003388 0.040162
v 0.192053 0.029695 -0.000824
v 0.287637 0.028809 0.089938
v 0.192053 0.029695 -0.000824
v 0.287820 0.027284 0.040407
v 0.241707 -0.000855 0.128056
v 0.154881 -0.000092 0.056063
v 0.113315 0.002258 0.080996
v 0.241676 0.029817 0.128330
v 0.154881 0.030244 0.056368
v 0.130772 0.027314 0.129246
v 0.130802 0.001434 0.129002
v 0.113315 0.027375 0.081210
v 0.109470 0.027436 0.108707
v 0.241676 0.029817 0.128330
v 0.109500 0.001679 0.108463
v 0.154881 -0.000092 0.056063
v 0.241707 -0.000855 0.128056
v 0.287667 0.000580 0.089663
v 0.130802 0.001434 0.129002
v 0.237922 0.003876 -0.005463
v 0.192083 0.001617 -0.001099
v 0.241707 -0.000855 0.128056
v 0.109500 0.001679 0.108463
v 0.237892 0.027619 -0.005249
v 0.154881 -0.000092 0.056063
v 0.113315 0.002258 0.080996
v 0.113315 0.027375 0.081210
v 0.051393 0.015473 0.110843
v 0.047487 0.000702 0.124210
v 0.051393 0.015473 0.110843
v 0.041353 0.006348 0.145909
v 0.031007 0.015442 0.097781
v 0.007019 0.006287 0.124699
v 0.021882 0.000641 0.108066
v 0.031007 0.015442 0.097781
v 0.010895 0.015351 0.012879
v -0.001343 0.030091 0.006195
v -0.005219 0.030122 0.055696
v 0.008118 0.015351 0.053468
v -0.020966 0.006134 -0.004791
v -0.026734 0.024445 0.059359
v -0.026704 0.006165 0.059389
v -0.020966 0.006134 -0.004791
v 0.055269 0.015503 0.133488
v 0.055269 0.015503 0.133488
v 0.055269 0.015503 0.133488
v 0.055269 0.015503 0.133488
v 0.041353 0.006348 0.145909
v 0.047487 0.000702 0.124210
v 0.007019 0.006287 0.124699
v 0.021882 0.000641 0.108066
v 0.010895 0.015351 0.012879
v -0.005158 0.000580 0.055727
v -0.005219 0.030122 0.055696
v -0.020997 0.024415 -0.004822
v -0.002350 0.015320 -0.005890
v -0.002350 0.015320 -0.005890
v 0.041292 0.024628 0.145878
v 0.041292 0.024628 0.145878
v 0.006989 0.024537 0.124668
v 0.006989 0.024537 0.124668
v -0.005158 0.000580 0.055727
v -0.001282 0.000549 0.006226
v -0.026734 0.024445 0.059359
v -0.001343 0.030091 0.006195
v -0.002350 0.015320 -0.005890
v -0.002350 0.015320 -0.005890
v 0.047426 0.030244 0.124180
v 0.055269 0.015503 0.133488
v 0.021821 0.030213 0.108066
v 0.008118 0.015351 0.053468
v -0.001282 0.000549 0.006226
v -0.002350 0.015320 -0.005890
v 0.047426 0.030244 0.124180
v 0.021821 0.030213 0.108066
v -0.026704 0.006165 0.059389
v -0.020997 0.024415 -0.004822
v -0.142155 0.037812 0.087008
v -0.143162 -0.000458 0.087985
v -0.142827 0.018311 0.073183
v -0.143162 -0.000458 0.087985
v -0.164617 0.019135 0.072481
v -0.166326 -0.000092 0.088168
v -0.164617 0.019135 0.072481
v -0.168859 0.007141 0.113620
v -0.202918 0.019501 0.057833
v -0.240089 0.039033 0.044343
v -0.211737 0.000366 0.071322
v -0.229163 0.020325 0.034516
v -0.239845 0.000732 0.043123
v -0.225623 0.031404 0.093265
v -0.225776 0.007721 0.093234
v -0.257637 0.031037 0.058809
v -0.132847 0.018433 0.090548
v -0.132847 0.018433 0.090548
v -0.132847 0.018433 0.090548
v -0.132847 0.018433 0.090548
v -0.142491 0.007447 0.110843
v -0.141881 0.031098 0.110263
v -0.166326 -0.000092 0.088168
v -0.168859 0.007141 0.113620
v -0.239845 0.000732 0.043123
v -0.202918 0.019501 0.057833
v -0.257485 0.007385 0.058046
v -0.225623 0.031404 0.093265
v -0.248726 0.020051 0.038270
v -0.248726 0.020051 0.038270
v -0.142155 0.037812 0.087008
v -0.142491 0.007447 0.110843
v -0.168706 0.030824 0.113681
v -0.168706 0.030824 0.113681
v -0.229163 0.020325 0.034516
v -0.225776 0.007721 0.093234
v -0.211493 0.038697 0.071413
v -0.257637 0.031037 0.058809
v -0.248726 0.020051 0.038270
v -0.248726 0.020051 0.038270
v -0.142827 0.018311 0.073183
v -0.132847 0.018433 0.090548
v -0.166112 0.038240 0.088260
v -0.211493 0.038697 0.071413
v -0.211737 0.000366 0.071322
v -0.248726 0.020051 0.038270
v -0.141881 0.031098 0.110263
v -0.166112 0.038240 0.088260
v -0.257485 0.007385 0.058046
v -0.240089 0.039033 0.044343
vt 0.899686 0.107303
vt 0.999939 0.107303
vt 0.899686 0.107303
vt 0.613666 0.107303
vt 0.899686 0.326456
vt 0.613666 0.326456
vt 0.999939 0.326456
vt 0.899686 0.326456
vt 0.899686 0.878719
vt 0.790094 0.878719
vt 0.790094 0.608753
vt 0.899686 0.608753
vt 0.613666 0.878719
vt 0.700644 0.608753
vt 0.613666 0.608753
vt 0.613666 0.878719
vt 0.752647 0.034577
vt 0.752647 0.034577
vt 0.752647 0.034577
vt 0.752647 0.034577
vt 0.613666 0.107303
vt 0.512101 0.107303
vt 0.613666 0.326456
vt 0.512101 0.326456
vt 0.899686 0.878719
vt 0.999939 0.608753
vt 0.790094 0.608753
vt 0.700644 0.878719
vt 0.752647 0.958647
vt 0.752647 0.958647
vt 0.700644 0.107303
vt 0.700644 0.107303
vt 0.700644 0.326456
vt 0.700644 0.326456
vt 0.512101 0.608753
vt 0.999939 0.878719
vt 0.700644 0.608753
vt 0.790094 0.878719
vt 0.752647 0.958647
vt 0.752647 0.958647
vt 0.790094 0.107303
vt 0.752647 0.034577
vt 0.790094 0.326456
vt 0.899686 0.608753
vt 0.512101 0.878719
vt 0.752647 0.958647
vt 0.790094 0.107303
vt 0.790094 0.326456
vt 0.613666 0.608753
vt 0.700644 0.878719
vt 0.285073 0.553362
vt 0.007080 0.553362
vt 0.394635 0.553362
vt 0.494888 0.553362
vt 0.394635 0.662954
vt 0.494888 0.662954
vt 0.394635 0.662954
vt 0.108646 0.662954
vt 0.394635 0.804102
vt 0.285073 0.939085
vt 0.494888 0.804102
vt 0.394635 0.939085
vt 0.007080 0.939085
vt 0.195624 0.804102
vt 0.108646 0.804102
vt 0.195624 0.939085
vt 0.247627 0.517014
vt 0.247627 0.517014
vt 0.247627 0.517014
vt 0.247627 0.517014
vt 0.108646 0.553362
vt 0.195624 0.553362
vt 0.007080 0.662954
vt 0.108646 0.662954
vt 0.494888 0.939085
vt 0.394635 0.804102
vt 0.108646 0.939085
vt 0.195624 0.804102
vt 0.247627 0.979034
vt 0.247627 0.979034
vt 0.285073 0.553362
vt 0.108646 0.553362
vt 0.195624 0.662954
vt 0.195624 0.662954
vt 0.394635 0.939085
vt 0.108646 0.804102
vt 0.285073 0.804102
vt 0.195624 0.939085
vt 0.247627 0.979034
vt 0.247627 0.979034
vt 0.394635 0.553362
vt 0.247627 0.517014
vt 0.285073 0.662954
vt 0.285073 0.804102
vt 0.007080 0.804102
vt 0.247627 0.979034
vt 0.195624 0.553362
vt 0.285073 0.662954
vt 0.108646 0.939085
vt 0.285073 0.939085
vt 0.010224 0.319407
vt 0.494064 0.067324
vt 0.374310 0.000000
vt 0.150334 0.470748
vt 0.007904 0.105472
vt 0.007904 0.003449
vt 0.191351 0.105472
vt 0.042238 0.194678
vt 0.191351 0.105472
vt 0.007904 0.003449
vt 0.007904 0.105472
vt 0.374310 0.000000
vt 0.447218 0.005280
vt 0.245735 0.101413
vt 0.191351 0.105472
vt 0.191351 0.003449
vt 0.191351 0.003449
vt 0.191351 0.105472
vt 0.449721 0.361888
vt 0.007904 0.003449
vt 0.313089 0.477126
vt 0.007904 0.003449
vt 0.007904 0.105472
vt 0.007904 0.105472
vt 0.007904 0.105472
vt 0.010224 0.319407
vt 0.007904 0.003449
vt 0.042238 0.194678
vt 0.313089 0.477126
vt 0.007904 0.105472
vt 0.150334 0.470748
vt 0.191351 0.003449
vt 0.191351 0.003449
vt 0.191351 0.003449
vt 0.191351 0.105472
vt 0.191351 0.105472
vt 0.191351 0.105472
vt 0.191351 0.003449
vt 0.191351 0.105472
vt 0.007904 0.105472
vt 0.191351 0.105472
vt 0.447218 0.005280
vt 0.245735 0.101413
vt 0.191351 0.003449
vt 0.007904 0.003449
vt 0.494064 0.067324
vt 0.007904 0.003449
vt 0.191351 0.003449
vt 0.449721 0.361888
vt 0.007904 0.003449
vt 0.007904 0.105472
vt 0.191351 0.003449
vt 0.191351 0.003449
vt 0.191351 0.105472
vt 0.010224 0.319407
vt 0.494064 0.067324
vt 0.374310 0.000000
vt 0.150334 0.470748
vt 0.007904 0.105472
vt 0.007904 0.003449
vt 0.191351 0.105472
vt 0.042238 0.194678
vt 0.191351 0.105472
vt 0.007904 0.003449
vt 0.007904 0.105472
vt 0.374310 0.000000
vt 0.447218 0.005280
vt 0.245735 0.101413
vt 0.191351 0.105472
vt 0.191351 0.003449
vt 0.191351 0.003449
vt 0.191351 0.105472
vt 0.449721 0.361888
vt 0.007904 0.003449
vt 0.313089 0.477126
vt 0.007904 0.003449
vt 0.007904 0.105472
vt 0.007904 0.105472
vt 0.007904 0.105472
vt 0.010224 0.319407
vt 0.007904 0.003449
vt 0.042238 0.194678
vt 0.313089 0.477126
vt 0.007904 0.105472
vt 0.150334 0.470748
vt 0.191351 0.003449
vt 0.191351 0.003449
vt 0.191351 0.003449
vt 0.191351 0.105472
vt 0.191351 0.105472
vt 0.191351 0.105472
vt 0.191351 0.003449
vt 0.191351 0.105472
vt 0.007904 0.105472
vt 0.191351 0.105472
vt 0.447218 0.005280
vt 0.245735 0.101413
vt 0.191351 0.003449
vt 0.007904 0.003449
vt 0.494064 0.067324
vt 0.007904 0.003449
vt 0.191351 0.003449
vt 0.449721 0.361888
vt 0.007904 0.003449
vt 0.007904 0.105472
vt 0.191351 0.003449
vt 0.191351 0.003449
vt 0.191351 0.105472
vt 0.899686 0.107303
vt 0.999939 0.107303
vt 0.899686 0.107303
vt 0.613666 0.107303
vt 0.899686 0.326456
vt 0.613666 0.326456
vt 0.999939 0.326456
vt 0.899686 0.326456
vt 0.899686 0.878719
vt 0.790094 0.878719
vt 0.790094 0.608753
vt 0.899686 0.608753
vt 0.613666 0.878719
vt 0.700644 0.608753
vt 0.613666 0.608753
vt 0.613666 0.878719
vt 0.752647 0.034577
vt 0.752647 0.034577
vt 0.752647 0.034577
vt 0.752647 0.034577
vt 0.613666 0.107303
vt 0.512101 0.107303
vt 0.613666 0.326456
vt 0.512101 0.326456
vt 0.899686 0.878719
vt 0.999939 0.608753
vt 0.790094 0.608753
vt 0.700644 0.878719
vt 0.752647 0.958647
vt 0.752647 0.958647
vt 0.700644 0.107303
vt 0.700644 0.107303
vt 0.700644 0.326456
vt 0.700644 0.326456
vt 0.512101 0.608753
vt 0.999939 0.878719
vt 0.700644 0.608753
vt 0.790094 0.878719
vt 0.752647 0.958647
vt 0.752647 0.958647
vt 0.790094 0.107303
vt 0.752647 0.034577
vt 0.790094 0.326456
vt 0.899686 0.608753
vt 0.512101 0.878719
vt 0.752647 0.958647
vt 0.790094 0.107303
vt 0.790094 0.326456
vt 0.613666 0.608753
vt 0.700644 0.878719
vt 0.285073 0.553362
vt 0.007080 0.553362
vt 0.394635 0.553362
vt 0.494888 0.553362
vt 0.394635 0.662954
vt 0.494888 0.662954
vt 0.394635 0.662954
vt 0.108646 0.662954
vt 0.394635 0.804102
vt 0.285073 0.939085
vt 0.494888 0.804102
vt 0.394635 0.939085
vt 0.007080 0.939085
vt 0.195624 0.804102
vt 0.108646 0.804102
vt 0.195624 0.939085
vt 0.247627 0.517014
vt 0.247627 0.517014
vt 0.247627 0.517014
vt 0.247627 0.517014
vt 0.108646 0.553362
vt 0.195624 0.553362
vt 0.007080 0.662954
vt 0.108646 0.662954
vt 0.494888 0.939085
vt 0.394635 0.804102
vt 0.108646 0.939085
vt 0.195624 0.804102
vt 0.247627 0.979034
vt 0.247627 0.979034
vt 0.285073 0.553362
vt 0.108646 0.553362
vt 0.195624 0.662954
vt 0.195624 0.662954
vt 0.394635 0.939085
vt 0.108646 0.804102
vt 0.285073 0.804102
vt 0.195624 0.939085
vt 0.247627 0.979034
vt 0.247627 0.979034
vt 0.394635 0.553362
vt 0.247627 0.517014
vt 0.285073 0.662954
vt 0.285073 0.804102
vt 0.007080 0.804102
vt 0.247627 0.979034
vt 0.195624 0.553362
vt 0.285073 0.662954
vt 0.108646 0.939085
vt 0.285073 0.939085
vn 0.761042 0.637080 -0.122243
vn 0.796451 -0.603791 -0.033198
vn 0.763059 -0.634852 -0.121261
vn -0.055027 -0.950285 0.306479
vn 0.742835 0.668908 0.027561
vn -0.243640 -0.969292 0.033357
vn 0.730604 -0.676938 -0.089291
vn 0.745061 -0.666385 0.028564
vn 0.662962 0.629905 0.404600
vn 0.709616 0.604388 0.362162
vn 0.687871 0.671836 0.274716
vn 0.689370 -0.671713 0.271240
vn -0.022434 -0.966197 -0.256828
vn -0.880573 -0.001472 -0.473909
vn -0.955006 -0.001597 -0.296582
vn -0.670116 -0.001120 -0.742256
vn 0.380894 -0.602309 0.701529
vn 0.117694 0.000197 0.993050
vn 0.379221 0.604441 0.700602
vn 0.835544 0.386169 0.390819
vn -0.708813 -0.001185 0.705396
vn -0.120205 -0.965494 0.231026
vn -0.988410 -0.001653 0.151796
vn -0.252493 -0.967566 -0.007985
vn 0.665332 -0.627114 0.405045
vn 0.690119 -0.669171 0.275582
vn -0.234952 0.967353 -0.095003
vn -0.569470 -0.000951 -0.822011
vn 0.640922 -0.600476 -0.478171
vn 0.924939 -0.380066 -0.006142
vn -0.816759 -0.001366 0.576978
vn -0.058865 0.950409 0.305380
vn -0.999851 -0.001672 -0.017197
vn -0.248081 0.968210 0.032017
vn -0.231036 -0.968453 -0.093390
vn 0.711888 -0.601481 0.362541
vn -0.235756 0.966982 -0.096777
vn -0.097625 0.970337 -0.221166
vn 0.638031 0.603352 -0.478418
vn 0.522541 0.000872 -0.852614
vn 0.794549 0.606233 -0.034254
vn 0.836914 -0.382535 0.391460
vn 0.728353 0.679214 -0.090391
vn 0.687152 0.674332 0.270367
vn -0.093823 -0.971018 -0.219823
vn 0.923314 0.383997 -0.006131
vn -0.124272 0.965262 0.229839
vn -0.256749 0.966432 -0.009406
vn -0.231750 -0.968093 -0.095326
vn -0.026253 0.965836 -0.257819
vn -0.789823 0.585776 -0.181785
vn 0.238195 -0.845103 -0.478606
vn -0.750548 -0.563285 -0.345524
vn -0.777830 -0.602254 -0.179640
vn -0.763248 0.634096 -0.123994
vn -0.770682 -0.625121 -0.123587
vn -0.769457 -0.626095 -0.126259
vn 0.264425 -0.963992 0.028272
vn -0.656922 0.644561 -0.391145
vn -0.692471 0.621137 -0.366977
vn -0.712297 -0.629609 -0.310203
vn -0.764314 0.589923 -0.260414
vn -0.055655 -0.912313 0.405694
vn 0.889085 -0.009789 0.457638
vn 0.887430 -0.016574 0.460645
vn 0.585799 -0.021623 0.810168
vn 0.072989 -0.481294 -0.873515
vn -0.536891 0.321425 -0.780022
vn 0.352606 -0.004789 -0.935760
vn 0.052295 0.458007 -0.887409
vn 0.256019 -0.916040 -0.308749
vn 0.794931 0.008573 -0.606639
vn 0.269663 -0.962300 0.035517
vn 0.991368 -0.009617 0.130754
vn -0.721557 -0.574739 -0.386044
vn -0.678888 -0.612845 -0.404391
vn 0.452119 -0.030737 0.891428
vn 0.258736 0.958918 0.116326
vn -0.919236 -0.311242 0.241108
vn -0.536909 -0.460365 0.706960
vn 0.204182 0.846093 -0.492378
vn 0.889764 0.002348 -0.456416
vn 0.284386 0.957809 0.041547
vn 0.991949 -0.005458 0.126524
vn -0.811939 -0.515607 -0.273687
vn 0.242037 -0.964604 0.104676
vn 0.251253 0.954445 0.160956
vn 0.113003 0.938208 0.327102
vn -0.327862 -0.000295 0.944726
vn -0.495016 0.481632 0.723181
vn -0.770367 0.520103 -0.368819
vn -0.523639 -0.364751 -0.769908
vn -0.759774 0.640510 -0.111760
vn -0.702300 0.645202 -0.300814
vn 0.220114 -0.965507 0.139093
vn -0.891074 0.377438 0.252048
vn 0.246611 0.920346 -0.303555
vn 0.281459 0.958690 0.041152
vn 0.072639 -0.952252 0.296545
vn 0.015972 0.897433 0.440861
vn -0.055212 0.997918 0.033350
vn 0.026779 -0.999489 -0.017479
vn -0.010066 0.996719 -0.080306
vn -0.054315 0.997974 0.033141
vn 0.643037 0.000000 0.765835
vn -0.389217 0.000000 -0.921146
vn -0.389217 0.000000 -0.921146
vn -0.032410 0.999298 0.018796
vn -0.172590 0.000000 0.984994
vn -0.172590 0.000000 0.984994
vn -0.172590 0.000000 0.984994
vn -0.009006 -0.996803 -0.079390
vn 0.014391 -0.999085 -0.040287
vn -0.000118 -0.999993 -0.003740
vn -0.963328 0.000000 -0.268327
vn -0.172590 0.000000 0.984994
vn 0.830460 0.000000 -0.557079
vn 0.830460 0.000000 -0.557079
vn 0.004983 -0.999978 -0.004381
vn 0.830460 0.000000 -0.557079
vn -0.024541 0.999609 0.013397
vn -0.844941 0.000000 0.534859
vn 0.830460 0.000000 -0.557079
vn -0.844941 0.000000 0.534859
vn -0.844941 0.000000 0.534859
vn -0.054628 -0.997944 0.033514
vn -0.844941 0.000000 0.534859
vn -0.029345 -0.999371 0.019934
vn -0.023913 -0.999596 0.015347
vn -0.389217 0.000000 -0.921146
vn -0.048919 -0.998284 0.032182
vn 0.643037 0.000000 0.765835
vn -0.754524 0.000000 -0.656272
vn -0.754524 0.000000 -0.656272
vn 0.643037 0.000000 0.765835
vn -0.754524 0.000000 -0.656272
vn 0.982910 0.000000 0.184089
vn 0.982910 0.000000 0.184089
vn -0.754524 0.000000 -0.656272
vn 0.038475 0.000000 -0.999260
vn 0.982910 0.000000 0.184089
vn 0.013789 0.999087 -0.040438
vn 0.000596 0.999985 -0.005533
vn 0.982910 0.000000 0.184089
vn 0.643037 0.000000 0.765835
vn 0.026376 0.999499 -0.017491
vn -0.963328 0.000000 -0.268327
vn -0.963328 0.000000 -0.268327
vn 0.007120 0.999957 -0.005903
vn 0.038475 0.000000 -0.999260
vn -0.963328 0.000000 -0.268327
vn -0.389217 0.000000 -0.921146
vn 0.038475 0.000000 -0.999260
vn 0.038475 0.000000 -0.999260
vn 0.043583 -0.997345 -0.058338
vn -0.022832 0.999207 0.032616
vn -0.075236 -0.996668 -0.031490
vn 0.043036 -0.997442 -0.057065
vn 0.641090 -0.006493 0.767438
vn -0.838308 0.004974 -0.545174
vn -0.838308 0.004974 -0.545174
vn 0.025151 -0.998959 -0.038058
vn 0.999994 0.000552 0.003397
vn 0.999994 0.000552 0.003397
vn 0.999993 -0.000038 0.003698
vn -0.076527 0.996984 -0.012915
vn -0.042500 0.998957 0.016714
vn -0.004581 0.999953 0.008597
vn -0.095655 0.009633 -0.995368
vn 0.999995 0.001051 0.003142
vn -0.694122 -0.007609 0.719817
vn -0.694111 -0.007627 0.719827
vn -0.006177 0.999891 0.013387
vn -0.694111 -0.007627 0.719827
vn 0.018440 -0.999345 -0.031129
vn 0.674825 0.007507 -0.737939
vn -0.694100 -0.007646 0.719838
vn 0.674830 0.007523 -0.737935
vn 0.674834 0.007540 -0.737931
vn 0.041526 0.998412 -0.038071
vn 0.674830 0.007523 -0.737935
vn 0.023822 0.999589 -0.015933
vn 0.018368 0.999765 -0.011518
vn -0.838436 0.004420 -0.544981
vn 0.039378 0.998677 -0.033067
vn 0.641090 -0.006493 0.767438
vn -0.514025 0.008629 -0.857732
vn -0.513728 0.008027 -0.857915
vn 0.640993 -0.006236 0.767521
vn -0.513728 0.008027 -0.857915
vn 0.008467 -0.009423 0.999920
vn 0.008401 -0.009165 0.999923
vn -0.513370 0.007299 -0.858137
vn -0.990363 0.000139 -0.138497
vn 0.008401 -0.009165 0.999923
vn -0.041372 -0.999142 -0.002079
vn -0.004649 -0.999944 -0.009528
vn 0.008345 -0.008946 0.999925
vn 0.641196 -0.006773 0.767347
vn -0.021215 -0.999678 0.013910
vn -0.095205 0.008834 -0.995418
vn -0.095449 0.009267 -0.995391
vn -0.006223 -0.999976 -0.003093
vn -0.990428 0.000648 -0.138027
vn -0.095449 0.009267 -0.995391
vn -0.838189 0.005486 -0.545352
vn -0.990495 0.001170 -0.137544
vn -0.990428 0.000648 -0.138027
vn 0.555083 0.636636 -0.535329
vn 0.635362 -0.603740 -0.481470
vn 0.557513 -0.634938 -0.534821
vn 0.129762 -0.950039 0.283881
vn 0.625590 0.668552 -0.402089
vn -0.181425 -0.968992 0.167749
vn 0.548975 -0.676931 -0.490296
vn 0.627866 -0.666841 -0.401381
vn 0.774566 0.630732 -0.047175
vn 0.788509 0.605331 -0.108754
vn 0.721277 0.671979 -0.167936
vn 0.719903 -0.672982 -0.169805
vn -0.164105 -0.966614 -0.196793
vn -0.993465 -0.001468 0.114126
vn -0.953341 -0.001088 0.301893
vn -0.974001 -0.002004 -0.226536
vn 0.714870 -0.600464 0.358333
vn 0.664611 0.003466 0.747181
vn 0.711741 0.604566 0.357665
vn 0.909478 0.385299 -0.156185
vn -0.179407 0.001043 0.983774
vn 0.032907 -0.965261 0.259208
vn -0.724868 -0.000299 0.688888
vn -0.211611 -0.967497 0.138454
vn 0.776744 -0.628078 -0.046766
vn 0.723541 -0.669758 -0.167068
vn -0.245991 0.967723 0.054774
vn -0.936821 -0.002148 -0.349803
vn 0.252687 -0.602624 -0.756963
vn 0.755341 -0.382091 -0.532416
vn -0.341444 0.000832 0.939902
vn 0.126458 0.951079 0.281880
vn -0.830754 -0.000458 0.556640
vn -0.184840 0.968573 0.166433
vn -0.241621 -0.968763 0.055828
vn 0.791008 -0.602195 -0.108017
vn -0.247945 0.967274 0.053883
vn -0.205480 0.970391 -0.126961
vn 0.250577 0.602744 -0.757569
vn -0.058047 -0.001764 -0.998312
vn 0.632941 0.605548 -0.482387
vn 0.911152 -0.381630 -0.155438
vn 0.546412 0.678783 -0.490599
vn 0.718349 0.674367 -0.170890
vn -0.201339 -0.971420 -0.125721
vn 0.753961 0.384430 -0.532688
vn 0.029813 0.965733 0.257821
vn -0.215455 0.966773 0.137582
vn -0.243871 -0.968244 0.055055
vn -0.168016 0.965726 -0.197847
vn 0.248619 0.579037 -0.776469
vn 0.449444 -0.848253 0.280120
vn 0.395502 -0.573092 -0.717735
vn 0.232154 -0.609994 -0.757636
vn 0.189594 0.627936 -0.754818
vn 0.175878 -0.631650 -0.755040
vn 0.178349 -0.633235 -0.753131
vn -0.059700 -0.961745 0.267360
vn 0.448184 0.635460 -0.628746
vn 0.426781 0.612073 -0.665751
vn 0.357086 -0.638547 -0.681724
vn 0.325359 0.581638 -0.745546
vn -0.410945 -0.908062 -0.080918
vn -0.525102 0.002287 0.851036
vn -0.528065 -0.004901 0.849190
vn -0.853215 -0.008678 0.521487
vn 0.860198 -0.489233 0.143908
vn 0.823717 0.308770 -0.475554
vn 0.905845 -0.012996 0.423411
vn 0.886401 0.447438 0.118712
vn 0.277873 -0.917346 0.285065
vn 0.543679 0.006545 0.839268
vn -0.067298 -0.959923 0.272066
vn -0.206863 -0.001189 0.978369
vn 0.433590 -0.584502 -0.685826
vn 0.448614 -0.622707 -0.641079
vn -0.924086 -0.018276 0.381748
vn -0.124998 0.961929 0.243040
vn -0.174616 -0.314633 -0.933014
vn -0.668896 -0.455132 -0.587736
vn 0.484875 0.841774 0.237305
vn 0.386418 0.002891 0.922319
vn -0.052271 0.960096 0.274742
vn -0.203001 0.003083 0.979174
vn 0.329086 -0.524366 -0.785330
vn -0.134306 -0.961610 0.239308
vn -0.169210 0.957890 0.231981
vn -0.324434 0.942414 0.081233
vn -0.915972 0.007032 -0.401182
vn -0.677150 0.485111 -0.553295
vn 0.433364 0.511230 -0.742185
vn 0.804260 -0.376797 -0.459553
vn 0.177233 0.634915 -0.751978
vn 0.361645 0.637156 -0.680622
vn -0.166789 -0.962242 0.215109
vn -0.179894 0.373055 -0.910202
vn 0.294437 0.918400 0.264289
vn -0.051648 0.960970 0.271788
vn -0.312243 -0.948361 0.055824
vn -0.430679 0.902192 -0.023768
f 42/42/42 2/2/2 3/3/3
f 7/7/7 3/3/3 2/2/2
f 8/8/8 3/3/3 7/7/7
f 26/26/26 8/8/8 7/7/7
f 12/12/12 8/8/8 26/26/26
f 26/26/26 25/25/25 12/12/12
f 36/36/36 25/25/25 26/26/26
f 36/36/36 30/30/30 25/25/25
f 17/17/17 4/4/4 22/22/22
f 6/6/6 22/22/22 4/4/4
f 24/24/24 22/22/22 6/6/6
f 49/49/49 24/24/24 6/6/6
f 35/35/35 24/24/24 49/49/49
f 49/49/49 45/45/45 35/35/35
f 13/13/13 45/45/45 49/49/49
f 13/13/13 29/29/29 45/45/45
f 18/18/18 31/31/31 21/21/21
f 31/31/31 23/23/23 21/21/21
f 33/33/33 23/23/23 31/31/31
f 33/33/33 15/15/15 23/23/23
f 14/14/14 15/15/15 33/33/33
f 14/14/14 16/16/16 15/15/15
f 28/28/28 16/16/16 14/14/14
f 28/28/28 40/40/40 16/16/16
f 19/19/19 47/47/47 32/32/32
f 47/47/47 34/34/34 32/32/32
f 48/48/48 34/34/34 47/47/47
f 48/48/48 37/37/37 34/34/34
f 27/27/27 37/37/37 48/48/48
f 38/38/38 37/37/37 27/27/27
f 50/50/50 37/37/37 38/38/38
f 38/38/38 39/39/39 50/50/50
f 41/41/41 20/20/20 1/1/1
f 1/1/1 43/43/43 41/41/41
f 5/5/5 43/43/43 1/1/1
f 5/5/5 11/11/11 43/43/43
f 44/44/44 11/11/11 5/5/5
f 9/9/9 11/11/11 44/44/44
f 10/10/10 11/11/11 9/9/9
f 46/46/46 10/10/10 9/9/9
f 92/92/92 54/54/54 53/53/53
f 54/54/54 57/57/57 53/53/53
f 56/56/56 57/57/57 54/54/54
f 61/61/61 57/57/57 56/56/56
f 76/76/76 57/57/57 61/61/61
f 75/75/75 76/76/76 61/61/61
f 85/85/85 76/76/76 75/75/75
f 75/75/75 79/79/79 85/85/85
f 67/67/67 71/71/71 52/52/52
f 71/71/71 73/73/73 52/52/52
f 58/58/58 73/73/73 71/71/71
f 86/86/86 73/73/73 58/58/58
f 95/95/95 73/73/73 86/86/86
f 99/99/99 95/95/95 86/86/86
f 63/63/63 95/95/95 99/99/99
f 99/99/99 80/80/80 63/63/63
f 69/69/69 72/72/72 82/82/82
f 84/84/84 82/82/82 72/72/72
f 74/74/74 82/82/82 84/84/84
f 84/84/84 65/65/65 74/74/74
f 64/64/64 65/65/65 84/84/84
f 66/66/66 65/65/65 64/64/64
f 77/77/77 65/65/65 66/66/66
f 66/66/66 89/89/89 77/77/77
f 70/70/70 81/81/81 97/97/97
f 98/98/98 97/97/97 81/81/81
f 83/83/83 97/97/97 98/98/98
f 98/98/98 78/78/78 83/83/83
f 87/87/87 78/78/78 98/98/98
f 87/87/87 88/88/88 78/78/78
f 100/100/100 88/88/88 87/87/87
f 100/100/100 90/90/90 88/88/88
f 51/51/51 68/68/68 91/91/91
f 55/55/55 51/51/51 91/91/91
f 93/93/93 51/51/51 55/55/55
f 55/55/55 94/94/94 93/93/93
f 59/59/59 94/94/94 55/55/55
f 59/59/59 60/60/60 94/94/94
f 62/62/62 60/60/60 59/59/59
f 96/96/96 60/60/60 62/62/62
f 104/104/104 108/108/108 101/101/101
f 121/121/121 108/108/108 104/104/104
f 108/108/108 121/121/121 143/143/143
f 149/149/149 143/143/143 121/121/121
f 149/149/149 146/146/146 143/143/143
f 143/143/143 146/146/146 142/142/142
f 143/143/143 142/142/142 103/103/103
f 109/109/109 110/110/110 111/111/111
f 116/116/116 110/110/110 109/109/109
f 118/118/118 120/120/120 117/117/117
f 123/123/123 120/120/120 118/118/118
f 124/124/124 127/127/127 122/122/122
f 125/125/125 127/127/127 124/124/124
f 128/128/128 131/131/131 126/126/126
f 129/129/129 131/131/131 128/128/128
f 114/114/114 129/129/129 128/128/128
f 114/114/114 119/119/119 129/129/129
f 119/119/119 114/114/114 102/102/102
f 102/102/102 114/114/114 113/113/113
f 114/114/114 112/112/112 113/113/113
f 106/106/106 107/107/107 130/130/130
f 152/152/152 107/107/107 106/106/106
f 105/105/105 132/132/132 145/145/145
f 135/135/135 132/132/132 105/105/105
f 134/134/134 136/136/136 133/133/133
f 139/139/139 136/136/136 134/134/134
f 138/138/138 141/141/141 137/137/137
f 144/144/144 141/141/141 138/138/138
f 148/148/148 151/151/151 147/147/147
f 115/115/115 151/151/151 148/148/148
f 154/154/154 150/150/150 140/140/140
f 153/153/153 150/150/150 154/154/154
f 158/158/158 162/162/162 155/155/155
f 175/175/175 162/162/162 158/158/158
f 162/162/162 175/175/175 197/197/197
f 203/203/203 197/197/197 175/175/175
f 203/203/203 200/200/200 197/197/197
f 197/197/197 200/200/200 196/196/196
f 197/197/197 196/196/196 157/157/157
f 163/163/163 164/164/164 165/165/165
f 170/170/170 164/164/164 163/163/163
f 172/172/172 174/174/174 171/171/171
f 177/177/177 174/174/174 172/172/172
f 178/178/178 181/181/181 176/176/176
f 179/179/179 181/181/181 178/178/178
f 182/182/182 185/185/185 180/180/180
f 183/183/183 185/185/185 182/182/182
f 168/168/168 183/183/183 182/182/182
f 168/168/168 173/173/173 183/183/183
f 173/173/173 168/168/168 156/156/156
f 156/156/156 168/168/168 167/167/167
f 168/168/168 166/166/166 167/167/167
f 160/160/160 161/161/161 184/184/184
f 206/206/206 161/161/161 160/160/160
f 159/159/159 186/186/186 199/199/199
f 189/189/189 186/186/186 159/159/159
f 188/188/188 190/190/190 187/187/187
f 193/193/193 190/190/190 188/188/188
f 192/192/192 195/195/195 191/191/191
f 198/198/198 195/195/195 192/192/192
f 202/202/202 205/205/205 201/201/201
f 169/169/169 205/205/205 202/202/202
f 208/208/208 204/204/204 194/194/194
f 207/207/207 204/204/204 208/208/208
f 250/250/250 210/210/210 211/211/211
f 215/215/215 211/211/211 210/210/210
f 216/216/216 211/211/211 215/215/215
f 234/234/234 216/216/216 215/215/215
f 220/220/220 216/216/216 234/234/234
f 234/234/234 233/233/233 220/220/220
f 244/244/244 233/233/233 234/234/234
f 244/244/244 238/238/238 233/233/233
f 225/225/225 212/212/212 230/230/230
f 214/214/214 230/230/230 212/212/212
f 232/232/232 230/230/230 214/214/214
f 257/257/257 232/232/232 214/214/214
f 243/243/243 232/232/232 257/257/257
f 257/257/257 253/253/253 243/243/243
f 221/221/221 253/253/253 257/257/257
f 221/221/221 237/237/237 253/253/253
f 226/226/226 239/239/239 229/229/229
f 239/239/239 231/231/231 229/229/229
f 241/241/241 231/231/231 239/239/239
f 241/241/241 223/223/223 231/231/231
f 222/222/222 223/223/223 241/241/241
f 222/222/222 224/224/224 223/223/223
f 236/236/236 224/224/224 222/222/222
f 236/236/236 248/248/248 224/224/224
f 227/227/227 255/255/255 240/240/240
f 255/255/255 242/242/242 240/240/240
f 256/256/256 242/242/242 255/255/255
f 256/256/256 245/245/245 242/242/242
f 235/235/235 245/245/245 256/256/256
f 246/246/246 245/245/245 235/235/235
f 258/258/258 245/245/245 246/246/246
f 246/246/246 247/247/247 258/258/258
f 249/249/249 228/228/228 209/209/209
f 209/209/209 251/251/251 249/249/249
f 213/213/213 251/251/251 209/209/209
f 213/213/213 219/219/219 251/251/251
f 252/252/252 219/219/219 213/213/213
f 217/217/217 219/219/219 252/252/252
f 218/218/218 219/219/219 217/217/217
f 254/254/254 218/218/218 217/217/217
f 300/300/300 262/262/262 261/261/261
f 262/262/262 265/265/265 261/261/261
f 264/264/264 265/265/265 262/262/262
f 269/269/269 265/265/265 264/264/264
f 284/284/284 265/265/265 269/269/269
f 283/283/283 284/284/284 269/269/269
f 293/293/293 284/284/284 283/283/283
f 283/283/283 287/287/287 293/293/293
f 275/275/275 279/279/279 260/260/260
f 279/279/279 281/281/281 260/260/260
f 266/266/266 281/281/281 279/279/279
f 294/294/294 281/281/281 266/266/266
f 303/303/303 281/281/281 294/294/294
f 307/307/307 303/303/303 294/294/294
f 271/271/271 303/303/303 307/307/307
f 307/307/307 288/288/288 271/271/271
f 277/277/277 280/280/280 290/290/290
f 292/292/292 290/290/290 280/280/280
f 282/282/282 290/290/290 292/292/292
f 292/292/292 273/273/273 282/282/282
f 272/272/272 273/273/273 292/292/292
f 274/274/274 273/273/273 272/272/272
f 285/285/285 273/273/273 274/274/274
f 274/274/274 297/297/297 285/285/285
f 278/278/278 289/289/289 305/305/305
f 306/306/306 305/305/305 289/289/289
f 291/291/291 305/305/305 306/306/306
f 306/306/306 286/286/286 291/291/291
f 295/295/295 286/286/286 306/306/306
f 295/295/295 296/296/296 286/286/286
f 308/308/308 296/296/296 295/295/295
f 308/308/308 298/298/298 296/296/296
f 259/259/259 276/276/276 299/299/299
f 263/263/263 259/259/259 299/299/299
f 301/301/301 259/259/259 263/263/263
f 263/263/263 302/302/302 301/301/301
f 267/267/267 302/302/302 263/263/263
f 267/267/267 268/268/268 302/302/302
f 270/270/270 268/268/268 267/267/267
f 304/304/304 268/268/268 270/270/270
