# Exported by s4extract — object_Food_GrilledPlantains_lod00_g01
o object_Food_GrilledPlantains_lod00_g01
v 0.093875 0.030152 -0.047060
v 0.095340 0.036409 -0.016114
v 0.074618 0.024934 -0.015900
v -0.021668 0.018067 -0.015625
v -0.039857 0.019013 -0.022004
v -0.049074 0.010987 -0.016236
v -0.030854 0.010071 -0.009857
v -0.044038 0.010743 0.017182
v -0.032228 0.010132 0.009400
v -0.023041 0.018128 0.003662
v 0.007447 0.020905 0.006745
v -0.037538 0.018860 0.013184
v -0.060854 0.011597 -0.008484
v 0.013215 0.011994 0.015381
v 0.000305 0.023011 -0.015503
v -0.044038 0.010743 0.017182
v 0.010651 0.029206 -0.030580
v 0.028138 0.033265 -0.023438
v 0.024934 0.024964 0.013855
v -0.054353 0.019745 -0.012482
v 0.035279 0.031159 -0.001221
v -0.088198 0.026826 -0.046632
v -0.041871 0.019105 -0.002350
v -0.048372 0.010956 0.001648
v -0.037538 0.018860 0.013184
v -0.087680 0.027223 -0.053499
v -0.054353 0.019745 -0.012482
v -0.039857 0.019013 -0.022004
v -0.044038 0.010743 0.017182
v -0.001343 0.012574 0.035188
v -0.082736 0.026826 -0.043428
v -0.085788 0.020875 -0.048311
v 0.035676 0.011841 -0.023377
v 0.054720 0.011841 -0.020173
v -0.059084 0.029115 -0.078555
v -0.053011 0.012574 0.014161
v 0.038484 0.011841 0.014893
v 0.031770 0.020295 -0.030824
v 0.035676 0.011841 -0.023377
v 0.023652 0.020295 -0.013306
v 0.027558 0.011841 -0.005860
v -0.088198 0.026826 -0.046632
v -0.021668 0.018067 -0.015625
v -0.087680 0.027223 -0.053499
v -0.068392 0.034852 -0.058718
v -0.065401 0.027131 -0.050081
v -0.068392 0.034852 -0.058718
v -0.088198 0.026826 -0.046632
v -0.085757 0.031678 -0.048311
v -0.054018 0.031922 -0.053987
v -0.023041 0.018128 0.003662
v -0.041871 0.019105 -0.002350
v -0.085757 0.031678 -0.048311
v -0.069582 0.027772 -0.067385
v 0.030702 0.016053 0.022492
v 0.041017 0.022248 0.007416
v 0.065645 0.011841 0.000580
v 0.033876 0.024354 -0.014801
v 0.065645 0.011841 0.000580
v -0.051180 0.024659 -0.045808
v 0.017151 0.032075 -0.076662
v -0.082736 0.026826 -0.043428
v 0.018586 0.026460 -0.082308
v -0.068422 0.017701 -0.058718
v -0.048372 0.010956 0.001648
v -0.060854 0.011597 -0.008484
v -0.037538 0.018860 0.013184
v -0.030854 0.010071 -0.009857
v 0.016419 0.020295 -0.021943
v 0.050813 0.020295 -0.027589
v -0.021210 0.019807 0.040590
v -0.038697 0.019715 0.025147
v -0.032228 0.010132 0.009400
v -0.049074 0.010987 -0.016236
v 0.061708 0.020295 -0.006867
v 0.065645 0.011841 0.000580
v 0.006073 0.014100 -0.006867
v 0.061708 0.020295 -0.006867
v -0.068422 0.017701 -0.058718
v -0.085788 0.020875 -0.048311
v -0.087680 0.027223 -0.053499
v 0.017151 0.032075 -0.076662
v 0.053591 0.020295 0.010651
v 0.034577 0.020295 0.007447
v 0.057527 0.011841 0.018097
v 0.038484 0.011841 0.014893
v 0.035279 0.031159 -0.001221
v 0.006073 0.014100 -0.006867
v 0.054720 0.011841 -0.020173
v 0.041017 0.022248 0.007416
v -0.056856 0.019959 -0.062166
v 0.013062 0.025391 -0.060854
v -0.068392 0.034852 -0.058718
v -0.054018 0.031922 -0.053987
v 0.030702 0.016053 0.022492
v 0.057527 0.011841 0.018097
v 0.024934 0.024964 0.013855
v 0.061708 0.020295 -0.006867
v 0.000305 0.023011 -0.015503
v 0.010651 0.029206 -0.030580
v 0.013215 0.011994 0.015381
v 0.007447 0.020905 0.006745
v 0.028138 0.033265 -0.023438
v 0.033876 0.024354 -0.014801
v 0.035279 0.031159 -0.001221
v 0.041017 0.022248 0.007416
v 0.023652 0.020295 -0.013306
v 0.016419 0.020295 -0.021943
v 0.034577 0.020295 0.007447
v 0.053591 0.020295 0.010651
v 0.103916 0.021546 -0.004639
v 0.050813 0.020295 -0.027589
v 0.031770 0.020295 -0.030824
v -0.056917 0.010071 -0.062166
v 0.103916 0.021546 -0.004639
v 0.099155 0.026887 -0.001190
v 0.108646 0.027406 -0.007263
v 0.103885 0.031434 -0.004364
v 0.108646 0.027406 -0.007263
v 0.099155 0.026887 -0.001190
v 0.103885 0.031434 -0.004364
v 0.088839 0.036622 -0.039460
v 0.027558 0.011841 -0.005860
v 0.083926 0.010956 -0.032716
v 0.083926 0.010956 -0.032716
v 0.013001 0.004639 -0.060854
v 0.018586 0.026460 -0.082308
v 0.099155 0.026887 -0.001190
v 0.108646 0.027406 -0.007263
v 0.103916 0.021546 -0.004639
v -0.051180 0.024659 -0.045808
v 0.007447 0.022919 -0.039735
v -0.056917 0.010071 -0.062166
v 0.013001 0.004639 -0.060854
v -0.041414 0.019654 0.063723
v 0.083834 0.020569 -0.031861
v 0.079226 0.032380 -0.023896
v 0.095340 0.036409 -0.016114
v 0.009156 0.029542 -0.046144
v -0.057558 0.038331 -0.067232
v -0.069582 0.027772 -0.067385
v -0.057558 0.038331 -0.067232
v 0.017151 0.032075 -0.076662
v -0.068392 0.034852 -0.058718
v 0.093875 0.030152 -0.047060
v 0.074618 0.024934 -0.015900
v 0.095340 0.036409 -0.016114
v 0.088839 0.036622 -0.039460
v 0.083834 0.020569 -0.031861
v 0.079226 0.032380 -0.023896
v 0.007447 0.022919 -0.039735
v -0.059053 0.019532 0.048311
v 0.009156 0.029542 -0.046144
v -0.022279 0.019776 0.059847
v 0.095340 0.036409 -0.016114
v -0.057619 0.019562 0.029023
v -0.059084 0.029115 -0.078555
v -0.030885 0.012574 -0.019776
v 0.019166 0.012574 0.020722
v -0.022279 0.019776 0.059847
v -0.014832 0.011383 0.046113
v -0.015900 0.011353 0.065371
v -0.065401 0.027131 -0.050081
v -0.041414 0.019654 0.063723
v -0.035005 0.011231 0.069246
v -0.052675 0.011109 0.053835
v -0.015900 0.011353 0.065371
v -0.056856 0.019959 -0.062166
v -0.021210 0.019807 0.040590
v -0.051210 0.011139 0.034547
v -0.032289 0.011261 0.030671
v -0.014832 0.011383 0.046113
v -0.038697 0.019715 0.025147
v -0.032289 0.011261 0.030671
v -0.051210 0.011139 0.034547
v -0.057619 0.019562 0.029023
v -0.021210 0.019807 0.040590
v -0.035005 0.011231 0.069246
v -0.059053 0.019532 0.048311
v -0.052675 0.011109 0.053835
v -0.014832 0.011383 0.046113
v 0.005890 0.017853 0.018952
v -0.014313 0.018372 -0.023347
v 0.013794 0.023438 0.002258
v -0.021271 0.018921 0.019257
v -0.046907 0.020234 0.008606
v -0.058107 0.019684 -0.011994
v 0.003693 0.023682 -0.018891
v -0.021271 0.018921 0.019257
v -0.022248 0.012787 -0.006653
v -0.014527 0.024628 0.002106
v -0.043641 0.017853 -0.021912
v -0.022217 0.032197 -0.005127
v -0.025697 0.024110 -0.018494
v -0.014527 0.024628 0.002106
v -0.028962 0.026490 0.012024
v -0.039216 0.012665 0.015839
v -0.039186 0.020631 0.020844
v -0.074587 0.015687 -0.009491
v -0.074648 0.011505 0.009369
v -0.051332 0.025422 -0.029145
v -0.050417 0.012116 -0.004761
v -0.082217 0.022858 -0.012085
v -0.064455 0.029481 -0.015778
v -0.046815 0.027772 0.018250
v -0.046754 0.031953 -0.000610
v -0.056948 0.013977 0.024537
v -0.056825 0.022309 -0.013184
v -0.039125 0.024781 0.001984
v -0.050417 0.012116 -0.004761
v -0.039216 0.012665 0.015839
v -0.046754 0.031953 -0.000610
v -0.046815 0.027772 0.018250
v 0.018586 0.026460 -0.082278
v 0.093875 0.030152 -0.047060
v -0.003601 0.022645 0.058229
v -0.033387 0.031678 -0.025727
v 0.074618 0.028199 -0.015900
v 0.093875 0.030152 -0.047060
v 0.101535 0.024201 -0.002899
v -0.051332 0.025422 -0.029145
v 0.083834 0.043062 -0.031861
v 0.103885 0.031434 -0.004364
v 0.108646 0.027406 -0.007263
v 0.042116 0.019807 0.051149
v 0.101535 0.024201 -0.002899
v 0.101535 0.024201 -0.002899
v -0.022217 0.032197 -0.005127
v -0.033387 0.031678 -0.025727
v -0.043641 0.017853 -0.021912
v -0.025697 0.024110 -0.018494
v -0.014527 0.024628 0.002106
v -0.022217 0.032197 -0.005127
v -0.019349 0.020569 0.006409
v -0.029450 0.020814 -0.014740
v -0.021516 0.026399 -0.031434
v -0.003479 0.031709 -0.027009
v -0.001312 0.025880 0.010865
v -0.012146 0.012543 0.014496
v 0.006592 0.031465 -0.005860
v -0.082247 0.018677 0.006775
v -0.064547 0.021149 0.021943
v 0.044649 0.012513 0.051119
v -0.075167 0.012513 0.063082
v -0.039125 0.024781 0.001984
v 0.013062 0.047884 -0.060854
v 0.007447 0.026185 -0.039735
v 0.013062 0.047884 -0.060854
v -0.046907 0.020234 0.008606
v -0.028962 0.026490 0.012024
v -0.058107 0.019684 -0.011994
v 0.044038 0.011353 0.059328
v -0.080508 0.012513 -0.034120
v 0.082858 0.012513 0.014863
v -0.008515 0.030641 0.048555
v -0.031770 0.011536 0.063387
v 0.108646 0.027406 -0.007263
v -0.036073 0.011780 0.040345
v -0.082247 0.018677 0.006775
v -0.064547 0.021149 0.021943
v -0.056948 0.013977 0.024537
v -0.039186 0.020631 0.020844
v 0.018586 0.026460 -0.082278
v -0.003479 0.031709 -0.027009
v -0.014313 0.018372 -0.023347
v -0.021516 0.026399 -0.031434
v 0.013001 0.004639 -0.060854
v -0.029054 0.025452 0.016572
v -0.040986 0.019776 0.030671
v 0.000000 0.024201 0.060884
v -0.036683 0.019532 0.053713
v -0.074587 0.015687 -0.009491
v -0.046754 0.031953 -0.000610
v -0.056825 0.022309 -0.013184
v -0.064455 0.029481 -0.015778
v 0.079257 0.012513 -0.050081
v 0.103885 0.031434 -0.004364
v -0.039125 0.024781 0.001984
v 0.003693 0.023682 -0.018891
v 0.013794 0.023438 0.002258
v 0.003388 0.015290 0.070711
v 0.017212 0.021577 0.058809
v 0.006592 0.031465 -0.005860
v 0.013794 0.023438 0.002258
v -0.001312 0.025880 0.010865
v 0.005890 0.017853 0.018952
v -0.012146 0.012543 0.014496
v -0.019349 0.020569 0.006409
v -0.022248 0.012787 -0.006653
v -0.029450 0.020814 -0.014740
v -0.020447 0.024964 0.062654
v -0.012818 0.030854 0.025513
v -0.082217 0.022858 -0.012085
v -0.074648 0.011505 0.009369
v 0.006592 0.031465 -0.005860
v 0.083834 0.043062 -0.031861
v 0.006989 0.019593 0.035096
v 0.012177 0.019593 0.057955
v 0.042116 0.019807 0.051149
v 0.108646 0.027406 -0.007263
v 0.013001 0.004639 -0.060854
v -0.056917 0.010071 -0.062166
v -0.068422 0.017701 -0.058718
v -0.059084 0.029115 -0.078555
v -0.068392 0.034852 -0.058718
v -0.051180 0.027894 -0.045808
v -0.069582 0.027772 -0.067385
v -0.056856 0.042451 -0.062166
v -0.068392 0.034852 -0.058718
v -0.059084 0.029115 -0.078555
v -0.065401 0.027131 -0.050081
v 0.074618 0.028199 -0.015900
v -0.051180 0.027894 -0.045808
v -0.056856 0.042451 -0.062166
v -0.003601 0.022645 0.058229
v 0.019349 0.019684 0.020264
v 0.021271 0.011231 0.028443
v 0.083926 0.010956 -0.032716
v -0.015534 0.016968 0.072329
v 0.007447 0.026185 -0.039735
v -0.007904 0.022858 0.035188
v -0.068422 0.017701 -0.058718
v -0.024140 0.017457 0.026246
v -0.056917 0.010071 -0.062166
v -0.065401 0.027131 -0.050081
v 0.012665 0.032594 0.025666
v -0.008515 0.030641 0.048555
v 0.013825 0.030488 0.048982
v 0.012177 0.019593 0.057955
v 0.036897 0.019776 0.028291
v 0.017212 0.021577 0.058809
v 0.016053 0.023713 0.035493
v 0.019349 0.019684 0.020264
v 0.006989 0.019593 0.035096
v 0.036897 0.019776 0.028291
v 0.029725 0.019715 0.065950
v 0.042116 0.019807 0.051149
v 0.014100 0.011139 0.066134
v 0.021271 0.011231 0.028443
v 0.008911 0.011109 0.043275
v 0.044038 0.011353 0.059328
v 0.031648 0.011261 0.074160
v -0.002350 0.028443 0.014252
v 0.038820 0.011322 0.036470
v 0.008911 0.011109 0.043275
v 0.014100 0.011139 0.066134
v 0.038820 0.011322 0.036470
v 0.001038 0.019532 0.024079
v 0.013825 0.030488 0.048982
v -0.015015 0.020020 0.049471
v 0.000000 0.024201 0.060884
v 0.044038 0.011353 0.059328
v 0.029725 0.019715 0.065950
v -0.020447 0.024964 0.062654
v 0.031648 0.011261 0.074160
v -0.015534 0.016968 0.072329
v -0.016205 0.022156 0.026154
v -0.012818 0.013245 0.035981
v -0.036683 0.019532 0.053713
v -0.029054 0.025452 0.016572
v -0.031770 0.011536 0.063387
v -0.008515 0.030641 0.048555
v -0.012818 0.030854 0.025513
v -0.007904 0.022858 0.035188
v -0.015015 0.020020 0.049471
v -0.003601 0.022645 0.058229
v -0.016205 0.022156 0.026154
v -0.040986 0.019776 0.030671
v -0.024140 0.017457 0.026246
v -0.002350 0.028443 0.014252
v -0.036073 0.011780 0.040345
v -0.012818 0.013245 0.035981
v -0.011628 0.011139 0.059297
v 0.001038 0.019532 0.024079
v 0.016053 0.023713 0.035493
v 0.017212 0.021577 0.058809
v 0.003388 0.015290 0.070711
v 0.013825 0.030488 0.048982
v 0.012665 0.032594 0.025666
v -0.011628 0.011139 0.059297
vt 0.421114 0.141609
vt 0.073360 0.094239
vt 0.279671 0.197592
vt 0.974966 0.403266
vt 0.974966 0.306191
vt 0.923714 0.306191
vt 0.923714 0.403266
vt 0.923714 0.597386
vt 0.923714 0.500341
vt 0.974966 0.500341
vt 0.797738 0.024549
vt 0.974966 0.597386
vt 0.923714 0.209146
vt 0.799224 0.236258
vt 0.636462 0.024549
vt 0.923714 0.014996
vt 0.555945 0.130418
vt 0.637129 0.236258
vt 0.879316 0.127962
vt 0.974966 0.209146
vt 0.799224 0.236258
vt 0.284432 0.987020
vt 0.974966 0.112071
vt 0.923714 0.112071
vt 0.974966 0.014996
vt 0.309755 0.993722
vt 0.754857 0.024549
vt 0.636462 0.024549
vt 0.754857 0.024549
vt 0.857239 0.674991
vt 0.267025 0.964002
vt 0.291589 0.972191
vt 0.555945 0.130418
vt 0.637129 0.236258
vt 0.411197 0.881151
vt 0.766077 0.976315
vt 0.923714 0.209146
vt 0.974966 0.403266
vt 0.923714 0.403266
vt 0.974966 0.306191
vt 0.923714 0.306191
vt 0.284432 0.987020
vt 0.555945 0.130418
vt 0.062230 0.993722
vt 0.083853 0.893160
vt 0.038242 0.881151
vt 0.083853 0.893160
vt 0.034693 0.987020
vt 0.042457 0.972191
vt 0.063534 0.824349
vt 0.637129 0.236258
vt 0.722801 0.127962
vt 0.042457 0.972191
vt 0.364555 0.919241
vt 0.879316 0.127962
vt 0.797738 0.024549
vt 0.799224 0.236258
vt 0.636462 0.024549
vt 0.923714 0.014996
vt 0.026050 0.810823
vt 0.210860 0.526391
vt 0.015739 0.964002
vt 0.258624 0.524754
vt 0.329649 0.893160
vt 0.722801 0.127962
vt 0.758465 0.236258
vt 0.758465 0.236258
vt 0.555945 0.130418
vt 0.555945 0.130418
vt 0.974966 0.500341
vt 0.799224 0.236258
vt 0.637129 0.236258
vt 0.636462 0.024549
vt 0.637129 0.236258
vt 0.974966 0.597386
vt 0.923714 0.597386
vt 0.637129 0.236258
vt 0.974966 0.014996
vt 0.329649 0.893160
vt 0.291589 0.972191
vt 0.309755 0.993722
vt 0.210860 0.526391
vt 0.974966 0.112071
vt 0.974966 0.209146
vt 0.923714 0.112071
vt 0.797738 0.024549
vt 0.974966 0.014996
vt 0.923714 0.306191
vt 0.923714 0.500341
vt 0.923714 0.014996
vt 0.101260 0.838026
vt 0.149055 0.528211
vt 0.083853 0.893160
vt 0.063534 0.824349
vt 0.923714 0.112071
vt 0.879316 0.127962
vt 0.974966 0.112071
vt 0.799224 0.236258
vt 0.974966 0.306191
vt 0.974966 0.403266
vt 0.923714 0.209146
vt 0.974966 0.209146
vt 0.974966 0.500341
vt 0.923714 0.500341
vt 0.974966 0.597386
vt 0.923714 0.597386
vt 0.636462 0.024549
vt 0.923714 0.403266
vt 0.797738 0.024549
vt 0.879316 0.127962
vt 0.285312 0.052449
vt 0.637129 0.236258
vt 0.555945 0.130418
vt 0.347723 0.832325
vt 0.285312 0.052449
vt 0.261596 0.064549
vt 0.298837 0.025580
vt 0.035634 0.052449
vt 0.050372 0.025580
vt 0.009826 0.064549
vt 0.035634 0.052449
vt 0.159032 0.192830
vt 0.636462 0.024549
vt 0.351757 0.189161
vt 0.351757 0.189161
vt 0.382296 0.525815
vt 0.490288 0.524754
vt 0.009674 0.040986
vt 0.050372 0.025580
vt 0.022987 0.006292
vt 0.283401 0.808458
vt 0.294288 0.531486
vt 0.347723 0.832325
vt 0.382296 0.525815
vt 0.797738 0.024549
vt 0.112663 0.185976
vt 0.068780 0.188888
vt 0.073360 0.094239
vt 0.076210 0.530546
vt 0.150055 0.805698
vt 0.121821 0.919241
vt 0.150055 0.805698
vt 0.210860 0.526391
vt 0.083853 0.893160
vt 0.183354 0.141609
vt 0.022108 0.197531
vt 0.073360 0.094239
vt 0.159032 0.192830
vt 0.112663 0.185976
vt 0.068780 0.188888
vt 0.022533 0.532184
vt 0.636462 0.024549
vt 0.076210 0.530546
vt 0.879316 0.127962
vt 0.073360 0.094239
vt 0.555945 0.130418
vt 0.172588 0.881151
vt 0.993132 0.999909
vt 0.992647 0.636507
vt 0.974966 0.112071
vt 0.923714 0.014996
vt 0.923714 0.112071
vt 0.287707 0.881151
vt 0.974966 0.209146
vt 0.797738 0.024549
vt 0.636462 0.024549
vt 0.879316 0.127962
vt 0.101260 0.838026
vt 0.974966 0.014996
vt 0.555945 0.130418
vt 0.637129 0.236258
vt 0.799224 0.236258
vt 0.974966 0.500341
vt 0.923714 0.500341
vt 0.923714 0.403266
vt 0.974966 0.403266
vt 0.974966 0.597386
vt 0.923714 0.209146
vt 0.974966 0.306191
vt 0.923714 0.306191
vt 0.923714 0.597386
vt 0.879316 0.127962
vt 0.555945 0.130418
vt 0.797738 0.024549
vt 0.923714 0.112071
vt 0.974966 0.209146
vt 0.974966 0.306191
vt 0.636462 0.024549
vt 0.879316 0.127962
vt 0.637129 0.236258
vt 0.797738 0.024549
vt 0.555945 0.130418
vt 0.974966 0.014996
vt 0.636462 0.024549
vt 0.923714 0.014996
vt 0.974966 0.112071
vt 0.923714 0.209146
vt 0.879316 0.127962
vt 0.555945 0.130418
vt 0.637129 0.236258
vt 0.974966 0.403266
vt 0.923714 0.306191
vt 0.555945 0.130418
vt 0.637129 0.236258
vt 0.879316 0.127962
vt 0.799224 0.236258
vt 0.799224 0.236258
vt 0.636462 0.024549
vt 0.797738 0.024549
vt 0.637129 0.236258
vt 0.799224 0.236258
vt 0.974966 0.014996
vt 0.974966 0.112071
vt 0.490288 0.524754
vt 0.421114 0.141609
vt 0.797738 0.024549
vt 0.637129 0.236258
vt 0.019743 0.195590
vt 0.183354 0.141609
vt 0.009826 0.064549
vt 0.555945 0.130418
vt 0.107902 0.189161
vt 0.035634 0.052449
vt 0.050372 0.025580
vt 0.974966 0.597386
vt 0.273454 0.058484
vt 0.016346 0.023639
vt 0.799224 0.236258
vt 0.974966 0.500341
vt 0.923714 0.403266
vt 0.923714 0.500341
vt 0.923714 0.597386
vt 0.974966 0.597386
vt 0.797738 0.024549
vt 0.636462 0.024549
vt 0.555945 0.130418
vt 0.637129 0.236258
vt 0.879316 0.127962
vt 0.799224 0.236258
vt 0.799224 0.236258
vt 0.636462 0.024549
vt 0.797738 0.024549
vt 0.887292 0.751535
vt 0.887292 0.292847
vt 0.923714 0.014996
vt 0.141139 0.525815
vt 0.018681 0.531789
vt 0.141139 0.525815
vt 0.797738 0.024549
vt 0.879316 0.127962
vt 0.636462 0.024549
vt 0.923714 0.597386
vt 0.519098 0.292847
vt 0.765107 0.904593
vt 0.799224 0.236258
vt 0.799224 0.236258
vt 0.050372 0.025580
vt 0.637129 0.236258
vt 0.974966 0.306191
vt 0.974966 0.209146
vt 0.923714 0.209146
vt 0.923714 0.112071
vt 0.258624 0.524754
vt 0.974966 0.500341
vt 0.923714 0.403266
vt 0.974966 0.403266
vt 0.382296 0.525815
vt 0.555945 0.130418
vt 0.636462 0.024549
vt 0.974966 0.112071
vt 0.797738 0.024549
vt 0.923714 0.403266
vt 0.974966 0.597386
vt 0.923714 0.500341
vt 0.974966 0.500341
vt 0.519098 0.904593
vt 0.035634 0.052449
vt 0.923714 0.597386
vt 0.923714 0.500341
vt 0.923714 0.597386
vt 0.923714 0.112071
vt 0.923714 0.014996
vt 0.974966 0.014996
vt 0.923714 0.014996
vt 0.974966 0.112071
vt 0.923714 0.112071
vt 0.923714 0.209146
vt 0.974966 0.209146
vt 0.923714 0.306191
vt 0.974966 0.306191
vt 0.879316 0.127962
vt 0.637129 0.236258
vt 0.974966 0.403266
vt 0.923714 0.306191
vt 0.974966 0.597386
vt 0.107902 0.189161
vt 0.974966 0.306191
vt 0.974966 0.209146
vt 0.974966 0.014996
vt 0.298837 0.025580
vt 0.382296 0.525815
vt 0.347723 0.832325
vt 0.329649 0.893160
vt 0.411197 0.881151
vt 0.083853 0.893160
vt 0.272180 0.813371
vt 0.121821 0.919241
vt 0.103504 0.832325
vt 0.083853 0.893160
vt 0.172588 0.881151
vt 0.038242 0.881151
vt 0.270725 0.195590
vt 0.021350 0.813371
vt 0.103504 0.832325
vt 0.923714 0.014996
vt 0.974966 0.403266
vt 0.923714 0.403266
vt 0.351757 0.189161
vt 0.879316 0.127962
vt 0.272969 0.531789
vt 0.636462 0.024549
vt 0.329649 0.893160
vt 0.555945 0.130418
vt 0.347723 0.832325
vt 0.287707 0.881151
vt 0.974966 0.500341
vt 0.974966 0.014996
vt 0.974966 0.597386
vt 0.797738 0.024549
vt 0.974966 0.500341
vt 0.923714 0.597386
vt 0.923714 0.500341
vt 0.555945 0.130418
vt 0.636462 0.024549
vt 0.637129 0.236258
vt 0.879316 0.127962
vt 0.799224 0.236258
vt 0.797738 0.024549
vt 0.555945 0.130418
vt 0.636462 0.024549
vt 0.799224 0.236258
vt 0.879316 0.127962
vt 0.974966 0.403266
vt 0.637129 0.236258
vt 0.923714 0.306191
vt 0.923714 0.209146
vt 0.923714 0.500341
vt 0.923714 0.403266
vt 0.974966 0.014996
vt 0.974966 0.209146
vt 0.879316 0.127962
vt 0.923714 0.014996
vt 0.974966 0.112071
vt 0.974966 0.112071
vt 0.923714 0.112071
vt 0.923714 0.112071
vt 0.974966 0.306191
vt 0.923714 0.306191
vt 0.974966 0.209146
vt 0.974966 0.403266
vt 0.923714 0.209146
vt 0.974966 0.597386
vt 0.974966 0.500341
vt 0.923714 0.500341
vt 0.797738 0.024549
vt 0.923714 0.597386
vt 0.636462 0.024549
vt 0.974966 0.306191
vt 0.923714 0.403266
vt 0.555945 0.130418
vt 0.923714 0.306191
vt 0.637129 0.236258
vt 0.799224 0.236258
vt 0.555945 0.130418
vt 0.636462 0.024549
vt 0.797738 0.024549
vt 0.879316 0.127962
vt 0.799224 0.236258
vt 0.637129 0.236258
vt 0.923714 0.209146
vn 0.478741 -0.671099 -0.566068
vn 0.219662 0.602949 -0.766943
vn -0.222147 -0.798140 0.560021
vn 0.483780 -0.804450 -0.344699
vn 0.020030 -0.599062 -0.800452
vn -0.238348 -0.371607 -0.897273
vn 0.483723 -0.804264 -0.345212
vn 0.548976 -0.028193 0.835363
vn 0.715453 -0.420969 0.557594
vn 0.722678 -0.636032 0.270554
vn -0.292164 0.938767 0.182636
vn 0.548291 -0.028796 0.835792
vn -0.773759 0.632699 0.031449
vn 0.292164 -0.938767 -0.182636
vn -0.293167 0.938285 0.183509
vn -0.711136 0.671697 0.207629
vn -0.293246 0.938198 0.183825
vn -0.293308 0.938216 0.183631
vn -0.293237 0.938251 0.183570
vn -0.788054 0.614918 -0.029102
vn -0.294276 0.937941 0.183487
vn -0.461701 -0.409048 0.787091
vn -0.599940 0.683011 0.416616
vn -0.599731 0.683358 0.416346
vn -0.711490 0.671088 0.208379
vn -0.931650 -0.351850 -0.090720
vn 0.050827 0.998707 0.000557
vn 0.051345 0.998681 0.000610
vn -0.051242 -0.998686 0.000561
vn 0.000000 1.000000 0.000000
vn 0.120298 -0.665852 0.736321
vn 0.115437 -0.718981 0.685376
vn 0.000000 -1.000000 0.000000
vn 0.000000 -1.000000 0.000000
vn -0.089113 -0.675716 -0.731756
vn 0.000000 1.000000 0.000000
vn -0.425627 0.479259 0.767563
vn -0.329972 -0.705230 -0.627510
vn -0.330433 -0.704831 -0.627716
vn -0.874669 -0.477517 -0.083256
vn -0.944802 -0.242942 0.219835
vn -0.931650 -0.351850 -0.090720
vn 0.051673 0.998664 0.000582
vn -0.482768 0.727862 -0.486982
vn 0.108854 0.759520 0.641311
vn 0.093411 0.757051 0.646644
vn 0.550541 0.241396 0.799145
vn -0.759502 0.518173 0.393260
vn -0.432070 0.757067 -0.490067
vn -0.061769 0.735213 0.675016
vn 0.051517 0.998672 0.000872
vn 0.051431 0.998676 0.000741
vn 0.086905 0.779606 0.620211
vn -0.529802 -0.587277 -0.611895
vn 0.293501 -0.938153 -0.183646
vn 0.294807 -0.937745 -0.183639
vn 0.000000 -1.000000 0.000000
vn 0.293837 -0.938021 -0.183783
vn 0.710943 0.621301 0.329462
vn -0.056764 0.722323 0.689222
vn 0.111061 0.769343 -0.629108
vn 0.091933 0.734177 0.672705
vn 0.135381 0.719477 -0.681194
vn 0.088246 -0.687994 0.720331
vn -0.050869 -0.998705 0.000122
vn -0.051535 -0.998671 0.000318
vn 0.051358 0.998679 0.001368
vn -0.050519 -0.998723 -0.000093
vn 0.293510 -0.938100 -0.183900
vn 0.425935 -0.478093 -0.768119
vn -0.006325 0.999979 0.001234
vn -0.007234 0.999972 0.001664
vn -0.050952 -0.998701 -0.000045
vn -0.050786 -0.998710 0.000289
vn 0.884988 0.001244 -0.465612
vn 0.884860 0.001729 -0.465853
vn 0.293167 -0.938285 -0.183509
vn 0.710943 0.621301 0.329462
vn -0.499733 -0.606422 -0.618482
vn -0.478664 -0.636749 -0.604510
vn -0.475166 -0.617379 -0.626945
vn -0.221935 0.809698 0.543262
vn 0.330360 0.705896 0.626557
vn -0.715557 0.245445 0.654014
vn 0.330246 0.705829 0.626692
vn 0.000000 -1.000000 0.000000
vn 0.348611 0.758314 0.550844
vn -0.817556 -0.573989 -0.046243
vn 0.715791 -0.242987 -0.654675
vn 0.348534 0.758569 0.550543
vn 0.008652 0.959102 -0.282929
vn -0.020962 0.996792 0.077242
vn 0.360844 0.466504 -0.807568
vn 0.171029 0.528094 -0.831785
vn -0.041867 0.681238 0.730864
vn 0.000000 -1.000000 0.000000
vn -0.041870 0.681064 0.731026
vn 0.000000 1.000000 0.000000
vn -0.591039 -0.725093 -0.353431
vn 0.042487 -0.681009 -0.731041
vn -0.652502 0.265529 0.709743
vn -0.850834 -0.043195 0.523656
vn 0.652901 -0.266290 -0.709091
vn 0.851014 0.040470 -0.523581
vn 0.906798 0.331823 -0.260021
vn 0.906798 0.331823 -0.260021
vn 0.000000 1.000000 0.000000
vn 0.042503 -0.681214 -0.730849
vn 0.000000 1.000000 0.000000
vn 0.000000 1.000000 0.000000
vn 0.698482 -0.672936 -0.243475
vn 0.000000 1.000000 0.000000
vn 0.000000 1.000000 0.000000
vn -0.161235 -0.654268 -0.738875
vn -0.298986 -0.785749 0.541486
vn -0.325235 -0.700268 0.635489
vn 0.722038 -0.624570 -0.297611
vn 0.604290 0.789802 -0.105100
vn 0.627255 0.760061 -0.169880
vn -0.384682 0.730418 0.564367
vn 0.127344 0.453272 0.882229
vn -0.550171 0.491210 0.675296
vn 0.000000 -1.000000 0.000000
vn -0.195705 -0.788191 0.583484
vn 0.424535 -0.691470 -0.584499
vn 0.085491 -0.698669 -0.710319
vn 0.197942 -0.702235 -0.683875
vn 0.570913 -0.021036 0.820741
vn 0.506104 -0.022387 0.862182
vn 0.539692 -0.021712 0.841583
vn -0.101716 -0.742213 0.662399
vn -0.150639 -0.778181 0.609706
vn -0.119902 -0.714122 0.689676
vn -0.118702 -0.757290 0.642200
vn -0.006481 0.999979 -0.000503
vn 0.111776 0.962091 -0.248770
vn 0.219255 0.602896 -0.767101
vn -0.884471 0.394051 0.249870
vn 0.116870 0.830815 -0.544139
vn -0.158475 0.776063 -0.610419
vn -0.523196 0.693852 -0.494809
vn 0.206137 0.267429 0.941270
vn 0.142717 0.268169 0.952742
vn -0.476446 0.720223 -0.504260
vn 0.388666 0.792410 -0.470133
vn -0.287079 0.746735 0.599978
vn 0.637236 0.751194 -0.172156
vn 0.325453 0.815469 -0.478633
vn -0.550171 0.491210 0.675296
vn -0.261483 0.776872 0.572797
vn -0.164915 0.707547 0.687154
vn -0.006809 0.999977 0.000541
vn -0.155898 0.737780 0.656793
vn -0.007020 0.999975 0.001099
vn -0.395866 0.743006 0.539660
vn -0.007325 0.999972 0.001468
vn -0.074330 0.757149 -0.649000
vn 0.000000 1.000000 0.000000
vn 0.000000 1.000000 0.000000
vn 0.529926 0.707788 0.467134
vn 0.782214 0.621428 0.044372
vn 0.530161 0.707710 0.466985
vn -0.027888 -0.692656 0.720729
vn -0.431687 0.242247 0.868886
vn 0.006488 -0.999979 0.000482
vn 0.006809 -0.999977 -0.000541
vn 0.006859 -0.999976 -0.000583
vn 0.206137 0.267429 0.941270
vn 0.782214 0.621428 0.044372
vn 0.006673 -0.999977 -0.000714
vn 0.006910 -0.999976 -0.000625
vn 0.008002 -0.999967 -0.001141
vn 0.124562 -0.475481 -0.870863
vn 0.436297 -0.237265 -0.867958
vn -0.527489 -0.707927 -0.469675
vn -0.527209 -0.708645 -0.468907
vn 0.662169 0.011235 -0.749271
vn -0.122348 0.477343 0.870158
vn -0.842089 -0.487616 0.230469
vn -0.801431 -0.252097 0.542361
vn 0.662496 0.010486 -0.748992
vn 0.316076 -0.934764 -0.162209
vn 0.315989 -0.934762 -0.162392
vn 0.317303 -0.934326 -0.162340
vn 0.043692 0.713080 0.699720
vn -0.730393 -0.095908 0.676261
vn -0.598124 -0.780705 -0.180961
vn 0.316342 -0.934652 -0.162335
vn 0.352976 -0.920449 -0.167872
vn 0.315811 -0.934876 -0.162084
vn 0.352286 -0.920722 -0.167829
vn 0.353185 -0.920340 -0.168030
vn 0.397932 0.812137 0.426713
vn 0.352690 -0.920562 -0.167854
vn 0.397932 0.812137 0.426713
vn 0.043692 0.713080 0.699720
vn -0.536785 0.230249 0.811694
vn 0.305090 -0.930118 -0.204451
vn 0.305090 -0.930118 -0.204451
vn 0.305626 -0.929793 -0.205130
vn -0.043087 -0.712787 -0.700056
vn -0.762972 -0.627719 0.154408
vn -0.304808 0.930075 0.205066
vn -0.304785 0.930161 0.204713
vn -0.304961 0.930054 0.204935
vn -0.305626 0.929793 0.205130
vn 0.305626 -0.929793 -0.205130
vn 0.304553 -0.930443 -0.203772
vn 0.304553 -0.930443 -0.203772
vn 0.353261 -0.920337 -0.167890
vn 0.352826 -0.920614 -0.167283
vn 0.644405 0.746117 0.167487
vn 0.403239 0.659707 0.634181
vn 0.198033 -0.701886 -0.684207
vn 0.478624 -0.671106 -0.566158
vn 0.354817 -0.931931 -0.074904
vn -0.352690 0.920562 0.167854
vn -0.268392 0.744497 0.611302
vn 0.340287 0.770067 -0.539631
vn -0.378324 0.300257 0.875624
vn -0.353185 0.920340 0.168030
vn 0.428289 0.813572 -0.393281
vn 0.603802 0.790026 -0.106213
vn 0.642566 0.746431 -0.173061
vn 0.974893 0.006378 -0.222581
vn -0.139531 -0.871755 0.469653
vn 0.522049 0.003130 0.852910
vn -0.352286 0.920722 0.167829
vn 0.536915 -0.230080 -0.811656
vn -0.043087 -0.712787 -0.700056
vn 0.730810 0.096898 -0.675669
vn 0.804810 0.391342 -0.446242
vn 0.804810 0.391342 -0.446242
vn -0.315200 0.935209 0.161346
vn -0.315811 0.934876 0.162084
vn -0.315587 0.934930 0.162202
vn -0.315863 0.934880 0.161957
vn -0.315837 0.934878 0.162020
vn 0.315200 -0.935209 -0.161346
vn -0.317475 0.934332 0.161965
vn -0.305137 0.929947 0.205158
vn -0.304905 0.930230 0.204217
vn 0.000000 1.000000 0.000000
vn 0.000000 1.000000 0.000000
vn 0.643717 0.746811 0.167034
vn 0.130339 0.755328 -0.642255
vn -0.174483 0.729748 0.661078
vn -0.128763 0.716277 0.685833
vn -0.352826 0.920614 0.167283
vn -0.352976 0.920449 0.167872
vn -0.353261 0.920337 0.167890
vn 0.974893 0.006378 -0.222581
vn 0.000000 1.000000 0.000000
vn 0.000000 1.000000 0.000000
vn -0.354817 0.931931 0.074904
vn 0.353745 -0.932254 -0.075942
vn 0.522049 0.003130 0.852910
vn 0.353745 -0.932254 -0.075942
vn -0.705224 -0.691223 0.157701
vn -0.423148 -0.123702 0.897576
vn -0.187490 0.152980 0.970281
vn 0.402337 0.660225 0.634215
vn 0.135732 0.717843 -0.682846
vn 0.567219 -0.276168 -0.775883
vn -0.024526 -0.720988 -0.692513
vn -0.025013 -0.720607 -0.692893
vn 0.085618 -0.698314 -0.710653
vn -0.352895 0.932589 0.075787
vn -0.353745 0.932254 0.075942
vn -0.233873 0.678964 0.695925
vn -0.353745 0.932254 0.075942
vn -0.404056 -0.658643 -0.634766
vn 0.580317 0.351672 -0.734546
vn 0.422659 0.124962 -0.897632
vn 0.186863 -0.152247 -0.970517
vn 0.000000 1.000000 0.000000
vn -0.296224 0.670379 0.680326
vn 0.580317 0.351672 -0.734546
vn 0.771270 0.048444 -0.634662
vn 0.845389 0.354345 -0.399696
vn -0.233858 0.678755 0.696133
vn 0.190788 0.758997 0.622514
vn 0.387114 0.803958 0.451436
vn 0.387289 0.803653 0.451829
vn 0.024532 0.720637 0.692878
vn 0.024452 0.720371 0.693158
vn -0.567202 0.273703 0.776768
vn -0.770468 -0.051113 0.635426
vn -0.789208 -0.605633 0.101780
vn -0.602272 -0.766203 -0.224057
vn -0.353357 0.932424 0.075665
vn -0.352969 0.932593 0.075389
vn -0.403892 -0.659125 -0.634370
vn -0.679410 -0.540321 0.496442
vn 0.845891 0.353553 -0.399334
vn -0.240234 0.744465 0.622944
vn -0.820473 -0.482456 -0.306691
vn -0.862488 0.236651 0.447337
vn 0.597539 0.623590 0.504065
vn 0.683578 -0.698208 -0.212667
vn -0.129300 -0.698411 0.703920
vn -0.161235 -0.654268 -0.738875
vn -0.499733 -0.606422 -0.618482
vn -0.088975 -0.675455 -0.732013
vn -0.476152 0.720328 -0.504387
vn -0.089455 -0.682565 0.725330
vn -0.530607 0.690923 -0.491000
vn -0.178576 0.774854 -0.606392
vn 0.035969 0.751191 0.659104
vn -0.065739 0.739001 -0.670490
vn -0.036578 0.737914 0.673902
vn -0.257786 -0.742313 0.618480
vn -0.076074 0.715252 0.694714
vn -0.110180 0.723075 0.681926
vn 0.251952 0.804892 0.537279
vn -0.153274 -0.704903 -0.692545
vn -0.153481 -0.704582 -0.692825
vn 0.158196 -0.987402 -0.003496
vn 0.353357 -0.932424 -0.075665
vn -0.171203 -0.720121 0.672395
vn 0.352969 -0.932593 -0.075389
vn 0.088246 -0.687994 0.720331
vn 0.352895 -0.932589 -0.075787
vn -0.094482 -0.656426 0.748451
vn 0.016551 -0.677304 0.735517
vn 0.815752 -0.259936 -0.516703
vn 0.251952 0.804892 0.537279
vn 0.940095 0.340547 -0.015780
vn -0.007759 0.999968 0.001761
vn 0.613258 -0.472751 -0.632788
vn 0.940218 0.340216 -0.015593
vn 0.957149 0.048801 -0.285456
vn -0.005966 0.999982 0.000687
vn -0.006887 0.999976 0.001119
vn -0.006008 0.999982 0.000477
vn -0.006447 0.999979 0.000797
vn -0.007059 0.999975 0.000276
vn 0.007081 -0.999975 -0.000272
vn 0.006936 -0.999976 -0.000907
vn 0.007955 -0.999968 -0.000915
vn 0.007058 -0.999975 -0.000276
vn 0.006981 -0.999975 -0.000696
vn 0.233640 -0.678834 -0.696129
vn 0.006008 -0.999982 -0.000476
vn -0.967565 -0.250533 -0.032421
vn -0.613457 0.473193 0.632264
vn 0.861843 -0.237536 -0.448110
vn 0.233654 -0.679043 -0.695921
vn 0.190788 0.758997 0.622514
vn -0.956924 -0.047677 0.286397
vn -0.337276 0.935850 0.102129
vn 0.597542 0.624003 0.503551
vn 0.152299 0.705526 0.692126
vn -0.159975 0.719448 0.675872
vn 0.152156 0.706152 0.691518
vn -0.159975 0.719448 0.675872
vn -0.476232 -0.726809 -0.494927
vn -0.775113 -0.577562 -0.256167
vn -0.908100 -0.055909 0.415003
vn 0.159319 -0.719706 -0.675752
vn -0.749993 0.269814 0.603912
vn 0.917492 0.360531 -0.168004
vn 0.749886 -0.269961 -0.603980
vn 0.908092 0.055874 -0.415027
vn -0.338704 0.935241 0.102979
vn 0.917492 0.360531 -0.168004
vn -0.337542 0.935723 0.102409
vn -0.519048 -0.769406 -0.372295
vn 0.159319 -0.719706 -0.675752
vn -0.336681 0.936065 0.102119
vn -0.784912 -0.610486 -0.105920
vn 0.336688 -0.936077 -0.101989
vn 0.336139 -0.936303 -0.101720
vn 0.337556 -0.935748 -0.102134
vn 0.337865 -0.935622 -0.102269
vn 0.337292 -0.935801 -0.102517
vn 0.337276 -0.935850 -0.102129
vn -0.338228 0.935594 0.101320
vn -0.337010 0.935976 0.101850
vn -0.815444 0.260357 0.516977
f 26/26/26 32/32/32 42/42/42
f 8/8/8 9/9/9 12/12/12
f 12/12/12 9/9/9 10/10/10
f 9/9/9 7/7/7 10/10/10
f 10/10/10 7/7/7 4/4/4
f 7/7/7 5/5/5 4/4/4
f 6/6/6 5/5/5 7/7/7
f 6/6/6 20/20/20 5/5/5
f 13/13/13 20/20/20 6/6/6
f 13/13/13 24/24/24 20/20/20
f 20/20/20 24/24/24 23/23/23
f 24/24/24 25/25/25 23/23/23
f 16/16/16 25/25/25 24/24/24
f 15/15/15 11/11/11 19/19/19
f 17/17/17 15/15/15 19/19/19
f 18/18/18 17/17/17 19/19/19
f 21/21/21 18/18/18 19/19/19
f 14/14/14 77/77/77 55/55/55
f 77/77/77 69/69/69 55/55/55
f 69/69/69 58/58/58 55/55/55
f 58/58/58 56/56/56 55/55/55
f 32/32/32 31/31/31 22/22/22
f 32/32/32 163/163/163 31/31/31
f 64/64/64 163/163/163 32/32/32
f 133/133/133 163/163/163 64/64/64
f 131/131/131 163/163/163 133/133/133
f 133/133/133 134/134/134 131/131/131
f 131/131/131 134/134/134 132/132/132
f 134/134/134 124/124/124 132/132/132
f 132/132/132 124/124/124 3/3/3
f 124/124/124 115/115/115 3/3/3
f 3/3/3 115/115/115 116/116/116
f 44/44/44 48/48/48 53/53/53
f 53/53/53 48/48/48 62/62/62
f 46/46/46 53/53/53 62/62/62
f 45/45/45 53/53/53 46/46/46
f 45/45/45 46/46/46 50/50/50
f 50/50/50 46/46/46 60/60/60
f 50/50/50 60/60/60 153/153/153
f 153/153/153 60/60/60 151/151/151
f 146/146/146 153/153/153 151/151/151
f 150/150/150 153/153/153 146/146/146
f 146/146/146 155/155/155 150/150/150
f 146/146/146 120/120/120 155/155/155
f 155/155/155 120/120/120 121/121/121
f 28/28/28 27/27/27 52/52/52
f 43/43/43 28/28/28 52/52/52
f 51/51/51 43/43/43 52/52/52
f 67/67/67 51/51/51 52/52/52
f 73/73/73 29/29/29 65/65/65
f 68/68/68 73/73/73 65/65/65
f 74/74/74 68/68/68 65/65/65
f 66/66/66 74/74/74 65/65/65
f 34/34/34 57/57/57 96/96/96
f 33/33/33 34/34/34 96/96/96
f 123/123/123 33/33/33 96/96/96
f 86/86/86 123/123/123 96/96/96
f 83/83/83 59/59/59 78/78/78
f 85/85/85 59/59/59 83/83/83
f 85/85/85 83/83/83 37/37/37
f 37/37/37 83/83/83 84/84/84
f 37/37/37 84/84/84 41/41/41
f 41/41/41 84/84/84 40/40/40
f 41/41/41 40/40/40 39/39/39
f 39/39/39 40/40/40 38/38/38
f 70/70/70 39/39/39 38/38/38
f 89/89/89 39/39/39 70/70/70
f 75/75/75 89/89/89 70/70/70
f 76/76/76 89/89/89 75/75/75
f 30/30/30 158/158/158 36/36/36
f 158/158/158 30/30/30 159/159/159
f 97/97/97 90/90/90 87/87/87
f 95/95/95 90/90/90 97/97/97
f 95/95/95 97/97/97 101/101/101
f 101/101/101 97/97/97 102/102/102
f 101/101/101 102/102/102 88/88/88
f 88/88/88 102/102/102 99/99/99
f 88/88/88 99/99/99 108/108/108
f 108/108/108 99/99/99 100/100/100
f 103/103/103 108/108/108 100/100/100
f 104/104/104 108/108/108 103/103/103
f 105/105/105 104/104/104 103/103/103
f 106/106/106 104/104/104 105/105/105
f 98/98/98 112/112/112 110/110/110
f 112/112/112 113/113/113 110/110/110
f 113/113/113 107/107/107 110/110/110
f 107/107/107 109/109/109 110/110/110
f 125/125/125 117/117/117 111/111/111
f 1/1/1 117/117/117 125/125/125
f 125/125/125 127/127/127 1/1/1
f 126/126/126 127/127/127 125/125/125
f 126/126/126 35/35/35 127/127/127
f 114/114/114 35/35/35 126/126/126
f 35/35/35 114/114/114 54/54/54
f 54/54/54 114/114/114 79/79/79
f 54/54/54 79/79/79 81/81/81
f 81/81/81 79/79/79 80/80/80
f 137/137/137 2/2/2 136/136/136
f 136/136/136 139/139/139 137/137/137
f 139/139/139 136/136/136 92/92/92
f 91/91/91 139/139/139 92/92/92
f 139/139/139 91/91/91 94/94/94
f 93/93/93 94/94/94 91/91/91
f 136/136/136 82/82/82 92/92/92
f 82/82/82 91/91/91 92/92/92
f 130/130/130 121/121/121 128/128/128
f 129/129/129 121/121/121 130/130/130
f 152/152/152 135/135/135 154/154/154
f 156/156/156 152/152/152 154/154/154
f 72/72/72 156/156/156 154/154/154
f 71/71/71 72/72/72 154/154/154
f 138/138/138 122/122/122 149/149/149
f 82/82/82 149/149/149 122/122/122
f 119/119/119 147/147/147 118/118/118
f 145/145/145 147/147/147 119/119/119
f 147/147/147 145/145/145 148/148/148
f 148/148/148 145/145/145 61/61/61
f 61/61/61 145/145/145 63/63/63
f 157/157/157 61/61/61 63/63/63
f 140/140/140 61/61/61 157/157/157
f 141/141/141 140/140/140 157/157/157
f 144/144/144 140/140/140 141/141/141
f 141/141/141 44/44/44 144/144/144
f 144/144/144 44/44/44 49/49/49
f 142/142/142 47/47/47 168/168/168
f 168/168/168 143/143/143 142/142/142
f 165/165/165 166/166/166 167/167/167
f 166/166/166 170/170/170 167/167/167
f 170/170/170 171/171/171 167/167/167
f 171/171/171 172/172/172 167/167/167
f 160/160/160 161/161/161 169/169/169
f 162/162/162 161/161/161 160/160/160
f 162/162/162 160/160/160 178/178/178
f 178/178/178 160/160/160 164/164/164
f 178/178/178 164/164/164 180/180/180
f 180/180/180 164/164/164 179/179/179
f 180/180/180 179/179/179 175/175/175
f 175/175/175 179/179/179 176/176/176
f 173/173/173 175/175/175 176/176/176
f 174/174/174 175/175/175 173/173/173
f 177/177/177 174/174/174 173/173/173
f 181/181/181 174/174/174 177/177/177
f 26/26/26 32/32/32 42/42/42
f 227/227/227 257/257/257 277/277/277
f 194/194/194 191/191/191 189/189/189
f 192/192/192 194/194/194 189/189/189
f 210/210/210 192/192/192 189/189/189
f 211/211/211 210/210/210 189/189/189
f 196/196/196 195/195/195 193/193/193
f 185/185/185 195/195/195 196/196/196
f 185/185/185 196/196/196 197/197/197
f 197/197/197 196/196/196 186/186/186
f 197/197/197 186/186/186 202/202/202
f 202/202/202 186/186/186 187/187/187
f 202/202/202 187/187/187 230/230/230
f 230/230/230 187/187/187 201/201/201
f 229/229/229 230/230/230 201/201/201
f 231/231/231 230/230/230 229/229/229
f 233/233/233 231/231/231 229/229/229
f 232/232/232 231/231/231 233/233/233
f 235/235/235 234/234/234 238/238/238
f 236/236/236 235/235/235 238/238/238
f 237/237/237 236/236/236 238/238/238
f 240/240/240 237/237/237 238/238/238
f 239/239/239 190/190/190 182/182/182
f 190/190/190 183/183/183 182/182/182
f 183/183/183 188/188/188 182/182/182
f 188/188/188 184/184/184 182/182/182
f 228/228/228 217/217/217 250/250/250
f 217/217/217 221/221/221 250/250/250
f 221/221/221 251/251/251 250/250/250
f 251/251/251 249/249/249 250/250/250
f 243/243/243 253/253/253 244/244/244
f 254/254/254 253/253/253 243/243/243
f 253/253/253 254/254/254 276/276/276
f 241/241/241 242/242/242 205/205/205
f 203/203/203 241/241/241 205/205/205
f 204/204/204 203/203/203 205/205/205
f 206/206/206 204/204/204 205/205/205
f 207/207/207 200/200/200 198/198/198
f 200/200/200 199/199/199 198/198/198
f 199/199/199 208/208/208 198/198/198
f 208/208/208 209/209/209 198/198/198
f 213/213/213 245/245/245 212/212/212
f 262/262/262 245/245/245 213/213/213
f 262/262/262 213/213/213 261/261/261
f 261/261/261 213/213/213 260/260/260
f 261/261/261 260/260/260 294/294/294
f 294/294/294 260/260/260 259/259/259
f 294/294/294 259/259/259 272/272/272
f 272/272/272 259/259/259 293/293/293
f 275/275/275 272/272/272 293/293/293
f 274/274/274 272/272/272 275/275/275
f 273/273/273 274/274/274 275/275/275
f 278/278/278 274/274/274 273/273/273
f 285/285/285 284/284/284 283/283/283
f 286/286/286 284/284/284 285/285/285
f 286/286/286 285/285/285 287/287/287
f 287/287/287 285/285/285 288/288/288
f 287/287/287 288/288/288 289/289/289
f 289/289/289 288/288/288 290/290/290
f 289/289/289 290/290/290 265/265/265
f 265/265/265 290/290/290 266/266/266
f 264/264/264 265/265/265 266/266/266
f 279/279/279 265/265/265 264/264/264
f 295/295/295 279/279/279 264/264/264
f 280/280/280 279/279/279 295/295/295
f 83/83/83 59/59/59 78/78/78
f 85/85/85 59/59/59 83/83/83
f 85/85/85 83/83/83 37/37/37
f 37/37/37 83/83/83 84/84/84
f 37/37/37 84/84/84 41/41/41
f 41/41/41 84/84/84 40/40/40
f 41/41/41 40/40/40 39/39/39
f 39/39/39 40/40/40 38/38/38
f 70/70/70 39/39/39 38/38/38
f 89/89/89 39/39/39 70/70/70
f 75/75/75 89/89/89 70/70/70
f 76/76/76 89/89/89 75/75/75
f 106/106/106 104/104/104 105/105/105
f 105/105/105 104/104/104 103/103/103
f 104/104/104 108/108/108 103/103/103
f 103/103/103 108/108/108 100/100/100
f 108/108/108 99/99/99 100/100/100
f 88/88/88 99/99/99 108/108/108
f 88/88/88 102/102/102 99/99/99
f 101/101/101 102/102/102 88/88/88
f 101/101/101 97/97/97 102/102/102
f 95/95/95 97/97/97 101/101/101
f 95/95/95 90/90/90 97/97/97
f 97/97/97 90/90/90 87/87/87
f 107/107/107 109/109/109 110/110/110
f 113/113/113 107/107/107 110/110/110
f 112/112/112 113/113/113 110/110/110
f 98/98/98 112/112/112 110/110/110
f 86/86/86 123/123/123 96/96/96
f 123/123/123 33/33/33 96/96/96
f 33/33/33 34/34/34 96/96/96
f 34/34/34 57/57/57 96/96/96
f 15/15/15 11/11/11 19/19/19
f 17/17/17 15/15/15 19/19/19
f 18/18/18 17/17/17 19/19/19
f 21/21/21 18/18/18 19/19/19
f 14/14/14 77/77/77 55/55/55
f 77/77/77 69/69/69 55/55/55
f 69/69/69 58/58/58 55/55/55
f 58/58/58 56/56/56 55/55/55
f 252/252/252 347/347/347 225/225/225
f 225/225/225 347/347/347 330/330/330
f 347/347/347 317/317/317 330/330/330
f 330/330/330 317/317/317 316/316/316
f 317/317/317 297/297/297 316/316/316
f 345/345/345 297/297/297 317/317/317
f 345/345/345 298/298/298 297/297/297
f 346/346/346 298/298/298 345/345/345
f 346/346/346 353/353/353 298/298/298
f 355/355/355 353/353/353 346/346/346
f 355/355/355 352/352/352 353/353/353
f 353/353/353 352/352/352 299/299/299
f 44/44/44 48/48/48 53/53/53
f 53/53/53 48/48/48 62/62/62
f 311/311/311 53/53/53 62/62/62
f 309/309/309 53/53/53 311/311/311
f 311/311/311 314/314/314 309/309/309
f 313/313/313 314/314/314 311/311/311
f 313/313/313 248/248/248 314/314/314
f 247/247/247 248/248/248 313/313/313
f 247/247/247 296/296/296 248/248/248
f 218/218/218 296/296/296 247/247/247
f 296/296/296 218/218/218 277/277/277
f 277/277/277 218/218/218 220/220/220
f 32/32/32 31/31/31 22/22/22
f 32/32/32 325/325/325 31/31/31
f 322/322/322 325/325/325 32/32/32
f 324/324/324 325/325/325 322/322/322
f 306/306/306 325/325/325 324/324/324
f 324/324/324 301/301/301 306/306/306
f 306/306/306 301/301/301 320/320/320
f 301/301/301 318/318/318 320/320/320
f 320/320/320 318/318/318 312/312/312
f 312/312/312 318/318/318 226/226/226
f 318/318/318 300/300/300 226/226/226
f 215/215/215 300/300/300 318/318/318
f 318/318/318 214/214/214 215/215/215
f 267/267/267 214/214/214 318/318/318
f 267/267/267 304/304/304 214/214/214
f 302/302/302 304/304/304 267/267/267
f 304/304/304 302/302/302 54/54/54
f 54/54/54 302/302/302 303/303/303
f 54/54/54 303/303/303 81/81/81
f 81/81/81 303/303/303 80/80/80
f 269/269/269 271/271/271 291/291/291
f 268/268/268 269/269/269 291/291/291
f 292/292/292 268/268/268 291/291/291
f 255/255/255 292/292/292 291/291/291
f 256/256/256 258/258/258 319/319/319
f 258/258/258 323/323/323 319/319/319
f 323/323/323 321/321/321 319/319/319
f 321/321/321 216/216/216 319/319/319
f 224/224/224 222/222/222 223/223/223
f 219/219/219 222/222/222 224/224/224
f 222/222/222 219/219/219 246/246/246
f 246/246/246 219/219/219 263/263/263
f 310/310/310 246/246/246 263/263/263
f 308/308/308 246/246/246 310/310/310
f 310/310/310 307/307/307 308/308/308
f 308/308/308 307/307/307 305/305/305
f 307/307/307 44/44/44 305/305/305
f 305/305/305 44/44/44 49/49/49
f 354/354/354 315/315/315 327/327/327
f 356/356/356 315/315/315 354/354/354
f 356/356/356 354/354/354 361/361/361
f 361/361/361 354/354/354 359/359/359
f 361/361/361 359/359/359 371/371/371
f 371/371/371 359/359/359 368/368/368
f 371/371/371 368/368/368 369/369/369
f 369/369/369 368/368/368 360/360/360
f 363/363/363 369/369/369 360/360/360
f 364/364/364 369/369/369 363/363/363
f 362/362/362 364/364/364 363/363/363
f 366/366/366 364/364/364 362/362/362
f 331/331/331 332/332/332 328/328/328
f 328/328/328 332/332/332 326/326/326
f 332/332/332 348/348/348 326/326/326
f 326/326/326 348/348/348 343/343/343
f 348/348/348 357/357/357 343/343/343
f 358/358/358 357/357/357 348/348/348
f 358/358/358 350/350/350 357/357/357
f 380/380/380 350/350/350 358/358/358
f 380/380/380 270/270/270 350/350/350
f 281/281/281 270/270/270 380/380/380
f 281/281/281 282/282/282 270/270/270
f 270/270/270 282/282/282 349/349/349
f 334/334/334 329/329/329 336/336/336
f 333/333/333 334/334/334 336/336/336
f 335/335/335 333/333/333 336/336/336
f 337/337/337 335/335/335 336/336/336
f 338/338/338 340/340/340 342/342/342
f 340/340/340 339/339/339 342/342/342
f 339/339/339 344/344/344 342/342/342
f 344/344/344 341/341/341 342/342/342
f 367/367/367 365/365/365 351/351/351
f 370/370/370 367/367/367 351/351/351
f 379/379/379 370/370/370 351/351/351
f 378/378/378 379/379/379 351/351/351
f 373/373/373 372/372/372 377/377/377
f 372/372/372 374/374/374 377/377/377
f 374/374/374 375/375/375 377/377/377
f 375/375/375 376/376/376 377/377/377
