# Exported by s4extract — object_Food_GrilledPlantains_lod00_g02
o object_Food_GrilledPlantains_lod00_g02
v -0.054353 0.016449 -0.110599
v -0.120548 0.015351 -0.024781
v -0.093570 0.016449 -0.080233
v 0.101016 0.016449 -0.070376
v 0.084780 0.016449 -0.089297
v 0.120579 0.016449 -0.024812
v 0.113102 0.016449 -0.048585
v 0.123081 0.016449 0.000000
v 0.120579 0.016449 -0.024812
v 0.120579 0.016449 0.024812
v -0.054353 0.016449 0.110599
v 0.120579 0.016449 0.024812
v -0.030976 0.016449 0.119266
v -0.006348 0.016449 0.123051
v 0.018555 0.016449 0.121769
v 0.042695 0.016449 0.115543
v -0.117649 0.016449 0.036866
v -0.107822 0.016449 0.059786
v -0.107822 0.016449 0.059786
v -0.093570 0.016449 0.080233
v -0.101016 0.015351 0.070315
v -0.117649 0.016449 0.036866
v -0.122654 0.016449 0.012452
v -0.120548 0.015351 0.024781
v -0.093570 0.016449 0.080233
v 0.065065 0.016449 0.104556
v -0.075503 0.016449 0.097415
v -0.054353 0.016449 0.110599
v -0.065096 0.015351 0.104465
v 0.065065 0.016449 0.104556
v 0.101016 0.016449 0.070376
v 0.084780 0.016449 0.089297
v 0.075350 0.015351 0.097324
v 0.084780 0.016449 0.089297
v -0.122654 0.016449 -0.012452
v -0.074831 0.000000 -0.007630
v 0.075350 0.015351 0.097324
v 0.107639 0.015351 0.059725
v 0.039979 0.000000 0.063936
v 0.120579 0.016449 -0.024812
v 0.123081 0.016449 0.000000
v -0.011475 0.000000 0.075625
v -0.057039 0.000000 0.049074
v 0.073916 0.000000 0.015168
v -0.101016 0.015351 0.070315
v 0.018555 0.016449 -0.121769
v -0.120548 0.015351 -0.024781
v -0.122654 0.016449 -0.012452
v -0.101016 0.015351 -0.070315
v -0.117649 0.016449 -0.036866
v -0.030976 0.016449 -0.119266
v -0.075503 0.016449 -0.097415
v -0.006348 0.016449 -0.123051
v 0.030854 0.015351 0.119175
v -0.020081 0.011994 -0.077090
v -0.006348 0.016449 -0.123051
v 0.101016 0.016449 0.070376
v 0.113102 0.016449 0.048585
v 0.107639 0.015351 0.059725
v -0.107822 0.016449 -0.059786
v -0.093570 0.016449 -0.080233
v -0.075503 0.016449 -0.097415
v 0.061953 0.000000 -0.043031
v -0.018616 0.015351 0.121677
v 0.101566 0.015351 -0.070681
v -0.122654 0.016449 -0.012452
v -0.069765 0.011994 -0.038636
v -0.117649 0.016449 -0.036866
v 0.084780 0.016449 -0.089297
v 0.101016 0.016449 -0.070376
v 0.101566 0.015351 -0.070681
v 0.018555 0.016449 -0.121769
v 0.113102 0.016449 -0.048585
v 0.042695 0.016449 -0.115543
v 0.065065 0.016449 -0.104556
v 0.075350 0.015351 -0.097324
v 0.065065 0.016449 -0.104556
v -0.117649 0.016449 0.036866
v -0.107822 0.016449 0.059786
v -0.122654 0.016449 0.012452
v 0.113102 0.016449 -0.048585
v 0.117466 0.015351 -0.036836
v -0.093570 0.016449 0.080233
v -0.054353 0.016449 -0.110599
v 0.123081 0.016449 0.000000
v -0.076113 0.011994 0.023896
v 0.122471 0.015351 0.012452
v 0.117466 0.015351 -0.036836
v -0.054353 0.016449 -0.110599
v 0.113102 0.016449 0.048585
v 0.122471 0.015351 0.012452
v -0.122654 0.016449 0.012452
v -0.107822 0.016449 -0.059786
v -0.093570 0.016449 -0.080233
v -0.035188 0.011994 0.071566
v -0.054353 0.016449 0.110599
v -0.075503 0.016449 0.097415
v -0.117649 0.016449 -0.036866
v -0.107822 0.016449 -0.059786
v 0.018555 0.016449 0.121769
v -0.006348 0.016449 0.123051
v -0.030976 0.016449 0.119266
v 0.042695 0.016449 -0.115543
v 0.065065 0.016449 -0.104556
v 0.065065 0.016449 0.104556
v 0.042695 0.016449 0.115543
v 0.011933 0.011994 0.078768
v -0.120548 0.015351 0.024781
v -0.101016 0.015351 -0.070315
v -0.065096 0.015351 -0.104465
v -0.018616 0.015351 -0.121677
v 0.042024 0.011994 -0.067568
v -0.065096 0.015351 0.104465
v 0.113102 0.016449 0.048585
v 0.101016 0.016449 0.070376
v 0.084780 0.016449 0.089297
v -0.045991 0.000000 -0.059572
v 0.065279 0.011994 0.045534
v 0.120579 0.016449 0.024812
v 0.077914 0.011994 -0.015992
v -0.030976 0.016449 -0.119266
v 0.075350 0.015351 -0.097324
v 0.011536 0.000000 -0.074465
v 0.030854 0.015351 -0.119175
vt 0.285925 0.935287
vt 0.029029 0.596845
vt 0.130992 0.815647
vt 0.898879 0.778066
vt 0.835340 0.852656
vt 0.974553 0.595670
vt 0.946638 0.692364
vt 0.984792 0.499187
vt 0.974553 0.595670
vt 0.975005 0.402103
vt 0.285714 0.064504
vt 0.975005 0.402103
vt 0.377860 0.030476
vt 0.475066 0.015630
vt 0.573205 0.020779
vt 0.668483 0.045502
vt 0.036015 0.354704
vt 0.074560 0.264817
vt 0.074560 0.264817
vt 0.130721 0.184203
vt 0.105155 0.226061
vt 0.036015 0.354704
vt 0.016291 0.450856
vt 0.029150 0.403217
vt 0.130721 0.184203
vt 0.756865 0.088895
vt 0.202150 0.116509
vt 0.285714 0.064504
vt 0.245814 0.092720
vt 0.756865 0.088895
vt 0.898156 0.223140
vt 0.834557 0.148971
vt 0.794476 0.121237
vt 0.834557 0.148971
vt 0.016201 0.549175
vt 0.224404 0.527946
vt 0.794476 0.121237
vt 0.919747 0.267346
vt 0.646982 0.265118
vt 0.976390 0.598019
vt 0.984792 0.499187
vt 0.457811 0.222297
vt 0.290020 0.319592
vt 0.772072 0.444080
vt 0.105155 0.226061
vt 0.572813 0.981209
vt 0.029029 0.596845
vt 0.016201 0.549175
vt 0.105396 0.773820
vt 0.035955 0.645327
vt 0.377860 0.969074
vt 0.202451 0.883402
vt 0.475096 0.983889
vt 0.620543 0.035866
vt 0.423120 0.792791
vt 0.474765 0.986449
vt 0.898156 0.223140
vt 0.945675 0.308752
vt 0.919747 0.267346
vt 0.072964 0.736449
vt 0.129607 0.817514
vt 0.200885 0.884937
vt 0.728619 0.658095
vt 0.427306 0.025718
vt 0.899421 0.776530
vt 0.014454 0.549175
vt 0.234341 0.646682
vt 0.034088 0.645387
vt 0.835340 0.852656
vt 0.905263 0.780866
vt 0.899421 0.776530
vt 0.573446 0.978891
vt 0.947000 0.689894
vt 0.668633 0.954348
vt 0.756504 0.911287
vt 0.794175 0.879216
vt 0.756504 0.911287
vt 0.034088 0.354042
vt 0.073265 0.263221
vt 0.014334 0.451036
vt 0.947000 0.689894
vt 0.957630 0.641442
vt 0.129457 0.182818
vt 0.285925 0.935287
vt 0.986267 0.499549
vt 0.210220 0.409209
vt 0.977444 0.451067
vt 0.957630 0.641442
vt 0.284178 0.937094
vt 0.945675 0.308752
vt 0.977444 0.451067
vt 0.016291 0.450856
vt 0.074711 0.735124
vt 0.130992 0.815647
vt 0.365785 0.228109
vt 0.284389 0.062366
vt 0.200554 0.115003
vt 0.035955 0.645327
vt 0.074711 0.735124
vt 0.572873 0.018159
vt 0.474102 0.013281
vt 0.377138 0.028157
vt 0.667941 0.956878
vt 0.756835 0.913545
vt 0.756684 0.086757
vt 0.668603 0.043304
vt 0.544748 0.200675
vt 0.029150 0.403217
vt 0.105396 0.773820
vt 0.246115 0.907161
vt 0.427246 0.973741
vt 0.659118 0.756655
vt 0.245814 0.092720
vt 0.946909 0.308180
vt 0.898999 0.221514
vt 0.834437 0.146622
vt 0.330673 0.718863
vt 0.747409 0.326910
vt 0.976179 0.401922
vt 0.795500 0.560739
vt 0.376927 0.971754
vt 0.794175 0.879216
vt 0.542670 0.773519
vt 0.620874 0.963894
vn -0.485203 0.398439 -0.778347
vn -0.305475 -0.950059 -0.063823
vn -0.324836 -0.881937 -0.341569
vn -0.074918 0.995826 0.052126
vn -0.067584 0.995178 0.071083
vn 0.824926 0.502180 -0.259444
vn -0.090160 0.995175 0.038709
vn 0.503246 -0.862637 -0.050988
vn 0.499923 -0.864601 -0.050423
vn 0.480203 -0.864100 0.150785
vn -0.166277 -0.878190 0.448479
vn 0.858956 0.504667 0.086635
vn -0.185147 -0.786092 0.589728
vn -0.041630 -0.565096 0.823974
vn 0.063853 -0.775262 0.628404
vn 0.292249 -0.539418 0.789695
vn -0.426409 -0.885861 0.182828
vn -0.762199 0.369881 0.531264
vn -0.425748 -0.886226 0.182599
vn -0.762199 0.369881 0.531264
vn -0.762199 0.369881 0.531264
vn -0.916931 0.352000 0.187971
vn -0.916931 0.352000 0.187971
vn -0.916931 0.352000 0.187971
vn -0.324836 -0.881937 0.341569
vn 0.215603 -0.872225 0.439021
vn -0.397065 -0.792779 0.462429
vn -0.485203 0.398439 0.778347
vn -0.485203 0.398439 0.778347
vn 0.542242 0.463858 0.700577
vn 0.376835 -0.867944 0.323525
vn 0.542242 0.463858 0.700577
vn 0.542242 0.463858 0.700577
vn 0.375450 -0.869052 0.322160
vn -0.462566 -0.886585 0.000000
vn -0.163865 -0.986176 -0.024595
vn 0.193234 -0.949336 0.247833
vn 0.257094 -0.953962 0.154465
vn 0.056574 -0.995462 0.076516
vn -0.099661 0.994811 0.020471
vn 0.858956 0.504667 0.086635
vn -0.017916 -0.992981 0.116908
vn -0.191345 -0.971556 0.139521
vn 0.157233 -0.987256 0.024567
vn -0.255709 -0.949993 0.179239
vn -0.013821 0.995827 0.090207
vn -0.916931 0.352000 -0.187971
vn -0.916931 0.352000 -0.187971
vn -0.762199 0.369881 -0.531264
vn -0.426409 -0.885861 -0.182828
vn -0.185147 -0.786092 -0.589728
vn -0.397065 -0.792779 -0.462429
vn -0.041630 -0.565096 -0.823974
vn 0.076026 -0.949970 0.302947
vn 0.008150 0.999471 0.031484
vn 0.004949 0.995178 0.097957
vn 0.759969 0.494761 0.421496
vn 0.759969 0.494761 0.421496
vn 0.759969 0.494761 0.421496
vn 0.089008 0.994804 0.049421
vn 0.074485 0.995168 0.063974
vn 0.055905 0.995821 0.072218
vn 0.180787 -0.975438 -0.125842
vn -0.048579 -0.944770 0.324114
vn 0.259307 -0.948769 -0.180547
vn 0.090891 0.995818 0.009226
vn 0.030064 0.999409 0.016683
vn 0.093689 0.995169 0.029357
vn 0.694639 -0.115812 -0.709975
vn 0.713466 0.494600 -0.496324
vn 0.713466 0.494600 -0.496324
vn 0.063853 -0.775262 -0.628404
vn 0.795114 0.501258 -0.341372
vn 0.292249 -0.539418 -0.789695
vn 0.215603 -0.872225 -0.439021
vn 0.542242 0.463858 -0.700577
vn 0.542242 0.463858 -0.700577
vn 0.097205 0.994798 -0.030459
vn 0.085873 0.995165 -0.047680
vn 0.097713 0.995165 -0.009916
vn 0.655502 -0.689554 -0.307950
vn 0.824926 0.502180 -0.259444
vn 0.069352 0.995813 -0.059551
vn -0.166277 -0.878190 -0.448479
vn -0.098172 0.995169 -0.000000
vn 0.066224 0.997588 -0.020780
vn 0.311188 -0.949820 0.031670
vn 0.290352 -0.954551 -0.067289
vn 0.043237 0.995172 0.088105
vn 0.483384 -0.862107 0.152027
vn 0.858956 0.504667 0.086635
vn -0.462566 -0.886585 0.000000
vn -0.762199 0.369881 -0.531264
vn -0.762199 0.369881 -0.531264
vn 0.025364 0.998850 -0.040689
vn 0.044907 0.994791 -0.091507
vn 0.060166 0.995159 -0.077702
vn -0.916931 0.352000 -0.187971
vn -0.425748 -0.886226 -0.182599
vn -0.015416 0.994797 -0.100706
vn 0.004956 0.995165 -0.098088
vn 0.019562 0.995316 -0.094680
vn -0.034029 0.995182 0.091952
vn -0.053825 0.994813 0.086308
vn -0.048314 0.995820 -0.077516
vn -0.034074 0.995169 -0.092073
vn -0.004544 0.999749 -0.021918
vn -0.290660 -0.954209 0.070725
vn -0.250423 -0.954511 -0.161854
vn -0.167374 -0.948053 -0.270519
vn -0.055870 -0.953257 -0.296952
vn -0.016804 0.999495 0.026957
vn -0.159683 -0.951418 0.263260
vn -0.090249 0.995165 -0.038747
vn -0.083603 0.994800 -0.058159
vn -0.067665 0.995167 -0.071169
vn -0.055650 -0.995284 -0.079459
vn -0.038024 0.998926 -0.026473
vn -0.089466 0.995820 -0.018374
vn -0.067947 0.997591 0.013968
vn 0.025548 0.994809 0.098496
vn 0.163299 -0.955135 -0.247085
vn 0.022261 -0.993692 -0.109909
vn 0.081116 -0.947678 -0.308749
f 24/24/24 22/22/22 23/23/23
f 21/21/21 20/20/20 18/18/18
f 29/29/29 28/28/28 27/27/27
f 33/33/33 32/32/32 30/30/30
f 59/59/59 58/58/58 57/57/57
f 91/91/91 41/41/41 12/12/12
f 82/82/82 73/73/73 6/6/6
f 76/76/76 77/77/77 69/69/69
f 49/49/49 93/93/93 94/94/94
f 47/47/47 48/48/48 98/98/98
f 108/108/108 19/19/19 17/17/17
f 45/45/45 19/19/19 108/108/108
f 108/108/108 43/43/43 45/45/45
f 45/45/45 43/43/43 113/113/113
f 113/113/113 27/27/27 45/45/45
f 45/45/45 27/27/27 25/25/25
f 108/108/108 36/36/36 43/43/43
f 43/43/43 36/36/36 42/42/42
f 113/113/113 43/43/43 42/42/42
f 113/113/113 42/42/42 64/64/64
f 64/64/64 13/13/13 113/113/113
f 113/113/113 13/13/13 11/11/11
f 2/2/2 36/36/36 108/108/108
f 109/109/109 36/36/36 2/2/2
f 109/109/109 117/117/117 36/36/36
f 42/42/42 36/36/36 117/117/117
f 42/42/42 117/117/117 39/39/39
f 54/54/54 42/42/42 39/39/39
f 54/54/54 64/64/64 42/42/42
f 2/2/2 108/108/108 35/35/35
f 35/35/35 108/108/108 92/92/92
f 109/109/109 2/2/2 99/99/99
f 99/99/99 2/2/2 50/50/50
f 64/64/64 14/14/14 13/13/13
f 64/64/64 15/15/15 14/14/14
f 54/54/54 15/15/15 64/64/64
f 54/54/54 16/16/16 15/15/15
f 54/54/54 26/26/26 16/16/16
f 37/37/37 26/26/26 54/54/54
f 37/37/37 54/54/54 39/39/39
f 38/38/38 37/37/37 39/39/39
f 38/38/38 31/31/31 37/37/37
f 37/37/37 31/31/31 34/34/34
f 38/38/38 39/39/39 44/44/44
f 87/87/87 38/38/38 44/44/44
f 87/87/87 10/10/10 38/38/38
f 38/38/38 10/10/10 90/90/90
f 39/39/39 123/123/123 44/44/44
f 44/44/44 123/123/123 63/63/63
f 88/88/88 44/44/44 63/63/63
f 88/88/88 87/87/87 44/44/44
f 87/87/87 88/88/88 8/8/8
f 8/8/8 88/88/88 9/9/9
f 39/39/39 117/117/117 123/123/123
f 111/111/111 123/123/123 117/117/117
f 124/124/124 123/123/123 111/111/111
f 122/122/122 123/123/123 124/124/124
f 122/122/122 63/63/63 123/123/123
f 65/65/65 63/63/63 122/122/122
f 65/65/65 88/88/88 63/63/63
f 88/88/88 65/65/65 81/81/81
f 111/111/111 117/117/117 110/110/110
f 111/111/111 110/110/110 51/51/51
f 111/111/111 51/51/51 53/53/53
f 72/72/72 111/111/111 53/53/53
f 124/124/124 111/111/111 72/72/72
f 124/124/124 72/72/72 74/74/74
f 75/75/75 124/124/124 74/74/74
f 122/122/122 124/124/124 75/75/75
f 110/110/110 117/117/117 109/109/109
f 110/110/110 109/109/109 52/52/52
f 110/110/110 52/52/52 1/1/1
f 52/52/52 109/109/109 3/3/3
f 51/51/51 110/110/110 84/84/84
f 122/122/122 69/69/69 65/65/65
f 73/73/73 71/71/71 70/70/70
f 71/71/71 69/69/69 70/70/70
f 120/120/120 40/40/40 7/7/7
f 85/85/85 40/40/40 120/120/120
f 120/120/120 119/119/119 85/85/85
f 118/118/118 119/119/119 120/120/120
f 114/114/114 119/119/119 118/118/118
f 114/114/114 118/118/118 115/115/115
f 116/116/116 115/115/115 118/118/118
f 7/7/7 4/4/4 120/120/120
f 120/120/120 4/4/4 112/112/112
f 112/112/112 118/118/118 120/120/120
f 112/112/112 107/107/107 118/118/118
f 107/107/107 105/105/105 118/118/118
f 116/116/116 118/118/118 105/105/105
f 112/112/112 4/4/4 5/5/5
f 5/5/5 104/104/104 112/112/112
f 112/112/112 104/104/104 103/103/103
f 103/103/103 46/46/46 112/112/112
f 112/112/112 46/46/46 55/55/55
f 55/55/55 107/107/107 112/112/112
f 55/55/55 46/46/46 56/56/56
f 56/56/56 121/121/121 55/55/55
f 55/55/55 121/121/121 89/89/89
f 89/89/89 62/62/62 55/55/55
f 55/55/55 62/62/62 67/67/67
f 67/67/67 107/107/107 55/55/55
f 95/95/95 107/107/107 67/67/67
f 95/95/95 102/102/102 107/107/107
f 107/107/107 102/102/102 101/101/101
f 101/101/101 100/100/100 107/107/107
f 106/106/106 107/107/107 100/100/100
f 106/106/106 105/105/105 107/107/107
f 67/67/67 62/62/62 61/61/61
f 61/61/61 60/60/60 67/67/67
f 67/67/67 60/60/60 68/68/68
f 68/68/68 66/66/66 67/67/67
f 67/67/67 66/66/66 86/86/86
f 95/95/95 67/67/67 86/86/86
f 86/86/86 83/83/83 95/95/95
f 97/97/97 95/95/95 83/83/83
f 97/97/97 96/96/96 95/95/95
f 102/102/102 95/95/95 96/96/96
f 86/86/86 66/66/66 80/80/80
f 80/80/80 78/78/78 86/86/86
f 86/86/86 78/78/78 79/79/79
f 79/79/79 83/83/83 86/86/86
