# Exported by s4extract — object_light_table_lod01_g01
o object_light_table_lod01_g01
v 0.000000 0.000000 -0.106357
v -0.072573 0.000000 0.072604
v 0.072573 0.000000 -0.072665
v -0.106296 0.000000 -0.000031
v 0.000031 0.136998 0.009400
v -0.033082 0.295999 -0.033204
v 0.000031 0.246071 0.025941
v -0.025941 0.246071 -0.000061
v -0.106296 0.000000 -0.000031
v 0.072604 0.000000 0.072604
v -0.043336 0.042787 -0.000061
v 0.106296 0.000000 -0.000031
v 0.106296 0.000000 -0.000031
v -0.072604 0.000000 -0.072665
v 0.000031 0.042787 0.043336
v 0.072604 0.019898 0.072604
v -0.029572 0.042787 0.029603
v -0.072573 0.019898 0.072604
v -0.000031 0.295999 -0.048524
v -0.048402 0.295999 -0.000061
v -0.009400 0.136998 -0.000061
v 0.000031 0.295999 0.048402
v -0.000031 0.136998 -0.009552
v -0.000031 0.136998 -0.009552
v -0.009400 0.136998 -0.000061
v 0.009400 0.136998 -0.000061
v -0.033021 0.295999 0.033052
v 0.000031 0.295999 0.048402
v -0.048402 0.295999 -0.000061
v 0.025941 0.246071 -0.000061
v 0.106296 0.019898 -0.000061
v 0.000031 0.019898 0.106296
v 0.072604 0.019898 0.072604
v -0.000031 0.295999 -0.048524
v -0.000031 0.246071 -0.026063
v 0.106296 0.019898 -0.000061
v 0.043336 0.042787 -0.000061
v 0.072604 0.000000 0.072604
v 0.000031 0.019898 0.106296
v 0.000000 0.000000 0.106296
v 0.072604 0.000000 0.072604
v -0.106296 0.019898 -0.000061
v -0.106296 0.019898 -0.000061
v -0.000031 0.246071 -0.026063
v -0.048402 0.295999 -0.000061
v 0.000031 0.246071 0.025941
v 0.000031 0.295999 0.048402
v 0.000031 0.136998 0.009400
v -0.025941 0.246071 -0.000061
v -0.072604 0.019898 -0.072726
v 0.106296 0.000000 -0.000031
v 0.106296 0.019898 -0.000061
v -0.106296 0.000000 -0.000031
v 0.000000 0.000000 -0.106357
v -0.000031 0.019898 -0.106418
v 0.000031 0.019898 0.106296
v -0.072573 0.000000 0.072604
v -0.072573 0.019898 0.072604
v 0.009400 0.136998 -0.000061
v 0.029633 0.042787 0.029603
v -0.043336 0.042787 -0.000061
v -0.000031 0.019898 -0.106418
v 0.072573 0.000000 -0.072665
v 0.072573 0.019898 -0.072726
v 0.000000 0.000000 -0.106357
v -0.127293 0.412885 -0.062166
v -0.037660 0.478011 -0.151585
v -0.141423 0.478011 -0.068850
v 0.000000 0.000000 0.106296
v -0.072604 0.000000 -0.072665
v 0.033021 0.295999 -0.033204
v -0.033021 0.295999 0.033052
v 0.033082 0.295999 0.033052
v 0.048402 0.295999 -0.000061
v -0.106296 0.019898 -0.000061
v -0.106296 0.019898 -0.000061
v 0.048402 0.295999 -0.000061
v -0.000031 0.295999 -0.048524
v 0.025941 0.246071 -0.000061
v 0.048402 0.295999 -0.000061
v 0.048402 0.295999 -0.000061
v 0.033021 0.295999 -0.033204
v -0.037660 0.478011 -0.151585
v -0.034181 0.412885 -0.136418
v -0.034181 0.412885 -0.136418
v 0.022797 0.328257 0.022797
v -0.009400 0.136998 -0.000061
v -0.000031 0.136998 -0.009552
v -0.000031 0.096957 -0.031892
v 0.033357 0.328257 -0.000061
v 0.033357 0.328257 -0.000061
v 0.033082 0.295999 0.033052
v 0.000031 0.295999 0.048402
v 0.000031 0.328257 0.033357
v 0.000031 0.553209 0.014649
v 0.000031 0.096957 0.031770
v -0.065065 0.251289 -0.004700
v 0.091708 0.478011 -0.122044
v 0.081912 0.412885 -0.109897
v -0.051912 0.491470 -0.004700
v -0.062960 0.491470 -0.004700
v -0.053987 0.251289 -0.004700
v 0.014649 0.553209 -0.000061
v -0.031770 0.096957 -0.000061
v -0.033357 0.328257 -0.000061
v -0.022767 0.328257 0.022797
v 0.000031 0.553209 0.014649
v -0.008606 0.555498 -0.005646
v 0.088931 0.377483 0.115818
v 0.088931 0.377483 0.115818
v -0.036683 0.377483 0.145024
v -0.137425 0.377483 0.063143
v -0.137425 0.377483 0.063143
v 0.000031 0.136998 0.009400
v -0.009400 0.136998 -0.000061
v -0.000031 0.295999 -0.048524
v -0.031770 0.096957 -0.000061
v -0.048402 0.295999 -0.000061
v -0.033357 0.328257 -0.000061
v -0.033082 0.295999 -0.033204
v 0.009400 0.136998 -0.000061
v 0.031770 0.096957 -0.000061
v 0.000031 0.136998 0.009400
v 0.000031 0.096957 0.031770
v 0.000031 0.328257 0.033357
v 0.031770 0.096957 -0.000061
v -0.014649 0.553209 -0.000061
v -0.043336 0.042787 -0.000061
v 0.144841 0.377483 -0.002503
v 0.144841 0.377483 -0.002503
v -0.000031 0.328257 -0.033509
v -0.000031 0.328257 -0.033509
v -0.000031 0.553209 -0.014771
v -0.014649 0.553209 -0.000061
v -0.022797 0.328257 -0.022919
v 0.009400 0.136998 -0.000061
v -0.000031 0.096957 -0.031892
v -0.000031 0.136998 -0.009552
v 0.014649 0.553209 -0.000061
v -0.000031 0.553209 -0.014771
v -0.011383 0.072176 -0.000061
v -0.011383 0.072176 -0.000061
v -0.043336 0.042787 -0.000061
v 0.000031 0.072176 0.011383
v 0.022767 0.328257 -0.022919
v -0.029572 0.042787 0.029603
v 0.011383 0.072176 -0.000061
v -0.022065 0.609485 -0.012360
v 0.029633 0.042787 0.029603
v -0.000031 0.072176 -0.011536
v -0.011383 0.072176 -0.000061
v -0.031770 0.096957 -0.000061
v -0.029633 0.042787 -0.029725
v 0.000031 0.042787 0.043336
v -0.029633 0.042787 -0.029725
v 0.000031 0.072176 0.011383
v -0.072604 0.019898 -0.072726
v 0.043336 0.042787 -0.000061
v -0.009522 0.619190 -0.009980
v -0.003632 0.675466 -0.002594
v -0.015778 0.639912 -0.021546
v 0.010315 0.639912 0.013825
v 0.014344 0.639912 -0.016144
v -0.000031 0.072176 -0.011536
v 0.000031 0.096957 0.031770
v -0.031770 0.096957 -0.000061
v -0.000031 0.096957 -0.031892
v 0.000031 0.072176 0.011383
v -0.011383 0.072176 -0.000061
v 0.000031 0.096957 0.031770
v 0.000031 0.072176 0.011383
v 0.031770 0.096957 -0.000061
v -0.000031 0.042787 -0.043489
v -0.000031 0.072176 -0.011536
v 0.011383 0.072176 -0.000061
v 0.043336 0.042787 -0.000061
v 0.029572 0.042787 -0.029725
v -0.000031 0.096957 -0.031892
v 0.011383 0.072176 -0.000061
v 0.043336 0.042787 -0.000061
v 0.031770 0.096957 -0.000061
v 0.106296 0.019898 -0.000061
v -0.000031 0.072176 -0.011536
v 0.011383 0.072176 -0.000061
v 0.029572 0.042787 -0.029725
v 0.072573 0.019898 -0.072726
v 0.010773 0.608905 0.013886
v -0.000031 0.042787 -0.043489
v -0.000031 0.019898 -0.106418
v -0.015778 0.639912 -0.021546
v 0.014344 0.639912 -0.016144
v -0.008576 0.608905 -0.024049
v 0.017365 0.608905 -0.007294
v 0.003967 0.618488 -0.007904
v -0.003632 0.675466 -0.002594
v 0.014344 0.639912 -0.016144
v 0.001679 0.618488 0.003479
v -0.003632 0.675466 -0.002594
v 0.010315 0.639912 0.013825
v -0.005707 0.609363 0.018372
v -0.023072 0.609699 0.005829
v 0.010773 0.608905 0.013886
v 0.001679 0.618488 0.003479
v -0.010163 0.618488 0.002716
v -0.020539 0.639912 0.010987
v -0.003632 0.675466 -0.002594
v 0.007019 0.608905 -0.021149
v 0.014344 0.639912 -0.016144
v 0.010315 0.639912 0.013825
v -0.008576 0.608905 -0.024049
v 0.118656 0.566485 -0.002503
v 0.017365 0.608905 -0.007294
v -0.022065 0.609485 -0.012360
v -0.015778 0.639912 -0.021546
v -0.020539 0.639912 0.010987
v -0.009522 0.619190 -0.009980
v 0.017365 0.608905 -0.007294
v 0.007019 0.608905 -0.021149
v 0.003967 0.618488 -0.007904
v -0.015778 0.639912 -0.021546
v -0.022065 0.609485 -0.012360
v -0.020539 0.639912 0.010987
v 0.010315 0.639912 0.013825
v -0.010163 0.618488 0.002716
v 0.010773 0.608905 0.013886
v -0.020539 0.639912 0.010987
v -0.005707 0.609363 0.018372
v -0.023072 0.609699 0.005829
v -0.133580 0.378002 -0.066408
v 0.144841 0.377483 -0.002503
v -0.035737 0.378002 -0.145909
v 0.086276 0.378002 -0.117557
v 0.086276 0.378002 -0.117557
v 0.086276 0.378002 -0.117557
v 0.091708 0.478011 0.117069
v -0.035737 0.378002 -0.145909
v -0.035737 0.378002 -0.145909
v -0.113834 0.566485 -0.055544
v -0.036683 0.377483 0.145024
v -0.133580 0.378002 -0.066408
v -0.137425 0.377483 0.063143
v -0.133580 0.378002 -0.066408
v -0.030854 0.566485 0.116733
v 0.072604 0.566485 0.093142
v 0.118656 0.566485 -0.002503
v 0.088931 0.377483 0.115818
v -0.030854 0.566485 -0.121738
v 0.133610 0.412885 -0.002594
v 0.072604 0.566485 -0.098117
v -0.036683 0.377483 0.145024
v -0.137425 0.377483 0.063143
v -0.113834 0.566485 -0.055544
v -0.113834 0.566485 0.050569
v 0.133610 0.412885 -0.002594
v 0.081912 0.412885 -0.109897
v 0.149266 0.478011 -0.002503
v 0.081912 0.412885 0.104678
v 0.081912 0.412885 0.104678
v -0.127293 0.412885 0.056948
v -0.127293 0.412885 0.056948
v -0.034181 0.412885 0.131199
v -0.037660 0.478011 0.146580
v -0.127293 0.412885 -0.062166
v -0.037660 0.478011 0.146580
v -0.034181 0.412885 0.131199
v -0.141423 0.478011 0.063845
vt 0.865567 0.036395
vt 0.827192 0.130961
vt 0.903942 0.054212
vt 0.809375 0.092586
vt 0.096181 0.361850
vt 0.054060 0.579521
vt 0.096181 0.512304
vt 0.038740 0.512304
vt 0.105440 0.162514
vt 0.401748 0.060729
vt 0.355638 0.179935
vt 0.466255 0.162758
vt 0.921758 0.092586
vt 0.827192 0.054212
vt 0.285862 0.130413
vt 0.386551 0.078028
vt 0.245264 0.147377
vt 0.185265 0.077876
vt 0.095968 0.579521
vt 0.008436 0.579521
vt 0.073369 0.361393
vt 0.096211 0.579521
vt 0.095998 0.361850
vt 0.095998 0.361850
vt 0.073369 0.361393
vt 0.118810 0.361393
vt 0.054212 0.579521
vt 0.096211 0.579521
vt 0.008436 0.579521
vt 0.153560 0.512304
vt 0.442468 0.170341
vt 0.285923 0.035999
vt 0.386551 0.078028
vt 0.095968 0.579521
vt 0.095998 0.512243
vt 0.442468 0.170341
vt 0.355759 0.179935
vt 0.401748 0.060729
vt 0.285923 0.035999
vt 0.865567 0.148778
vt 0.903942 0.130961
vt 0.442347 0.170341
vt 0.131845 0.171894
vt 0.095998 0.512243
vt 0.008436 0.579521
vt 0.096181 0.512304
vt 0.096211 0.579521
vt 0.096181 0.361850
vt 0.038740 0.512304
vt 0.386459 0.078028
vt 0.105318 0.162514
vt 0.131723 0.171894
vt 0.466133 0.162758
vt 0.285832 0.010811
vt 0.285832 0.035999
vt 0.285923 0.035999
vt 0.170068 0.060546
vt 0.185265 0.077876
vt 0.118810 0.361393
vt 0.326461 0.147408
vt 0.218036 0.185752
vt 0.285832 0.035999
vt 0.169976 0.060546
vt 0.185144 0.077876
vt 0.285832 0.010811
vt 0.870166 0.346074
vt 0.633246 0.310958
vt 0.821070 0.460772
vt 0.285954 0.010811
vt 0.401627 0.060729
vt 0.137906 0.579521
vt 0.054212 0.579521
vt 0.138210 0.579521
vt 0.183712 0.579521
vt 0.131845 0.171894
vt 0.442347 0.170341
vt 0.183712 0.579521
vt 0.095968 0.579521
vt 0.153560 0.512304
vt 0.183712 0.579521
vt 0.183712 0.579521
vt 0.137906 0.579521
vt 0.633246 0.310958
vt 0.585278 0.203569
vt 0.738138 0.238533
vt 0.134617 0.631784
vt 0.073369 0.361393
vt 0.095998 0.361850
vt 0.095998 0.301699
vt 0.170250 0.631784
vt 0.170250 0.631784
vt 0.138210 0.579521
vt 0.096211 0.579521
vt 0.096211 0.631784
vt 0.096242 0.936316
vt 0.096181 0.301699
vt 0.962814 0.005421
vt 0.420418 0.365566
vt 0.418682 0.241548
vt 0.997960 0.341779
vt 0.962814 0.341719
vt 0.997960 0.005421
vt 0.126576 0.937656
vt 0.042456 0.301699
vt 0.021868 0.631784
vt 0.057806 0.631784
vt 0.096242 0.936316
vt 0.646586 0.121885
vt 0.254279 0.830968
vt 0.738655 0.043795
vt 0.779436 0.084881
vt 0.797771 0.136078
vt 0.466224 0.098678
vt 0.096181 0.361850
vt 0.073369 0.361393
vt 0.095968 0.579521
vt 0.042456 0.301699
vt 0.008436 0.579521
vt 0.021868 0.631784
vt 0.054060 0.579521
vt 0.118810 0.361393
vt 0.149906 0.301699
vt 0.096181 0.361850
vt 0.096181 0.301699
vt 0.096211 0.631784
vt 0.149906 0.301699
vt 0.065725 0.937656
vt 0.013583 0.237315
vt 0.177408 0.671286
vt 0.175123 0.473290
vt 0.095968 0.631784
vt 0.095968 0.631784
vt 0.095937 0.936316
vt 0.065725 0.937656
vt 0.057654 0.631784
vt 0.118810 0.361393
vt 0.095998 0.301699
vt 0.095998 0.361850
vt 0.126576 0.937656
vt 0.095937 0.936316
vt 0.068070 0.264299
vt 0.068070 0.264299
vt 0.013583 0.237315
vt 0.096181 0.259700
vt 0.134312 0.631784
vt 0.049583 0.206645
vt 0.124048 0.264299
vt 0.099105 0.055643
vt 0.142748 0.206645
vt 0.095998 0.259700
vt 0.068070 0.264299
vt 0.042456 0.301699
vt 0.049491 0.206645
vt 0.096181 0.195194
vt 0.326339 0.147408
vt 0.096181 0.259700
vt 0.386459 0.078028
vt 0.178595 0.237315
vt 0.084242 0.063866
vt 0.061430 0.150971
vt 0.097673 0.096668
vt 0.024060 0.096668
vt 0.055095 0.096668
vt 0.095998 0.259700
vt 0.096181 0.301699
vt 0.042456 0.301699
vt 0.095998 0.301699
vt 0.096181 0.259700
vt 0.068070 0.264299
vt 0.096181 0.301699
vt 0.096181 0.259700
vt 0.149906 0.301699
vt 0.096029 0.195194
vt 0.095998 0.259700
vt 0.124048 0.264299
vt 0.178595 0.237315
vt 0.142535 0.206645
vt 0.095998 0.301699
vt 0.124048 0.264299
vt 0.217945 0.185752
vt 0.149906 0.301699
vt 0.131723 0.171894
vt 0.095998 0.259700
vt 0.124048 0.264299
vt 0.245142 0.147377
vt 0.185144 0.077876
vt 0.024274 0.055765
vt 0.285771 0.130413
vt 0.285832 0.035999
vt 0.097673 0.096668
vt 0.055095 0.096668
vt 0.078729 0.043034
vt 0.038801 0.044252
vt 0.058537 0.060303
vt 0.061430 0.150971
vt 0.055095 0.096668
vt 0.039045 0.064079
vt 0.061430 0.150971
vt 0.097825 0.096698
vt 0.078729 0.043034
vt 0.056009 0.041816
vt 0.099105 0.055643
vt 0.084242 0.063866
vt 0.058537 0.060303
vt 0.055248 0.096698
vt 0.061430 0.150971
vt 0.056009 0.041816
vt 0.055095 0.096668
vt 0.024060 0.096668
vt 0.584943 0.556679
vt 0.416398 0.571572
vt 0.567217 0.568587
vt 0.024274 0.055765
vt 0.024213 0.096698
vt 0.055248 0.096698
vt 0.039045 0.064079
vt 0.567217 0.568587
vt 0.576232 0.558628
vt 0.058537 0.060303
vt 0.024213 0.096698
vt 0.591856 0.563166
vt 0.055248 0.096698
vt 0.097825 0.096698
vt 0.058537 0.060303
vt 0.569654 0.580861
vt 0.055248 0.096698
vt 0.581105 0.585978
vt 0.592801 0.579399
vt 0.504173 0.055308
vt 0.681032 0.018243
vt 0.555948 0.025430
vt 0.616739 0.012517
vt 0.407322 0.194067
vt 0.253731 0.314338
vt 0.412987 0.776908
vt 0.576080 0.155326
vt 0.766249 0.198239
vt 0.729671 0.500426
vt 0.763356 0.948833
vt 0.987422 0.482670
vt 0.989310 0.662636
vt 0.900744 0.309283
vt 0.617592 0.732137
vt 0.478194 0.700493
vt 0.416398 0.571572
vt 0.403911 0.950326
vt 0.618201 0.410702
vt 0.221722 0.492538
vt 0.478864 0.442864
vt 0.575836 0.993391
vt 0.904155 0.838765
vt 0.729671 0.500426
vt 0.729580 0.643114
vt 0.216605 0.649966
vt 0.296004 0.338917
vt 0.321313 0.573003
vt 0.417708 0.901230
vt 0.303984 0.802918
vt 0.939027 0.657428
vt 0.870988 0.798197
vt 0.736919 0.904794
vt 0.636688 0.828805
vt 0.939271 0.486355
vt 0.636688 0.828805
vt 0.584760 0.939392
vt 0.822837 0.680697
vn 0.000000 -1.000000 0.000000
vn 0.000000 -1.000000 0.000000
vn 0.000000 -1.000000 0.000000
vn 0.000000 -1.000000 0.000000
vn 0.704894 -0.106622 0.701254
vn -0.637756 -0.434204 -0.636188
vn 0.621323 -0.280771 0.731522
vn -0.733458 -0.281136 -0.618871
vn -0.907009 0.000646 0.421111
vn 0.907154 0.000000 0.420798
vn -0.337639 0.928194 -0.156384
vn 0.907188 0.000323 0.420725
vn 0.000000 -1.000000 0.000000
vn 0.000000 -1.000000 0.000000
vn -0.000000 0.939811 0.341694
vn 0.787766 0.000227 0.615975
vn -0.249174 0.935902 0.248999
vn -0.249129 0.935906 0.249027
vn -0.389361 -0.377895 -0.839996
vn -0.839724 -0.377773 0.390065
vn -0.705202 -0.106525 -0.700958
vn 0.390019 -0.377781 0.839742
vn -0.707679 -0.105744 -0.698577
vn 0.703991 -0.106525 -0.702175
vn -0.704198 -0.106792 0.701926
vn 0.705314 -0.106962 -0.700779
vn -0.637381 -0.433770 0.636859
vn -0.387952 0.389592 0.835291
vn -0.835274 0.389584 0.387998
vn 0.731033 -0.254324 0.633174
vn 0.907222 0.000645 0.420652
vn 0.000000 0.939820 0.341670
vn 0.249241 0.935901 0.248936
vn 0.389361 -0.377895 -0.839996
vn -0.636344 -0.254304 -0.728283
vn 0.337461 0.928244 0.156471
vn 0.337639 0.928194 0.156384
vn 0.421016 -0.000323 0.907053
vn 0.421016 -0.000323 0.907053
vn 0.000000 -1.000000 0.000000
vn 0.000000 -1.000000 0.000000
vn -0.907188 -0.000968 -0.420725
vn -0.907043 0.000323 0.421039
vn 0.620614 -0.280721 -0.732144
vn -0.840347 -0.378054 -0.388448
vn -0.620732 -0.280687 0.732056
vn -0.390019 -0.377781 0.839742
vn -0.703681 -0.106622 0.702470
vn -0.730042 -0.254134 0.634393
vn -0.616484 -0.002643 -0.787363
vn 0.907009 -0.000646 -0.421111
vn 0.907042 -0.000969 -0.421038
vn -0.907154 -0.000645 -0.420798
vn -0.421014 -0.003105 -0.907049
vn -0.421086 -0.003428 -0.907014
vn -0.421016 0.000323 0.907053
vn -0.707208 0.000344 0.707005
vn -0.707208 0.000000 0.707005
vn 0.706447 -0.107133 0.699611
vn 0.249427 0.935860 0.248901
vn -0.337464 0.928220 0.156604
vn 0.420942 -0.002137 -0.907085
vn 0.787634 -0.001662 -0.616141
vn 0.616419 -0.002188 -0.787415
vn 0.421015 -0.002459 -0.907050
vn -0.618257 -0.128890 -0.775336
vn -0.621427 0.081190 -0.779254
vn -0.949199 0.091282 -0.301147
vn 0.000000 -0.000000 1.000000
vn -0.787699 -0.001662 -0.616058
vn 0.637311 -0.433975 -0.636789
vn -0.645053 0.410407 0.644572
vn 0.637826 -0.433998 0.636258
vn 0.840230 -0.378001 0.388752
vn -0.337454 0.928223 0.156609
vn -0.337461 0.928244 -0.156471
vn 0.839842 -0.377826 -0.389761
vn 0.387415 0.389038 -0.835798
vn 0.730261 -0.254156 -0.634132
vn 0.835389 0.389638 -0.387695
vn 0.835772 0.389816 0.386689
vn 0.645142 0.410502 -0.644421
vn 0.222645 0.004651 -0.974888
vn 0.223595 0.027655 -0.974290
vn -0.625335 0.014933 -0.780213
vn 0.703489 0.117775 0.700880
vn -0.661313 0.369468 -0.652808
vn -0.659411 0.367203 -0.656002
vn -0.658844 0.366529 -0.656949
vn 0.895096 0.163547 -0.414795
vn 0.895548 0.163602 0.413797
vn 0.645427 0.410742 0.643984
vn 0.387952 0.389592 0.835291
vn 0.415159 0.163580 0.894921
vn 0.557903 0.086362 0.825400
vn -0.658006 0.367268 0.657375
vn 0.000000 0.000000 1.000000
vn 0.610219 0.092393 -0.786826
vn 0.221011 -0.121912 -0.967622
vn 0.000000 0.000000 1.000000
vn 0.000000 0.000000 1.000000
vn 0.000000 0.000000 1.000000
vn 0.827596 0.086338 0.554644
vn -0.659411 0.367203 -0.656002
vn -0.895086 0.163468 0.414849
vn -0.702626 0.117697 0.701758
vn -0.556966 0.086366 0.826032
vn -0.000505 -0.999998 -0.002170
vn 0.862689 0.299319 0.407647
vn -0.474626 -0.658536 -0.584004
vn 0.171835 -0.652088 -0.738413
vn 0.503059 -0.603203 -0.618933
vn 0.813928 -0.580555 0.021834
vn -0.658134 0.367421 0.657161
vn -0.658566 0.367934 0.656442
vn -0.387415 0.389038 -0.835798
vn -0.658134 0.367421 0.657161
vn -0.835887 0.389870 -0.386386
vn -0.895558 0.163681 -0.413744
vn -0.645517 0.410837 -0.643833
vn 0.660405 0.368961 0.654014
vn 0.657921 0.367573 -0.657290
vn 0.659108 0.367420 0.656185
vn 0.658723 0.366963 0.656828
vn -0.414778 0.163502 0.895113
vn 0.659108 0.367420 0.656185
vn -0.826664 0.086333 0.556034
vn -0.645854 0.702190 0.299671
vn 0.864288 0.288172 0.412267
vn 0.858294 0.271160 -0.435665
vn 0.415506 0.163529 -0.894770
vn -0.415888 0.163607 -0.894578
vn -0.558364 0.086398 -0.825085
vn -0.827596 0.086338 -0.554644
vn -0.703713 0.117855 -0.700641
vn 0.658438 0.367204 -0.656979
vn 0.658438 0.367204 -0.656979
vn 0.660174 0.365960 -0.655929
vn 0.826664 0.086333 -0.556034
vn 0.557427 0.086401 -0.825718
vn -0.586661 0.725756 0.359314
vn -0.587429 0.725896 -0.357774
vn -0.646110 0.702469 -0.298460
vn -0.359837 0.725864 0.586207
vn 0.702851 0.117777 -0.701519
vn -0.482776 0.731009 0.482238
vn 0.587258 0.725954 0.357936
vn -0.444357 0.708717 -0.547967
vn 0.483144 0.731232 0.481530
vn -0.360851 0.725879 -0.585565
vn -0.613646 -0.504822 -0.607118
vn -0.612841 -0.502541 -0.609818
vn -0.483497 0.731120 -0.481347
vn 0.000000 0.736015 0.676965
vn -0.249515 0.935860 -0.248813
vn 0.360162 0.725980 0.585864
vn -0.249304 0.935881 -0.248948
vn 0.646110 0.702469 0.298460
vn -0.076816 0.380174 -0.921720
vn 0.903691 0.410592 0.121474
vn 0.145602 -0.432414 -0.889842
vn 0.903691 0.410592 0.121474
vn 0.903691 0.410592 0.121474
vn -0.612841 -0.502541 -0.609818
vn -0.611583 -0.502643 0.610997
vn -0.611647 -0.502823 0.610784
vn -0.612550 -0.501718 -0.610788
vn -0.611647 -0.502823 0.610784
vn -0.611825 -0.503324 0.610193
vn 0.612318 -0.502281 0.610557
vn 0.612511 -0.502822 0.609919
vn 0.612511 -0.502822 0.609919
vn 0.000000 0.736015 -0.676965
vn 0.360525 0.725764 -0.585908
vn 0.613043 -0.504326 0.608139
vn 0.645854 0.702190 -0.299671
vn 0.483129 0.730896 -0.482055
vn 0.611814 -0.502080 -0.611228
vn 0.586832 0.725698 -0.359152
vn 0.337464 0.928220 -0.156604
vn 0.611978 -0.502542 -0.610684
vn 0.337454 0.928223 -0.156609
vn 0.611978 -0.502542 -0.610684
vn 0.612431 -0.503822 -0.609173
vn 0.249262 0.935902 -0.248911
vn 0.249192 0.935886 -0.249039
vn 0.602655 0.775645 0.187570
vn 0.000000 0.939796 -0.341737
vn 0.000000 0.939767 -0.341816
vn 0.160096 0.421177 -0.892737
vn 0.160096 0.421177 -0.892737
vn -0.073064 0.806830 -0.586248
vn 0.599020 0.800511 -0.018904
vn 0.959571 -0.237103 0.151673
vn 0.160096 0.421177 -0.892737
vn 0.160114 -0.420949 -0.892841
vn 0.865077 0.456147 0.208737
vn -0.084336 0.390305 0.916815
vn -0.084336 0.390305 0.916815
vn -0.092034 0.821038 0.563406
vn -0.497233 0.825207 0.267942
vn 0.179225 0.796785 0.577072
vn 0.041692 0.474742 0.879137
vn -0.903170 0.426572 -0.048170
vn -0.920808 -0.372442 -0.115755
vn -0.913819 0.383473 -0.133730
vn 0.325454 0.800108 -0.503891
vn 0.910885 -0.394077 0.122441
vn 0.902788 -0.407374 0.137917
vn -0.226858 0.910632 -0.345377
vn 0.391103 0.920267 0.012136
vn 0.388227 0.912181 -0.131167
vn -0.588074 0.808593 -0.018595
vn -0.913819 0.383473 -0.133730
vn -0.913819 0.383473 -0.133730
vn -0.973494 -0.202746 -0.105849
vn 0.316665 0.918593 -0.236452
vn 0.123051 0.910680 -0.394360
vn 0.252060 0.102453 -0.962273
vn -0.925068 -0.354855 -0.135376
vn -0.341725 0.920343 -0.190244
vn -0.084336 0.390305 0.916815
vn -0.077033 -0.399932 0.913302
vn -0.161708 -0.002160 0.986836
vn 0.355238 0.913335 0.199061
vn -0.084189 -0.394083 0.915211
vn 0.050743 0.912693 0.405483
vn -0.348267 0.921717 0.170730
vn 0.708670 -0.616451 0.343184
vn -0.757482 -0.652817 0.007167
vn 0.176570 -0.626743 0.758957
vn -0.480547 -0.636949 0.602802
vn 0.217934 0.241259 -0.945674
vn 0.870057 0.239452 -0.430887
vn 0.631482 0.091194 0.770009
vn 0.219321 0.247030 -0.943861
vn -0.613294 0.232736 -0.754788
vn -0.459824 0.808849 -0.366504
vn -0.595754 0.328355 0.732980
vn -0.973768 0.227075 -0.014584
vn -0.962298 0.270607 -0.027479
vn -0.612008 0.218428 -0.760090
vn -0.279106 0.640469 0.715472
vn 0.388006 0.635882 0.667162
vn 0.930876 0.322114 0.172374
vn 0.211522 0.336973 0.917446
vn -0.059853 0.634548 -0.770563
vn 0.897904 -0.055421 -0.436689
vn 0.563317 0.635376 -0.528177
vn 0.212782 0.342345 0.915163
vn -0.595286 0.315216 0.739104
vn -0.828315 0.326743 -0.455118
vn -0.744590 0.624283 0.236341
vn 0.900135 -0.039623 0.433806
vn 0.898790 -0.068246 -0.433035
vn 0.995681 0.091848 -0.013501
vn 0.222669 -0.018284 0.974723
vn 0.900940 -0.035861 0.432460
vn -0.998162 -0.060373 -0.005197
vn -0.623190 -0.030240 0.781485
vn -0.624580 -0.025711 0.780538
vn -0.621079 0.086809 0.778926
vn -0.996939 -0.078185 0.000000
vn 0.219658 0.155926 0.963036
vn 0.223251 -0.017575 0.974603
vn -0.827251 0.090657 0.554470
f 195/195/195 191/191/191 190/190/190
f 160/160/160 162/162/162 163/163/163
f 206/206/206 214/214/214 215/215/215
f 198/198/198 222/222/222 199/199/199
f 3/3/3 14/14/14 1/1/1
f 14/14/14 3/3/3 13/13/13
f 14/14/14 13/13/13 41/41/41
f 40/40/40 14/14/14 41/41/41
f 2/2/2 14/14/14 40/40/40
f 14/14/14 2/2/2 4/4/4
f 16/16/16 12/12/12 31/31/31
f 10/10/10 12/12/12 16/16/16
f 9/9/9 57/57/57 43/43/43
f 43/43/43 57/57/57 58/58/58
f 57/57/57 56/56/56 58/58/58
f 69/69/69 56/56/56 57/57/57
f 53/53/53 42/42/42 70/70/70
f 70/70/70 42/42/42 50/50/50
f 70/70/70 50/50/50 54/54/54
f 54/54/54 50/50/50 55/55/55
f 51/51/51 63/63/63 52/52/52
f 52/52/52 63/63/63 64/64/64
f 63/63/63 65/65/65 64/64/64
f 64/64/64 65/65/65 62/62/62
f 38/38/38 39/39/39 69/69/69
f 16/16/16 39/39/39 38/38/38
f 76/76/76 11/11/11 157/157/157
f 157/157/157 11/11/11 155/155/155
f 155/155/155 188/188/188 157/157/157
f 157/157/157 188/188/188 189/189/189
f 189/189/189 188/188/188 186/186/186
f 186/186/186 188/188/188 185/185/185
f 185/185/185 180/180/180 186/186/186
f 186/186/186 180/180/180 182/182/182
f 18/18/18 61/61/61 75/75/75
f 17/17/17 61/61/61 18/18/18
f 18/18/18 15/15/15 17/17/17
f 32/32/32 15/15/15 18/18/18
f 33/33/33 15/15/15 32/32/32
f 60/60/60 15/15/15 33/33/33
f 33/33/33 37/37/37 60/60/60
f 36/36/36 37/37/37 33/33/33
f 7/7/7 73/73/73 22/22/22
f 73/73/73 7/7/7 30/30/30
f 73/73/73 30/30/30 74/74/74
f 5/5/5 30/30/30 7/7/7
f 59/59/59 30/30/30 5/5/5
f 49/49/49 27/27/27 20/20/20
f 27/27/27 49/49/49 46/46/46
f 27/27/27 46/46/46 47/47/47
f 49/49/49 48/48/48 46/46/46
f 25/25/25 48/48/48 49/49/49
f 35/35/35 6/6/6 19/19/19
f 6/6/6 35/35/35 8/8/8
f 6/6/6 8/8/8 45/45/45
f 8/8/8 35/35/35 21/21/21
f 21/21/21 35/35/35 23/23/23
f 71/71/71 44/44/44 34/34/34
f 44/44/44 71/71/71 79/79/79
f 44/44/44 79/79/79 24/24/24
f 24/24/24 79/79/79 26/26/26
f 79/79/79 71/71/71 77/77/77
f 29/29/29 72/72/72 105/105/105
f 105/105/105 72/72/72 106/106/106
f 106/106/106 127/127/127 105/105/105
f 106/106/106 107/107/107 127/127/127
f 107/107/107 106/106/106 125/125/125
f 72/72/72 125/125/125 106/106/106
f 28/28/28 125/125/125 72/72/72
f 80/80/80 82/82/82 90/90/90
f 90/90/90 82/82/82 145/145/145
f 145/145/145 139/139/139 90/90/90
f 139/139/139 145/145/145 140/140/140
f 140/140/140 145/145/145 131/131/131
f 82/82/82 131/131/131 145/145/145
f 78/78/78 131/131/131 82/82/82
f 81/81/81 91/91/91 92/92/92
f 92/92/92 91/91/91 86/86/86
f 94/94/94 92/92/92 86/86/86
f 93/93/93 92/92/92 94/94/94
f 103/103/103 86/86/86 91/91/91
f 86/86/86 103/103/103 95/95/95
f 86/86/86 95/95/95 94/94/94
f 88/88/88 104/104/104 87/87/87
f 89/89/89 104/104/104 88/88/88
f 114/114/114 117/117/117 96/96/96
f 115/115/115 117/117/117 114/114/114
f 116/116/116 120/120/120 132/132/132
f 132/132/132 120/120/120 135/135/135
f 135/135/135 133/133/133 132/132/132
f 135/135/135 134/134/134 133/133/133
f 134/134/134 135/135/135 119/119/119
f 120/120/120 119/119/119 135/135/135
f 118/118/118 119/119/119 120/120/120
f 123/123/123 126/126/126 121/121/121
f 124/124/124 126/126/126 123/123/123
f 136/136/136 137/137/137 138/138/138
f 122/122/122 137/137/137 136/136/136
f 144/144/144 146/146/146 154/154/154
f 146/146/146 144/144/144 141/141/141
f 146/146/146 141/141/141 128/128/128
f 142/142/142 153/153/153 143/143/143
f 153/153/153 142/142/142 150/150/150
f 153/153/153 150/150/150 173/173/173
f 152/152/152 164/164/164 151/151/151
f 167/167/167 164/164/164 152/152/152
f 166/166/166 168/168/168 165/165/165
f 169/169/169 168/168/168 166/166/166
f 149/149/149 156/156/156 154/154/154
f 156/156/156 149/149/149 147/147/147
f 147/147/147 149/149/149 158/158/158
f 171/171/171 172/172/172 170/170/170
f 175/175/175 172/172/172 171/171/171
f 174/174/174 177/177/177 173/173/173
f 177/177/177 174/174/174 179/179/179
f 177/177/177 179/179/179 176/176/176
f 181/181/181 183/183/183 178/178/178
f 184/184/184 183/183/183 181/181/181
f 159/159/159 192/192/192 148/148/148
f 192/192/192 159/159/159 219/219/219
f 192/192/192 219/219/219 207/207/207
f 193/193/193 207/207/207 219/219/219
f 161/161/161 219/219/219 159/159/159
f 196/196/196 219/219/219 161/161/161
f 187/187/187 193/193/193 197/197/197
f 197/197/197 193/193/193 194/194/194
f 194/194/194 209/209/209 197/197/197
f 208/208/208 209/209/209 194/194/194
f 220/220/220 216/216/216 205/205/205
f 205/205/205 216/216/216 204/204/204
f 216/216/216 213/213/213 204/204/204
f 204/204/204 213/213/213 201/201/201
f 217/217/217 249/249/249 218/218/218
f 249/249/249 247/247/247 218/218/218
f 218/218/218 247/247/247 210/210/210
f 238/238/238 210/210/210 247/247/247
f 221/221/221 210/210/210 238/238/238
f 221/221/221 238/238/238 228/228/228
f 249/249/249 98/98/98 247/247/247
f 247/247/247 98/98/98 83/83/83
f 98/98/98 99/99/99 83/83/83
f 83/83/83 99/99/99 84/84/84
f 233/233/233 84/84/84 99/99/99
f 236/236/236 84/84/84 233/233/233
f 249/249/249 256/256/256 98/98/98
f 256/256/256 248/248/248 98/98/98
f 98/98/98 248/248/248 255/255/255
f 255/255/255 248/248/248 234/234/234
f 234/234/234 248/248/248 130/130/130
f 245/245/245 256/256/256 249/249/249
f 245/245/245 235/235/235 256/256/256
f 235/235/235 258/258/258 256/256/256
f 256/256/256 258/258/258 254/254/254
f 254/254/254 258/258/258 129/129/129
f 129/129/129 258/258/258 109/109/109
f 244/244/244 235/235/235 245/245/245
f 244/244/244 264/264/264 235/235/235
f 264/264/264 265/265/265 235/235/235
f 235/235/235 265/265/265 257/257/257
f 257/257/257 265/265/265 246/246/246
f 246/246/246 265/265/265 250/250/250
f 243/243/243 264/264/264 244/244/244
f 243/243/243 244/244/244 227/227/227
f 228/228/228 243/243/243 227/227/227
f 253/253/253 243/243/243 228/228/228
f 253/253/253 266/266/266 243/243/243
f 243/243/243 266/266/266 262/262/262
f 266/266/266 261/261/261 262/262/262
f 227/227/227 244/244/244 225/225/225
f 244/244/244 211/211/211 225/225/225
f 225/225/225 211/211/211 212/212/212
f 211/211/211 249/249/249 212/212/212
f 228/228/228 238/238/238 253/253/253
f 247/247/247 67/67/67 238/238/238
f 260/260/260 261/261/261 266/266/266
f 251/251/251 261/261/261 260/260/260
f 239/239/239 261/261/261 251/251/251
f 200/200/200 224/224/224 201/201/201
f 224/224/224 200/200/200 203/203/203
f 223/223/223 224/224/224 203/203/203
f 226/226/226 224/224/224 223/223/223
f 203/203/203 200/200/200 202/202/202
f 108/108/108 113/113/113 229/229/229
f 108/108/108 229/229/229 231/231/231
f 108/108/108 231/231/231 232/232/232
f 108/108/108 232/232/232 230/230/230
f 108/108/108 230/230/230 110/110/110
f 108/108/108 110/110/110 111/111/111
f 108/108/108 111/111/111 112/112/112
f 242/242/242 85/85/85 237/237/237
f 66/66/66 85/85/85 242/242/242
f 85/85/85 66/66/66 67/67/67
f 67/67/67 66/66/66 68/68/68
f 252/252/252 67/67/67 68/68/68
f 252/252/252 68/68/68 253/253/253
f 253/253/253 68/68/68 266/266/266
f 68/68/68 259/259/259 266/266/266
f 263/263/263 259/259/259 68/68/68
f 240/240/240 259/259/259 263/263/263
f 241/241/241 259/259/259 240/240/240
f 102/102/102 101/101/101 97/97/97
f 100/100/100 101/101/101 102/102/102
