# Exported by s4extract — object_barProQA4x1_01_lod00_g01
o object_barProQA4x1_01_lod00_g01
v 0.965208 0.635781 -0.417201
v 1.113471 0.635781 -0.406275
v 1.121467 0.635781 -0.395288
v 1.121467 0.635781 -0.417201
v 1.125008 0.629128 -0.406275
v 1.125008 0.629128 -0.406275
v 0.978087 0.635781 -0.399499
v 0.966307 0.716596 -0.413783
v 0.975157 0.716596 -0.410914
v 0.945859 0.605994 -0.437954
v 1.018983 0.548373 -0.442776
v 1.125008 0.629128 -0.406275
v 0.984496 0.605994 -0.454312
v 0.960813 0.716596 -0.406275
v 0.966307 0.716596 -0.413783
v 1.006104 0.605994 -0.394128
v 0.968870 0.605994 -0.367088
v 1.018983 0.548373 -0.369713
v 1.010743 0.605994 -0.436672
v 0.917048 0.605994 -0.406275
v 0.927974 0.605994 -0.435940
v 0.918513 0.548373 -0.369713
v 0.952878 0.605994 -0.356955
v 0.927974 0.605994 -0.376549
v 0.987914 0.548373 -0.347189
v 1.030886 0.548373 -0.406275
v 1.010743 0.605994 -0.375816
v 1.019410 0.605994 -0.406275
v 0.968870 0.605994 -0.367088
v 1.006104 0.605994 -0.394128
v 0.965208 0.635781 -0.395288
v 1.006104 0.605994 -0.394128
v 0.978087 0.635781 -0.399499
v 0.965208 0.635781 -0.417201
v 0.978087 0.635781 -0.413050
v 0.975157 0.716596 -0.401575
v 0.966307 0.716596 -0.398706
v 0.960813 0.716596 -0.406275
v 0.965208 0.635781 -0.395288
v 0.957212 0.635781 -0.406275
v 0.966307 0.716596 -0.398706
v 0.991882 0.605994 -0.437954
v 1.125008 0.629128 -0.406275
v 1.134347 0.635781 -0.413050
v 1.030886 0.548373 -0.406275
v 1.018983 0.548373 -0.442776
v 0.991882 0.605994 -0.437954
v 0.918513 0.548373 -0.369713
v 0.945859 0.605994 -0.437954
v 0.949582 0.548373 -0.465299
v 0.987914 0.548373 -0.465299
v 0.931636 0.605994 -0.394128
v 0.906611 0.548373 -0.406275
v 0.949582 0.548373 -0.347189
v 0.918513 0.548373 -0.442776
v 0.968870 0.605994 -0.367088
v 0.931636 0.605994 -0.394128
v 0.906611 0.548373 -0.406275
v 0.949582 0.548373 -0.347189
v 0.987914 0.548373 -0.347189
v 1.018983 0.548373 -0.369713
v 0.984496 0.605994 -0.358176
v 0.949582 0.548373 -0.347189
v 0.918513 0.548373 -0.442776
v 0.987914 0.548373 -0.465299
v 0.957212 0.635781 -0.406275
v 1.121467 0.635781 -0.417201
v 1.134347 0.635781 -0.399499
v 1.125008 0.629128 -0.406275
v 1.084234 0.605994 -0.435940
v 1.074773 0.548373 -0.442776
v 1.167002 0.605994 -0.436672
v 1.140756 0.605994 -0.454312
v 1.144174 0.548373 -0.465299
v 1.122566 0.716596 -0.413783
v 1.134347 0.635781 -0.399499
v 1.121467 0.635781 -0.395288
v 1.113471 0.635781 -0.406275
v 1.134347 0.635781 -0.399499
v 1.144174 0.548373 -0.347189
v 1.113471 0.635781 -0.406275
v 1.109138 0.605994 -0.356955
v 1.105780 0.548373 -0.347189
v 1.074773 0.548373 -0.369713
v 1.105780 0.548373 -0.465299
v 1.144174 0.548373 -0.465299
v 1.102118 0.605994 -0.437954
v 1.175243 0.548373 -0.369713
v 1.175670 0.605994 -0.406275
v 1.187084 0.548373 -0.406275
v 1.144174 0.548373 -0.347189
v 1.162363 0.605994 -0.394128
v 1.175243 0.548373 -0.369713
v 1.105780 0.548373 -0.347189
v 1.125130 0.605994 -0.367088
v 1.105780 0.548373 -0.347189
v 1.062870 0.548373 -0.406275
v 1.074773 0.548373 -0.442776
v 1.121467 0.635781 -0.417201
v 1.122566 0.716596 -0.413783
v 1.131417 0.716596 -0.410914
v 1.134347 0.635781 -0.399499
v 1.134347 0.635781 -0.413050
v 1.105780 0.548373 -0.347189
v 1.131417 0.716596 -0.401575
v 1.109138 0.605994 -0.356955
v 1.109138 0.605994 -0.455533
v 1.105780 0.548373 -0.465299
v 1.131417 0.716596 -0.410914
v 1.134347 0.635781 -0.413050
v 1.134347 0.635781 -0.413050
v 1.121467 0.635781 -0.417201
v -0.015992 0.256241 -0.458158
v 1.122566 0.716596 -0.398706
v 1.117073 0.716596 -0.406275
v 1.121467 0.635781 -0.395288
v 1.148141 0.605994 -0.437954
v 1.113471 0.635781 -0.406275
v 1.122566 0.716596 -0.398706
v 1.131417 0.716596 -0.401575
v 1.121467 0.635781 -0.395288
v 1.162363 0.605994 -0.394128
v 1.187084 0.548373 -0.406275
v 1.162363 0.605994 -0.394128
v 1.148141 0.605994 -0.437954
v 1.175243 0.548373 -0.442776
v 1.167002 0.605994 -0.375816
v 1.102118 0.605994 -0.437954
v 1.087896 0.605994 -0.394128
v 1.074773 0.548373 -0.369713
v 1.087896 0.605994 -0.394128
v 1.125130 0.605994 -0.367088
v 1.140756 0.605994 -0.358176
v 1.084234 0.605994 -0.376549
v 1.073308 0.605994 -0.406275
v 1.062870 0.548373 -0.406275
v 1.175243 0.548373 -0.442776
v 1.117073 0.716596 -0.406275
v -0.070561 0.256241 -0.470549
v -0.094732 0.183910 -0.428432
v -0.101141 0.256241 -0.428432
v -0.094732 0.183910 -0.428432
v -0.101141 0.256241 -0.428432
v -0.068547 0.183910 -0.392419
v -0.015992 0.256241 -0.398767
v -0.072453 0.256241 -0.380455
v -0.107367 0.256241 -0.428432
v -0.072453 0.256241 -0.476470
v -0.026186 0.183910 -0.450711
v -0.021058 0.256241 -0.454496
v -0.026186 0.183910 -0.406214
v -0.021058 0.256241 -0.402429
v -0.021058 0.256241 -0.402429
v -0.026186 0.183910 -0.406214
v -0.070561 0.256241 -0.386376
v -0.068547 0.183910 -0.392419
v -0.070561 0.256241 -0.386376
v -0.068547 0.183910 -0.464506
v -0.021058 0.256241 -0.454496
v -0.070561 0.256241 -0.470549
v -0.068547 0.183910 -0.464506
v -0.026186 0.183910 -0.450711
v -0.006348 0.256241 -0.428432
v -0.021058 0.256241 -0.402429
v -0.070561 0.256241 -0.386376
v -0.041262 0.256241 -0.380455
v 0.965208 0.635781 -0.417201
v 0.957212 0.635781 -0.406275
v 0.978087 0.635781 -0.399499
v 0.968748 0.629128 -0.406275
v 0.968748 0.629128 -0.406275
v 1.250015 0.562473 -0.487273
v 1.499969 0.562473 -0.487273
v 1.937496 0.854056 -0.500031
v 1.562473 0.157175 -0.500031
v 1.499969 0.716596 -0.487273
v -0.097723 0.256241 -0.398767
v -0.097723 0.256241 -0.458158
v -0.070561 0.256241 -0.470549
v -0.101141 0.256241 -0.428432
v -0.041262 0.256241 -0.476470
v -0.068547 0.183910 -0.392419
v -0.094732 0.183910 -0.428432
v -0.021058 0.256241 -0.454496
v -0.026186 0.183910 -0.406214
v -0.026186 0.183910 -0.450711
v -0.015077 0.156260 -0.428432
v -0.068547 0.183910 -0.464506
v -0.006348 0.256241 -0.428432
v -0.023073 0.156260 -0.403894
v -0.015992 0.256241 -0.398767
v -0.015992 0.256241 -0.398767
v -0.043948 0.156260 -0.388757
v -0.069767 0.156260 -0.388757
v -0.072453 0.256241 -0.380455
v -0.041262 0.256241 -0.380455
v 0.965208 0.635781 -0.417201
v 1.562473 0.854056 -0.500031
v 1.937496 0.157175 -0.500031
v 1.250015 0.716596 -0.487273
v 0.965208 0.635781 -0.395288
v -0.243606 0.256241 -0.406275
v -0.208753 0.256241 -0.358237
v -0.152292 0.256241 -0.376549
v -0.152292 0.256241 -0.435940
v -0.208753 0.256241 -0.454251
v -0.015992 0.256241 -0.458158
v -0.097723 0.256241 -0.398767
v -0.090643 0.156260 -0.403894
v -0.098639 0.156260 -0.428432
v -0.107367 0.256241 -0.428432
v -0.097723 0.256241 -0.458158
v -0.090643 0.156260 -0.453031
v -0.072453 0.256241 -0.476470
v -0.069767 0.156260 -0.468168
v -0.069767 0.156260 -0.468168
v -0.072453 0.256241 -0.476470
v -0.043948 0.156260 -0.468168
v -0.041262 0.256241 -0.476470
v -0.023073 0.156260 -0.453031
v -0.157297 0.256241 -0.380211
v -0.162486 0.183910 -0.383996
v -0.162486 0.183910 -0.428493
v -0.157297 0.256241 -0.432277
v -0.157297 0.256241 -0.380211
v -0.162486 0.183910 -0.383996
v -0.206800 0.256241 -0.364158
v -0.206800 0.256241 -0.364158
v -0.204846 0.183910 -0.370201
v 0.949582 0.548373 -0.465299
v 0.975157 0.716596 -0.401575
v 0.978087 0.635781 -0.413050
v 0.965208 0.635781 -0.395288
v 0.978087 0.635781 -0.399499
v 0.968748 0.629128 -0.406275
v 0.968748 0.629128 -0.406275
v 0.957212 0.635781 -0.406275
v 0.949582 0.548373 -0.347189
v 0.952878 0.605994 -0.356955
v -0.204846 0.183910 -0.370201
v -0.231032 0.183910 -0.406275
v -0.237380 0.256241 -0.406275
v -0.237380 0.256241 -0.406275
v -0.231032 0.183910 -0.406275
v -0.204846 0.183910 -0.442288
v -0.206800 0.256241 -0.448331
v -0.206800 0.256241 -0.448331
v -0.204846 0.183910 -0.442288
v -0.162486 0.183910 -0.428493
v -0.142648 0.256241 -0.406275
v -0.157297 0.256241 -0.432277
v -0.157297 0.256241 -0.380211
v -0.206800 0.256241 -0.364158
v -0.233962 0.256241 -0.376549
v -0.177562 0.256241 -0.358237
v -0.237380 0.256241 -0.406275
v -0.206800 0.256241 -0.448331
v -0.177562 0.256241 -0.454251
v -0.233962 0.256241 -0.435940
v 0.975157 0.716596 -0.410914
v 0.978087 0.635781 -0.413050
v 0.968748 0.629128 -0.406275
v 0.978087 0.635781 -0.413050
v 0.952878 0.605994 -0.455533
v -0.157297 0.256241 -0.432277
v -0.231032 0.183910 -0.406275
v -0.162486 0.183910 -0.383996
v -0.204846 0.183910 -0.370201
v -0.520906 0.406275 -0.311481
v -0.548617 0.489227 -0.345114
v -0.561497 0.489227 -0.327413
v -0.579259 0.559971 -0.272722
v -0.208753 0.256241 -0.454251
v -0.159373 0.156260 -0.430812
v -0.572117 0.406275 -0.381920
v -0.152292 0.256241 -0.435940
v -0.233962 0.256241 -0.435940
v -0.206067 0.156260 -0.445950
v -0.177562 0.256241 -0.454251
v -0.208753 0.256241 -0.454251
v -0.560398 0.416407 -0.345907
v -0.551547 0.416407 -0.333700
v -0.561497 0.489227 -0.349326
v -0.561497 0.489227 -0.327413
v -0.561497 0.489227 -0.327413
v -0.560398 0.416407 -0.330831
v -0.561497 0.489227 -0.349326
v -0.595007 0.406275 -0.311481
v -0.417811 0.489227 -0.349142
v -0.488921 0.559971 -0.338339
v -0.548617 0.489227 -0.345114
v -0.626930 0.559971 -0.338339
v -0.579259 0.559971 -0.272722
v -0.502106 0.559971 -0.297809
v -0.613807 0.559971 -0.297809
v -0.557956 0.495880 -0.338339
v -0.579259 0.559971 -0.404016
v -0.557956 0.495880 -0.338339
v -0.579259 0.559971 -0.404016
v -0.536654 0.559971 -0.404016
v -0.548617 0.489227 -0.345114
v -0.502106 0.559971 -0.378929
v -0.488921 0.559971 -0.338339
v -0.502106 0.559971 -0.378929
v -0.409815 0.489227 -0.338155
v -0.579259 0.559971 -0.404016
v -0.561497 0.489227 -0.349326
v -0.408716 0.416407 -0.341574
v -0.204846 0.183910 -0.442288
v -0.151376 0.156260 -0.406275
v -0.142648 0.256241 -0.406275
v -0.162486 0.183910 -0.428493
v -0.152292 0.256241 -0.376549
v -0.152292 0.256241 -0.376549
v -0.180248 0.156260 -0.366538
v -0.159373 0.156260 -0.381676
v -0.177562 0.256241 -0.358237
v -0.208753 0.256241 -0.358237
v -0.233962 0.256241 -0.376549
v -0.206067 0.156260 -0.366538
v -0.226943 0.156260 -0.381676
v -0.243606 0.256241 -0.406275
v -0.226943 0.156260 -0.430812
v -0.234878 0.156260 -0.406275
v -0.520906 0.406275 -0.365257
v -0.569493 0.489227 -0.338339
v -0.551547 0.416407 -0.343039
v -0.569493 0.489227 -0.338339
v -0.561497 0.489227 -0.349326
v -0.603736 0.406275 -0.338339
v -0.206067 0.156260 -0.445950
v -0.548617 0.489227 -0.331563
v -0.548617 0.489227 -0.331563
v -0.560398 0.416407 -0.330831
v -0.536654 0.559971 -0.272722
v -0.613807 0.559971 -0.378929
v -0.548617 0.489227 -0.331563
v -0.536654 0.559971 -0.404016
v -0.579259 0.559971 -0.404016
v -0.548617 0.489227 -0.345114
v -0.560398 0.416407 -0.345907
v -0.180248 0.156260 -0.445950
v -0.572117 0.406275 -0.381920
v -0.613807 0.559971 -0.378929
v -0.626930 0.559971 -0.338339
v -0.613807 0.559971 -0.297809
v -0.569493 0.489227 -0.338339
v -0.427577 0.559971 -0.283526
v -0.409815 0.489227 -0.338155
v -0.396936 0.489227 -0.342367
v -0.408716 0.416407 -0.356711
v -0.420375 0.406275 -0.392663
v -0.409815 0.489227 -0.338155
v -0.396936 0.489227 -0.355918
v -0.417811 0.489227 -0.349142
v -0.543795 0.406275 -0.381920
v -0.551547 0.416407 -0.343039
v -0.369224 0.406275 -0.322224
v -0.452054 0.406275 -0.349142
v -0.384911 0.559971 -0.283526
v -0.408716 0.416407 -0.356711
v -0.443264 0.406275 -0.322224
v -0.396936 0.489227 -0.355918
v -0.396936 0.489227 -0.342367
v -0.399805 0.416407 -0.353781
v -0.408716 0.416407 -0.356711
v -0.462064 0.559971 -0.308552
v -0.392114 0.406275 -0.392663
v -0.475249 0.559971 -0.349142
v -0.443264 0.406275 -0.376061
v -0.414210 0.416407 -0.349142
v -0.406275 0.495880 -0.349142
v -0.427577 0.559971 -0.414759
v -0.462064 0.559971 -0.389672
v -0.406275 0.495880 -0.349142
v -0.384911 0.559971 -0.414759
v -0.350424 0.559971 -0.389672
v -0.396936 0.489227 -0.355918
v -0.337240 0.559971 -0.349142
v -0.350424 0.559971 -0.389672
v -0.384911 0.559971 -0.414759
v -0.462064 0.559971 -0.389672
v -0.427577 0.559971 -0.414759
v -0.417811 0.489227 -0.349142
v -0.399805 0.416407 -0.353781
v -0.350424 0.559971 -0.308552
v -0.462064 0.559971 -0.308552
v -0.408716 0.416407 -0.356711
v -0.502106 0.559971 -0.297809
v -0.536654 0.559971 -0.272722
v -0.512177 0.406275 -0.338339
v -0.548617 0.489227 -0.331563
v -0.551547 0.416407 -0.333700
v -0.572117 0.406275 -0.294818
v -0.560398 0.416407 -0.330831
v -0.543795 0.406275 -0.294818
v -0.565891 0.416407 -0.338339
v -0.569493 0.489227 -0.338339
v -0.561497 0.489227 -0.327413
v -0.560398 0.416407 -0.330831
v -0.565891 0.416407 -0.338339
v -0.560398 0.416407 -0.345907
v -0.560398 0.416407 -0.345907
v -0.595007 0.406275 -0.365257
v -0.409815 0.489227 -0.338155
v -0.396936 0.489227 -0.355918
v -0.350424 0.559971 -0.308552
v -0.337240 0.559971 -0.349142
v -0.399805 0.416407 -0.344442
v -0.427577 0.559971 -0.414759
v -0.420375 0.406275 -0.392663
v -0.409815 0.489227 -0.360129
v -0.409815 0.489227 -0.360129
v -0.427577 0.559971 -0.283526
v -0.427577 0.559971 -0.414759
v -0.396936 0.489227 -0.342367
v -0.409815 0.489227 -0.360129
v -0.475249 0.559971 -0.349142
v -0.408716 0.416407 -0.341574
v -0.417811 0.489227 -0.349142
v -0.408716 0.416407 -0.341574
v -0.369224 0.406275 -0.376061
v -0.409815 0.489227 -0.360129
v -0.396936 0.489227 -0.342367
v -0.360496 0.406275 -0.349142
v -0.399805 0.416407 -0.344442
v -0.384911 0.559971 -0.283526
v -0.392114 0.406275 -0.305622
v -0.408716 0.416407 -0.341574
v -0.414210 0.416407 -0.349142
v -0.420375 0.406275 -0.305622
vt 0.188442 0.203472
vt 0.102148 0.203472
vt 0.448461 0.203472
vt 0.188442 0.203472
vt 0.207375 0.261966
vt 0.207375 0.261966
vt 0.360505 0.203472
vt 0.189796 0.052682
vt 0.272888 0.052682
vt 0.208545 0.332681
vt 0.274273 0.244387
vt 0.207375 0.261966
vt 0.231326 0.225392
vt 0.107074 0.052682
vt 0.189796 0.052682
vt 0.068838 0.332681
vt 0.038575 0.332681
vt 0.073363 0.407091
vt 0.274242 0.225392
vt 0.102025 0.225392
vt 0.145310 0.225392
vt 0.057847 0.244387
vt 0.013146 0.225392
vt 0.058001 0.225392
vt 0.404775 0.244387
vt 0.317374 0.244387
vt 0.360628 0.225392
vt 0.317374 0.225392
vt 0.038575 0.332681
vt 0.156978 0.332681
vt 0.448461 0.203472
vt 0.068838 0.332681
vt 0.360505 0.203472
vt 0.188442 0.203472
vt 0.274211 0.203472
vt 0.355610 0.052682
vt 0.025799 0.052682
vt 0.107074 0.052682
vt 0.014192 0.203472
vt 0.102148 0.203472
vt 0.436885 0.052682
vt 0.179083 0.332681
vt 0.049966 0.261966
vt 0.274211 0.203472
vt 0.103934 0.407091
vt 0.134227 0.407091
vt 0.179083 0.332681
vt 0.286464 0.407091
vt 0.208545 0.332681
vt 0.194660 0.407091
vt 0.164428 0.407091
vt 0.238376 0.332681
vt 0.255524 0.407091
vt 0.318082 0.407091
vt 0.224954 0.407091
vt 0.261312 0.332681
vt 0.238376 0.332681
vt 0.101902 0.244387
vt 0.010806 0.407091
vt 0.042423 0.407091
vt 0.360751 0.244387
vt 0.404652 0.225392
vt 0.012222 0.244387
vt 0.145310 0.244387
vt 0.231326 0.244387
vt 0.102148 0.203472
vt 0.188442 0.203472
vt 0.360505 0.203472
vt 0.207375 0.261966
vt 0.145310 0.225392
vt 0.145310 0.244387
vt 0.274242 0.225392
vt 0.231326 0.225392
vt 0.231326 0.244387
vt 0.189796 0.052682
vt 0.360505 0.203472
vt 0.014192 0.203472
vt 0.102148 0.203472
vt 0.360505 0.203472
vt 0.404775 0.244387
vt 0.102148 0.203472
vt 0.013146 0.225392
vt 0.012222 0.244387
vt 0.057847 0.244387
vt 0.194660 0.407091
vt 0.164428 0.407091
vt 0.208545 0.332681
vt 0.360751 0.244387
vt 0.317374 0.225392
vt 0.317374 0.244387
vt 0.042423 0.407091
vt 0.068838 0.332681
vt 0.073363 0.407091
vt 0.010806 0.407091
vt 0.261312 0.332681
vt 0.318082 0.407091
vt 0.255524 0.407091
vt 0.224954 0.407091
vt 0.188442 0.203472
vt 0.189796 0.052682
vt 0.272888 0.052682
vt 0.360505 0.203472
vt 0.274211 0.203472
vt 0.450400 0.244387
vt 0.355610 0.052682
vt 0.449507 0.225392
vt 0.188411 0.225392
vt 0.188380 0.244387
vt 0.272888 0.052682
vt 0.274211 0.203472
vt 0.274211 0.203472
vt 0.188442 0.203472
vt 0.478385 0.364114
vt 0.025799 0.052682
vt 0.107074 0.052682
vt 0.014192 0.203472
vt 0.179083 0.332681
vt 0.102148 0.203472
vt 0.436885 0.052682
vt 0.355610 0.052682
vt 0.448461 0.203472
vt 0.156978 0.332681
vt 0.103934 0.407091
vt 0.068838 0.332681
vt 0.179083 0.332681
vt 0.134227 0.407091
vt 0.360628 0.225392
vt 0.208545 0.332681
vt 0.238376 0.332681
vt 0.286464 0.407091
vt 0.238376 0.332681
vt 0.038575 0.332681
vt 0.404652 0.225392
vt 0.058001 0.225392
vt 0.102025 0.225392
vt 0.101902 0.244387
vt 0.274273 0.244387
vt 0.107074 0.052682
vt 0.318082 0.407091
vt 0.250814 0.261966
vt 0.255524 0.407091
vt 0.250814 0.261966
vt 0.255524 0.407091
vt 0.193367 0.261966
vt 0.478385 0.278375
vt 0.396863 0.251899
vt 0.346466 0.321260
vt 0.396863 0.390590
vt 0.078073 0.261966
vt 0.073363 0.407091
vt 0.135520 0.261966
vt 0.134227 0.407091
vt 0.134227 0.407091
vt 0.135520 0.261966
vt 0.194660 0.407091
vt 0.193367 0.261966
vt 0.194660 0.407091
vt 0.022074 0.261966
vt 0.073363 0.407091
vt 0.010806 0.407091
vt 0.306814 0.261966
vt 0.078073 0.261966
vt 0.492331 0.321260
vt 0.466994 0.286687
vt 0.401235 0.265291
vt 0.441934 0.251899
vt 0.188442 0.203472
vt 0.102148 0.203472
vt 0.360505 0.203472
vt 0.207375 0.261966
vt 0.207375 0.261966
vt 0.522624 0.542704
vt 0.022628 0.542704
vt 0.575792 0.819963
vt 0.950581 0.123213
vt 0.022628 0.850872
vt 0.360412 0.278375
vt 0.360412 0.364114
vt 0.401235 0.377198
vt 0.360566 0.321260
vt 0.441934 0.390590
vt 0.403821 0.272772
vt 0.368663 0.321198
vt 0.466994 0.355832
vt 0.460744 0.291274
vt 0.460744 0.351091
vt 0.313556 0.011398
vt 0.403821 0.369594
vt 0.317374 0.244387
vt 0.272518 0.011398
vt 0.274273 0.244387
vt 0.274273 0.244387
vt 0.231357 0.011398
vt 0.190166 0.011398
vt 0.188380 0.244387
vt 0.231326 0.244387
vt 0.188442 0.203472
vt 0.950797 0.819963
vt 0.576007 0.123213
vt 0.522624 0.850872
vt 0.448461 0.203472
vt 0.346466 0.321260
vt 0.396863 0.251899
vt 0.478385 0.278375
vt 0.478385 0.364114
vt 0.396863 0.390590
vt 0.360751 0.244387
vt 0.145310 0.244387
vt 0.149128 0.011398
vt 0.108429 0.011398
vt 0.101902 0.244387
vt 0.057847 0.244387
vt 0.068253 0.011398
vt 0.012222 0.244387
vt 0.028970 0.011398
vt 0.433683 0.011398
vt 0.450400 0.244387
vt 0.394400 0.011398
vt 0.404775 0.244387
vt 0.354255 0.011398
vt 0.134227 0.407091
vt 0.135520 0.261966
vt 0.078073 0.261966
vt 0.073363 0.407091
vt 0.134227 0.407091
vt 0.135520 0.261966
vt 0.194660 0.407091
vt 0.194660 0.407091
vt 0.193367 0.261966
vt 0.188380 0.244387
vt 0.355610 0.052682
vt 0.274211 0.203472
vt 0.014192 0.203472
vt 0.360505 0.203472
vt 0.049966 0.261966
vt 0.207375 0.261966
vt 0.102148 0.203472
vt 0.450400 0.244387
vt 0.449507 0.225392
vt 0.193367 0.261966
vt 0.250814 0.261966
vt 0.255524 0.407091
vt 0.255524 0.407091
vt 0.250814 0.261966
vt 0.306814 0.261966
vt 0.010806 0.407091
vt 0.318082 0.407091
vt 0.022074 0.261966
vt 0.078073 0.261966
vt 0.492331 0.321260
vt 0.073363 0.407091
vt 0.466994 0.286687
vt 0.401235 0.265291
vt 0.360412 0.278375
vt 0.441934 0.251899
vt 0.360566 0.321260
vt 0.401235 0.377198
vt 0.441934 0.390590
vt 0.360412 0.364114
vt 0.272888 0.052682
vt 0.274211 0.203472
vt 0.207375 0.261966
vt 0.274211 0.203472
vt 0.188411 0.225392
vt 0.466994 0.355832
vt 0.368663 0.321198
vt 0.460744 0.291274
vt 0.403821 0.272772
vt 0.272518 0.006195
vt 0.360505 0.203472
vt 0.188442 0.203472
vt 0.188380 0.244387
vt 0.450400 0.244387
vt 0.354255 0.011398
vt 0.433683 0.006195
vt 0.360751 0.244387
vt 0.057847 0.244387
vt 0.028970 0.011398
vt 0.404775 0.244387
vt 0.012222 0.244387
vt 0.436885 0.052682
vt 0.272888 0.052682
vt 0.014192 0.203472
vt 0.188442 0.203472
vt 0.188442 0.203472
vt 0.189796 0.052682
vt 0.448461 0.203472
vt 0.149128 0.006195
vt 0.102148 0.203472
vt 0.103934 0.407091
vt 0.360505 0.203472
vt 0.255524 0.407091
vt 0.194660 0.407091
vt 0.134227 0.407091
vt 0.224954 0.407091
vt 0.207375 0.261966
vt 0.010806 0.407091
vt 0.049966 0.261966
vt 0.318082 0.407091
vt 0.042423 0.407091
vt 0.360505 0.203472
vt 0.073363 0.407091
vt 0.317374 0.244387
vt 0.360751 0.244387
vt 0.188442 0.203472
vt 0.012222 0.244387
vt 0.014192 0.203472
vt 0.189796 0.052682
vt 0.403821 0.369594
vt 0.313556 0.011398
vt 0.317374 0.244387
vt 0.460744 0.351091
vt 0.274273 0.244387
vt 0.274273 0.244387
vt 0.231357 0.011398
vt 0.272518 0.011398
vt 0.231326 0.244387
vt 0.188380 0.244387
vt 0.145310 0.244387
vt 0.190166 0.011398
vt 0.149128 0.011398
vt 0.101902 0.244387
vt 0.068253 0.011398
vt 0.108429 0.011398
vt 0.354255 0.006195
vt 0.102148 0.203472
vt 0.355610 0.052682
vt 0.102148 0.203472
vt 0.448461 0.203472
vt 0.108429 0.006195
vt 0.433683 0.011398
vt 0.274211 0.203472
vt 0.274211 0.203472
vt 0.189796 0.052682
vt 0.164428 0.407091
vt 0.286464 0.407091
vt 0.274211 0.203472
vt 0.404775 0.244387
vt 0.450400 0.244387
vt 0.360505 0.203472
vt 0.025799 0.052682
vt 0.394400 0.011398
vt 0.028970 0.006195
vt 0.057847 0.244387
vt 0.101902 0.244387
vt 0.145310 0.244387
vt 0.102148 0.203472
vt 0.188380 0.244387
vt 0.188442 0.203472
vt 0.274211 0.203472
vt 0.025799 0.052682
vt 0.433683 0.006195
vt 0.188442 0.203472
vt 0.360505 0.203472
vt 0.102148 0.203472
vt 0.394400 0.006195
vt 0.355610 0.052682
vt 0.272518 0.006195
vt 0.108429 0.006195
vt 0.164428 0.407091
vt 0.436885 0.052682
vt 0.149128 0.006195
vt 0.360505 0.203472
vt 0.274211 0.203472
vt 0.355610 0.052682
vt 0.025799 0.052682
vt 0.224954 0.407091
vt 0.394400 0.006195
vt 0.255524 0.407091
vt 0.068253 0.006195
vt 0.107074 0.052682
vt 0.207375 0.261966
vt 0.010806 0.407091
vt 0.286464 0.407091
vt 0.049966 0.261966
vt 0.042423 0.407091
vt 0.073363 0.407091
vt 0.360505 0.203472
vt 0.317374 0.244387
vt 0.360751 0.244387
vt 0.404775 0.244387
vt 0.057847 0.244387
vt 0.012222 0.244387
vt 0.102148 0.203472
vt 0.355610 0.052682
vt 0.274273 0.244387
vt 0.145310 0.244387
vt 0.436885 0.052682
vt 0.274273 0.244387
vt 0.231326 0.244387
vt 0.313556 0.006195
vt 0.274211 0.203472
vt 0.272888 0.052682
vt 0.190166 0.006195
vt 0.189796 0.052682
vt 0.231357 0.006195
vt 0.107074 0.052682
vt 0.102148 0.203472
vt 0.188442 0.203472
vt 0.189796 0.052682
vt 0.107074 0.052682
vt 0.025799 0.052682
vt 0.436885 0.052682
vt 0.068253 0.006195
vt 0.188442 0.203472
vt 0.360505 0.203472
vt 0.134227 0.407091
vt 0.103934 0.407091
vt 0.272888 0.052682
vt 0.450400 0.244387
vt 0.028970 0.006195
vt 0.448461 0.203472
vt 0.014192 0.203472
vt 0.194660 0.407091
vt 0.318082 0.407091
vt 0.274211 0.203472
vt 0.014192 0.203472
vt 0.101902 0.244387
vt 0.189796 0.052682
vt 0.102148 0.203472
vt 0.189796 0.052682
vt 0.354255 0.006195
vt 0.448461 0.203472
vt 0.274211 0.203472
vt 0.313556 0.006195
vt 0.272888 0.052682
vt 0.231326 0.244387
vt 0.231357 0.006195
vt 0.189796 0.052682
vt 0.107074 0.052682
vt 0.190166 0.006195
vn -0.806457 0.035927 -0.590200
vn -0.550056 0.795036 0.255648
vn 0.073348 0.796030 0.600797
vn 0.072559 0.795882 -0.601088
vn -0.559756 -0.808503 0.181648
vn 0.562439 -0.806442 0.182518
vn 0.999343 0.036230 0.000000
vn 0.308144 0.036020 -0.950658
vn 0.307192 0.036161 -0.950960
vn 0.727650 -0.524486 0.442086
vn 0.794507 0.186251 -0.577988
vn 0.346854 -0.807206 -0.477609
vn 0.347759 0.456102 -0.819167
vn -0.806509 0.035940 -0.590129
vn -0.806478 0.035932 -0.590171
vn -0.474187 -0.590603 -0.652943
vn 0.000000 -0.326423 -0.945224
vn -0.666825 -0.411976 -0.620983
vn 0.700216 0.500692 -0.508925
vn -0.865440 0.501012 -0.000000
vn -0.738870 0.406039 -0.537777
vn -0.792636 0.198541 0.576463
vn -0.543387 0.477198 0.690661
vn -0.739151 0.406201 0.537268
vn 0.224732 0.187956 0.956121
vn 0.980740 0.195317 0.000000
vn 0.700399 0.500958 0.508411
vn 0.914208 0.405244 0.000000
vn -0.495726 -0.536372 -0.683052
vn -0.767556 -0.590606 0.249082
vn 0.310616 0.035952 0.949855
vn -0.899249 -0.325041 -0.292744
vn 0.309612 0.035803 0.950189
vn 0.307192 0.036161 -0.950960
vn 0.306537 0.036257 -0.951168
vn 0.308149 0.035585 0.950672
vn -0.808781 0.035824 0.587018
vn -0.808329 0.035932 0.587634
vn -0.808329 0.035932 0.587634
vn -0.808017 0.036007 0.588057
vn 0.309612 0.035803 0.950189
vn -0.802677 -0.536297 0.260950
vn -0.345831 -0.808476 -0.476201
vn 0.593283 0.796444 -0.117009
vn -0.904558 -0.411899 0.110059
vn -0.742830 -0.394639 0.540799
vn -0.195438 -0.523562 0.829269
vn 0.742037 -0.397673 -0.539664
vn 0.000000 -0.536273 0.844044
vn 0.283433 -0.396153 0.873343
vn -0.174483 -0.412336 0.894167
vn 0.802131 -0.537199 0.260772
vn 0.917224 -0.398371 0.000000
vn 0.530215 -0.430094 -0.730679
vn 0.795248 -0.414752 0.442224
vn 0.474276 -0.590394 -0.653067
vn 0.617388 -0.501895 -0.605750
vn -0.981859 0.189614 0.000000
vn 0.000000 -0.326423 -0.945224
vn -0.283532 -0.395414 -0.873646
vn 0.794817 0.186267 0.577555
vn 0.347890 0.456318 0.818991
vn -0.591570 0.178751 0.786189
vn -0.792353 0.198540 -0.576852
vn 0.224732 0.187956 -0.956121
vn -0.806478 0.035932 -0.590171
vn -0.412396 0.795169 -0.444563
vn 0.593277 0.796473 0.116845
vn 0.000000 -0.807591 0.589743
vn -0.738977 0.406170 -0.537531
vn -0.792743 0.198541 -0.576316
vn 0.700216 0.500692 -0.508925
vn 0.347759 0.456102 -0.819167
vn 0.224604 0.187947 -0.956153
vn -0.806478 0.035932 -0.590171
vn 0.294997 0.796233 0.528194
vn -0.412742 0.795277 0.444048
vn -0.549842 0.794969 -0.256317
vn 0.309612 0.035803 0.950189
vn 0.224604 0.187947 0.956153
vn -0.806478 0.035932 -0.590171
vn -0.543289 0.477491 0.690536
vn -0.591949 0.179055 0.785834
vn -0.793026 0.198541 0.575927
vn 0.283400 -0.396406 0.873239
vn -0.174393 -0.412348 0.894179
vn 0.767804 -0.590250 0.249162
vn 0.795068 0.186038 0.577284
vn 0.914361 0.404901 0.000000
vn 0.980939 0.194317 0.000000
vn -0.283312 -0.395372 -0.873736
vn -0.474187 -0.590603 -0.652943
vn -0.667075 -0.411931 -0.620744
vn 0.000000 -0.326423 -0.945224
vn 0.474176 -0.590628 -0.652929
vn 0.530462 -0.430323 -0.730365
vn 0.917224 -0.398371 0.000000
vn 0.795427 -0.414806 0.441851
vn 0.307192 0.036161 -0.950960
vn 0.308144 0.036020 -0.950658
vn 0.307192 0.036161 -0.950960
vn 0.999343 0.036230 0.000000
vn 0.294540 0.795965 -0.528853
vn 0.000000 0.167108 0.985939
vn 0.999343 0.036230 0.000000
vn 0.019998 0.360482 0.932552
vn -0.198433 0.423661 -0.883819
vn -0.400881 0.183199 -0.897626
vn 0.999343 0.036230 0.000000
vn 0.999343 0.036230 0.000000
vn 0.306537 0.036257 -0.951168
vn -0.806457 0.035927 -0.590200
vn 0.000000 1.000000 0.000000
vn -0.808781 0.035824 0.587018
vn -0.808329 0.035932 0.587634
vn -0.808329 0.035932 0.587634
vn -0.195438 -0.523562 0.829269
vn -0.808017 0.036007 0.588057
vn 0.309612 0.035803 0.950189
vn 0.308149 0.035585 0.950672
vn 0.310616 0.035952 0.949855
vn -0.767819 -0.590228 0.249167
vn -0.904782 -0.411402 0.110086
vn -0.899830 -0.324615 -0.291431
vn -0.802964 -0.536066 0.260543
vn -0.743157 -0.394749 0.540269
vn 0.700399 0.500958 0.508411
vn 0.143537 -0.501217 0.853334
vn 0.855418 -0.502182 0.126781
vn 0.742440 -0.397564 -0.539190
vn 0.495682 -0.537130 -0.682489
vn -0.384980 -0.501026 -0.775089
vn 0.347890 0.456318 0.818991
vn -0.739258 0.406331 0.537022
vn -0.865440 0.501012 -0.000000
vn -0.981859 0.189614 -0.000000
vn 0.794757 0.186023 -0.577717
vn -0.806509 0.035940 -0.590129
vn 0.807158 0.071477 0.585993
vn 0.807158 0.071477 0.585993
vn 0.807120 0.071517 0.586039
vn 0.806726 0.071482 -0.586586
vn 0.806722 0.071477 -0.586592
vn 0.806722 0.071477 -0.586592
vn 0.000000 1.000000 0.000000
vn 0.000000 1.000000 0.000000
vn 0.000000 1.000000 0.000000
vn 0.000000 1.000000 0.000000
vn -0.997497 0.070709 0.000000
vn -0.997497 0.070709 0.000000
vn -0.997497 0.070709 0.000000
vn -0.997497 0.070709 0.000000
vn -0.307688 0.071453 -0.948801
vn -0.308233 0.071077 -0.948652
vn -0.308233 0.071077 -0.948652
vn -0.308870 0.070638 -0.948477
vn 0.806718 0.071472 -0.586598
vn -0.308233 0.071077 0.948652
vn -0.308233 0.071077 0.948652
vn -0.307704 0.070702 0.948852
vn 0.807201 0.071431 0.585938
vn -0.308851 0.071515 0.948418
vn 0.000000 1.000000 0.000000
vn 0.000000 1.000000 0.000000
vn 0.000000 1.000000 0.000000
vn 0.000000 1.000000 0.000000
vn -0.412396 0.795169 -0.444563
vn -0.550056 0.795036 0.255648
vn 0.593277 0.796473 0.116845
vn -0.559756 -0.808503 0.181648
vn 0.000000 -0.807591 0.589743
vn 0.000000 0.000000 -1.000000
vn 0.000000 0.000000 -1.000000
vn 0.000000 0.000000 -1.000000
vn 0.000000 0.000000 -1.000000
vn 0.000000 0.000000 -1.000000
vn 0.000000 1.000000 0.000000
vn 0.000000 1.000000 0.000000
vn 0.000000 1.000000 0.000000
vn 0.000000 1.000000 0.000000
vn 0.000000 1.000000 0.000000
vn 0.000000 1.000000 0.000000
vn 0.000000 1.000000 0.000000
vn 0.000000 1.000000 0.000000
vn 0.000000 1.000000 0.000000
vn 0.000000 1.000000 0.000000
vn 0.988894 -0.086390 -0.120933
vn 0.000000 1.000000 0.000000
vn 0.991748 -0.086647 0.094487
vn 0.870923 -0.086415 0.483761
vn 0.584884 -0.082752 0.806884
vn 0.947730 -0.082917 0.308110
vn 0.419922 -0.086325 0.903445
vn -0.190075 -0.086305 0.977969
vn -0.395487 -0.086575 0.914382
vn 0.216422 -0.086555 0.972456
vn 0.072559 0.795882 -0.601088
vn 0.000000 0.000000 -1.000000
vn 0.000000 0.000000 -1.000000
vn 0.000000 0.000000 -1.000000
vn 0.073348 0.796030 0.600797
vn 0.000000 1.000000 0.000000
vn 0.000000 1.000000 0.000000
vn 0.000000 1.000000 0.000000
vn 0.000000 1.000000 0.000000
vn 0.000000 1.000000 0.000000
vn 0.857744 -0.086675 -0.506718
vn -0.805485 -0.087103 0.586180
vn -0.805498 -0.087028 0.586174
vn -0.996211 -0.086971 0.000000
vn -0.996203 -0.087063 0.000000
vn -0.746743 -0.086669 -0.659442
vn -0.871284 -0.086420 -0.483111
vn -0.584765 -0.082710 -0.806975
vn -0.584884 -0.082752 -0.806884
vn 0.000000 -0.082743 -0.996571
vn 0.000000 -0.082743 -0.996571
vn 0.190075 -0.086305 -0.977969
vn 0.395487 -0.086575 -0.914382
vn 0.728550 -0.086408 -0.679521
vn -0.997437 0.071546 0.000000
vn -0.997437 0.071546 0.000000
vn -0.997437 0.071546 0.000000
vn -0.997437 0.071546 0.000000
vn -0.307682 0.071711 -0.948783
vn -0.308227 0.071336 -0.948634
vn -0.308227 0.071336 -0.948634
vn 0.807164 0.070760 -0.586071
vn -0.308864 0.070898 -0.948460
vn -0.400898 0.182980 -0.897663
vn 0.999343 0.036230 0.000000
vn 0.999343 0.036230 0.000000
vn -0.412742 0.795277 0.444048
vn 0.294997 0.796233 0.528194
vn -0.345831 -0.808476 -0.476201
vn 0.346854 -0.807206 -0.477609
vn -0.549842 0.794969 -0.256317
vn 0.000000 0.167108 0.985939
vn 0.020011 0.360607 0.932503
vn 0.807197 0.070800 -0.586021
vn 0.807235 0.070846 -0.585963
vn 0.806757 0.070804 0.586626
vn 0.807197 0.070800 -0.586021
vn 0.806761 0.070800 0.586621
vn 0.806766 0.070794 0.586615
vn -0.307698 0.070961 0.948834
vn 0.806761 0.070800 0.586621
vn -0.308227 0.071336 0.948634
vn -0.308845 0.071774 0.948400
vn 0.000000 1.000000 0.000000
vn -0.308227 0.071336 0.948634
vn 0.000000 1.000000 0.000000
vn 0.000000 1.000000 0.000000
vn 0.000000 1.000000 0.000000
vn 0.000000 1.000000 0.000000
vn 0.000000 1.000000 0.000000
vn 0.000000 1.000000 0.000000
vn 0.000000 1.000000 0.000000
vn 0.000000 1.000000 0.000000
vn 0.999343 0.036230 0.000000
vn 0.593283 0.796444 -0.117009
vn 0.562439 -0.806442 0.182518
vn 0.294540 0.795965 -0.528853
vn -0.198528 0.423642 -0.883807
vn 0.000000 1.000000 0.000000
vn 0.000000 1.000000 0.000000
vn 0.000000 1.000000 0.000000
vn 0.000000 1.000000 0.000000
vn 0.209216 0.965984 0.151997
vn 0.759729 -0.623365 -0.185007
vn 0.058334 -0.623322 0.779786
vn -0.239953 -0.630747 0.737957
vn 0.000000 -0.082743 -0.996571
vn 0.728194 -0.086402 -0.679903
vn 0.000000 0.962624 -0.270840
vn 0.857371 -0.086669 -0.507350
vn -0.746807 -0.086325 -0.659415
vn -0.585401 -0.082575 -0.806528
vn 0.395487 -0.086575 -0.914382
vn -0.585694 -0.082679 -0.806305
vn 0.309566 -0.039728 -0.950048
vn 0.600757 -0.047476 0.798021
vn -0.808208 -0.039872 -0.587546
vn 0.307146 -0.040125 0.950816
vn -0.505216 -0.623329 0.596840
vn 0.308098 -0.039969 0.950515
vn 0.310570 -0.039894 -0.949713
vn -0.208003 0.966359 0.151275
vn -0.808208 -0.039872 0.587546
vn -0.680377 0.732863 0.000000
vn 0.309566 -0.039728 -0.950048
vn 0.680700 0.732563 0.000000
vn 0.210464 0.732632 -0.647267
vn -0.550321 0.732725 -0.400327
vn 0.550565 0.732725 -0.399992
vn 0.201776 0.939287 -0.277535
vn 0.000000 0.715701 0.698407
vn -0.381307 0.761270 0.524474
vn 0.410420 0.715613 0.565202
vn -0.210369 0.732918 0.646975
vn 0.410950 -0.623373 -0.665226
vn -0.550344 0.732901 0.399971
vn 0.774347 -0.632762 0.000000
vn 0.627712 -0.630761 -0.456200
vn -0.807902 -0.039789 0.587973
vn -0.464861 -0.611622 -0.640174
vn -0.505654 -0.623446 -0.596347
vn -0.808208 -0.039872 0.587546
vn 0.000000 1.000000 0.000000
vn 0.988882 -0.086401 -0.121025
vn 0.991756 -0.086636 0.094419
vn 0.000000 1.000000 0.000000
vn 0.947918 -0.082901 0.307538
vn 0.584884 -0.082752 0.806884
vn 0.419922 -0.086325 0.903445
vn 0.871284 -0.086420 0.483111
vn 0.216422 -0.086555 0.972456
vn -0.395754 -0.086464 0.914277
vn -0.806361 -0.086615 0.585047
vn -0.190075 -0.086305 0.977969
vn -0.806435 -0.086798 0.584918
vn -0.996232 -0.086733 0.000000
vn -0.871272 -0.086106 -0.483188
vn -0.996211 -0.086971 0.000000
vn 0.209317 0.965984 -0.151858
vn -0.723655 -0.623315 -0.296313
vn 0.944673 -0.047259 -0.324591
vn -0.807896 -0.039955 -0.587969
vn 0.059178 -0.623475 -0.779601
vn -0.258632 0.965976 0.000000
vn 0.000000 -0.082743 -0.996571
vn 0.306491 -0.040232 0.951023
vn 0.999192 -0.040202 0.000000
vn -0.170518 0.964796 0.200229
vn -0.210464 0.732632 -0.647267
vn 0.550588 0.732901 0.399637
vn 0.759710 -0.623328 0.185211
vn 0.239606 -0.632823 -0.736291
vn 0.000000 -0.611622 -0.791150
vn 0.999192 -0.040202 0.000000
vn -0.808660 -0.039752 -0.586931
vn 0.190075 -0.086305 -0.977969
vn -0.159407 0.962623 -0.218965
vn -0.626545 -0.632826 -0.454943
vn -0.776339 -0.630315 0.000000
vn -0.626245 -0.632757 0.455451
vn -0.723438 -0.623275 0.296927
vn -0.239521 -0.630363 0.738425
vn 0.308783 -0.039599 0.950308
vn 0.310577 -0.039303 0.949735
vn -0.808660 -0.039752 -0.586931
vn 0.000000 0.962504 -0.271266
vn -0.505725 -0.623161 0.596584
vn 0.759710 -0.623328 -0.185211
vn -0.723480 -0.622977 -0.297450
vn 0.079509 0.966386 -0.244491
vn 0.197751 0.969700 -0.143445
vn 0.209471 0.965900 0.152182
vn -0.258632 0.965976 0.000000
vn -0.209970 0.732725 -0.647323
vn 0.311183 -0.039996 -0.949508
vn -0.208166 0.966295 0.151461
vn 0.311183 -0.039996 -0.949508
vn 0.999225 -0.039366 0.000000
vn 0.944244 -0.046761 -0.325909
vn -0.170687 0.964725 -0.200428
vn 0.550622 0.732658 -0.400034
vn 0.079594 0.966313 -0.244752
vn 0.680700 0.732563 0.000000
vn -0.208166 0.966295 -0.151461
vn -0.244390 0.969677 0.000000
vn 0.201659 0.939283 -0.277633
vn 0.000000 0.715376 0.698740
vn 0.550776 0.732482 0.400145
vn -0.381198 0.761091 0.524813
vn -0.210433 0.732725 0.647172
vn -0.550565 0.732725 0.399992
vn 0.411424 -0.623158 -0.665135
vn 0.774347 -0.632762 0.000000
vn 0.627944 -0.630524 -0.456209
vn 0.239676 -0.632548 -0.736504
vn -0.626705 -0.632323 -0.455422
vn -0.465604 -0.611172 -0.640064
vn -0.723531 -0.623075 0.297119
vn 0.197779 0.969659 -0.143682
vn 0.627788 -0.630761 0.456095
vn -0.626571 -0.632525 0.455325
vn 0.020678 0.964751 -0.262350
vn 0.627666 -0.630523 0.456591
vn 0.239199 -0.632647 0.736574
vn 0.257146 0.966373 0.000000
vn 0.410422 -0.623153 0.665758
vn 0.197669 0.969702 0.143543
vn -0.079971 0.966023 0.245772
vn 0.020230 0.964820 0.262131
vn 0.079509 0.966386 0.244491
vn -0.954958 -0.047145 -0.292973
vn -0.806358 -0.039872 0.590083
vn -0.806336 -0.039866 0.590112
vn -0.806358 -0.039872 0.590083
vn -0.244274 0.969706 0.000000
vn -0.170694 0.964827 -0.199931
vn 0.020230 0.964820 -0.262131
vn -0.208122 0.966377 -0.151000
vn 0.059137 -0.623083 0.779917
vn 0.999225 -0.039366 0.000000
vn -0.550411 0.732901 -0.399880
vn -0.680377 0.732863 0.000000
vn 0.601131 -0.046713 0.797784
vn 0.000000 -0.611195 -0.791480
vn -0.159290 0.962496 -0.219609
vn 0.310570 -0.039894 -0.949713
vn -0.808208 -0.039872 -0.587546
vn 0.210001 0.732632 -0.647417
vn 0.411111 0.715255 0.565153
vn 0.759729 -0.623365 0.185007
vn -0.506325 -0.622963 -0.596281
vn -0.776339 -0.630315 0.000000
vn 0.306186 -0.040027 0.951130
vn -0.807896 -0.039955 -0.587969
vn -0.170687 0.964725 0.200428
vn 0.209286 0.965961 -0.152048
vn 0.059137 -0.623083 -0.779917
vn 0.410749 -0.623289 0.665430
vn 0.257523 0.966272 0.000000
vn 0.197768 0.969639 0.143831
vn 0.239218 -0.632573 0.736632
vn 0.079421 0.966268 0.244986
vn 0.020261 0.964711 0.262531
vn -0.955149 -0.047155 -0.292347
vn -0.079944 0.965892 0.246297
f 45/45/45 18/18/18 32/32/32
f 60/60/60 59/59/59 17/17/17
f 123/123/123 93/93/93 124/124/124
f 175/175/175 174/174/174 199/199/199
f 198/198/198 174/174/174 175/175/175
f 172/172/172 176/176/176 173/173/173
f 200/200/200 176/176/176 172/172/172
f 42/42/42 30/30/30 170/170/170
f 42/42/42 45/45/45 30/30/30
f 46/46/46 45/45/45 42/42/42
f 49/49/49 47/47/47 171/171/171
f 49/49/49 51/51/51 47/47/47
f 51/51/51 46/46/46 47/47/47
f 50/50/50 51/51/51 49/49/49
f 52/52/52 10/10/10 262/262/262
f 52/52/52 55/55/55 10/10/10
f 55/55/55 50/50/50 10/10/10
f 53/53/53 55/55/55 52/52/52
f 56/56/56 57/57/57 236/236/236
f 54/54/54 57/57/57 56/56/56
f 48/48/48 57/57/57 54/54/54
f 48/48/48 53/53/53 57/57/57
f 16/16/16 29/29/29 235/235/235
f 18/18/18 29/29/29 16/16/16
f 60/60/60 29/29/29 18/18/18
f 25/25/25 239/239/239 238/238/238
f 62/62/62 239/239/239 25/25/25
f 239/239/239 62/62/62 201/201/201
f 62/62/62 234/234/234 201/201/201
f 62/62/62 27/27/27 234/234/234
f 62/62/62 61/61/61 27/27/27
f 61/61/61 28/28/28 27/27/27
f 27/27/27 28/28/28 169/169/169
f 25/25/25 61/61/61 62/62/62
f 28/28/28 261/261/261 169/169/169
f 28/28/28 19/19/19 261/261/261
f 28/28/28 11/11/11 19/19/19
f 11/11/11 13/13/13 19/19/19
f 19/19/19 13/13/13 263/263/263
f 13/13/13 197/197/197 263/263/263
f 13/13/13 264/264/264 197/197/197
f 26/26/26 11/11/11 28/28/28
f 26/26/26 28/28/28 61/61/61
f 65/65/65 13/13/13 11/11/11
f 65/65/65 264/264/264 13/13/13
f 230/230/230 264/264/264 65/65/65
f 230/230/230 21/21/21 264/264/264
f 264/264/264 21/21/21 167/167/167
f 21/21/21 237/237/237 167/167/167
f 21/21/21 20/20/20 237/237/237
f 21/21/21 58/58/58 20/20/20
f 58/58/58 24/24/24 20/20/20
f 20/20/20 24/24/24 168/168/168
f 64/64/64 21/21/21 230/230/230
f 64/64/64 58/58/58 21/21/21
f 24/24/24 233/233/233 168/168/168
f 24/24/24 23/23/23 233/233/233
f 24/24/24 63/63/63 23/23/23
f 22/22/22 63/63/63 24/24/24
f 22/22/22 24/24/24 58/58/58
f 231/231/231 232/232/232 260/260/260
f 7/7/7 232/232/232 231/231/231
f 9/9/9 34/34/34 8/8/8
f 35/35/35 34/34/34 9/9/9
f 38/38/38 39/39/39 37/37/37
f 40/40/40 39/39/39 38/38/38
f 41/41/41 33/33/33 36/36/36
f 31/31/31 33/33/33 41/41/41
f 15/15/15 66/66/66 14/14/14
f 1/1/1 66/66/66 15/15/15
f 125/125/125 122/122/122 5/5/5
f 125/125/125 123/123/123 122/122/122
f 126/126/126 123/123/123 125/125/125
f 128/128/128 117/117/117 69/69/69
f 128/128/128 86/86/86 117/117/117
f 86/86/86 126/126/126 117/117/117
f 85/85/85 86/86/86 128/128/128
f 98/98/98 85/85/85 128/128/128
f 129/129/129 87/87/87 6/6/6
f 129/129/129 98/98/98 87/87/87
f 97/97/97 98/98/98 129/129/129
f 130/130/130 97/97/97 129/129/129
f 95/95/95 131/131/131 12/12/12
f 96/96/96 131/131/131 95/95/95
f 130/130/130 131/131/131 96/96/96
f 92/92/92 132/132/132 43/43/43
f 93/93/93 132/132/132 92/92/92
f 91/91/91 132/132/132 93/93/93
f 91/91/91 94/94/94 132/132/132
f 80/80/80 106/106/106 104/104/104
f 133/133/133 106/106/106 80/80/80
f 106/106/106 133/133/133 3/3/3
f 133/133/133 76/76/76 3/3/3
f 133/133/133 127/127/127 76/76/76
f 133/133/133 88/88/88 127/127/127
f 88/88/88 89/89/89 127/127/127
f 127/127/127 89/89/89 68/68/68
f 80/80/80 88/88/88 133/133/133
f 89/89/89 44/44/44 68/68/68
f 89/89/89 72/72/72 44/44/44
f 89/89/89 137/137/137 72/72/72
f 137/137/137 73/73/73 72/72/72
f 72/72/72 73/73/73 103/103/103
f 73/73/73 4/4/4 103/103/103
f 73/73/73 107/107/107 4/4/4
f 90/90/90 137/137/137 89/89/89
f 90/90/90 89/89/89 88/88/88
f 74/74/74 73/73/73 137/137/137
f 74/74/74 107/107/107 73/73/73
f 108/108/108 107/107/107 74/74/74
f 108/108/108 70/70/70 107/107/107
f 107/107/107 70/70/70 67/67/67
f 70/70/70 78/78/78 67/67/67
f 70/70/70 135/135/135 78/78/78
f 70/70/70 136/136/136 135/135/135
f 136/136/136 134/134/134 135/135/135
f 135/135/135 134/134/134 2/2/2
f 71/71/71 70/70/70 108/108/108
f 71/71/71 136/136/136 70/70/70
f 134/134/134 77/77/77 2/2/2
f 134/134/134 82/82/82 77/77/77
f 134/134/134 83/83/83 82/82/82
f 84/84/84 83/83/83 134/134/134
f 84/84/84 134/134/134 136/136/136
f 105/105/105 110/110/110 109/109/109
f 102/102/102 110/110/110 105/105/105
f 101/101/101 99/99/99 100/100/100
f 111/111/111 99/99/99 101/101/101
f 115/115/115 116/116/116 114/114/114
f 118/118/118 116/116/116 115/115/115
f 119/119/119 79/79/79 120/120/120
f 121/121/121 79/79/79 119/119/119
f 75/75/75 81/81/81 138/138/138
f 112/112/112 81/81/81 75/75/75
f 149/149/149 152/152/152 150/150/150
f 151/151/151 152/152/152 149/149/149
f 154/154/154 155/155/155 153/153/153
f 156/156/156 155/155/155 154/154/154
f 144/144/144 143/143/143 157/157/157
f 142/142/142 143/143/143 144/144/144
f 140/140/140 139/139/139 141/141/141
f 161/161/161 139/139/139 140/140/140
f 158/158/158 159/159/159 160/160/160
f 162/162/162 159/159/159 158/158/158
f 183/183/183 182/182/182 185/185/185
f 188/188/188 183/183/183 185/185/185
f 186/186/186 188/188/188 185/185/185
f 192/192/192 190/190/190 189/189/189
f 189/189/189 190/190/190 187/187/187
f 189/189/189 187/187/187 207/207/207
f 207/207/207 187/187/187 220/220/220
f 207/207/207 220/220/220 219/219/219
f 219/219/219 220/220/220 218/218/218
f 219/219/219 218/218/218 217/217/217
f 217/217/217 218/218/218 216/216/216
f 191/191/191 193/193/193 190/190/190
f 196/196/196 193/193/193 191/191/191
f 196/196/196 194/194/194 193/193/193
f 195/195/195 194/194/194 196/196/196
f 195/195/195 209/209/209 194/194/194
f 208/208/208 209/209/209 195/195/195
f 211/211/211 209/209/209 208/208/208
f 210/210/210 209/209/209 211/211/211
f 211/211/211 213/213/213 210/210/210
f 212/212/212 213/213/213 211/211/211
f 212/212/212 215/215/215 213/213/213
f 214/214/214 215/215/215 212/212/212
f 223/223/223 221/221/221 224/224/224
f 222/222/222 221/221/221 223/223/223
f 226/226/226 227/227/227 225/225/225
f 229/229/229 227/227/227 226/226/226
f 240/240/240 243/243/243 228/228/228
f 241/241/241 243/243/243 240/240/240
f 244/244/244 247/247/247 242/242/242
f 245/245/245 247/247/247 244/244/244
f 248/248/248 251/251/251 246/246/246
f 249/249/249 251/251/251 248/248/248
f 266/266/266 268/268/268 267/267/267
f 309/309/309 266/266/266 267/267/267
f 312/312/312 309/309/309 267/267/267
f 313/313/313 316/316/316 311/311/311
f 311/311/311 316/316/316 310/310/310
f 311/311/311 310/310/310 276/276/276
f 276/276/276 310/310/310 274/274/274
f 276/276/276 274/274/274 279/279/279
f 279/279/279 274/274/274 342/342/342
f 279/279/279 342/342/342 273/273/273
f 273/273/273 342/342/342 331/331/331
f 314/314/314 315/315/315 316/316/316
f 317/317/317 315/315/315 314/314/314
f 317/317/317 320/320/320 315/315/315
f 318/318/318 320/320/320 317/317/317
f 318/318/318 321/321/321 320/320/320
f 319/319/319 321/321/321 318/318/318
f 322/322/322 321/321/321 319/319/319
f 324/324/324 321/321/321 322/322/322
f 322/322/322 323/323/323 324/324/324
f 277/277/277 323/323/323 322/322/322
f 277/277/277 278/278/278 323/323/323
f 280/280/280 278/278/278 277/277/277
f 334/334/334 288/288/288 394/394/394
f 401/401/401 288/288/288 334/334/334
f 288/288/288 401/401/401 330/330/330
f 401/401/401 404/404/404 330/330/330
f 402/402/402 404/404/404 401/401/401
f 402/402/402 343/343/343 404/404/404
f 403/403/403 356/356/356 275/275/275
f 357/357/357 356/356/356 403/403/403
f 325/325/325 356/356/356 357/357/357
f 357/357/357 391/391/391 325/325/325
f 393/393/393 391/391/391 357/357/357
f 393/393/393 269/269/269 391/391/391
f 393/393/393 396/396/396 269/269/269
f 395/395/395 396/396/396 393/393/393
f 395/395/395 394/394/394 396/396/396
f 346/346/346 285/285/285 272/272/272
f 346/346/346 347/347/347 285/285/285
f 346/346/346 345/345/345 347/347/347
f 344/344/344 326/326/326 345/345/345
f 344/344/344 307/307/307 326/326/326
f 344/344/344 306/306/306 307/307/307
f 338/338/338 329/329/329 339/339/339
f 338/338/338 301/301/301 329/329/329
f 338/338/338 304/304/304 301/301/301
f 303/303/303 270/270/270 304/304/304
f 303/303/303 337/337/337 270/270/270
f 303/303/303 389/389/389 337/337/337
f 390/390/390 272/272/272 271/271/271
f 390/390/390 271/271/271 392/392/392
f 390/390/390 392/392/392 389/389/389
f 327/327/327 333/333/333 282/282/282
f 340/340/340 333/333/333 327/327/327
f 282/282/282 284/284/284 286/286/286
f 332/332/332 284/284/284 282/282/282
f 397/397/397 283/283/283 341/341/341
f 328/328/328 283/283/283 397/397/397
f 281/281/281 291/291/291 327/327/327
f 287/287/287 291/291/291 281/281/281
f 290/290/290 302/302/302 298/298/298
f 302/302/302 300/300/300 298/298/298
f 300/300/300 297/297/297 298/298/298
f 294/294/294 290/290/290 296/296/296
f 335/335/335 294/294/294 296/296/296
f 293/293/293 335/335/335 296/296/296
f 295/295/295 293/293/293 296/296/296
f 292/292/292 295/295/295 296/296/296
f 336/336/336 292/292/292 296/296/296
f 299/299/299 336/336/336 296/296/296
f 400/400/400 398/398/398 397/397/397
f 399/399/399 398/398/398 400/400/400
f 421/421/421 362/362/362 431/431/431
f 371/371/371 362/362/362 421/421/421
f 362/362/362 371/371/371 359/359/359
f 371/371/371 370/370/370 359/359/359
f 366/366/366 370/370/370 371/371/371
f 366/366/366 411/411/411 370/370/370
f 388/388/388 368/368/368 352/352/352
f 385/385/385 368/368/368 388/388/388
f 422/422/422 368/368/368 385/385/385
f 385/385/385 425/425/425 422/422/422
f 426/426/426 425/425/425 385/385/385
f 426/426/426 358/358/358 425/425/425
f 426/426/426 428/428/428 358/358/358
f 429/429/429 428/428/428 426/426/426
f 429/429/429 431/431/431 428/428/428
f 387/387/387 353/353/353 348/348/348
f 387/387/387 384/384/384 353/353/353
f 387/387/387 418/418/418 384/384/384
f 382/382/382 355/355/355 418/418/418
f 382/382/382 417/417/417 355/355/355
f 382/382/382 383/383/383 417/417/417
f 381/381/381 423/423/423 410/410/410
f 381/381/381 378/378/378 423/423/423
f 381/381/381 380/380/380 378/378/378
f 379/379/379 354/354/354 380/380/380
f 379/379/379 416/416/416 354/354/354
f 379/379/379 386/386/386 416/416/416
f 427/427/427 348/348/348 405/405/405
f 427/427/427 405/405/405 424/424/424
f 427/427/427 424/424/424 386/386/386
f 365/365/365 364/364/364 409/409/409
f 406/406/406 364/364/364 365/365/365
f 409/409/409 349/349/349 419/419/419
f 350/350/350 349/349/349 409/409/409
f 430/430/430 413/413/413 351/351/351
f 420/420/420 413/413/413 430/430/430
f 361/361/361 363/363/363 365/365/365
f 412/412/412 363/363/363 361/361/361
f 408/408/408 377/377/377 375/375/375
f 377/377/377 376/376/376 375/375/375
f 376/376/376 373/373/373 375/375/375
f 407/407/407 408/408/408 372/372/372
f 360/360/360 407/407/407 372/372/372
f 414/414/414 360/360/360 372/372/372
f 367/367/367 414/414/414 372/372/372
f 369/369/369 367/367/367 372/372/372
f 374/374/374 369/369/369 372/372/372
f 415/415/415 374/374/374 372/372/372
f 308/308/308 289/289/289 430/430/430
f 305/305/305 289/289/289 308/308/308
f 179/179/179 181/181/181 148/148/148
f 184/184/184 181/181/181 179/179/179
f 184/184/184 113/113/113 181/181/181
f 184/184/184 163/163/163 113/113/113
f 164/164/164 163/163/163 184/184/184
f 164/164/164 145/145/145 163/163/163
f 164/164/164 166/166/166 145/145/145
f 179/179/179 148/148/148 178/178/178
f 179/179/179 178/178/178 180/180/180
f 180/180/180 178/178/178 147/147/147
f 180/180/180 147/147/147 177/177/177
f 180/180/180 177/177/177 165/165/165
f 165/165/165 177/177/177 146/146/146
f 165/165/165 146/146/146 166/166/166
f 165/165/165 166/166/166 164/164/164
f 256/256/256 259/259/259 202/202/202
f 257/257/257 259/259/259 256/256/256
f 257/257/257 206/206/206 259/259/259
f 257/257/257 258/258/258 206/206/206
f 265/265/265 258/258/258 257/257/257
f 265/265/265 205/205/205 258/258/258
f 265/265/265 250/250/250 205/205/205
f 256/256/256 202/202/202 254/254/254
f 256/256/256 254/254/254 253/253/253
f 253/253/253 254/254/254 203/203/203
f 253/253/253 203/203/203 255/255/255
f 253/253/253 255/255/255 252/252/252
f 252/252/252 255/255/255 204/204/204
f 252/252/252 204/204/204 250/250/250
f 252/252/252 250/250/250 265/265/265
