# Exported by s4extract — object_Food_PlateFork_Multi_lod00_g01
o object_Food_PlateFork_Multi_lod00_g01
v 0.083895 0.030122 -0.066591
v 0.042207 0.023591 -0.055971
v 0.124760 0.028352 -0.046083
v -0.111606 0.040864 0.031831
v -0.119785 0.007538 0.000000
v -0.079958 0.007538 0.022980
v -0.106510 0.007538 0.022980
v -0.074862 0.040864 -0.031831
v -0.079958 0.007538 0.022980
v -0.056490 0.040864 0.000000
v -0.111606 0.040864 0.031831
v -0.106510 0.007538 0.022980
v -0.129978 0.040864 0.000000
v -0.074862 0.040864 0.031831
v -0.129978 0.040864 0.000000
v -0.106510 0.007538 -0.022980
v -0.074862 0.040864 -0.031831
v -0.111606 0.040864 -0.031831
v -0.119785 0.007538 0.000000
v -0.074862 0.040864 0.031831
v -0.066683 0.007538 0.000000
v 0.118381 0.059389 0.052858
v -0.074862 0.040864 -0.031831
v -0.080996 0.030000 0.021149
v -0.068789 0.030000 0.000000
v -0.056490 0.040864 0.000000
v -0.080996 0.030000 -0.021149
v -0.068789 0.030000 0.000000
v 0.100620 0.090030 -0.018494
v -0.020325 0.024506 0.064425
v 0.093966 0.093722 -0.018799
v 0.070376 0.090030 -0.053102
v 0.083743 0.057039 -0.072237
v -0.080996 0.030000 0.021149
v -0.056490 0.040864 0.000000
v 0.124149 0.059786 -0.046968
v 0.040620 0.054109 -0.052065
v 0.124760 0.028352 -0.046083
v 0.086673 0.015931 -0.066927
v 0.042207 0.023591 -0.055971
v 0.043550 0.053713 -0.046144
v 0.121799 0.017457 -0.043703
v 0.087558 0.026673 -0.071017
v -0.023011 0.027589 0.072146
v 0.078249 0.058168 -0.000763
v 0.082919 0.056368 -0.064241
v -0.042970 0.020814 -0.057375
v -0.061007 0.027589 0.043214
v -0.020325 0.024506 0.064425
v -0.010254 0.053713 0.000885
v 0.032472 0.051607 -0.048585
v -0.021393 0.051607 0.063540
v 0.034883 0.053713 0.047761
v -0.111606 0.040864 -0.031831
v 0.096591 0.079379 -0.017273
v -0.129978 0.040864 0.000000
v -0.056490 0.040864 0.000000
v 0.090274 0.118870 0.030915
v -0.079958 0.007538 -0.022980
v -0.105441 0.030000 -0.021149
v -0.105441 0.030000 0.021149
v -0.080996 0.030000 0.021149
v -0.117649 0.030000 0.000000
v -0.080996 0.030000 -0.021149
v -0.068789 0.030000 0.000000
v -0.074862 0.040864 -0.031831
v -0.080996 0.030000 -0.021149
v -0.111606 0.040864 -0.031831
v -0.105441 0.030000 -0.021149
v -0.105441 0.030000 -0.021149
v 0.075289 0.056459 0.073031
v 0.040620 0.054109 -0.052065
v 0.070681 0.134922 -0.044465
v -0.007721 0.118870 0.050844
v 0.090274 0.118870 0.030915
v 0.073794 0.118870 -0.051302
v -0.030671 0.093753 0.011322
v -0.035981 0.089785 0.012391
v -0.025178 0.090030 -0.023652
v -0.006104 0.024506 -0.065401
v 0.027223 0.024506 -0.049837
v 0.001495 0.020814 -0.069033
v -0.024171 0.118870 -0.031373
v -0.024171 0.118870 -0.031373
v 0.073794 0.118870 -0.051302
v -0.038270 0.118870 0.014252
v 0.001495 0.020814 -0.069033
v 0.027223 0.024506 -0.049837
v 0.039735 0.020814 -0.043550
v 0.037782 0.027589 -0.054476
v 0.023408 0.027589 0.056459
v -0.005036 0.051607 -0.067598
v -0.007721 0.118870 0.050844
v 0.096957 0.134922 -0.013215
v -0.030854 0.134922 0.012757
v 0.104373 0.118870 -0.014710
v 0.090274 0.118870 0.030915
v 0.070681 0.134922 -0.044465
v -0.018647 0.134922 -0.026276
v -0.030854 0.134922 0.012757
v -0.038270 0.118870 0.014252
v -0.009919 0.093722 0.043275
v 0.094852 0.093722 0.013123
v 0.094852 0.093722 0.013123
v -0.024171 0.118870 -0.031373
v 0.104373 0.118870 -0.014710
v 0.023408 0.027589 0.056459
v -0.004547 0.027589 -0.075930
v 0.037782 0.027589 -0.054476
v 0.027223 0.024506 -0.049837
v 0.084750 0.134922 0.025819
v 0.033052 0.148015 -0.000214
v -0.004578 0.134922 0.044038
v 0.054842 0.093722 -0.047792
v 0.094852 0.093722 0.013123
v 0.017579 0.024506 0.058901
v 0.021729 0.020814 0.062258
v -0.059145 0.020814 0.041292
v -0.057344 0.024506 0.028779
v 0.021729 0.020814 0.062258
v 0.073794 0.118870 -0.051302
v 0.032197 0.118259 -0.001526
v 0.076144 0.025056 0.069979
v 0.039552 0.022279 0.057649
v 0.117374 0.031678 0.050905
v 0.078188 0.029206 0.069033
v 0.076144 0.025056 0.069979
v 0.017579 0.024506 0.058901
v 0.027223 0.024506 -0.049837
v -0.044435 0.051607 -0.048036
v -0.055055 0.051607 0.037904
v -0.049043 0.027589 -0.053835
v -0.005036 0.051607 -0.067598
v -0.045137 0.024506 -0.041139
v -0.057344 0.024506 0.028779
v -0.020325 0.024506 0.064425
v -0.039888 0.010163 -0.054231
v 0.000793 0.010163 -0.064913
v -0.042970 0.020814 -0.057375
v -0.004547 0.027589 -0.075930
v 0.027223 0.024506 -0.049837
v 0.037782 0.027589 -0.054476
v 0.023408 0.027589 0.056459
v -0.055055 0.051607 0.037904
v -0.061007 0.027589 0.043214
v -0.055055 0.051607 0.037904
v -0.049043 0.027589 -0.053835
v 0.032472 0.051607 -0.048585
v 0.019715 0.051607 0.049654
v -0.023011 0.027589 0.072146
v 0.032472 0.051607 -0.048585
v -0.049043 0.027589 -0.053835
v -0.044435 0.051607 -0.048036
v -0.044435 0.051607 -0.048036
v -0.061007 0.027589 0.043214
v 0.019715 0.051607 0.049654
v 0.037782 0.027589 -0.054476
v 0.032472 0.051607 -0.048585
v -0.021393 0.051607 0.063540
v -0.055055 0.051607 0.037904
v -0.010254 0.053713 0.000885
v 0.023408 0.027589 0.056459
v -0.021393 0.051607 0.063540
v 0.039735 0.020814 -0.043550
v 0.035798 0.010163 -0.041597
v 0.001495 0.020814 -0.069033
v 0.019837 0.010163 0.058504
v 0.039735 0.020814 -0.043550
v 0.035798 0.010163 -0.041597
v -0.059145 0.020814 0.041292
v -0.022156 0.010163 0.064577
v 0.021729 0.020814 0.062258
v -0.039888 0.010163 -0.054231
v -0.055208 0.010163 0.039338
v -0.024201 0.020814 0.068484
v -0.044435 0.051607 -0.048036
v -0.010254 0.053713 0.000885
v -0.042970 0.020814 -0.057375
v -0.055208 0.010163 0.039338
v -0.059145 0.020814 0.041292
v -0.045137 0.024506 -0.041139
v -0.061007 0.027589 0.043214
v 0.023408 0.027589 0.056459
v -0.023011 0.027589 0.072146
v 0.017579 0.024506 0.058901
v 0.017579 0.024506 0.058901
v -0.023011 0.027589 0.072146
v -0.020325 0.024506 0.064425
v -0.010254 0.053713 0.000885
v -0.054445 0.045320 -0.089541
v 0.019715 0.051607 0.049654
v -0.057344 0.024506 0.028779
v -0.020325 0.024506 0.064425
v -0.061007 0.027589 0.043214
v -0.045137 0.024506 -0.041139
v -0.006104 0.024506 -0.065401
v -0.042970 0.020814 -0.057375
v 0.013031 0.046724 0.078249
v 0.132115 0.053407 0.084536
v 0.027223 0.024506 -0.049837
v -0.009919 0.093722 0.043275
v 0.037263 0.046724 0.094363
v -0.009919 0.093722 0.043275
v 0.021821 0.047334 -0.088778
v 0.076174 0.064516 -0.002106
v 0.140904 0.054018 -0.082492
v 0.042879 0.026856 0.053591
v 0.046419 0.027589 -0.053041
v 0.039552 0.022279 0.057649
v 0.063509 0.046724 -0.070803
v -0.008759 0.060183 0.002380
v -0.080691 0.045320 0.075625
v 0.065798 0.118259 -0.048128
v -0.011109 0.090030 0.048494
v -0.009919 0.093722 0.043275
v -0.013184 0.093722 -0.027619
v -0.030671 0.093753 0.011322
v -0.035981 0.089785 0.012391
v 0.054842 0.093722 -0.047792
v 0.091311 0.079379 0.024445
v -0.030671 0.093753 0.011322
v 0.101016 0.094241 0.026460
v 0.093966 0.093722 -0.018799
v 0.074648 0.072542 0.065493
v -0.044557 0.052217 -0.056642
v 0.042207 0.023591 -0.055971
v 0.106021 0.094241 -0.020753
v 0.106021 0.094241 -0.020753
v 0.054842 0.093722 -0.047792
v 0.069582 0.094241 -0.054506
v -0.025391 0.094241 -0.031190
v -0.030671 0.093753 0.011322
v 0.094852 0.093722 0.013123
v -0.002716 0.118259 0.046541
v -0.021668 0.079379 -0.020997
v -0.038301 0.113376 0.078829
v 0.068941 0.079379 -0.048952
v 0.093966 0.093722 -0.018799
v -0.009919 0.093722 0.043275
v 0.069582 0.094241 -0.054506
v -0.025391 0.094241 -0.031190
v 0.069582 0.094241 -0.054506
v 0.065798 0.118259 -0.048128
v 0.041169 0.053529 0.052889
v 0.075869 0.056215 0.067873
v 0.040834 0.029420 -0.052522
v 0.112888 0.058718 0.049104
v 0.034883 0.053713 0.047761
v 0.080996 0.056246 -0.000092
v 0.111515 0.075045 0.048067
v -0.074862 0.040864 0.031831
v 0.075289 0.056459 0.073031
v -0.002716 0.118259 0.046541
v -0.018311 0.118259 -0.027497
v -0.018311 0.118259 -0.027497
v -0.025391 0.094241 -0.031190
v 0.021973 0.052217 0.055849
v -0.023103 0.052217 0.071413
v -0.060732 0.052217 0.042024
v -0.012787 0.051607 -0.000061
v 0.000519 0.052217 -0.072207
v 0.038148 0.052217 -0.042848
v 0.093631 0.118259 0.023560
v -0.007782 0.094241 0.052400
v 0.101016 0.094241 0.026460
v 0.093631 0.118259 0.023560
v 0.031343 0.126804 0.003143
v 0.101047 0.111942 -0.072237
v 0.125431 0.113376 0.044679
v 0.032228 0.120334 0.001190
v 0.032228 0.120334 0.001190
v 0.098086 0.118259 -0.018250
v 0.032228 0.120334 0.001190
v 0.065798 0.118259 -0.048128
v 0.101016 0.094241 0.026460
v 0.098086 0.118259 -0.018250
v 0.106021 0.094241 -0.020753
v -0.038911 0.094241 0.014588
v -0.002716 0.118259 0.046541
v 0.093631 0.118259 0.023560
v -0.007782 0.094241 0.052400
v -0.013184 0.093722 -0.027619
v -0.030305 0.118259 0.013031
v 0.093631 0.118259 0.023560
v 0.065798 0.118259 -0.048128
v -0.018311 0.118259 -0.027497
v -0.018311 0.118259 -0.027497
v 0.032228 0.120334 0.001190
v -0.030305 0.118259 0.013031
v -0.030305 0.118259 0.013031
v -0.062685 0.111942 -0.038057
v -0.060732 0.052217 0.042024
v -0.044557 0.052217 -0.056642
v -0.039277 0.068300 -0.051302
v -0.008576 0.079379 0.045167
v -0.009919 0.093722 0.043275
v -0.013184 0.093722 -0.027619
v 0.124149 0.059786 -0.046968
v 0.124149 0.059786 -0.046968
v 0.083743 0.057039 -0.072237
v 0.118381 0.059389 0.052858
v 0.118381 0.059389 0.052858
v 0.094821 0.090030 0.027100
v 0.070376 0.090030 -0.053102
v 0.054842 0.093722 -0.047792
v 0.068941 0.079379 -0.048952
v -0.023103 0.052217 0.071413
v -0.060732 0.052217 0.042024
v -0.044557 0.052217 -0.056642
v 0.038148 0.052217 -0.042848
v 0.016694 0.068300 0.050478
v -0.021851 0.068300 0.063936
v -0.008576 0.079379 0.045167
v 0.091311 0.079379 0.024445
v 0.096591 0.079379 -0.017273
v 0.100620 0.090030 -0.018494
v -0.025178 0.090030 -0.023652
v 0.068941 0.079379 -0.048952
v -0.035981 0.089785 0.012391
v -0.031098 0.079348 0.012818
v -0.009919 0.093722 0.043275
v -0.030671 0.093753 0.011322
v -0.038911 0.094241 0.014588
v 0.094821 0.090030 0.027100
v -0.008576 0.079379 0.045167
v 0.091311 0.079379 0.024445
v -0.011109 0.090030 0.048494
v -0.025178 0.090030 -0.023652
v -0.021668 0.079379 -0.020997
v -0.025391 0.094241 -0.031190
v -0.007782 0.094241 0.052400
v 0.070376 0.090030 -0.053102
v -0.038911 0.094241 0.014588
v -0.013184 0.093722 -0.027619
v -0.030671 0.093753 0.011322
v -0.025391 0.094241 -0.031190
v 0.000519 0.052217 -0.072207
v 0.031404 0.068300 -0.039491
v 0.021973 0.052217 0.055849
v -0.039277 0.068300 -0.051302
v -0.000732 0.068300 -0.064760
v 0.038148 0.052217 -0.042848
v -0.053987 0.068300 0.038667
v -0.021851 0.068300 0.063936
v -0.011292 0.081362 -0.000397
v -0.117649 0.030000 0.000000
v -0.105441 0.030000 0.021149
v -0.105441 0.030000 0.021149
v -0.111606 0.040864 0.031831
v 0.082186 0.073061 -0.064699
v 0.040132 0.070193 0.043733
v 0.034883 0.053713 0.047761
v 0.093966 0.093722 -0.018799
v 0.094852 0.093722 0.013123
v 0.093966 0.093722 -0.018799
v 0.101016 0.094241 0.026460
v 0.106021 0.094241 -0.020753
v 0.027223 0.024506 -0.049837
v 0.078188 0.029206 0.069033
v 0.112888 0.058718 0.049104
v 0.085238 0.032441 -0.072970
v 0.083895 0.030122 -0.066591
v 0.083895 0.030122 -0.066591
v 0.046419 0.027589 -0.053041
v 0.040834 0.029420 -0.052522
v -0.006104 0.024506 -0.065401
v -0.004547 0.027589 -0.075930
v 0.077883 0.032258 0.076205
v 0.085238 0.032441 -0.072970
v 0.083895 0.030122 -0.066591
v 0.125950 0.035218 -0.048189
v 0.085238 0.032441 -0.072970
v 0.046419 0.027589 -0.053041
v -0.006104 0.024506 -0.065401
v -0.004547 0.027589 -0.075930
v -0.074862 0.040864 0.031831
v -0.066683 0.007538 0.000000
v 0.125950 0.035218 -0.048189
v 0.122166 0.032014 -0.033448
v 0.082919 0.056368 -0.064241
v 0.078188 0.029206 0.069033
v 0.042879 0.026856 0.053591
v 0.118961 0.058840 -0.042299
v 0.078249 0.058168 -0.000763
v 0.082919 0.056368 -0.064241
v 0.078188 0.029206 0.069033
v 0.042879 0.026856 0.053591
v 0.038118 0.029237 0.059297
v 0.077883 0.032258 0.076205
v 0.040834 0.029420 -0.052522
v 0.038118 0.029237 0.059297
v 0.042879 0.026856 0.053591
v 0.038118 0.029237 0.059297
v 0.078188 0.029206 0.069033
v 0.046419 0.027589 -0.053041
v 0.078249 0.058168 -0.000763
v 0.117374 0.031678 0.050905
v 0.118961 0.058840 -0.042299
v 0.040834 0.029420 -0.052522
v 0.112888 0.058718 0.049104
v 0.042879 0.026856 0.053591
v 0.119694 0.035096 0.054384
v 0.119694 0.035096 0.054384
v 0.118961 0.058840 -0.042299
v 0.125950 0.035218 -0.048189
v 0.041169 0.053529 0.052889
v 0.125950 0.035218 -0.048189
v 0.043550 0.053713 -0.046144
v 0.118961 0.058840 -0.042299
v 0.038118 0.029237 0.059297
v 0.041169 0.053529 0.052889
v 0.041169 0.053529 0.052889
v 0.040834 0.029420 -0.052522
v 0.077883 0.032258 0.076205
v 0.075869 0.056215 0.067873
v 0.043550 0.053713 -0.046144
v 0.038118 0.029237 0.059297
v 0.085238 0.032441 -0.072970
v 0.078249 0.058168 -0.000763
v 0.112888 0.058718 0.049104
v 0.119694 0.035096 0.054384
v 0.121799 0.017457 -0.043703
v 0.116367 0.017090 0.050935
v 0.122166 0.032014 -0.033448
v 0.076144 0.025056 0.069979
v 0.039552 0.022279 0.057649
v 0.045167 0.013092 -0.052431
v 0.125950 0.035218 -0.048189
v 0.082186 0.073061 -0.064699
v 0.116733 0.075411 -0.042940
v 0.111515 0.075045 0.048067
v 0.077548 0.085818 0.000397
v 0.045320 0.070528 -0.047273
v 0.083895 0.030122 -0.066591
v 0.124760 0.028352 -0.046083
v -0.111606 0.040864 -0.031831
v -0.111606 0.040864 0.031831
v -0.079958 0.007538 -0.022980
v 0.116367 0.017090 0.050935
v 0.077120 0.014435 0.065828
v 0.043977 0.011902 0.055300
v -0.106510 0.007538 -0.022980
v -0.031098 0.079348 0.012818
v -0.117649 0.030000 0.000000
v -0.129978 0.040864 0.000000
v 0.122166 0.032014 -0.033448
v 0.119022 0.027955 0.053743
v 0.117374 0.031678 0.050905
v 0.119022 0.027955 0.053743
v 0.039552 0.022279 0.057649
v 0.043977 0.011902 0.055300
v 0.062929 0.064577 -0.003357
v 0.062929 0.064577 -0.003357
v -0.023316 0.060121 -0.009888
v 0.086703 0.069643 -0.037965
v 0.023530 0.068850 -0.045900
v 0.102268 0.058107 0.019684
v 0.023530 0.068850 -0.045900
v -0.063784 0.050172 0.001312
v -0.039064 0.067232 0.085910
v -0.040590 0.058565 0.002533
v -0.084292 0.042177 0.021760
v 0.023530 0.068850 -0.045900
v -0.055910 0.078036 0.042970
v 0.009522 0.064821 0.041536
v 0.082705 0.069521 0.040956
v 0.082705 0.069521 0.040956
v 0.057039 0.038881 -0.001465
v -0.051637 0.033479 0.047975
v 0.086825 0.044649 0.037843
v -0.023316 0.060121 -0.009888
v -0.027924 0.067965 -0.086276
v -0.062563 0.061678 0.044801
v -0.044893 0.062899 -0.048128
v -0.079806 0.007538 0.013977
v -0.091494 0.007538 -0.006317
v -0.079806 0.007538 0.013977
v -0.027924 0.067965 -0.086276
v 0.023530 0.068850 -0.045900
v 0.086703 0.069643 -0.037965
v 0.070681 0.072970 -0.078158
v 0.072726 0.045167 -0.079287
v -0.027284 0.040437 -0.083834
v -0.027284 0.019044 -0.018494
v -0.025391 0.031892 0.006195
v -0.051424 0.064852 -0.116581
v -0.036958 0.075381 0.006836
v 0.114628 0.072787 -0.098178
v 0.024567 0.075533 -0.046785
v -0.021485 0.038453 -0.096957
v 0.059236 0.063936 -0.000153
v 0.059236 0.063936 -0.000153
v -0.040590 0.058565 0.002533
v -0.040407 0.034028 0.005005
v -0.027406 0.035432 -0.007599
v 0.069948 0.040437 -0.000214
v -0.014771 0.033601 -0.012360
v 0.085452 0.041353 -0.040223
v -0.062563 0.061678 0.044801
v -0.039064 0.067232 0.085910
v -0.040590 0.058565 0.002533
v 0.060732 0.072634 0.083224
v 0.067171 0.044160 0.074099
v 0.057039 0.038881 -0.001465
v 0.086825 0.044649 0.037843
v 0.076388 0.041017 0.038636
v 0.060091 0.022614 0.009186
v 0.063509 0.041658 0.087863
v 0.062014 0.032960 0.004486
v 0.054018 0.080294 0.004364
v 0.050813 0.063051 0.001648
v 0.065401 0.071627 0.076662
v 0.073489 0.048555 0.083254
v -0.033357 0.066622 0.082614
v -0.040407 0.034028 0.005005
v 0.073489 0.048555 0.083254
v -0.035493 0.058718 0.007385
v -0.033357 0.066622 0.082614
v -0.023316 0.060121 -0.009888
v -0.051790 0.038575 -0.050752
v -0.032655 0.044282 -0.093814
v -0.023316 0.060121 -0.009888
v -0.044893 0.062899 -0.048128
v -0.027406 0.035432 -0.007599
v 0.062929 0.064577 -0.003357
v -0.027406 0.035432 -0.007599
v 0.069948 0.040437 -0.000214
v 0.069948 0.040437 -0.000214
v 0.096774 0.046205 -0.039277
v 0.062929 0.064577 -0.003357
v -0.038026 0.042909 0.089938
v 0.065401 0.071627 0.076662
v -0.039369 0.037721 0.084780
v -0.061861 0.037202 0.047548
v -0.040407 0.034028 0.005005
v 0.045442 0.035798 0.005036
v -0.061861 0.037202 0.047548
v 0.065401 0.071627 0.076662
v 0.008942 0.067141 0.043977
v 0.090091 0.057192 -0.015259
v -0.054506 0.061556 0.045045
v -0.038026 0.042909 0.089938
v -0.061861 0.037202 0.047548
v 0.077212 0.068148 0.036470
v 0.008942 0.067141 0.043977
v -0.035493 0.058718 0.007385
v 0.065401 0.071627 0.076662
v 0.050813 0.063051 0.001648
v -0.054506 0.061556 0.045045
v -0.054506 0.061556 0.045045
v -0.035493 0.058718 0.007385
v 0.050813 0.063051 0.001648
v 0.008942 0.067141 0.043977
v 0.008942 0.067141 0.043977
v -0.033357 0.066622 0.082614
v 0.061464 0.030549 0.083071
v 0.063509 0.041658 0.087863
v 0.081545 0.038331 0.045717
v -0.076815 0.048250 -0.009949
v 0.007355 0.073672 0.045076
v 0.093142 0.071047 0.103336
v -0.073794 0.062105 0.108646
v -0.039369 0.037721 0.084780
v 0.067171 0.044160 0.074099
v 0.063509 0.041658 0.087863
v -0.041688 0.034394 0.089846
v 0.063509 0.041658 0.087863
v -0.040407 0.034028 0.005005
v -0.039369 0.037721 0.084780
v 0.057039 0.038881 -0.001465
v 0.050813 0.063051 0.001648
v 0.077975 0.027528 0.046907
v -0.035493 0.058718 0.007385
v 0.061464 0.030549 0.083071
v -0.051790 0.038575 -0.050752
v -0.041047 0.036012 -0.050020
v -0.027284 0.040437 -0.083834
v -0.041688 0.034394 0.089846
v -0.036653 0.023743 0.085421
v -0.037812 0.027558 0.007172
v -0.056124 0.029237 0.045320
v -0.051332 0.019013 0.047670
v 0.073489 0.048555 0.083254
v 0.067171 0.044160 0.074099
v -0.038026 0.042909 0.089938
v -0.061861 0.037202 0.047548
v -0.039369 0.037721 0.084780
v 0.077212 0.068148 0.036470
v -0.038026 0.042909 0.089938
v -0.037812 0.027558 0.007172
v 0.060091 0.022614 0.009186
v -0.034547 0.017487 0.011750
v 0.062014 0.032960 0.004486
v -0.034547 0.017487 0.011750
v -0.051637 0.033479 0.047975
v -0.040407 0.034028 0.005005
v 0.008423 0.094546 0.039888
v -0.055910 0.078036 0.042970
v -0.056368 0.007538 -0.026612
v 0.070681 0.072970 -0.078158
v 0.060732 0.072634 0.083224
v 0.060732 0.072634 0.083224
v -0.035676 0.082827 0.078127
v -0.051637 0.033479 0.047975
v 0.076388 0.041017 0.038636
v 0.086825 0.044649 0.037843
v 0.086825 0.044649 0.037843
v -0.035646 0.042177 -0.006317
v -0.027802 0.076998 -0.013092
v -0.100497 0.042177 -0.006317
v -0.051790 0.038575 -0.050752
v -0.032655 0.044282 -0.093814
v 0.086154 0.086184 -0.035768
v 0.086703 0.069643 -0.037965
v 0.078677 0.049928 -0.084658
v -0.027924 0.067965 -0.086276
v 0.066805 0.023499 -0.007630
v -0.030885 0.029115 -0.014161
v 0.068331 0.033784 -0.002686
v 0.070681 0.072970 -0.078158
v -0.030885 0.029115 -0.014161
v -0.043275 0.080081 -0.050783
v 0.066805 0.023499 -0.007630
v -0.039369 0.037721 0.084780
v 0.067171 0.044160 0.074099
v 0.067171 0.044160 0.074099
v 0.073489 0.048555 0.083254
v -0.030885 0.029115 -0.014161
v -0.014771 0.033601 -0.012360
v -0.041047 0.036012 -0.050020
v -0.041047 0.036012 -0.050020
v -0.027284 0.040437 -0.083834
v -0.044862 0.032899 -0.057772
v 0.072726 0.045167 -0.079287
v 0.085452 0.041353 -0.040223
v -0.027284 0.040437 -0.083834
v 0.067293 0.064852 0.002167
v -0.031922 0.060152 -0.009308
v -0.031922 0.060152 -0.009308
v 0.068331 0.033784 -0.002686
v 0.055544 0.036836 -0.003510
v 0.076113 0.042146 -0.083956
v -0.038026 0.042909 0.089938
v -0.078860 0.030885 0.012360
v -0.035646 0.042177 -0.006317
v -0.078860 0.030885 0.012360
v -0.056368 0.007538 -0.026612
v 0.054018 0.080294 0.004364
v -0.046510 0.030885 -0.006317
v 0.078677 0.049928 -0.084658
v 0.059236 0.063936 -0.000153
v -0.046510 0.030885 -0.006317
v 0.074252 0.085086 0.039491
v -0.032655 0.044282 -0.093814
v -0.027924 0.067965 -0.086276
v -0.091494 0.007538 -0.006317
v -0.051881 0.042177 -0.034394
v -0.079806 0.007538 -0.026612
v -0.027802 0.076998 -0.013092
v -0.022523 0.069521 -0.092105
v -0.049806 0.063784 -0.053377
v 0.076693 0.074190 -0.080630
v -0.084292 0.042177 -0.034394
v -0.089633 0.030885 -0.006317
v -0.057314 0.030885 -0.024995
v 0.020661 0.096103 -0.041902
v 0.085452 0.041353 -0.040223
v 0.086550 0.026948 -0.039918
v 0.062014 0.032960 0.004486
v 0.045442 0.035798 0.005036
v 0.062014 0.032960 0.004486
v 0.055300 0.087741 0.075655
v 0.076388 0.041017 0.038636
v 0.094577 0.070589 -0.036592
v -0.031922 0.060152 -0.009308
v -0.057314 0.030885 -0.024995
v 0.067293 0.064852 0.002167
v 0.055544 0.036836 -0.003510
v 0.070681 0.089267 -0.073458
v -0.019776 0.084994 -0.083895
v 0.022828 0.066439 -0.043550
v -0.018677 0.027589 -0.094272
v -0.014771 0.033601 -0.012360
v 0.068331 0.033784 -0.002686
v -0.084292 0.042177 -0.034394
v -0.051881 0.042177 0.021760
v -0.044649 0.007538 -0.006317
v -0.057314 0.030885 0.012360
v -0.051881 0.042177 0.021760
v -0.035646 0.042177 -0.006317
v -0.022523 0.069521 -0.092105
v 0.067293 0.064852 0.002167
v 0.094577 0.070589 -0.036592
v -0.022523 0.069521 -0.092105
v 0.076693 0.074190 -0.080630
v 0.086154 0.086184 -0.035768
v -0.049806 0.063784 -0.053377
v -0.057314 0.030885 0.012360
v -0.078860 0.030885 0.012360
v -0.084292 0.042177 0.021760
v -0.079806 0.007538 -0.026612
v -0.100497 0.042177 -0.006317
v -0.084292 0.042177 -0.034394
v 0.069948 0.040437 -0.000214
v -0.032655 0.044282 -0.093814
v 0.072726 0.045167 -0.079287
v -0.046510 0.030885 -0.006317
v -0.041688 0.034394 0.089846
v 0.081545 0.038331 0.045717
v 0.081545 0.038331 0.045717
v 0.067171 0.044160 0.074099
v 0.076388 0.041017 0.038636
v 0.067171 0.044160 0.074099
v -0.051637 0.033479 0.047975
v -0.100497 0.042177 -0.006317
v 0.062654 0.081271 -0.002655
v -0.025391 0.031892 0.006195
v -0.037812 0.027558 0.007172
v -0.025391 0.031892 0.006195
v 0.045442 0.035798 0.005036
v -0.051637 0.033479 0.047975
v -0.056368 0.007538 0.013977
v -0.056368 0.007538 0.013977
v -0.051881 0.042177 0.021760
v -0.084292 0.042177 0.021760
v -0.021485 0.038453 -0.096957
v 0.076113 0.042146 -0.083956
v -0.030885 0.029115 -0.014161
v 0.076113 0.042146 -0.083956
v 0.089908 0.037568 -0.036958
v 0.073092 0.031129 -0.083041
v -0.051881 0.042177 -0.034394
v -0.044649 0.007538 -0.006317
v -0.035646 0.042177 -0.006317
v -0.051881 0.042177 0.021760
v 0.078677 0.049928 -0.084658
v 0.085452 0.041353 -0.040223
v 0.096774 0.046205 -0.039277
v 0.055544 0.036836 -0.003510
v -0.057314 0.030885 0.012360
v -0.078860 0.030885 -0.024995
v -0.051881 0.042177 -0.034394
v -0.057314 0.030885 -0.024995
v -0.089633 0.030885 -0.006317
v -0.078860 0.030885 -0.024995
v -0.084292 0.042177 -0.034394
v -0.021485 0.038453 -0.096957
v -0.018677 0.027589 -0.094272
v -0.089633 0.030885 -0.006317
v -0.100497 0.042177 -0.006317
v -0.078860 0.030885 -0.024995
v -0.084292 0.042177 0.021760
v -0.027284 0.019044 -0.018494
v -0.044862 0.032899 -0.057772
v -0.040071 0.022523 -0.058412
v 0.096774 0.046205 -0.039277
v 0.078677 0.049928 -0.084658
v 0.069948 0.040437 -0.000214
v 0.085452 0.041353 -0.040223
v -0.051881 0.042177 -0.034394
v 0.085452 0.041353 -0.040223
v -0.041047 0.036012 -0.050020
v 0.078677 0.049928 -0.084658
vt 0.540713 0.376287
vt 0.575747 0.187519
vt 0.659748 0.442074
vt 0.261537 0.491710
vt 0.249941 0.473829
vt 0.273043 0.473829
vt 0.261537 0.473829
vt 0.273043 0.491710
vt 0.273043 0.473829
vt 0.283851 0.491710
vt 0.261537 0.491710
vt 0.261537 0.473829
vt 0.249941 0.491710
vt 0.273043 0.491710
vt 0.249941 0.491710
vt 0.261537 0.473829
vt 0.273043 0.491710
vt 0.261537 0.491710
vt 0.249941 0.473829
vt 0.273043 0.491710
vt 0.283851 0.473829
vt 0.920254 0.368971
vt 0.273043 0.491710
vt 0.273043 0.483695
vt 0.283851 0.483695
vt 0.283851 0.491710
vt 0.273043 0.483695
vt 0.283851 0.483695
vt 0.933247 0.190554
vt 0.540713 0.376287
vt 0.994753 0.220245
vt 0.887983 0.365115
vt 0.563027 0.321915
vt 0.273043 0.483695
vt 0.283851 0.491710
vt 0.681758 0.448388
vt 0.552462 0.145745
vt 0.659748 0.442074
vt 0.607137 0.338855
vt 0.575747 0.187519
vt 0.396541 0.376317
vt 0.679481 0.395443
vt 0.562996 0.368364
vt 0.145083 0.400604
vt 0.285460 0.412201
vt 0.203583 0.361411
vt 0.887983 0.365115
vt 0.180754 0.407495
vt 0.153401 0.431357
vt 0.285460 0.412201
vt 0.480725 0.488917
vt 0.203583 0.361411
vt 0.776476 0.017846
vt 0.261537 0.491710
vt 0.885675 0.203973
vt 0.249941 0.491710
vt 0.283851 0.491710
vt 0.776476 0.017846
vt 0.273043 0.473829
vt 0.273954 0.756860
vt 0.273954 0.684060
vt 0.316000 0.684060
vt 0.254707 0.719610
vt 0.316000 0.756860
vt 0.337008 0.720460
vt 0.273043 0.491710
vt 0.273043 0.483695
vt 0.261537 0.491710
vt 0.261537 0.483695
vt 0.261537 0.483695
vt 0.921589 0.169516
vt 0.552462 0.145745
vt 0.873350 0.330416
vt 0.552462 0.145745
vt 0.776476 0.017846
vt 0.920254 0.368971
vt 0.540713 0.376287
vt 0.562996 0.368364
vt 0.659748 0.442074
vt 0.994753 0.220245
vt 0.828511 0.114142
vt 0.933247 0.190554
vt 0.681758 0.448388
vt 0.681758 0.448388
vt 0.920254 0.368971
vt 0.563027 0.321915
vt 0.933247 0.190554
vt 0.828511 0.114142
vt 0.803192 0.055278
vt 0.898942 0.538644
vt 0.898942 0.537369
vt 0.775353 0.762537
vt 0.552462 0.145745
vt 0.868827 0.190949
vt 0.612420 0.295261
vt 0.921589 0.169516
vt 0.776476 0.017846
vt 0.873350 0.330416
vt 0.707775 0.386214
vt 0.612420 0.295261
vt 0.563027 0.321915
vt 0.601885 0.102090
vt 0.855196 0.039795
vt 0.855196 0.039795
vt 0.681758 0.448388
vt 0.921589 0.169516
vt 0.290196 0.359317
vt 0.442504 0.423100
vt 0.412358 0.378017
vt 0.425928 0.386761
vt 0.770526 0.082721
vt 0.739894 0.243651
vt 0.604526 0.167998
vt 0.880059 0.457556
vt 0.855196 0.039795
vt 0.591776 0.201757
vt 0.575747 0.187519
vt 0.659748 0.442074
vt 0.690016 0.479475
vt 0.575747 0.187519
vt 0.920254 0.368971
vt 0.753283 0.281478
vt 0.933247 0.190554
vt 0.803192 0.055278
vt 0.880059 0.457556
vt 0.994753 0.220245
vt 0.933247 0.190554
vt 0.278599 0.355522
vt 0.370828 0.412383
vt 0.202490 0.376925
vt 0.096570 0.484424
vt 0.352886 0.399845
vt 0.388253 0.382662
vt 0.880059 0.457556
vt 0.690016 0.479475
vt 0.540713 0.376287
vt 0.856319 0.337762
vt 0.885675 0.203973
vt 0.887983 0.365115
vt 0.898942 0.762537
vt 0.370828 0.412383
vt 0.389316 0.367088
vt 0.290196 0.359317
vt 0.775353 0.975106
vt 0.898942 0.538644
vt 0.775353 0.538644
vt 0.898942 0.537824
vt 0.471405 0.482632
vt 0.775353 0.973345
vt 0.898942 0.762537
vt 0.775353 0.538644
vt 0.898942 0.973831
vt 0.775353 0.537824
vt 0.775353 0.973831
vt 0.898942 0.975106
vt 0.775353 0.537369
vt 0.898942 0.975106
vt 0.775353 0.975106
vt 0.203583 0.361411
vt 0.086825 0.493319
vt 0.305071 0.417878
vt 0.898942 0.973345
vt 0.775353 0.762537
vt 0.803192 0.055278
vt 0.790593 0.101665
vt 0.933247 0.190554
vt 0.612936 0.202212
vt 0.803192 0.055278
vt 0.790593 0.101665
vt 0.659748 0.442074
vt 0.607137 0.338855
vt 0.575747 0.187519
vt 0.856319 0.337762
vt 0.679481 0.395443
vt 0.562996 0.368364
vt 0.202490 0.376925
vt 0.305071 0.417878
vt 0.887983 0.365115
vt 0.679481 0.395443
vt 0.659748 0.442074
vt 0.323044 0.404885
vt 0.212994 0.400968
vt 0.290196 0.359317
vt 0.145083 0.400604
vt 0.278599 0.355522
vt 0.278599 0.355522
vt 0.145083 0.400604
vt 0.153401 0.431357
vt 0.285460 0.412201
vt 0.374865 0.312504
vt 0.396541 0.376317
vt 0.228174 0.405826
vt 0.153401 0.431357
vt 0.180754 0.407495
vt 0.880059 0.457556
vt 0.994753 0.220245
vt 0.887983 0.365115
vt 0.374865 0.017178
vt 0.374865 0.312504
vt 0.829573 0.078987
vt 0.601885 0.102090
vt 0.017456 0.017178
vt 0.601885 0.102090
vt 0.017456 0.017178
vt 0.196176 0.164841
vt 0.017456 0.312504
vt 0.797029 0.084998
vt 0.589651 0.200026
vt 0.803192 0.055278
vt 0.374865 0.017178
vt 0.196176 0.164841
vt 0.017456 0.312504
vt 0.775353 0.973831
vt 0.575747 0.187519
vt 0.601885 0.102090
vt 0.228174 0.405826
vt 0.153401 0.431357
vt 0.562996 0.368364
vt 0.323044 0.404885
vt 0.790593 0.101665
vt 0.153401 0.431357
vt 0.389316 0.367088
vt 0.419705 0.431296
vt 0.868827 0.190949
vt 0.920254 0.368971
vt 0.575747 0.187519
vt 0.442504 0.423100
vt 0.442504 0.423100
vt 0.323044 0.404885
vt 0.352886 0.399845
vt 0.180754 0.407495
vt 0.153401 0.431357
vt 0.399031 0.386548
vt 0.775353 0.973345
vt 0.679481 0.395443
vt 0.017456 0.017178
vt 0.856319 0.337762
vt 0.419705 0.431296
vt 0.237797 0.374132
vt 0.898942 0.973831
vt 0.898942 0.975106
vt 0.898942 0.537824
vt 0.775353 0.537824
vt 0.471405 0.482632
vt 0.388253 0.382662
vt 0.898942 0.973345
vt 0.202490 0.376925
vt 0.776476 0.017846
vt 0.753283 0.281478
vt 0.873350 0.330416
vt 0.273043 0.491710
vt 0.921589 0.169516
vt 0.775353 0.537369
vt 0.775353 0.538644
vt 0.775353 0.975106
vt 0.898942 0.538644
vt 0.552462 0.145745
vt 0.563027 0.321915
vt 0.681758 0.448388
vt 0.753283 0.281478
vt 0.921589 0.169516
vt 0.776476 0.017846
vt 0.775353 0.538644
vt 0.898942 0.537369
vt 0.898942 0.975106
vt 0.775353 0.975106
vt 0.196176 0.164841
vt 0.374865 0.312504
vt 0.374865 0.017178
vt 0.285460 0.412201
vt 0.305071 0.417878
vt 0.388253 0.382662
vt 0.305071 0.417878
vt 0.202490 0.376925
vt 0.898942 0.538644
vt 0.775353 0.762537
vt 0.898942 0.762537
vt 0.898942 0.762537
vt 0.396541 0.376317
vt 0.480725 0.488917
vt 0.898942 0.973345
vt 0.690016 0.479475
vt 0.775353 0.762537
vt 0.471405 0.482632
vt 0.202490 0.376925
vt 0.096570 0.484424
vt 0.086825 0.493319
vt 0.285460 0.412201
vt 0.203583 0.361411
vt 0.203583 0.361411
vt 0.017456 0.312504
vt 0.681758 0.448388
vt 0.920254 0.368971
vt 0.873350 0.330416
vt 0.612936 0.202212
vt 0.237797 0.374132
vt 0.690016 0.479475
vt 0.681758 0.448388
vt 0.681758 0.448388
vt 0.563027 0.321915
vt 0.920254 0.368971
vt 0.920254 0.368971
vt 0.803192 0.055278
vt 0.887983 0.365115
vt 0.880059 0.457556
vt 0.856319 0.337762
vt 0.563027 0.321915
vt 0.681758 0.448388
vt 0.920254 0.368971
vt 0.776476 0.017846
vt 0.604526 0.167998
vt 0.612420 0.295261
vt 0.612936 0.202212
vt 0.790593 0.101665
vt 0.885675 0.203973
vt 0.933247 0.190554
vt 0.659748 0.442074
vt 0.856319 0.337762
vt 0.562996 0.368364
vt 0.607137 0.338855
vt 0.237797 0.374132
vt 0.153401 0.431357
vt 0.145083 0.400604
vt 0.803192 0.055278
vt 0.612936 0.202212
vt 0.790593 0.101665
vt 0.575747 0.187519
vt 0.659748 0.442074
vt 0.679481 0.395443
vt 0.212994 0.400968
vt 0.286462 0.354611
vt 0.887983 0.365115
vt 0.145083 0.400604
vt 0.228174 0.405826
vt 0.153401 0.431357
vt 0.180754 0.407495
vt 0.921589 0.169516
vt 0.770526 0.082721
vt 0.552462 0.145745
vt 0.873350 0.330416
vt 0.868827 0.190949
vt 0.776476 0.017846
vt 0.707775 0.386214
vt 0.612420 0.295261
vt 0.739894 0.243651
vt 0.249941 0.483695
vt 0.261537 0.483695
vt 0.261537 0.483695
vt 0.261537 0.491710
vt 0.612420 0.295261
vt 0.770526 0.082721
vt 0.776476 0.017846
vt 0.419705 0.431296
vt 0.399031 0.386548
vt 0.419705 0.431296
vt 0.412358 0.378017
vt 0.442504 0.423100
vt 0.425928 0.386761
vt 0.419705 0.431296
vt 0.775353 0.537824
vt 0.145083 0.400604
vt 0.153401 0.431357
vt 0.153401 0.431357
vt 0.280208 0.355704
vt 0.290196 0.359317
vt 0.419705 0.431296
vt 0.442504 0.423100
vt 0.442504 0.423100
vt 0.145083 0.400604
vt 0.153401 0.431357
vt 0.180754 0.407495
vt 0.145083 0.400604
vt 0.280208 0.355704
vt 0.419705 0.431296
vt 0.442504 0.423100
vt 0.273043 0.491710
vt 0.283851 0.473829
vt 0.180754 0.407495
vt 0.690016 0.479475
vt 0.775353 0.762537
vt 0.994753 0.220245
vt 0.797029 0.084998
vt 0.096570 0.484424
vt 0.305071 0.417878
vt 0.203583 0.361411
vt 0.419705 0.431296
vt 0.422103 0.380962
vt 0.412358 0.378017
vt 0.442504 0.423100
vt 0.290196 0.359317
vt 0.389316 0.367088
vt 0.387373 0.368424
vt 0.412358 0.378017
vt 0.419705 0.431296
vt 0.280208 0.355704
vt 0.285460 0.412201
vt 0.323044 0.404885
vt 0.086825 0.493319
vt 0.290196 0.359317
vt 0.775353 0.973831
vt 0.387373 0.368424
vt 0.898942 0.973831
vt 0.898942 0.537824
vt 0.775353 0.975106
vt 0.898942 0.975106
vt 0.480725 0.488917
vt 0.898942 0.538644
vt 0.775353 0.537369
vt 0.775353 0.538644
vt 0.898942 0.975106
vt 0.775353 0.975106
vt 0.775353 0.538644
vt 0.898942 0.537369
vt 0.898942 0.762537
vt 0.775353 0.762537
vt 0.775353 0.973345
vt 0.898942 0.538644
vt 0.898942 0.762537
vt 0.305071 0.417878
vt 0.202490 0.376925
vt 0.352886 0.399845
vt 0.679481 0.395443
vt 0.856319 0.337762
vt 0.228174 0.405826
vt 0.933247 0.190554
vt 0.803192 0.055278
vt 0.612936 0.202212
vt 0.212994 0.400968
vt 0.612420 0.295261
vt 0.707775 0.386214
vt 0.873350 0.330416
vt 0.739894 0.243651
vt 0.604526 0.167998
vt 0.540713 0.376287
vt 0.659748 0.442074
vt 0.261537 0.491710
vt 0.261537 0.491710
vt 0.273043 0.473829
vt 0.856319 0.337762
vt 0.885675 0.203973
vt 0.790593 0.101665
vt 0.261537 0.473829
vt 0.607137 0.338855
vt 0.249941 0.483695
vt 0.249941 0.491710
vt 0.690016 0.479475
vt 0.887983 0.365115
vt 0.880059 0.457556
vt 0.887983 0.365115
vt 0.803192 0.055278
vt 0.790593 0.101665
vt 0.096570 0.484424
vt 0.086825 0.493319
vt 0.202490 0.376925
vt 0.203583 0.361411
vt 0.305071 0.417878
vt 0.017456 0.312504
vt 0.285460 0.412201
vt 0.374865 0.312504
vt 0.552462 0.145745
vt 0.681758 0.448388
vt 0.261537 0.491710
vt 0.305071 0.417878
vt 0.612420 0.295261
vt 0.753283 0.281478
vt 0.921589 0.169516
vt 0.921589 0.169516
vt 0.898942 0.973831
vt 0.153401 0.431357
vt 0.898942 0.762537
vt 0.202490 0.376925
vt 0.471405 0.482632
vt 0.563027 0.321915
vt 0.388253 0.382662
vt 0.261537 0.473829
vt 0.249941 0.473829
vt 0.261537 0.473829
vt 0.480725 0.488917
vt 0.285460 0.412201
vt 0.203583 0.361411
vt 0.396541 0.376317
vt 0.181634 0.384271
vt 0.394902 0.385364
vt 0.856319 0.337762
vt 0.228174 0.405826
vt 0.374865 0.017178
vt 0.707775 0.386214
vt 0.017456 0.017178
vt 0.196176 0.164841
vt 0.803192 0.055278
vt 0.920254 0.368971
vt 0.920254 0.368971
vt 0.681758 0.448388
vt 0.212994 0.400968
vt 0.352886 0.399845
vt 0.180754 0.407495
vt 0.323044 0.404885
vt 0.153401 0.431357
vt 0.563027 0.321915
vt 0.552462 0.145745
vt 0.681758 0.448388
vt 0.776476 0.017846
vt 0.425928 0.386761
vt 0.352886 0.399845
vt 0.442504 0.423100
vt 0.419705 0.431296
vt 0.856319 0.337762
vt 0.803192 0.055278
vt 0.887983 0.365115
vt 0.873350 0.330416
vt 0.202490 0.376925
vt 0.775353 0.975106
vt 0.898942 0.538644
vt 0.775353 0.973345
vt 0.898942 0.538644
vt 0.898942 0.975106
vt 0.775353 0.538644
vt 0.775353 0.537369
vt 0.775353 0.973831
vt 0.898942 0.762537
vt 0.389316 0.367088
vt 0.775353 0.537824
vt 0.775353 0.762537
vt 0.898942 0.973831
vt 0.775353 0.975106
vt 0.898942 0.537824
vt 0.898942 0.975106
vt 0.898942 0.538644
vt 0.898942 0.762537
vt 0.775353 0.538644
vt 0.898942 0.537369
vt 0.775353 0.538644
vt 0.280542 0.353002
vt 0.145083 0.400604
vt 0.180754 0.407495
vt 0.323044 0.404885
vt 0.145083 0.400604
vt 0.480725 0.488917
vt 0.285460 0.412201
vt 0.374865 0.312504
vt 0.775353 0.762537
vt 0.898942 0.973345
vt 0.898942 0.762537
vt 0.388253 0.382662
vt 0.305071 0.417878
vt 0.096570 0.484424
vt 0.471405 0.482632
vt 0.202490 0.376925
vt 0.203583 0.361411
vt 0.203583 0.361411
vt 0.086825 0.493319
vt 0.775353 0.537824
vt 0.305071 0.417878
vt 0.285460 0.412201
vt 0.396541 0.376317
vt 0.790593 0.101665
vt 0.803192 0.055278
vt 0.933247 0.190554
vt 0.017456 0.312504
vt 0.196176 0.164841
vt 0.374865 0.017178
vt 0.017456 0.017178
vt 0.544022 0.180597
vt 0.828723 0.086668
vt 0.803192 0.055278
vt 0.575747 0.187519
vt 0.803192 0.055278
vt 0.898942 0.975106
vt 0.544022 0.180597
vt 0.898942 0.537824
vt 0.775353 0.973831
vt 0.885675 0.203973
vt 0.775353 0.975106
vt 0.790593 0.101665
vt 0.442504 0.423100
vt 0.419705 0.431296
vt 0.399031 0.386548
vt 0.575747 0.187519
vt 0.612936 0.202212
vt 0.659748 0.442074
vt 0.562996 0.368364
vt 0.607137 0.338855
vt 0.412358 0.378017
vt 0.425928 0.386761
vt 0.290196 0.359317
vt 0.145083 0.400604
vt 0.280542 0.353002
vt 0.775353 0.762537
vt 0.290196 0.359317
vt 0.659748 0.442074
vt 0.856319 0.337762
vt 0.679481 0.395443
vt 0.887983 0.365115
vt 0.679481 0.395443
vt 0.153401 0.431357
vt 0.180754 0.407495
vt 0.739894 0.243651
vt 0.612420 0.295261
vt 0.273043 0.473829
vt 0.775353 0.973345
vt 0.776476 0.017846
vt 0.776476 0.017846
vt 0.604526 0.167998
vt 0.153401 0.431357
vt 0.419705 0.431296
vt 0.442504 0.423100
vt 0.442504 0.423100
vt 0.283851 0.491710
vt 0.873350 0.330416
vt 0.249941 0.491710
vt 0.442504 0.423100
vt 0.898942 0.975106
vt 0.612420 0.295261
vt 0.775353 0.762537
vt 0.898942 0.537369
vt 0.775353 0.975106
vt 0.679481 0.395443
vt 0.887983 0.365115
vt 0.659748 0.442074
vt 0.775353 0.537369
vt 0.887983 0.365115
vt 0.868827 0.190949
vt 0.679481 0.395443
vt 0.280542 0.353002
vt 0.386887 0.410197
vt 0.386887 0.410197
vt 0.389316 0.367088
vt 0.887983 0.365115
vt 0.880059 0.457556
vt 0.994723 0.220245
vt 0.994723 0.220245
vt 0.814242 0.024585
vt 0.933247 0.190554
vt 0.530725 0.180111
vt 0.540713 0.376287
vt 0.814242 0.024585
vt 0.681758 0.448388
vt 0.920254 0.368971
vt 0.920254 0.368971
vt 0.659748 0.442074
vt 0.690016 0.479475
vt 0.575747 0.187519
vt 0.290196 0.359317
vt 0.261537 0.483695
vt 0.283851 0.491710
vt 0.273954 0.684060
vt 0.273043 0.473829
vt 0.873350 0.330416
vt 0.337008 0.720460
vt 0.898942 0.973345
vt 0.920254 0.368971
vt 0.283851 0.483695
vt 0.868827 0.190949
vt 0.898942 0.538644
vt 0.775353 0.538644
vt 0.249941 0.473829
vt 0.273043 0.491710
vt 0.261537 0.473829
vt 0.873350 0.330416
vt 0.776476 0.017846
vt 0.921589 0.169516
vt 0.552462 0.145745
vt 0.261537 0.491710
vt 0.249941 0.483695
vt 0.273043 0.483695
vt 0.739894 0.243651
vt 0.540713 0.376287
vt 0.607137 0.338855
vt 0.887983 0.365115
vt 0.880059 0.457556
vt 0.887983 0.365115
vt 0.770526 0.082721
vt 0.994723 0.220245
vt 0.563027 0.321915
vt 0.920254 0.368971
vt 0.273043 0.483695
vt 0.681758 0.448388
vt 0.690016 0.479475
vt 0.604526 0.167998
vt 0.770526 0.082721
vt 0.753283 0.281478
vt 0.790593 0.101665
vt 0.880059 0.457556
vt 0.659748 0.442074
vt 0.261537 0.491710
vt 0.273043 0.491710
vt 0.283851 0.473829
vt 0.273043 0.483695
vt 0.273043 0.491710
vt 0.283851 0.491710
vt 0.776476 0.017846
vt 0.681758 0.448388
vt 0.563027 0.321915
vt 0.776476 0.017846
vt 0.552462 0.145745
vt 0.612420 0.295261
vt 0.921589 0.169516
vt 0.273043 0.483695
vt 0.261537 0.483695
vt 0.261537 0.491710
vt 0.261537 0.473829
vt 0.249941 0.491710
vt 0.261537 0.491710
vt 0.212994 0.400968
vt 0.412358 0.378017
vt 0.181634 0.384271
vt 0.283851 0.483695
vt 0.575747 0.187519
vt 0.933247 0.190554
vt 0.933247 0.190554
vt 0.828511 0.114142
vt 0.994723 0.220245
vt 0.828511 0.114142
vt 0.540713 0.376287
vt 0.249941 0.491710
vt 0.707775 0.386214
vt 0.690016 0.479475
vt 0.659748 0.442074
vt 0.690016 0.479475
vt 0.880059 0.457556
vt 0.540713 0.376287
vt 0.273043 0.473829
vt 0.273043 0.473829
vt 0.273043 0.491710
vt 0.261537 0.491710
vt 0.803192 0.055278
vt 0.575747 0.187519
vt 0.887983 0.365115
vt 0.575747 0.187519
vt 0.562996 0.368364
vt 0.612936 0.202212
vt 0.273043 0.491710
vt 0.283851 0.473829
vt 0.283851 0.491710
vt 0.273043 0.491710
vt 0.290196 0.359317
vt 0.153401 0.431357
vt 0.145083 0.400604
vt 0.228174 0.405826
vt 0.316000 0.684060
vt 0.273954 0.756860
vt 0.273043 0.491710
vt 0.316000 0.756860
vt 0.254919 0.719610
vt 0.261537 0.483695
vt 0.261537 0.491710
vt 0.803192 0.055278
vt 0.790593 0.101665
vt 0.249941 0.483695
vt 0.249941 0.491710
vt 0.261537 0.483695
vt 0.261537 0.491710
vt 0.856319 0.337762
vt 0.933247 0.190554
vt 0.885675 0.203973
vt 0.145083 0.400604
vt 0.290196 0.359317
vt 0.180754 0.407495
vt 0.153401 0.431357
vt 0.273043 0.491710
vt 0.153401 0.431357
vt 0.419705 0.431296
vt 0.290196 0.359317
vn -0.272732 0.738867 -0.616192
vn -0.283014 0.628790 -0.724241
vn 0.996242 -0.065213 0.057000
vn -0.837149 -0.256344 0.483187
vn -0.837040 -0.256018 0.483549
vn 0.000000 -0.256671 0.966499
vn -0.837103 -0.256207 0.483339
vn 0.837149 -0.256344 -0.483187
vn 0.836953 -0.256397 0.483499
vn 0.837212 -0.256070 0.483223
vn 0.000000 -0.256671 0.966499
vn 0.000000 -0.256671 0.966499
vn -0.837103 -0.256207 0.483339
vn 0.000000 -0.256671 0.966499
vn -0.837212 -0.256070 -0.483223
vn -0.836953 -0.256397 -0.483499
vn 0.000000 -0.256671 -0.966499
vn -0.837103 -0.256207 -0.483339
vn -0.837103 -0.256207 -0.483339
vn 0.837103 -0.256207 0.483339
vn 0.837103 -0.256207 0.483339
vn 0.077991 -0.996946 0.004119
vn -0.618431 0.700092 0.356952
vn 0.000000 0.701072 -0.713090
vn -0.618436 0.700083 -0.356961
vn -0.618438 0.700086 0.356951
vn -0.618420 0.700101 0.356953
vn -0.618431 0.700092 0.356952
vn 0.480734 0.847526 -0.224931
vn 0.098877 0.727934 0.678480
vn 0.299994 0.928076 -0.220634
vn 0.248439 0.929975 -0.270970
vn 0.068307 -0.997629 -0.008372
vn -0.618431 0.700092 -0.356952
vn -0.618431 0.700092 -0.356952
vn 0.078511 -0.996909 -0.003012
vn 0.058029 -0.998307 -0.004046
vn 0.537883 -0.316833 -0.781216
vn -0.025180 -0.373943 -0.927110
vn -0.778427 -0.372411 -0.505332
vn -0.108539 0.993985 -0.014602
vn 0.533590 -0.327931 -0.779579
vn 0.244810 -0.060179 -0.967702
vn -0.223390 -0.929531 0.293376
vn -0.108539 0.993985 -0.014602
vn -0.082961 0.995960 -0.034353
vn -0.233033 0.394581 -0.888820
vn -0.223390 -0.929531 0.293376
vn -0.223390 -0.929531 0.293376
vn 0.039398 0.999044 0.018927
vn 0.057908 0.998294 0.007520
vn 0.012070 0.999289 0.035731
vn -0.955180 0.291106 -0.053742
vn 0.617676 0.700982 0.356511
vn 0.000000 -1.000000 0.000000
vn 0.617679 0.700976 0.356518
vn 0.837103 -0.256207 -0.483339
vn 0.005375 -0.999943 0.009191
vn 0.837103 -0.256207 -0.483339
vn 0.000000 1.000000 0.000000
vn 0.000000 1.000000 0.000000
vn 0.000000 1.000000 0.000000
vn 0.000000 1.000000 0.000000
vn 0.000000 1.000000 0.000000
vn 0.000000 1.000000 0.000000
vn 0.000000 0.701072 0.713090
vn 0.000000 0.701072 0.713090
vn 0.000000 0.701072 0.713090
vn 0.000000 0.701072 0.713090
vn 0.617679 0.700976 0.356518
vn -0.083716 0.420163 0.903579
vn -0.874243 0.347965 -0.338556
vn 0.705054 0.389179 -0.592823
vn -0.001375 -0.999943 0.010606
vn 0.186306 0.354970 0.916126
vn 0.707137 0.385692 -0.592621
vn -0.473135 0.880561 -0.027481
vn -0.584636 0.806421 0.088801
vn -0.438650 0.883756 -0.162980
vn 0.033982 0.735460 -0.676716
vn 0.208876 0.869682 -0.447240
vn 0.033982 0.735460 -0.676716
vn -0.881027 0.385799 -0.273772
vn -0.186361 0.354984 -0.916109
vn -0.186476 0.354550 -0.916254
vn -0.887000 0.426306 0.177466
vn 0.503356 0.419644 -0.755336
vn 0.503356 0.419644 -0.755336
vn 0.405232 0.914039 -0.017879
vn 0.430775 0.303609 -0.849856
vn 0.974563 0.185062 0.126406
vn -0.006868 0.327598 -0.944792
vn -0.110445 0.406069 0.907144
vn 0.495643 0.862835 -0.099268
vn -0.885283 0.429999 0.177128
vn 0.886937 0.426306 -0.177782
vn 0.881027 0.385799 0.273772
vn -0.017709 0.901946 -0.431485
vn -0.230855 0.818330 -0.526348
vn -0.193024 0.980434 0.038622
vn -0.008290 -0.999964 0.001659
vn 0.073356 0.964184 0.254890
vn 0.073356 0.964184 0.254890
vn 0.898024 0.424864 0.114207
vn -0.005683 -0.999937 -0.009716
vn 0.008158 -0.999965 -0.001635
vn 0.480940 -0.875715 0.042654
vn 0.147782 -0.945064 -0.291571
vn 0.147782 -0.945064 -0.291571
vn 0.147782 -0.945064 -0.291571
vn 0.231050 0.818104 0.526614
vn 0.000000 1.000000 -0.000000
vn -0.052338 0.884698 0.463217
vn 0.156924 0.964640 -0.211765
vn 0.485731 0.874005 -0.013467
vn 0.363140 0.925434 0.108172
vn 0.516384 0.816148 0.259325
vn -0.272617 0.910059 0.312205
vn -0.234848 0.940936 0.243896
vn 0.097468 0.688075 0.719064
vn 0.001434 -0.999938 -0.011063
vn 0.000000 -1.000000 0.000000
vn -0.264461 0.740252 0.618132
vn -0.264461 0.740252 0.618132
vn 0.281812 0.657444 0.698820
vn 0.332760 0.394826 0.856378
vn -0.391365 0.383483 0.836525
vn 0.480940 -0.875715 0.042654
vn 0.480940 -0.875715 0.042654
vn -0.015857 0.999364 -0.031937
vn -0.052275 0.998612 -0.006460
vn -0.366626 -0.911770 -0.185096
vn -0.000220 0.999527 -0.030751
vn -0.985526 0.034776 -0.165919
vn -0.979968 -0.101920 -0.171099
vn -0.198332 0.888863 0.413021
vn -0.238914 -0.337194 -0.910615
vn 0.153279 -0.365276 -0.918193
vn -0.238705 -0.337782 -0.910452
vn -0.006974 0.327594 -0.944793
vn 0.295469 -0.954585 0.038285
vn 0.295469 -0.954585 0.038285
vn 0.295469 -0.954585 0.038285
vn -0.969410 0.214314 -0.119640
vn -0.576013 0.309898 0.756420
vn -0.576031 0.309958 0.756383
vn -0.969410 0.214314 -0.119640
vn 0.014999 0.999450 -0.029589
vn 0.305005 0.302748 0.902948
vn -0.145639 0.342402 0.928197
vn 0.430793 0.303653 -0.849831
vn -0.425791 0.288760 -0.857508
vn -0.969265 0.214889 -0.119781
vn -0.425775 0.288720 -0.857529
vn -0.969538 0.213805 -0.119515
vn 0.974431 0.185671 0.126534
vn 0.974680 0.184523 0.126293
vn 0.974563 0.185062 0.126406
vn -0.022528 0.999308 0.029581
vn -0.022528 0.999308 0.029581
vn -0.052275 0.998612 -0.006460
vn 0.305057 0.302862 0.902893
vn -0.145742 0.342374 0.928192
vn 0.522168 -0.336699 -0.783565
vn 0.522016 -0.337057 -0.783513
vn 0.153375 -0.365404 -0.918126
vn 0.893036 -0.316358 0.320007
vn 0.949194 -0.272972 0.156581
vn 0.936057 -0.318622 0.149255
vn -0.575647 -0.348431 0.739748
vn -0.098796 -0.370274 0.923654
vn 0.701056 -0.336393 0.628777
vn -0.936232 -0.316184 -0.153290
vn -0.569038 -0.362779 0.737961
vn -0.351632 -0.069879 0.933526
vn -0.052275 0.998612 -0.006460
vn -0.000220 0.999527 -0.030751
vn -0.954210 -0.255026 -0.156348
vn -0.935955 -0.316977 -0.153343
vn -0.967885 -0.193688 -0.160262
vn -0.271125 -0.951174 -0.147511
vn -0.848708 -0.518410 -0.104621
vn 0.316837 0.143460 0.937568
vn 0.316837 0.143460 0.937568
vn 0.316837 0.143460 0.937568
vn 0.056403 -0.920342 0.387027
vn 0.056403 -0.920342 0.387027
vn 0.056403 -0.920342 0.387027
vn -0.022528 0.999308 0.029581
vn -0.114210 0.988103 -0.102999
vn 0.039398 0.999044 0.018927
vn -0.439509 -0.897806 0.027871
vn -0.160744 -0.972776 0.166937
vn -0.160744 -0.972776 0.166937
vn -0.147982 0.959907 -0.238074
vn -0.147982 0.959907 -0.238074
vn -0.147982 0.959907 -0.238074
vn -0.176925 0.981112 0.078212
vn 0.057149 0.994248 0.090579
vn 0.271810 0.962049 0.024107
vn 0.119458 0.797411 0.591495
vn 0.091226 0.990863 0.099337
vn -0.518824 0.785348 0.337713
vn -0.168114 0.981724 -0.089190
vn -0.056074 0.998426 0.000698
vn 0.065945 0.994861 -0.076827
vn -0.701974 0.705593 0.096802
vn -0.605505 0.773891 -0.185625
vn -0.814070 0.580636 -0.012317
vn 0.117524 0.990863 -0.066170
vn -0.011608 0.999931 -0.001845
vn -0.140500 0.988105 0.062521
vn 0.650183 0.289043 -0.702649
vn -0.567002 0.727834 0.385701
vn -0.567002 0.727834 0.385701
vn 0.000268 -1.000000 0.000904
vn -0.000411 -1.000000 -0.000688
vn -0.567002 0.727834 0.385701
vn -0.000038 -1.000000 0.000461
vn 0.000000 -1.000000 0.000000
vn -0.000038 -1.000000 0.000461
vn 0.008349 -0.999352 0.035017
vn -0.000185 -1.000000 0.000249
vn -0.089082 0.858595 0.504856
vn -0.009827 -0.999938 -0.005269
vn -0.706703 0.698727 -0.111134
vn 0.042806 -0.999083 -0.001187
vn 0.036578 -0.998550 -0.039488
vn -0.005092 -0.997463 -0.071002
vn 0.013965 -0.998077 -0.060398
vn -0.066951 -0.997560 -0.019773
vn -0.066951 -0.997560 -0.019773
vn 0.000000 -1.000000 0.000000
vn -0.735729 0.302964 0.605736
vn 0.000133 -1.000000 -0.000026
vn -0.060424 0.990908 0.120207
vn 0.000000 -1.000000 0.000000
vn -0.000237 -1.000000 -0.000397
vn -0.000237 -1.000000 -0.000397
vn 0.650471 0.288583 -0.702572
vn -0.232873 0.214488 -0.948560
vn -0.232763 0.214832 -0.948509
vn -0.232639 0.215221 -0.948451
vn -0.087991 0.995800 0.025286
vn -0.070767 0.997156 0.025922
vn -0.417199 0.274826 -0.866265
vn -0.054027 0.998187 0.026532
vn 0.057704 -0.998330 0.002761
vn 0.067816 -0.997698 -0.000045
vn 0.365562 0.415272 0.833015
vn -0.618428 0.700098 -0.356945
vn 0.067327 -0.997697 0.008169
vn 0.227999 0.185115 0.955902
vn -0.911590 0.310205 -0.269770
vn -0.232763 0.214832 -0.948509
vn -0.911813 0.309746 -0.269546
vn 0.009429 -0.999943 0.005054
vn -0.001394 -0.999964 0.008338
vn -0.011098 -0.999937 0.001859
vn 0.000000 -1.000000 0.000000
vn 0.001369 -0.999965 -0.008207
vn 0.010504 -0.999943 -0.001760
vn 0.947457 0.303528 0.100970
vn 0.227949 0.185299 0.955878
vn 0.227904 0.185463 0.955857
vn 0.227949 0.185299 0.955878
vn -0.002453 0.999928 -0.011757
vn 0.055556 0.988097 -0.143447
vn 0.103449 0.990909 0.086015
vn -0.003645 0.999072 0.042909
vn -0.012373 0.998650 -0.050445
vn 0.028258 0.999540 -0.010971
vn 0.028258 0.999540 -0.010971
vn 0.023875 0.999382 -0.025802
vn 0.947634 0.303063 0.100708
vn 0.880896 0.327193 -0.342003
vn 0.881053 0.326712 -0.342060
vn -0.919507 0.342033 0.193704
vn -0.003645 0.999072 0.042909
vn 0.013350 0.998343 0.055971
vn -0.735751 0.302928 0.605727
vn -0.336363 0.929421 -0.151776
vn -0.919417 0.342291 0.193674
vn 0.032517 0.999465 0.003465
vn -0.012373 0.998650 -0.050445
vn -0.012373 0.998650 -0.050445
vn -0.035133 0.999329 -0.010397
vn -0.035133 0.999329 -0.010397
vn -0.035133 0.999329 -0.010397
vn -0.028691 0.999309 0.023622
vn -0.108300 0.988094 -0.109281
vn -0.922451 0.355270 -0.151221
vn -0.302675 0.384579 -0.872059
vn -0.303745 0.388581 -0.869910
vn 0.000254 -1.000000 -0.000050
vn 0.015307 -0.998467 0.053186
vn -0.282705 -0.106029 -0.953329
vn 0.907421 0.416726 0.054087
vn 0.462536 0.417074 -0.782375
vn 0.026071 0.427642 -0.903572
vn 0.364946 0.410870 0.835465
vn 0.907845 0.415824 0.053929
vn 0.981708 -0.143743 0.124849
vn 0.708966 -0.336911 -0.619563
vn -0.290119 0.034818 -0.956357
vn 0.708877 -0.337901 -0.619125
vn -0.149134 0.426369 0.892171
vn -0.568928 0.386005 0.726169
vn -0.922848 0.354291 -0.151096
vn 0.922454 0.355281 0.151175
vn 0.414388 0.884735 0.213369
vn -0.148807 0.430246 0.890362
vn 0.193965 -0.296988 0.934974
vn 0.933544 -0.338327 0.118447
vn 0.889605 -0.367545 -0.271135
vn 0.921241 -0.303231 -0.243651
vn -0.892481 -0.361382 -0.269965
vn -0.279737 -0.315656 -0.906702
vn -0.914583 -0.402606 0.038039
vn -0.860786 -0.393955 0.322252
vn -0.065879 -0.996646 0.048555
vn -0.047356 -0.998433 0.029803
vn -0.066951 -0.997560 -0.019773
vn 0.192068 0.407252 0.892892
vn -0.080597 -0.314563 0.945809
vn 0.193965 -0.296988 0.934974
vn -0.200795 -0.045228 0.978589
vn -0.287404 -0.193797 -0.937999
vn -0.486291 -0.367130 -0.792929
vn -0.028633 -0.993812 -0.107318
vn 0.003342 -0.998993 0.044741
vn -0.284950 -0.254460 -0.924150
vn -0.065879 -0.996646 0.048555
vn -0.029929 -0.998636 -0.042779
vn -0.037737 -0.999157 -0.016163
vn -0.037737 -0.999157 -0.016163
vn 0.148921 0.424982 -0.892868
vn 0.574349 0.818105 -0.028769
vn 0.808536 0.406686 0.425295
vn -0.409737 0.901931 -0.136512
vn 0.083301 0.862662 -0.498875
vn 0.568881 0.385421 -0.726516
vn -0.574376 0.818086 0.028773
vn -0.032378 0.980513 0.193765
vn -0.000000 1.000000 0.000000
vn 0.617679 0.700976 -0.356518
vn 0.617669 0.700985 -0.356519
vn 0.000000 0.701072 -0.713090
vn 0.000000 0.701072 -0.713090
vn 0.025682 0.431919 -0.901547
vn -0.622179 0.777839 0.088659
vn -0.514871 0.350718 0.782244
vn 0.027842 -0.999050 -0.033530
vn 0.020767 -0.999225 0.033431
vn 0.042806 -0.999083 -0.001187
vn 0.068296 -0.997639 0.007240
vn 0.068296 -0.997639 0.007240
vn 0.122426 -0.957234 -0.262136
vn 0.281508 -0.842807 0.458727
vn 0.955065 0.289438 0.063845
vn -0.064546 -0.933393 -0.353004
vn 0.238133 -0.927785 -0.287243
vn -0.064546 -0.933393 -0.353004
vn -0.064546 -0.933393 -0.353004
vn -0.279553 -0.653278 -0.703618
vn -0.134055 -0.961085 -0.241547
vn -0.147954 -0.943045 -0.297951
vn 0.262127 -0.883911 0.387287
vn 0.238133 -0.927785 -0.287243
vn 0.188367 -0.968611 -0.162208
vn 0.188367 -0.968611 -0.162208
vn -0.279553 -0.653278 -0.703618
vn -0.279553 -0.653278 -0.703618
vn 0.122426 -0.957234 -0.262136
vn 0.122426 -0.957234 -0.262136
vn 0.000000 0.701072 -0.713090
vn 0.837040 -0.256018 -0.483549
vn 0.238133 -0.927785 -0.287243
vn 0.163618 0.955998 -0.243508
vn 0.024329 0.344300 -0.938544
vn -0.391365 0.383483 0.836525
vn -0.391365 0.383483 0.836525
vn -0.016227 0.999868 0.000257
vn -0.016227 0.999868 0.000257
vn -0.049033 0.998287 -0.031924
vn -0.079964 -0.941920 0.326178
vn -0.079964 -0.941920 0.326178
vn -0.079964 -0.941920 0.326178
vn -0.094574 -0.917474 0.386390
vn -0.312924 -0.949627 -0.016912
vn -0.459229 -0.888228 -0.012609
vn -0.312924 -0.949627 -0.016912
vn -0.094574 -0.917474 0.386390
vn -0.094574 -0.917474 0.386390
vn -0.312924 -0.949627 -0.016912
vn -0.049033 0.998287 -0.031924
vn 0.654146 -0.709813 0.261263
vn -0.049033 0.998287 -0.031924
vn -0.459229 -0.888228 -0.012609
vn 0.413098 0.310383 0.856161
vn -0.459229 -0.888228 -0.012609
vn 0.416364 0.320582 0.850804
vn 0.958326 0.279030 0.061264
vn 0.958326 0.279030 0.061264
vn 0.961146 0.269672 0.058945
vn -0.125831 0.992051 -0.001190
vn 0.471405 0.342184 -0.812827
vn -0.992825 0.117216 -0.023648
vn 0.471397 0.342156 -0.812843
vn -0.992678 0.118398 -0.023919
vn -0.992747 0.117843 -0.023791
vn -0.398754 0.280442 0.873125
vn -0.992747 0.117843 -0.023791
vn 0.033048 0.330772 0.943132
vn 0.030128 0.327586 0.944341
vn -0.416873 0.274156 -0.866635
vn -0.396194 0.276045 0.875688
vn 0.024297 0.344682 -0.938405
vn -0.070767 0.997156 0.025922
vn -0.016227 0.999868 0.000257
vn 0.603541 -0.764154 0.227612
vn 0.966577 -0.250510 0.054536
vn 0.966628 -0.250315 0.054517
vn 0.530085 -0.846046 -0.056711
vn 0.102897 -0.311796 0.944561
vn -0.942182 -0.334494 -0.020149
vn -0.909017 -0.374415 -0.183036
vn 0.740593 -0.670487 0.044374
vn -0.055065 0.979097 -0.195796
vn 0.511461 0.854724 -0.088628
vn 0.359497 0.928499 0.093014
vn -0.068019 0.997684 0.000005
vn -0.493164 0.853424 -0.168691
vn 0.102817 0.903494 -0.416086
vn 0.197989 0.928423 -0.314374
vn 0.000000 -0.256671 -0.966499
vn 0.617679 0.700976 -0.356518
vn 0.000000 -0.256671 -0.966499
vn 0.355060 -0.313024 0.880879
vn 0.081648 -0.356258 0.930813
vn -0.268128 -0.347195 0.898645
vn 0.000000 -0.256671 -0.966499
vn 0.001893 -0.999998 -0.000375
vn 0.617684 0.700967 0.356527
vn 0.617686 0.700970 -0.356517
vn 0.894624 0.443676 0.052907
vn 0.995605 -0.074434 0.056835
vn 0.897661 0.437521 0.052730
vn 0.368856 -0.017912 0.929314
vn -0.279904 -0.324030 0.903691
vn -0.920926 -0.389469 -0.014477
vn -0.062819 0.985573 0.157159
vn -0.028251 0.991659 0.125756
vn -0.062819 0.985573 0.157159
vn -0.028251 0.991659 0.125756
vn -0.062819 0.985573 0.157159
vn 0.011423 0.970442 0.241065
vn -0.042241 0.996952 0.065588
vn -0.155109 0.962495 0.222585
vn -0.293105 0.476713 0.828755
vn -0.838242 0.294096 -0.459193
vn -0.845061 -0.219030 0.487747
vn -0.089610 0.990204 0.107077
vn -0.925449 0.378216 -0.022300
vn 0.056341 -0.993146 0.102402
vn 0.879446 0.471545 -0.064965
vn 0.064559 -0.992647 0.102394
vn 0.747728 0.270573 -0.606377
vn -0.341942 -0.913774 0.219300
vn 0.907829 0.358690 -0.217228
vn -0.089955 0.988379 0.122538
vn -0.089254 0.991750 0.092004
vn -0.926948 0.374546 -0.021971
vn -0.089610 0.990204 0.107077
vn 0.000000 -0.219205 0.975679
vn -0.845377 -0.219724 0.486887
vn -0.845194 -0.219321 0.487386
vn -0.054548 0.997373 0.047652
vn -0.028251 0.991659 0.125756
vn -0.024056 0.995470 0.091979
vn -0.042241 0.996952 0.065588
vn 0.074248 -0.871055 -0.485541
vn 0.061123 -0.919902 -0.387356
vn -0.084529 -0.419198 0.903951
vn -0.054965 -0.936816 -0.345477
vn -0.130830 0.991361 -0.009274
vn -0.179088 0.747578 -0.639574
vn 0.035716 0.999320 0.009179
vn -0.060338 0.991283 0.117119
vn -0.016202 0.960299 -0.278500
vn 0.059599 -0.993958 0.092176
vn -0.039859 0.254958 -0.966130
vn -0.039748 0.255762 -0.965922
vn -0.022807 -0.604106 -0.796578
vn -0.111605 -0.954536 0.276414
vn 0.381749 -0.915503 0.126974
vn -0.076126 -0.981534 0.175486
vn 0.381749 -0.915503 0.126974
vn 0.047967 -0.993585 0.102408
vn 0.053215 -0.992262 0.112178
vn 0.052440 -0.994365 0.092127
vn 0.060041 -0.991878 0.112132
vn 0.335340 -0.926760 0.169302
vn 0.166500 -0.939494 -0.299381
vn 0.319772 -0.941756 -0.104119
vn 0.266989 -0.960566 -0.077650
vn 0.869325 -0.328613 -0.369173
vn 0.858921 -0.327800 0.393449
vn 0.869244 -0.329126 -0.368905
vn 0.008497 0.854944 -0.518650
vn -0.028243 0.991909 -0.123767
vn 0.042914 0.287726 0.956751
vn 0.895873 0.379908 0.230396
vn -0.847612 0.301725 0.436482
vn -0.865262 0.215323 -0.452723
vn 0.042736 0.288291 0.956589
vn -0.865006 0.215820 -0.452974
vn 0.043115 0.287088 0.956933
vn -0.849793 0.186465 0.493034
vn -0.960927 0.263255 0.085530
vn 0.074248 -0.871055 -0.485541
vn -0.080494 0.105223 0.991186
vn -0.960994 0.263094 0.085274
vn -0.849508 0.187046 0.493305
vn -0.080561 0.105433 0.991158
vn -0.080561 0.105433 0.991158
vn -0.080619 0.105619 0.991133
vn 0.766122 0.297127 0.569888
vn 0.912809 0.384520 0.137567
vn 0.766218 0.296994 0.569828
vn 0.042914 0.287726 0.956751
vn 0.895897 0.379860 0.230378
vn -0.818993 -0.283799 0.498707
vn -0.336786 -0.936257 -0.099993
vn -0.336786 -0.936257 -0.099993
vn 0.148838 -0.969599 -0.194230
vn -0.818993 -0.283799 0.498707
vn -0.053263 0.997570 -0.044917
vn -0.067643 0.995863 -0.060682
vn 0.024347 0.972362 -0.232205
vn -0.957234 0.289298 -0.003122
vn -0.847814 0.301304 0.436381
vn -0.957387 0.288790 -0.003364
vn -0.026584 0.993748 -0.108436
vn -0.026584 0.993748 -0.108436
vn -0.059784 0.986196 -0.154415
vn -0.024964 0.995307 -0.093490
vn -0.059784 0.986196 -0.154415
vn -0.089052 0.988835 -0.119482
vn -0.088776 0.992515 -0.083863
vn -0.089052 0.988835 -0.119482
vn -0.071397 0.109296 -0.991442
vn -0.059784 0.986196 -0.154415
vn -0.089052 0.988835 -0.119482
vn -0.067643 0.995863 -0.060682
vn 0.049856 -0.403280 0.913717
vn 0.046241 -0.384206 0.922089
vn 0.942007 -0.335215 0.015913
vn -0.142656 0.963416 -0.226889
vn -0.056771 0.991809 -0.114419
vn 0.030290 0.999541 0.000427
vn -0.136699 0.990596 0.005739
vn -0.042715 0.984911 0.167709
vn -0.042715 0.984911 0.167709
vn 0.057533 0.979434 0.193387
vn -0.221199 0.858584 0.462497
vn -0.048294 0.844930 0.532693
vn -0.071290 0.109773 -0.991397
vn -0.221199 0.858584 0.462497
vn -0.071341 0.109549 -0.991418
vn 0.747655 0.270677 -0.606420
vn 0.949885 -0.312196 0.015872
vn -0.071341 0.109549 -0.991418
vn 0.867043 -0.288906 0.405918
vn -0.228786 -0.947636 -0.222805
vn -0.213189 -0.953822 -0.211600
vn -0.228786 -0.947636 -0.222805
vn -0.251897 -0.470459 0.845705
vn -0.244281 -0.452708 0.857544
vn -0.818879 -0.435471 -0.373901
vn -0.971444 -0.236514 -0.018928
vn -0.906325 -0.422464 0.009970
vn 0.365331 -0.912156 0.185756
vn 0.365331 -0.912156 0.185756
vn 0.112395 -0.715031 0.689999
vn -0.341942 -0.913774 0.219300
vn -0.341942 -0.913774 0.219300
vn 0.907796 0.358711 -0.217330
vn -0.818993 -0.283799 0.498707
vn -0.008156 -0.294697 -0.955556
vn -0.002279 -0.413248 -0.910615
vn -0.814955 -0.448719 -0.366742
vn -0.006064 -0.354016 -0.935220
vn -0.002168 -0.413818 -0.910357
vn -0.136928 -0.989396 -0.048437
vn -0.136928 -0.989396 -0.048437
vn -0.056490 0.993105 -0.102716
vn -0.251751 0.963013 -0.096062
vn 0.000000 -0.219205 -0.975679
vn 0.866374 0.389000 -0.313170
vn -0.000182 0.447884 0.894092
vn 0.795323 0.472073 0.380275
vn -0.184112 0.916870 0.354191
vn -0.336786 -0.936257 -0.099993
vn 0.335340 -0.926760 0.169302
vn 0.335340 -0.926760 0.169302
vn 0.365331 -0.912156 0.185756
vn -0.665169 0.640001 0.384641
vn -0.167737 0.844658 0.508347
vn 0.665354 0.640179 -0.384025
vn -0.235697 -0.969812 0.062540
vn 0.063738 0.291106 -0.954565
vn 0.136944 0.982472 0.126476
vn 0.912900 0.384250 0.137715
vn 0.063761 0.291249 -0.954520
vn 0.063761 0.291249 -0.954520
vn -0.084560 -0.420368 0.903405
vn -0.090211 -0.361310 0.928072
vn 0.810451 -0.347095 0.471905
vn 0.063788 0.291410 -0.954469
vn -0.285792 0.922773 0.258481
vn -0.552492 0.832924 0.031469
vn 0.808596 -0.363728 0.462465
vn 0.112395 -0.715031 0.689999
vn 0.069938 -0.917286 0.392040
vn 0.112395 -0.715031 0.689999
vn 0.069938 -0.917286 0.392040
vn -0.895608 0.314747 0.314358
vn -0.285792 0.922773 0.258481
vn -0.285792 0.922773 0.258481
vn -0.717875 0.692081 0.075363
vn -0.507247 0.856619 -0.094367
vn -0.717875 0.692081 0.075363
vn 0.049715 0.962965 -0.265005
vn 0.574670 0.811228 -0.107995
vn -0.139042 0.968239 -0.207799
vn -0.122878 0.247527 0.961057
vn -0.875921 0.295193 0.381607
vn -0.122726 0.246781 0.961269
vn 0.285057 0.906069 0.312701
vn 0.205413 0.936983 0.282608
vn 0.697393 0.703637 -0.136153
vn 0.069938 -0.917286 0.392040
vn 0.665684 0.639872 -0.383965
vn 0.844732 -0.219321 -0.488186
vn 0.000000 1.000000 0.000000
vn 0.844732 -0.219321 -0.488186
vn 0.775856 0.385439 -0.499484
vn 0.000000 1.000000 0.000000
vn 0.866177 0.389348 -0.313283
vn 0.778728 0.381166 -0.498293
vn -0.665140 0.639973 -0.384738
vn 0.456207 0.884180 -0.100503
vn -0.888070 0.290523 -0.356269
vn -0.887953 0.290786 -0.356345
vn -0.845194 -0.219321 -0.487386
vn 0.000000 -0.219205 -0.975679
vn -0.845534 -0.218919 -0.486977
vn -0.873682 0.299750 0.383183
vn 0.056625 -0.991653 -0.115840
vn 0.050723 -0.993006 -0.106609
vn 0.063535 -0.991338 -0.114947
vn 0.000000 0.639776 0.768562
vn 0.665418 0.640240 0.383811
vn 0.000000 0.639776 0.768562
vn -0.059045 0.992674 0.105410
vn 0.393555 0.892955 0.218509
vn 0.948992 -0.302633 -0.088470
vn 0.152438 0.945644 -0.287264
vn 0.152438 0.945644 -0.287264
vn 0.805765 0.402777 -0.434181
vn 0.086949 0.877223 0.472144
vn 0.152438 0.945644 -0.287264
vn 0.067510 -0.992257 -0.104253
vn 0.054382 -0.993939 -0.095535
vn -0.665020 0.640139 0.384669
vn 0.061618 -0.993623 -0.094423
vn -0.112611 -0.209593 0.971283
vn 0.138596 0.934399 -0.328161
vn -0.107394 0.869083 -0.482868
vn 0.059055 -0.992670 -0.105442
vn 0.126708 -0.207053 -0.970090
vn -0.115119 -0.077500 0.990324
vn -0.097016 -0.302012 0.948355
vn 0.000000 -0.219205 -0.975679
vn 0.000000 0.639776 -0.768562
vn 0.844854 -0.219588 -0.487856
vn -0.665110 0.640056 -0.384652
vn -0.665089 0.640111 -0.384595
vn -0.665110 0.640056 -0.384652
vn -0.777089 0.393871 -0.490916
vn 0.731979 0.370091 0.572049
vn 0.873043 0.463546 0.151398
vn 0.081057 0.455880 -0.886343
vn 0.357516 0.512854 -0.780489
vn 0.870781 0.467751 0.151491
vn -0.923025 0.379741 -0.061818
vn 0.000000 0.639776 -0.768562
vn 0.000000 0.639776 -0.768562
vn 0.000000 0.639776 -0.768562
vn 0.000000 -0.219205 -0.975679
vn -0.844948 -0.219612 -0.487682
vn -0.845194 -0.219321 -0.487386
vn -0.028720 -0.609936 0.791930
vn -0.242327 -0.941921 -0.232515
vn 0.468405 -0.851480 -0.235750
vn -0.665110 0.640056 0.384652
vn -0.726174 0.669130 0.157915
vn 0.808712 0.502061 0.306462
vn 0.627501 0.760101 -0.168788
vn 0.427721 0.903376 0.031088
vn 0.627501 0.760101 -0.168788
vn 0.808712 0.502061 0.306462
vn -0.690577 0.707827 0.148610
vn -0.845194 -0.219321 0.487386
vn 0.010769 0.755269 0.655327
vn -0.004583 -0.207318 -0.978263
vn -0.414770 0.869945 -0.266762
vn -0.336484 0.909015 -0.245906
vn -0.018643 -0.070206 -0.997358
vn -0.499726 0.848290 -0.175149
vn 0.844958 -0.219055 0.487915
vn 0.000000 -0.219205 0.975679
vn 0.000000 -0.219205 0.975679
vn 0.000000 -0.219205 0.975679
vn 0.131339 -0.162232 -0.977973
vn 0.433283 0.234733 -0.870153
vn -0.875032 -0.417963 0.244183
vn 0.931814 -0.212536 -0.294195
vn 0.977971 -0.035597 0.205682
vn 0.311718 -0.202226 -0.928405
vn 0.844644 -0.219129 -0.488425
vn 0.844732 -0.219321 0.488186
vn 0.844569 -0.219514 0.488381
vn 0.844732 -0.219321 0.488186
vn 0.399483 -0.886880 -0.232073
vn 0.399483 -0.886880 -0.232073
vn 0.399483 -0.886880 -0.232073
vn 0.098300 -0.929985 0.354211
vn 0.000000 1.000000 0.000000
vn 0.000000 1.000000 0.000000
vn 0.000000 0.639776 0.768562
vn 0.000000 1.000000 0.000000
vn 0.000000 1.000000 0.000000
vn 0.000000 0.639776 0.768562
vn 0.665531 0.639934 0.384127
vn -0.841518 -0.139762 -0.521837
vn -0.788671 -0.331969 -0.517489
vn 0.665486 0.640056 -0.384001
vn 0.665486 0.640056 0.384001
vn 0.665486 0.640056 0.384001
vn 0.665486 0.640056 -0.384001
vn -0.874872 -0.418437 0.243944
vn -0.922817 -0.341020 -0.179206
vn -0.901301 -0.407032 -0.148262
vn 0.381749 -0.915503 0.126974
vn 0.468405 -0.851480 -0.235750
vn 0.227762 -0.971476 0.066025
vn 0.468405 -0.851480 -0.235750
vn -0.665110 0.640056 0.384652
vn 0.227762 -0.971476 0.066025
vn -0.177319 -0.983188 0.043583
vn 0.089790 -0.792621 -0.603067
f 103/103/103 102/102/102 324/324/324
f 110/110/110 108/108/108 109/109/109
f 128/128/128 129/129/129 107/107/107
f 143/143/143 141/141/141 142/142/142
f 161/161/161 176/176/176 131/131/131
f 189/189/189 160/160/160 159/159/159
f 215/215/215 218/218/218 214/214/214
f 271/271/271 285/285/285 286/286/286
f 288/288/288 287/287/287 289/289/289
f 326/326/326 324/324/324 313/313/313
f 334/334/334 335/335/335 336/336/336
f 231/231/231 232/232/232 323/323/323
f 355/355/355 227/227/227 354/354/354
f 354/354/354 357/357/357 356/356/356
f 374/374/374 375/375/375 358/358/358
f 365/365/365 372/372/372 373/373/373
f 364/364/364 361/361/361 363/363/363
f 424/424/424 370/370/370 371/371/371
f 378/378/378 362/362/362 369/369/369
f 387/387/387 386/386/386 388/388/388
f 393/393/393 394/394/394 389/389/389
f 395/395/395 392/392/392 390/390/390
f 399/399/399 401/401/401 391/391/391
f 384/384/384 420/420/420 383/383/383
f 396/396/396 398/398/398 385/385/385
f 381/381/381 382/382/382 127/127/127
f 123/123/123 207/207/207 124/124/124
f 48/48/48 49/49/49 44/44/44
f 87/87/87 88/88/88 89/89/89
f 183/183/183 184/184/184 185/185/185
f 186/186/186 187/187/187 188/188/188
f 192/192/192 193/193/193 194/194/194
f 195/195/195 196/196/196 197/197/197
f 348/348/348 376/376/376 24/24/24
f 349/349/349 376/376/376 348/348/348
f 34/34/34 35/35/35 25/25/25
f 251/251/251 35/35/35 34/34/34
f 26/26/26 23/23/23 28/28/28
f 28/28/28 23/23/23 27/27/27
f 224/224/224 301/301/301 250/250/250
f 71/71/71 301/301/301 224/224/224
f 224/224/224 352/352/352 71/71/71
f 351/351/351 352/352/352 224/224/224
f 351/351/351 224/224/224 432/432/432
f 433/433/433 351/351/351 432/432/432
f 433/433/433 72/72/72 351/351/351
f 351/351/351 72/72/72 53/53/53
f 224/224/224 431/431/431 432/432/432
f 432/432/432 431/431/431 430/430/430
f 430/430/430 429/429/429 432/432/432
f 429/429/429 433/433/433 432/432/432
f 431/431/431 302/302/302 430/430/430
f 430/430/430 302/302/302 298/298/298
f 350/350/350 72/72/72 433/433/433
f 300/300/300 72/72/72 350/350/350
f 300/300/300 350/350/350 299/299/299
f 299/299/299 350/350/350 430/430/430
f 346/346/346 437/437/437 347/347/347
f 445/445/445 437/437/437 346/346/346
f 377/377/377 59/59/59 57/57/57
f 57/57/57 59/59/59 8/8/8
f 70/70/70 56/56/56 444/444/444
f 54/54/54 56/56/56 70/70/70
f 443/443/443 235/235/235 295/295/295
f 295/295/295 235/235/235 220/220/220
f 220/220/220 235/235/235 237/237/237
f 55/55/55 220/220/220 237/237/237
f 438/438/438 442/442/442 17/17/17
f 17/17/17 442/442/442 436/436/436
f 16/16/16 19/19/19 18/18/18
f 18/18/18 19/19/19 15/15/15
f 5/5/5 7/7/7 13/13/13
f 13/13/13 7/7/7 4/4/4
f 12/12/12 6/6/6 11/11/11
f 11/11/11 6/6/6 14/14/14
f 9/9/9 21/21/21 20/20/20
f 20/20/20 21/21/21 10/10/10
f 64/64/64 60/60/60 63/63/63
f 65/65/65 64/64/64 63/63/63
f 62/62/62 65/65/65 63/63/63
f 61/61/61 62/62/62 63/63/63
f 66/66/66 68/68/68 67/67/67
f 67/67/67 68/68/68 69/69/69
f 111/111/111 93/93/93 75/75/75
f 113/113/113 93/93/93 111/111/111
f 95/95/95 93/93/93 113/113/113
f 86/86/86 93/93/93 95/95/95
f 86/86/86 95/95/95 83/83/83
f 83/83/83 95/95/95 99/99/99
f 113/113/113 111/111/111 112/112/112
f 100/100/100 113/113/113 112/112/112
f 99/99/99 100/100/100 112/112/112
f 112/112/112 98/98/98 99/99/99
f 98/98/98 85/85/85 99/99/99
f 99/99/99 85/85/85 84/84/84
f 111/111/111 94/94/94 112/112/112
f 94/94/94 98/98/98 112/112/112
f 111/111/111 97/97/97 94/94/94
f 94/94/94 97/97/97 96/96/96
f 96/96/96 76/76/76 94/94/94
f 94/94/94 76/76/76 73/73/73
f 114/114/114 31/31/31 32/32/32
f 32/32/32 31/31/31 29/29/29
f 31/31/31 115/115/115 29/29/29
f 316/316/316 104/104/104 303/303/303
f 303/303/303 314/314/314 316/316/316
f 316/316/316 314/314/314 315/315/315
f 306/306/306 316/316/316 315/315/315
f 304/304/304 316/316/316 306/306/306
f 92/92/92 152/152/152 154/154/154
f 140/140/140 152/152/152 92/92/92
f 92/92/92 90/90/90 140/140/140
f 151/151/151 90/90/90 92/92/92
f 153/153/153 147/147/147 144/144/144
f 144/144/144 147/147/147 155/155/155
f 146/146/146 145/145/145 163/163/163
f 163/163/163 145/145/145 150/150/150
f 162/162/162 163/163/163 150/150/150
f 149/149/149 163/163/163 162/162/162
f 156/156/156 91/91/91 158/158/158
f 158/158/158 91/91/91 157/157/157
f 177/177/177 148/148/148 133/133/133
f 177/177/177 133/133/133 130/130/130
f 50/50/50 52/52/52 191/191/191
f 50/50/50 191/191/191 51/51/51
f 200/200/200 116/116/116 89/89/89
f 89/89/89 116/116/116 117/117/117
f 116/116/116 30/30/30 117/117/117
f 324/324/324 201/201/201 327/327/327
f 325/325/325 324/324/324 327/327/327
f 325/325/325 327/327/327 320/320/320
f 320/320/320 327/327/327 319/319/319
f 320/320/320 319/319/319 329/329/329
f 329/329/329 319/319/319 317/317/317
f 77/77/77 78/78/78 203/203/203
f 77/77/77 79/79/79 78/78/78
f 282/282/282 79/79/79 77/77/77
f 234/234/234 283/283/283 281/281/281
f 281/281/281 283/283/283 278/278/278
f 283/283/283 256/256/256 278/278/278
f 254/254/254 256/256/256 283/283/283
f 217/217/217 238/238/238 239/239/239
f 239/239/239 238/238/238 233/233/233
f 276/276/276 240/240/240 213/213/213
f 277/277/277 240/240/240 276/276/276
f 276/276/276 275/275/275 277/277/277
f 263/263/263 275/275/275 276/276/276
f 243/243/243 242/242/242 255/255/255
f 255/255/255 242/242/242 241/241/241
f 253/253/253 264/264/264 266/266/266
f 266/266/266 264/264/264 265/265/265
f 273/273/273 284/284/284 272/272/272
f 273/273/273 272/272/272 274/274/274
f 270/270/270 290/290/290 279/279/279
f 270/270/270 279/279/279 280/280/280
f 219/219/219 221/221/221 216/216/216
f 223/223/223 221/221/221 219/219/219
f 331/331/331 354/354/354 222/222/222
f 296/296/296 354/354/354 331/331/331
f 305/305/305 328/328/328 297/297/297
f 332/332/332 328/328/328 305/305/305
f 332/332/332 329/329/329 328/328/328
f 318/318/318 329/329/329 332/332/332
f 334/334/334 330/330/330 229/229/229
f 229/229/229 330/330/330 230/230/230
f 229/229/229 230/230/230 353/353/353
f 353/353/353 230/230/230 228/228/228
f 321/321/321 331/331/331 333/333/333
f 322/322/322 321/321/321 333/333/333
f 366/366/366 132/132/132 367/367/367
f 181/181/181 132/132/132 366/366/366
f 192/192/192 132/132/132 181/181/181
f 182/182/182 132/132/132 192/192/192
f 360/360/360 403/403/403 404/404/404
f 404/404/404 403/403/403 405/405/405
f 359/359/359 421/421/421 368/368/368
f 397/397/397 421/421/421 359/359/359
f 424/424/424 421/421/421 397/397/397
f 428/428/428 421/421/421 424/424/424
f 415/415/415 402/402/402 400/400/400
f 414/414/414 402/402/402 415/415/415
f 415/415/415 417/417/417 414/414/414
f 412/412/412 417/417/417 415/415/415
f 45/45/45 41/41/41 406/406/406
f 45/45/45 46/46/46 41/41/41
f 409/409/409 407/407/407 380/380/380
f 380/380/380 407/407/407 418/418/418
f 246/246/246 380/380/380 418/418/418
f 416/416/416 380/380/380 246/246/246
f 408/408/408 413/413/413 411/411/411
f 411/411/411 413/413/413 410/410/410
f 419/419/419 244/244/244 245/245/245
f 419/419/419 245/245/245 247/247/247
f 423/423/423 422/422/422 447/447/447
f 447/447/447 422/422/422 3/3/3
f 3/3/3 446/446/446 447/447/447
f 447/447/447 446/446/446 448/448/448
f 125/125/125 126/126/126 449/449/449
f 449/449/449 126/126/126 425/425/425
f 449/449/449 425/425/425 439/439/439
f 439/439/439 425/425/425 440/440/440
f 425/425/425 441/441/441 440/440/440
f 450/450/450 441/441/441 425/425/425
f 208/208/208 1/1/1 226/226/226
f 226/226/226 207/207/207 208/208/208
f 209/209/209 207/207/207 226/226/226
f 2/2/2 434/434/434 43/43/43
f 434/434/434 435/435/435 43/43/43
f 379/379/379 435/435/435 434/434/434
f 451/451/451 426/426/426 427/427/427
f 427/427/427 426/426/426 40/40/40
f 427/427/427 40/40/40 39/39/39
f 39/39/39 40/40/40 43/43/43
f 39/39/39 43/43/43 42/42/42
f 42/42/42 43/43/43 38/38/38
f 47/47/47 80/80/80 82/82/82
f 80/80/80 81/81/81 82/82/82
f 120/120/120 136/136/136 175/175/175
f 136/136/136 118/118/118 175/175/175
f 119/119/119 118/118/118 136/136/136
f 134/134/134 180/180/180 135/135/135
f 178/178/178 180/180/180 134/134/134
f 178/178/178 179/179/179 180/180/180
f 173/173/173 179/179/179 178/178/178
f 139/139/139 166/166/166 137/137/137
f 137/137/137 166/166/166 138/138/138
f 166/166/166 165/165/165 138/138/138
f 164/164/164 165/165/165 166/166/166
f 169/169/169 168/168/168 167/167/167
f 167/167/167 168/168/168 172/172/172
f 167/167/167 172/172/172 171/171/171
f 171/171/171 172/172/172 175/175/175
f 171/171/171 175/175/175 174/174/174
f 174/174/174 175/175/175 170/170/170
f 341/341/341 293/293/293 294/294/294
f 337/337/337 293/293/293 341/341/341
f 341/341/341 342/342/342 337/337/337
f 338/338/338 342/342/342 341/341/341
f 338/338/338 341/341/341 345/345/345
f 311/311/311 338/338/338 345/345/345
f 311/311/311 339/339/339 338/338/338
f 338/338/338 339/339/339 310/310/310
f 341/341/341 340/340/340 345/345/345
f 345/345/345 340/340/340 343/343/343
f 343/343/343 344/344/344 345/345/345
f 344/344/344 311/311/311 345/345/345
f 340/340/340 309/309/309 343/343/343
f 343/343/343 309/309/309 292/292/292
f 312/312/312 339/339/339 311/311/311
f 307/307/307 339/339/339 312/312/312
f 307/307/307 312/312/312 308/308/308
f 308/308/308 312/312/312 343/343/343
f 37/37/37 249/249/249 248/248/248
f 249/249/249 37/37/37 33/33/33
f 249/249/249 33/33/33 36/36/36
f 22/22/22 249/249/249 36/36/36
f 249/249/249 22/22/22 252/252/252
f 249/249/249 252/252/252 248/248/248
f 122/122/122 74/74/74 101/101/101
f 74/74/74 122/122/122 58/58/58
f 122/122/122 106/106/106 58/58/58
f 122/122/122 121/121/121 106/106/106
f 121/121/121 122/122/122 105/105/105
f 122/122/122 101/101/101 105/105/105
f 212/212/212 211/211/211 190/190/190
f 202/202/202 211/211/211 212/212/212
f 202/202/202 210/210/210 211/211/211
f 211/211/211 210/210/210 190/190/190
f 291/291/291 267/267/267 268/268/268
f 236/236/236 267/267/267 291/291/291
f 236/236/236 269/269/269 267/267/267
f 267/267/267 269/269/269 268/268/268
f 206/206/206 205/205/205 199/199/199
f 204/204/204 205/205/205 206/206/206
f 204/204/204 198/198/198 205/205/205
f 205/205/205 198/198/198 199/199/199
f 260/260/260 225/225/225 261/261/261
f 225/225/225 260/260/260 259/259/259
f 260/260/260 258/258/258 259/259/259
f 260/260/260 257/257/257 258/258/258
f 257/257/257 260/260/260 262/262/262
f 260/260/260 261/261/261 262/262/262
f 670/670/670 673/673/673 669/669/669
f 709/709/709 713/713/713 565/565/565
f 456/456/456 454/454/454 452/452/452
f 479/479/479 453/453/453 455/455/455
f 553/553/553 548/548/548 546/546/546
f 554/554/554 551/551/551 549/549/549
f 564/564/564 563/563/563 565/565/565
f 589/589/589 537/537/537 533/533/533
f 587/587/587 586/586/586 469/469/469
f 485/485/485 595/595/595 596/596/596
f 535/535/535 604/604/604 534/534/534
f 605/605/605 606/606/606 503/503/503
f 584/584/584 607/607/607 583/583/583
f 624/624/624 626/626/626 585/585/585
f 643/643/643 625/625/625 627/627/627
f 706/706/706 757/757/757 759/759/759
f 737/737/737 736/736/736 738/738/738
f 739/739/739 761/761/761 758/758/758
f 496/496/496 498/498/498 756/756/756
f 629/629/629 630/630/630 621/621/621
f 599/599/599 701/701/701 657/657/657
f 657/657/657 701/701/701 685/685/685
f 600/600/600 614/614/614 650/650/650
f 650/650/650 614/614/614 529/529/529
f 614/614/614 528/528/528 529/529/529
f 530/530/530 528/528/528 614/614/614
f 672/672/672 460/460/460 601/601/601
f 603/603/603 460/460/460 672/672/672
f 464/464/464 460/460/460 603/603/603
f 473/473/473 460/460/460 464/464/464
f 473/473/473 464/464/464 461/461/461
f 461/461/461 464/464/464 487/487/487
f 603/603/603 672/672/672 597/597/597
f 598/598/598 603/603/603 597/597/597
f 487/487/487 598/598/598 597/597/597
f 597/597/597 510/510/510 487/487/487
f 510/510/510 492/492/492 487/487/487
f 487/487/487 492/492/492 493/493/493
f 672/672/672 653/653/653 597/597/597
f 653/653/653 510/510/510 597/597/597
f 672/672/672 602/602/602 653/653/653
f 653/653/653 602/602/602 466/466/466
f 466/466/466 651/651/651 653/653/653
f 653/653/653 651/651/651 648/648/648
f 671/671/671 712/712/712 710/710/710
f 712/712/712 711/711/711 710/710/710
f 569/569/569 714/714/714 566/566/566
f 567/567/567 569/569/569 566/566/566
f 708/708/708 721/721/721 581/581/581
f 721/721/721 718/718/718 581/581/581
f 719/719/719 718/718/718 721/721/721
f 720/720/720 590/590/590 717/717/717
f 593/593/593 590/590/590 720/720/720
f 593/593/593 594/594/594 590/590/590
f 591/591/591 594/594/594 593/593/593
f 463/463/463 472/472/472 474/474/474
f 463/463/463 474/474/474 471/471/471
f 458/458/458 480/480/480 481/481/481
f 458/458/458 481/481/481 478/478/478
f 634/634/634 490/490/490 636/636/636
f 727/727/727 490/490/490 634/634/634
f 634/634/634 635/635/635 727/727/727
f 509/509/509 558/558/558 507/507/507
f 507/507/507 558/558/558 572/572/572
f 558/558/558 574/574/574 572/572/572
f 508/508/508 574/574/574 558/558/558
f 545/545/545 544/544/544 511/511/511
f 545/545/545 547/547/547 544/544/544
f 517/517/517 515/515/515 541/541/541
f 541/541/541 515/515/515 543/543/543
f 542/542/542 541/541/541 543/543/543
f 514/514/514 541/541/541 542/542/542
f 518/518/518 531/531/531 512/512/512
f 512/512/512 531/531/531 516/516/516
f 532/532/532 513/513/513 588/588/588
f 588/588/588 513/513/513 470/470/470
f 470/470/470 468/468/468 588/588/588
f 588/588/588 468/468/468 571/571/571
f 552/552/552 570/570/570 573/573/573
f 573/573/573 570/570/570 568/568/568
f 539/539/539 550/550/550 555/555/555
f 539/539/539 555/555/555 538/538/538
f 556/556/556 557/557/557 579/579/579
f 579/579/579 557/557/557 578/578/578
f 578/578/578 581/581/581 579/579/579
f 579/579/579 581/581/581 582/582/582
f 582/582/582 581/581/581 592/592/592
f 592/592/592 581/581/581 580/580/580
f 494/494/494 504/504/504 485/485/485
f 485/485/485 504/504/504 536/536/536
f 536/536/536 504/504/504 506/506/506
f 506/506/506 504/504/504 505/505/505
f 688/688/688 690/690/690 652/652/652
f 689/689/689 690/690/690 688/688/688
f 655/655/655 654/654/654 523/523/523
f 523/523/523 654/654/654 520/520/520
f 520/520/520 524/524/524 523/523/523
f 523/523/523 524/524/524 519/519/519
f 707/707/707 760/760/760 676/676/676
f 608/608/608 760/760/760 707/707/707
f 622/622/622 638/638/638 659/659/659
f 697/697/697 638/638/638 622/622/622
f 622/622/622 691/691/691 697/697/697
f 680/680/680 691/691/691 622/622/622
f 680/680/680 622/622/622 666/666/666
f 679/679/679 680/680/680 666/666/666
f 679/679/679 695/695/695 680/680/680
f 680/680/680 695/695/695 694/694/694
f 622/622/622 609/609/609 666/666/666
f 666/666/666 609/609/609 716/716/716
f 716/716/716 613/613/613 666/666/666
f 613/613/613 679/679/679 666/666/666
f 609/609/609 639/639/639 716/716/716
f 716/716/716 639/639/639 637/637/637
f 696/696/696 695/695/695 679/679/679
f 693/693/693 695/695/695 696/696/696
f 693/693/693 696/696/696 692/692/692
f 692/692/692 696/696/696 716/716/716
f 699/699/699 686/686/686 698/698/698
f 700/700/700 686/686/686 699/699/699
f 687/687/687 647/647/647 645/645/645
f 645/645/645 647/647/647 732/732/732
f 658/658/658 656/656/656 703/703/703
f 703/703/703 656/656/656 702/702/702
f 476/476/476 477/477/477 715/715/715
f 715/715/715 477/477/477 462/462/462
f 475/475/475 723/723/723 725/725/725
f 725/725/725 723/723/723 724/724/724
f 722/722/722 733/733/733 735/735/735
f 735/735/735 733/733/733 734/734/734
f 749/749/749 752/752/752 644/644/644
f 610/610/610 752/752/752 749/749/749
f 743/743/743 741/741/741 744/744/744
f 649/649/649 743/743/743 744/744/744
f 740/740/740 649/649/649 744/744/744
f 646/646/646 740/740/740 744/744/744
f 742/742/742 663/663/663 665/665/665
f 665/665/665 663/663/663 745/745/745
f 746/746/746 750/750/750 751/751/751
f 751/751/751 750/750/750 664/664/664
f 577/577/577 575/575/575 705/705/705
f 576/576/576 575/575/575 577/577/577
f 704/704/704 495/495/495 739/739/739
f 739/739/739 495/495/495 497/497/497
f 497/497/497 495/495/495 762/762/762
f 762/762/762 495/495/495 611/611/611
f 763/763/763 482/482/482 521/521/521
f 521/521/521 482/482/482 483/483/483
f 484/484/484 617/617/617 618/618/618
f 618/618/618 617/617/617 684/684/684
f 618/618/618 684/684/684 683/683/683
f 683/683/683 684/684/684 678/678/678
f 522/522/522 526/526/526 525/525/525
f 525/525/525 526/526/526 527/527/527
f 616/616/616 615/615/615 612/612/612
f 620/620/620 615/615/615 616/616/616
f 623/623/623 730/730/730 619/619/619
f 668/668/668 730/730/730 623/623/623
f 668/668/668 729/729/729 730/730/730
f 628/628/628 631/631/631 633/633/633
f 631/631/631 632/632/632 633/633/633
f 754/754/754 636/636/636 747/747/747
f 747/747/747 748/748/748 754/754/754
f 754/754/754 748/748/748 755/755/755
f 753/753/753 754/754/754 755/755/755
f 728/728/728 754/754/754 753/753/753
f 642/642/642 667/667/667 730/730/730
f 667/667/667 640/640/640 730/730/730
f 641/641/641 640/640/640 667/667/667
f 682/682/682 726/726/726 731/731/731
f 731/731/731 726/726/726 727/727/727
f 731/731/731 727/727/727 668/668/668
f 488/488/488 489/489/489 457/457/457
f 488/488/488 486/486/486 489/489/489
f 489/489/489 486/486/486 459/459/459
f 457/457/457 489/489/489 459/459/459
f 465/465/465 491/491/491 467/467/467
f 491/491/491 465/465/465 501/501/501
f 465/465/465 499/499/499 501/501/501
f 465/465/465 500/500/500 499/499/499
f 500/500/500 465/465/465 502/502/502
f 465/465/465 467/467/467 502/502/502
f 559/559/559 560/560/560 540/540/540
f 562/562/562 560/560/560 559/559/559
f 562/562/562 561/561/561 560/560/560
f 560/560/560 561/561/561 540/540/540
f 681/681/681 675/675/675 661/661/661
f 675/675/675 681/681/681 677/677/677
f 681/681/681 674/674/674 677/677/677
f 681/681/681 662/662/662 674/674/674
f 662/662/662 681/681/681 660/660/660
f 681/681/681 661/661/661 660/660/660
