# Exported by s4extract — object_painting_lod01_g01
o object_painting_lod01_g01
v -0.090487 0.019288 0.028504
v 0.098514 0.019288 0.028504
v 0.785852 0.802820 0.038881
v -0.022370 0.032991 0.000000
v 0.562029 0.097385 0.029542
v 0.775109 0.035127 0.028718
v 0.000000 0.033937 0.028687
v 0.822199 0.820032 0.000000
v 0.022309 0.807550 0.000000
v 0.289224 0.089572 0.029420
v 0.102786 0.001373 0.000000
v 0.025208 0.032929 0.000000
v 0.024140 0.049501 0.028901
v 0.000000 0.016663 0.000000
v 0.775109 0.035127 0.028718
v 0.562029 0.097385 0.029542
v 0.000000 0.821131 0.000000
v 0.022309 0.807550 0.000000
v 0.304025 0.763176 0.000000
v 0.000000 0.016663 0.000000
v -0.586138 0.075289 0.000000
v 0.823695 0.429182 0.000000
v -0.018555 0.790796 0.038728
v 0.000000 0.016663 0.000000
v 0.822199 0.820032 0.000000
v -0.019410 0.807459 0.000000
v 0.590411 0.762841 0.000000
v 0.775109 0.035127 0.028718
v -0.021424 0.049562 0.028901
v -0.293344 0.073672 0.000000
v -0.295541 0.764245 0.000000
v -0.021424 0.049562 0.028901
v -0.022370 0.032991 0.000000
v 0.022309 0.807550 0.000000
v -0.019410 0.807459 0.000000
v -0.808679 0.017914 0.000000
v -0.019410 0.807459 0.000000
v -0.775109 0.035127 0.028718
v 0.822199 0.820032 0.000000
v -0.561693 0.090030 0.029450
v 0.785852 0.802820 0.038881
v 0.808679 0.017914 0.000000
v -0.788415 0.595843 0.000000
v -0.822199 0.820032 0.000000
v -0.823695 0.429182 0.000000
v -0.808679 0.017914 0.000000
v -0.590289 0.760308 0.000000
v -0.799707 0.256264 0.000000
v -0.808679 0.017914 0.000000
v 0.021302 0.790887 0.038728
v -0.281106 0.088504 0.029420
v 0.000000 0.821131 0.000000
v 0.104801 0.838527 0.000000
v 0.025208 0.032929 0.000000
v 0.590411 0.762841 0.000000
v -0.295541 0.764245 0.000000
v -0.096255 0.838527 0.000000
v -0.281106 0.088504 0.029420
v -0.021424 0.049562 0.028901
v 0.586535 0.082949 0.000000
v 0.781457 0.595843 0.000000
v 0.564409 0.748100 0.038148
v -0.096255 0.838527 0.000000
v 0.000000 0.821131 0.000000
v 0.104801 0.838527 0.000000
v 0.304025 0.763176 0.000000
v -0.788415 0.595843 0.000000
v 0.024140 0.049501 0.028901
v 0.808679 0.017914 0.000000
v 0.781457 0.595843 0.000000
v 0.586535 0.082949 0.000000
v -0.022370 0.032991 0.000000
v 0.301798 0.074770 0.000000
v -0.094394 0.001373 0.000000
v -0.293344 0.073672 0.000000
v 0.794733 0.256264 0.000000
v 0.823695 0.429182 0.000000
v -0.094394 0.001373 0.000000
v 0.808679 0.017914 0.000000
v -0.590289 0.760308 0.000000
v -0.799707 0.256264 0.000000
v -0.822199 0.820032 0.000000
v -0.561693 0.090030 0.029450
v 0.098514 0.019288 0.028504
v 0.102786 0.001373 0.000000
v -0.586138 0.075289 0.000000
v 0.301798 0.074770 0.000000
v 0.289224 0.089572 0.029420
v 0.794733 0.256264 0.000000
v 0.025208 0.032929 0.000000
v -0.090487 0.019288 0.028504
v -0.822199 0.820032 0.000000
v 0.000000 0.033937 0.028687
v -0.823695 0.429182 0.000000
v -0.775109 0.035127 0.028718
v -0.785852 0.802820 0.038881
v -0.564287 0.745659 0.038118
v -0.754112 0.588275 0.036042
v -0.785852 0.802820 0.038881
v 0.000000 0.033937 0.028687
v 0.702414 0.137577 0.055849
v 0.761071 0.263283 0.031739
v 0.788324 0.428755 0.033906
v 0.000000 0.711600 0.069948
v 0.024140 0.049501 0.028901
v -0.717002 0.711600 0.069948
v 0.000000 0.137577 0.055849
v -0.788324 0.428755 0.033906
v -0.700888 0.429182 0.063021
v 0.685202 0.429182 0.063021
v -0.718467 0.137577 0.055849
v -0.765831 0.263283 0.031739
v 0.290628 0.748405 0.038148
v 0.747459 0.588275 0.036042
v -0.775109 0.035127 0.028718
v -0.018555 0.790796 0.038728
v 0.000000 0.803888 0.038881
v 0.100162 0.820521 0.039094
v 0.021302 0.790887 0.038728
v -0.282540 0.749443 0.038179
v 0.000000 0.803888 0.038881
v -0.091983 0.820521 0.039094
v 0.700949 0.711600 0.069948
vt 0.441706 0.419727
vt 0.560303 0.414179
vt 0.927253 0.926006
vt 0.512102 0.405215
vt 0.211493 0.466252
vt 0.081128 0.434117
vt 0.500578 0.426008
vt 0.940607 0.947500
vt 0.517011 0.339423
vt 0.649754 0.463355
vt 0.564968 0.001771
vt 0.490852 0.405215
vt 0.489694 0.436038
vt 0.502011 0.400581
vt 0.921308 0.430581
vt 0.793504 0.465002
vt 0.501035 0.953781
vt 0.512194 0.946738
vt 0.681858 0.320825
vt 0.504023 0.008174
vt 0.158628 0.032716
vt 0.998991 0.180947
vt 0.491584 0.918293
vt 0.502011 0.400581
vt 0.956796 0.340032
vt 0.491310 0.946738
vt 0.849388 0.320703
vt 0.921308 0.430581
vt 0.489694 0.436038
vt 0.331127 0.032045
vt 0.331127 0.321282
vt 0.513261 0.436008
vt 0.512102 0.405215
vt 0.512194 0.946738
vt 0.492682 0.339392
vt 0.933961 0.410672
vt 0.491310 0.946738
vt 0.921308 0.430581
vt 0.940607 0.947500
vt 0.211493 0.466252
vt 0.927253 0.926006
vt 0.982833 0.008692
vt 0.036585 0.250764
vt 0.025183 0.344667
vt 0.009055 0.180947
vt 0.025183 0.008692
vt 0.158628 0.319636
vt 0.039817 0.108539
vt 0.066524 0.407898
vt 0.511706 0.918293
vt 0.355975 0.466404
vt 0.501035 0.953781
vt 0.564968 0.352410
vt 0.518901 0.014972
vt 0.799876 0.918293
vt 0.352621 0.916189
vt 0.447102 0.963445
vt 0.649754 0.463355
vt 0.513261 0.436008
vt 0.849388 0.035948
vt 0.967314 0.250764
vt 0.796796 0.892866
vt 0.448047 0.352410
vt 0.504023 0.345124
vt 0.556279 0.960488
vt 0.653687 0.918628
vt 0.067713 0.792043
vt 0.489694 0.436038
vt 0.933961 0.410672
vt 0.936552 0.802379
vt 0.206402 0.442380
vt 0.490791 0.015003
vt 0.681858 0.032503
vt 0.561126 0.394636
vt 0.653931 0.437105
vt 0.931583 0.574087
vt 0.961034 0.685062
vt 0.448047 0.001771
vt 0.066524 0.407898
vt 0.197256 0.916189
vt 0.064664 0.570672
vt 0.062164 0.951159
vt 0.793504 0.465002
vt 0.441706 0.419727
vt 0.441584 0.397746
vt 0.794205 0.437410
vt 0.349877 0.442380
vt 0.355975 0.466404
vt 0.965333 0.108539
vt 0.490852 0.405215
vt 0.560303 0.414179
vt 0.062164 0.951159
vt 0.500578 0.426008
vt 0.040183 0.677714
vt 0.081128 0.434117
vt 0.076006 0.924787
vt 0.197469 0.890214
vt 0.085274 0.787196
vt 0.076006 0.924787
vt 0.500578 0.426008
vt 0.862406 0.510337
vt 0.916125 0.578568
vt 0.942436 0.684787
vt 0.500791 0.864421
vt 0.513261 0.436008
vt 0.142591 0.853110
vt 0.500791 0.497898
vt 0.058750 0.677440
vt 0.129725 0.677714
vt 0.878565 0.685062
vt 0.137652 0.505672
vt 0.087988 0.578568
vt 0.648016 0.890488
vt 0.919144 0.797501
vt 0.081128 0.434117
vt 0.491584 0.918293
vt 0.500944 0.925762
vt 0.551340 0.935762
vt 0.511706 0.918293
vt 0.357987 0.890702
vt 0.500944 0.925762
vt 0.454663 0.935762
vt 0.861491 0.852135
vn -0.028676 -0.204260 0.978497
vn 0.028679 -0.202400 0.978883
vn -0.191951 0.769876 0.608643
vn -0.528919 -0.727845 0.436448
vn -0.054626 -0.913904 0.402237
vn -0.272428 -0.932977 0.235237
vn -0.528919 -0.727845 0.436448
vn 0.753132 -0.136868 0.643475
vn 0.000000 0.000000 -1.000000
vn 0.025364 -0.390733 0.920154
vn 0.000000 0.000000 -1.000000
vn -0.332816 -0.821692 0.462663
vn -0.332091 -0.823520 0.459924
vn -0.530168 -0.726379 0.437373
vn -0.087707 -0.312698 0.945794
vn -0.046641 -0.427880 0.902631
vn 0.486264 0.798784 0.354249
vn 0.487492 0.797764 0.354858
vn 0.000000 0.000000 -1.000000
vn 0.000000 0.000000 -1.000000
vn 0.000000 0.000000 -1.000000
vn 0.000000 0.000000 -1.000000
vn -0.543676 0.766540 0.341808
vn 0.483800 -0.749755 0.451448
vn 0.000000 0.000000 -1.000000
vn -0.542507 0.767585 0.341320
vn 0.000000 0.000000 -1.000000
vn 0.547264 0.024849 0.836591
vn 0.047110 -0.302899 0.951858
vn 0.000000 0.000000 -1.000000
vn 0.000000 0.000000 -1.000000
vn 0.355058 -0.815954 0.456237
vn 0.355827 -0.814081 0.458976
vn -0.328190 0.871484 0.364428
vn 0.000000 0.000000 -1.000000
vn 0.239867 -0.930378 0.277236
vn 0.350378 0.863915 0.361782
vn 0.239504 -0.931740 0.272945
vn -0.234637 0.950942 0.201632
vn 0.039884 -0.381276 0.923600
vn 0.621255 -0.119445 0.774451
vn 0.000000 0.000000 -1.000000
vn 0.000000 0.000000 -1.000000
vn 0.000000 0.000000 -1.000000
vn 0.000000 0.000000 -1.000000
vn 0.000000 0.000000 -1.000000
vn 0.000000 0.000000 -1.000000
vn 0.000000 0.000000 -1.000000
vn -0.657146 0.024738 0.753357
vn 0.488780 0.796692 0.355495
vn -0.021850 -0.379731 0.924839
vn -0.541390 0.768580 0.340854
vn 0.000000 0.000000 -1.000000
vn 0.000000 0.000000 -1.000000
vn -0.144517 0.952599 0.267711
vn -0.096936 0.916272 0.388649
vn -0.214276 0.876122 0.431851
vn -0.178306 -0.844247 0.505424
vn -0.527617 -0.729366 0.435483
vn 0.000000 0.000000 -1.000000
vn 0.000000 0.000000 -1.000000
vn -0.066162 0.785538 0.615266
vn 0.000000 0.000000 -1.000000
vn 0.000000 0.000000 -1.000000
vn 0.215509 0.874850 0.433813
vn 0.091800 0.917371 0.387303
vn -0.727140 -0.005186 0.686469
vn 0.481286 -0.752633 0.449340
vn 0.660942 0.038675 0.749440
vn 0.730148 -0.006074 0.683262
vn -0.152624 -0.931020 0.331523
vn 0.000000 0.000000 -1.000000
vn 0.000000 0.000000 -1.000000
vn -0.195993 -0.821773 0.535048
vn -0.085433 -0.875129 0.476288
vn 0.678660 -0.031702 0.733768
vn 0.691577 0.027037 0.721797
vn 0.000000 0.000000 -1.000000
vn -0.272784 -0.931765 0.239589
vn 0.144784 0.953165 0.265543
vn -0.676371 -0.030931 0.735912
vn 0.244760 0.950398 0.191928
vn 0.059619 -0.911414 0.407148
vn 0.019069 -0.846028 0.532798
vn 0.197192 -0.820278 0.536898
vn 0.139506 -0.925978 0.350860
vn 0.102676 -0.870698 0.480981
vn 0.190033 -0.839403 0.509205
vn 0.000000 0.000000 -1.000000
vn 0.482569 -0.751167 0.450416
vn -0.016679 -0.846302 0.532442
vn -0.750296 -0.113065 0.651361
vn 0.482569 -0.751167 0.450416
vn -0.691672 0.023000 0.721845
vn 0.071924 -0.292302 0.953618
vn 0.198008 0.760503 0.618408
vn 0.061703 0.790922 0.608798
vn -0.551464 -0.020507 0.833947
vn -0.657295 -0.104974 0.746287
vn -0.000340 -0.253512 0.967332
vn 0.007224 -0.041402 0.999116
vn 0.432257 -0.020238 0.901523
vn 0.489094 0.013230 0.872131
vn 0.000256 0.454599 0.890696
vn -0.043306 -0.303132 0.951964
vn -0.008203 -0.001816 0.999965
vn 0.000191 -0.348371 0.937357
vn -0.524357 0.011812 0.851417
vn -0.483716 -0.009579 0.875173
vn 0.408105 -0.010584 0.912874
vn -0.013773 -0.057356 0.998259
vn -0.485920 -0.019926 0.873776
vn 0.082095 0.634180 0.768815
vn 0.497341 -0.020601 0.867310
vn -0.587284 0.015616 0.809230
vn 0.167353 0.565231 0.807779
vn -0.423045 0.593073 0.685052
vn 0.040420 0.481253 0.875649
vn -0.154384 0.565120 0.810435
vn -0.082945 0.641555 0.762580
vn 0.374411 0.606979 0.700994
vn -0.039719 0.482941 0.874751
vn 0.015673 0.017936 0.999716
f 42/42/42 60/60/60 89/89/89
f 60/60/60 27/27/27 89/89/89
f 89/89/89 27/27/27 61/61/61
f 89/89/89 61/61/61 22/22/22
f 60/60/60 19/19/19 27/27/27
f 73/73/73 19/19/19 60/60/60
f 11/11/11 19/19/19 73/73/73
f 53/53/53 19/19/19 11/11/11
f 54/54/54 53/53/53 11/11/11
f 9/9/9 53/53/53 54/54/54
f 54/54/54 64/64/64 9/9/9
f 20/20/20 64/64/64 54/54/54
f 72/72/72 64/64/64 20/20/20
f 35/35/35 64/64/64 72/72/72
f 72/72/72 63/63/63 35/35/35
f 78/78/78 63/63/63 72/72/72
f 78/78/78 31/31/31 63/63/63
f 30/30/30 31/31/31 78/78/78
f 30/30/30 47/47/47 31/31/31
f 21/21/21 47/47/47 30/30/30
f 21/21/21 48/48/48 47/47/47
f 47/47/47 48/48/48 43/43/43
f 47/47/47 43/43/43 44/44/44
f 21/21/21 46/46/46 48/48/48
f 45/45/45 43/43/43 48/48/48
f 61/61/61 27/27/27 25/25/25
f 55/55/55 3/3/3 39/39/39
f 62/62/62 3/3/3 55/55/55
f 123/123/123 3/3/3 62/62/62
f 55/55/55 66/66/66 62/62/62
f 62/62/62 66/66/66 113/113/113
f 113/113/113 123/123/123 62/62/62
f 104/104/104 123/123/123 113/113/113
f 106/106/106 123/123/123 104/104/104
f 106/106/106 101/101/101 123/123/123
f 101/101/101 110/110/110 123/123/123
f 123/123/123 110/110/110 114/114/114
f 123/123/123 114/114/114 41/41/41
f 66/66/66 65/65/65 113/113/113
f 113/113/113 65/65/65 118/118/118
f 118/118/118 104/104/104 113/113/113
f 119/119/119 104/104/104 118/118/118
f 119/119/119 121/121/121 104/104/104
f 65/65/65 34/34/34 118/118/118
f 118/118/118 34/34/34 119/119/119
f 12/12/12 84/84/84 13/13/13
f 85/85/85 84/84/84 12/12/12
f 85/85/85 88/88/88 84/84/84
f 87/87/87 88/88/88 85/85/85
f 88/88/88 87/87/87 5/5/5
f 5/5/5 87/87/87 71/71/71
f 71/71/71 6/6/6 5/5/5
f 79/79/79 6/6/6 71/71/71
f 91/91/91 33/33/33 32/32/32
f 74/74/74 33/33/33 91/91/91
f 58/58/58 74/74/74 91/91/91
f 75/75/75 74/74/74 58/58/58
f 83/83/83 75/75/75 58/58/58
f 86/86/86 75/75/75 83/83/83
f 83/83/83 38/38/38 86/86/86
f 86/86/86 38/38/38 36/36/36
f 7/7/7 4/4/4 14/14/14
f 59/59/59 4/4/4 7/7/7
f 121/121/121 18/18/18 17/17/17
f 50/50/50 18/18/18 121/121/121
f 49/49/49 115/115/115 81/81/81
f 81/81/81 115/115/115 112/112/112
f 108/108/108 81/81/81 112/112/112
f 94/94/94 81/81/81 108/108/108
f 94/94/94 108/108/108 67/67/67
f 67/67/67 108/108/108 98/98/98
f 98/98/98 99/99/99 67/67/67
f 67/67/67 99/99/99 92/92/92
f 111/111/111 112/112/112 115/115/115
f 111/111/111 109/109/109 112/112/112
f 112/112/112 109/109/109 108/108/108
f 109/109/109 98/98/98 108/108/108
f 109/109/109 106/106/106 98/98/98
f 106/106/106 99/99/99 98/98/98
f 106/106/106 109/109/109 111/111/111
f 111/111/111 101/101/101 106/106/106
f 101/101/101 111/111/111 107/107/107
f 107/107/107 10/10/10 101/101/101
f 101/101/101 10/10/10 16/16/16
f 101/101/101 16/16/16 15/15/15
f 111/111/111 51/51/51 107/107/107
f 107/107/107 51/51/51 1/1/1
f 29/29/29 107/107/107 1/1/1
f 29/29/29 100/100/100 107/107/107
f 100/100/100 105/105/105 107/107/107
f 2/2/2 107/107/107 105/105/105
f 10/10/10 107/107/107 2/2/2
f 40/40/40 51/51/51 111/111/111
f 40/40/40 111/111/111 95/95/95
f 8/8/8 41/41/41 70/70/70
f 70/70/70 41/41/41 114/114/114
f 103/103/103 70/70/70 114/114/114
f 77/77/77 70/70/70 103/103/103
f 77/77/77 103/103/103 76/76/76
f 76/76/76 103/103/103 102/102/102
f 102/102/102 28/28/28 76/76/76
f 76/76/76 28/28/28 69/69/69
f 114/114/114 110/110/110 103/103/103
f 103/103/103 110/110/110 102/102/102
f 101/101/101 102/102/102 110/110/110
f 101/101/101 28/28/28 102/102/102
f 82/82/82 96/96/96 80/80/80
f 80/80/80 96/96/96 97/97/97
f 97/97/97 56/56/56 80/80/80
f 120/120/120 56/56/56 97/97/97
f 56/56/56 120/120/120 57/57/57
f 57/57/57 120/120/120 122/122/122
f 57/57/57 122/122/122 37/37/37
f 37/37/37 122/122/122 116/116/116
f 106/106/106 97/97/97 96/96/96
f 106/106/106 120/120/120 97/97/97
f 104/104/104 120/120/120 106/106/106
f 104/104/104 122/122/122 120/120/120
f 104/104/104 116/116/116 122/122/122
f 117/117/117 116/116/116 104/104/104
f 93/93/93 90/90/90 68/68/68
f 24/24/24 90/90/90 93/93/93
f 117/117/117 26/26/26 23/23/23
f 52/52/52 26/26/26 117/117/117
