# Exported by s4extract — object_EV007_LittleLibrary_lod01_g01
o object_EV007_LittleLibrary_lod01_g01
v 0.281084 0.883538 -0.242691
v 0.281084 0.883538 0.221876
v -0.281084 0.883538 -0.242691
v -0.074773 0.847403 -0.086980
v -0.074773 0.000000 0.053531
v 0.074773 0.847403 -0.086980
v -0.074773 0.000000 -0.086980
v -0.051029 0.630837 0.029543
v 0.074773 0.000000 -0.086980
v -0.074773 0.847403 -0.086980
v 0.074773 0.847403 -0.086980
v -0.142037 0.847403 0.029543
v -0.051029 0.749008 0.029543
v -0.074773 0.000000 -0.086980
v -0.259904 0.847403 0.029543
v -0.051029 0.630837 -0.063847
v -0.259904 0.847403 -0.063847
v 0.290789 1.662211 -0.066044
v 0.142037 0.847403 0.030092
v -0.120063 1.442959 0.262772
v 0.127937 1.523408 0.262772
v -0.051029 0.749008 -0.063847
v 0.051029 0.630837 -0.063297
v 0.259904 0.847403 0.030092
v 0.051029 0.749008 0.030092
v 0.051029 0.749008 -0.063297
v 0.051029 0.749008 0.030092
v -0.142037 0.847403 -0.063847
v 0.142037 0.847403 -0.063297
v 0.051029 0.630837 -0.063297
v 0.259904 0.847403 -0.063297
v 0.142037 0.847403 0.030092
v 0.051029 0.630837 0.030092
v 0.142037 0.847403 -0.063297
v 0.259904 0.847403 -0.063297
v 0.259904 0.847403 0.030092
v 0.051029 0.749008 -0.063297
v 0.051029 0.630837 0.030092
v -0.046695 0.847403 -0.239333
v 0.046695 0.651468 -0.084600
v -0.046695 0.651468 -0.084600
v -0.120063 1.525179 0.262772
v -0.259781 1.375511 0.261857
v 0.259781 1.375511 0.261857
v 0.259781 1.375511 0.261857
v 0.074773 0.000000 -0.086980
v 0.074773 0.000000 0.053531
v 0.127937 1.433254 0.262772
v -0.074773 0.000000 -0.086980
v 0.281084 1.375267 0.221876
v -0.046695 0.847403 0.098151
v -0.074773 0.000000 0.053531
v -0.046695 0.651468 0.050235
v -0.046695 0.847403 0.201978
v 0.259781 1.375511 0.261857
v -0.046695 0.787585 0.050235
v 0.259781 1.375511 0.209485
v -0.281084 1.375267 0.221876
v -0.281084 1.375267 -0.242691
v 0.299518 1.415309 0.261857
v -0.299518 1.415309 0.261857
v -0.281084 0.883538 0.221876
v 0.281084 1.375267 -0.242691
v -0.259537 0.883538 -0.254654
v 0.259537 1.375267 -0.254654
v 0.259537 0.883538 -0.254654
v -0.259537 1.375267 -0.254654
v -0.259781 1.375511 -0.155344
v 0.259781 0.889642 -0.155344
v 0.259781 1.375511 -0.155344
v -0.259781 0.889642 -0.155344
v 0.046695 0.787585 -0.084600
v -0.046695 0.847403 -0.135506
v -0.046695 0.787585 -0.084600
v 0.046695 0.847403 -0.135506
v -0.282427 1.107673 -0.046695
v -0.282427 1.090765 -0.029970
v -0.068119 1.105414 -0.256607
v 0.046695 0.847403 -0.239333
v -0.046695 0.847403 -0.239333
v -0.046695 0.787585 -0.084600
v -0.046695 0.847403 -0.135506
v -0.046695 0.651468 -0.084600
v 0.046695 0.847403 0.098151
v 0.046695 0.787585 0.050235
v 0.046695 0.651468 0.050235
v 0.046695 0.847403 -0.239333
v 0.046695 0.787585 -0.084600
v 0.046695 0.651468 -0.084600
v 0.046695 0.847403 -0.135506
v -0.046695 0.787585 0.050235
v 0.046695 0.847403 0.098151
v 0.046695 0.787585 0.050235
v -0.046695 0.847403 0.098151
v 0.046695 0.847403 0.201978
v -0.046695 0.651468 0.050235
v 0.046695 0.651468 0.050235
v -0.046695 0.847403 0.201978
v 0.046695 0.847403 0.201978
v -0.330098 1.407618 -0.013429
v -0.330098 1.274980 -0.304279
v -0.330098 1.274980 -0.013429
v 0.237807 1.380150 -0.295916
v 0.259781 1.298724 0.262772
v 0.268083 1.283953 0.262772
v -0.054019 1.583471 0.281755
v -0.244644 1.501495 0.281755
v -0.156198 1.369590 0.281755
v -0.156198 1.501495 0.281755
v -0.244644 1.369590 0.281755
v -0.259537 1.375267 -0.254654
v -0.281084 1.375267 -0.242691
v -0.299518 0.883538 -0.242691
v -0.337423 1.431789 0.281755
v -0.253983 1.299884 0.281755
v -0.253983 1.431789 0.281755
v -0.337423 1.299884 0.281755
v -0.330098 1.407618 -0.304279
v -0.259537 0.883538 -0.254654
v 0.299518 1.375267 -0.242691
v -0.259537 1.375267 -0.282671
v 0.299518 1.415309 -0.282671
v -0.259537 0.883538 -0.254654
v 0.299518 1.415309 -0.282671
v -0.299518 1.375267 0.221876
v 0.299518 0.883538 -0.242691
v 0.330098 1.274980 -0.013429
v 0.330098 1.407618 -0.304279
v 0.330098 1.407618 -0.013429
v 0.330098 1.274980 -0.304279
v 0.269426 1.662211 0.044742
v 0.158640 1.662211 0.066044
v 0.290789 1.662211 0.066044
v 0.179943 1.662211 0.044742
v 0.179943 1.662211 0.044742
v 0.269426 1.626015 0.044742
v 0.290789 1.662211 0.066044
v 0.269426 1.662211 0.044742
v 0.269426 1.662211 0.044742
v 0.269426 1.626015 -0.044742
v 0.179943 1.626015 0.044742
v 0.269426 1.662211 -0.044742
v 0.299518 1.375267 -0.242691
v 0.299518 1.415309 0.261857
v 0.299518 1.375267 0.221876
v 0.299518 0.843496 0.261857
v 0.299518 0.883538 0.221876
v 0.299518 1.415309 0.261857
v -0.299518 0.883538 0.221876
v -0.299518 0.843496 -0.282671
v 0.299518 1.375267 0.221876
v -0.299518 0.883538 0.221876
v -0.299518 0.883538 -0.242691
v -0.299518 0.843496 0.261857
v -0.299518 1.375267 0.221876
v -0.299518 0.843496 0.261857
v -0.299518 1.415309 0.261857
v 0.259537 0.883538 -0.282671
v -0.259537 0.883538 -0.282671
v 0.259537 0.883538 -0.254654
v -0.299518 1.375267 -0.242691
v -0.299518 1.415309 0.261857
v -0.299518 1.415309 -0.282671
v -0.299518 0.843496 -0.282671
v -0.299518 0.883538 -0.242691
v -0.299518 1.415309 -0.282671
v 0.259537 1.375267 -0.254654
v -0.259537 1.375267 -0.282671
v -0.299518 1.375267 -0.242691
v 0.269426 1.626015 0.044742
v 0.179943 1.626015 -0.044742
v 0.179943 1.662211 -0.044742
v 0.269426 1.662211 -0.044742
v 0.269426 1.626015 -0.044742
v 0.179943 1.626015 0.044742
v 0.179943 1.662211 0.044742
v 0.179943 1.662211 -0.044742
v -0.044253 1.526949 0.281755
v 0.044253 1.658854 0.281755
v 0.044253 1.526949 0.281755
v 0.287615 0.917781 0.262772
v 0.278765 0.932552 0.262772
v 0.179943 1.626015 -0.044742
v 0.287615 0.989929 0.262772
v 0.259781 0.989929 0.262772
v 0.268083 0.932552 0.262772
v 0.278765 0.975157 0.262772
v 0.259781 0.917781 0.262772
v -0.140512 1.583471 0.281755
v -0.054019 1.451566 0.281755
v 0.268083 0.975157 0.262772
v -0.140512 1.451566 0.281755
v 0.278765 1.283953 0.262772
v 0.330098 1.274980 -0.008668
v -0.308307 1.449002 -0.295916
v 0.330098 1.407618 -0.008668
v 0.287615 1.298724 0.262772
v 0.268083 1.241348 0.262772
v -0.044253 1.658854 0.281755
v 0.259781 1.226576 0.262772
v 0.287615 1.226576 0.262772
v -0.330098 1.274980 0.282122
v 0.278765 1.241348 0.262772
v -0.330098 1.407618 0.282122
v -0.330098 1.407618 -0.008668
v 0.330098 1.407618 0.282122
v -0.330098 1.274980 -0.008668
v 0.330098 1.274980 0.282122
v -0.259781 1.375511 0.261857
v 0.259781 1.375511 0.209485
v -0.259781 1.375511 0.209485
v -0.219801 1.449002 -0.295916
v -0.308307 1.317158 -0.295916
v -0.222182 1.520295 -0.295916
v -0.133675 1.520295 -0.295916
v -0.219801 1.317158 -0.295916
v 0.132027 1.590307 0.281755
v 0.132027 1.458463 0.281755
v 0.045535 1.458463 0.281755
v -0.133675 1.388390 -0.295916
v -0.129830 1.590734 -0.295916
v -0.222182 1.388390 -0.295916
v -0.041323 1.590734 -0.295916
v -0.041323 1.458829 -0.295916
v -0.044864 1.657938 -0.295916
v -0.129830 1.458829 -0.295916
v 0.043582 1.657938 -0.295916
v 0.043582 1.526033 -0.295916
v 0.045535 1.590307 -0.295916
v -0.044864 1.526033 -0.295916
v 0.134041 1.590307 -0.295916
v 0.134041 1.458402 -0.295916
v 0.149301 1.512055 -0.295916
v 0.045535 1.458402 -0.295916
v 0.149301 1.380150 -0.295916
v 0.158640 1.662211 -0.066044
v 0.269426 1.662211 -0.044742
v 0.237807 1.512055 -0.295916
v 0.179943 1.662211 -0.044742
v 0.330770 1.435757 -0.295916
v 0.242263 1.303852 -0.295916
v 0.242263 1.435757 -0.295916
v 0.330770 1.303852 -0.295916
v 0.224135 1.453214 0.281755
v 0.307575 1.321309 0.281755
v 0.307575 1.453214 0.281755
v 0.224135 1.321309 0.281755
v 0.133919 1.519258 0.281755
v 0.222365 1.387353 0.281755
v 0.222365 1.519258 0.281755
v 0.133919 1.387353 0.281755
v 0.045535 1.590307 0.281755
v -0.259781 1.375511 0.209485
v 0.259537 1.375267 -0.282671
v -0.259537 1.375267 -0.254654
v 0.259537 1.375267 -0.282671
v 0.299518 1.415309 0.261857
v 0.259781 0.843496 0.261857
v -0.259781 1.375511 0.261857
v 0.282244 1.254105 -0.046695
v -0.282427 1.090765 0.182567
v 0.282244 1.090765 -0.029970
v 0.282244 1.107673 0.029665
v 0.282244 1.271013 0.013001
v 0.282244 1.254105 0.165904
v 0.282244 1.271013 0.013001
v 0.282244 1.271013 0.182567
v 0.282244 1.271013 0.182567
v -0.282427 1.271013 0.013001
v 0.282244 1.090765 0.013001
v -0.259781 1.375511 0.261857
v 0.282244 1.254105 0.029665
v 0.259537 1.375267 -0.254654
v 0.259537 0.883538 -0.282671
v 0.259537 0.883538 -0.254654
v 0.282244 1.107673 0.165904
v 0.282244 1.254105 0.029665
v 0.281084 1.375267 0.221876
v 0.299518 0.883538 0.221876
v 0.281084 0.883538 0.221876
v 0.299518 1.415309 0.261857
v -0.299518 1.415309 -0.282671
v 0.299518 1.415309 -0.282671
v 0.282244 1.254105 0.165904
v 0.282244 1.090765 -0.029970
v 0.282244 1.090765 0.182567
v 0.282244 1.107673 -0.182872
v 0.282244 1.107673 -0.046695
v 0.282244 1.090765 -0.199597
v 0.282244 1.090765 -0.199597
v 0.282244 1.254105 -0.182872
v 0.282244 1.107673 -0.182872
v 0.282244 1.271013 -0.199597
v 0.282244 1.271013 -0.199597
v 0.282244 1.254105 -0.046695
v 0.299518 0.843496 0.261857
v -0.259781 0.843496 0.261857
v 0.259781 0.843496 0.209424
v 0.282244 1.271013 -0.029970
v 0.282244 1.271013 -0.029970
v 0.282244 1.107673 -0.046695
v 0.282244 1.254105 -0.182872
v -0.282427 1.107673 0.029665
v -0.282427 1.090765 0.013001
v -0.282427 1.090765 0.013001
v -0.282427 1.107673 0.165904
v 0.282244 1.107673 0.029665
v 0.282244 1.090765 0.013001
v 0.282244 1.090765 0.182567
v 0.282244 1.107673 0.165904
v -0.259781 0.843496 0.261857
v -0.259781 0.843496 0.209424
v 0.259781 1.375511 0.209485
v -0.259781 0.889642 0.209424
v -0.259781 1.375511 -0.155344
v 0.259781 1.375511 -0.155344
v 0.259781 0.889642 0.209424
v -0.259781 1.375511 0.209485
v 0.259781 1.375511 -0.155344
v 0.259781 0.889642 -0.155344
v 0.259781 0.889642 0.209424
v 0.259781 1.375511 0.209485
v -0.259781 0.843496 0.209424
v 0.259781 0.843496 0.209424
v 0.259781 0.843496 0.261857
v -0.259781 0.889642 0.209424
v 0.259781 0.843496 0.209424
v -0.259781 1.375511 0.261857
v -0.299518 0.843496 0.261857
v 0.259781 0.889642 0.209424
v -0.299518 1.415309 0.261857
v 0.259781 0.843496 0.261857
v -0.259781 0.843496 0.261857
v 0.299518 0.843496 0.261857
v -0.299518 0.843496 0.261857
v 0.259781 1.375511 0.261857
v -0.259781 0.843496 0.209424
v 0.299518 0.843496 -0.282671
v 0.348776 1.389306 -0.318989
v 0.000000 1.714704 0.298175
v 0.348776 1.389306 0.298175
v -0.299518 0.843496 -0.282671
v -0.282427 1.254105 0.029665
v -0.282427 1.107673 0.029665
v -0.299518 0.843496 0.261857
v -0.282427 1.271013 0.013001
v -0.282427 1.254105 0.029665
v -0.282427 1.271013 0.182567
v -0.282427 1.254105 0.165904
v 0.000000 1.646097 0.261857
v -0.299518 1.415309 0.261857
v -0.282427 1.271013 0.182567
v 0.299518 1.415309 0.261857
v 0.269426 1.626015 -0.044742
v 0.278154 1.472075 -0.053409
v 0.284441 1.618812 -0.059757
v 0.164927 1.618812 -0.059757
v 0.299518 0.843496 -0.282671
v 0.269426 1.662211 0.044742
v 0.269426 1.662211 -0.044742
v 0.259781 0.889642 0.209424
v -0.259781 0.889642 0.209424
v -0.259781 0.889642 -0.155344
v 0.171275 1.565830 -0.053409
v 0.284441 1.618812 -0.059757
v 0.278154 1.472075 -0.053409
v 0.278154 1.472075 0.053409
v 0.284441 1.618812 0.059757
v 0.164927 1.618812 0.059757
v 0.171275 1.565830 0.053409
v 0.171275 1.565830 -0.053409
v 0.164927 1.618812 -0.059757
v 0.158640 1.662211 0.066044
v 0.164927 1.618812 0.059757
v 0.164927 1.618812 -0.059757
v 0.158640 1.662211 -0.066044
v 0.284441 1.618812 -0.059757
v 0.290789 1.662211 -0.066044
v 0.158640 1.662211 -0.066044
v 0.164927 1.618812 -0.059757
v 0.290789 1.662211 -0.066044
v 0.284441 1.618812 -0.059757
v 0.284441 1.618812 0.059757
v 0.290789 1.662211 0.066044
v 0.290789 1.662211 0.066044
v 0.284441 1.618812 0.059757
v 0.164927 1.618812 0.059757
v 0.158640 1.662211 0.066044
v 0.158640 1.662211 -0.066044
v 0.179943 1.662211 -0.044742
v 0.179943 1.662211 0.044742
v -0.051029 0.749008 -0.063847
v -0.074773 0.847403 0.053531
v 0.074773 0.000000 -0.086980
v 0.074773 0.847403 0.053531
v 0.074773 0.000000 0.053531
v 0.179943 1.626015 -0.044742
v 0.269426 1.626015 0.044742
v 0.158640 1.662211 0.066044
v -0.074773 0.000000 0.053531
v 0.179943 1.626015 0.044742
v -0.259781 1.375511 -0.155344
v -0.259781 1.375511 0.209485
v 0.259781 0.889642 -0.155344
v -0.259904 0.847403 -0.063847
v -0.142037 0.847403 -0.063847
v 0.074773 0.847403 0.053531
v -0.051029 0.630837 0.029543
v -0.051029 0.630837 -0.063847
v -0.259904 0.847403 0.029543
v -0.051029 0.749008 0.029543
v -0.142037 0.847403 0.029543
v 0.171275 1.565830 0.053409
v 0.284441 1.618812 0.059757
v 0.164927 1.618812 0.059757
v 0.278154 1.472075 0.053409
v -0.282427 1.107673 0.165904
v -0.282427 1.254105 0.165904
v -0.282427 1.271013 -0.029970
v -0.282427 1.090765 0.182567
v -0.282427 1.107673 -0.182872
v -0.282427 1.107673 -0.046695
v -0.282427 1.090765 -0.029970
v -0.282427 1.090765 -0.199597
v -0.282427 1.254105 -0.182872
v -0.282427 1.107673 -0.182872
v -0.282427 1.090765 -0.199597
v -0.282427 1.271013 -0.199597
v -0.282427 1.254105 -0.046695
v -0.282427 1.254105 -0.182872
v -0.282427 1.271013 -0.199597
v -0.282427 1.271013 -0.029970
v -0.282427 1.254105 -0.046695
v -0.084844 1.088445 -0.256607
v -0.068119 1.105414 -0.256607
v 0.084844 1.088445 -0.256607
v 0.068119 1.105414 -0.256607
v 0.084844 1.088445 -0.256607
v 0.068119 1.105414 -0.256607
v 0.084844 1.271074 -0.256607
v 0.068119 1.254105 -0.256607
v 0.084844 1.271074 -0.256607
v 0.068119 1.254105 -0.256607
v -0.084844 1.271074 -0.256607
v -0.068119 1.254105 -0.256607
v -0.084844 1.088445 -0.256607
v -0.084844 1.271074 -0.256607
v -0.259781 0.889642 -0.155344
v -0.068119 1.254105 -0.256607
v -0.259781 0.889642 0.209424
v -0.074773 0.847403 0.053531
v -0.348776 1.389306 0.298175
v 0.074773 0.000000 0.053531
v -0.299518 1.415309 0.261857
v 0.299518 1.415309 -0.282671
v 0.000000 1.659098 -0.318989
v -0.348776 1.389306 -0.318989
v 0.000000 1.646097 -0.282671
v 0.000000 1.659098 -0.318989
v 0.299518 1.415309 -0.282671
v 0.348776 1.389306 -0.318989
v 0.000000 1.659098 -0.318989
v 0.000000 1.646097 -0.282671
v -0.348776 1.389306 -0.318989
v -0.299518 1.415309 -0.282671
v -0.299518 1.415309 -0.282671
v 0.000000 1.659098 0.298175
v 0.299518 1.415309 0.261857
v 0.000000 1.659098 -0.318989
v 0.000000 1.646097 0.261857
v 0.299518 1.415309 0.261857
v 0.000000 1.659098 0.298175
v 0.348776 1.389306 0.298175
v -0.299518 1.415309 0.261857
v 0.000000 1.646097 0.261857
v -0.348776 1.389306 0.298175
v 0.000000 1.659098 0.298175
v 0.000000 1.659098 0.298175
v -0.299518 1.415309 -0.282671
v 0.259537 1.375267 -0.282671
v -0.299518 1.415309 0.261857
v 0.299518 1.415309 -0.282671
v 0.299518 1.415309 -0.282671
v 0.259537 0.883538 -0.282671
v -0.259537 1.375267 -0.282671
v 0.299518 0.843496 -0.282671
v 0.299518 0.843496 -0.282671
v -0.259537 0.883538 -0.282671
v 0.259537 1.375267 -0.282671
v -0.348776 1.447598 -0.318989
v 0.000000 1.714704 0.298175
v 0.299518 1.415309 -0.282671
v -0.299518 0.843496 -0.282671
v -0.299518 0.843496 -0.282671
v -0.259537 1.375267 -0.282671
v 0.259537 0.883538 -0.282671
v -0.299518 1.415309 -0.282671
v -0.348776 1.389306 -0.318989
v -0.299518 1.415309 0.261857
v -0.259537 0.883538 -0.282671
v 0.348776 1.389306 -0.318989
v 0.348776 1.389306 -0.318989
v 0.348776 1.447598 -0.318989
v 0.000000 1.714704 -0.318989
v 0.000000 1.646097 -0.282671
v 0.348776 1.447598 0.298175
v -0.299518 1.415309 -0.282671
v -0.348776 1.447598 0.298175
v 0.000000 1.714704 -0.318989
v 0.348776 1.389306 -0.318989
v 0.348776 1.389306 0.298175
v 0.348776 1.447598 0.298175
v 0.348776 1.447598 -0.318989
v 0.000000 1.659098 -0.318989
v 0.348776 1.447598 -0.318989
v 0.000000 1.714704 -0.318989
v 0.000000 1.714704 -0.318989
v 0.000000 1.714704 0.298175
v 0.348776 1.447598 0.298175
v 0.348776 1.389306 0.298175
v 0.000000 1.659098 0.298175
v -0.348776 1.447598 0.298175
v -0.348776 1.389306 0.298175
v -0.348776 1.389306 -0.318989
v -0.348776 1.447598 -0.318989
v 0.000000 1.714704 0.298175
v 0.000000 1.659098 0.298175
v -0.348776 1.389306 0.298175
v -0.348776 1.447598 0.298175
v -0.348776 1.447598 -0.318989
v -0.348776 1.389306 -0.318989
v 0.000000 1.659098 -0.318989
v 0.299518 0.883538 0.221876
v 0.299518 0.843496 0.261857
v 0.299518 0.883538 -0.242691
v 0.299518 0.843496 -0.282671
v 0.290789 1.662211 -0.066044
v 0.299518 0.883538 -0.242691
v 0.299518 0.883538 0.221876
v 0.281084 0.883538 0.221876
v 0.281084 1.375267 -0.242691
v 0.299518 1.375267 -0.242691
v 0.299518 0.883538 -0.242691
v 0.281084 0.883538 -0.242691
v 0.281084 0.883538 -0.242691
v 0.299518 1.375267 0.221876
v -0.259537 0.883538 -0.282671
v -0.281084 0.883538 0.221876
v 0.281084 1.375267 0.221876
v 0.299518 1.375267 0.221876
v 0.299518 1.375267 -0.242691
v 0.281084 1.375267 -0.242691
v -0.299518 0.883538 -0.242691
v -0.299518 1.375267 0.221876
v -0.299518 1.375267 -0.242691
v -0.281084 0.883538 -0.242691
v -0.281084 0.883538 -0.242691
v -0.299518 0.883538 0.221876
v -0.299518 0.883538 0.221876
v -0.281084 1.375267 0.221876
v -0.281084 0.883538 0.221876
v -0.281084 1.375267 0.221876
v -0.299518 1.375267 0.221876
v -0.299518 1.375267 -0.242691
v -0.281084 1.375267 -0.242691
v -0.058048 1.090643 0.138680
v -0.103583 1.090643 0.138680
v -0.103583 1.090643 -0.071477
v -0.164011 1.174205 -0.052127
v -0.103583 1.174205 0.175365
v -0.103583 1.174205 -0.052127
v 0.220656 0.891473 -0.027467
v 0.220656 0.891473 0.152109
v 0.123299 1.060428 -0.027467
v 0.123299 1.060428 0.152109
v -0.164011 0.889642 0.175365
v -0.058048 0.889642 0.150156
v -0.058048 1.090643 -0.071477
v -0.058048 1.151926 0.150156
v -0.058048 1.090643 0.138680
v -0.259781 1.191113 -0.088995
v -0.259781 1.191113 0.151987
v -0.164011 1.191113 0.151987
v -0.103583 1.174205 0.175365
v -0.103583 0.889642 -0.052127
v -0.103583 1.174205 -0.052127
v -0.164011 1.174205 0.175365
v -0.164011 0.889642 0.175365
v -0.164011 0.889642 0.151987
v -0.164011 1.174205 0.151987
v -0.103583 0.889642 0.175365
v -0.164011 1.174205 0.175365
v -0.103583 1.174205 0.175365
v -0.164011 1.174205 0.175365
v -0.164011 1.191113 -0.088995
v -0.103583 0.889642 0.175365
v -0.164011 1.191113 0.151987
v -0.164011 1.129158 0.151987
v -0.164011 1.191113 -0.088995
v -0.164011 1.129158 -0.088995
v -0.164011 1.191113 0.151987
v 0.190014 0.919429 0.126534
v -0.058048 1.151926 0.150156
v 0.079595 1.146615 0.126534
v 0.013062 1.117500 -0.099738
v 0.123421 0.890313 -0.099738
v 0.123299 1.060428 0.152109
v 0.013062 1.117500 0.126534
v 0.013062 1.117500 0.126534
v 0.190014 0.919429 0.126534
v -0.259781 1.191113 0.151987
v -0.259781 0.889642 0.151987
v 0.011842 1.151926 0.150156
v -0.164011 0.889642 0.151987
v 0.011842 0.889642 0.150156
v -0.103583 1.090643 0.138680
v -0.058048 0.889642 0.138680
v -0.058048 1.151926 0.150156
v -0.103583 0.889642 0.138680
v 0.011842 1.151926 0.150156
v -0.058048 1.151926 -0.077458
v 0.011842 1.151926 -0.077458
v -0.058048 0.889642 -0.077458
v 0.011842 1.151926 -0.077458
v -0.058048 0.889642 0.150156
v 0.079595 1.146615 -0.099738
v 0.162302 1.080693 0.152109
v 0.259659 0.911738 -0.027467
v 0.162302 1.080693 -0.027467
v 0.259659 0.911738 0.152109
v 0.123299 1.060428 -0.027467
v 0.162302 1.080693 0.152109
v 0.162302 1.080693 -0.027467
v 0.123299 1.060428 0.152109
v 0.259659 0.911738 0.152109
v 0.013062 1.117500 0.126534
v 0.011842 0.889642 0.150156
v 0.123421 0.890313 0.126534
v 0.162302 1.080693 0.152109
v 0.079595 1.146615 0.126534
v 0.190014 0.919429 -0.099738
v 0.220656 0.891473 0.152109
v 0.123421 0.890313 0.126534
v -0.058048 1.151926 -0.077458
v 0.011842 0.889642 -0.077458
v 0.079595 1.146615 -0.099738
v 0.079595 1.146615 0.126534
v 0.011842 1.151926 0.150156
v 0.013062 1.117500 -0.099738
v 0.076421 0.889642 0.137887
v 0.076421 1.149057 0.149606
v 0.076421 0.889642 0.149606
v 0.091375 1.121834 0.118904
v 0.225844 1.225844 -0.010255
v 0.228407 1.228652 0.110419
v -0.103583 1.090643 -0.071477
v -0.058048 1.090338 -0.069401
v -0.058048 0.889642 0.149606
v -0.103583 1.090643 0.138680
v 0.076421 1.119697 0.137887
v 0.076421 0.889642 0.149606
v -0.058048 1.149057 0.149606
v 0.076421 0.889642 0.149606
v 0.076421 1.149057 0.149606
v 0.003235 1.235000 0.159617
v -0.223463 1.193066 0.094244
v -0.161753 1.249954 -0.114082
v -0.221449 1.244827 0.096075
v 0.060917 1.188427 -0.052371
v 0.003235 1.235000 0.159617
v 0.001221 1.183300 0.157786
v 0.062931 1.240188 -0.050540
v -0.221449 1.244827 0.096075
v 0.062931 1.240188 -0.050540
v 0.001221 1.183300 0.157786
v 0.003235 1.235000 0.159617
v -0.223463 1.193066 0.094244
v -0.163767 1.198254 -0.115913
v -0.103583 1.090643 0.138680
v 0.001221 1.183300 0.157786
v 0.200330 1.070317 0.162730
v 0.200330 0.889642 0.175365
v 0.060917 1.188427 -0.052371
v 0.075200 1.145822 -0.002136
v 0.076421 1.119697 -0.063358
v 0.076421 1.119697 0.137887
v 0.076421 1.149057 0.149606
v 0.200330 0.889642 0.162730
v 0.161387 1.070317 0.138009
v 0.200330 1.070317 0.162730
v 0.242019 1.201856 0.110786
v 0.091375 1.121834 0.118904
v 0.239394 1.199048 -0.009949
v 0.075200 1.145822 -0.002136
v 0.077825 1.148630 0.118599
v 0.200330 0.889642 0.175365
v 0.200330 1.070317 0.162730
v 0.200330 1.174205 0.175365
v 0.257706 0.889642 0.175365
v -0.041567 1.153452 0.144418
v 0.200330 0.889642 0.162730
v 0.088812 1.118965 -0.001770
v 0.091375 1.121834 0.118904
v 0.257706 1.174205 0.175365
v 0.088812 1.118965 -0.001770
v 0.242019 1.201856 0.110786
v 0.239394 1.199048 -0.009949
v 0.228407 1.228652 0.110419
v 0.225844 1.225844 -0.010255
v 0.076421 1.149057 0.149606
v -0.058048 1.149057 -0.067326
v 0.076421 1.149057 -0.066166
v 0.029055 1.184337 -0.038454
v 0.029055 1.153452 -0.038454
v -0.079534 1.153452 -0.010621
v 0.067082 1.184337 0.116584
v -0.079534 1.184337 -0.010621
v -0.041567 1.184337 0.144418
v 0.076421 1.149057 -0.066166
v -0.058048 1.149057 0.149606
v -0.058048 1.090338 -0.069401
v -0.058048 1.149057 -0.067326
v -0.058048 1.090643 0.138680
v -0.058048 1.149057 0.149606
v -0.058048 0.889642 0.149606
v -0.058048 1.149057 0.149606
v 0.029055 1.184337 -0.038454
v -0.058048 0.889642 0.138680
v -0.058048 0.889642 0.149606
v 0.161387 1.070317 0.006470
v 0.200330 1.070317 0.006470
v -0.058048 1.090643 0.138680
v 0.200330 1.174205 0.175365
v 0.257706 1.174205 0.175365
v 0.200330 1.174205 -0.052127
v 0.257706 1.174205 -0.052127
v 0.200330 1.070317 -0.052127
v 0.242019 1.201856 0.110786
v 0.077825 1.148630 0.118599
v 0.200330 1.174205 -0.052127
v 0.228407 1.228652 0.110419
v 0.077825 1.148630 0.118599
v 0.200330 1.174205 0.175365
v 0.161387 1.070317 0.162730
v 0.161387 0.889642 0.162730
v 0.161387 1.070317 0.162730
v 0.161387 0.889642 0.162730
v 0.161387 0.889642 0.138009
v 0.161387 1.070317 0.138009
v 0.161387 1.070317 0.162730
v 0.161387 1.043399 0.138009
v 0.161387 1.043399 -0.060490
v 0.161387 1.119148 0.138009
v 0.076421 1.119697 0.137887
v 0.161387 1.119148 0.138009
v 0.161387 0.889642 0.138009
v 0.076421 0.889642 0.137887
v 0.076421 1.119697 -0.063358
v 0.161387 1.119148 -0.060490
v 0.161387 1.119148 0.138009
v 0.076421 1.119697 0.137887
v 0.161387 1.119148 -0.060490
v -0.041567 1.153452 0.144418
v -0.079534 1.184337 -0.010621
v -0.041567 1.184337 0.144418
v 0.029055 1.153452 -0.038454
v 0.067082 1.153452 0.116584
v -0.079534 1.153452 -0.010621
v 0.067082 1.153452 0.116584
v 0.067082 1.184337 0.116584
v -0.041567 1.184337 0.144418
v 0.067082 1.184337 0.116584
v 0.067082 1.153452 0.116584
v -0.041567 1.153452 0.144418
v 0.259781 0.843496 0.261857
v 0.259781 0.843496 0.261857
v 0.209791 1.325520 0.261857
v 0.235305 1.273027 0.262772
v 0.259781 1.244400 0.262772
v 0.235305 0.964231 0.262772
v -0.209791 1.325520 0.261857
v -0.209791 1.325520 0.208204
v 0.209791 1.325520 0.208204
v 0.235305 0.943478 0.262772
v -0.259781 0.843496 0.208204
v -0.259781 1.375511 0.261857
v 0.259781 0.843496 0.261857
v 0.209791 1.325520 0.261857
v -0.259781 1.375511 0.261857
v -0.259781 1.375511 0.261857
v -0.259781 0.843496 0.261857
v -0.259781 0.843496 0.261857
v 0.209791 0.893487 0.261857
v -0.259781 1.375511 0.208204
v 0.259781 1.375511 0.261857
v 0.259781 1.375511 0.261857
v -0.209791 1.325520 0.261857
v -0.209791 0.893487 0.261857
v 0.209791 0.893487 0.261857
v -0.209791 0.893487 0.261857
v 0.259781 0.843496 0.208204
v 0.209791 1.325520 0.208204
v 0.259781 0.843496 0.208204
v -0.209791 1.325520 0.208204
v 0.259781 1.375511 0.208204
v 0.259781 1.375511 0.208204
v -0.259781 0.843496 0.261857
v -0.209791 1.325520 0.261857
v -0.259781 1.375511 0.208204
v 0.209791 1.325520 0.208204
v 0.209791 1.325520 0.261857
v 0.209791 0.893487 0.208204
v 0.209791 1.325520 0.261857
v 0.209791 0.893487 0.208204
v -0.209791 1.325520 0.208204
v -0.259781 0.843496 0.208204
v 0.209791 0.893487 0.208204
v -0.259781 0.843496 0.208204
v -0.209791 0.893487 0.208204
v -0.259781 1.375511 0.208204
v 0.209791 0.893487 0.261857
v 0.209791 1.325520 0.208204
v -0.209791 0.893487 0.208204
v -0.209791 1.325520 0.261857
v -0.247269 1.160349 0.270036
v 0.259781 0.972105 0.262772
v -0.247269 1.077702 0.280535
v -0.209791 0.893487 0.208204
v -0.209791 1.325520 0.208204
v -0.209791 0.893487 0.261857
v -0.209791 0.893487 0.261857
v 0.209791 0.893487 0.208204
v -0.209791 0.893487 0.208204
v -0.243911 1.188976 0.261735
v 0.209791 0.893487 0.261857
v 0.259781 1.375511 0.208204
v 0.259781 1.375511 0.261857
v -0.247269 1.177074 0.259232
v 0.259781 0.843496 0.208204
v 0.259781 0.843496 0.261857
v 0.259781 0.843496 0.208204
v -0.259781 0.843496 0.208204
v -0.259781 0.843496 0.261857
v -0.226576 1.077702 0.280535
v -0.226576 1.160349 0.280535
v -0.243911 1.188976 0.261735
v -0.247269 1.160349 0.280535
v -0.229933 1.188976 0.261735
v -0.247269 1.077702 0.270036
v -0.247269 1.060978 0.259232
v -0.229933 1.188976 0.261735
v -0.243911 1.049075 0.262101
v -0.226576 1.077702 0.280535
v -0.226576 1.060978 0.259232
v -0.226576 1.077702 0.270036
v -0.229933 1.049075 0.262101
v -0.226576 1.160349 0.280535
v -0.226576 1.177074 0.259232
v -0.226576 1.160349 0.270036
v -0.247269 1.077702 0.280535
v -0.243911 1.049075 0.262101
v -0.247269 1.160349 0.270036
v -0.229933 1.049075 0.262101
v 0.259781 1.375511 0.208204
v -0.259781 1.375511 0.208204
v 0.259781 1.375511 0.261857
v 0.259781 1.280901 0.262772
v -0.259781 1.375511 0.261857
v -0.247269 1.077702 0.270036
v -0.226576 1.060978 0.259232
v -0.247269 1.060978 0.259232
v -0.226576 1.077702 0.270036
v -0.247269 1.177074 0.259232
v -0.226576 1.160349 0.270036
v -0.226576 1.177074 0.259232
v -0.247269 1.160349 0.270036
v -0.247269 1.077702 0.270036
v -0.226576 1.077702 0.270036
v -0.226576 1.160349 0.270036
v -0.247269 1.160349 0.280535
v 0.259781 0.935604 0.262772
v 0.235305 1.252274 0.262772
vt 0.022397 0.495941
vt 0.269244 0.495941
vt 0.022397 0.495941
vt 0.978751 0.011248
vt 0.907804 0.225242
vt 0.761332 0.011248
vt 0.978751 0.225242
vt 0.460963 0.272157
vt 0.761332 0.225242
vt 0.685808 0.011248
vt 0.761332 0.011248
vt 0.418837 0.217393
vt 0.418837 0.251215
vt 0.685808 0.225242
vt 0.460963 0.201149
vt 0.508151 0.272157
vt 0.508151 0.201149
vt 0.289883 0.220939
vt 0.550277 0.216666
vt 0.521182 0.317041
vt 0.716084 0.354682
vt 0.550277 0.250488
vt 0.460963 0.272157
vt 0.508151 0.201149
vt 0.550277 0.250488
vt 0.418837 0.251215
vt 0.371680 0.251215
vt 0.550277 0.216666
vt 0.418837 0.217393
vt 0.460963 0.272157
vt 0.460963 0.201149
vt 0.371680 0.217393
vt 0.508151 0.272157
vt 0.418837 0.217393
vt 0.460963 0.201149
vt 0.508151 0.201149
vt 0.418837 0.251215
vt 0.508151 0.272157
vt 0.272668 0.246245
vt 0.319856 0.309343
vt 0.272668 0.309343
vt 0.521182 0.354682
vt 0.169565 0.021491
vt 0.169565 0.169539
vt 0.355557 0.148506
vt 0.978751 0.262974
vt 0.907804 0.262974
vt 0.716084 0.317041
vt 0.978751 0.225242
vt 0.269244 0.626623
vt 0.361164 0.261974
vt 0.907804 0.225242
vt 0.319553 0.309283
vt 0.319553 0.246699
vt 0.169565 0.169539
vt 0.361164 0.281340
vt 0.382378 0.148506
vt 0.269244 0.626623
vt 0.022397 0.626623
vt 0.149563 0.180904
vt 0.149563 0.010126
vt 0.269244 0.495941
vt 0.022397 0.626623
vt 0.564248 0.495941
vt 0.288428 0.626623
vt 0.288428 0.495941
vt 0.564248 0.626623
vt 0.744845 0.482121
vt 0.978751 0.372745
vt 0.979054 0.482121
vt 0.744845 0.372745
vt 0.361679 0.281522
vt 0.408806 0.261701
vt 0.408806 0.281522
vt 0.361679 0.261701
vt 0.643500 0.165326
vt 0.633347 0.168872
vt 0.599222 0.017642
vt 0.319886 0.246245
vt 0.272668 0.246245
vt 0.230694 0.282643
vt 0.230694 0.262792
vt 0.272668 0.309343
vt 0.230451 0.263186
vt 0.230451 0.282552
vt 0.272365 0.309283
vt 0.319886 0.246245
vt 0.361679 0.281522
vt 0.319856 0.309343
vt 0.361679 0.261701
vt 0.361164 0.281340
vt 0.408321 0.261974
vt 0.408321 0.281340
vt 0.361164 0.261974
vt 0.272365 0.246699
vt 0.319553 0.309283
vt 0.272365 0.309283
vt 0.319553 0.246699
vt 0.272365 0.246699
vt 0.260849 0.995393
vt 0.023336 0.936265
vt 0.260849 0.936265
vt 0.048006 0.936265
vt 0.868284 0.262186
vt 0.857495 0.259155
vt 0.126500 0.995333
vt 0.048006 0.995333
vt 0.126500 0.936265
vt 0.126500 0.995333
vt 0.048006 0.936265
vt 0.400714 0.157325
vt 0.465449 0.157325
vt 0.456023 0.031492
vt 0.048006 0.995333
vt 0.126500 0.936265
vt 0.126500 0.995333
vt 0.048006 0.936265
vt 0.023336 0.995393
vt 0.400714 0.031492
vt 0.456023 0.157325
vt 0.415079 0.157325
vt 0.435536 0.167569
vt 0.128167 0.021158
vt 0.253302 0.008338
vt 0.455357 0.157325
vt 0.456023 0.031492
vt 0.260849 0.936265
vt 0.023336 0.995393
vt 0.260849 0.995393
vt 0.023336 0.936265
vt 0.235543 0.226394
vt 0.181627 0.220939
vt 0.235543 0.220939
vt 0.181627 0.226394
vt 0.181627 0.226394
vt 0.235543 0.236335
vt 0.235543 0.220939
vt 0.235543 0.226394
vt 0.235543 0.226394
vt 0.289883 0.236335
vt 0.181627 0.236335
vt 0.289883 0.226394
vt 0.274578 0.019067
vt 0.253302 0.153022
vt 0.274578 0.142475
vt 0.335221 0.012369
vt 0.314764 0.022612
vt 0.335221 0.158689
vt 0.227421 0.018673
vt 0.207206 0.148112
vt 0.314764 0.148445
vt 0.455357 0.031492
vt 0.227421 0.138323
vt 0.207206 0.008762
vt 0.274578 0.142324
vt 0.434869 0.021249
vt 0.434869 0.167569
vt 0.116802 0.159810
vt 0.116802 0.021158
vt 0.128167 0.159810
vt 0.274578 0.018885
vt 0.253302 0.153022
vt 0.253302 0.008338
vt 0.435536 0.021249
vt 0.456023 0.031492
vt 0.435536 0.167569
vt 0.188204 0.021491
vt 0.169565 0.169539
vt 0.456023 0.157325
vt 0.235543 0.236335
vt 0.338040 0.236335
vt 0.338040 0.226394
vt 0.289883 0.226394
vt 0.289883 0.236335
vt 0.181627 0.236335
vt 0.181627 0.226394
vt 0.133501 0.226394
vt 0.048006 0.936265
vt 0.126500 0.995333
vt 0.126500 0.936265
vt 0.815459 0.252003
vt 0.826279 0.255246
vt 0.133501 0.236335
vt 0.868284 0.252003
vt 0.868284 0.262186
vt 0.826279 0.259155
vt 0.857495 0.255246
vt 0.815459 0.262186
vt 0.048006 0.995333
vt 0.126500 0.936265
vt 0.857495 0.259155
vt 0.048006 0.936265
vt 0.857495 0.255246
vt 0.023336 0.936265
vt 0.126500 0.995333
vt 0.023336 0.995393
vt 0.868284 0.252003
vt 0.826279 0.259155
vt 0.048006 0.995333
vt 0.815459 0.262186
vt 0.815459 0.252003
vt 0.260849 0.936265
vt 0.826279 0.255246
vt 0.260849 0.995393
vt 0.023336 0.995393
vt 0.260849 0.995393
vt 0.023336 0.936265
vt 0.260849 0.936265
vt 0.169565 0.021491
vt 0.188204 0.169539
vt 0.188204 0.021491
vt 0.048006 0.995333
vt 0.126500 0.936265
vt 0.126500 0.995333
vt 0.048006 0.995333
vt 0.048006 0.936265
vt 0.126500 0.995333
vt 0.126500 0.936265
vt 0.048006 0.936265
vt 0.048006 0.936265
vt 0.126500 0.995333
vt 0.126500 0.936265
vt 0.048006 0.995333
vt 0.048006 0.936265
vt 0.126500 0.995333
vt 0.126500 0.936265
vt 0.048006 0.995333
vt 0.048006 0.936265
vt 0.126500 0.995333
vt 0.126500 0.936265
vt 0.048006 0.995333
vt 0.048006 0.936265
vt 0.126500 0.995333
vt 0.126500 0.936265
vt 0.126500 0.936265
vt 0.356224 0.220939
vt 0.289883 0.226394
vt 0.048006 0.995333
vt 0.338040 0.226394
vt 0.048006 0.995333
vt 0.126500 0.936265
vt 0.126500 0.995333
vt 0.048006 0.936265
vt 0.048006 0.995333
vt 0.126500 0.936265
vt 0.126500 0.995333
vt 0.048006 0.936265
vt 0.048006 0.995333
vt 0.126500 0.936265
vt 0.126500 0.995333
vt 0.048006 0.936265
vt 0.048006 0.995333
vt 0.400623 0.157386
vt 0.415079 0.157325
vt 0.188204 0.169539
vt 0.169565 0.021491
vt 0.335221 0.158689
vt 0.355557 0.012369
vt 0.414564 0.157386
vt 0.643500 0.126564
vt 0.544064 0.112532
vt 0.633347 0.168872
vt 0.643500 0.112896
vt 0.500604 0.112532
vt 0.511393 0.073982
vt 0.633347 0.070558
vt 0.500604 0.070436
vt 0.590615 0.116442
vt 0.500604 0.112532
vt 0.633347 0.116442
vt 0.414564 0.157386
vt 0.643500 0.074103
vt 0.400714 0.157325
vt 0.415079 0.031492
vt 0.400714 0.031492
vt 0.599828 0.074103
vt 0.511393 0.108986
vt 0.305309 0.148445
vt 0.314764 0.022612
vt 0.305309 0.022612
vt 0.073312 0.165811
vt 0.073312 0.006944
vt 0.073312 0.006944
vt 0.599828 0.112896
vt 0.544064 0.122897
vt 0.590615 0.070558
vt 0.554520 0.161447
vt 0.554520 0.126413
vt 0.590615 0.123018
vt 0.544064 0.164993
vt 0.599828 0.165326
vt 0.599828 0.126564
vt 0.500635 0.122897
vt 0.590615 0.168872
vt 0.511393 0.161447
vt 0.335221 0.012369
vt 0.039065 0.849528
vt 0.296792 0.836526
vt 0.500635 0.164993
vt 0.633347 0.123018
vt 0.643500 0.165326
vt 0.511393 0.126413
vt 0.554520 0.073982
vt 0.544064 0.070436
vt 0.633347 0.116442
vt 0.554520 0.108986
vt 0.554520 0.073982
vt 0.544064 0.070436
vt 0.544064 0.112532
vt 0.554520 0.108986
vt 0.414564 0.031644
vt 0.400562 0.031644
vt 0.979327 0.567131
vt 0.400562 0.043463
vt 0.744845 0.482121
vt 0.979054 0.482121
vt 0.575249 0.372745
vt 0.744845 0.567131
vt 0.744845 0.482121
vt 0.744845 0.372745
vt 0.978751 0.287947
vt 0.575189 0.482121
vt 0.744845 0.275733
vt 0.978751 0.275733
vt 0.355557 0.012369
vt 0.744845 0.287947
vt 0.382409 0.012369
vt 0.414564 0.157386
vt 0.434869 0.021249
vt 0.382409 0.024158
vt 0.434869 0.167569
vt 0.296792 0.849528
vt 0.414564 0.031644
vt 0.316492 0.849528
vt 0.434869 0.021249
vt 0.355557 0.148506
vt 0.039065 0.836526
vt 0.316492 0.714451
vt 0.047521 0.165811
vt 0.255818 0.320314
vt 0.047521 0.165811
vt 0.019366 0.714451
vt 0.643500 0.074103
vt 0.643500 0.112896
vt 0.019366 0.849528
vt 0.633347 0.070558
vt 0.511393 0.108986
vt 0.500604 0.070436
vt 0.511393 0.073982
vt 0.368740 0.639715
vt 0.519910 0.698055
vt 0.590615 0.116442
vt 0.217389 0.697934
vt 0.417443 0.201876
vt 0.289883 0.164387
vt 0.289883 0.205695
vt 0.353102 0.205695
vt 0.435536 0.021249
vt 0.235543 0.226394
vt 0.289883 0.226394
vt 0.978751 0.287947
vt 0.744845 0.287947
vt 0.744845 0.372745
vt 0.349981 0.189753
vt 0.289883 0.205695
vt 0.289883 0.164387
vt 0.235543 0.164387
vt 0.235543 0.205695
vt 0.181627 0.205695
vt 0.181627 0.190147
vt 0.124227 0.190147
vt 0.120105 0.205695
vt 0.181627 0.220939
vt 0.181627 0.208604
vt 0.120105 0.208604
vt 0.115983 0.220939
vt 0.289883 0.208604
vt 0.289883 0.220939
vt 0.356224 0.220939
vt 0.353102 0.208604
vt 0.289883 0.220939
vt 0.289883 0.208604
vt 0.235543 0.208604
vt 0.235543 0.220939
vt 0.235543 0.220939
vt 0.235543 0.208604
vt 0.181627 0.208604
vt 0.181627 0.220939
vt 0.115983 0.220939
vt 0.133501 0.226394
vt 0.181627 0.226394
vt 0.371680 0.251215
vt 0.907804 0.011248
vt 0.761332 0.225242
vt 0.832280 0.011248
vt 0.832280 0.225242
vt 0.369892 0.201876
vt 0.417443 0.178085
vt 0.181627 0.220939
vt 0.907804 0.225242
vt 0.369892 0.178085
vt 0.744845 0.482121
vt 0.575189 0.482121
vt 0.978751 0.372745
vt 0.508151 0.201149
vt 0.371680 0.217393
vt 0.832280 0.011248
vt 0.460963 0.272157
vt 0.508151 0.272157
vt 0.460963 0.201149
vt 0.418837 0.251215
vt 0.418837 0.217393
vt 0.181627 0.190147
vt 0.235543 0.205695
vt 0.181627 0.205695
vt 0.235543 0.164387
vt 0.599828 0.074103
vt 0.599828 0.112896
vt 0.633347 0.123018
vt 0.590615 0.070558
vt 0.554520 0.161447
vt 0.554520 0.126413
vt 0.544064 0.122897
vt 0.544064 0.164993
vt 0.599828 0.165326
vt 0.599828 0.126564
vt 0.590615 0.123018
vt 0.590615 0.168872
vt 0.511393 0.161447
vt 0.511393 0.126413
vt 0.500635 0.122897
vt 0.500635 0.164993
vt 0.643500 0.126564
vt 0.542943 0.059617
vt 0.553368 0.056071
vt 0.542943 0.017521
vt 0.553368 0.021067
vt 0.633347 0.059981
vt 0.643500 0.056435
vt 0.633347 0.014127
vt 0.643500 0.017642
vt 0.501544 0.059617
vt 0.512303 0.056071
vt 0.501544 0.017521
vt 0.512303 0.021067
vt 0.590009 0.014127
vt 0.590009 0.059981
vt 0.744845 0.372745
vt 0.599222 0.056435
vt 0.575249 0.372745
vt 0.907804 0.011248
vt 0.047521 0.165811
vt 0.832280 0.225242
vt 0.073312 0.165811
vt 0.073312 0.165811
vt 0.047521 0.283643
vt 0.047521 0.006944
vt 0.073312 0.283643
vt 0.047521 0.283643
vt 0.073312 0.165811
vt 0.047521 0.165811
vt 0.047521 0.283643
vt 0.073312 0.283643
vt 0.047521 0.165811
vt 0.073312 0.165811
vt 0.073312 0.165811
vt 0.047521 0.283643
vt 0.073312 0.165811
vt 0.047521 0.283643
vt 0.073312 0.283643
vt 0.073312 0.165811
vt 0.047521 0.283643
vt 0.047521 0.165811
vt 0.073312 0.165811
vt 0.073312 0.283643
vt 0.047521 0.165811
vt 0.047521 0.283643
vt 0.047521 0.283643
vt 0.149563 0.180904
vt 0.169565 0.021491
vt 0.073312 0.165811
vt 0.149563 0.010126
vt 0.435536 0.167569
vt 0.415079 0.031492
vt 0.169565 0.169539
vt 0.435536 0.021249
vt 0.093375 0.171145
vt 0.116802 0.021158
vt 0.415079 0.157325
vt 0.022397 0.484273
vt 0.255818 0.320314
vt 0.018032 0.639715
vt 0.093375 0.010035
vt 0.435536 0.021249
vt 0.415079 0.157325
vt 0.116802 0.159810
vt 0.435536 0.167569
vt 0.047521 0.006944
vt 0.073312 0.165811
vt 0.415079 0.031492
vt 0.047521 0.006944
vt 0.047521 0.006944
vt 0.489239 0.484273
vt 0.255818 0.484273
vt 0.169202 0.698055
vt 0.489239 0.320314
vt 0.320553 0.639836
vt 0.022397 0.320314
vt 0.255818 0.484273
vt 0.047521 0.006944
vt 0.047521 0.165811
vt 0.020972 0.165811
vt 0.020972 0.006944
vt 0.047521 0.283643
vt 0.020972 0.165811
vt 0.020972 0.283643
vt 0.020972 0.283643
vt 0.020972 0.283643
vt 0.020972 0.165811
vt 0.047521 0.165811
vt 0.047521 0.283643
vt 0.020972 0.165811
vt 0.047521 0.165811
vt 0.047521 0.006944
vt 0.020972 0.006944
vt 0.020972 0.283643
vt 0.047521 0.283643
vt 0.047521 0.165811
vt 0.020972 0.165811
vt 0.020972 0.165811
vt 0.047521 0.165811
vt 0.047521 0.283643
vt 0.227421 0.018673
vt 0.207206 0.008762
vt 0.227421 0.138323
vt 0.207206 0.148112
vt 0.289883 0.220939
vt 0.227421 0.138323
vt 0.227421 0.018673
vt 0.237240 0.018673
vt 0.465449 0.157325
vt 0.456023 0.157325
vt 0.456023 0.031492
vt 0.237240 0.138323
vt 0.465449 0.031492
vt 0.314764 0.148445
vt 0.415079 0.031492
vt 0.237240 0.018673
vt 0.284367 0.142475
vt 0.274578 0.142475
vt 0.274578 0.019067
vt 0.284367 0.019067
vt 0.227421 0.138323
vt 0.274578 0.142324
vt 0.456023 0.157325
vt 0.465449 0.031492
vt 0.237240 0.138323
vt 0.455357 0.031492
vt 0.227421 0.018673
vt 0.465479 0.157325
vt 0.465479 0.031492
vt 0.284367 0.142324
vt 0.455357 0.157325
vt 0.274578 0.018885
vt 0.284367 0.018885
vt 0.777273 0.942508
vt 0.753786 0.942508
vt 0.753786 0.994696
vt 0.966507 0.790218
vt 0.935322 0.848619
vt 0.935322 0.790218
vt 0.985388 0.929113
vt 0.900378 0.929113
vt 0.985388 0.979604
vt 0.900378 0.979604
vt 0.966507 0.921991
vt 0.541033 0.909959
vt 0.777273 0.994696
vt 0.541033 0.842345
vt 0.777273 0.942508
vt 0.819399 0.792339
vt 0.695142 0.792339
vt 0.695142 0.817039
vt 0.935322 0.848619
vt 0.817520 0.921991
vt 0.817520 0.848619
vt 0.966507 0.848619
vt 0.966507 0.921991
vt 0.978024 0.921991
vt 0.978024 0.848619
vt 0.935322 0.921991
vt 0.966507 0.848619
vt 0.935322 0.848619
vt 0.966507 0.848619
vt 0.819399 0.817039
vt 0.935322 0.921991
vt 0.695142 0.817039
vt 0.695142 0.832556
vt 0.819399 0.817039
vt 0.819399 0.832556
vt 0.695142 0.817039
vt 0.482451 0.709117
vt 0.541033 0.842345
vt 0.482451 0.774246
vt 0.332675 0.774246
vt 0.332675 0.709117
vt 0.900378 0.979604
vt 0.444992 0.774246
vt 0.444992 0.774246
vt 0.482451 0.709117
vt 0.695142 0.792339
vt 0.557762 0.792339
vt 0.504999 0.842345
vt 0.557762 0.817039
vt 0.504999 0.909959
vt 0.753786 0.942508
vt 0.777273 0.892563
vt 0.541033 0.842345
vt 0.753786 0.892563
vt 0.504999 0.842345
vt 0.541033 0.783641
vt 0.504999 0.783641
vt 0.646591 0.909959
vt 0.401502 0.842345
vt 0.541033 0.909959
vt 0.589706 0.774246
vt 0.877739 0.979604
vt 0.789305 0.929113
vt 0.789305 0.979604
vt 0.877739 0.929113
vt 0.980933 0.996303
vt 0.893711 0.984968
vt 0.980933 0.984968
vt 0.893711 0.996303
vt 0.877739 0.929113
vt 0.444992 0.774246
vt 0.504999 0.909959
vt 0.444992 0.709117
vt 0.877739 0.979604
vt 0.482451 0.774246
vt 0.589706 0.709117
vt 0.900378 0.929113
vt 0.444992 0.709117
vt 0.646591 0.842345
vt 0.401502 0.909959
vt 0.482451 0.832556
vt 0.482451 0.774246
vt 0.504999 0.842345
vt 0.444992 0.832556
vt 0.384409 0.862438
vt 0.378560 0.929325
vt 0.378590 0.862438
vt 0.899742 0.929113
vt 0.789305 0.979604
vt 0.877073 0.979604
vt 0.753786 0.994696
vt 0.777273 0.994696
vt 0.309279 0.862438
vt 0.753786 0.942508
vt 0.384409 0.917960
vt 0.378590 0.862438
vt 0.309279 0.929325
vt 0.378590 0.862438
vt 0.378560 0.929325
vt 0.846190 0.782277
vt 0.872890 0.722028
vt 0.741239 0.722028
vt 0.846190 0.722028
vt 0.872890 0.838648
vt 0.846190 0.782277
vt 0.872890 0.782277
vt 0.846190 0.838648
vt 0.846190 0.722028
vt 0.741239 0.782277
vt 0.872890 0.782277
vt 0.846190 0.782277
vt 0.872890 0.722028
vt 0.974933 0.722028
vt 0.753786 0.942508
vt 0.872890 0.782277
vt 0.703264 0.942660
vt 0.661623 0.976937
vt 0.974933 0.782277
vt 0.793305 0.996060
vt 0.489664 0.917960
vt 0.384409 0.917960
vt 0.378560 0.929325
vt 0.703264 0.892139
vt 0.684262 0.946569
vt 0.703264 0.942660
vt 0.899742 0.979604
vt 0.899742 0.929113
vt 0.985388 0.979604
vt 0.789305 0.929113
vt 0.877073 0.929113
vt 0.661623 0.976937
vt 0.568461 0.973512
vt 0.514879 0.976664
vt 0.661502 0.991726
vt 0.738663 0.884077
vt 0.661623 0.973694
vt 0.793305 0.984756
vt 0.877194 0.984756
vt 0.514788 0.991454
vt 0.985388 0.929113
vt 0.893711 0.984968
vt 0.980933 0.984968
vt 0.893711 0.996303
vt 0.980933 0.996303
vt 0.378560 0.929325
vt 0.309248 0.985271
vt 0.489664 0.929355
vt 0.665321 0.842951
vt 0.738663 0.954419
vt 0.738663 0.842951
vt 0.665321 0.884077
vt 0.722752 0.842951
vt 0.722752 0.884077
vt 0.378560 0.984968
vt 0.309279 0.929325
vt 0.489664 0.917960
vt 0.489664 0.929325
vt 0.384409 0.917960
vt 0.378560 0.929325
vt 0.378560 0.862438
vt 0.378560 0.929325
vt 0.722752 0.954389
vt 0.384409 0.862438
vt 0.378560 0.862438
vt 0.684262 0.978998
vt 0.703264 0.978998
vt 0.384409 0.917960
vt 0.514879 0.976664
vt 0.514788 0.991454
vt 0.397592 0.976482
vt 0.397471 0.991272
vt 0.568855 0.918112
vt 0.899742 0.979604
vt 0.877073 0.929113
vt 0.515273 0.918021
vt 0.877073 0.979604
vt 0.877194 0.996060
vt 0.514879 0.976664
vt 0.684262 0.938720
vt 0.684262 0.892139
vt 0.684262 0.938720
vt 0.684262 0.892139
vt 0.668533 0.892139
vt 0.668533 0.938720
vt 0.684262 0.938720
vt 0.271789 0.895776
vt 0.169747 0.895776
vt 0.271789 0.876258
vt 0.156837 0.845406
vt 0.156837 0.867136
vt 0.275275 0.867136
vt 0.275275 0.845406
vt 0.053794 0.845406
vt 0.053794 0.867136
vt 0.156837 0.867136
vt 0.156837 0.845406
vt 0.169747 0.876258
vt 0.738663 0.884077
vt 0.722752 0.842951
vt 0.722752 0.884077
vt 0.796912 0.842951
vt 0.796912 0.884077
vt 0.738663 0.842951
vt 0.738663 0.913263
vt 0.722752 0.913232
vt 0.722752 0.884077
vt 0.722752 0.913232
vt 0.738663 0.913263
vt 0.738663 0.884077
vt 0.922745 0.580617
vt 0.660441 0.774761
vt 0.685687 0.653050
vt 0.760544 0.254882
vt 0.778304 0.243790
vt 0.760544 0.254882
vt 0.819611 0.593255
vt 0.846706 0.593255
vt 0.846706 0.699207
vt 0.759877 0.248700
vt 0.631347 0.496850
vt 0.658441 0.631169
vt 0.660441 0.774761
vt 0.819611 0.699207
vt 0.658441 0.631169
vt 0.794336 0.580617
vt 0.658441 0.496850
vt 0.922745 0.711845
vt 0.948020 0.593255
vt 0.631347 0.631169
vt 0.660441 0.640443
vt 0.794336 0.711845
vt 0.819611 0.593255
vt 0.948020 0.699207
vt 0.685687 0.762154
vt 0.683686 0.509458
vt 0.633347 0.774761
vt 0.608102 0.653050
vt 0.895651 0.580617
vt 0.741996 0.593255
vt 0.633347 0.640443
vt 0.767242 0.711845
vt 0.658441 0.496850
vt 0.683686 0.618531
vt 0.767242 0.580617
vt 0.741996 0.699207
vt 0.685687 0.653050
vt 0.712781 0.762154
vt 0.819611 0.699207
vt 0.608102 0.762154
vt 0.606071 0.618531
vt 0.631347 0.496850
vt 0.870405 0.593255
vt 0.895651 0.711845
vt 0.870405 0.699207
vt 0.631347 0.631169
vt 0.685687 0.762154
vt 0.712781 0.653050
vt 0.606071 0.509458
vt 0.683686 0.618531
vt 0.547852 0.283734
vt 0.777455 0.260307
vt 0.659532 0.286825
vt 0.710780 0.509458
vt 0.710780 0.618531
vt 0.948020 0.699207
vt 0.683686 0.509458
vt 0.975115 0.593255
vt 0.975115 0.699207
vt 0.517970 0.287553
vt 0.948020 0.593255
vt 0.633347 0.640443
vt 0.660441 0.640443
vt 0.532578 0.282007
vt 0.633347 0.774761
vt 0.922745 0.580617
vt 0.895651 0.580617
vt 0.895651 0.711845
vt 0.922745 0.711845
vt 0.660078 0.293038
vt 0.554095 0.293008
vt 0.517970 0.287553
vt 0.554368 0.286795
vt 0.517970 0.293705
vt 0.665957 0.283764
vt 0.680807 0.282007
vt 0.517970 0.293705
vt 0.697658 0.287068
vt 0.660078 0.293038
vt 0.680807 0.297978
vt 0.665866 0.296129
vt 0.697658 0.291765
vt 0.554095 0.293008
vt 0.532578 0.297978
vt 0.548428 0.296099
vt 0.659532 0.286825
vt 0.697658 0.287068
vt 0.600464 0.264338
vt 0.697658 0.291765
vt 0.767242 0.711845
vt 0.767242 0.580617
vt 0.794336 0.711845
vt 0.777455 0.260307
vt 0.794336 0.580617
vt 0.708598 0.264338
vt 0.724570 0.257852
vt 0.724570 0.264338
vt 0.708598 0.257852
vt 0.584493 0.264338
vt 0.600464 0.257852
vt 0.584493 0.257852
vt 0.600464 0.264338
vt 0.708598 0.264338
vt 0.708598 0.257852
vt 0.600464 0.257852
vt 0.554368 0.286795
vt 0.778304 0.243790
vt 0.759877 0.248700
vn 1.000000 0.000000 0.000000
vn 1.000000 0.000000 0.000000
vn -1.000000 0.000000 0.000000
vn -1.000000 0.000000 0.000000
vn -1.000000 0.000000 0.000000
vn 1.000000 0.000000 0.000000
vn -1.000000 0.000000 0.000000
vn 0.000000 0.000000 1.000000
vn 0.000000 0.000000 -1.000000
vn 0.000000 0.000000 -1.000000
vn 0.000000 0.000000 -1.000000
vn 0.000000 0.000000 1.000000
vn 0.000000 0.000000 1.000000
vn 0.000000 0.000000 -1.000000
vn 0.000000 0.000000 1.000000
vn 0.000000 0.000000 -1.000000
vn 0.000000 0.000000 -1.000000
vn 0.000000 1.000000 0.000000
vn 0.000000 0.000000 1.000000
vn 0.000000 0.000000 1.000000
vn 0.000000 0.000000 1.000000
vn 0.000000 0.000000 -1.000000
vn 0.000000 0.000000 -1.000000
vn 0.000000 0.000000 1.000000
vn 0.000000 0.000000 1.000000
vn -0.734122 0.679017 0.000000
vn -0.734122 0.679017 0.000000
vn 0.000000 0.000000 -1.000000
vn -0.734122 0.679017 0.000000
vn 0.719772 -0.694211 0.000000
vn 0.719772 -0.694211 0.000000
vn -0.734122 0.679017 0.000000
vn 0.719772 -0.694211 0.000000
vn 0.000000 0.000000 -1.000000
vn 0.000000 0.000000 -1.000000
vn 0.719772 -0.694211 0.000000
vn 0.000000 0.000000 -1.000000
vn 0.000000 0.000000 1.000000
vn 0.000000 -0.619763 -0.784789
vn 0.000000 -0.619763 -0.784789
vn 0.000000 -0.619763 -0.784789
vn 0.000000 0.000000 1.000000
vn 0.000000 0.000000 1.000000
vn 0.000000 0.000000 1.000000
vn -1.000000 0.000000 0.000000
vn 0.000000 -1.000000 0.000000
vn 0.000000 -1.000000 0.000000
vn 0.000000 0.000000 1.000000
vn 0.000000 -1.000000 0.000000
vn 1.000000 0.000000 0.000000
vn -1.000000 0.000000 0.000000
vn 0.000000 -1.000000 0.000000
vn -1.000000 0.000000 0.000000
vn -1.000000 0.000000 0.000000
vn 0.000000 -1.000000 0.000000
vn -1.000000 0.000000 0.000000
vn -1.000000 0.000000 0.000000
vn -1.000000 0.000000 0.000000
vn -1.000000 0.000000 0.000000
vn 0.000000 0.000000 1.000000
vn 0.000000 0.000000 1.000000
vn -1.000000 0.000000 0.000000
vn 1.000000 0.000000 0.000000
vn 0.000000 0.000000 -1.000000
vn 0.000000 0.000000 -1.000000
vn 0.000000 0.000000 -1.000000
vn 0.000000 0.000000 -1.000000
vn 0.000000 0.000000 1.000000
vn 0.000000 0.000000 1.000000
vn 0.000000 0.000000 1.000000
vn 0.000000 0.000000 1.000000
vn 0.000000 0.648099 0.761556
vn 0.000000 0.648099 0.761556
vn 0.000000 0.648099 0.761556
vn 0.000000 0.648099 0.761556
vn -1.000000 0.000000 0.000000
vn -1.000000 0.000000 0.000000
vn 0.000000 0.000000 -1.000000
vn 0.000000 -0.619763 -0.784789
vn -1.000000 0.000000 0.000000
vn -1.000000 0.000000 0.000000
vn -1.000000 0.000000 0.000000
vn -1.000000 0.000000 0.000000
vn 1.000000 0.000000 0.000000
vn 1.000000 0.000000 0.000000
vn 1.000000 0.000000 0.000000
vn 1.000000 0.000000 0.000000
vn 1.000000 0.000000 0.000000
vn 1.000000 0.000000 0.000000
vn 1.000000 0.000000 0.000000
vn 0.000000 0.625181 -0.780480
vn 0.000000 0.625181 -0.780480
vn 0.000000 0.625181 -0.780480
vn 0.000000 0.625181 -0.780480
vn 0.000000 -0.612302 0.790624
vn 0.000000 -0.612302 0.790624
vn 0.000000 -0.612302 0.790624
vn 0.000000 -0.612302 0.790624
vn 1.000000 0.000000 0.000000
vn -1.000000 0.000000 0.000000
vn -1.000000 0.000000 0.000000
vn -1.000000 0.000000 0.000000
vn 0.000000 0.000000 -1.000000
vn 0.000000 0.000000 1.000000
vn 0.000000 0.000000 1.000000
vn 0.000000 0.000000 1.000000
vn 0.000000 0.000000 1.000000
vn 0.000000 0.000000 1.000000
vn 0.000000 0.000000 1.000000
vn 0.000000 0.000000 1.000000
vn 1.000000 0.000000 0.000000
vn 0.000000 0.000000 1.000000
vn 0.000000 0.000000 1.000000
vn 0.000000 0.000000 1.000000
vn 0.000000 0.000000 1.000000
vn 0.000000 0.000000 1.000000
vn 0.000000 0.000000 1.000000
vn -1.000000 0.000000 0.000000
vn 1.000000 0.000000 0.000000
vn 1.000000 0.000000 0.000000
vn 1.000000 0.000000 0.000000
vn 1.000000 0.000000 0.000000
vn 0.000000 1.000000 0.000000
vn 1.000000 0.000000 0.000000
vn -1.000000 0.000000 0.000000
vn 1.000000 0.000000 0.000000
vn 1.000000 0.000000 0.000000
vn 1.000000 0.000000 0.000000
vn 1.000000 0.000000 0.000000
vn 1.000000 0.000000 0.000000
vn 0.000000 1.000000 0.000000
vn 0.000000 1.000000 0.000000
vn 0.000000 1.000000 0.000000
vn 0.000000 1.000000 0.000000
vn 0.000000 0.000000 -1.000000
vn 0.000000 0.000000 -1.000000
vn 0.000000 1.000000 0.000000
vn 0.000000 0.000000 -1.000000
vn -1.000000 0.000000 0.000000
vn -1.000000 0.000000 0.000000
vn 0.000000 0.000000 -1.000000
vn -1.000000 0.000000 0.000000
vn 1.000000 0.000000 0.000000
vn 1.000000 0.000000 0.000000
vn 1.000000 0.000000 0.000000
vn 1.000000 0.000000 0.000000
vn 1.000000 0.000000 0.000000
vn 1.000000 0.000000 0.000000
vn -1.000000 0.000000 0.000000
vn -1.000000 0.000000 0.000000
vn 1.000000 0.000000 0.000000
vn -1.000000 0.000000 0.000000
vn -1.000000 0.000000 0.000000
vn -1.000000 0.000000 0.000000
vn -1.000000 0.000000 0.000000
vn -1.000000 0.000000 0.000000
vn -1.000000 0.000000 0.000000
vn 0.000000 1.000000 0.000000
vn 0.000000 1.000000 0.000000
vn 0.000000 1.000000 0.000000
vn -1.000000 0.000000 0.000000
vn -1.000000 0.000000 0.000000
vn -1.000000 0.000000 0.000000
vn -1.000000 0.000000 0.000000
vn -1.000000 0.000000 0.000000
vn -1.000000 0.000000 0.000000
vn 0.000000 -1.000000 0.000000
vn 0.000000 -1.000000 0.000000
vn -1.000000 0.000000 0.000000
vn -1.000000 0.000000 0.000000
vn 0.000000 0.000000 1.000000
vn 0.000000 0.000000 1.000000
vn 0.000000 0.000000 1.000000
vn 0.000000 0.000000 1.000000
vn 1.000000 0.000000 0.000000
vn 1.000000 0.000000 0.000000
vn 1.000000 0.000000 0.000000
vn 0.000000 0.000000 1.000000
vn 0.000000 0.000000 1.000000
vn 0.000000 0.000000 1.000000
vn 0.000000 0.000000 1.000000
vn 0.000000 0.000000 1.000000
vn 1.000000 0.000000 0.000000
vn 0.000000 0.000000 1.000000
vn 0.000000 0.000000 1.000000
vn 0.000000 0.000000 1.000000
vn 0.000000 0.000000 1.000000
vn 0.000000 0.000000 1.000000
vn 0.000000 0.000000 1.000000
vn 0.000000 0.000000 1.000000
vn 0.000000 0.000000 1.000000
vn 0.000000 0.000000 1.000000
vn 0.000000 0.000000 1.000000
vn 1.000000 0.000000 0.000000
vn 0.000000 0.000000 -1.000000
vn 1.000000 0.000000 0.000000
vn 0.000000 0.000000 1.000000
vn 0.000000 0.000000 1.000000
vn 0.000000 0.000000 1.000000
vn 0.000000 0.000000 1.000000
vn 0.000000 0.000000 1.000000
vn -1.000000 0.000000 0.000000
vn 0.000000 0.000000 1.000000
vn -1.000000 0.000000 0.000000
vn -1.000000 0.000000 0.000000
vn 1.000000 0.000000 0.000000
vn -1.000000 0.000000 0.000000
vn 1.000000 0.000000 0.000000
vn 0.000000 -1.000000 0.000000
vn 0.000000 -1.000000 0.000000
vn 0.000000 -1.000000 0.000000
vn 0.000000 0.000000 -1.000000
vn 0.000000 0.000000 -1.000000
vn 0.000000 0.000000 -1.000000
vn 0.000000 0.000000 -1.000000
vn 0.000000 0.000000 -1.000000
vn 0.000000 0.000000 1.000000
vn 0.000000 0.000000 1.000000
vn 0.000000 0.000000 1.000000
vn 0.000000 0.000000 -1.000000
vn 0.000000 0.000000 -1.000000
vn 0.000000 0.000000 -1.000000
vn 0.000000 0.000000 -1.000000
vn 0.000000 0.000000 -1.000000
vn 0.000000 0.000000 -1.000000
vn 0.000000 0.000000 -1.000000
vn 0.000000 0.000000 -1.000000
vn 0.000000 0.000000 -1.000000
vn 0.000000 0.000000 -1.000000
vn 0.000000 0.000000 -1.000000
vn 0.000000 0.000000 -1.000000
vn 0.000000 0.000000 -1.000000
vn 0.000000 0.000000 -1.000000
vn 0.000000 0.000000 -1.000000
vn 0.000000 0.000000 -1.000000
vn 0.000000 1.000000 0.000000
vn 0.000000 1.000000 0.000000
vn 0.000000 0.000000 -1.000000
vn 0.000000 1.000000 0.000000
vn 0.000000 0.000000 -1.000000
vn 0.000000 0.000000 -1.000000
vn 0.000000 0.000000 -1.000000
vn 0.000000 0.000000 -1.000000
vn 0.000000 0.000000 1.000000
vn 0.000000 0.000000 1.000000
vn 0.000000 0.000000 1.000000
vn 0.000000 0.000000 1.000000
vn 0.000000 0.000000 1.000000
vn 0.000000 0.000000 1.000000
vn 0.000000 0.000000 1.000000
vn 0.000000 0.000000 1.000000
vn 0.000000 0.000000 1.000000
vn 1.000000 0.000000 0.000000
vn -1.000000 0.000000 0.000000
vn 0.000000 -1.000000 0.000000
vn 0.000000 -1.000000 0.000000
vn 0.000000 0.000000 1.000000
vn 0.000000 0.000000 1.000000
vn 0.000000 0.000000 1.000000
vn 1.000000 0.000000 0.000000
vn -1.000000 0.000000 0.000000
vn 1.000000 0.000000 0.000000
vn 1.000000 0.000000 0.000000
vn 1.000000 0.000000 0.000000
vn 1.000000 0.000000 0.000000
vn 1.000000 0.000000 0.000000
vn 1.000000 0.000000 0.000000
vn 1.000000 0.000000 0.000000
vn -1.000000 0.000000 0.000000
vn 1.000000 0.000000 0.000000
vn 1.000000 0.000000 0.000000
vn 1.000000 0.000000 0.000000
vn -1.000000 0.000000 0.000000
vn -1.000000 0.000000 0.000000
vn -1.000000 0.000000 0.000000
vn 1.000000 0.000000 0.000000
vn 1.000000 0.000000 0.000000
vn 0.000000 0.000000 -1.000000
vn 0.000000 0.000000 -1.000000
vn 0.000000 0.000000 -1.000000
vn -0.466830 -0.884347 0.000000
vn 0.466830 -0.884347 0.000000
vn -0.466830 -0.884347 0.000000
vn 1.000000 0.000000 0.000000
vn 1.000000 0.000000 0.000000
vn 1.000000 0.000000 0.000000
vn 1.000000 0.000000 0.000000
vn 1.000000 0.000000 0.000000
vn 1.000000 0.000000 0.000000
vn 1.000000 0.000000 0.000000
vn 1.000000 0.000000 0.000000
vn 1.000000 0.000000 0.000000
vn 1.000000 0.000000 0.000000
vn 1.000000 0.000000 0.000000
vn 1.000000 0.000000 0.000000
vn 0.000000 0.000000 1.000000
vn 0.000000 -1.000000 0.000000
vn 0.000000 -1.000000 0.000000
vn 1.000000 0.000000 0.000000
vn 1.000000 0.000000 0.000000
vn 1.000000 0.000000 0.000000
vn 1.000000 0.000000 0.000000
vn -1.000000 0.000000 0.000000
vn -1.000000 0.000000 0.000000
vn -1.000000 0.000000 0.000000
vn -1.000000 0.000000 0.000000
vn 1.000000 0.000000 0.000000
vn 1.000000 0.000000 0.000000
vn 1.000000 0.000000 0.000000
vn 1.000000 0.000000 0.000000
vn 1.000000 0.000000 0.000000
vn 1.000000 0.000000 0.000000
vn 0.000000 -1.000000 0.000000
vn 1.000000 0.000000 0.000000
vn 0.000000 -1.000000 0.000000
vn 0.000000 -1.000000 0.000000
vn -1.000000 0.000000 0.000000
vn 0.000000 -1.000000 0.000000
vn -1.000000 0.000000 0.000000
vn -1.000000 0.000000 0.000000
vn 0.000000 0.000000 1.000000
vn -1.000000 0.000000 0.000000
vn 0.000000 0.000000 1.000000
vn 0.000000 0.000000 1.000000
vn -1.000000 0.000000 0.000000
vn 0.000000 0.000000 1.000000
vn -1.000000 0.000000 0.000000
vn 0.000000 0.000000 1.000000
vn 0.000000 0.000000 1.000000
vn -1.000000 0.000000 0.000000
vn 0.000000 0.000000 1.000000
vn 0.000000 -1.000000 0.000000
vn 0.000000 0.000000 1.000000
vn 0.000000 -1.000000 0.000000
vn 0.000000 0.000000 1.000000
vn 0.000000 0.000000 1.000000
vn 0.000000 -1.000000 0.000000
vn 0.000000 -1.000000 0.000000
vn 0.000000 0.000000 -1.000000
vn 0.608017 0.793924 0.000000
vn -0.466830 -0.884347 0.000000
vn 0.000000 -1.000000 0.000000
vn -1.000000 0.000000 0.000000
vn -1.000000 0.000000 0.000000
vn 0.000000 -1.000000 0.000000
vn -1.000000 0.000000 0.000000
vn -1.000000 0.000000 0.000000
vn -1.000000 0.000000 0.000000
vn -1.000000 0.000000 0.000000
vn 0.000000 0.000000 1.000000
vn 0.000000 0.000000 1.000000
vn -1.000000 0.000000 0.000000
vn 0.000000 0.000000 1.000000
vn 0.000000 1.000000 0.000000
vn -0.036519 -0.041630 -0.998465
vn -0.026267 -0.063428 -0.997641
vn 0.000000 -0.118965 -0.992898
vn 1.000000 0.000000 0.000000
vn 0.000000 1.000000 0.000000
vn 0.000000 1.000000 0.000000
vn 0.000000 1.000000 0.000000
vn 0.000000 1.000000 0.000000
vn 0.000000 1.000000 0.000000
vn -0.026267 -0.063428 -0.997641
vn 0.999083 -0.042806 0.000000
vn 0.999083 -0.042806 0.000000
vn 0.999083 -0.042806 0.000000
vn 0.999083 -0.042806 0.000000
vn -0.992898 -0.118965 0.000000
vn -0.992898 -0.118965 0.000000
vn -0.992898 -0.118965 0.000000
vn -0.992898 -0.118965 0.000000
vn -0.989669 -0.143370 0.000000
vn -0.989669 -0.143370 0.000000
vn -0.989669 -0.143370 0.000000
vn -0.989669 -0.143370 0.000000
vn 0.000000 -0.143370 -0.989669
vn 0.000000 -0.143370 -0.989669
vn 0.000000 -0.143370 -0.989669
vn 0.000000 -0.143370 -0.989669
vn 0.989471 -0.144733 0.000000
vn 0.989471 -0.144733 0.000000
vn 0.989471 -0.144733 0.000000
vn 0.989471 -0.144733 0.000000
vn 0.000000 -0.143370 0.989669
vn 0.000000 -0.143370 0.989669
vn 0.000000 -0.143370 0.989669
vn 0.000000 -0.143370 0.989669
vn 0.000000 1.000000 0.000000
vn 0.000000 1.000000 0.000000
vn 0.000000 1.000000 0.000000
vn 0.734122 0.679017 0.000000
vn 0.000000 0.000000 1.000000
vn 1.000000 0.000000 0.000000
vn 1.000000 0.000000 0.000000
vn 0.000000 0.000000 1.000000
vn 0.000000 1.000000 0.000000
vn 0.000000 1.000000 0.000000
vn 0.000000 1.000000 0.000000
vn 0.000000 0.000000 1.000000
vn 0.000000 1.000000 0.000000
vn 1.000000 0.000000 0.000000
vn 1.000000 0.000000 0.000000
vn 0.000000 1.000000 0.000000
vn -0.719772 -0.694211 0.000000
vn 0.734122 0.679017 0.000000
vn 0.000000 0.000000 1.000000
vn -0.719772 -0.694211 0.000000
vn -0.719772 -0.694211 0.000000
vn -0.719772 -0.694211 0.000000
vn 0.734122 0.679017 0.000000
vn 0.734122 0.679017 0.000000
vn -0.026267 -0.063428 0.997641
vn -0.026267 -0.063428 0.997641
vn 0.000000 -0.118965 0.992898
vn -0.036519 -0.041630 0.998465
vn -1.000000 0.000000 0.000000
vn -1.000000 0.000000 0.000000
vn -1.000000 0.000000 0.000000
vn -1.000000 0.000000 0.000000
vn -1.000000 0.000000 0.000000
vn -1.000000 0.000000 0.000000
vn -1.000000 0.000000 0.000000
vn -1.000000 0.000000 0.000000
vn -1.000000 0.000000 0.000000
vn -1.000000 0.000000 0.000000
vn -1.000000 0.000000 0.000000
vn -1.000000 0.000000 0.000000
vn -1.000000 0.000000 0.000000
vn -1.000000 0.000000 0.000000
vn -1.000000 0.000000 0.000000
vn -1.000000 0.000000 0.000000
vn -1.000000 0.000000 0.000000
vn 0.000000 0.000000 -1.000000
vn 0.000000 0.000000 -1.000000
vn 0.000000 0.000000 -1.000000
vn 0.000000 0.000000 -1.000000
vn 0.000000 0.000000 -1.000000
vn 0.000000 0.000000 -1.000000
vn 0.000000 0.000000 -1.000000
vn 0.000000 0.000000 -1.000000
vn 0.000000 0.000000 -1.000000
vn 0.000000 0.000000 -1.000000
vn 0.000000 0.000000 -1.000000
vn 0.000000 0.000000 -1.000000
vn 0.000000 0.000000 -1.000000
vn 0.000000 0.000000 -1.000000
vn 1.000000 0.000000 0.000000
vn 0.000000 0.000000 -1.000000
vn 1.000000 0.000000 0.000000
vn -1.000000 0.000000 0.000000
vn 0.466830 -0.884347 0.000000
vn 1.000000 0.000000 0.000000
vn 0.466830 -0.884347 0.000000
vn -0.587206 -0.762078 -0.272811
vn -0.587206 -0.762078 -0.272811
vn 0.466830 -0.884347 0.000000
vn -0.587206 -0.762078 -0.272811
vn -0.591648 -0.764859 -0.254840
vn -0.591648 -0.764859 -0.254840
vn -0.591648 -0.764859 -0.254840
vn 0.587206 -0.762078 -0.272811
vn 0.587206 -0.762078 -0.272811
vn 0.591648 -0.764859 -0.254840
vn 0.587206 -0.762078 -0.272811
vn 0.591648 -0.764859 -0.254840
vn -0.587206 -0.762078 0.272811
vn -0.587206 -0.762078 0.272811
vn 0.591648 -0.764859 -0.254840
vn -0.587206 -0.762078 0.272811
vn -0.591648 -0.764859 0.254840
vn -0.591648 -0.764859 0.254840
vn -0.591648 -0.764859 0.254840
vn 0.587206 -0.762078 0.272811
vn 0.587206 -0.762078 0.272811
vn 0.591648 -0.764859 0.254840
vn 0.587206 -0.762078 0.272811
vn 0.591648 -0.764859 0.254840
vn 0.000000 0.000000 -1.000000
vn 0.000000 0.000000 -1.000000
vn 0.591648 -0.764859 0.254840
vn 0.000000 0.000000 -1.000000
vn 0.000000 0.000000 -1.000000
vn 0.000000 0.000000 -1.000000
vn 0.000000 0.000000 -1.000000
vn 0.000000 0.000000 -1.000000
vn 0.000000 0.000000 -1.000000
vn 0.000000 0.000000 -1.000000
vn 0.000000 0.000000 -1.000000
vn -0.608017 0.793924 0.000000
vn -0.608017 0.793924 0.000000
vn 0.000000 0.000000 -1.000000
vn 0.000000 0.000000 -1.000000
vn 0.000000 0.000000 -1.000000
vn 0.000000 0.000000 -1.000000
vn 0.000000 0.000000 -1.000000
vn 0.000000 0.000000 -1.000000
vn 0.466830 -0.884347 0.000000
vn 0.466830 -0.884347 0.000000
vn 0.000000 0.000000 -1.000000
vn -0.466830 -0.884347 0.000000
vn -0.466830 -0.884347 0.000000
vn 0.608017 0.793924 0.000000
vn 0.608017 0.793924 0.000000
vn 0.000000 0.000000 -1.000000
vn 0.608017 0.793924 0.000000
vn 0.000000 0.000000 -1.000000
vn -0.608017 0.793924 0.000000
vn -0.608017 0.793924 0.000000
vn 1.000000 0.000000 0.000000
vn 1.000000 0.000000 0.000000
vn 1.000000 0.000000 0.000000
vn 1.000000 0.000000 0.000000
vn 0.000000 0.000000 -1.000000
vn 0.000000 0.000000 -1.000000
vn 0.000000 0.000000 -1.000000
vn 0.000000 0.000000 -1.000000
vn 0.000000 0.000000 1.000000
vn 0.000000 0.000000 1.000000
vn 0.000000 0.000000 1.000000
vn 0.000000 0.000000 1.000000
vn -1.000000 0.000000 0.000000
vn -1.000000 0.000000 0.000000
vn -1.000000 0.000000 0.000000
vn -1.000000 0.000000 0.000000
vn 0.000000 0.000000 1.000000
vn 0.000000 0.000000 1.000000
vn 0.000000 0.000000 1.000000
vn 0.000000 0.000000 1.000000
vn 0.000000 0.000000 -1.000000
vn 0.000000 0.000000 -1.000000
vn 0.000000 0.000000 -1.000000
vn 1.000000 0.000000 0.000000
vn 1.000000 0.000000 0.000000
vn 1.000000 0.000000 0.000000
vn 1.000000 0.000000 0.000000
vn 0.000000 1.000000 0.000000
vn 0.000000 1.000000 0.000000
vn 0.000000 1.000000 0.000000
vn 0.000000 1.000000 0.000000
vn 0.000000 0.000000 1.000000
vn 0.000000 0.000000 1.000000
vn 0.000000 0.000000 1.000000
vn 0.000000 1.000000 0.000000
vn 0.000000 0.000000 1.000000
vn 0.000000 0.000000 -1.000000
vn 1.000000 0.000000 0.000000
vn 0.000000 1.000000 0.000000
vn 0.000000 -1.000000 0.000000
vn 0.000000 -1.000000 0.000000
vn 0.000000 -1.000000 0.000000
vn 0.000000 -1.000000 0.000000
vn 0.000000 1.000000 0.000000
vn 0.000000 -1.000000 0.000000
vn 0.000000 0.000000 1.000000
vn 0.000000 0.000000 1.000000
vn 0.000000 1.000000 0.000000
vn 0.000000 0.000000 -1.000000
vn 0.000000 1.000000 0.000000
vn 0.000000 0.000000 -1.000000
vn 0.000000 0.000000 -1.000000
vn 0.000000 -1.000000 0.000000
vn 0.000000 0.000000 -1.000000
vn 0.000000 -1.000000 0.000000
vn 0.000000 -1.000000 0.000000
vn 0.000000 1.000000 -0.000486
vn 0.000000 1.000000 0.000000
vn 0.000000 1.000000 0.000000
vn 0.000000 1.000000 0.000000
vn 0.000000 1.000000 0.000000
vn 0.000000 1.000000 0.000000
vn -0.866446 -0.499271 0.000000
vn -0.866446 -0.499271 0.000000
vn -0.866446 -0.499271 0.000000
vn -0.866446 -0.499271 0.000000
vn 0.000000 0.000000 1.000000
vn 0.000000 0.000000 1.000000
vn 0.000000 1.000000 0.000000
vn 0.000000 1.000000 0.000000
vn 0.000000 0.000000 1.000000
vn 0.000000 1.000000 0.000000
vn 0.000000 1.000000 0.000000
vn 0.000000 0.000000 1.000000
vn 1.000000 0.000000 0.000000
vn 1.000000 0.000000 0.000000
vn 1.000000 0.000000 0.000000
vn -1.000000 0.000000 0.000000
vn -1.000000 0.000000 0.000000
vn -1.000000 0.000000 0.000000
vn -1.000000 0.000000 0.000000
vn 1.000000 0.000000 0.000000
vn 0.000000 1.000000 0.000000
vn 0.000000 0.000000 1.000000
vn 0.000000 0.000000 1.000000
vn 1.000000 0.000000 0.000000
vn 0.000000 0.000000 1.000000
vn 1.000000 0.000000 0.000000
vn 1.000000 0.000000 0.000000
vn 0.000000 1.000000 0.000000
vn 1.000000 0.000000 0.000000
vn 0.000000 1.000000 0.000000
vn 0.000000 0.000000 1.000000
vn -1.000000 0.000000 0.000000
vn 0.000000 0.000000 1.000000
vn -0.899492 -0.436937 0.000000
vn -0.899492 -0.436937 0.000000
vn 0.000000 0.000000 1.000000
vn -0.400907 0.916119 0.000000
vn 0.000000 0.000000 1.000000
vn 0.899397 0.437133 0.000000
vn 0.000000 0.000000 1.000000
vn 0.000000 0.000000 1.000000
vn 0.000000 0.000000 1.000000
vn 0.000000 0.000000 1.000000
vn 0.000000 0.000000 1.000000
vn 0.000000 0.000000 1.000000
vn 0.000000 0.000000 1.000000
vn 0.000000 0.000000 1.000000
vn 0.000000 0.000000 1.000000
vn 0.000000 1.000000 0.000000
vn 0.000000 1.000000 0.000000
vn 0.000000 1.000000 0.000000
vn -1.000000 0.000000 0.000000
vn 1.000000 0.000000 0.000000
vn -1.000000 0.000000 0.000000
vn 0.899397 0.437133 0.000000
vn 0.866446 0.499271 0.000000
vn 0.866446 0.499271 0.000000
vn 0.866446 0.499271 0.000000
vn 0.866446 0.499271 0.000000
vn -0.461047 0.887376 0.000000
vn -0.461047 0.887376 0.000000
vn -0.461047 0.887376 0.000000
vn -0.461047 0.887376 0.000000
vn 0.000000 0.000000 1.000000
vn -0.899492 -0.436937 0.000000
vn 1.000000 0.000000 0.000000
vn -0.899492 -0.436937 0.000000
vn 0.000000 0.000000 1.000000
vn 0.899397 0.437133 0.000000
vn 0.899397 0.437133 0.000000
vn 0.000000 0.000000 1.000000
vn 0.000000 0.000000 1.000000
vn -1.000000 0.000000 0.000000
vn 1.000000 0.000000 0.000000
vn -0.400907 0.916119 0.000000
vn -0.400907 0.916119 0.000000
vn 1.000000 0.000000 0.000000
vn -0.400907 0.916119 0.000000
vn 1.000000 0.000000 0.000000
vn 1.000000 0.000000 0.000000
vn 1.000000 0.000000 0.000000
vn 0.037666 0.030423 0.998827
vn -0.469538 0.882849 -0.010567
vn -0.469609 0.882812 -0.010443
vn 0.006702 0.999978 0.000000
vn 0.003368 0.999994 -0.000730
vn 0.000000 0.000000 1.000000
vn 0.003368 0.999994 -0.000730
vn 1.000000 0.000000 0.000000
vn 0.000000 0.000000 1.000000
vn 0.000000 0.000000 1.000000
vn 1.000000 0.000000 0.000000
vn 0.000000 0.000000 1.000000
vn -0.273005 -0.023427 0.961727
vn -0.272998 -0.023400 0.961730
vn 0.033809 0.998851 0.033973
vn -0.273001 -0.023413 0.961729
vn 0.961181 -0.047023 0.271881
vn 0.961183 -0.047078 0.271866
vn -0.273001 -0.023413 0.961729
vn 0.961182 -0.047050 0.271873
vn 0.033896 0.998842 0.034142
vn 0.033896 0.998842 0.034142
vn 0.961182 -0.047050 0.271873
vn 0.033983 0.998833 0.034312
vn -0.033733 -0.998844 -0.034241
vn -0.033896 -0.998842 -0.034142
vn 0.000000 0.000000 1.000000
vn -0.033896 -0.998842 -0.034142
vn 0.000000 0.000000 1.000000
vn 0.000000 0.000000 1.000000
vn -0.034060 -0.998840 -0.034044
vn -0.891747 -0.451546 0.029887
vn 1.000000 0.000000 0.000000
vn 1.000000 0.000000 0.000000
vn 0.000000 1.000000 0.000000
vn 0.000000 0.000000 1.000000
vn 0.000000 1.000000 0.000000
vn 0.000000 1.000000 0.000000
vn 0.469757 -0.882731 0.010661
vn 0.469555 -0.882835 0.011013
vn 0.469959 -0.882628 0.010310
vn -0.469609 0.882812 -0.010443
vn -0.469681 0.882776 -0.010319
vn -1.000000 0.000000 0.000000
vn -1.000000 0.000000 0.000000
vn -1.000000 0.000000 0.000000
vn 0.000000 0.000000 1.000000
vn 0.000000 -1.000000 0.000000
vn -1.000000 0.000000 0.000000
vn -0.891938 -0.451177 0.029779
vn -0.892128 -0.450807 0.029670
vn 0.000000 0.000000 1.000000
vn 0.469757 -0.882731 0.010661
vn 0.891332 0.452364 -0.029897
vn 0.891733 0.451589 -0.029670
vn 0.891733 0.451589 -0.029670
vn 0.892133 0.450812 -0.029442
vn 1.000000 0.000000 0.000000
vn 0.000000 1.000000 0.000000
vn 1.000000 0.000000 0.000000
vn 0.000000 1.000000 0.000000
vn 0.971213 0.000000 -0.238215
vn -0.971301 0.000000 0.237854
vn 0.000000 1.000000 0.000000
vn 0.000000 1.000000 0.000000
vn 0.000000 1.000000 0.000000
vn 0.000000 1.000000 0.000000
vn 0.000000 1.000000 0.000000
vn -1.000000 0.000000 0.000000
vn -1.000000 0.000000 0.000000
vn -1.000000 0.000000 0.000000
vn -1.000000 0.000000 0.000000
vn -1.000000 0.000000 0.000000
vn -1.000000 0.000000 0.000000
vn 0.971213 0.000000 -0.238215
vn -1.000000 0.000000 0.000000
vn -1.000000 0.000000 0.000000
vn 0.000000 1.000000 0.000000
vn 0.000000 1.000000 0.000000
vn -1.000000 0.000000 0.000000
vn 0.000000 1.000000 0.000000
vn 0.000000 1.000000 0.000000
vn 0.000000 1.000000 0.000000
vn 0.000000 1.000000 0.000000
vn -1.000000 0.000000 0.000000
vn 0.037336 0.031437 0.998808
vn 0.037336 0.031437 0.998808
vn -1.000000 0.000000 0.000000
vn 0.037007 0.032449 0.998788
vn -0.891938 -0.451177 0.029779
vn 0.000000 0.000000 1.000000
vn 0.000000 0.000000 1.000000
vn 0.000000 0.000000 1.000000
vn 0.000000 1.000000 0.000000
vn -1.000000 0.000000 0.000000
vn -1.000000 0.000000 0.000000
vn -1.000000 0.000000 0.000000
vn -1.000000 0.000000 0.000000
vn 1.000000 0.000000 0.000000
vn 1.000000 0.000000 0.000000
vn 1.000000 0.000000 0.000000
vn -0.001437 0.000000 0.999999
vn -0.001437 0.000000 0.999999
vn -0.001437 0.000000 0.999999
vn -0.001437 0.000000 0.999999
vn 0.006465 0.999979 0.000000
vn 0.006465 0.999979 0.000000
vn 0.006465 0.999979 0.000000
vn 0.006465 0.999979 0.000000
vn 1.000000 0.000000 0.000000
vn 0.248166 0.000000 0.968718
vn -0.971301 0.000000 0.237854
vn -0.971301 0.000000 0.237854
vn 0.000000 -1.000000 0.000000
vn 0.000000 -1.000000 0.000000
vn 0.000000 -1.000000 0.000000
vn 0.971213 0.000000 -0.238215
vn 0.971213 0.000000 -0.238215
vn 0.248166 0.000000 0.968718
vn 0.248166 0.000000 0.968718
vn 0.248166 0.000000 0.968718
vn -0.971301 0.000000 0.237854
vn 0.000000 0.000000 1.000000
vn 0.000000 0.000000 1.000000
vn 0.000000 0.000000 1.000000
vn 0.000000 0.000000 1.000000
vn 0.000000 0.000000 1.000000
vn 0.000000 0.000000 1.000000
vn 0.000000 -1.000000 0.000000
vn 0.000000 -1.000000 0.000000
vn 0.000000 -1.000000 0.000000
vn 0.000000 0.000000 1.000000
vn -1.000000 0.000000 0.000000
vn -1.000000 0.000000 0.000000
vn 1.000000 0.000000 0.000000
vn 0.000000 0.000000 1.000000
vn 0.000000 0.000000 1.000000
vn 0.000000 0.000000 1.000000
vn -1.000000 0.000000 0.000000
vn 0.000000 0.000000 1.000000
vn 0.000000 0.000000 1.000000
vn -1.000000 0.000000 0.000000
vn 0.000000 0.000000 1.000000
vn 0.000000 0.000000 1.000000
vn 0.000000 0.000000 1.000000
vn 0.000000 0.000000 1.000000
vn 0.000000 0.000000 1.000000
vn 0.000000 0.000000 1.000000
vn 0.000000 0.000000 -1.000000
vn 0.000000 0.000000 -1.000000
vn 0.000000 0.000000 -1.000000
vn 0.000000 0.000000 -1.000000
vn 0.000000 0.000000 -1.000000
vn 0.000000 0.000000 -1.000000
vn 0.000000 0.000000 1.000000
vn 0.000000 0.000000 1.000000
vn 0.000000 0.000000 -1.000000
vn 0.000000 0.000000 -1.000000
vn -1.000000 0.000000 0.000000
vn -1.000000 0.000000 0.000000
vn 0.000000 -1.000000 0.000000
vn 0.000000 0.000000 -1.000000
vn 0.000000 0.000000 -1.000000
vn 0.000000 0.000000 -1.000000
vn 0.000000 0.000000 -1.000000
vn 0.000000 0.000000 -1.000000
vn 0.000000 0.000000 -1.000000
vn 0.000000 0.000000 -1.000000
vn -1.000000 0.000000 0.000000
vn -1.000000 0.000000 0.000000
vn 0.000000 0.000000 -1.000000
vn 1.000000 0.000000 0.000000
vn -1.000000 0.000000 0.000000
vn 0.000000 0.000000 1.000000
vn -0.999157 -0.032296 0.025356
vn 1.000000 0.000000 0.000000
vn 1.000000 0.000000 0.000000
vn 0.000000 1.000000 0.000000
vn 1.000000 0.000000 0.000000
vn 0.000000 1.000000 0.000000
vn 0.000000 1.000000 0.000000
vn -0.955754 0.231378 0.181655
vn 0.000000 1.000000 0.000000
vn 1.000000 0.000000 0.000000
vn 1.000000 0.000000 0.000000
vn -0.981872 0.149086 0.117048
vn 1.000000 0.000000 0.000000
vn 0.000000 -1.000000 0.000000
vn 0.000000 -1.000000 0.000000
vn 0.000000 -1.000000 0.000000
vn 0.000000 -1.000000 0.000000
vn 0.000000 -0.094632 0.995512
vn 0.000000 0.234448 0.972129
vn 0.000000 0.548929 0.835869
vn 0.000000 0.096494 0.995334
vn 0.000000 0.548929 0.835869
vn -1.000000 0.000000 0.000000
vn -0.982323 -0.147240 0.115598
vn 0.955754 0.231378 0.181655
vn -0.957421 -0.227073 0.178275
vn 0.997722 -0.053058 0.041656
vn 0.982323 -0.147240 0.115598
vn 1.000000 0.000000 0.000000
vn 0.957421 -0.227073 0.178275
vn 0.999152 0.032386 0.025426
vn 0.981872 0.149086 0.117048
vn 1.000000 0.000000 0.000000
vn 0.000000 -0.230125 0.973161
vn 0.000000 -0.541392 0.840771
vn 0.000000 -0.542616 -0.839981
vn 0.000000 -0.541392 0.840771
vn 0.000000 1.000000 0.000000
vn 0.000000 1.000000 0.000000
vn 0.000000 1.000000 0.000000
vn 0.000000 0.000000 1.000000
vn 0.000000 1.000000 0.000000
vn 0.000000 0.542616 -0.839981
vn 0.000000 0.542616 -0.839981
vn 0.000000 0.542616 -0.839981
vn 0.000000 0.542616 -0.839981
vn 0.000000 -0.542616 -0.839981
vn 0.000000 -0.542616 -0.839981
vn 0.000000 -0.542616 -0.839981
vn 0.000000 0.000000 -1.000000
vn 0.000000 0.000000 -1.000000
vn 0.000000 0.000000 -1.000000
vn 0.000000 0.000000 -1.000000
vn -0.997701 0.053300 0.041846
vn 0.000000 0.000000 1.000000
vn 0.000000 0.000000 1.000000
f 331/331/331 329/329/329 328/328/328
f 259/259/259 335/335/335 333/333/333
f 351/351/351 353/353/353 350/350/350
f 457/457/457 454/454/454 452/452/452
f 458/458/458 456/456/456 455/455/455
f 460/460/460 459/459/459 461/461/461
f 463/463/463 465/465/465 462/462/462
f 469/469/469 466/466/466 464/464/464
f 470/470/470 468/468/468 467/467/467
f 472/472/472 471/471/471 473/473/473
f 475/475/475 477/477/477 474/474/474
f 481/481/481 478/478/478 476/476/476
f 282/282/282 499/499/499 498/498/498
f 502/502/502 281/281/281 283/283/283
f 341/341/341 281/281/281 501/501/501
f 492/492/492 507/507/507 505/505/505
f 393/393/393 396/396/396 407/407/407
f 400/400/400 396/396/396 393/393/393
f 405/405/405 409/409/409 410/410/410
f 410/410/410 409/409/409 408/408/408
f 406/406/406 412/412/412 392/392/392
f 392/392/392 412/412/412 411/411/411
f 4/4/4 5/5/5 451/451/451
f 7/7/7 5/5/5 4/4/4
f 395/395/395 453/453/453 6/6/6
f 6/6/6 453/453/453 394/394/394
f 10/10/10 11/11/11 14/14/14
f 14/14/14 11/11/11 9/9/9
f 8/8/8 13/13/13 15/15/15
f 15/15/15 13/13/13 12/12/12
f 236/236/236 237/237/237 18/18/18
f 239/239/239 237/237/237 236/236/236
f 17/17/17 22/22/22 16/16/16
f 28/28/28 22/22/22 17/17/17
f 27/27/27 29/29/29 26/26/26
f 32/32/32 29/29/29 27/27/27
f 31/31/31 33/33/33 30/30/30
f 36/36/36 33/33/33 31/31/31
f 35/35/35 37/37/37 34/34/34
f 23/23/23 37/37/37 35/35/35
f 24/24/24 25/25/25 38/38/38
f 19/19/19 25/25/25 24/24/24
f 20/20/20 21/21/21 42/42/42
f 48/48/48 21/21/21 20/20/20
f 47/47/47 49/49/49 46/46/46
f 52/52/52 49/49/49 47/47/47
f 50/50/50 2/2/2 63/63/63
f 63/63/63 2/2/2 1/1/1
f 51/51/51 56/56/56 54/54/54
f 54/54/54 56/56/56 53/53/53
f 55/55/55 209/209/209 210/210/210
f 210/210/210 209/209/209 211/211/211
f 330/330/330 45/45/45 57/57/57
f 325/325/325 45/45/45 330/330/330
f 330/330/330 327/327/327 325/325/325
f 44/44/44 61/61/61 43/43/43
f 60/60/60 61/61/61 44/44/44
f 59/59/59 62/62/62 58/58/58
f 3/3/3 62/62/62 59/59/59
f 64/64/64 65/65/65 66/66/66
f 67/67/67 65/65/65 64/64/64
f 68/68/68 69/69/69 70/70/70
f 71/71/71 69/69/69 68/68/68
f 72/72/72 73/73/73 74/74/74
f 75/75/75 73/73/73 72/72/72
f 39/39/39 40/40/40 41/41/41
f 79/79/79 40/40/40 39/39/39
f 80/80/80 81/81/81 82/82/82
f 83/83/83 81/81/81 80/80/80
f 87/87/87 88/88/88 89/89/89
f 90/90/90 88/88/88 87/87/87
f 91/91/91 92/92/92 93/93/93
f 94/94/94 92/92/92 91/91/91
f 95/95/95 96/96/96 97/97/97
f 98/98/98 96/96/96 95/95/95
f 99/99/99 85/85/85 84/84/84
f 86/86/86 85/85/85 99/99/99
f 103/103/103 235/235/235 238/238/238
f 238/238/238 235/235/235 233/233/233
f 189/189/189 190/190/190 106/106/106
f 192/192/192 190/190/190 189/189/189
f 107/107/107 108/108/108 109/109/109
f 110/110/110 108/108/108 107/107/107
f 114/114/114 115/115/115 116/116/116
f 117/117/117 115/115/115 114/114/114
f 100/100/100 101/101/101 102/102/102
f 118/118/118 101/101/101 100/100/100
f 127/127/127 128/128/128 129/129/129
f 130/130/130 128/128/128 127/127/127
f 537/537/537 359/359/359 133/133/133
f 360/360/360 359/359/359 537/537/537
f 131/131/131 134/134/134 137/137/137
f 137/137/137 134/134/134 132/132/132
f 135/135/135 138/138/138 141/141/141
f 141/141/141 138/138/138 136/136/136
f 139/139/139 142/142/142 170/170/170
f 170/170/170 142/142/142 140/140/140
f 173/173/173 172/172/172 174/174/174
f 174/174/174 172/172/172 171/171/171
f 177/177/177 176/176/176 183/183/183
f 183/183/183 176/176/176 175/175/175
f 178/178/178 180/180/180 199/199/199
f 199/199/199 180/180/180 179/179/179
f 204/204/204 207/207/207 202/202/202
f 205/205/205 207/207/207 204/204/204
f 208/208/208 196/196/196 206/206/206
f 194/194/194 196/196/196 208/208/208
f 212/212/212 213/213/213 195/195/195
f 216/216/216 213/213/213 212/212/212
f 215/215/215 222/222/222 214/214/214
f 220/220/220 222/222/222 215/215/215
f 223/223/223 226/226/226 221/221/221
f 224/224/224 226/226/226 223/223/223
f 227/227/227 230/230/230 225/225/225
f 228/228/228 230/230/230 227/227/227
f 231/231/231 234/234/234 229/229/229
f 232/232/232 234/234/234 231/231/231
f 240/240/240 241/241/241 242/242/242
f 243/243/243 241/241/241 240/240/240
f 244/244/244 245/245/245 246/246/246
f 247/247/247 245/245/245 244/244/244
f 248/248/248 249/249/249 250/250/250
f 251/251/251 249/249/249 248/248/248
f 252/252/252 218/218/218 217/217/217
f 219/219/219 218/218/218 252/252/252
f 271/271/271 314/314/314 253/253/253
f 311/311/311 314/314/314 271/271/271
f 312/312/312 314/314/314 311/311/311
f 269/269/269 347/347/347 348/348/348
f 348/348/348 347/347/347 349/349/349
f 270/270/270 266/266/266 263/263/263
f 263/263/263 266/266/266 272/272/272
f 264/264/264 267/267/267 277/277/277
f 277/277/277 267/267/267 265/265/265
f 268/268/268 286/286/286 284/284/284
f 284/284/284 286/286/286 276/276/276
f 285/285/285 290/290/290 288/288/288
f 288/288/288 290/290/290 287/287/287
f 289/289/289 294/294/294 292/292/292
f 292/292/292 294/294/294 291/291/291
f 293/293/293 299/299/299 302/302/302
f 302/302/302 299/299/299 295/295/295
f 300/300/300 262/262/262 260/260/260
f 260/260/260 262/262/262 301/301/301
f 261/261/261 306/306/306 304/304/304
f 304/304/304 306/306/306 303/303/303
f 305/305/305 344/344/344 346/346/346
f 346/346/346 344/344/344 343/343/343
f 310/310/310 308/308/308 307/307/307
f 309/309/309 308/308/308 310/310/310
f 313/313/313 318/318/318 316/316/316
f 316/316/316 318/318/318 315/315/315
f 317/317/317 322/322/322 320/320/320
f 320/320/320 322/322/322 319/319/319
f 321/321/321 326/326/326 324/324/324
f 324/324/324 326/326/326 323/323/323
f 332/332/332 298/298/298 334/334/334
f 338/338/338 334/334/334 298/298/298
f 337/337/337 338/338/338 298/298/298
f 342/342/342 338/338/338 337/337/337
f 345/345/345 342/342/342 337/337/337
f 297/297/297 345/345/345 337/337/337
f 257/257/257 336/336/336 296/296/296
f 296/296/296 336/336/336 258/258/258
f 352/352/352 418/418/418 420/420/420
f 420/420/420 418/418/418 417/417/417
f 397/397/397 398/398/398 354/354/354
f 401/401/401 398/398/398 397/397/397
f 357/357/357 356/356/356 364/364/364
f 364/364/364 356/356/356 355/355/355
f 367/367/367 366/366/366 368/368/368
f 368/368/368 366/366/366 365/365/365
f 371/371/371 370/370/370 372/372/372
f 372/372/372 370/370/370 369/369/369
f 375/375/375 374/374/374 376/376/376
f 376/376/376 374/374/374 373/373/373
f 379/379/379 378/378/378 380/380/380
f 380/380/380 378/378/378 377/377/377
f 383/383/383 382/382/382 384/384/384
f 384/384/384 382/382/382 381/381/381
f 387/387/387 386/386/386 388/388/388
f 388/388/388 386/386/386 385/385/385
f 391/391/391 390/390/390 399/399/399
f 399/399/399 390/390/390 389/389/389
f 413/413/413 414/414/414 415/415/415
f 416/416/416 414/414/414 413/413/413
f 419/419/419 433/433/433 77/77/77
f 77/77/77 433/433/433 76/76/76
f 423/423/423 422/422/422 424/424/424
f 424/424/424 422/422/422 421/421/421
f 427/427/427 426/426/426 428/428/428
f 428/428/428 426/426/426 425/425/425
f 431/431/431 430/430/430 432/432/432
f 432/432/432 430/430/430 429/429/429
f 446/446/446 449/449/449 78/78/78
f 447/447/447 449/449/449 446/446/446
f 434/434/434 435/435/435 436/436/436
f 436/436/436 435/435/435 437/437/437
f 438/438/438 439/439/439 440/440/440
f 440/440/440 439/439/439 441/441/441
f 442/442/442 443/443/443 444/444/444
f 444/444/444 443/443/443 445/445/445
f 402/402/402 450/450/450 448/448/448
f 403/403/403 450/450/450 402/402/402
f 363/363/363 361/361/361 404/404/404
f 362/362/362 361/361/361 363/363/363
f 479/479/479 482/482/482 485/485/485
f 485/485/485 482/482/482 480/480/480
f 483/483/483 486/486/486 489/489/489
f 489/489/489 486/486/486 484/484/484
f 487/487/487 493/493/493 496/496/496
f 496/496/496 493/493/493 488/488/488
f 494/494/494 497/497/497 500/500/500
f 500/500/500 497/497/497 495/495/495
f 339/339/339 514/514/514 515/515/515
f 515/515/515 514/514/514 516/516/516
f 340/340/340 506/506/506 504/504/504
f 504/504/504 506/506/506 503/503/503
f 490/490/490 508/508/508 509/509/509
f 509/509/509 508/508/508 491/491/491
f 512/512/512 511/511/511 513/513/513
f 513/513/513 511/511/511 510/510/510
f 532/532/532 530/530/530 517/517/517
f 531/531/531 530/530/530 532/532/532
f 520/520/520 519/519/519 521/521/521
f 521/521/521 519/519/519 518/518/518
f 524/524/524 523/523/523 525/525/525
f 525/525/525 523/523/523 522/522/522
f 528/528/528 527/527/527 529/529/529
f 529/529/529 527/527/527 526/526/526
f 533/533/533 534/534/534 535/535/535
f 535/535/535 534/534/534 536/536/536
f 358/358/358 122/122/122 126/126/126
f 126/126/126 122/122/122 120/120/120
f 540/540/540 539/539/539 544/544/544
f 544/544/544 539/539/539 538/538/538
f 543/543/543 542/542/542 545/545/545
f 545/545/545 542/542/542 541/541/541
f 551/551/551 550/550/550 552/552/552
f 552/552/552 550/550/550 549/549/549
f 546/546/546 279/279/279 278/278/278
f 278/278/278 279/279/279 280/280/280
f 553/553/553 559/559/559 557/557/557
f 557/557/557 559/559/559 548/548/548
f 547/547/547 121/121/121 119/119/119
f 119/119/119 121/121/121 111/111/111
f 558/558/558 563/563/563 561/561/561
f 561/561/561 563/563/563 560/560/560
f 562/562/562 554/554/554 565/565/565
f 565/565/565 554/554/554 564/564/564
f 555/555/555 113/113/113 112/112/112
f 112/112/112 113/113/113 556/556/556
f 160/160/160 159/159/159 123/123/123
f 158/158/158 159/159/159 160/160/160
f 152/152/152 157/157/157 125/125/125
f 156/156/156 157/157/157 152/152/152
f 124/124/124 144/144/144 143/143/143
f 143/143/143 144/144/144 145/145/145
f 148/148/148 146/146/146 151/151/151
f 151/151/151 146/146/146 147/147/147
f 150/150/150 154/154/154 153/153/153
f 153/153/153 154/154/154 149/149/149
f 155/155/155 162/162/162 161/161/161
f 161/161/161 162/162/162 163/163/163
f 166/166/166 164/164/164 169/169/169
f 169/169/169 164/164/164 165/165/165
f 168/168/168 256/256/256 255/255/255
f 255/255/255 256/256/256 167/167/167
f 254/254/254 274/274/274 273/273/273
f 273/273/273 274/274/274 275/275/275
f 105/105/105 200/200/200 198/198/198
f 104/104/104 200/200/200 105/105/105
f 193/193/193 104/104/104 105/105/105
f 197/197/197 104/104/104 193/193/193
f 203/203/203 197/197/197 193/193/193
f 201/201/201 197/197/197 203/203/203
f 201/201/201 203/203/203 200/200/200
f 200/200/200 203/203/203 198/198/198
f 181/181/181 182/182/182 188/188/188
f 181/181/181 184/184/184 182/182/182
f 182/182/182 184/184/184 187/187/187
f 184/184/184 185/185/185 187/187/187
f 187/187/187 185/185/185 191/191/191
f 185/185/185 188/188/188 191/191/191
f 191/191/191 188/188/188 186/186/186
f 188/188/188 182/182/182 186/186/186
f 572/572/572 573/573/573 574/574/574
f 574/574/574 573/573/573 575/575/575
f 576/576/576 596/596/596 594/594/594
f 594/594/594 596/596/596 593/593/593
f 579/579/579 620/620/620 621/621/621
f 621/621/621 620/620/620 622/622/622
f 577/577/577 615/615/615 618/618/618
f 618/618/618 615/615/615 613/613/613
f 568/568/568 566/566/566 578/578/578
f 567/567/567 566/566/566 568/568/568
f 616/616/616 617/617/617 580/580/580
f 619/619/619 617/617/617 616/616/616
f 590/590/590 588/588/588 587/587/587
f 589/589/589 588/588/588 590/590/590
f 584/584/584 585/585/585 586/586/586
f 591/591/591 585/585/585 584/584/584
f 569/569/569 570/570/570 571/571/571
f 592/592/592 570/570/570 569/569/569
f 597/597/597 600/600/600 595/595/595
f 598/598/598 600/600/600 597/597/597
f 581/581/581 601/601/601 599/599/599
f 582/582/582 601/601/601 581/581/581
f 611/611/611 614/614/614 583/583/583
f 612/612/612 614/614/614 611/611/611
f 640/640/640 641/641/641 626/626/626
f 610/610/610 641/641/641 640/640/640
f 627/627/627 628/628/628 629/629/629
f 630/630/630 628/628/628 627/627/627
f 631/631/631 632/632/632 633/633/633
f 634/634/634 632/632/632 631/631/631
f 637/637/637 645/645/645 648/648/648
f 648/648/648 645/645/645 624/624/624
f 635/635/635 639/639/639 642/642/642
f 642/642/642 639/639/639 607/607/607
f 605/605/605 638/638/638 636/636/636
f 606/606/606 638/638/638 605/605/605
f 608/608/608 647/647/647 649/649/649
f 649/649/649 647/647/647 646/646/646
f 643/643/643 604/604/604 609/609/609
f 602/602/602 604/604/604 643/643/643
f 644/644/644 625/625/625 603/603/603
f 623/623/623 625/625/625 644/644/644
f 650/650/650 686/686/686 652/652/652
f 663/663/663 660/660/660 651/651/651
f 728/728/728 725/725/725 723/723/723
f 732/732/732 729/729/729 726/726/726
f 661/661/661 662/662/662 658/658/658
f 664/664/664 662/662/662 661/661/661
f 566/566/566 657/657/657 659/659/659
f 659/659/659 657/657/657 656/656/656
f 673/673/673 674/674/674 667/667/667
f 676/676/676 674/674/674 673/673/673
f 665/665/665 668/668/668 671/671/671
f 671/671/671 668/668/668 666/666/666
f 669/669/669 672/672/672 675/675/675
f 675/675/675 672/672/672 670/670/670
f 619/619/619 617/617/617 679/679/679
f 679/679/679 617/617/617 580/580/580
f 612/612/612 614/614/614 611/611/611
f 611/611/611 614/614/614 583/583/583
f 590/590/590 588/588/588 587/587/587
f 589/589/589 588/588/588 590/590/590
f 584/584/584 585/585/585 586/586/586
f 591/591/591 585/585/585 584/584/584
f 569/569/569 570/570/570 571/571/571
f 592/592/592 570/570/570 569/569/569
f 594/594/594 596/596/596 593/593/593
f 576/576/576 596/596/596 594/594/594
f 597/597/597 600/600/600 595/595/595
f 598/598/598 600/600/600 597/597/597
f 581/581/581 601/601/601 599/599/599
f 582/582/582 601/601/601 581/581/581
f 678/678/678 680/680/680 677/677/677
f 683/683/683 680/680/680 678/678/678
f 744/744/744 688/688/688 681/681/681
f 745/745/745 688/688/688 744/744/744
f 682/682/682 699/699/699 743/743/743
f 743/743/743 699/699/699 704/704/704
f 702/702/702 742/742/742 684/684/684
f 703/703/703 742/742/742 702/702/702
f 738/738/738 739/739/739 653/653/653
f 741/741/741 739/739/739 738/738/738
f 695/695/695 655/655/655 694/694/694
f 694/694/694 655/655/655 654/654/654
f 692/692/692 705/705/705 691/691/691
f 691/691/691 705/705/705 693/693/693
f 706/706/706 707/707/707 708/708/708
f 708/708/708 707/707/707 709/709/709
f 710/710/710 686/686/686 712/712/712
f 712/712/712 686/686/686 685/685/685
f 711/711/711 720/720/720 719/719/719
f 719/719/719 720/720/720 687/687/687
f 721/721/721 723/723/723 722/722/722
f 722/722/722 723/723/723 724/724/724
f 689/689/689 731/731/731 730/730/730
f 690/690/690 731/731/731 689/689/689
f 746/746/746 690/690/690 689/689/689
f 733/733/733 734/734/734 735/735/735
f 735/735/735 734/734/734 736/736/736
f 737/737/737 697/697/697 740/740/740
f 740/740/740 697/697/697 698/698/698
f 697/697/697 696/696/696 698/698/698
f 701/701/701 696/696/696 697/697/697
f 768/768/768 767/767/767 700/700/700
f 766/766/766 767/767/767 768/768/768
f 749/749/749 748/748/748 750/750/750
f 750/750/750 748/748/748 747/747/747
f 756/756/756 755/755/755 757/757/757
f 757/757/757 755/755/755 754/754/754
f 760/760/760 759/759/759 761/761/761
f 761/761/761 759/759/759 758/758/758
f 751/751/751 752/752/752 753/753/753
f 753/753/753 752/752/752 762/762/762
f 773/773/773 772/772/772 763/763/763
f 763/763/763 772/772/772 771/771/771
f 774/774/774 765/765/765 715/715/715
f 715/715/715 765/765/765 764/764/764
f 714/714/714 727/727/727 769/769/769
f 769/769/769 727/727/727 770/770/770
f 713/713/713 717/717/717 716/716/716
f 716/716/716 717/717/717 718/718/718
f 784/784/784 881/881/881 780/780/780
f 780/780/780 881/881/881 826/826/826
f 787/787/787 839/839/839 837/837/837
f 837/837/837 839/839/839 836/836/836
f 785/785/785 791/791/791 794/794/794
f 794/794/794 791/791/791 786/786/786
f 792/792/792 775/775/775 798/798/798
f 798/798/798 775/775/775 793/793/793
f 776/776/776 795/795/795 799/799/799
f 799/799/799 795/795/795 777/777/777
f 796/796/796 790/790/790 788/788/788
f 788/788/788 790/790/790 797/797/797
f 789/789/789 807/807/807 808/808/808
f 808/808/808 807/807/807 800/800/800
f 809/809/809 806/806/806 804/804/804
f 804/804/804 806/806/806 810/810/810
f 805/805/805 801/801/801 802/802/802
f 802/802/802 801/801/801 814/814/814
f 803/803/803 818/818/818 817/817/817
f 817/817/817 818/818/818 819/819/819
f 816/816/816 820/820/820 823/823/823
f 823/823/823 820/820/820 815/815/815
f 821/821/821 811/811/811 812/812/812
f 812/812/812 811/811/811 822/822/822
f 813/813/813 781/781/781 783/783/783
f 783/783/783 781/781/781 782/782/782
f 824/824/824 831/831/831 829/829/829
f 829/829/829 831/831/831 828/828/828
f 830/830/830 835/835/835 833/833/833
f 833/833/833 835/835/835 832/832/832
f 834/834/834 838/838/838 880/880/880
f 880/880/880 838/838/838 825/825/825
f 825/825/825 827/827/827 880/880/880
f 849/849/849 827/827/827 825/825/825
f 850/850/850 827/827/827 849/849/849
f 852/852/852 827/827/827 850/850/850
f 843/843/843 841/841/841 840/840/840
f 842/842/842 841/841/841 843/843/843
f 848/848/848 846/846/846 845/845/845
f 845/845/845 846/846/846 847/847/847
f 847/847/847 844/844/844 845/845/845
f 860/860/860 844/844/844 847/847/847
f 860/860/860 863/863/863 844/844/844
f 861/861/861 863/863/863 860/860/860
f 851/851/851 857/857/857 858/858/858
f 858/858/858 857/857/857 859/859/859
f 857/857/857 855/855/855 859/859/859
f 853/853/853 855/855/855 857/857/857
f 853/853/853 854/854/854 855/855/855
f 856/856/856 854/854/854 853/853/853
f 862/862/862 873/873/873 874/874/874
f 874/874/874 873/873/873 875/875/875
f 865/865/865 866/866/866 864/864/864
f 868/868/868 866/866/866 865/865/865
f 778/778/778 779/779/779 867/867/867
f 882/882/882 779/779/779 778/778/778
f 869/869/869 870/870/870 871/871/871
f 872/872/872 870/870/870 869/869/869
f 879/879/879 877/877/877 876/876/876
f 878/878/878 877/877/877 879/879/879
