# Exported by s4extract — object_EV007_LittleLibrary_lod01_g02
o object_EV007_LittleLibrary_lod01_g02
v 0.220228 0.862724 0.221144
v 0.220228 1.359153 0.221144
v -0.220228 1.359153 0.221144
v -0.220228 0.862724 0.221144
v 0.220228 1.359153 0.244217
v 0.220228 0.862724 0.244217
v -0.220228 0.862724 0.244217
v -0.220228 1.359153 0.244217
vt 0.101166 0.251543
vt 0.101166 0.303508
vt 0.206878 0.303508
vt 0.206878 0.251543
vt 0.101166 0.303508
vt 0.101166 0.251543
vt 0.206878 0.251543
vt 0.206878 0.303508
vn 0.000000 0.000000 -1.000000
vn 0.000000 0.000000 -1.000000
vn 0.000000 0.000000 -1.000000
vn 0.000000 0.000000 -1.000000
vn 0.000000 0.000000 1.000000
vn 0.000000 0.000000 1.000000
vn 0.000000 0.000000 1.000000
vn 0.000000 0.000000 1.000000
f 4/4/4 2/2/2 1/1/1
f 3/3/3 2/2/2 4/4/4
f 8/8/8 6/6/6 5/5/5
f 7/7/7 6/6/6 8/8/8
