# Exported by s4extract — treeGCWCypress_02_lod01_g00
o treeGCWCypress_02_lod01_g00
v 0.164185 1.718770 0.181445
v 0.140005 1.708910 0.037843
v -0.163974 0.675299 0.123292
v -0.200182 0.675336 0.014352
v -0.210626 -0.124225 -0.141780
v -0.233701 -0.124225 -0.016120
v -0.219205 -0.124225 0.107170
v -0.073467 0.675262 0.199462
v 0.046430 0.675239 0.207878
v 0.189065 1.735820 -0.003877
v -0.192698 0.675369 -0.105399
v -0.117019 -0.124225 -0.239350
v 0.326871 1.701530 0.122864
v -0.148774 -0.124225 0.221016
v 0.135645 0.675245 0.133904
v 0.197562 0.675261 0.041821
v 0.336845 1.700610 0.068490
v -0.096461 0.675373 -0.177104
v 0.016790 -0.124225 -0.243422
v 0.288649 1.737680 0.173689
v 0.010860 7.268530 -0.018670
v -0.017472 -0.124225 0.253297
v 0.102890 -0.124225 0.210451
v 0.209890 0.675293 -0.079201
v 0.317389 1.739180 0.013526
v 0.202415 -0.124225 0.136252
v 0.224220 1.735600 0.195706
v 0.265793 -0.124225 0.018333
v 0.123782 0.675332 -0.166013
v 0.130811 -0.124225 -0.194331
v 0.228098 -0.124225 -0.111517
v -0.017452 7.268600 0.021759
v 0.011794 7.246880 0.008911
v -0.046917 7.247220 0.005630
v 0.013558 0.675358 -0.189200
v 0.125601 1.707250 0.141849
v 0.108996 1.725760 0.088738
v 0.258277 1.720930 -0.006897
v -0.019594 7.247150 -0.033556
v -0.050089 7.268870 -0.022055
vn -0.508377 0.047414 0.859829
vn -0.805615 0.050889 -0.590249
vn -0.855030 0.130680 0.501843
vn -0.982525 0.158783 0.097126
vn -0.939420 0.042781 -0.340088
vn -0.995842 0.048858 0.076882
vn -0.870536 0.067473 0.487457
vn -0.459693 0.075757 0.884841
vn 0.227586 0.004937 0.973745
vn -0.326705 0.045844 -0.944014
vn -0.830549 0.192685 -0.522553
vn -0.470933 0.071458 -0.879270
vn 0.928173 0.013287 0.371912
vn -0.431889 0.074581 0.898838
vn 0.717413 -0.043282 0.695303
vn 0.938835 -0.036808 0.342393
vn 0.998729 0.006703 -0.049945
vn -0.355347 0.176497 -0.917920
vn 0.091381 0.071786 -0.993225
vn 0.591616 0.010313 0.806154
vn 0.967600 0.054185 -0.246604
vn 0.041884 0.053333 0.997698
vn 0.525225 0.042382 0.849907
vn 0.943271 -0.011563 -0.331823
vn 0.653291 0.024415 -0.756713
vn 0.782760 0.062145 0.619213
vn 0.102122 0.032655 0.994236
vn 0.992879 0.060976 0.102337
vn 0.499275 0.053023 -0.864820
vn 0.434008 0.045367 -0.899766
vn 0.803935 0.037883 -0.593509
vn -0.343867 0.016494 0.938874
vn 0.661741 0.056369 0.747610
vn -0.992204 -0.025749 0.121937
vn 0.101555 0.113133 -0.988376
vn -0.819180 0.050317 0.571325
vn -0.989690 0.069547 -0.125209
vn 0.066084 0.028874 -0.997396
vn 0.193825 0.005384 -0.981021
vn -0.498741 -0.023568 -0.866431
f 30//30 29//29 31//31
f 29//29 30//30 35//35
f 35//35 38//38 29//29
f 25//25 29//29 38//38
f 29//29 25//25 24//24
f 24//24 31//31 29//29
f 31//31 24//24 28//28
f 16//16 28//28 24//24
f 28//28 16//16 26//26
f 19//19 35//35 30//30
f 35//35 19//19 18//18
f 18//18 10//10 35//35
f 38//38 35//35 10//10
f 10//10 40//40 38//38
f 39//39 38//38 40//40
f 38//38 39//39 25//25
f 21//21 25//25 39//39
f 25//25 21//21 17//17
f 17//17 24//24 25//25
f 24//24 17//17 16//16
f 12//12 18//18 19//19
f 18//18 12//12 11//11
f 11//11 2//2 18//18
f 10//10 18//18 2//2
f 2//2 40//40 10//10
f 40//40 2//2 34//34
f 37//37 34//34 2//2
f 36//36 34//34 37//37
f 34//34 36//36 32//32
f 5//5 11//11 12//12
f 11//11 5//5 4//4
f 4//4 37//37 11//11
f 2//2 11//11 37//37
f 6//6 4//4 5//5
f 4//4 6//6 3//3
f 3//3 36//36 4//4
f 37//37 4//4 36//36
f 7//7 3//3 6//6
f 3//3 7//7 8//8
f 8//8 1//1 3//3
f 36//36 3//3 1//1
f 1//1 32//32 36//36
f 27//27 32//32 1//1
f 32//32 27//27 33//33
f 20//20 33//33 27//27
f 13//13 33//33 20//20
f 33//33 13//13 21//21
f 14//14 8//8 7//7
f 8//8 14//14 9//9
f 9//9 27//27 8//8
f 1//1 8//8 27//27
f 22//22 9//9 14//14
f 23//23 9//9 22//22
f 9//9 23//23 15//15
f 15//15 20//20 9//9
f 27//27 9//9 20//20
f 26//26 15//15 23//23
f 15//15 26//26 16//16
f 16//16 13//13 15//15
f 20//20 15//15 13//13
f 13//13 16//16 17//17
f 17//17 21//21 13//13
